<?xml version="1.0" encoding="utf-8"?>
<!-- Generator: Adobe Illustrator 16.0.0, SVG Export Plug-In . SVG Version: 6.00 Build 0)  -->
<!DOCTYPE svg PUBLIC "-//W3C//DTD SVG 1.1//EN" "http://www.w3.org/Graphics/SVG/1.1/DTD/svg11.dtd">
<svg version="1.1" id="Lag_1" xmlns="http://www.w3.org/2000/svg" xmlns:xlink="http://www.w3.org/1999/xlink" x="0px" y="0px"
	 width="16.666px" height="30.492px" viewBox="0 0 16.666 30.492" enable-background="new 0 0 16.666 30.492" xml:space="preserve">
<g id="Shape_3">
	<g>
		<path fill="#FFFFFF" d="M14.529,9.339c-0.946-1.19-2.32-2.502-3.541-3.967C9.401,3.448,9.371,1.525,9.157,0H8.394v23.532
			c-0.549-0.519-1.465-0.671-2.533-0.671c-1.221,0-2.686,0.61-3.846,1.557C0.854,25.333,0,26.585,0,27.837
			c0,0.793,0.336,1.465,0.916,1.923c0.549,0.458,1.343,0.732,2.197,0.732c1.343,0,2.869-0.55,4.029-1.465
			c1.19-0.916,2.015-2.168,2.015-3.541V8.18c1.709,0.122,3.663,1.313,4.822,2.809c1.038,1.281,1.648,3.021,1.709,4.639
			c0.123,2.899-1.342,5.617-2.075,7.265h0.488c1.038-1.74,2.564-4.884,2.564-8.058C16.666,12.85,15.78,10.896,14.529,9.339z"/>
	</g>
</g>
<g id="Shape_3_2_">
	<g>
		<path fill="#FFFFFF" d="M14.529,9.339c-0.946-1.19-2.32-2.502-3.541-3.967C9.401,3.448,9.371,1.525,9.157,0H8.394v23.532
			c-0.549-0.519-1.465-0.671-2.533-0.671c-1.221,0-2.686,0.61-3.846,1.557C0.854,25.333,0,26.585,0,27.837
			c0,0.793,0.336,1.465,0.916,1.923c0.549,0.458,1.343,0.732,2.197,0.732c1.343,0,2.869-0.55,4.029-1.465
			c1.19-0.916,2.015-2.168,2.015-3.541V8.18c1.709,0.122,3.663,1.313,4.822,2.809c1.038,1.281,1.648,3.021,1.709,4.639
			c0.123,2.899-1.342,5.617-2.075,7.265h0.488c1.038-1.74,2.564-4.884,2.564-8.058C16.666,12.85,15.78,10.896,14.529,9.339z"/>
	</g>
</g>
</svg>
