<?xml version="1.0" standalone="no"?>
<!DOCTYPE svg PUBLIC "-//W3C//DTD SVG 20010904//EN"
 "http://www.w3.org/TR/2001/REC-SVG-20010904/DTD/svg10.dtd">
<svg version="1.0" xmlns="http://www.w3.org/2000/svg"
 width="235.000000pt" height="235.000000pt" viewBox="0 0 235.000000 235.000000"
 preserveAspectRatio="xMidYMid meet">
<g transform="translate(0.000000,235.000000) scale(0.100000,-0.100000)"
fill="#3C599F" stroke="none">
<path d="M85 2335 c-16 -9 -40 -28 -52 -43 l-23 -27 0 -1091 c0 -1071 0 -1092
20 -1116 46 -59 36 -58 654 -58 l566 0 0 455 0 455 -150 0 -150 0 0 180 0 180
149 0 149 0 4 183 c4 146 9 194 25 244 28 84 62 141 118 192 105 97 245 125
512 104 l83 -6 0 -163 0 -162 -138 -4 c-111 -2 -143 -6 -165 -21 -54 -35 -61
-57 -65 -218 l-4 -149 176 0 176 0 0 -29 c0 -16 -9 -96 -20 -177 -11 -82 -20
-150 -20 -151 0 -2 -70 -3 -155 -3 l-155 0 0 -455 0 -455 305 0 c317 0 339 3
380 44 35 34 35 43 35 1136 l0 1082 -21 30 c-44 61 9 58 -1146 58 -928 0
-1062 -2 -1088 -15z"/>
</g>
</svg>
