<?xml version="1.0" standalone="no"?>
<!DOCTYPE svg PUBLIC "-//W3C//DTD SVG 20010904//EN"
 "http://www.w3.org/TR/2001/REC-SVG-20010904/DTD/svg10.dtd">
<svg width="235" height="235" xmlns="http://www.w3.org/2000/svg" preserveAspectRatio="xMidYMid meet">
 <g>
  <title>Layer 1</title>
  <rect id="svg_3" fill="#3C599F" height="235" width="235" y="0" x="0"/>
  <g id="svg_1" transform="translate(52 144) scale(0.1, -0.1)">
   <path fill="#FFF" d="m712.77777,-943.33337l0,455l0,455l-150,0l-150,0l0,180l0,180l149,0l149,0l4,183c4,146 9,194 25,244c28,84 62,141 118,192c105,97 244.99994,125 511.99994,104l83,-6l0,-163l0,-162l-138,-4c-111,-2 -143,-6 -165,-21c-54,-35 -61,-57 -65,-218l-4,-149l176,0l176,0l0,-29c0,-16 -9,-96 -20,-177c-11,-82 -20,-150 -20,-151c0,-2 -70,-3 -155,-3l-155,0l0,-455l0,-455l-369.99994,0z" id="svg_2"/>
  </g>
 </g>
</svg>