<?xml version="1.0"?>
<svg width="38" height="38" xmlns="http://www.w3.org/2000/svg">
 <g>
  <title>Layer 1</title>
  <path d="m27.269012,14.552979c0.024994,-0.270996 0.041016,-0.546997 0.041016,-0.823975v-4.416016c0,-4.617065 -3.747009,-8.363037 -8.366028,-8.363037c-4.616974,0 -8.357971,3.745972 -8.357971,8.363037v4.416016c0,0.276978 0.015991,0.553955 0.040985,0.822998c-2.371002,0.603027 -4.127014,2.74292 -4.127014,5.299927v11.127075c0,3.020996 2.447021,5.470947 5.472015,5.470947h13.95401c3.018982,0 5.470001,-2.449951 5.470001,-5.470947v-11.127075c-0.002014,-2.555908 -1.758026,-4.697876 -4.127014,-5.29895zm-14.549011,-4.677002c0,-3.437988 2.785004,-6.228027 6.225006,-6.228027s6.230988,2.786987 6.230988,6.228027v3.289063c0,0.414917 -0.041992,0.81897 -0.119995,1.213989h-12.21701c-0.075989,-0.39502 -0.118988,-0.799072 -0.118988,-1.213989v-3.289063l0,0zm7.622009,16.792969v3.187988h-2.096985v-3.187988c-0.83902,-0.375 -1.429016,-1.166016 -1.429016,-2.099976c0,-1.290039 1.106995,-2.33606 2.473999,-2.33606c1.372009,0 2.480011,1.046021 2.480011,2.33606c0.000977,0.932983 -0.588013,1.727051 -1.428009,2.099976z" fill="#FFFFFF"/>
 </g>
</svg>