<svg width="48" height="48" xmlns="http://www.w3.org/2000/svg">
 <!-- Created with SVG-edit - http://svg-edit.googlecode.com/ -->
 <g>
  <title>Layer 1</title>
  <g fill="white" id="svg_1">
   <g id="svg_2">
    <polygon points="27.702 2.89502 27.702 4.89502 33.116 4.89502 33.116 21.592 35.116 20.238 35.116 2.89502" id="svg_3"/>
    <polygon points="33.116 43.77 27.702 43.77 27.702 45.77 35.116 45.77 35.116 28.7581 33.116 27.406" id="svg_4"/>
   </g>
   <path d="m8,3l0,42l18.202026,3l0,-48l-18.202026,3zm14.208984,22.332031c-0.736023,0 -1.333984,-0.5979 -1.333984,-1.332031s0.597961,-1.333984 1.333984,-1.333984c0.734982,0 1.331963,0.600098 1.331963,1.333984s-0.596983,1.332031 -1.331963,1.332031z" id="svg_5"/>
   <polyline points="32.484 24.498 40.025 19.4041 40.025 22.051 45.715 22.051 45.715 26.9441 40.025 26.9441 40.025 29.592 32.484 24.498" id="svg_6"/>
  </g>
 </g>
</svg>