<?xml version="1.0"?>
<svg width="38" height="38" xmlns="http://www.w3.org/2000/svg">
 <g>
  <path fill="#231F20" d="m32.64334,11.99084l-0.00159,-0.04594l-8.31754,-8.7389l0.02296,0l2.22393,2.3459l-2.32927,-2.46786l-0.03326,0l-0.07367,-0.07762l-0.00713,0l-2.8496,-3.00641l-13.49959,0c-2.21363,0 -4.00909,1.79546 -4.00909,4.0075l0,30.00164c0,2.21363 1.79546,4.0075 4.00909,4.0075l22.44361,0c2.21364,0 4.0083,-1.79387 4.0083,-4.0075l0,-20.34403l-1.58716,-1.67428zm-1.61805,22.0183c0,0.44273 -0.36035,0.80149 -0.80309,0.80149l-22.44361,0c-0.44113,0 -0.80149,-0.35877 -0.80149,-0.80149l0,-30.00164c0,-0.44115 0.36036,-0.80151 0.80149,-0.80151l13.28971,0l0.21542,6.99175c0,0 0.27958,4.62368 5.37369,4.06532l4.36708,-0.118l0,19.86407l0.0008,0l0,0.00001z" id="svg_2"/>
 </g>
</svg>