<?xml version="1.0" encoding="utf-8"?>
<!-- Generator: Adobe Illustrator 16.0.0, SVG Export Plug-In . SVG Version: 6.00 Build 0)  -->
<!DOCTYPE svg PUBLIC "-//W3C//DTD SVG 1.1//EN" "http://www.w3.org/Graphics/SVG/1.1/DTD/svg11.dtd">
<svg version="1.1" id="Lag_1" xmlns="http://www.w3.org/2000/svg" xmlns:xlink="http://www.w3.org/1999/xlink" x="0px" y="0px"
	 width="16.188px" height="28.98px" viewBox="0 0 16.188 28.98" enable-background="new 0 0 16.188 28.98" xml:space="preserve">
<g id="Shape_2_1_">
	<g>
		<path fill="#FFFFFF" d="M15.434,15.346c0.262-0.928,0.406-1.915,0.406-2.872c0-1.886-0.842-3.742-2.031-5.222
			c-0.898-1.132-2.205-2.379-3.626-3.626C8.935,2.494,8.761,1.044,8.703,0H7.978v22.366c-0.522-0.493-1.393-0.639-2.408-0.639
			c-1.16,0-2.553,0.58-3.655,1.479C0.813,24.077,0,25.268,0,26.457c0,0.754,0.319,1.392,0.871,1.827
			c0.522,0.436,1.276,0.696,2.089,0.696c1.276,0,2.727-0.522,3.829-1.393c1.131-0.87,1.915-2.06,1.915-3.365V11.516
			c1.625,1.132,4.555,2.583,5.686,3.975c0.986,1.219,1.103,2.118,1.161,3.655c0.058,1.394-0.668,3.598-1.276,4.526h0.463
			c0.842-1.393,1.451-3.075,1.451-5.106C16.188,17.376,15.927,16.332,15.434,15.346z M15.027,14.621
			c-0.203-0.32-0.436-0.668-0.696-0.987c-0.841-1.044-1.538-1.712-2.959-2.959c-1.247-1.131-2.611-3.249-2.669-5.338
			c1.625,0.929,3.452,2.089,4.584,3.481c0.986,1.219,1.74,2.408,1.798,3.945C15.114,13.257,15.085,14.011,15.027,14.621z"/>
	</g>
</g>
</svg>
