<svg width="40" height="40" xmlns="http://www.w3.org/2000/svg">
 <!-- Created with SVG-edit - http://svg-edit.googlecode.com/ -->
 <g transform="scale(-1,1)">
  <title>Layer 1</title>
  <path fill="white" d="m-16.966988,3.031971c-8.044012,0 -14.783001,5.63403 -16.521,13.15601l-6.512012,-0.07605l8.81601,14.23999l9.149002,-14.024891l-6.046021,-0.07202c1.575001,-4.655029 5.933001,-8.031981 11.110981,-8.031981c6.49301,0 11.778019,5.281981 11.778019,11.775999c0,6.497921 -5.285,11.781012 -11.778019,11.781012c-2.401991,0 -4.634991,-0.729 -6.49699,-1.967041l-2.834,4.34399c2.678999,1.771969 5.883999,2.811039 9.33099,2.811039c9.354031,0 16.967991,-7.608028 16.967991,-16.968988c0.002987,-9.35413 -7.609001,-16.96703 -16.964981,-16.96703l0.000019,0l0,-0.00002l0.000011,-0.00002z" id="svg_1"/>
 </g>
</svg>