<svg width="52" height="37" xmlns="http://www.w3.org/2000/svg">
 <g>
  <title>Layer 1</title>
  <path d="m47.668941,22.99609l-6.332031,0l0,-0.212891c0,-2.328129 -1.896,-4.227049 -4.22485,-4.227049c-2.330082,0 -4.225101,1.896 -4.225101,4.227049l0,0.212891l-29.886959,0c-1.65601,0 -3,1.34399 -3,3l0,2.667971c0,1.65601 1.34399,3 3,3l29.886959,0l0,0.496088c0,2.32983 1.89502,4.22485 4.225101,4.22485c2.327881,0 4.22485,-1.89502 4.22485,-4.22485l0,-0.496088l6.332031,0c1.65601,0 3,-1.34399 3,-3l0,-2.667971c0,-1.656981 -1.34399,-3 -3,-3zm-8.32983,9.163818c0,1.229 -0.99707,2.225101 -2.227051,2.225101c-1.229,0 -2.22485,-0.99609 -2.22485,-2.225101l0,-9.376949c0,-1.229979 0.994869,-2.227049 2.22485,-2.227049s2.227051,0.99609 2.227051,2.227049l0,9.376949z" id="svg_1" fill="white"/>
  <path d="m47.668949,4.43799l-29.88501,0l0,-0.21289c0,-2.32813 -1.895999,-4.2251 -4.225101,-4.2251c-2.32983,0 -4.22681,1.89502 -4.22681,4.2251l0,0.21289l-6.332029,0c-1.656011,0 -3,1.34399 -3,3l0,2.66797c0,1.65601 1.343989,3 3,3l6.332029,0l0,0.49609c0,2.32983 1.896,4.224851 4.22681,4.224851c2.32813,0 4.225101,-1.89502 4.225101,-4.224851l0,-0.49609l29.88501,0c1.65601,0 3,-1.34399 3,-3l0,-2.66797c0,-1.65796 -1.34399,-3 -3,-3zm-31.88501,9.16382c0,1.229001 -0.99609,2.2251 -2.225101,2.2251c-1.229,0 -2.22681,-0.99609 -2.22681,-2.2251l0,-9.37695c0,-1.22998 0.99585,-2.229 2.22681,-2.229c1.229,0 2.225101,0.99585 2.225101,2.229l0,9.37695z" id="svg_2" fill="white"/>
 </g>
</svg>