<svg width="42" height="38" xmlns="http://www.w3.org/2000/svg">
 <g>
  <title>Layer 1</title>
  <g fill="white" id="svg_1">
   <path d="m34.629028,30.91284l-4.158018,-27.50098c-0.21899,-1.44995 -1.573971,-2.448 -3.02301,-2.229l-21.46698,3.24292l-2.08197,0.31714l-1.45105,0.21899c-1.44995,0.21802 -2.448,1.56982 -2.22894,3.02197l4.15594,27.499999c0.22101,1.449951 1.573,2.448002 3.026,2.22998l1.44904,-0.219971l2.08398,-0.316158l21.465032,-3.244869c1.450989,-0.216061 2.44701,-1.571041 2.229969,-3.020021l0.000008,0zm-18.544979,-20.31299c2.983021,-0.4519 5.770021,1.604 6.223011,4.58691c0.451,2.98608 -1.604,5.771 -4.586,6.223141c-2.98804,0.45093 -5.77203,-1.604 -6.22302,-4.588131c-0.453,-2.986819 1.59802,-5.77197 4.586009,-6.22192zm13.108021,19.80298l-19.77802,2.989012c-0.682981,0.103996 -1.32001,-0.365971 -1.42297,-1.049072l-0.09802,-0.63892l-0.24596,-1.61694l-0.12103,-0.817141c-0.51599,-3.414061 1.83203,-6.59985 5.24603,-7.11401l1.101009,-0.16699c1.20197,0.609131 2.59796,0.87207 4.02997,0.654051c1.435011,-0.218019 2.68903,-0.87891 3.65802,-1.814939l1.10297,-0.166021c3.413019,-0.51709 6.60004,1.832031 7.11401,5.244871l0.125,0.814209l0.24403,1.6189l0.09601,0.63892c0.10297,0.683109 -0.36603,1.322269 -1.051031,1.42407l-0.000019,0z" id="svg_2"/>
   <path d="m37.89307,30.41699l-4.15802,-27.49805c-0.21899,-1.45093 -1.571949,-2.44897 -3.021971,-2.229l-1.75201,0.26416c1.45001,-0.21899 2.807011,0.77881 3.022032,2.229l4.159969,27.5c0.21899,1.448 -0.779972,2.803961 -2.229969,3.022951l1.749989,-0.26709c1.450989,-0.217041 2.448971,-1.569092 2.22998,-3.021971z" id="svg_3"/>
   <path d="m41.002079,29.94702l-4.15601,-27.49707c-0.221008,-1.4519 -1.573971,-2.44995 -3.02496,-2.23193l-1.75201,0.26709c1.450989,-0.21997 2.805969,0.77783 3.02496,2.229l4.15601,27.499021c0.22102,1.449949 -0.776978,2.803959 -2.228989,3.02393l1.751999,-0.26709c1.448009,-0.217041 2.448009,-1.57007 2.229,-3.022951z" id="svg_4"/>
  </g>
 </g>
</svg>