<svg width="40" height="29" xmlns="http://www.w3.org/2000/svg">
 <!-- Created with SVG-edit - http://svg-edit.googlecode.com/ -->
 <g>
  <title>Layer 1</title>
  <path fill="white" d="m39.748989,13.54102l-9.325989,5.385009l0,-5.876949l-7.98901,0c3.21701,-0.42004 5.700989,-3.16406 5.700989,-6.49402c0,-3.61902 -2.934999,-6.55505 -6.554989,-6.55505c-2.875,0 -5.31299,1.854 -6.19501,4.42798c-0.901,-2.54297 -3.32098,-4.36694 -6.17297,-4.36694c-3.621,0 -6.55502,2.93799 -6.55502,6.55701c0,3.18799 2.27805,5.84595 5.29602,6.43201l-8.203,0l0,15.706911l30.673,0l0,-5.415892l9.325991,5.385012l0,-15.185061l0,0l-0.000011,-0.00002zm-24.341979,-4.797c0.81,2.28296 2.845,3.97998 5.316989,4.30505l-10.253999,0c2.31201,-0.45203 4.184999,-2.11804 4.93701,-4.30505z" id="svg_1"/>
 </g>
</svg>