<?xml version="1.0" encoding="utf-8"?>
<!-- Generator: Adobe Illustrator 15.1.0, SVG Export Plug-In . SVG Version: 6.00 Build 0)  -->
<!DOCTYPE svg PUBLIC "-//W3C//DTD SVG 1.1//EN" "http://www.w3.org/Graphics/SVG/1.1/DTD/svg11.dtd">
<svg version="1.1" id="Layer_1" xmlns="http://www.w3.org/2000/svg" xmlns:xlink="http://www.w3.org/1999/xlink" x="0px" y="0px"
	 width="702.07px" height="1464.272px" viewBox="0 -95.21 702.07 1464.272" enable-background="new 0 -95.21 702.07 1464.272"
	 xml:space="preserve">
<text transform="matrix(1 0 0 1 48.7732 130.0254)" fill="#231F20" font-family="'Verdana'" font-size="14">Phone Book</text>
<text transform="matrix(1 0 0 1 199.1995 126.332)" fill="#231F20" font-family="'Verdana'" font-size="14">Calendar</text>
<text transform="matrix(1 0 0 1 327.2732 128.248)" fill="#231F20" font-family="'Verdana'" font-size="14">Briefcase</text>
<text transform="matrix(1 0 0 1 432.3025 129.2646)" fill="#231F20" font-family="'Verdana'" font-size="14">Business Man</text>
<text transform="matrix(1 0 0 1 559.7888 125.498)" fill="#231F20" font-family="'Verdana'" font-size="14">Business Man </text>
<text transform="matrix(1 0 0 1 596.4265 142.2979)" fill="#231F20" font-family="'Verdana'" font-size="14">Add</text>
<text transform="matrix(1 0 0 1 40.0266 235.2881)" fill="#231F20" font-family="'Verdana'" font-size="14">Business Man </text>
<text transform="matrix(1 0 0 1 67.5896 252.0879)" fill="#231F20" font-family="'Verdana'" font-size="14">Delete</text>
<text transform="matrix(1 0 0 1 180.2493 234.2441)" fill="#231F20" font-family="'Verdana'" font-size="14">Business Man </text>
<text transform="matrix(1 0 0 1 215.6594 251.0449)" fill="#231F20" font-family="'Verdana'" font-size="14">Find</text>
<text transform="matrix(1 0 0 1 316.2976 229.1582)" fill="#231F20" font-family="'Verdana'" font-size="12">Business Man </text>
<text transform="matrix(1 0 0 1 327.2107 243.5586)" fill="#231F20" font-family="'Verdana'" font-size="12">Preference</text>
<g>
	<path fill="#231F20" d="M488.862,79.455l-3.86,14.301l-1.838,0.016l-3.056-6.869l2.396-4.446h-4.998l2.502,4.337l-2.681,7.026
		l-2.354,0.02l-3.205-13.727c-11.836,1.315-15.783,15.781-15.783,15.781h48C502.672,82.743,488.862,79.455,488.862,79.455z"/>
	<circle fill="#231F20" cx="479.653" cy="64.642" r="13.25"/>
</g>
<text transform="matrix(1 0 0 1 432.9744 219.8682)" fill="#231F20" font-family="'Verdana'" font-size="12">Currency Dollar</text>
<text transform="matrix(1 0 0 1 562.2244 218.0928)" fill="#231F20" font-family="'Verdana'" font-size="12">Currency Pound</text>
<text transform="matrix(1 0 0 1 50.2253 348.4316)" fill="#231F20" font-family="'Verdana'" font-size="12">Currency Yen</text>
<text transform="matrix(1 0 0 1 187.3367 345.5547)" fill="#231F20" font-family="'Verdana'" font-size="12">Currency Euro</text>
<g>
	<path fill="#231F20" d="M488.282,687.154l-3.608,13.367l-9.373,0.077l-2.995-12.83c-11.063,1.229-14.751,14.75-14.751,14.75h44.863
		C501.188,690.229,488.282,687.154,488.282,687.154z"/>
	<path fill="#231F20" d="M463.983,658.542l8.311,2.488v1.532c0,0,0.052,0.279,0.511,0.443c-3.323,2.221-5.515,6.006-5.515,10.303
		c0,6.841,5.546,12.386,12.385,12.386s12.384-5.545,12.384-12.386c0-4.35-2.247-8.17-5.639-10.379
		c0.135-0.076,0.256-0.192,0.22-0.367v-0.975l8.544-2.223c0,0,0.334-0.396-0.306-0.654l-14.024-4.193l-16.86,3.701
		C463.992,658.22,463.397,658.31,463.983,658.542z"/>
	<path fill="#231F20" d="M465.308,674.955l-0.854-13.039c0,0-0.378-1.24-0.969-0.109c-0.593,1.131-1.644,13.201-1.644,13.201
		S463.854,677.269,465.308,674.955z"/>
</g>
<text transform="matrix(1 0 0 1 340.405 351.0205)" fill="#231F20" font-family="'Verdana'" font-size="14"> Note</text>
<text transform="matrix(1 0 0 1 447.4255 350.3125)" fill="#231F20" font-family="'Verdana'" font-size="14"> Message</text>
<text transform="matrix(1 0 0 1 561.406 349.2451)" fill="#231F20" font-family="'Verdana'" font-size="14"> Message Add</text>
<text transform="matrix(1 0 0 1 32.5686 476.1016)" fill="#231F20" font-family="'Verdana'" font-size="14"> Message Delete</text>
<text transform="matrix(1 0 0 1 181.907 468.6582)" fill="#231F20" font-family="'Verdana'" font-size="14"> Message Edit</text>
<g>
	<path fill="#231F20" d="M479.531,438.454c-4.64-2.316-15.91-6.176-20.901-0.996l-0.382-22.582
		c-0.695,0.209-1.073,0.369-1.073,0.369l0.415,24.703c4.99-5.181,16.263-1.32,20.901,0.996c17.265,8.623,23.606-0.199,23.606-0.199
		v-1.433C499.688,441.364,492.873,445.116,479.531,438.454z"/>
	<path fill="#231F20" d="M479.797,420.456c-0.232,0.318-0.35,0.67-0.35,1.055c0,0.354,0.106,0.681,0.318,0.982
		c0.213,0.301,0.535,0.545,0.967,0.731v-3.446C480.341,419.911,480.028,420.137,479.797,420.456z"/>
	<path fill="#231F20" d="M482.177,426.491v3.885c0.498-0.094,0.902-0.324,1.215-0.691c0.312-0.368,0.468-0.803,0.468-1.301
		c0-0.444-0.131-0.828-0.393-1.149C483.204,426.911,482.773,426.665,482.177,426.491z"/>
	<path fill="#231F20" d="M483.65,414.112c-13.055-8.513-23.865-3.851-23.865-3.851l0.127,24.707
		c4.839-5.127,15.592-1.147,20.011,1.217c16.438,8.804,22.61,0.05,22.61,0.05l0.265-23.904
		C496.707,422.622,487.678,416.737,483.65,414.112z M485.21,431.063c-0.728,0.822-1.738,1.328-3.032,1.515v1.863h-1.444v-1.813
		c-1.147-0.141-2.082-0.568-2.799-1.285s-1.176-1.729-1.375-3.039l2.6-0.276c0.106,0.53,0.307,0.987,0.599,1.373
		c0.293,0.385,0.616,0.663,0.977,0.838v-4.175c-1.302-0.37-2.256-0.936-2.863-1.688c-0.606-0.754-0.911-1.67-0.911-2.744
		c0-1.09,0.344-2.004,1.03-2.744c0.688-0.739,1.603-1.168,2.744-1.28v-0.986h1.444v0.986c1.056,0.127,1.896,0.485,2.52,1.082
		c0.624,0.594,1.022,1.389,1.195,2.385l-2.521,0.328c-0.151-0.783-0.551-1.314-1.193-1.595v3.896
		c1.593,0.432,2.679,0.992,3.257,1.68c0.578,0.687,0.867,1.568,0.867,2.646C486.302,429.227,485.937,430.239,485.21,431.063z"/>
</g>
<g>
	<path fill="#231F20" d="M608.909,406.419l2.025-0.213c3.568-2.078,4.473-7.086,4.473-7.086c0.48-3.887-3.194-3.994-3.194-3.994
		c-0.479-0.105-4.476-0.105-4.476-0.105c-3.567,0.266-3.567,2.822-3.567,2.822C604.702,405.248,608.909,406.419,608.909,406.419z"/>
	<path fill="#231F20" d="M612.647,408.666l-6.1,0.643c-10.756,6.263-13.486,21.353-13.486,21.353
		c-1.445,11.719,9.633,12.039,9.633,12.039c1.445,0.321,13.484,0.321,13.484,0.321c10.758-0.803,10.758-8.51,10.758-8.51
		C625.329,412.199,612.647,408.666,612.647,408.666z M613.946,425.156l-0.32,1.557h-5.407c-0.006,0.154-0.011,0.353-0.011,0.594
		c0,0.234,0.009,0.479,0.021,0.732h5.115l-0.322,1.559h-4.582c0.166,0.718,0.424,1.279,0.773,1.688
		c0.67,0.791,1.541,1.188,2.612,1.188c1.285,0,2.312-0.396,3.074-1.188v3.076c-0.871,0.436-1.887,0.651-3.045,0.651
		c-1.957,0-3.564-0.67-4.824-2.01c-0.856-0.91-1.424-2.047-1.697-3.406h-1.487l0.322-1.559h0.983c-0.006-0.16-0.01-0.33-0.01-0.512
		c0-0.31,0.006-0.58,0.02-0.814h-1.315l0.322-1.557h1.194c0.281-1.334,0.842-2.449,1.679-3.349c1.268-1.354,2.932-2.028,4.995-2.028
		c1.125,0,2.104,0.203,2.935,0.612l-0.592,2.783c-0.57-0.569-1.4-0.854-2.494-0.854c-1.092,0-1.976,0.391-2.652,1.176
		c-0.381,0.44-0.652,0.994-0.813,1.658L613.946,425.156L613.946,425.156z"/>
</g>
<g>
	<circle fill="#231F20" cx="70.3" cy="800.042" r="4.129"/>
	<circle fill="#231F20" cx="85.75" cy="800.042" r="6.193"/>
	<circle fill="#231F20" cx="105.339" cy="800.042" r="8.831"/>
</g>
<text transform="matrix(1 0 0 1 463.4255 845.5176)" fill="#231F20" font-family="'Verdana'" font-size="14">Data</text>
<text transform="matrix(1 0 0 1 577.406 838.7871)" fill="#231F20" font-family="'Verdana'" font-size="14">Data Add</text>
<text transform="matrix(1 0 0 1 322.635 962.877)" fill="#231F20" font-family="'Verdana'" font-size="14">Data Copy</text>
<text transform="matrix(1 0 0 1 188.7908 962.998)" fill="#231F20" font-family="'Verdana'" font-size="14">Data Delete</text>
<text transform="matrix(1 0 0 1 445.8611 959.0957)" fill="#231F20" font-family="'Verdana'" font-size="14">Data Disk</text>
<text transform="matrix(1 0 0 1 556.2693 961.9629)" fill="#231F20" font-family="'Verdana'" font-size="14">Data certificate</text>
<text transform="matrix(1 0 0 1 51.3503 1075.1934)" fill="#231F20" font-family="'Verdana'" font-size="14">Data Down</text>
<text transform="matrix(1 0 0 1 193.7068 1077.9824)" fill="#231F20" font-family="'Verdana'" font-size="14">Data Error</text>
<text transform="matrix(1 0 0 1 325.5232 1070.1777)" fill="#231F20" font-family="'Verdana'" font-size="14">Data Find</text>
<text transform="matrix(1 0 0 1 311.3455 1196.5762)" fill="#231F20" font-family="'Verdana'" font-size="14">Data Warning</text>
<text transform="matrix(1 0 0 1 425.4939 1195.0117)" fill="#231F20" font-family="'Verdana'" font-size="14">Data Properties</text>
<text transform="matrix(1 0 0 1 36.4583 1194.9082)" fill="#231F20" font-family="'Verdana'" font-size="14">Data Forbidden</text>
<text transform="matrix(1 0 0 1 184.2039 1190.4277)" fill="#231F20" font-family="'Verdana'" font-size="14">Data Replace</text>
<text transform="matrix(1 0 0 1 434.4041 1072.8359)" fill="#231F20" font-family="'Verdana'" font-size="14">Data Refresh</text>
<text transform="matrix(1 0 0 1 561.1462 1066.6133)" fill="#231F20" font-family="'Verdana'" font-size="14">Data Previous</text>
<text transform="matrix(1 0 0 1 42.5798 967.5811)" fill="#231F20" font-family="'Verdana'" font-size="14">Data Connect</text>
<g>
	<path fill="#231F20" d="M111.359,537.034H68.983c-0.553,0-1,0.447-1,1v1.166c0,0.553,0.447,1,1,1h42.376c0.553,0,1-0.447,1-1
		v-1.166C112.359,537.481,111.912,537.034,111.359,537.034z"/>
	<polygon fill="#231F20" points="85.937,562.709 85.937,579.881 94.952,585.034 94.952,563.135 110.84,544.672 69.618,544.672 	"/>
</g>
<g>
	<path fill="#231F20" d="M633.319,673.533l-21.506-5.775l-25.479,6.351c0,0-0.901,0.163,0,0.489l23.432,6.31
		c0,0,1.434,0.369,2.048,0l21.997-6.392C633.811,674.515,634.303,673.902,633.319,673.533z"/>
	<path fill="#231F20" d="M625.27,681.91l-12.801,3.299c0,0-2.212,0.818-4.833-0.328l-10.487-3.113c0,0-1.146-0.409-1.311,0.654
		v7.537c0,0,0.082,0.902,1.311,1.313c0,0,7.701,2.703,11.962,2.621c0,0,9.094,0.572,16.303-2.621c0,0,1.313-0.327,1.147-1.313
		v-7.537C626.561,682.421,626.09,681.644,625.27,681.91z"/>
	<path fill="#231F20" d="M589.775,679.964c-0.901,1.721-2.499,20.082-2.499,20.082s3.063,3.441,5.274-0.082l-1.302-19.836
		C591.251,680.128,590.677,678.244,589.775,679.964z"/>
</g>
<g>
	<circle fill="#231F20" cx="250.265" cy="798.411" r="4.129"/>
	<circle fill="#231F20" cx="234.815" cy="798.411" r="6.193"/>
	<circle fill="#231F20" cx="215.226" cy="798.41" r="8.831"/>
</g>
<g>
	<path fill="#231F20" d="M499.452,774.521h-38.934c-1.537,0-2.781,1.244-2.781,2.781v8.138c0,1.534,1.244,2.778,2.781,2.778h38.934
		c1.535,0,2.781-1.244,2.781-2.778v-8.138C502.233,775.766,500.987,774.521,499.452,774.521z M465.927,784.528
		c-1.74,0-3.158-1.416-3.158-3.158s1.418-3.158,3.158-3.158c1.742,0,3.158,1.416,3.158,3.158S467.67,784.528,465.927,784.528z"/>
	<path fill="#231F20" d="M499.452,791.518h-38.934c-1.537,0-2.781,1.244-2.781,2.779v8.137c0,1.535,1.244,2.781,2.781,2.781h38.934
		c1.535,0,2.781-1.246,2.781-2.781v-8.137C502.233,792.762,500.987,791.518,499.452,791.518z"/>
	<path fill="#231F20" d="M499.452,808.821h-38.934c-1.537,0-2.781,1.246-2.781,2.78v8.138c0,1.537,1.244,2.783,2.781,2.783h38.934
		c1.535,0,2.781-1.246,2.781-2.783v-8.138C502.233,810.067,500.987,808.821,499.452,808.821z"/>
</g>
<g>
	<path fill="#231F20" d="M486.739,911.672h-27.221c-1.074,0-1.943,0.869-1.943,1.941v5.688c0,1.074,0.869,1.945,1.943,1.945h27.221
		c1.074,0,1.945-0.871,1.945-1.945v-5.688C488.685,912.542,487.813,911.672,486.739,911.672z"/>
	<path fill="#231F20" d="M486.739,923.768h-27.221c-1.074,0-1.943,0.871-1.943,1.945v5.689c0,1.073,0.869,1.942,1.943,1.942h27.221
		c1.074,0,1.945-0.869,1.945-1.942v-5.689C488.685,924.639,487.813,923.768,486.739,923.768z"/>
	<path fill="#231F20" d="M459.519,909.366h27.221c0.873,0,1.604-0.579,1.851-1.369c-2.117-0.865-3.959-2.294-5.324-4.193
		c-0.887-1.231-1.514-2.593-1.896-4.016h-21.852c-1.074,0-1.943,0.871-1.943,1.945v5.688
		C457.575,908.495,458.444,909.366,459.519,909.366z M463.301,902.368c1.219,0,2.207,0.99,2.207,2.209
		c0,1.217-0.988,2.207-2.207,2.207c-1.218,0-2.207-0.99-2.207-2.207C461.094,903.358,462.083,902.368,463.301,902.368z"/>
	<circle fill="#231F20" cx="493.028" cy="896.546" r="1.238"/>
	<path fill="#231F20" d="M494.729,887.596c-4.979-0.813-9.674,2.566-10.484,7.545c-0.813,4.979,2.563,9.675,7.543,10.488
		c4.98,0.811,9.677-2.566,10.486-7.547C503.088,893.104,499.713,888.411,494.729,887.596z M495.597,896.942
		c-0.229,1.407-1.558,2.362-2.972,2.135c-1.403-0.232-2.36-1.56-2.133-2.967c0.23-1.412,1.56-2.365,2.968-2.136
		C494.872,894.206,495.827,895.53,495.597,896.942z M498.319,901l-1.715-1.914c0,0,0.381-0.291,0.563-0.645
		c0.164-0.31,0.281-0.826,0.281-0.826l2.316,0.795C499.765,898.411,499.552,899.801,498.319,901z"/>
</g>
<g>
	<path fill="#231F20" d="M210.188,1022.366h28.329c1.114,0,2.022-0.906,2.022-2.021v-5.922c0-1.119-0.908-2.022-2.022-2.022h-28.329
		c-1.116,0-2.021,0.903-2.021,2.022v5.922C208.167,1021.459,209.071,1022.366,210.188,1022.366z M214.122,1015.084
		c1.271,0,2.299,1.031,2.299,2.297c0,1.269-1.027,2.297-2.299,2.297c-1.262,0-2.293-1.028-2.293-2.297
		C211.829,1016.116,212.86,1015.084,214.122,1015.084z"/>
	<path fill="#231F20" d="M208.167,1039.379v5.92c0,1.117,0.904,2.021,2.021,2.021H220.3c-0.047-3.515,1.33-7.289,2.576-9.967
		h-12.688C209.071,1037.354,208.167,1038.26,208.167,1039.379z"/>
	<path fill="#231F20" d="M210.188,1034.73h14.029c0.043-0.074,0.092-0.163,0.13-0.229c1.113-1.941,4.321-7.041,8.529-9.734h-22.688
		c-1.116,0-2.021,0.904-2.021,2.021v5.918C208.167,1033.825,209.071,1034.73,210.188,1034.73z"/>
	<path fill="#231F20" d="M238.122,1026.577c-6.803,0-17.041,17.694-13.604,23.565c3.435,5.871,23.121,5.438,27.211,0
		C255.817,1044.708,244.926,1026.577,238.122,1026.577z M238.227,1051.168c-0.938,0-1.694-0.758-1.694-1.697
		c0-0.938,0.758-1.694,1.694-1.694c0.938,0,1.693,0.758,1.693,1.694C239.921,1050.411,239.165,1051.168,238.227,1051.168z
		 M239.529,1042.305c0,0-0.042,1.439-0.659,2.056c0,0-0.738,0.651-1.559-0.207c0,0-0.209-0.595-0.496-2.229l-0.451-6.52v-1.769
		c0,0,0.049-1.643,1.894-1.932c0,0,1.724-0.082,1.805,1.728C240.062,1033.432,240.267,1035.405,239.529,1042.305z"/>
</g>
<g>
	<path fill="#231F20" d="M70.02,1140.311h22.269c2.063-0.861,4.296-1.314,6.6-1.314c0.361,0,0.72,0.03,1.077,0.053
		c0.094-0.229,0.146-0.479,0.146-0.744v-5.871c0-1.106-0.898-2.006-2.006-2.006H70.02c-1.109,0-2.006,0.898-2.006,2.006v5.871
		C68.014,1139.412,68.911,1140.311,70.02,1140.311z M73.92,1133.089c1.259,0,2.277,1.021,2.277,2.279
		c0,1.256-1.02,2.276-2.277,2.276c-1.254,0-2.276-1.021-2.276-2.276C71.643,1134.111,72.667,1133.089,73.92,1133.089z"/>
	<path fill="#231F20" d="M81.808,1155.169H70.02c-1.109,0-2.006,0.897-2.006,2.006v5.871c0,1.107,0.896,2.006,2.006,2.006h14.26
		C82.441,1162.04,81.618,1158.585,81.808,1155.169z"/>
	<path fill="#231F20" d="M70.02,1152.57h12.125c0.662-3.138,2.196-6.124,4.628-8.556c0.477-0.478,0.983-0.913,1.505-1.326H70.02
		c-1.109,0-2.006,0.898-2.006,2.007v5.868C68.014,1151.671,68.911,1152.57,70.02,1152.57z"/>
	<path fill="#231F20" d="M108.389,1146.626c-5.248-5.25-13.759-5.25-19.005,0c-5.25,5.248-5.25,13.758-0.002,19.008
		c5.248,5.248,13.761,5.248,19.011,0.004C113.641,1160.384,113.641,1151.875,108.389,1146.626z M91.284,1148.525
		c3.754-3.752,9.587-4.141,13.783-1.185l-14.969,14.968C87.14,1158.113,87.529,1152.282,91.284,1148.525z M106.491,1163.734
		c-3.856,3.854-9.907,4.158-14.123,0.935l15.057-15.061C110.653,1153.828,110.347,1159.881,106.491,1163.734z"/>
</g>
<g>
	<polygon fill="#231F20" points="246.32,1150.563 249.533,1150.556 254.394,1145.695 249.533,1140.83 246.326,1140.83 
		250.025,1144.525 239.089,1144.525 239.089,1146.882 249.998,1146.882 	"/>
	<polygon fill="#231F20" points="246.751,1151.656 243.539,1151.662 238.677,1156.527 243.539,1161.388 246.75,1161.388 
		243.05,1157.689 253.98,1157.689 253.98,1155.339 243.07,1155.339 	"/>
	<path fill="#231F20" d="M234.566,1134.074h-26.297c-1.035,0-1.875,0.84-1.875,1.879v5.496c0,1.035,0.84,1.875,1.875,1.875h26.297
		c1.035,0,1.879-0.84,1.879-1.875v-5.496C236.445,1134.914,235.601,1134.074,234.566,1134.074z M211.923,1140.83
		c-1.172,0-2.131-0.955-2.131-2.133c0-1.177,0.959-2.134,2.131-2.134c1.179,0,2.134,0.957,2.134,2.134
		C214.056,1139.875,213.101,1140.83,211.923,1140.83z"/>
	<path fill="#231F20" d="M234.566,1145.55h-26.297c-1.035,0-1.875,0.84-1.875,1.879v5.494c0,1.037,0.84,1.879,1.875,1.879h26.297
		c1.035,0,1.879-0.842,1.879-1.879v-5.494C236.445,1146.39,235.601,1145.55,234.566,1145.55z"/>
	<path fill="#231F20" d="M234.566,1157.238h-26.297c-1.035,0-1.875,0.84-1.875,1.879v5.496c0,1.035,0.84,1.875,1.875,1.875h26.297
		c1.035,0,1.879-0.84,1.879-1.875v-5.496C236.445,1158.078,235.601,1157.238,234.566,1157.238z"/>
</g>
<g>
	<path fill="#231F20" d="M348.87,1159.726h-9.787c-1.018,0-1.842,0.826-1.842,1.847v5.395c0,1.018,0.824,1.842,1.842,1.842h10.683
		c-0.72-1.961-1.133-4.068-1.133-6.276C348.633,1161.575,348.728,1160.643,348.87,1159.726z"/>
	<path fill="#231F20" d="M339.083,1157.335h10.312c1.074-3.621,3.238-6.772,6.113-9.08h-16.423c-1.019,0-1.843,0.824-1.843,1.844
		v5.394C337.242,1156.511,338.066,1157.335,339.083,1157.335z"/>
	<path fill="#231F20" d="M339.083,1146.068h19.9c2.354-1.144,4.979-1.806,7.758-1.834c0-0.002,0-0.004,0-0.006v-5.396
		c0-1.02-0.828-1.844-1.844-1.844h-25.814c-1.018,0-1.842,0.824-1.842,1.844v5.396
		C337.242,1145.244,338.066,1146.068,339.083,1146.068z M342.67,1139.433c1.155,0,2.094,0.939,2.094,2.093
		c0,1.157-0.938,2.094-2.094,2.094c-1.15,0-2.093-0.937-2.093-2.094C340.578,1140.373,341.519,1139.433,342.67,1139.433z"/>
	<path fill="#231F20" d="M366.937,1148.152c-7.939,0-14.379,6.438-14.379,14.379c0,7.939,6.438,14.375,14.379,14.375
		s14.379-6.437,14.379-14.375C381.316,1154.592,374.877,1148.152,366.937,1148.152z M367.202,1173.488
		c-1.055,0-1.91-0.853-1.91-1.91c0-1.055,0.855-1.91,1.91-1.91c1.058,0,1.908,0.855,1.908,1.91
		C369.11,1172.636,368.26,1173.488,367.202,1173.488z M368.67,1163.505c0,0-0.048,1.621-0.742,2.314c0,0-0.832,0.735-1.758-0.232
		c0,0-0.234-0.67-0.558-2.512l-0.508-7.343v-1.991c0,0,0.055-1.851,2.133-2.174c0,0,1.941-0.095,2.031,1.942
		C369.269,1153.511,369.502,1155.734,368.67,1163.505z"/>
</g>
<g>
	<path fill="#231F20" d="M459.542,1140.055h28.148c1.11,0,2.014-0.897,2.014-2.006v-5.881c0-1.115-0.902-2.014-2.014-2.014h-28.148
		c-1.108,0-2.008,0.897-2.008,2.014v5.881C457.534,1139.157,458.433,1140.055,459.542,1140.055z M463.45,1132.819
		c1.265,0,2.283,1.026,2.283,2.282c0,1.267-1.02,2.287-2.283,2.287c-1.253,0-2.28-1.021-2.28-2.287
		C461.17,1133.846,462.197,1132.819,463.45,1132.819z"/>
	<path fill="#231F20" d="M470.763,1154.956h-11.222c-1.108,0-2.008,0.9-2.008,2.012v5.884c0,1.106,0.898,2.008,2.008,2.008h12.453
		c-0.948-2.157-1.485-4.536-1.485-7.045C470.51,1156.837,470.608,1155.888,470.763,1154.956z"/>
	<path fill="#231F20" d="M459.542,1152.346h11.85c1.396-4.251,4.369-7.788,8.236-9.904h-20.086c-1.108,0-2.008,0.9-2.008,2.015
		v5.881C457.534,1151.448,458.433,1152.346,459.542,1152.346z"/>
	<path fill="#231F20" d="M499.997,1157.885c0.007-0.646-0.057-1.283-0.151-1.899l2.592-2.068c-0.668-2.482-1.951-4.711-3.691-6.506
		l-3.096,1.172c-0.979-0.812-2.094-1.459-3.301-1.926l-0.492-3.271c-1.193-0.315-2.443-0.51-3.738-0.518
		c-1.293-0.01-2.545,0.166-3.746,0.467l-0.53,3.264c-1.211,0.455-2.336,1.089-3.324,1.888l-3.084-1.211
		c-1.76,1.771-3.072,3.979-3.773,6.459l2.566,2.098c-0.104,0.619-0.172,1.254-0.178,1.902c-0.006,0.651,0.057,1.284,0.153,1.907
		l-2.596,2.066c0.672,2.48,1.955,4.711,3.695,6.502l3.096-1.168c0.979,0.807,2.095,1.457,3.303,1.926l0.486,3.271
		c1.197,0.315,2.447,0.506,3.74,0.518c1.295,0.004,2.545-0.168,3.744-0.469l0.535-3.266c1.21-0.457,2.334-1.089,3.325-1.884
		l3.078,1.209c1.762-1.772,3.072-3.981,3.775-6.459l-2.566-2.096C499.925,1159.172,499.991,1158.54,499.997,1157.885z M487.981,1164
		c-3.414-0.021-6.168-2.811-6.146-6.227c0.021-3.418,2.81-6.173,6.228-6.15c3.418,0.021,6.172,2.811,6.149,6.229
		S491.402,1164.026,487.981,1164z"/>
</g>
<text transform="matrix(1 0 0 1 323.0725 465.748)" fill="#231F20" font-family="'Verdana'" font-size="14"> Messages</text>
<text transform="matrix(1 0 0 1 454.6345 470.0283)" fill="#231F20" font-family="'Verdana'" font-size="14"> Money</text>
<text transform="matrix(1 0 0 1 568.7576 467.375)" fill="#231F20" font-family="'Verdana'" font-size="14"> Money Bag</text>
<text transform="matrix(1 0 0 1 69.9006 608.5547)" fill="#231F20" font-family="'Verdana'" font-size="14"> Filter</text>
<text transform="matrix(1 0 0 1 194.1843 609.665)" fill="#231F20" font-family="'Verdana'" font-size="14"> Filter Add</text>
<text transform="matrix(1 0 0 1 313.9944 609.8418)" fill="#231F20" font-family="'Verdana'" font-size="14"> Filter Delete</text>
<text transform="matrix(1 0 0 1 437.4841 606.6475)" fill="#231F20" font-family="'Verdana'" font-size="14"> Filter Down</text>
<text transform="matrix(1 0 0 1 573.7654 599.7148)" fill="#231F20" font-family="'Verdana'" font-size="14"> Filter Edit</text>
<text transform="matrix(1 0 0 1 52.3347 732.8271)" fill="#231F20" font-family="'Verdana'" font-size="14"> Filter New</text>
<text transform="matrix(1 0 0 1 170.2791 732.8184)" fill="#231F20" font-family="'Verdana'" font-size="14"> Filter Preference</text>
<text transform="matrix(1 0 0 1 327.092 728.4043)" fill="#231F20" font-family="'Verdana'" font-size="14"> Filter Up</text>
<text transform="matrix(1 0 0 1 445.1052 726.7891)" fill="#231F20" font-family="'Verdana'" font-size="14"> Graduate</text>
<text transform="matrix(1 0 0 1 560.3708 721.7979)" fill="#231F20" font-family="'Verdana'" font-size="14"> Graduate Hat</text>
<text transform="matrix(1 0 0 1 62.6194 830.2188)" fill="#231F20" font-family="'Verdana'" font-size="14">Sort as </text>
<text transform="matrix(1 0 0 1 55.0002 847.0195)" fill="#231F20" font-family="'Verdana'" font-size="14">ascending</text>
<text transform="matrix(1 0 0 1 202.842 830.6035)" fill="#231F20" font-family="'Verdana'" font-size="14">Sort as </text>
<text transform="matrix(1 0 0 1 190.8962 847.4033)" fill="#231F20" font-family="'Verdana'" font-size="14">descending</text>
<text transform="matrix(1 0 0 1 347.2512 848.0059)" fill="#231F20" font-family="'Verdana'" font-size="14">Fax</text>
<text transform="matrix(1 0 0 1 577.447 1196.1367)" fill="#231F20" font-family="'Verdana'" font-size="14">Data Edit</text>
<g>
	<circle fill="#231F20" cx="354.991" cy="184.709" r="9.751"/>
	<path fill="#231F20" d="M373.749,208.275c-5.752,0-10.432-4.68-10.432-10.434c0-0.676,0.068-1.338,0.193-1.98
		c-0.685-0.236-1.101-0.334-1.101-0.334l-3.309,12.252l-1.104,0.008l-3.063-6.886l2.022-3.755h-4.221l2.112,3.662l-2.679,7.027
		l-1.663,0.014l-2.747-11.76c-10.141,1.127-13.521,13.52-13.521,13.52h41.126c-0.051-0.498-0.129-0.973-0.217-1.439
		C374.69,208.232,374.226,208.275,373.749,208.275z"/>
	<path fill="#231F20" d="M382.803,196.744c0.003-0.402-0.036-0.797-0.096-1.182l1.608-1.283c-0.415-1.541-1.211-2.926-2.292-4.039
		l-1.922,0.727c-0.607-0.502-1.299-0.904-2.049-1.195l-0.306-2.031c-0.74-0.195-1.518-0.314-2.32-0.32
		c-0.804-0.006-1.58,0.104-2.325,0.291l-0.33,2.025c-0.753,0.281-1.451,0.674-2.064,1.172l-1.913-0.752
		c-1.094,1.1-1.908,2.471-2.345,4.01l1.595,1.303c-0.064,0.383-0.107,0.777-0.11,1.182c-0.003,0.402,0.036,0.795,0.095,1.184
		l-1.608,1.281c0.416,1.541,1.213,2.926,2.293,4.039l1.922-0.728c0.606,0.502,1.301,0.904,2.051,1.197l0.302,2.029
		c0.744,0.197,1.52,0.314,2.322,0.32c0.804,0.004,1.58-0.104,2.324-0.289l0.333-2.027c0.751-0.283,1.449-0.676,2.063-1.168
		l1.911,0.75c1.095-1.102,1.907-2.475,2.345-4.01l-1.594-1.303C382.758,197.542,382.801,197.148,382.803,196.744z M375.344,200.539
		c-2.12-0.014-3.83-1.744-3.816-3.865c0.014-2.123,1.746-3.832,3.867-3.818c2.122,0.014,3.831,1.744,3.818,3.867
		C379.198,198.845,377.467,200.554,375.344,200.539z"/>
</g>
<g>
	<path fill="#231F20" d="M66.792,671.455h27.367c0.311-1.096,0.778-2.125,1.39-3.057H66.792c-0.534,0-0.966,0.432-0.966,0.967v1.125
		C65.826,671.023,66.258,671.455,66.792,671.455z"/>
	<path fill="#231F20" d="M93.575,674.458c0-0.221,0.021-0.436,0.032-0.654H66.076l15.756,17.414v16.584l8.705,4.974v-21.144
		l7.284-8.465C95.24,681.134,93.575,677.99,93.575,674.458z"/>
	<path fill="#231F20" d="M106.168,665.363c-4.608,0-8.347,3.778-8.347,8.44c0,4.66,3.737,8.441,8.347,8.441
		c4.61,0,8.35-3.781,8.35-8.441C114.517,669.142,110.777,665.363,106.168,665.363z M110.414,679.052l-3-2.096l-0.872,3.555
		l-1.194-3.459l-2.795,2.363l1.065-3.502l-3.651,0.271l2.923-2.207l-3.114-1.928l3.662-0.067l-1.385-3.39l3,2.099l0.872-3.558
		l1.194,3.461l2.796-2.364l-1.067,3.502l3.651-0.271l-2.923,2.207l3.114,1.926l-3.66,0.068L110.414,679.052z"/>
</g>
<g>
	<path fill="#231F20" d="M246.391,665.678c-4.609,0-8.348,3.779-8.348,8.441s3.737,8.44,8.348,8.44c4.609,0,8.349-3.778,8.349-8.44
		S251,665.678,246.391,665.678z M245.414,678.575c-0.469,0.496-1.24,0.528-1.754,0.09c-0.062-0.037-0.123-0.076-0.178-0.125
		l-3.084-2.697c-0.534-0.463-0.594-1.27-0.132-1.805c0.463-0.533,1.271-0.592,1.804-0.129l2.34,2.045l6.211-6.287
		c0.485-0.512,1.295-0.535,1.81-0.051c0.512,0.483,0.534,1.295,0.049,1.809L245.414,678.575z"/>
	<path fill="#231F20" d="M207.015,671.77h27.366c0.311-1.096,0.778-2.125,1.391-3.057h-28.757c-0.534,0-0.967,0.432-0.967,0.967
		v1.125C206.049,671.338,206.48,671.77,207.015,671.77z"/>
	<path fill="#231F20" d="M233.798,674.774c0-0.222,0.021-0.437,0.032-0.654h-27.531l15.757,17.414v16.584l8.704,4.973v-21.143
		l7.284-8.465C235.463,681.45,233.798,678.305,233.798,674.774z"/>
</g>
<g>
	<path fill="#231F20" d="M592.35,899.631h28.836c1.137,0,2.061-0.922,2.061-2.059v-6.027c0-1.139-0.924-2.061-2.061-2.061H592.35
		c-1.139,0-2.062,0.922-2.062,2.061v6.027C590.289,898.709,591.212,899.631,592.35,899.631z M596.354,892.219
		c1.291,0,2.34,1.049,2.34,2.338c0,1.291-1.049,2.341-2.34,2.341c-1.287,0-2.338-1.05-2.338-2.341
		C594.016,893.268,595.066,892.219,596.354,892.219z"/>
	<path fill="#231F20" d="M609.81,914.889h-17.46c-1.139,0-2.062,0.922-2.062,2.062v6.026c0,1.138,0.923,2.06,2.062,2.06h18.093
		c-0.959-1.694-1.512-3.646-1.512-5.724C608.931,917.748,609.247,916.256,609.81,914.889z"/>
	<path fill="#231F20" d="M620.756,907.578c0.854,0,1.688,0.095,2.49,0.267v-3.711c0-1.139-0.924-2.061-2.061-2.061H592.35
		c-1.139,0-2.062,0.922-2.062,2.061v6.025c0,1.137,0.923,2.061,2.062,2.061h19.008C613.52,909.405,616.924,907.578,620.756,907.578z
		"/>
	<path fill="#231F20" d="M620.756,910.578c-4.873,0-8.824,3.909-8.824,8.734c0,4.822,3.951,8.731,8.824,8.731
		s8.823-3.909,8.823-8.731C629.579,914.487,625.629,910.578,620.756,910.578z"/>
	<path fill="#231F20" d="M618.073,929.516v10.043l3.824-1.661l4.557,2.938V928.34C622.594,931.761,618.073,929.516,618.073,929.516z
		"/>
	<path fill="#231F20" d="M612.142,932.385c2.203-1.691,4.557,1.022,4.557,1.022v-4.331c-0.733-0.224-1.838-1.032-1.838-1.032
		L612.142,932.385z"/>
</g>
<g>
	<path fill="#231F20" d="M613.056,541.84l2.485-2.479h-25.601c-0.45,0-0.813,0.362-0.813,0.813v0.949
		c0,0.449,0.363,0.814,0.813,0.814h23.097L613.056,541.84z"/>
	<polygon fill="#231F20" points="612.385,545.583 590.46,545.583 603.751,560.274 603.751,574.261 611.094,578.458 611.094,560.622 
		621.263,548.805 611.374,551.213 	"/>
	<polygon fill="#231F20" points="615.915,541.649 617.315,541.896 617.457,543.219 619.139,543.752 619.129,544.92 620.81,545.584 
		620.863,546.688 627.606,540.067 622.654,535.026 	"/>
	<polygon fill="#231F20" points="619.554,547.911 614.675,543.243 613.273,548.792 	"/>
	<path fill="#231F20" d="M630.476,535.903l-3.506-3.568c-0.426-0.436-1.215-0.352-1.76,0.185l-0.743,0.729l5.05,5.143l0.742-0.729
		C630.804,537.122,630.901,536.336,630.476,535.903z"/>
</g>
<g>
	<path fill="#231F20" d="M340.622,900.862h31.063c1.225,0,2.223-0.99,2.223-2.216v-6.488c0-1.229-0.998-2.224-2.223-2.224h-31.063
		c-1.225,0-2.215,0.993-2.215,2.224v6.488C338.407,899.872,339.397,900.862,340.622,900.862z M344.937,892.879
		c1.389,0,2.521,1.128,2.521,2.518c0,1.393-1.132,2.521-2.521,2.521c-1.385,0-2.521-1.128-2.521-2.521
		C342.417,894.007,343.552,892.879,344.937,892.879z"/>
	<path fill="#231F20" d="M338.407,919.518v6.493c0,1.226,0.991,2.22,2.215,2.22h14.491v-10.933h-14.491
		C339.397,917.298,338.407,918.292,338.407,919.518z"/>
	<path fill="#231F20" d="M373.906,909.077v-3.364c0-1.225-0.998-2.219-2.223-2.219h-31.063c-1.225,0-2.215,0.994-2.215,2.219v6.493
		c0,1.226,0.991,2.219,2.215,2.219h14.491v-3.348c0-1.104,0.896-2,2-2H373.906L373.906,909.077z"/>
	<path fill="#231F20" d="M378.687,910.999h-20.474c-0.809,0-1.461,0.655-1.461,1.465v4.277c0,0.808,0.652,1.46,1.461,1.46h20.474
		c0.808,0,1.465-0.652,1.465-1.46v-4.277C380.151,911.654,379.494,910.999,378.687,910.999z M361.057,916.259
		c-0.913,0-1.661-0.743-1.661-1.661c0-0.915,0.748-1.658,1.661-1.658c0.915,0,1.661,0.743,1.661,1.658
		C362.719,915.516,361.972,916.259,361.057,916.259z"/>
	<path fill="#231F20" d="M378.687,919.936h-20.474c-0.809,0-1.461,0.655-1.461,1.463v4.279c0,0.809,0.652,1.462,1.461,1.462h20.474
		c0.808,0,1.465-0.653,1.465-1.462v-4.279C380.151,920.591,379.494,919.936,378.687,919.936z"/>
	<path fill="#231F20" d="M378.687,929.035h-20.474c-0.809,0-1.461,0.656-1.461,1.464v4.28c0,0.807,0.652,1.462,1.461,1.462h20.474
		c0.808,0,1.465-0.655,1.465-1.462v-4.28C380.151,929.691,379.494,929.035,378.687,929.035z"/>
</g>
<g>
	<path fill="#231F20" d="M460.456,1011.388h28.938c1.142,0,2.067-0.925,2.067-2.063v-6.051c0-1.141-0.927-2.066-2.067-2.066h-28.938
		c-1.141,0-2.065,0.927-2.065,2.066v6.051C458.39,1010.463,459.315,1011.388,460.456,1011.388z M464.478,1003.951
		c1.295,0,2.346,1.051,2.346,2.346c0,1.297-1.051,2.348-2.346,2.348c-1.293,0-2.348-1.051-2.348-2.348
		C462.131,1005.001,463.185,1003.951,464.478,1003.951z"/>
	<path fill="#231F20" d="M460.456,1026.701c-1.141,0-2.065,0.924-2.065,2.066v6.048c0,1.142,0.926,2.065,2.065,2.065h12.273
		c-0.348-1.334-0.553-2.727-0.553-4.169c0-2.124,0.416-4.146,1.146-6.012L460.456,1026.701L460.456,1026.701z"/>
	<path fill="#231F20" d="M491.463,1016.475v-0.568c0-1.143-0.927-2.066-2.067-2.066h-28.938c-1.142,0-2.066,0.925-2.066,2.066v6.049
		c0,1.139,0.926,2.066,2.066,2.066h14.217c2.91-4.678,8.082-7.801,13.997-7.801C489.624,1016.221,490.552,1016.32,491.463,1016.475z
		"/>
	<path fill="#231F20" d="M494.247,1021.436c-0.016-0.011-0.026-0.023-0.045-0.029c-1.475-0.647-3.104-1.016-4.814-1.029
		c-0.004,0-0.009,0-0.016,0c-0.002,0-0.005,0-0.007,0c-0.271-0.004-0.54,0.006-0.806,0.025c-0.187,0.01-0.371,0.024-0.555,0.045
		c-0.03,0.003-0.06,0.006-0.09,0.01c-2.158,0.236-4.156,1.023-5.835,2.234l-1.204-1.779c-0.072-0.105-0.198-0.154-0.322-0.129
		c-0.122,0.024-0.215,0.124-0.238,0.248l-0.749,4.132l-0.527,2.914c-0.017,0.095,0.009,0.188,0.071,0.259
		c0.06,0.064,0.144,0.104,0.229,0.104c0.007,0,0.015,0,0.021,0l3.275-0.174l3.688-0.193c0.123-0.01,0.23-0.087,0.272-0.206
		c0.044-0.114,0.013-0.245-0.079-0.331l-1.521-1.435c0.952-0.618,2.05-1.034,3.224-1.19l0.004,0.035
		c0.357-0.049,0.723-0.076,1.097-0.072c4.374,0.043,7.88,3.621,7.836,7.994c-0.042,4.371-3.621,7.879-7.995,7.836
		c-3.167-0.031-5.875-1.924-7.112-4.625l-4.419,0.77c1.687,4.734,6.172,8.15,11.489,8.203c6.813,0.068,12.395-5.398,12.462-12.215
		C501.631,1027.759,498.606,1023.375,494.247,1021.436z"/>
</g>
<g>
	<path fill="#231F20" d="M621.948,1157.715h-30.762c-1.212,0-2.193,0.986-2.193,2.201v6.426c0,1.211,0.981,2.195,2.193,2.195h30.762
		c1.213,0,2.2-0.984,2.2-2.195v-6.426C624.148,1158.702,623.161,1157.715,621.948,1157.715z"/>
	<path fill="#231F20" d="M591.187,1141.434h18.297l0.964-5.816l4.889-5.002h-24.148c-1.212,0-2.193,0.98-2.193,2.199v6.429
		C588.993,1140.453,589.975,1141.434,591.187,1141.434z M595.458,1133.526c1.382,0,2.494,1.123,2.494,2.495
		c0,1.384-1.112,2.496-2.494,2.496c-1.368,0-2.492-1.112-2.492-2.496C592.966,1134.649,594.09,1133.526,595.458,1133.526z"/>
	<path fill="#231F20" d="M621.948,1144.042h-3.711l-9.597,2.472l0.409-2.472h-17.863c-1.212,0-2.193,0.983-2.193,2.198v6.43
		c0,1.214,0.981,2.195,2.193,2.195h30.762c1.213,0,2.2-0.981,2.2-2.195v-6.43C624.148,1145.026,623.161,1144.042,621.948,1144.042z"
		/>
	<polygon fill="#231F20" points="613.76,1135.351 615.386,1135.62 615.571,1137.151 617.53,1137.744 617.536,1139.097 
		619.495,1139.842 619.575,1141.121 627.294,1133.338 621.474,1127.571 	"/>
	<polygon fill="#231F20" points="612.346,1137.219 610.806,1143.675 618.073,1142.559 	"/>
	<path fill="#231F20" d="M630.558,1128.467l-4.121-4.086c-0.501-0.496-1.414-0.389-2.037,0.241l-0.85,0.855l5.934,5.886l0.85-0.857
		C630.955,1129.875,631.057,1128.96,630.558,1128.467z"/>
</g>
<g>
	<path fill="#231F20" d="M72.462,60.756v6.542h7.19v7.688h-7.19v12.506h7.316v7.688h-7.316v6.776h41.709v-41.2H72.462z
		 M112.587,100.474h-29.74v-37.87h29.74V100.474z"/>
	<path fill="#231F20" d="M98.154,75.082l0.608-5.486c0,0-1.826-2.441-4.878-0.763c0,0-5.03,4.116-2.285,14.176
		c0,0,2.209,8.386,10.136,10.976c0,0,1.016,0.174,2.008-0.496c0.616-0.418,1.224-1.16,1.575-2.476l-3.583-4.192
		c0,0-1.963,1.068-3.687,0.608c0,0-5.534-6.782-2.945-11.584C95.103,75.844,97.391,75.844,98.154,75.082"/>
	<rect x="66.171" y="69.095" fill="#231F20" width="11.684" height="4.093"/>
	<rect x="66.298" y="89.29" fill="#231F20" width="11.684" height="4.093"/>
</g>
<path fill="#231F20" d="M381.278,61.875h-12.9c0.599-0.356,1.005-1.004,1.005-1.751v-5.005c0-1.128-0.914-2.043-2.042-2.043h-16.122
	c-1.128,0-2.042,0.915-2.042,2.043v5.005c0,0.747,0.406,1.395,1.005,1.751h-12.902c-1.104,0-2,0.698-2,1.561v24.453
	c0,0.861,0.896,1.561,2,1.561h44c1.105,0,2-0.699,2-1.561V63.435C383.278,62.573,382.385,61.875,381.278,61.875z M351.357,55.634
	h15.702v6.24h-15.702V55.634z"/>
<g>
	<path fill="#231F20" d="M480.759,184.505v-3.52c0.582,0.252,0.94,0.732,1.08,1.439l2.275-0.297c-0.154-0.9-0.516-1.617-1.08-2.154
		c-0.563-0.537-1.321-0.863-2.275-0.977v-0.893h-1.307v0.893c-1.031,0.102-1.857,0.486-2.479,1.156
		c-0.621,0.668-0.933,1.494-0.933,2.479c0,0.973,0.274,1.799,0.824,2.48c0.549,0.682,1.411,1.189,2.587,1.525v3.771
		c-0.322-0.156-0.617-0.408-0.882-0.756c-0.264-0.348-0.443-0.762-0.54-1.242l-2.349,0.252c0.18,1.182,0.594,2.096,1.242,2.744
		c0.646,0.648,1.489,1.035,2.527,1.162v1.637h1.307v-1.682c1.17-0.168,2.083-0.625,2.739-1.369c0.657-0.744,0.985-1.658,0.985-2.744
		c0-0.973-0.261-1.77-0.783-2.391C483.179,185.4,482.197,184.896,480.759,184.505z M479.452,184.074
		c-0.39-0.168-0.681-0.389-0.873-0.662c-0.19-0.273-0.287-0.568-0.287-0.887c0-0.348,0.104-0.666,0.314-0.953
		c0.21-0.289,0.492-0.492,0.846-0.613V184.074L479.452,184.074z M481.855,189.91c-0.282,0.334-0.647,0.541-1.098,0.625v-3.51
		c0.54,0.156,0.928,0.379,1.165,0.67c0.236,0.291,0.354,0.639,0.354,1.041C482.278,189.185,482.138,189.578,481.855,189.91z"/>
	<circle fill="#231F20" cx="469.651" cy="186.283" r="2.166"/>
	<circle fill="#231F20" cx="489.485" cy="185.95" r="2.167"/>
	<path fill="#231F20" d="M498.838,174.839h-37.705h-5.146v6.813v8.389v6.813h5.146h37.705h5.147v-6.813v-8.389v-6.813H498.838z
		 M501.985,188.964c-0.306-0.061-0.617-0.102-0.94-0.102c-2.729,0-4.938,2.209-4.938,4.938c0,0.363,0.052,0.713,0.126,1.053h-32.495
		c0.074-0.34,0.126-0.689,0.126-1.053c0-2.729-2.209-4.938-4.938-4.938c-0.323,0-0.637,0.041-0.94,0.102v-6.236
		c0.305,0.061,0.617,0.102,0.94,0.102c2.729,0,4.938-2.209,4.938-4.938c0-0.362-0.052-0.711-0.126-1.053h32.495
		c-0.074,0.342-0.126,0.69-0.126,1.053c0,2.729,2.209,4.938,4.938,4.938c0.323,0,0.636-0.041,0.94-0.102V188.964z"/>
</g>
<g>
	<path fill="#231F20" d="M612.284,190.392c-0.293,0-0.844-0.104-1.649-0.309c-0.453-0.113-0.728-0.178-0.82-0.191
		c-0.186-0.025-0.396-0.039-0.629-0.039c-0.555,0-1.014,0.094-1.381,0.279c0.62-0.727,1.03-1.313,1.229-1.76
		c0.199-0.447,0.3-0.934,0.3-1.459c0-0.148-0.01-0.295-0.029-0.441h2.659v-2.209h-3.119c-0.141-0.381-0.26-0.801-0.354-1.26
		c-0.098-0.461-0.146-0.83-0.146-1.111c0-0.539,0.177-0.988,0.529-1.344c0.354-0.357,0.797-0.535,1.33-0.535
		c0.5,0,0.916,0.156,1.25,0.469c0.333,0.314,0.563,0.828,0.689,1.541l2.711-0.4c-0.174-1.24-0.65-2.191-1.431-2.855
		c-0.78-0.662-1.827-0.994-3.141-0.994c-0.859,0-1.653,0.172-2.381,0.516c-0.727,0.342-1.287,0.844-1.685,1.504
		c-0.396,0.66-0.596,1.354-0.596,2.08c0,0.807,0.138,1.604,0.41,2.391h-1.57v2.209h2.08c0.026,0.201,0.04,0.391,0.04,0.57
		c0,0.553-0.165,1.135-0.495,1.746c-0.329,0.609-0.87,1.184-1.625,1.725l1.07,2.42c0.846-0.58,1.676-0.871,2.49-0.871
		c0.479,0,1.22,0.143,2.22,0.426c1,0.283,1.8,0.426,2.399,0.426c0.467,0,0.949-0.066,1.444-0.195
		c0.496-0.131,0.937-0.299,1.314-0.506l-1.079-2.379C613.483,190.207,612.804,190.392,612.284,190.392z"/>
	<circle fill="#231F20" cx="599.6" cy="185.789" r="2.166"/>
	<circle fill="#231F20" cx="619.434" cy="185.456" r="2.167"/>
	<path fill="#231F20" d="M628.786,174.345h-37.705h-5.146v6.813v8.389v6.813h5.146h37.705h5.148v-6.813v-8.389v-6.813H628.786z
		 M631.934,188.47c-0.306-0.061-0.617-0.102-0.94-0.102c-2.729,0-4.938,2.209-4.938,4.938c0,0.363,0.051,0.713,0.125,1.053h-32.494
		c0.074-0.34,0.125-0.689,0.125-1.053c0-2.729-2.209-4.938-4.938-4.938c-0.322,0-0.635,0.041-0.939,0.102v-6.236
		c0.306,0.061,0.617,0.102,0.939,0.102c2.729,0,4.938-2.209,4.938-4.938c0-0.362-0.051-0.711-0.125-1.053h32.494
		c-0.074,0.342-0.125,0.69-0.125,1.053c0,2.729,2.209,4.938,4.938,4.938c0.323,0,0.636-0.041,0.94-0.102V188.47z"/>
</g>
<g>
	<path fill="#231F20" d="M92.731,309.378l-2.04,4.26c-0.233,0.5-0.414,0.971-0.54,1.41c-0.106-0.406-0.287-0.875-0.54-1.41l-2-4.26
		h-3.08l3.11,6.311h-2.61v2.211h3.71v1.199h-3.71v2.209h3.71v2.73h2.81v-2.73h3.761v-2.209h-3.761V317.9h3.761v-2.211h-2.65
		l3.15-6.311H92.731z"/>
	<circle fill="#231F20" cx="79.837" cy="316.708" r="2.166"/>
	<circle fill="#231F20" cx="99.671" cy="316.375" r="2.167"/>
	<path fill="#231F20" d="M109.024,305.265H71.319h-5.147v6.813v8.389v6.813h5.147h37.705h5.147v-6.813v-8.389v-6.813H109.024z
		 M112.171,319.39c-0.305-0.061-0.616-0.102-0.94-0.102c-2.729,0-4.938,2.209-4.938,4.938c0,0.363,0.053,0.713,0.126,1.053H73.924
		c0.074-0.34,0.126-0.689,0.126-1.053c0-2.729-2.209-4.938-4.938-4.938c-0.324,0-0.636,0.041-0.941,0.102v-6.236
		c0.306,0.061,0.617,0.102,0.941,0.102c2.729,0,4.938-2.209,4.938-4.938c0-0.362-0.052-0.711-0.126-1.053h32.495
		c-0.073,0.342-0.126,0.69-0.126,1.053c0,2.729,2.209,4.938,4.938,4.938c0.324,0,0.636-0.041,0.94-0.102L112.171,319.39
		L112.171,319.39z"/>
</g>
<g>
	<path fill="#231F20" d="M231.392,304.287c0.938,0,1.653,0.244,2.144,0.734l0.51-2.395c-0.714-0.352-1.556-0.527-2.523-0.527
		c-1.775,0-3.207,0.582-4.295,1.746c-0.722,0.771-1.202,1.73-1.444,2.879h-1.028l-0.275,1.338h1.132
		c-0.011,0.203-0.017,0.436-0.017,0.701c0,0.156,0.003,0.303,0.009,0.441h-0.848l-0.275,1.34h1.278
		c0.236,1.17,0.724,2.146,1.462,2.93c1.083,1.152,2.466,1.729,4.148,1.729c0.997,0,1.87-0.188,2.619-0.563v-2.645
		c-0.657,0.68-1.539,1.02-2.646,1.02c-0.922,0-1.671-0.34-2.247-1.02c-0.301-0.352-0.521-0.836-0.666-1.451h3.94l0.277-1.34h-4.4
		c-0.011-0.219-0.017-0.43-0.017-0.631c0-0.209,0.003-0.379,0.009-0.512h4.65l0.276-1.338h-4.754c0.138-0.572,0.372-1.047,0.7-1.428
		C229.692,304.623,230.453,304.287,231.392,304.287z"/>
	<circle fill="#231F20" cx="220.06" cy="309.218" r="2.166"/>
	<circle fill="#231F20" cx="239.894" cy="308.885" r="2.167"/>
	<path fill="#231F20" d="M249.247,297.775h-37.705h-5.146v6.813v8.389v6.813h5.146h37.705h5.148v-6.813v-8.389v-6.813H249.247z
		 M252.394,311.9c-0.306-0.061-0.617-0.102-0.941-0.102c-2.729,0-4.938,2.209-4.938,4.938c0,0.363,0.052,0.713,0.126,1.053h-32.495
		c0.074-0.34,0.126-0.689,0.126-1.053c0-2.729-2.209-4.938-4.938-4.938c-0.323,0-0.636,0.041-0.94,0.102v-6.236
		c0.305,0.061,0.617,0.102,0.94,0.102c2.729,0,4.938-2.209,4.938-4.938c0-0.362-0.052-0.711-0.126-1.053h32.495
		c-0.074,0.342-0.126,0.69-0.126,1.053c0,2.729,2.209,4.938,4.938,4.938c0.324,0,0.636-0.041,0.941-0.102V311.9z"/>
</g>
<g>
	<path fill="#231F20" d="M372.009,326.972c0,0.559-0.455,1.012-1.013,1.012h-28.338c-0.559,0-1.014-0.453-1.014-1.012V301.89
		l5.514,0.15c6.434,0.705,6.785-5.133,6.785-5.133l0.272-8.828h6.325l3.781-4.049H353.95l-3.598,3.797h-0.009l-0.093,0.098h-0.043
		l-2.94,3.115l2.808-2.961h0.029l-10.502,11.033l-0.002,0.059l-2.004,2.113v25.688c0,2.795,2.266,5.059,5.061,5.059h28.338
		c2.795,0,5.063-2.264,5.063-5.059v-34.168l-4.05,4.084L372.009,326.972L372.009,326.972z"/>
	<polygon fill="#231F20" points="361.146,290.72 363.069,290.966 363.349,292.753 365.672,293.369 365.735,294.953 368.063,295.744 
		368.213,297.24 376.931,287.789 369.866,281.271 	"/>
	<polygon fill="#231F20" points="363.215,299.529 358.868,295.521 358.217,300.585 	"/>
	<path fill="#231F20" d="M380.552,281.939l-5.004-4.619c-0.607-0.557-1.675-0.393-2.379,0.371l-0.959,1.041l7.204,6.646l0.959-1.041
		C381.081,283.574,381.159,282.498,380.552,281.939z"/>
</g>
<polygon fill="#231F20" points="455.985,283.99 455.985,319.378 469.315,319.378 477.444,331.585 477.444,319.378 503.985,319.378 
	503.985,283.99 "/>
<path fill="#231F20" d="M585.934,283.503v35.391h13.331l8.129,12.207v-12.207h26.541v-35.391H585.934z M622.559,304.255h-9.569
	v9.568h-6.11v-9.568h-9.57v-6.111h9.57v-9.57h6.11v9.57h9.569V304.255L622.559,304.255z"/>
<path fill="#231F20" d="M66.171,409.91v35.39h13.331l8.129,12.207V445.3h26.541v-35.39H66.171z M101.258,434.373l-4.32,4.32
	l-6.768-6.767l-6.766,6.767l-4.322-4.322l6.767-6.766l-6.768-6.767l4.321-4.322l6.767,6.769l6.768-6.769l4.321,4.32l-6.768,6.769
	L101.258,434.373z"/>
<g>
	<polygon fill="#231F20" points="230.883,423.767 233.346,410.031 239.033,404.363 201.728,404.363 201.728,439.751 
		215.059,439.751 223.188,451.958 223.188,439.751 249.728,439.751 249.728,416.89 246.44,419.978 	"/>
	<polygon fill="#231F20" points="237.336,409.802 239.387,410.166 239.595,412.101 242.06,412.882 242.044,414.593 244.508,415.568 
		244.586,417.185 254.467,407.482 247.211,400.095 	"/>
	<polygon fill="#231F20" points="235.517,412.136 233.465,420.267 242.667,418.978 	"/>
	<path fill="#231F20" d="M258.672,401.38l-5.138-5.229c-0.625-0.639-1.781-0.516-2.579,0.27l-1.089,1.068l7.4,7.532l1.087-1.067
		C259.152,403.166,259.295,402.015,258.672,401.38z"/>
</g>
<g>
	<path fill="#231F20" d="M375.784,408.021v-8.556h-48v35.391h8.331v12.207l8.129-12.207h12.782
		c-0.783-2.141-1.231-4.438-1.231-6.846C355.794,416.989,364.761,408.021,375.784,408.021z"/>
	<path fill="#231F20" d="M390.774,428.011c0-8.278-6.711-14.989-14.99-14.989c-8.278,0-14.99,6.711-14.99,14.989
		c0,8.279,6.712,14.991,14.99,14.991c0.861,0,1.699-0.089,2.521-0.229l8.382,6.385l-2.924-8.473
		C387.971,438.032,390.774,433.355,390.774,428.011z"/>
</g>
<g>
	<path fill="#231F20" d="M589.933,786.561h30.227c1.191,0,2.158-0.965,2.158-2.157v-6.318c0-1.191-0.967-2.158-2.158-2.158h-30.227
		c-1.193,0-2.16,0.967-2.16,2.158v6.318C587.772,785.596,588.739,786.561,589.933,786.561z M594.133,778.792
		c1.352,0,2.45,1.1,2.45,2.451c0,1.354-1.1,2.451-2.45,2.451c-1.352,0-2.451-1.099-2.451-2.451S592.78,778.792,594.133,778.792z"/>
	<path fill="#231F20" d="M589.933,802.555c-1.193,0-2.16,0.967-2.16,2.158v6.318c0,1.19,0.967,2.16,2.16,2.16h17.026
		c-0.635-1.654-0.997-3.443-0.997-5.318s0.362-3.664,0.997-5.318H589.933z"/>
	<path fill="#231F20" d="M620.866,792.967c0.49,0,0.975,0.027,1.451,0.072v-1.76c0-1.191-0.967-2.158-2.158-2.158h-30.227
		c-1.193,0-2.16,0.967-2.16,2.158v6.315c0,1.193,0.967,2.16,2.16,2.16h18.451C611.046,795.674,615.643,792.967,620.866,792.967z"/>
	<path fill="#231F20" d="M620.866,796.645c-6.201,0-11.227,5.025-11.227,11.229c0,6.197,5.025,11.227,11.227,11.227
		c6.202,0,11.229-5.028,11.229-11.227C632.095,801.67,627.067,796.645,620.866,796.645z M628.506,810.042h-5.793v5.793h-3.673
		v-5.793h-5.793v-3.672h5.793v-5.793h3.673v5.793h5.793V810.042z"/>
</g>
<g>
	<path fill="#231F20" d="M210.393,908h30.227c1.192,0,2.159-0.965,2.159-2.158v-6.317c0-1.191-0.967-2.158-2.159-2.158h-30.227
		c-1.192,0-2.16,0.967-2.16,2.158v6.317C208.232,907.036,209.2,908,210.393,908z M214.592,900.231c1.353,0,2.451,1.1,2.451,2.45
		c0,1.354-1.1,2.451-2.451,2.451c-1.351,0-2.45-1.098-2.45-2.451C212.141,901.331,213.241,900.231,214.592,900.231z"/>
	<path fill="#231F20" d="M210.393,923.995c-1.192,0-2.16,0.967-2.16,2.158v6.317c0,1.191,0.968,2.16,2.16,2.16h17.027
		c-0.635-1.654-0.998-3.443-0.998-5.318s0.363-3.663,0.998-5.317H210.393z"/>
	<path fill="#231F20" d="M241.327,914.407c0.49,0,0.973,0.026,1.451,0.073v-1.762c0-1.19-0.967-2.158-2.159-2.158h-30.227
		c-1.192,0-2.16,0.968-2.16,2.158v6.316c0,1.192,0.968,2.16,2.16,2.16h18.45C231.505,917.115,236.103,914.407,241.327,914.407z"/>
	<path fill="#231F20" d="M241.327,918.084c-6.201,0-11.228,5.025-11.228,11.229c0,6.197,5.025,11.228,11.228,11.228
		s11.229-5.029,11.229-11.228C252.556,923.11,247.528,918.084,241.327,918.084z M248.029,933.741l-2.596,2.597l-4.097-4.096
		l-4.096,4.096l-2.597-2.597l4.096-4.097l-4.096-4.096l2.597-2.597l4.096,4.096l4.097-4.096l2.596,2.597l-4.096,4.096
		L248.029,933.741z"/>
</g>
<g>
	<path fill="#231F20" d="M95.031,941.676c0,0.472-0.076,0.924-0.215,1.351h9.563v-1.627h-9.362
		C95.023,941.491,95.031,941.583,95.031,941.676z"/>
	<path fill="#231F20" d="M86.324,941.399h-10.36v1.627h10.563c-0.139-0.427-0.217-0.88-0.217-1.351
		C86.31,941.583,86.318,941.491,86.324,941.399z"/>
	<path fill="#231F20" d="M105.138,909.331H75.203c-1.18,0-2.137,0.957-2.137,2.139v6.256c0,1.181,0.957,2.138,2.137,2.138h29.937
		c1.182,0,2.139-0.957,2.139-2.138v-6.256C107.277,910.288,106.32,909.331,105.138,909.331z"/>
	<path fill="#231F20" d="M105.138,922.635H75.203c-1.18,0-2.137,0.957-2.137,2.138v6.258c0,1.18,0.957,2.139,2.137,2.139h14.002
		v6.379c-0.676,0.467-1.121,1.246-1.121,2.129c0,1.429,1.158,2.586,2.586,2.586c1.431,0,2.588-1.157,2.588-2.586
		c0-0.909-0.474-1.708-1.186-2.168v-6.34h13.066c1.182,0,2.139-0.959,2.139-2.139v-6.258
		C107.277,923.592,106.32,922.635,105.138,922.635z"/>
	<path fill="#231F20" d="M105.138,896.262H75.203c-1.18,0-2.137,0.959-2.137,2.14v6.258c0,1.18,0.957,2.137,2.137,2.137h29.937
		c1.182,0,2.139-0.957,2.139-2.137v-6.258C107.277,897.221,106.32,896.262,105.138,896.262z M79.361,903.956
		c-1.336,0-2.426-1.088-2.426-2.428s1.09-2.429,2.426-2.429c1.34,0,2.43,1.089,2.43,2.429S80.701,903.956,79.361,903.956z"/>
</g>
<g>
	<path fill="#231F20" d="M73.572,1027.029h25.191c0.993,0,1.801-0.806,1.801-1.799v-5.267c0-0.992-0.808-1.799-1.801-1.799H73.572
		c-0.994,0-1.801,0.807-1.801,1.799v5.267C71.771,1026.224,72.578,1027.029,73.572,1027.029z M77.072,1020.554
		c1.127,0,2.043,0.916,2.043,2.043s-0.916,2.043-2.043,2.043s-2.043-0.916-2.043-2.043S75.945,1020.554,77.072,1020.554z"/>
	<path fill="#231F20" d="M73.572,1038.027h14.895c1.968-4.072,6.128-6.896,10.945-6.896c0.389,0,0.772,0.022,1.152,0.059v-0.227
		c0-0.994-0.808-1.799-1.801-1.799H73.572c-0.994,0-1.801,0.805-1.801,1.799v5.264C71.771,1037.22,72.578,1038.027,73.572,1038.027z
		"/>
	<path fill="#231F20" d="M87.624,1040.359H73.572c-0.994,0-1.801,0.807-1.801,1.799v5.266c0,0.994,0.807,1.801,1.801,1.801h15.236
		c-0.987-1.757-1.557-3.778-1.557-5.934C87.251,1042.279,87.39,1041.3,87.624,1040.359z"/>
	<path fill="#231F20" d="M99.412,1034.13c-5.059,0-9.16,4.101-9.16,9.16c0,5.057,4.103,9.16,9.16,9.16c5.059,0,9.16-4.104,9.16-9.16
		C108.572,1038.23,104.47,1034.13,99.412,1034.13z M104.748,1045.227l-5.168,5.168l-1.202-1.202l-3.998-3.997v-2.341l0.031-0.031
		l4.319,4.317v-11.394h1.699v11.394l4.318-4.317V1045.227z"/>
</g>
<g>
	<path fill="#231F20" d="M339.383,1013.911h19.313c1.28-0.36,2.613-0.555,3.979-0.555c1.354,0,2.676,0.202,3.942,0.555h1.644
		c1.139,0,2.063-0.924,2.063-2.063v-6.034c0-1.142-0.924-2.064-2.063-2.064h-28.879c-1.14,0-2.063,0.924-2.063,2.064v6.034
		C337.319,1012.987,338.243,1013.911,339.383,1013.911z M343.394,1006.487c1.293,0,2.342,1.049,2.342,2.342
		s-1.049,2.342-2.342,2.342c-1.289,0-2.342-1.049-2.342-2.342S342.104,1006.487,343.394,1006.487z"/>
	<path fill="#231F20" d="M372.163,1034.826c2.953-4.114,2.98-9.835-0.308-14.016c-3.985-5.065-11.323-5.94-16.39-1.955
		c-5.067,3.985-5.943,11.323-1.957,16.392c3.334,4.235,9.008,5.529,13.74,3.512l9.042,11.493l4.946-3.89L372.163,1034.826z
		 M366.95,1033.453c-2.996,2.355-7.334,1.839-9.69-1.156c-2.357-2.996-1.84-7.335,1.155-9.691c2.996-2.357,7.334-1.84,9.691,1.156
		C370.465,1026.756,369.946,1031.096,366.95,1033.453z"/>
	<path fill="#231F20" d="M351.152,1037.102c-1.856-2.36-2.87-5.119-3.087-7.911h-8.683c-1.14,0-2.063,0.924-2.063,2.063v6.035
		c0,1.139,0.924,2.063,2.063,2.063h13.977C352.556,1038.688,351.812,1037.941,351.152,1037.102z"/>
	<path fill="#231F20" d="M339.383,1026.516h8.723c0.396-3.813,2.263-7.468,5.506-10.019c0.064-0.05,0.132-0.093,0.195-0.142h-14.424
		c-1.14,0-2.063,0.924-2.063,2.063v6.035C337.319,1025.59,338.243,1026.516,339.383,1026.516z"/>
</g>
<g>
	<path fill="#231F20" d="M590.431,1013.181h30.418c1.201,0,2.174-0.973,2.174-2.172v-6.358c0-1.199-0.973-2.172-2.174-2.172h-30.418
		c-1.201,0-2.174,0.973-2.174,2.172v6.358C588.258,1012.208,589.229,1013.181,590.431,1013.181z M594.655,1005.361
		c1.361,0,2.467,1.106,2.467,2.469s-1.104,2.467-2.467,2.467c-1.358,0-2.467-1.104-2.467-2.467S593.297,1005.361,594.655,1005.361z"
		/>
	<path fill="#231F20" d="M590.431,1029.277c-1.201,0-2.174,0.973-2.174,2.172v6.358c0,1.199,0.973,2.173,2.174,2.173h30.418
		c0.197,0,0.385-0.035,0.565-0.084l-14.567-10.619H590.431z"/>
	<path fill="#231F20" d="M590.431,1026.46h14.865l14.682-10.703h-29.547c-1.201,0-2.174,0.974-2.174,2.172v6.357
		C588.258,1025.486,589.229,1026.46,590.431,1026.46z"/>
	<polygon fill="#231F20" points="625.476,1022.661 621.501,1025.557 621.501,1018.36 615.367,1022.833 609.233,1027.303 
		615.367,1031.775 621.501,1036.247 621.501,1028.706 625.476,1031.604 631.61,1036.075 631.61,1027.131 631.61,1018.188 	"/>
</g>
<g>
	<circle fill="#231F20" cx="606.684" cy="70.436" r="9.751"/>
	<path fill="#231F20" d="M625.441,94.001c-5.752,0-10.432-4.68-10.432-10.434c0-0.677,0.067-1.339,0.192-1.981
		c-0.684-0.235-1.1-0.334-1.1-0.334l-3.309,12.252l-1.104,0.009l-3.063-6.887l2.022-3.754h-4.221l2.111,3.663l-2.68,7.026
		l-1.663,0.014l-2.746-11.761c-10.141,1.127-13.521,13.521-13.521,13.521h41.127c-0.051-0.498-0.129-0.974-0.217-1.439
		C626.384,93.958,625.919,94.001,625.441,94.001z"/>
	<path fill="#231F20" d="M625.441,75.077c-4.688,0-8.492,3.802-8.492,8.491c0,4.69,3.804,8.492,8.492,8.492
		c4.689,0,8.493-3.802,8.493-8.492C633.935,78.878,630.132,75.077,625.441,75.077z M627.012,85.139v4.556h-2.889v-4.556h-4.557
		V82.25h4.557v-4.556h2.889v4.556h4.556v2.889H627.012z"/>
</g>
<g>
	<circle fill="#231F20" cx="86.921" cy="184.948" r="9.751"/>
	<path fill="#231F20" d="M105.679,208.513c-5.752,0-10.433-4.68-10.433-10.434c0-0.677,0.068-1.339,0.193-1.981
		c-0.685-0.235-1.101-0.334-1.101-0.334l-3.309,12.252l-1.103,0.009l-3.063-6.887l2.023-3.754h-4.222l2.112,3.663l-2.679,7.026
		l-1.664,0.014l-2.746-11.761c-10.142,1.127-13.521,13.521-13.521,13.521h41.127c-0.051-0.498-0.129-0.974-0.217-1.439
		C106.621,208.469,106.156,208.513,105.679,208.513z"/>
	<path fill="#231F20" d="M105.679,189.588c-4.689,0-8.492,3.802-8.492,8.491c0,4.69,3.803,8.492,8.492,8.492
		c4.688,0,8.492-3.802,8.492-8.492C114.172,193.39,110.369,189.588,105.679,189.588z M99.805,199.651v-2.889h12v2.889H99.805z"/>
</g>
<g>
	<circle fill="#231F20" cx="225.65" cy="182.64" r="11.163"/>
	<path fill="#231F20" d="M245.343,206.428c-0.564,0.113-1.141,0.17-1.721,0.17c-0.543,0-1.092-0.051-1.63-0.151
		c-2.325-0.437-4.341-1.749-5.677-3.7c-1.337-1.951-1.833-4.307-1.396-6.631c0.001-0.004,0.002-0.008,0.002-0.013
		c-1.042-0.399-1.723-0.563-1.723-0.563l-3.254,12.048l-1.547,0.013l-2.574-5.786l2.019-3.746h-4.211l2.107,3.655l-2.257,5.918
		l-1.985,0.017l-2.7-11.564c-9.972,1.108-13.296,13.296-13.296,13.296h40.438c-0.105-1.057-0.31-2.036-0.587-2.947L245.343,206.428z
		"/>
	<path fill="#231F20" d="M249.964,202.165c2.104-2.521,2.392-6.217,0.462-9.074c-2.339-3.462-7.039-4.374-10.503-2.036
		c-3.463,2.338-4.375,7.039-2.036,10.503c1.955,2.896,5.563,3.999,8.717,2.918l5.304,7.855l3.38-2.282L249.964,202.165z
		 M246.66,201.031c-2.047,1.383-4.828,0.844-6.21-1.204s-0.843-4.828,1.204-6.21c2.048-1.383,4.828-0.844,6.21,1.204
		C249.247,196.869,248.708,199.649,246.66,201.031z"/>
</g>
<g>
	<path fill="#231F20" d="M335.899,668.441h27.367c0.31-1.097,0.778-2.125,1.39-3.058h-28.757c-0.534,0-0.966,0.433-0.966,0.967
		v1.125C334.934,668.009,335.365,668.441,335.899,668.441z"/>
	<path fill="#231F20" d="M362.683,671.445c0-0.222,0.02-0.437,0.032-0.654h-27.531l15.756,17.414v16.584l8.705,4.973v-21.143
		l7.284-8.465C364.348,678.121,362.683,674.976,362.683,671.445z"/>
	<path fill="#231F20" d="M375.275,662.349c-4.609,0-8.347,3.779-8.347,8.441c0,4.66,3.736,8.44,8.347,8.44s8.349-3.78,8.349-8.44
		C383.624,666.128,379.885,662.349,375.275,662.349z M381.16,669.652h-2.169l-2.966-2.966v10.685h-1.593v-10.685l-2.965,2.966
		h-2.167l-0.044-0.041l5.974-5.974l1.127,1.125l4.847,4.849L381.16,669.652z"/>
</g>
<g>
	<path fill="#231F20" d="M456.606,543.753h27.367c0.309-1.096,0.777-2.125,1.389-3.057h-28.756c-0.535,0-0.967,0.432-0.967,0.967
		v1.125C455.64,543.322,456.071,543.753,456.606,543.753z"/>
	<path fill="#231F20" d="M483.39,546.757c0-0.221,0.02-0.436,0.031-0.653H455.89l15.756,17.413v16.584l8.705,4.974v-21.144
		l7.285-8.465C485.054,553.433,483.39,550.289,483.39,546.757z"/>
	<path fill="#231F20" d="M495.981,537.662c-4.609,0-8.346,3.779-8.346,8.44s3.735,8.441,8.346,8.441s8.35-3.78,8.35-8.441
		S500.592,537.662,495.981,537.662z M495.937,552.684l-1.127-1.126l-4.848-4.847l0.043-0.042h2.17l2.965,2.965V538.95h1.594v10.684
		l2.965-2.965h2.168l0.043,0.042L495.937,552.684z"/>
</g>
<g>
	<path fill="#231F20" d="M335.899,549.106h27.367c0.31-1.097,0.778-2.125,1.39-3.058h-28.757c-0.534,0-0.966,0.433-0.966,0.967
		v1.125C334.934,548.674,335.365,549.106,335.899,549.106z"/>
	<path fill="#231F20" d="M362.683,552.11c0-0.222,0.02-0.437,0.032-0.654h-27.531l15.756,17.414v16.584l8.705,4.973v-21.143
		l7.284-8.465C364.348,558.786,362.683,555.641,362.683,552.11z"/>
	<path fill="#231F20" d="M375.275,543.014c-4.609,0-8.347,3.779-8.347,8.441s3.736,8.44,8.347,8.44s8.349-3.778,8.349-8.44
		S379.885,543.014,375.275,543.014z M380.757,554.595l-2.239,2.239l-3.256-3.255l-3.256,3.255l-2.238-2.238l3.255-3.256
		l-3.256-3.256l2.239-2.239l3.256,3.256l3.256-3.256l2.239,2.239l-3.255,3.256L380.757,554.595z"/>
</g>
<g>
	<path fill="#231F20" d="M207.015,548.1h27.366c0.311-1.096,0.778-2.125,1.391-3.057h-28.757c-0.534,0-0.967,0.432-0.967,0.967
		v1.125C206.049,547.668,206.48,548.1,207.015,548.1z"/>
	<path fill="#231F20" d="M233.798,551.104c0-0.221,0.021-0.436,0.032-0.653h-27.531l15.757,17.414v16.584l8.704,4.973v-21.143
		l7.284-8.466C235.463,557.78,233.798,554.635,233.798,551.104z"/>
	<path fill="#231F20" d="M246.391,542.008c-4.609,0-8.348,3.779-8.348,8.441c0,4.661,3.737,8.44,8.348,8.44
		c4.609,0,8.349-3.779,8.349-8.44C254.739,545.788,251,542.008,246.391,542.008z M247.96,551.917v4.604l-3.167-0.002v-4.604h-4.604
		v-3.166h4.604v-4.604h3.167v4.604h4.604v3.166H247.96z"/>
</g>
<g>
	<path fill="#231F20" d="M225.486,88.373c-0.794,0-1.468-0.25-2.021-0.751s-0.943-1.319-1.174-2.454l-2.003,0.268
		c0.134,1.357,0.673,2.463,1.62,3.316c0.946,0.854,2.135,1.279,3.567,1.279c1.587,0,2.9-0.495,3.938-1.485
		c1.039-0.991,1.559-2.198,1.559-3.622c0-1.055-0.268-1.932-0.802-2.633c-0.533-0.701-1.283-1.163-2.248-1.386
		c0.742-0.341,1.303-0.802,1.682-1.38c0.379-0.578,0.566-1.221,0.566-1.926c0-0.741-0.197-1.442-0.595-2.104
		c-0.396-0.66-0.97-1.182-1.72-1.563c-0.75-0.383-1.569-0.574-2.459-0.574c-1.291,0-2.371,0.369-3.239,1.107
		c-0.868,0.738-1.424,1.779-1.669,3.122l2.003,0.356c0.148-0.979,0.482-1.715,1.002-2.204c0.52-0.489,1.168-0.734,1.947-0.734
		c0.787,0,1.428,0.241,1.926,0.724c0.497,0.482,0.746,1.09,0.746,1.825c0,0.927-0.341,1.614-1.024,2.059
		c-0.683,0.445-1.45,0.668-2.304,0.668c-0.082,0-0.188-0.007-0.323-0.022l-0.223,1.759c0.563-0.148,1.035-0.223,1.413-0.223
		c0.928,0,1.692,0.299,2.293,0.896c0.601,0.598,0.901,1.356,0.901,2.276c0,0.964-0.325,1.773-0.975,2.427
		C227.224,88.046,226.428,88.373,225.486,88.373z"/>
	<path fill="#231F20" d="M238.496,76.976v12.766h2.003V73.359h-1.291c-0.349,0.705-0.941,1.433-1.78,2.182
		c-0.839,0.75-1.818,1.388-2.938,1.914v1.938c0.623-0.23,1.326-0.576,2.109-1.035C237.381,77.896,238.014,77.437,238.496,76.976z"/>
	<rect x="239.593" y="53.355" fill="#231F20" width="4.003" height="11.602"/>
	<path fill="#231F20" d="M245.595,59.154v7.803h-8.003v-7.803h-13.598v7.803h-8v-7.803h-9.602v38.402h48V59.154H245.595z
		 M250.208,94.339h-40.333V69.673h40.333V94.339L250.208,94.339z"/>
	<rect x="217.996" y="53.355" fill="#231F20" width="4" height="11.602"/>
</g>
<path fill="#231F20" d="M376.963,807.278h-3.654v-16.443c0-0.416-0.168-0.815-0.463-1.109l-10.347-10.231
	c-0.293-0.289-0.688-0.451-1.098-0.451h-14.604c-0.862,0-1.562,0.699-1.562,1.561v26.677h-3.641c-2.873,0-5.201,2.328-5.201,5.201
	v9.36c0,2.873,2.328,5.201,5.201,5.201h35.366c2.873,0,5.2-2.328,5.2-5.201v-9.36C382.163,809.606,379.836,807.278,376.963,807.278z
	 M362.963,784.338l5.051,4.996h-5.051V784.338z M348.357,782.161h11.484v8.733c0,0.861,0.698,1.562,1.561,1.562h8.785v14.822h-21.83
	V782.161L348.357,782.161z M373.842,814.04h-5.201c-0.861,0-1.56-0.699-1.56-1.562c0-0.861,0.697-1.561,1.56-1.561h5.201
	c0.862,0,1.561,0.699,1.561,1.561C375.402,813.341,374.704,814.04,373.842,814.04z"/>
<g>
	<path fill="#231F20" d="M103.271,1289.459c-1.834-1.618-4.651-3.283-8.348-3.283c-3.637-0.001-6.394,1.616-8.194,3.216v-19.502
		c0.314-0.48,1.01-1.448,2.059-2.369c0.915-0.804,2.063-1.563,3.466-2.012c0.199-1.179,0.585-2.33,1.165-3.406
		c-3,0.38-5.303,1.841-6.85,3.256c-0.555,0.508-1.023,1.011-1.407,1.466c-0.396-0.458-0.881-0.966-1.456-1.478
		c-1.833-1.637-4.674-3.347-8.417-3.344c-3.744-0.003-6.557,1.712-8.353,3.355c-1.808,1.651-2.688,3.259-2.742,3.354l-0.19,0.74
		v24.175l2.897,0.738l0.006,0.005c0.04-0.078,0.818-1.42,2.249-2.676c1.44-1.262,3.449-2.426,6.134-2.427
		c2.771,0,4.877,1.247,6.363,2.562c0.735,0.655,1.3,1.318,1.669,1.807c0.185,0.246,0.323,0.448,0.409,0.581
		c0.044,0.065,0.076,0.117,0.095,0.148c0.007,0.014,0.013,0.023,0.018,0.029h0.001c0.266,0.465,0.765,0.777,1.339,0.777
		c0.585,0,1.094-0.323,1.356-0.802l0.001-0.005l0.001-0.002c0.06-0.106,0.833-1.427,2.245-2.669c1.44-1.262,3.448-2.426,6.135-2.427
		c2.769,0,4.876,1.247,6.363,2.562c0.735,0.655,1.297,1.318,1.668,1.807c0.186,0.246,0.322,0.448,0.409,0.581
		c0.043,0.065,0.076,0.117,0.094,0.148c0.009,0.014,0.017,0.023,0.018,0.029h0.001l0.001-0.001l2.885-0.767v-15.7
		c-1.007,0.306-2.049,0.462-3.092,0.474V1289.459z M83.638,1289.46c-1.835-1.619-4.65-3.284-8.349-3.284h-0.006
		c-3.63,0-6.386,1.615-8.186,3.213v-19.5c0.314-0.482,1.01-1.447,2.058-2.368c1.44-1.265,3.449-2.425,6.134-2.427
		c2.771,0,4.877,1.247,6.363,2.561c0.735,0.656,1.3,1.32,1.669,1.807c0.131,0.174,0.236,0.323,0.317,0.442V1289.46z"/>
	<path fill="#231F20" d="M109.407,1261.09c-3.459-3.46-9.071-3.46-12.534,0c-3.461,3.462-3.461,9.072,0,12.535
		c3.463,3.459,9.074,3.459,12.534,0C112.869,1270.162,112.869,1264.552,109.407,1261.09z M107.836,1268.964h-2.94v3.06
		c0,0.872-0.707,1.576-1.574,1.576c-0.872,0-1.577-0.704-1.577-1.576v-3.06h-3.241c-0.872,0-1.579-0.708-1.579-1.575
		c0-0.869,0.707-1.579,1.579-1.579h3.241v-3.117c0-0.872,0.705-1.579,1.577-1.579c0.868,0,1.574,0.707,1.574,1.579v3.117h2.94
		c0.869,0,1.574,0.71,1.574,1.579C109.41,1268.256,108.705,1268.964,107.836,1268.964z"/>
</g>
<g>
	<text transform="matrix(1 0 0 1 62.3625 1323.4541)" font-family="'MyriadPro-Regular'" font-size="12.6756">Book add</text>
</g>
<g>
	<path d="M238.989,1290.986c-1.695-1.494-4.298-3.033-7.713-3.033c-3.36-0.002-5.907,1.493-7.571,2.972v-18.021
		c0.29-0.442,0.934-1.337,1.902-2.188c1.331-1.167,3.187-2.239,5.669-2.242c0.231,0,0.452,0.019,0.673,0.037
		c0.073-0.959,0.278-1.906,0.61-2.819c-0.415-0.048-0.841-0.074-1.283-0.074c-3.46-0.001-6.059,1.582-7.718,3.101
		c-0.514,0.469-0.947,0.933-1.3,1.356c-0.367-0.424-0.815-0.895-1.345-1.367c-1.694-1.513-4.32-3.091-7.778-3.09
		c-3.46-0.001-6.059,1.582-7.718,3.101c-1.671,1.526-2.484,3.013-2.535,3.1l-0.174,0.685v22.337l2.675,0.683l0.006,0.005
		c0.038-0.072,0.756-1.312,2.077-2.475c1.331-1.165,3.188-2.24,5.669-2.241c2.56,0.001,4.506,1.15,5.879,2.367
		c0.68,0.604,1.201,1.219,1.542,1.67c0.172,0.229,0.298,0.414,0.379,0.536c0.04,0.063,0.069,0.108,0.086,0.138
		c0.007,0.012,0.014,0.021,0.017,0.027h0.001c0.246,0.429,0.707,0.718,1.238,0.718c0.54,0,1.01-0.299,1.252-0.74h0.001
		c0,0,0-0.005,0-0.008h0.001c0.056-0.098,0.771-1.317,2.075-2.467c1.331-1.165,3.187-2.24,5.669-2.241
		c2.56,0.001,4.506,1.15,5.879,2.367c0.679,0.604,1.199,1.219,1.542,1.67c0.17,0.229,0.296,0.414,0.377,0.536
		c0.041,0.063,0.069,0.108,0.086,0.138c0.008,0.012,0.015,0.021,0.017,0.027h0.001l0.002-0.002l2.666-0.708V1279.9
		c-0.97-0.062-1.931-0.256-2.858-0.582V1290.986z M220.848,1290.989c-1.694-1.496-4.296-3.036-7.713-3.036h-0.006
		c-3.356,0-5.901,1.492-7.564,2.969v-18.019c0.29-0.444,0.934-1.337,1.901-2.188c1.331-1.167,3.188-2.239,5.669-2.242
		c2.56,0,4.506,1.151,5.879,2.367c0.68,0.605,1.201,1.218,1.542,1.669c0.121,0.16,0.218,0.297,0.292,0.41V1290.989z"/>
	<path d="M248.309,1263.531c-3.197-3.196-8.382-3.196-11.58,0c-3.198,3.2-3.198,8.385,0,11.583c3.198,3.198,8.383,3.198,11.58,0
		C251.507,1271.916,251.507,1266.731,248.309,1263.531z M247.155,1270.845h-8.896c-0.839,0-1.521-0.683-1.521-1.521
		c0-0.842,0.682-1.523,1.521-1.523h8.896c0.84,0,1.521,0.682,1.521,1.523C248.676,1270.162,247.994,1270.845,247.155,1270.845z"/>
</g>
<text transform="matrix(1 0 0 1 195.1711 1316.7783)" font-family="'MyriadPro-Regular'" font-size="12.6756">book delete</text>
<g>
	<path d="M375.208,1290.327c-1.64-1.446-4.157-2.938-7.466-2.938c-3.254-0.001-5.717,1.445-7.328,2.878v-17.444
		c0.281-0.429,0.905-1.293,1.842-2.119c1.036-0.909,2.423-1.731,4.171-2.029c-0.255-0.879-0.423-1.794-0.499-2.736
		c-2.45,0.425-4.355,1.641-5.656,2.833c-0.497,0.452-0.916,0.903-1.258,1.313c-0.355-0.414-0.789-0.867-1.303-1.325
		c-1.638-1.465-4.18-2.991-7.529-2.991c-3.348,0-5.863,1.529-7.471,3.003c-1.617,1.476-2.404,2.914-2.454,2.999l-0.168,0.661v21.624
		l2.591,0.661h0.005c0.037-0.066,0.734-1.268,2.011-2.391c1.288-1.128,3.085-2.17,5.486-2.172c2.478,0.002,4.363,1.114,5.691,2.294
		c0.658,0.583,1.165,1.177,1.494,1.614c0.164,0.22,0.288,0.401,0.367,0.521c0.037,0.059,0.066,0.104,0.084,0.133
		c0.005,0.011,0.012,0.019,0.016,0.026c0.238,0.414,0.686,0.694,1.197,0.694c0.523,0,0.98-0.29,1.213-0.721h0.002c0,0,0,0,0-0.004
		h0.002c0.053-0.094,0.746-1.278,2.008-2.387c1.287-1.128,3.084-2.17,5.486-2.172c2.479,0.002,4.361,1.114,5.691,2.294
		c0.658,0.583,1.16,1.177,1.494,1.614c0.164,0.22,0.285,0.401,0.363,0.521c0.041,0.059,0.068,0.104,0.085,0.133
		c0.006,0.011,0.013,0.019,0.017,0.026h0.004l2.58-0.688v-15.568c-0.957-0.115-1.883-0.331-2.769-0.632V1290.327z M357.649,1290.327
		c-1.641-1.446-4.159-2.938-7.467-2.938h-0.005c-3.247,0-5.711,1.443-7.321,2.874v-17.444c0.281-0.428,0.906-1.289,1.841-2.115
		c1.288-1.129,3.085-2.168,5.486-2.17c2.478,0,4.363,1.114,5.691,2.29c0.658,0.588,1.165,1.179,1.494,1.616
		c0.117,0.154,0.211,0.289,0.282,0.396V1290.327z"/>
	<path d="M378.4,1254.776c-5.351,0-9.688,4.337-9.688,9.69c0,5.348,4.337,9.687,9.688,9.687c5.352,0,9.689-4.339,9.689-9.687
		C388.09,1259.113,383.752,1254.776,378.4,1254.776z M379.973,1257.456l-0.897,9.917h-1.371l-0.896-9.917H379.973z M378.39,1272.233
		l-1.891-1.961l1.891-1.962l1.906,1.962L378.39,1272.233z"/>
</g>
<g>
	<text transform="matrix(1 0 0 1 343.156 1313.2861)"><tspan x="0" y="0" font-family="'MyriadPro-Regular'" font-size="12.6756">  Book </tspan><tspan x="0" y="15.21" font-family="'MyriadPro-Regular'" font-size="12.6756">settings</tspan></text>
</g>
<text transform="matrix(1 0 0 1 301.3591 -11.2549)" font-family="'MyriadPro-Regular'" font-size="73.5004">Data</text>
</svg>
