<?xml version="1.0" encoding="utf-8"?>
<!-- Generator: Adobe Illustrator 15.1.0, SVG Export Plug-In . SVG Version: 6.00 Build 0)  -->
<!DOCTYPE svg PUBLIC "-//W3C//DTD SVG 1.1//EN" "http://www.w3.org/Graphics/SVG/1.1/DTD/svg11.dtd">
<svg version="1.1" id="Layer_1" xmlns="http://www.w3.org/2000/svg" xmlns:xlink="http://www.w3.org/1999/xlink" x="0px" y="0px"
	 width="779px" height="476.975px" viewBox="0 0 779 476.975" enable-background="new 0 0 779 476.975" xml:space="preserve">
<text transform="matrix(1 0 0 1 62.6914 186.229)" fill="#010101" font-family="'SegoeUI-SemiBold'" font-size="12">Thumb up</text>
<text transform="matrix(1 0 0 1 178.1177 186.229)" fill="#010101" font-family="'SegoeUI-SemiBold'" font-size="12">Thumb down</text>
<text transform="matrix(1 0 0 1 305.4297 188.229)" fill="#010101" font-family="'SegoeUI-SemiBold'" font-size="12">Polling Box</text>
<text transform="matrix(1 0 0 1 418.1519 186.229)" fill="#010101" font-family="'SegoeUI-SemiBold'" font-size="12">Polling Hand</text>
<text transform="matrix(1 0 0 1 529.2627 186.229)" fill="#010101" font-family="'SegoeUI-SemiBold'" font-size="12">Election Campaign</text>
<text transform="matrix(1 0 0 1 668.5645 186.229)"><tspan x="0" y="0" fill="#010101" font-family="'SegoeUI-SemiBold'" font-size="12">Election </tspan><tspan x="6.404" y="14.4" fill="#010101" font-family="'SegoeUI-SemiBold'" font-size="12">Result</tspan></text>
<text transform="matrix(1 0 0 1 53.0264 301.3447)" fill="#010101" font-family="'SegoeUI-SemiBold'" font-size="12">Polling Finger</text>
<text transform="matrix(1 0 0 1 179.1079 301.3447)" fill="#010101" font-family="'SegoeUI-SemiBold'" font-size="12">White House</text>
<text transform="matrix(1 0 0 1 314.4414 301.3447)" fill="#010101" font-family="'SegoeUI-SemiBold'" font-size="12">Speaker</text>
<text transform="matrix(1 0 0 1 438.7617 301.3447)" fill="#010101" font-family="'SegoeUI-SemiBold'" font-size="12">Eagle</text>
<text transform="matrix(1 0 0 1 559.2422 303.3447)" fill="#010101" font-family="'SegoeUI-SemiBold'" font-size="12">Donkey</text>
<text transform="matrix(1 0 0 1 667.9453 303.3447)" fill="#010101" font-family="'SegoeUI-SemiBold'" font-size="12">Elephant</text>
<g id="layer1" inkscape:groupmode="layer" inkscape:label="Ebene 1">
	<path id="path3904-6" sodipodi:nodetypes="cccccccccscccsccccc" inkscape:connector-curvature="0" fill="#010101" d="
		M72.069,140.855c0,0,3.246-0.829,6.148-4.698c1.175-1.658,2.21-4.696,2.971-7.392c0.691-1.521,0.484-2.212,3.73-3.524
		c2.073-1.173,5.32-3.592,6.771-7.46c0.415-1.727-0.172-5.572,2.972-5.526c3.281,0.064,3.523,3.385,3.73,5.666
		c-0.277,4.075-3.454,8.013-3.454,8.013l-2.763,4.491c0,0,1.028-0.059,4.284,0.123c2.583,0.144,5.287-0.327,8.912,0.775
		c8.22,4.146,1.243,7.047,1.243,7.047c4.491,3.246,0.483,6.7,0.483,6.7c2.834,5.112-1.792,6.176-1.519,6.218
		c0.898,0.138,4.006,3.385-1.313,6.217c0,0-5.804,2.558-8.981,2.558c-2.073,0.344-8.014,0.415-12.504-1.452
		c-5.32-0.898-6.349-0.318-10.77,0.511L72.069,140.855z"/>
</g>
<g id="layer1_1_" inkscape:groupmode="layer" inkscape:label="Ebene 1">
	<path id="path3904-6_1_" sodipodi:nodetypes="cccccccccscccsccccc" inkscape:connector-curvature="0" fill="#010101" d="
		M232.859,131.653c0,0-3.246,0.829-6.149,4.698c-1.172,1.658-2.209,4.696-2.971,7.392c-0.691,1.521-0.483,2.212-3.729,3.524
		c-2.071,1.173-5.32,3.592-6.771,7.459c-0.416,1.729,0.173,5.573-2.971,5.528c-3.281-0.064-3.521-3.385-3.732-5.666
		c0.278-4.075,3.454-8.013,3.454-8.013l2.766-4.491c0,0-1.028,0.059-4.286-0.123c-2.581-0.144-5.285,0.327-8.909-0.775
		c-8.221-4.146-1.242-7.047-1.242-7.047c-4.491-3.246-0.483-6.7-0.483-6.7c-2.833-5.112,1.79-6.176,1.518-6.218
		c-0.899-0.138-4.008-3.385,1.313-6.217c0,0,5.804-2.558,8.982-2.558c2.071-0.344,8.013-0.415,12.504,1.452
		c5.317,0.898,6.349,0.318,10.769-0.511L232.859,131.653z"/>
</g>
<g>
	<path fill="#010101" d="M446.701,125.011l5.913-3.39c0,0,3.074-1.419,5.439-0.394l12.692,2.68v9.224c0,0-6.07,5.44-15.136,1.104
		c0,0-9.303,3.39-9.934,3.469c-0.631,0.079-2.917-4.415-2.917-4.415l10.958-4.809c0,0,0.631-0.473,0.289-1.367
		c0,0-0.395-0.657-1.287-0.42l-2.917,1.367L446.701,125.011z"/>
	<ellipse fill="#010101" cx="444.139" cy="135.595" rx="2.733" ry="2.654"/>
	<path fill="#010101" d="M442.126,124.499l-12.343,12.591c-0.561,0.57-0.551,1.486,0.02,2.046l12.346,12.103
		c0.569,0.559,1.485,0.55,2.045-0.021l12.345-12.591c0.559-0.57,0.55-1.486-0.021-2.045l-12.345-12.104
		C443.602,123.918,442.687,123.928,442.126,124.499z M454.628,137.623l-11.477,11.706l-11.46-11.235l11.477-11.706L454.628,137.623z
		"/>
	<rect x="473.27" y="123.907" fill="#010101" width="4.1" height="12.062"/>
</g>
<g>
	<circle fill="#010101" cx="596.638" cy="141.68" r="4.185"/>
	<path fill="#010101" d="M597.188,147.517c-3.771,0-6.828,3.057-6.828,6.828h13.656C604.017,150.574,600.96,147.517,597.188,147.517
		z"/>
	<circle fill="#010101" cx="585.077" cy="141.232" r="5.389"/>
	<path fill="#010101" d="M585.786,148.747c-4.855,0-8.791,3.95-8.791,8.823h17.583C594.578,152.697,590.642,148.747,585.786,148.747
		z"/>
	<path fill="#010101" d="M558.57,120.425c0,0,8.296,4.846,16.52-1.835c0,0,11.196-8.131,20.483-0.146c0,0,2.386,1.542,3.744,5.873
		c0,0,0.734,1.615-0.733,1.175c0,0-10.315-5.782-15.565,1.615c0,0-5.543,9.893-18.722,6.608l-3.23,0.587l-4.992-11.894
		C556.074,122.408,555.413,120.058,558.57,120.425z"/>
	<polygon fill="#010101" points="560.772,133.567 571.052,157.575 578.834,157.575 585.147,148.765 572.446,153.317 
		563.563,132.319 	"/>
</g>
<g>
	<path d="M90.033,264.969c0,1.553-1.259,2.813-2.812,2.813l0,0c-1.553,0-2.812-1.26-2.812-2.813v-24.902
		c0-1.553,1.259-2.813,2.812-2.813l0,0c1.553,0,2.812,1.26,2.812,2.813V264.969z"/>
	<path d="M95.522,272.252c0,1.375-1.259,2.49-2.812,2.49l0,0c-1.553,0-2.812-1.115-2.812-2.49V250.19
		c0-1.377,1.259-2.492,2.812-2.492l0,0c1.553,0,2.812,1.115,2.812,2.492V272.252z"/>
	<path d="M101.012,272.061c0,1.26-1.259,2.281-2.812,2.281l0,0c-1.553,0-2.812-1.021-2.812-2.281v-20.207
		c0-1.26,1.259-2.281,2.812-2.281l0,0c1.553,0,2.812,1.021,2.812,2.281V272.061z"/>
	<path d="M90.386,270.747c0.562,0.941,0.058,2.275-1.126,2.984l0,0c-1.184,0.707-2.6,0.52-3.16-0.422l-9.01-15.07
		c-0.563-0.939-0.059-2.275,1.126-2.982l0,0c1.185-0.707,2.599-0.52,3.161,0.42L90.386,270.747z"/>
	<path d="M104.885,269.522c0,2.994-2.428,5.422-5.423,5.422h-9.64c-2.994,0-5.422-2.428-5.422-5.422v-4.82
		c0-2.994,2.428-5.422,5.422-5.422h9.64c2.995,0,5.423,2.428,5.423,5.422V269.522z"/>
	<path d="M104.837,268.987c-0.128,1.324-1.306,2.295-2.631,2.166l0,0c-1.325-0.129-2.295-1.307-2.167-2.631l1.299-13.393
		c0.128-1.324,1.306-2.295,2.631-2.166l0,0c1.324,0.127,2.295,1.307,2.166,2.631L104.837,268.987z"/>
	<path d="M89.222,233.182c0,1.023-0.828,1.85-1.85,1.85l0,0c-1.021,0-1.85-0.826-1.85-1.85v-4.389c0-1.021,0.828-1.85,1.85-1.85l0,0
		c1.021,0,1.85,0.828,1.85,1.85V233.182z"/>
	<path d="M95.781,237.338c-0.723,0.723-1.894,0.723-2.616,0l0,0c-0.722-0.723-0.722-1.893,0-2.615l3.104-3.104
		c0.722-0.723,1.894-0.723,2.616,0l0,0c0.723,0.723,0.723,1.893,0,2.615L95.781,237.338z"/>
	<path d="M78.88,237.338c0.722,0.723,1.894,0.723,2.616,0l0,0c0.723-0.723,0.723-1.893,0-2.615l-3.104-3.104
		c-0.723-0.723-1.895-0.723-2.616,0l0,0c-0.722,0.723-0.722,1.893,0,2.615L78.88,237.338z"/>
</g>
<g>
	<path d="M228.76,247.718c0,0.628-0.509,1.137-1.137,1.137h-26.998c-0.628,0-1.138-0.509-1.138-1.137l0,0
		c0-0.628,0.51-1.137,1.138-1.137h26.998C228.251,246.582,228.76,247.09,228.76,247.718L228.76,247.718z"/>
	<path d="M227.605,248.627c0.085-0.613,0.132-1.239,0.132-1.875c0-7.471-6.057-13.528-13.527-13.528s-13.527,6.057-13.527,13.528
		c0,0.637,0.047,1.262,0.132,1.875H227.605z"/>
	<path d="M230.92,252.606c0,0.596-0.484,1.08-1.08,1.08h-31.375c-0.597,0-1.08-0.484-1.08-1.08l0,0c0-0.597,0.483-1.08,1.08-1.08
		h31.375C230.436,251.526,230.92,252.01,230.92,252.606L230.92,252.606z"/>
	<path d="M198.465,252.833v8.924h2.387v-6.555c0-0.73,0.611-1.322,1.364-1.322c0.754,0,1.364,0.592,1.364,1.322v6.555h3.24v-6.555
		c0-0.73,0.61-1.322,1.363-1.322c0.754,0,1.364,0.592,1.364,1.322v6.555h3.24v-6.555c0-0.73,0.61-1.322,1.364-1.322
		c0.753,0,1.364,0.592,1.364,1.322v6.555h3.239v-6.555c0-0.73,0.611-1.322,1.364-1.322s1.364,0.592,1.364,1.322v6.555h3.239v-6.555
		c0-0.73,0.611-1.322,1.364-1.322c0.754,0,1.364,0.592,1.364,1.322v6.555h2.501v-8.924H198.465z"/>
	<path d="M237.001,265.793c0,0.628-0.509,1.137-1.137,1.137h-43.254c-0.628,0-1.137-0.509-1.137-1.137l0,0
		c0-0.628,0.509-1.137,1.137-1.137h43.254C236.493,264.656,237.001,265.165,237.001,265.793L237.001,265.793z"/>
	<path d="M192.498,266.361v8.583h2.33v-6.366c0-0.785,0.636-1.421,1.421-1.421s1.421,0.636,1.421,1.421v6.366h3.126v-6.366
		c0-0.785,0.637-1.421,1.421-1.421c0.785,0,1.421,0.636,1.421,1.421v6.366h3.126v-6.366c0-0.785,0.637-1.421,1.421-1.421
		c0.785,0,1.422,0.636,1.422,1.421v6.366h3.126v-6.366c0-0.785,0.636-1.421,1.421-1.421c0.784,0,1.421,0.636,1.421,1.421v6.366
		h3.126v-6.366c0-0.785,0.636-1.421,1.421-1.421s1.421,0.636,1.421,1.421v6.366h3.126v-6.366c0-0.785,0.637-1.421,1.421-1.421
		c0.785,0,1.421,0.636,1.421,1.421v6.366h3.126v-6.366c0-0.785,0.637-1.421,1.421-1.421c0.785,0,1.422,0.636,1.422,1.421v6.366h2.33
		v-8.583H192.498z"/>
	<path d="M216.54,230.866c0,0.259-0.21,0.469-0.469,0.469h-3.794c-0.259,0-0.469-0.21-0.469-0.469l0,0
		c0-0.259,0.21-0.469,0.469-0.469h3.794C216.33,230.397,216.54,230.607,216.54,230.866L216.54,230.866z"/>
	<g>
		<rect x="212.405" y="230.908" width="1.023" height="3.325"/>
		<rect x="214.919" y="230.78" width="1.023" height="3.325"/>
	</g>
	<path d="M214.557,229.203c0,0.212-0.172,0.384-0.383,0.384l0,0c-0.212,0-0.384-0.172-0.384-0.384v-1.875
		c0-0.212,0.172-0.384,0.384-0.384l0,0c0.211,0,0.383,0.172,0.383,0.384V229.203z"/>
	<path d="M216.006,230.546c-0.012-1.073-0.827-1.939-1.832-1.939c-1.006,0-1.821,0.866-1.832,1.939H216.006z"/>
</g>
<g>
	<path d="M441.99,234.335c0,0,4.4-5.623,18.703-5.989l-2.323,1.345c0,0,8.19,0.367,11.734,7.089h-0.611
		c0,0,2.017,5.409,3.117,13.935c0,0,2.567,12.193,3.575,12.468c0,0,1.559,3.759,1.1,7.426c0,0-1.467,0.275-6.691-4.583
		c0,0,0.092,4.492-1.101,5.958c0,0-4.309-3.392-4.4-4.583c0,0-0.917,4.583-2.108,5.226c0,0-2.292-1.375-3.667-5.592
		c0,0-1.192,5.959-3.025,6.509c0,0-1.375-1.1-3.116-5.959c0,0-1.101,4.125-2.843,5.134c0,0-2.017-1.742-2.658-6.142
		c0,0-1.65,3.942-4.584,5.317c0,0-1.467-1.925-1.284-4.676c0,0-2.107,2.017-6.691,2.2c0,0,6.601-14.759,6.875-19.71
		c0,0-2.566-3.851-8.158-3.392c0,0,1.008-2.75,10.817-1.283C444.649,245.031,446.392,237.849,441.99,234.335z"/>
	<path d="M433.373,251.173c0,0-9.534-7.334,0.825-15.768c0,0,5.226-3.025,8.435,1.467c0,0,1.559,3.483,0.732,6.967
		c0,0-7.975-1.467-10.542,2.017C432.823,245.855,431.265,247.414,433.373,251.173z"/>
	<path fill="#FFFFFF" d="M446.514,237.88c0,0,3.667,3.056,7.456,0.245c0,0,1.589-0.855,1.039,1.467c0,0-1.284,3.606-4.462,0.611
		C450.547,240.203,447.309,239.347,446.514,237.88z"/>
	<circle cx="451.953" cy="239.958" r="0.611"/>
</g>
<g>
	<path fill="#010101" d="M561.586,253.137h25.698c0,0-4.18,10.935,2.574,21.725h-3.212c0,0-3.542-6.343-3.295-18.451
		c0,0-8.896,3.377-12.767,0.247c0,0-2.225,4.942-4.777,7.496c0,0-0.576,2.8,2.636,10.79h-2.554l-2.883-10.79
		C563.007,264.154,564.366,257.688,561.586,253.137z"/>
	<path fill="#010101" d="M561.276,253.116h-1.193c0,0,0.617,7.001,0.617,7.249s-0.205,3.294,0.618,5.684
		c0,0,0.823-2.348,0.247-5.272C561.565,260.776,561.071,254.476,561.276,253.116z"/>
	<path fill="#010101" d="M582.569,257.441l-2.266,0.618c0,0-0.205,8.072,3.254,15.609h1.813
		C585.37,273.667,582.692,268.849,582.569,257.441z"/>
	<path fill="#010101" d="M571.347,273.708h-2.533l-2.533-9.02c0,0,3.027-2.903,4.758-6.795l0.988,0.247l-3.274,4.633
		C568.752,262.774,568.382,266.295,571.347,273.708z"/>
	<path fill="#010101" d="M560.104,251.901h27.552c0,0,1.545-4.695,5.066-9.02l1.668,2.842c0,0,1.05,1.297,1.05,2.224
		c0,0,0.062,2.718,1.792,2.101c0,0,2.532,0.062,2.532-3.027c0,0-0.433-3.954-0.31-4.448c0,0,1.298-1.792-0.309-5.004
		c0,0-2.038-2.595-0.926-5.127l1.668-4.263c0,0,0.617-1.853-2.162-0.371c0,0-2.41,2.162-2.472,6.363l-0.185,0.494
		c0,0-1.916-8.525-4.449-7.661c0,0-0.617,1.977,1.792,6.981c0,0-4.509,1.977-6.795,5.251l0.494,1.112c0,0-6.363,5.066-17.544,0.494
		c0,0-5.499-1.235-7.908,5.622C560.659,246.465,559.979,248.689,560.104,251.901z"/>
	<polygon fill="#FFFFFF" points="591.424,235.716 590.436,234.583 591.032,234.233 	"/>
	<polygon fill="#FFFFFF" points="590.333,236.375 589.345,235.284 589.899,234.995 	"/>
	<polygon fill="#FFFFFF" points="589.303,237.013 588.273,236.004 588.685,235.778 	"/>
	<polygon fill="#FFFFFF" points="588.397,237.94 587.224,237.075 587.635,236.766 	"/>
	<polygon fill="#FFFFFF" points="587.47,239.031 586.193,237.96 586.522,237.672 	"/>
	<polygon fill="#FFFFFF" points="566.384,244.019 567.092,246.198 569.383,246.198 567.529,247.544 568.237,249.723 
		566.384,248.376 564.53,249.723 565.239,247.544 563.386,246.198 565.677,246.198 	"/>
	<polygon fill="#FFFFFF" points="574.827,244.019 575.534,246.198 577.825,246.198 575.972,247.544 576.68,249.723 574.827,248.376 
		572.974,249.723 573.681,247.544 571.828,246.198 574.118,246.198 	"/>
	<polygon fill="#FFFFFF" points="583.063,244.019 583.771,246.198 586.062,246.198 584.209,247.544 584.917,249.723 
		583.063,248.376 581.21,249.723 581.918,247.544 580.065,246.198 582.355,246.198 	"/>
</g>
<g>
	<path fill="#010101" d="M715.648,254.482h-47.754l0.661,4.52c0,0-0.309,3.042,1.103,5.6c0,0,0.44-2.954-0.396-5.512l-0.133-4.057
		l3.219,17.505h4.542c0,0,1.94-9.392,2.778-10.936c0,0,7.54,3.528,15.785-0.661l3.483,11.597h4.763c0,0,0.396-14.287,1.587-15.698
		c0,0,4.013,3.924,3.396,10.318c0,0-0.221,2.292-1.059,1.323c0,0-1.588-1.014-0.088-3.351c0,0,0.947-1.632-0.265-1.455
		c0,0-0.463,0.617-0.684,0.132c0,0-0.177-0.132-0.132-0.463c0,0-0.75-0.353-0.794,0.529c0,0-0.286,5.225,0.728,6.173
		c0,0,1.764,2.557,4.873-0.684C711.262,269.364,714.986,264.933,715.648,254.482z"/>
	<path fill="#010101" d="M692.962,270.985h4.333l-2.447-8.632c0,0-2.018,1.257-4.002,1.422L692.962,270.985z"/>
	<path fill="#010101" d="M684.033,263.742c0,0-2.514,0-4.068-0.926c0,0-1.918,7.771-1.852,8.433h3.869
		C681.982,271.249,683.802,264.304,684.033,263.742z"/>
	<path d="M715.715,252.564h-47.953c0,0-0.728-11.773,3.506-17.263c0,0,1.918-5.225,17.064-5.953c0,0,6.151,0.397,15.279,3.374
		c0,0,5.026-0.199,5.82,0.198c0,0,2.248,0.992,4.629,4.895C714.061,237.815,715.715,242.048,715.715,252.564z"/>
	<circle fill="#FFFFFF" cx="710.953" cy="243.768" r="1.521"/>
	<path fill="#FFFFFF" d="M706.587,235.368c0,0-7.011-3.175-8.929,0.86c0,0-4.167,8.202,1.455,13.427c0,0,3.439,3.505,6.879-3.307
		c0,0-1.455,4.895-5.357,5.026c0,0-5.027-1.256-5.159-9.656c0,0,0.595-8.334,5.489-8.069
		C700.965,233.648,705.661,233.846,706.587,235.368z"/>
	<polygon fill="#FFFFFF" points="682.512,237.662 681.774,239.931 679.389,239.931 681.318,241.333 680.581,243.602 682.512,242.2 
		684.442,243.602 683.704,241.333 685.635,239.931 683.249,239.931 	"/>
	<polygon fill="#FFFFFF" points="690.647,237.662 689.91,239.931 687.524,239.931 689.454,241.333 688.717,243.602 690.647,242.2 
		692.577,243.602 691.84,241.333 693.771,239.931 691.385,239.931 	"/>
	<polygon fill="#FFFFFF" points="674.442,237.662 673.705,239.931 671.319,239.931 673.25,241.333 672.512,243.602 674.442,242.2 
		676.373,243.602 675.636,241.333 677.565,239.931 675.18,239.931 	"/>
</g>
<g>
	<path d="M112.901,361.922c-3.587-8.74-12.179-14.896-22.212-14.896c-10.031,0-18.625,6.156-22.211,14.896H112.901z"/>
	<polygon fill="#FFFFFF" points="90.648,350.299 91.703,353.544 95.115,353.544 92.354,355.55 93.409,358.795 90.648,356.789 
		87.889,358.795 88.942,355.55 86.182,353.544 89.594,353.544 	"/>
	<path d="M68.445,380.046c1.406,3.465,3.599,6.526,6.355,8.964v-5.819h4.717v9.079c1.362,0.718,2.802,1.31,4.303,1.757v-10.919
		h4.718v11.821c0.709,0.063,1.427,0.096,2.151,0.096c0.727,0,1.443-0.033,2.152-0.096v-11.738h4.717v10.836
		c1.502-0.448,2.941-1.039,4.304-1.757v-9.162h4.718v5.901c2.756-2.438,4.949-5.499,6.355-8.964H68.445z"/>
	<g>
		<path d="M73.252,366.807l2.422,7.172l2.43-7.223c0.127-0.38,0.221-0.644,0.285-0.792c0.063-0.148,0.168-0.282,0.313-0.401
			c0.146-0.119,0.345-0.179,0.599-0.179c0.184,0,0.355,0.046,0.514,0.139c0.158,0.093,0.282,0.215,0.372,0.369
			c0.091,0.153,0.136,0.308,0.136,0.463c0,0.107-0.016,0.223-0.045,0.347s-0.064,0.246-0.109,0.365
			c-0.043,0.119-0.087,0.242-0.131,0.368l-2.59,6.99c-0.093,0.268-0.186,0.522-0.277,0.763c-0.093,0.241-0.199,0.452-0.321,0.635
			s-0.283,0.332-0.485,0.449c-0.201,0.117-0.449,0.175-0.74,0.175c-0.292,0-0.539-0.058-0.74-0.171
			c-0.203-0.114-0.365-0.265-0.489-0.453c-0.124-0.187-0.232-0.4-0.325-0.638c-0.092-0.238-0.185-0.492-0.277-0.759l-2.546-6.931
			c-0.044-0.126-0.089-0.25-0.135-0.372s-0.085-0.253-0.117-0.394c-0.031-0.141-0.048-0.26-0.048-0.357c0-0.248,0.1-0.475,0.3-0.679
			c0.199-0.204,0.45-0.307,0.751-0.307c0.37,0,0.632,0.113,0.785,0.339C72.934,365.949,73.091,366.311,73.252,366.807z"/>
		<path d="M86.458,365.384c1.108,0,2.062,0.225,2.856,0.675c0.795,0.45,1.397,1.09,1.806,1.919c0.409,0.83,0.613,1.804,0.613,2.922
			c0,0.827-0.112,1.579-0.336,2.254c-0.224,0.676-0.56,1.263-1.007,1.759s-0.997,0.875-1.648,1.138
			c-0.652,0.263-1.398,0.394-2.24,0.394c-0.837,0-1.586-0.135-2.248-0.405c-0.661-0.27-1.213-0.65-1.656-1.142
			c-0.442-0.491-0.776-1.083-1.003-1.773c-0.226-0.691-0.339-1.438-0.339-2.24c0-0.822,0.117-1.576,0.354-2.262
			s0.578-1.27,1.025-1.751c0.447-0.482,0.992-0.85,1.635-1.105C84.911,365.512,85.641,365.384,86.458,365.384z M89.537,370.885
			c0-0.783-0.127-1.461-0.379-2.036c-0.254-0.574-0.615-1.008-1.084-1.302c-0.47-0.294-1.008-0.441-1.616-0.441
			c-0.433,0-0.833,0.082-1.2,0.244c-0.367,0.163-0.684,0.4-0.949,0.711c-0.265,0.312-0.474,0.709-0.627,1.193
			c-0.153,0.484-0.23,1.027-0.23,1.63c0,0.608,0.077,1.158,0.23,1.649c0.153,0.492,0.369,0.899,0.649,1.222
			c0.28,0.324,0.601,0.565,0.963,0.726s0.761,0.241,1.193,0.241c0.554,0,1.063-0.139,1.528-0.416
			c0.465-0.277,0.834-0.705,1.109-1.284C89.399,372.444,89.537,371.732,89.537,370.885z"/>
		<path d="M99.963,367.354H97.6v7.771c0,0.448-0.1,0.78-0.299,0.996c-0.2,0.216-0.458,0.325-0.773,0.325
			c-0.322,0-0.583-0.109-0.785-0.329c-0.201-0.219-0.303-0.549-0.303-0.992v-7.771h-2.363c-0.37,0-0.645-0.082-0.824-0.245
			c-0.181-0.163-0.271-0.378-0.271-0.646c0-0.277,0.093-0.496,0.28-0.657s0.459-0.241,0.814-0.241h6.887
			c0.375,0,0.653,0.083,0.836,0.248c0.183,0.166,0.273,0.382,0.273,0.649s-0.092,0.483-0.277,0.646
			C100.61,367.272,100.333,367.354,99.963,367.354z"/>
		<path d="M109.404,367.237h-4.881v2.626h4.494c0.331,0,0.578,0.074,0.741,0.223s0.244,0.344,0.244,0.587s-0.08,0.441-0.241,0.595
			c-0.16,0.153-0.408,0.229-0.744,0.229h-4.494v3.043h5.049c0.341,0,0.598,0.079,0.77,0.237c0.174,0.158,0.26,0.369,0.26,0.631
			c0,0.253-0.086,0.458-0.26,0.616c-0.172,0.158-0.429,0.237-0.77,0.237h-5.888c-0.472,0-0.812-0.104-1.018-0.313
			c-0.207-0.209-0.311-0.547-0.311-1.015v-8.04c0-0.312,0.046-0.566,0.139-0.763c0.093-0.197,0.237-0.34,0.435-0.431
			c0.197-0.09,0.448-0.135,0.755-0.135h5.72c0.346,0,0.603,0.077,0.771,0.23c0.167,0.153,0.251,0.354,0.251,0.602
			c0,0.253-0.084,0.456-0.251,0.609C110.007,367.161,109.75,367.237,109.404,367.237z"/>
	</g>
</g>
<rect x="682.32" y="117.193" width="33.395" height="8.75"/>
<rect x="682.32" y="133.22" width="33.395" height="8.75"/>
<rect x="707.945" y="117.863" fill="#FFFFFF" width="6.697" height="7.411"/>
<rect x="698.928" y="134.099" fill="#FFFFFF" width="15.715" height="6.869"/>
<g>
	<path d="M675.878,121.969l-0.959,3.551l-0.456,0.003l-0.759-1.706l0.595-1.104h-1.24l0.62,1.077l-0.665,1.745l-0.584,0.005
		l-0.797-3.409c-2.938,0.327-3.918,3.918-3.918,3.918h11.918C679.307,122.785,675.878,121.969,675.878,121.969z"/>
	<circle cx="673.591" cy="118.291" r="3.29"/>
</g>
<g>
	<path d="M675.878,138.398l-0.959,3.551l-0.456,0.004l-0.759-1.706l0.595-1.104h-1.24l0.62,1.077l-0.665,1.745l-0.584,0.005
		l-0.797-3.408c-2.938,0.326-3.918,3.918-3.918,3.918h11.918C679.307,139.214,675.878,138.398,675.878,138.398z"/>
	<circle cx="673.591" cy="134.72" r="3.29"/>
</g>
<g>
	<g>
		<g>
			<rect x="318.46" y="360.74" fill="#010101" width="1.754" height="11.96"/>
			<rect x="346.525" y="361.059" fill="#010101" width="1.754" height="11.96"/>
		</g>
		<path fill="#010101" d="M317.503,347.026c0,0,13.235,4.306,31.893,0v15.15c0,0-22.325,2.551-32.053-0.32L317.503,347.026z"/>
	</g>
	<path fill="#010101" d="M328.593,394.935c0.052-3.033,0.043-6.065,0.022-9.094c0.117-0.875-0.726-1.333-1.201-1.916
		c-3.181-3.36-6.553-6.546-9.575-10.046l0,0c-1.263-1.529,1.365-3.443,2.628-2.129c2.883,2.723,5.652,5.58,8.368,8.466
		c2.777-0.018,5.55,0.029,8.327-0.008c0.649,0.103,1.063-0.47,1.486-0.857c2.479-2.479,4.925-4.995,7.4-7.479
		c1.327-1.567,4.047,0.475,2.785,2.155c-3.449,3.747-7.139,7.285-10.563,11.05c-0.243,3.304-0.02,6.629-0.098,9.948"/>
	<path fill="#010101" d="M331.813,372.589c2.247-1.154,5.298,0.901,4.982,3.438c0.039,2.602-3.199,4.254-5.353,2.914
		C328.969,377.691,329.199,373.536,331.813,372.589L331.813,372.589z"/>
</g>
<g>
	<g>
		<circle fill="#010101" cx="336.2" cy="232.562" r="5.618"/>
		<path fill="#010101" d="M345.822,247.35c0.137-0.374,0.209-0.76,0.209-1.157c0-3.103-4.401-5.618-9.831-5.618
			s-9.831,2.515-9.831,5.618c0,0.396,0.072,0.783,0.209,1.157H345.822z"/>
		<path fill="#010101" d="M350.865,251.15c0,0.776-0.629,1.404-1.405,1.404h-26.52c-0.775,0-1.404-0.628-1.404-1.404l0,0
			c0-0.776,0.629-1.404,1.404-1.404h26.52C350.236,249.746,350.865,250.375,350.865,251.15L350.865,251.15z"/>
		<rect x="324.261" y="251.646" fill="#010101" width="23.877" height="22.224"/>
		<path fill="#010101" d="M350.823,273.622c0,0.73-0.592,1.322-1.321,1.322h-26.603c-0.73,0-1.322-0.592-1.322-1.322l0,0
			c0-0.73,0.592-1.322,1.322-1.322h26.603C350.231,272.3,350.823,272.892,350.823,273.622L350.823,273.622z"/>
	</g>
	<polygon fill="#FFFFFF" points="336.2,256.018 337.549,260.17 341.916,260.17 338.383,262.737 339.732,266.889 336.2,264.323 
		332.667,266.889 334.017,262.737 330.485,260.17 334.851,260.17 	"/>
</g>
<g>
	<circle fill="#010101" cx="206.382" cy="367.844" r="7.818"/>
	<path fill="#010101" d="M212.836,395.026v-10.091c0-4.017-3.256-7.273-7.272-7.273s-7.273,3.256-7.273,7.273v10.091H212.836z"/>
	<rect x="217.473" y="347.026" fill="#010101" width="16.636" height="25.273"/>
	<rect x="224.564" y="372.117" fill="#010101" width="2.182" height="7.636"/>
	<rect x="224.746" y="381.299" fill="#010101" width="2" height="11.272"/>
	<path fill="#010101" d="M218.43,387.301c1.404,1.404,1.536,3.551,0.293,4.793l0,0c-1.242,1.242-3.389,1.111-4.792-0.293
		l-7.265-7.265c-1.405-1.405-1.536-3.55-0.293-4.793l0,0c1.242-1.242,3.388-1.111,4.792,0.293L218.43,387.301z"/>
	<path fill="#010101" d="M219.129,392.081c-1.621,1.008-3.689,0.616-4.616-0.876l0,0c-0.928-1.492-0.366-3.52,1.255-4.527
		l8.388-5.216c1.621-1.009,3.688-0.616,4.616,0.876l0,0c0.928,1.492,0.366,3.52-1.255,4.527L219.129,392.081z"/>
</g>
<g>
	<path d="M455.894,374.378c-1.251-0.875-2.499-1.469-3.728-2.124c-0.055-0.03-0.104-0.063-0.158-0.093l0.557-1.044l-2.014-1.007
		l-0.427,0.896c-1.183-0.779-2.295-1.613-3.349-2.516l-2.24,5.302l-0.088-0.042l-0.127,0.551l-4.684,11.079
		c0,0-0.338,1.203,0.246,2.432c-0.062,0.562-0.016,1.746,1.245,2.532c-0.554,0.866-1.749,3.586,2.171,6.944
		c0,0,4.326,3.994,1.344,7.148c0,0-0.066,1.202,1.638,0.775c0,0,2.812-4.089-1.448-8.52c0,0-4.422-3.17-2.438-5.842
		c1.793,0.457,2.677-0.264,2.677-0.264l0.215-0.361c0.989-0.14,1.487-0.544,1.487-0.544l6.271-10.522
		c0.005,0,0.01,0.002,0.014,0.002l0.615-1.045l-0.006-0.003L455.894,374.378z"/>
	<g>
		<path opacity="0.17" fill="#DA1F26" d="M459.092,380.614l-17.604-8.487c-2.797-1.232-3.068-2.869-3.02-3.645
			c-0.088,0.325-0.532,2.498,2.893,4.035l17.225,8.464c1.346,0.7,2.563,0.198,3.422-0.448
			C461.198,380.966,460.187,381.171,459.092,380.614z"/>
	</g>
	<path d="M469.279,368.296l-7.251-15.203l-5.06,0.556l-0.062-0.095l-7.347,0.908l-4.045,0.444c0,0-0.676,0.05-1.522,0.296
		c0.024-0.012,0.048-0.029,0.073-0.041c-0.223,0.066-0.457,0.152-0.692,0.248c-0.026,0.01-0.053,0.023-0.079,0.033
		c-0.082,0.034-0.163,0.067-0.245,0.106c-0.974,0.438-1.937,1.176-2.298,2.395l-0.027,0.042l-0.029,0.134
		c-0.002,0.006-0.004,0.012-0.006,0.018c0,0-0.031,0.091-0.049,0.236l-2.221,10.129c0,0-0.399,1.179,0.625,2.458
		c0.037,0.05,0.063,0.099,0.104,0.149l0.006-0.021c0.445,0.509,1.115,1.028,2.145,1.49l17.225,8.464
		c0.424,0.221,0.834,0.313,1.226,0.328l-0.007,0.01c0.031,0,0.063-0.004,0.094-0.005c0.082,0.001,0.164-0.004,0.245-0.011
		c0.017-0.001,0.032-0.002,0.048-0.004c1.81-0.183,3.107-2.088,3.107-2.088l5.648-7.069l-0.014-0.007
		C469.201,371.719,470.117,370.144,469.279,368.296z"/>
	<path fill="#FFFFFF" d="M452.654,354.032l-2.15,5.086c0.262,1.693,1.816,3.593,4.146,4.815c2.521,1.325,5.185,1.453,6.683,0.473
		l2.766-4.64L452.654,354.032z"/>
	<circle cx="461.967" cy="349.264" r="11.733"/>
	<path opacity="0.25" fill="#010101" d="M468.463,356.719c1.078-0.065,1.887-0.161,2.897-0.386c0.399-0.709,0.971-1.513,1.219-2.298
		c-0.787,0.146-1.6,0.246-2.429,0.295c-8.949,0.53-16.547-4.928-17.184-12.327c-0.391,0.377-0.817,0.963-1.168,1.53
		c-0.229,0.37-0.398,0.729-0.592,1.028v0.001C452.178,351.999,459.388,357.255,468.463,356.719z"/>
	<path fill="#FFFFFF" d="M472.225,357.51c1.516-0.089,2.652-0.227,4.074-0.545c0.563-0.996,1.361-2.13,1.715-3.237
		c-1.11,0.205-2.251,0.345-3.414,0.414c-12.578,0.746-23.26-6.956-24.158-17.391c-0.549,0.531-1.15,1.358-1.642,2.158
		c-0.321,0.521-0.558,1.028-0.831,1.449v0C449.334,350.848,459.47,358.264,472.225,357.51z"/>
</g>
<g>
	<path fill="#010101" d="M590.668,375.977c0,0.96-0.779,1.738-1.738,1.738h-44.524c-0.96,0-1.737-0.778-1.737-1.738v-29.214
		c0-0.96,0.777-1.738,1.737-1.738h44.524c0.959,0,1.738,0.778,1.738,1.738V375.977z"/>
	<circle fill="#FFFFFF" cx="549.205" cy="373.577" r="1.49"/>
	<rect x="546.143" y="349.659" fill="#FFFFFF" stroke="#010101" stroke-miterlimit="10" width="40.057" height="19.779"/>
	<rect x="562.219" y="380.425" fill="#010101" width="8.193" height="3.228"/>
	<path fill="#010101" d="M583.26,383.652c0,0.686-0.555,1.241-1.24,1.241h-31.47c-0.686,0-1.241-0.556-1.241-1.241l0,0
		c0-0.686,0.556-1.241,1.241-1.241h31.47C582.705,382.411,583.26,382.967,583.26,383.652L583.26,383.652z"/>
	<rect x="549.785" y="358.514" fill="#010101" width="3.724" height="8.772"/>
	<rect x="555.908" y="353.631" fill="#010101" width="3.725" height="13.573"/>
	<rect x="562.198" y="360.832" fill="#010101" width="3.724" height="6.373"/>
	<path fill="#010101" d="M583.16,367.039c0-0.042,0-0.104,0-0.217c0-1.595-2.989-3.151-5.65-3.978
		c-0.121-0.038-0.888-0.362-0.408-1.728h-0.007c1.249-1.207,2.202-3.149,2.202-5.062c0-2.939-2.083-4.48-4.504-4.48
		c-2.424,0-4.495,1.541-4.495,4.48c0,1.919,0.949,3.87,2.205,5.074c0.489,1.205-0.386,1.652-0.569,1.715
		c-2.536,0.86-5.511,2.429-5.511,3.978c0,0.112,0,0.175,0,0.217H583.16z"/>
</g>
<g>
	<path fill="#010101" d="M336.843,123.909l4.745-2.72c0,0,2.466-1.139,4.364-0.316l10.184,2.151v7.401c0,0-4.871,4.364-12.145,0.885
		c0,0-7.463,2.72-7.969,2.783c-0.506,0.063-2.341-3.542-2.341-3.542l8.792-3.859c0,0,0.506-0.379,0.232-1.096
		c0,0-0.316-0.527-1.033-0.337l-2.341,1.096L336.843,123.909z"/>
	<ellipse fill="#010101" cx="334.787" cy="132.4" rx="2.193" ry="2.13"/>
	<rect x="317.865" y="139.568" fill="#010101" width="31.775" height="6.268"/>
	<path fill="#010101" d="M319.25,148.897v19.677h29.006v-19.677H319.25z M337.777,164.381l-4.024-2.116l-4.023,2.116l0.769-4.481
		l-3.256-3.173l4.5-0.654l2.011-4.077l2.012,4.077l4.499,0.654l-3.255,3.173L337.777,164.381z"/>
	<g>
		<path fill="#010101" d="M325.568,137.48h2.369l-3.137-3.076l9.208-9.391l9.195,9.014l-3.385,3.453h2.323l2.595-2.646
			c0.448-0.458,0.441-1.193-0.017-1.642l-9.904-9.711c-0.458-0.449-1.192-0.441-1.643,0.017l-9.903,10.102
			c-0.45,0.458-0.442,1.192,0.016,1.641L325.568,137.48z"/>
		<path fill="#010101" d="M337.796,139.542l-3.801,3.877l-3.955-3.877h-2.368l5.518,5.41c0.457,0.448,1.192,0.441,1.641-0.018
			l5.288-5.392H337.796z"/>
	</g>
</g>
<text transform="matrix(1 0 0 1 272.5977 68.9966)" font-family="'MyriadPro-Regular'" font-size="72">Election</text>
</svg>
