<?xml version="1.0" encoding="utf-8"?>
<!-- Generator: Adobe Illustrator 15.1.0, SVG Export Plug-In . SVG Version: 6.00 Build 0)  -->
<!DOCTYPE svg PUBLIC "-//W3C//DTD SVG 1.1//EN" "http://www.w3.org/Graphics/SVG/1.1/DTD/svg11.dtd">
<svg version="1.1" id="Layer_1" xmlns="http://www.w3.org/2000/svg" xmlns:xlink="http://www.w3.org/1999/xlink" x="0px" y="0px"
	 width="397px" height="534px" viewBox="0 0 397 534" enable-background="new 0 0 397 534" xml:space="preserve">
<text transform="matrix(1 0 0 1 40.3008 373.7949)" font-family="'MyriadPro-Regular'" font-size="12">Cool</text>
<text transform="matrix(1 0 0 1 37.9312 155.4614)" font-family="'MyriadPro-Regular'" font-size="12">Smile</text>
<text transform="matrix(1 0 0 1 119.2681 157.4614)" font-family="'MyriadPro-Regular'" font-size="12">Sad</text>
<text transform="matrix(1 0 0 1 184.6938 157.1279)" font-family="'MyriadPro-Regular'" font-size="12">Laugh</text>
<text transform="matrix(1 0 0 1 333.8252 156.4614)" font-family="'MyriadPro-Regular'" font-size="12">Cheeky</text>
<text transform="matrix(1 0 0 1 263.4717 156.1279)" font-family="'MyriadPro-Regular'" font-size="12">Wink</text>
<text transform="matrix(1 0 0 1 187.6758 265.4619)" font-family="'MyriadPro-Regular'" font-size="12">Devil</text>
<text transform="matrix(1 0 0 1 261.2998 266.7949)" font-family="'MyriadPro-Regular'" font-size="12">Angel</text>
<text transform="matrix(1 0 0 1 329.5112 268.1279)" font-family="'MyriadPro-Regular'" font-size="12">Question</text>
<text transform="matrix(1 0 0 1 24.1431 484.4609)" font-family="'MyriadPro-Regular'" font-size="12">Speechless</text>
<text transform="matrix(1 0 0 1 108.582 483.7949)" font-family="'MyriadPro-Regular'" font-size="12">Worried</text>
<text transform="matrix(1 0 0 1 104.7002 373.1279)" font-family="'MyriadPro-Regular'" font-size="12">Surprised</text>
<text transform="matrix(1 0 0 1 185.168 373.1279)" font-family="'MyriadPro-Regular'" font-size="12">Angry</text>
<text transform="matrix(1 0 0 1 259.4756 374.4609)" font-family="'MyriadPro-Regular'" font-size="12">Sleepy</text>
<text transform="matrix(1 0 0 1 343.9648 375.7939)" font-family="'MyriadPro-Regular'" font-size="12">Cry</text>
<text transform="matrix(1 0 0 1 42.251 263.46)" font-family="'MyriadPro-Regular'" font-size="12">Kiss</text>
<text transform="matrix(1 0 0 1 116.688 265.46)" font-family="'MyriadPro-Regular'" font-size="12">Love</text>
<g>
	<g>
		<path d="M51.719,95.168c10.935,0,19.832,8.897,19.832,19.832s-8.896,19.832-19.832,19.832S31.887,125.935,31.887,115
			S40.784,95.168,51.719,95.168 M51.719,91.5c-12.979,0-23.5,10.521-23.5,23.5s10.521,23.5,23.5,23.5s23.5-10.521,23.5-23.5
			S64.697,91.5,51.719,91.5L51.719,91.5z"/>
	</g>
	<path d="M51.719,124.955c-4.965,0-9.545-1.604-13.291-4.299c2.939,4.181,7.792,6.92,13.291,6.92s10.351-2.739,13.291-6.92
		C61.264,123.351,56.684,124.955,51.719,124.955z"/>
	<circle cx="44.382" cy="111.332" r="3.668"/>
	<circle cx="59.055" cy="111.332" r="3.668"/>
</g>
<g>
	<g>
		<path d="M276.06,200.746c11.167,0,20.253,9.086,20.253,20.254s-9.086,20.254-20.253,20.254s-20.254-9.086-20.254-20.254
			S264.892,200.746,276.06,200.746 M276.06,197c-13.255,0-24,10.745-24,24s10.745,24,24,24s24-10.745,24-24S289.314,197,276.06,197
			L276.06,197z"/>
	</g>
	<path d="M276.06,210.405c-3.746,0-22.429-0.301-22.429-6.209c0-2.876,3.555-4.389,12.679-5.401
		c1.033-0.101,1.954,0.625,2.069,1.655c0.113,1.028-0.627,1.953-1.655,2.068c-5.301,0.588-7.68,1.282-8.726,1.729
		c2.125,1.019,8.308,2.41,18.062,2.41c9.753,0,15.938-1.392,18.063-2.41c-1.046-0.448-3.43-1.144-8.746-1.73
		c-1.028-0.114-1.77-1.039-1.656-2.067c0.114-1.03,1.044-1.756,2.068-1.657c9.139,1.01,12.7,2.524,12.7,5.403
		C298.488,210.104,279.805,210.405,276.06,210.405z"/>
	<path d="M276.06,231.167c-5.071,0-9.748-1.639-13.573-4.391c3.002,4.27,7.958,7.067,13.573,7.067s10.571-2.798,13.573-7.067
		C285.808,229.528,281.13,231.167,276.06,231.167z"/>
	<circle cx="268.567" cy="217.254" r="3.746"/>
	<circle cx="283.552" cy="217.254" r="3.747"/>
</g>
<g>
	<g>
		<path d="M128.52,311.746c11.168,0,20.254,9.086,20.254,20.254s-9.086,20.254-20.254,20.254c-11.167,0-20.253-9.086-20.253-20.254
			S117.353,311.746,128.52,311.746 M128.52,308c-13.255,0-24,10.745-24,24s10.745,24,24,24s24-10.745,24-24S141.775,308,128.52,308
			L128.52,308z"/>
	</g>
	<g>
		<path d="M128.52,338.949c2.4,0,3.947,2.514,4.236,3.457c-0.273,0.387-1.436,1.313-4.236,1.313c-2.788,0-3.937-0.91-4.229-1.32
			C124.604,341.436,126.16,338.949,128.52,338.949 M128.52,335.953c-4.635,0-7.271,4.846-7.271,6.523c0,1.677,2.137,4.24,7.271,4.24
			s7.271-2.518,7.271-4.24C135.792,340.753,133.155,335.953,128.52,335.953L128.52,335.953z"/>
	</g>
	<path d="M139.759,324.507c0,3.104-1.68,5.62-3.747,5.62c-2.066,0-3.746-2.516-3.746-5.62c0-3.104,1.68-5.619,3.746-5.619
		C138.08,318.888,139.759,321.403,139.759,324.507z"/>
	<ellipse cx="121.027" cy="324.507" rx="3.747" ry="5.62"/>
</g>
<g>
	<g>
		<path d="M352.365,94.746c11.167,0,20.254,9.086,20.254,20.254s-9.086,20.254-20.254,20.254s-20.254-9.086-20.254-20.254
			S341.197,94.746,352.365,94.746 M352.365,91c-13.255,0-24,10.745-24,24s10.745,24,24,24s24-10.745,24-24S365.62,91,352.365,91
			L352.365,91z"/>
	</g>
	<path d="M352.365,120.824c-6.512,0-12.863-0.048-12.863-0.048s5.065,3.32,12.863,3.32c8.464,0,12.863-3.32,12.863-3.32
		S358.877,120.824,352.365,120.824z"/>
	<circle cx="344.872" cy="111.254" r="3.747"/>
	<circle cx="359.857" cy="111.254" r="3.747"/>
	<path d="M361.22,123.632c1.122,3.412-0.882,8.13-4.899,8.13c-6.185,0-4.537-5.702-6.131-8.98c-0.984-2.022,0.722-1.672,3.825-1.672
		C357.115,121.109,360.077,120.153,361.22,123.632z"/>
</g>
<g>
	<g>
		<path d="M128.52,94.746c11.167,0,20.254,9.086,20.254,20.254s-9.086,20.254-20.254,20.254s-20.253-9.086-20.253-20.254
			S117.353,94.746,128.52,94.746 M128.52,91c-13.255,0-24,10.745-24,24s10.745,24,24,24s24-10.745,24-24S141.775,91,128.52,91
			L128.52,91z"/>
	</g>
	<path d="M128.52,123.455c5.071,0,9.748,1.639,13.573,4.39c-3.002-4.27-7.958-7.066-13.573-7.066s-10.571,2.797-13.573,7.066
		C118.772,125.094,123.449,123.455,128.52,123.455z"/>
	<circle cx="121.027" cy="111.254" r="3.747"/>
	<circle cx="136.013" cy="111.254" r="3.746"/>
</g>
<g>
	<g>
		<path d="M276.06,94.746c11.167,0,20.253,9.086,20.253,20.254s-9.086,20.254-20.253,20.254s-20.254-9.086-20.254-20.254
			S264.892,94.746,276.06,94.746 M276.06,91c-13.255,0-24,10.745-24,24s10.745,24,24,24s24-10.745,24-24S289.314,91,276.06,91
			L276.06,91z"/>
	</g>
	<path d="M276.03,124.67c-4.882,0-8.396-0.576-10.76-2.046c2.235,2.938,5.353,5.22,10.76,5.22c6.803,0,11.528-5.438,12.942-10.759
		C285.817,121.168,280.982,124.67,276.03,124.67z"/>
	<circle cx="268.567" cy="111.254" r="3.746"/>
	<path d="M289.025,112.717c0,0.498-4.174,0.368-6.602,0.368c-2.43,0-4.403,0.013-4.403-0.719c0-1.282,3.115-2.927,5.544-2.927
		C285.993,109.439,289.025,111.577,289.025,112.717z"/>
</g>
<g>
	<g>
		<path d="M200.408,94.746c11.167,0,20.254,9.086,20.254,20.254s-9.086,20.254-20.254,20.254s-20.253-9.086-20.253-20.254
			S189.24,94.746,200.408,94.746 M200.408,91c-13.255,0-24,10.745-24,24s10.745,24,24,24s24-10.745,24-24S213.663,91,200.408,91
			L200.408,91z"/>
	</g>
	<path d="M213.52,111.254c0,1.171-3.553,0-5.62,0s-3.746,1.316-3.746,0c0-1.317,1.679-3.747,3.746-3.747
		S213.52,110.083,213.52,111.254z"/>
	<path d="M187.295,111.254c0,1.171,3.553,0,5.62,0s3.747,1.316,3.747,0c0-1.317-1.68-3.747-3.747-3.747
		S187.295,110.083,187.295,111.254z"/>
	<path d="M213.224,118.746c0,6.044-4.313,12.816-12.816,12.816s-12.816-6.772-12.816-12.816c0,0,4.123,2.17,12.816,2.17
		S213.224,118.746,213.224,118.746z"/>
</g>
<g>
	<g>
		<path d="M352.365,311.746c11.168,0,20.254,9.086,20.254,20.254s-9.086,20.254-20.254,20.254s-20.254-9.086-20.254-20.254
			S341.197,311.746,352.365,311.746 M352.365,308c-13.255,0-24,10.745-24,24s10.745,24,24,24s24-10.745,24-24
			S365.62,308,352.365,308L352.365,308z"/>
	</g>
	<g>
		<g>
			<path d="M370.906,330.739c0.041,1.416-0.717,2.945-2.385,2.945c-1.665,0-2.78-1.188-2.78-3.061c0-3.607-0.146-4.478-0.146-4.478
				S370.817,327.641,370.906,330.739z"/>
		</g>
	</g>
	<g>
		<g>
			<path d="M335.697,332.613c-0.041,1.415,0.717,2.944,2.385,2.944c1.665,0,2.781-1.187,2.781-3.061
				c0-3.606,0.146-4.478,0.146-4.478S335.786,329.514,335.697,332.613z"/>
		</g>
	</g>
	<path d="M365.477,324.507c0,1.171-3.553,0-5.62,0c-2.066,0-3.746,1.317-3.746,0c0-1.316,1.68-3.746,3.746-3.746
		C361.924,320.761,365.477,323.337,365.477,324.507z"/>
	<path d="M339.252,324.507c0,1.171,3.553,0,5.62,0c2.066,0,3.746,1.317,3.746,0c0-1.316-1.68-3.746-3.746-3.746
		C342.805,320.761,339.252,323.337,339.252,324.507z"/>
	<path d="M341.283,343.189c0-5.197,3.73-11.021,11.082-11.021s11.082,5.824,11.082,11.021c0,0-3.565-1.865-11.082-1.865
		S341.283,343.189,341.283,343.189z"/>
</g>
<g>
	<path d="M276.06,341.494c-3.425,0-5.373,1.8-5.373,1.8s1.579,1.613,5.373,1.613c3.796,0,5.372-1.613,5.372-1.613
		S279.484,341.494,276.06,341.494z"/>
	<g>
		<path d="M276.06,311.746c11.168,0,20.254,9.086,20.254,20.254s-9.086,20.254-20.254,20.254s-20.254-9.086-20.254-20.254
			S264.892,311.746,276.06,311.746 M276.06,308c-13.255,0-24,10.745-24,24s10.745,24,24,24s24-10.745,24-24S289.314,308,276.06,308
			L276.06,308z"/>
	</g>
	<path d="M289.088,332.486c0-0.968-3.5,0.509-5.536,0.509c-2.035,0-5.535-1.597-5.535-0.509c0,1.091,3.5,3.099,5.535,3.099
		C285.588,335.585,289.088,333.456,289.088,332.486z"/>
	<path d="M263.114,332.486c0-0.968,3.446,0.509,5.452,0.509c2.005,0,5.453-1.597,5.453-0.509c0,1.091-3.448,3.099-5.453,3.099
		C266.561,335.585,263.114,333.456,263.114,332.486z"/>
</g>
<g>
	<g>
		<path d="M51.719,312.039c11.006,0,19.961,8.954,19.961,19.961s-8.955,19.961-19.961,19.961S31.757,343.007,31.757,332
			S40.712,312.039,51.719,312.039 M51.719,308.347c-13.063,0-23.654,10.59-23.654,23.653s10.59,23.653,23.654,23.653
			S75.373,345.063,75.373,332S64.782,308.347,51.719,308.347L51.719,308.347z"/>
	</g>
	<path d="M51.719,341.404c-3.721,0-7.047-1.731-7.047,0.403c0,2.51,3.297,2.851,7.047,2.851c6.539,0,10.938-2.229,12.781-7.895
		C61.043,341.662,57.375,341.404,51.719,341.404z"/>
	<path d="M68.334,326.78c0,7.102-5.253,8.718-8.308,8.718s-6.461-1.715-6.461-7.19c0-3.06,1.759-3.692,6.461-3.692
		C67.431,324.615,68.334,324.693,68.334,326.78z"/>
	<path d="M35.104,326.78c0,7.102,5.253,8.718,8.308,8.718s6.461-1.715,6.461-7.19c0-3.06-1.76-3.692-6.461-3.692
		C36.007,324.615,35.104,324.693,35.104,326.78z"/>
	<path d="M58.074,333.532c-0.905,0-1.638-0.733-1.638-1.639c0-2.073-2.143-3.761-4.777-3.761s-4.777,1.688-4.777,3.761
		c0,0.905-0.733,1.639-1.638,1.639c-0.905,0-1.638-0.733-1.638-1.639c0-3.88,3.612-7.038,8.053-7.038s8.053,3.158,8.053,7.038
		C59.712,332.799,58.979,333.532,58.074,333.532z"/>
	<path d="M65.507,330.17c-0.48,0-0.817-0.013-0.951-0.018c-1.018-0.047-1.804-0.911-1.758-1.928c0.046-1.019,0.893-1.85,1.927-1.761
		c1.562,0.071,6.042-0.063,8.094-1.486c0.836-0.586,1.988-0.373,2.57,0.464c0.581,0.838,0.373,1.988-0.464,2.568
		C72.143,329.941,67.537,330.17,65.507,330.17z"/>
	<path d="M37.93,330.17c-2.03,0-6.635-0.229-9.418-2.16c-0.837-0.58-1.045-1.73-0.464-2.568c0.58-0.837,1.729-1.05,2.57-0.464
		c2.051,1.423,6.538,1.56,8.094,1.486c0.999-0.089,1.88,0.74,1.927,1.761c0.046,1.017-0.74,1.881-1.758,1.928
		C38.747,330.157,38.411,330.17,37.93,330.17z"/>
</g>
<g>
	<g>
		<path d="M200.408,311.746c11.168,0,20.254,9.086,20.254,20.254s-9.086,20.254-20.254,20.254s-20.254-9.086-20.254-20.254
			S189.24,311.746,200.408,311.746 M200.408,308c-13.255,0-24,10.745-24,24s10.745,24,24,24s24-10.745,24-24
			S213.663,308,200.408,308L200.408,308z"/>
	</g>
	<g>
		<g>
			<path d="M207.384,340.806c0.304,0,0.549,0.014,0.743,0.029c-1.085,1.156-4.376,2.977-7.72,2.977c-3.209,0-6.426-1.747-7.621-2.92
				c0.211-0.018,0.473-0.03,0.796-0.03c0.915,0,1.978,0.091,3.103,0.188c1.229,0.105,2.501,0.214,3.723,0.214
				c1.266,0,2.577-0.125,3.845-0.245C205.394,340.908,206.473,340.806,207.384,340.806 M207.384,337.81
				c-2.131,0-4.754,0.457-6.977,0.457c-2.17,0-4.724-0.402-6.825-0.402c-2.387,0-4.192,0.52-4.192,2.739
				c0,2.652,5.883,6.204,11.018,6.204s11.018-3.448,11.018-6.204C211.425,338.35,209.695,337.81,207.384,337.81L207.384,337.81z"/>
		</g>
	</g>
	<path d="M213.154,329.748c-0.602,2.252-2.468,4.125-4.792,4.125c-3.012,0-4.967-3.887-3.244-5.149
		c2.08-1.523,3.865-2.782,5.241-3.719C212.869,323.296,213.772,327.435,213.154,329.748z"/>
	<path d="M187.662,329.748c0.602,2.252,2.468,4.125,4.792,4.125c3.012,0,4.967-3.887,3.244-5.149
		c-2.08-1.523-3.865-2.782-5.241-3.719C187.947,323.296,187.043,327.435,187.662,329.748z"/>
	<path d="M196.662,326.006c-0.414,0-0.823-0.171-1.12-0.504c-0.015-0.016-2.135-2.31-6.943-4.293
		c-0.765-0.314-1.131-1.19-0.816-1.955c0.316-0.765,1.193-1.131,1.958-0.814c5.508,2.269,7.94,4.959,8.041,5.072
		c0.551,0.619,0.494,1.564-0.124,2.115C197.372,325.881,197.016,326.006,196.662,326.006z"/>
	<path d="M204.154,326.004c-0.395,0-0.79-0.156-1.085-0.465c-0.568-0.599-0.547-1.544,0.05-2.114
		c0.104-0.101,2.627-2.484,7.892-4.956c0.754-0.353,1.643-0.029,1.994,0.719c0.351,0.748,0.029,1.642-0.721,1.992
		c-4.774,2.245-7.074,4.393-7.098,4.414C204.897,325.868,204.525,326.004,204.154,326.004z"/>
	<rect x="200.408" y="339.492" width="1.873" height="5.122"/>
	<rect x="194.789" y="339.492" width="1.873" height="3.747"/>
	<rect x="206.027" y="339.492" width="1.873" height="3.747"/>
</g>
<g>
	<path d="M213.296,213.733c0,0,0.154,5.865-1.503,7.523c-1.664,1.663-7.536,1.509-7.523,1.505c0.011-0.001-0.158-5.862,1.502-7.522
		C207.433,213.577,213.296,213.733,213.296,213.733z"/>
	<path d="M220.143,208.439l-5.162-5.163c0,0,5.851-1.583,9.427-6.258C224.368,204.253,220.143,208.439,220.143,208.439z"/>
	<path d="M187.52,213.733c0,0-0.154,5.865,1.503,7.523c1.664,1.663,7.536,1.509,7.523,1.505c-0.011-0.001,0.158-5.862-1.502-7.522
		C193.383,213.577,187.52,213.733,187.52,213.733z"/>
	<path d="M180.673,208.439l5.162-5.163c0,0-5.851-1.583-9.427-6.258C176.448,204.253,180.673,208.439,180.673,208.439z"/>
	<g>
		<path d="M200.408,200.909c11.099,0,20.129,9.03,20.129,20.13c0,11.099-9.03,20.129-20.129,20.129s-20.129-9.03-20.129-20.129
			C180.278,209.939,189.309,200.909,200.408,200.909 M200.408,197.186c-13.173,0-23.853,10.68-23.853,23.854
			c0,13.173,10.679,23.853,23.853,23.853s23.853-10.68,23.853-23.853C224.26,207.865,213.581,197.186,200.408,197.186
			L200.408,197.186z"/>
	</g>
	<g>
		<g>
			<path d="M207.342,229.791c0.302,0,0.545,0.013,0.738,0.029c-1.078,1.148-4.349,2.957-7.672,2.957
				c-3.189,0-6.387-1.735-7.574-2.901c0.209-0.018,0.469-0.03,0.791-0.03c0.909,0,1.965,0.091,3.083,0.187
				c1.222,0.105,2.485,0.213,3.7,0.213c1.258,0,2.562-0.123,3.821-0.243C205.364,229.893,206.437,229.791,207.342,229.791
				 M207.342,226.813c-2.118,0-4.725,0.455-6.934,0.455c-2.156,0-4.694-0.4-6.783-0.4c-2.373,0-4.167,0.517-4.167,2.722
				c0,2.637,5.847,6.167,10.95,6.167s10.95-3.427,10.95-6.167C211.358,227.35,209.638,226.813,207.342,226.813L207.342,226.813z"/>
		</g>
	</g>
	<rect x="200.408" y="228.485" width="1.862" height="5.091"/>
	<rect x="194.823" y="228.485" width="1.862" height="3.724"/>
	<rect x="205.993" y="228.485" width="1.862" height="3.724"/>
</g>
<g>
	<g>
		<path d="M51.719,200.746c11.167,0,20.254,9.086,20.254,20.254s-9.086,20.254-20.254,20.254S31.465,232.168,31.465,221
			S40.551,200.746,51.719,200.746 M51.719,197c-13.255,0-24,10.745-24,24s10.745,24,24,24s24-10.745,24-24S64.974,197,51.719,197
			L51.719,197z"/>
	</g>
	<path d="M66.62,217.74c0-0.968-3.5,0.509-5.536,0.509c-2.036,0-5.535-1.598-5.535-0.509c0,1.09,3.5,3.099,5.535,3.099
		C63.121,220.839,66.62,218.71,66.62,217.74z"/>
	<path d="M36.9,217.74c0-0.968,3.446,0.509,5.453,0.509c2.005,0,5.453-1.598,5.453-0.509c0,1.09-3.448,3.099-5.453,3.099
		C40.346,220.839,36.9,218.71,36.9,217.74z"/>
	<path d="M54.119,226.824c-0.931,0-1.226,1.391-2.329,1.391c-1.165,0-1.377-1.332-2.354-1.332c-2.737,0.006-4.475,1.877-6.931,2.475
		c4.33,1.877,5.266,4.497,9.214,4.497s4.549-2.753,9.214-4.337C57.338,229.361,56.863,226.83,54.119,226.824z"/>
</g>
<g>
	<g>
		<path d="M128.52,200.746c11.167,0,20.254,9.086,20.254,20.254s-9.086,20.254-20.254,20.254s-20.253-9.086-20.253-20.254
			S117.353,200.746,128.52,200.746 M128.52,197c-13.255,0-24,10.745-24,24s10.745,24,24,24s24-10.745,24-24S141.775,197,128.52,197
			L128.52,197z"/>
	</g>
	<path d="M128.52,231.167c-5.071,0-9.748-1.639-13.573-4.391c3.002,4.27,7.958,7.067,13.573,7.067s10.571-2.798,13.573-7.067
		C138.268,229.528,133.591,231.167,128.52,231.167z"/>
	<path d="M140.077,213.564c-1.708,0.011-3.117,1.982-3.117,1.982s-1.429-1.955-3.132-1.946c-1.939,0.011-3.286,1.301-3.272,3.31
		c0.018,3.361,4.118,5.018,6.442,7.733l0.033-0.001c2.29-2.741,6.375-4.443,6.356-7.81
		C143.377,214.82,142.007,213.555,140.077,213.564z"/>
	<path d="M123.219,213.564c-1.708,0.011-3.117,1.982-3.117,1.982s-1.429-1.955-3.131-1.946c-1.939,0.011-3.286,1.301-3.273,3.31
		c0.019,3.361,4.118,5.018,6.443,7.733l0.033-0.001c2.291-2.741,6.375-4.443,6.357-7.81
		C126.519,214.82,125.149,213.555,123.219,213.564z"/>
</g>
<g>
	<path d="M352.421,244.972c-13.203,0-23.943-10.741-23.943-23.943c0-2.989,0.544-5.905,1.62-8.67
		c0.373-0.962,1.456-1.443,2.419-1.064c0.962,0.374,1.439,1.457,1.065,2.419c-0.906,2.33-1.366,4.792-1.366,7.315
		c0,11.142,9.064,20.206,20.206,20.206c11.141,0,20.206-9.064,20.206-20.206c0-11.141-9.065-20.206-20.206-20.206
		c-2.413,0-4.773,0.422-7.016,1.251c-0.969,0.361-2.043-0.136-2.402-1.104c-0.357-0.967,0.136-2.042,1.104-2.399
		c2.66-0.986,5.457-1.484,8.313-1.484c13.203,0,23.943,10.742,23.943,23.943C376.365,234.23,365.624,244.972,352.421,244.972z"/>
	<path d="M357.749,225.498c4.312-0.229,6.172,0.452,7.625,1.271c-0.816-1.997-3.63-3.995-8.168-3.995
		c-4.714,0-9.432,2.369-11.893,6.628C348.852,226.859,353.498,225.723,357.749,225.498z"/>
	<circle cx="348.684" cy="211.685" r="3.738"/>
	<circle cx="361.765" cy="211.685" r="3.737"/>
	<g>
		<path d="M337.13,214.395c-0.147-0.023-0.273-0.118-0.345-0.257l-0.379-0.763c-0.955-1.804-1.033-4.048-0.234-6.497
			c0.703-2.055,1.009-3.493,0.5-4.785c-0.349-0.872-0.918-1.372-1.706-1.487c-0.495-0.074-1.071,0.009-1.703,0.244
			c-1.019,0.4-2.028,1.209-2.524,2.016c-0.073,0.122-0.201,0.202-0.351,0.217c-0.035,0.007-0.073,0.004-0.109-0.004
			c-0.108-0.015-0.205-0.062-0.274-0.139l-1.519-1.662c-0.146-0.159-0.16-0.389-0.047-0.561c0.816-1.263,2.449-2.511,4.161-3.179
			c1.268-0.508,2.475-0.681,3.583-0.515c1.827,0.277,3.288,1.471,4.005,3.279c0.875,2.214,0.303,4.29-0.525,6.772
			c-0.668,1.981-0.657,3.46,0.024,4.937l0.37,0.748c0.059,0.115,0.066,0.254,0.019,0.372c-0.048,0.119-0.145,0.218-0.261,0.261
			l-2.447,0.972C337.289,214.395,337.208,214.404,337.13,214.395z M342.658,217.316c-0.361-0.894-1.062-1.479-1.914-1.602
			c-0.418-0.059-0.849-0.01-1.281,0.156c-0.609,0.241-1.086,0.683-1.334,1.241c-0.263,0.603-0.261,1.296,0.013,1.956
			c0.351,0.858,1.067,1.442,1.933,1.566c0.405,0.058,0.816,0.011,1.219-0.146C342.621,219.967,343.196,218.631,342.658,217.316z"/>
	</g>
</g>
<g>
	<g>
		<path d="M51.719,417.746c11.167,0,20.253,9.086,20.253,20.254s-9.086,20.254-20.253,20.254S31.465,449.168,31.465,438
			S40.551,417.746,51.719,417.746 M51.719,414c-13.255,0-24,10.745-24,24s10.745,24,24,24s24-10.745,24-24S64.974,414,51.719,414
			L51.719,414z"/>
	</g>
	<circle cx="44.226" cy="432.381" r="3.746"/>
	<circle cx="59.211" cy="432.381" r="3.747"/>
	
		<rect x="49.565" y="434.697" transform="matrix(0.4442 -0.8959 0.8959 0.4442 -371.2168 294.4509)" width="4.308" height="23.457"/>
	<g>
		<g>
			
				<rect x="49.563" y="434.698" transform="matrix(0.3193 0.9477 -0.9477 0.3193 458.2719 254.8937)" width="4.308" height="23.458"/>
		</g>
	</g>
</g>
<g>
	<g>
		<path d="M128.52,417.746c11.167,0,20.254,9.086,20.254,20.254s-9.087,20.254-20.254,20.254s-20.253-9.086-20.253-20.254
			S117.353,417.746,128.52,417.746 M128.52,414c-13.255,0-24,10.745-24,24s10.745,24,24,24s24-10.745,24-24S141.775,414,128.52,414
			L128.52,414z"/>
	</g>
	<ellipse cx="136.013" cy="430.507" rx="3.746" ry="5.62"/>
	<path d="M124.774,430.507c0,3.104-1.68,5.62-3.747,5.62c-2.066,0-3.746-2.516-3.746-5.62c0-3.104,1.68-5.619,3.746-5.619
		C123.094,424.888,124.774,427.403,124.774,430.507z"/>
	<path d="M117.169,448.416c0.838-0.501,2.01,0.011,2.932,0.518c0.301,0.166,0.586,0.348,0.871,0.53
		c0.34,0.217,0.678,0.433,1.046,0.616c0.832,0.414,2.235,1.055,3.056,0.768c0.191-0.068,0.295-0.43,0.314-0.76
		c0.025-0.457-0.016-0.713-0.141-1.203c-0.132-0.521-0.529-2.101,0.593-2.911c0.27-0.195,0.591-0.298,0.954-0.298
		c0.839,0,1.704,0.553,2.221,0.882c0.661,0.423,1.315,0.927,2.014,1.544c0.02,0.012,0.063,0.029,0.115,0.056
		c0.107,0.05,0.164,0.063,0.226,0.063c0.089-0.016,0.229-0.125,0.372-0.344c0.479-0.732,0.664-1.731,0.813-2.693
		c0.099-0.64,0.152-1.17,0.171-1.67c0.023-0.471,0.235-0.935,0.406-1.309l0.083-0.184c0.164-0.371,0.382-0.732,0.669-1.102
		c0.456-0.575,1.066-0.949,1.725-1.063c1.42-0.246,2.587,0.645,3.329,1.282c0.635,0.55,1.234,1.219,1.831,2.047l0.275,0.247
		l-0.008,0.029c0.032,0.037,0.064,0.073,0.096,0.11c0.597,0.704,1.062,1.571,1.422,2.646c0.104,0.293,0.064,0.605-0.111,0.853
		c-0.184,0.26-0.492,0.414-0.825,0.414c-0.434,0-0.804-0.264-0.941-0.673c-0.291-0.842-0.645-1.497-1.078-2.001l-0.122-0.127
		c-0.109-0.11-0.215-0.222-0.309-0.35c-0.409-0.581-0.933-1.171-1.479-1.665c-0.801-0.725-1.405-0.998-1.894-0.821
		c-0.366,0.127-0.666,0.745-0.78,0.978c-0.159,0.335-0.306,0.665-0.327,0.973c-0.062,0.933-0.185,1.835-0.364,2.682
		c-0.229,1.06-0.574,2.251-1.409,3.063c-0.834,0.819-2.311,0.823-3.211,0.023c-0.553-0.498-1.129-0.944-1.717-1.325
		c-0.283-0.182-0.61-0.381-0.943-0.5c0.007,0.196,0.061,0.418,0.118,0.646c0.034,0.138,0.065,0.271,0.092,0.403
		c0.396,2.147-0.335,3.688-1.907,4.027c-0.244,0.051-0.5,0.077-0.764,0.077c-1.209,0-2.387-0.529-3.489-1.074
		c-0.419-0.204-0.806-0.448-1.192-0.695c-0.254-0.161-0.507-0.324-0.774-0.474c-0.273-0.15-0.996-0.414-1.012-0.418
		C118.114,450.235,115.985,449.124,117.169,448.416z"/>
</g>
<text transform="matrix(1 0 0 1 136 58)" font-family="'MyriadPro-Regular'" font-size="48">Smiley</text>
</svg>
