<?xml version="1.0" encoding="utf-8"?>
<!-- Generator: Adobe Illustrator 15.1.0, SVG Export Plug-In . SVG Version: 6.00 Build 0)  -->
<!DOCTYPE svg PUBLIC "-//W3C//DTD SVG 1.1//EN" "http://www.w3.org/Graphics/SVG/1.1/DTD/svg11.dtd">
<svg version="1.1" id="Layer_1" xmlns="http://www.w3.org/2000/svg" xmlns:xlink="http://www.w3.org/1999/xlink" x="0px" y="0px"
	 width="490.088px" height="843.536px" viewBox="0 0 490.088 843.536" enable-background="new 0 0 490.088 843.536"
	 xml:space="preserve">
<g>
	<path d="M58.095,113.588c3.093,12.599,11.346,17.209,13.816,18.333c1.09-0.82,21.062-15.838,27.101-20.381l-8.541,0.368
		l0.059,0.298c0.036,1.202-1.434,2.225-3.296,2.285c-1.858,0.063-3.401-0.859-3.442-2.059l0.03-0.232l-10.388,0.45l0.035,0.202
		c0.039,1.201-1.438,2.221-3.297,2.283c-1.858,0.062-3.398-0.857-3.438-2.062l0.015-0.133l-8.721,0.38L58.095,113.588z"/>
	
		<ellipse transform="matrix(0.9712 -0.2384 0.2384 0.9712 -26.5251 21.6195)" fill="#FFFFFF" cx="76.113" cy="120.464" rx="3.566" ry="1.968"/>
	<path d="M55.872,116.59c3.813,12.186,12.216,16.847,14.925,18.061l3.106,20.133C54.333,142.24,54.765,123.921,55.872,116.59z"/>
	<path d="M73.718,134.251l3.17,20.506l23.075-18.112l1.524-23.278l-6.74,5.072c0.251,0.214,0.462,0.47,0.609,0.772
		c0.672,1.411-0.184,3.216-1.896,4.032c-1.572,0.749-3.313,0.399-4.112-0.745l-6.549,4.928c0.377,0.243,0.688,0.567,0.889,0.982
		c0.67,1.411-0.178,3.215-1.896,4.028c-1.693,0.809-3.598,0.344-4.289-1.027L73.718,134.251z"/>
	<path fill="#FFFFFF" d="M88.237,131.784c0.256-0.139,0.506-0.252,0.76-0.339l0.013-0.008c0.969-0.46,2.015-0.425,2.771-0.003
		c0.658,0.253,1.218,0.691,1.564,1.312c0.909,1.611,0.097,3.79-1.818,4.868c-1.913,1.078-4.197,0.646-5.104-0.963
		C85.51,135.042,86.329,132.862,88.237,131.784z"/>
</g>
<g>
	<path d="M230.919,135.797c16.166,2.305,39.34,0.067,48-0.923l-0.564,8.739l-44.369,1.225L230.919,135.797z"/>
	<polygon points="277.657,154.461 237.351,154.784 234.631,146.756 278.231,145.551 	"/>
	<path d="M236.802,129.214c1.078,0.864,2.444,1.386,3.936,1.386c3.473,0,6.285-2.814,6.285-6.288c0-1.243-0.365-2.398-0.989-3.375
		l3.245-2.91l28.962,14.874c-9.724,1.021-32.063,3.01-46.691,1.023L236.802,129.214z"/>
	<path d="M238.358,120.002l0.205-0.124c2.368-1.24,5.291-0.325,6.529,2.042c1.24,2.367,0.325,5.287-2.042,6.527
		c-2.366,1.24-5.286,0.327-6.525-2.04c-0.885-1.69-0.667-3.661,0.389-5.101c-1.558-1.793-5.728-6.051-8.683-4.03l-1.092-1.598
		C231.435,112.743,236.502,117.84,238.358,120.002z"/>
</g>
<g>
	<path d="M328.197,132.547c0,0,4.771,0.18,6.729-4.094c0,0,1.8,4.094,6.426,4.094c0,0,4.648,0.146,6.648-3.869V125h-6v-7h-0.956
		c1.012,0,1.822-1.095,1.822-3.196c0-2.16-1.906-4.918-1.906-4.918s-1.904,2.809-1.904,4.969c0,2.102,0.809,3.145,1.82,3.145h-0.875
		v7h-4v-7h-1.063c1.012,0,1.822-1.095,1.822-3.196c0-2.16-1.907-4.918-1.907-4.918s-1.906,2.809-1.906,4.969
		c0,2.102,0.812,3.145,1.823,3.145H334v7h-4v-7h-1.17c1.013,0,1.823-1.095,1.823-3.196c0-2.16-1.907-4.918-1.907-4.918
		s-1.903,2.809-1.903,4.969c0,2.102,0.809,3.145,1.82,3.145H328v7h-6v3.713C322.001,129.59,324.254,132.547,328.197,132.547z"/>
	<path d="M319.001,137v-8h-0.92c1.013,0,1.823-0.657,1.823-2.759c0-2.16-1.907-4.699-1.907-4.699s-1.903,2.481-1.903,4.641
		c0,2.102,0.809,2.817,1.82,2.817h-0.913v8"/>
	<path d="M353.001,137v-7h-1.17c1.013,0,1.823-1.095,1.823-3.196c0-2.16-1.907-4.918-1.907-4.918s-1.903,2.809-1.903,4.969
		c0,2.102,0.809,3.145,1.82,3.145h-0.663v7"/>
	<path d="M321.01,146.135c0,0,4.99,0.191,6.99-4.289v-0.002v0.002c0,0.012,1.839,4.289,6.681,4.289c0,0,5.02,0.191,7.072-4.291
		c0,0,1.839,4.291,6.688,4.291c0,0,4.559,0.115,6.559-3.463V137h-7v-7.066c-1,3.195-2.89,6.311-6.487,6.311
		c-4.275,0-6.604-4.152-6.604-7.791c0,3.639-2.364,7.791-6.521,7.791c-3.7,0-6.389-3.107-6.389-6.301V137h-7v5.854
		C316.001,144.122,317.673,146.135,321.01,146.135z"/>
	<path d="M348.617,150.01c-4.478,0-6.89-4.352-6.89-8.166c0,3.814-2.542,8.166-6.897,8.166c-4.479,0-6.896-4.346-6.898-8.158
		c-0.004,3.813-2.415,8.158-6.768,8.158c-3.2,0-5.162-2.234-6.162-4.896V155h40v-10.181
		C354.001,147.614,351.851,150.01,348.617,150.01z"/>
</g>
<g>
	<path d="M432.781,139.383c0,0-0.729,6.203-4.675,6.885l4.885,8.516l0.656-5.463l5.68,1.572l-3.607-6.162l6.161-3.605
		L432.781,139.383z"/>
	<path d="M405.786,122.985c0,0-5.241,3.398-4.104,7.236l-9.801-0.615l4.608-3.004l-3.921-4.396l7.12,0.512l0.513-7.121
		L405.786,122.985z"/>
	<circle cx="417.435" cy="134.633" r="14.714"/>
	<polygon fill="#FFFFFF" points="418.327,143.104 417.825,141.071 419.744,141.911 421.525,140.805 421.319,142.889 
		422.923,144.243 420.876,144.69 420.088,146.629 419.027,144.823 416.937,144.672 	"/>
	<polygon fill="#FFFFFF" points="425.16,137.271 424.658,135.237 426.577,136.077 428.358,134.972 428.152,137.056 429.756,138.409 
		427.707,138.856 426.921,140.796 425.86,138.989 423.77,138.839 	"/>
	<polygon fill="#FFFFFF" points="422.549,126.889 422.047,124.856 423.966,125.696 425.744,124.59 425.54,126.676 427.142,128.026 
		425.095,128.475 424.305,130.417 423.244,128.608 421.156,128.458 	"/>
	<polygon fill="#FFFFFF" points="417.262,136.461 415.172,136.311 416.563,134.745 416.062,132.709 417.982,133.549 419.76,132.444 
		419.556,134.528 421.156,135.877 419.109,136.329 418.32,138.268 	"/>
	<polygon fill="#FFFFFF" points="407.095,130.794 405.005,130.644 406.396,129.078 405.895,127.042 407.815,127.882 
		409.594,126.777 409.389,128.861 410.99,130.21 408.942,130.662 408.153,132.601 	"/>
	<polygon fill="#FFFFFF" points="408.51,138.903 408.01,136.87 409.93,137.706 411.711,136.604 411.505,138.688 413.104,140.04 
		411.059,140.489 410.27,142.429 409.211,140.624 407.119,140.47 	"/>
	<polygon fill="#FFFFFF" points="414.476,124.5 413.973,122.467 415.894,123.307 417.673,122.202 417.467,124.284 419.067,125.633 
		417.021,126.084 416.232,128.024 415.174,126.217 413.085,126.067 	"/>
</g>
<path d="M73.954,419h15.135l2.993-16.501l-18.823,12.634L73.954,419z M72.616,411.451l20.287-13.563l1.004-5.506l-22.078,14.758
	L72.616,411.451z M76.252,383l-2.528-11.619L62.09,368.83l-0.815,3.776c0,0,7.289,1.649,9.188,2.062
	c0.233,1.058,1.06,4.332,1.813,8.332h-4.889l3.798,20.715l23.547-15.687L95.657,383H76.252z"/>
<g>
	<rect x="158" y="367" width="12" height="4"/>
	<path d="M169.325,391.3c0,2.422-1.963,4.383-4.373,4.383c-2.423,0-4.385-1.961-4.385-4.383c0-2.412,1.962-4.374,4.385-4.374
		C167.363,386.926,169.325,388.888,169.325,391.3"/>
	<path d="M165.063,382.785c4.038,0,7.318,3.215,7.45,7.215h5.539c-0.636-5-1.8-9.707-3.846-11.676L170.754,373H157.97l-3.455,5.324
		c-2.045,1.969-3.211,6.676-3.845,11.676h6.939C157.744,386,161.025,382.785,165.063,382.785z"/>
	<path d="M178.147,392h-5.65c-0.314,4-3.52,6.845-7.434,6.845c-3.912,0-7.117-2.845-7.435-6.845h-7.057c-1.239,12-0.13,27-0.13,27
		h27.836C178.28,419,179.387,404,178.147,392z"/>
	<g>
		<polygon fill="#FFFFFF" points="162,410 161,410 161,406.127 159.72,410 158.658,410 158,406.127 158,410 157,410 157,405 
			158.477,405 159.192,408.396 159.911,405 162,405 		"/>
		<rect x="163" y="405" fill="#FFFFFF" width="1" height="5"/>
		<polygon fill="#FFFFFF" points="169,410 165,410 165,405 167,405 167,409 169,409 		"/>
		<polygon fill="#FFFFFF" points="172.721,410 171.748,407.913 171,409.035 171,410 170,410 170,405 171,405 171,406.918 172.5,405 
			174.407,405 172.721,406.803 174.487,410 		"/>
	</g>
</g>
<path d="M255,404.953L271.66,380h-16.981c0.692-2,2.44-6.708,6.729-9.226l-1.281-2.276c-5.474,3.207-7.405,8.502-8.069,11.502H234.4
	L251,404.953v9.932L239.904,419h26.25L255,414.891V404.953z"/>
<g>
	<rect x="151" y="122" width="22" height="2"/>
	<polygon points="151.332,155 173.237,155 173.114,153 151.208,153 	"/>
	<rect x="168" y="126" width="5" height="24"/>
	<rect x="160" y="126" width="6" height="24"/>
	<rect x="153" y="126" width="6" height="24"/>
	<path d="M176,125.75l-1.429,0.24l0.247,6.465c5.264,2.154,3.833-1.915,3.833-1.915c4.546,0.957,3.354-3.592,3.354-3.592
		c6.462-1.198,1.195-6.943,1.195-6.943c0.237-7.661-5.268-3.59-5.268-3.59c0.479-3.351-4.309-3.831-4.309-3.831
		c0.239-5.507-5.507-3.353-5.507-3.353c-1.917-5.507-6.228,0-6.228,0c-6.463-4.071-6.703,5.028-6.703,5.028
		c-8.617-1.438-4.312,5.186-4.312,5.186L149.443,120H176V125.75z"/>
	<path d="M150,141h-1.176c-1.284,0-2.824-0.875-2.824-2.159v-8.351c0-1.284,1.54-2.49,2.824-2.49H150v-2h-3.501
		c-1.657,0-3.499,1.509-3.499,3.166v11c0,1.657,1.842,2.834,3.499,2.834H150V141z"/>
</g>
<g>
	
		<rect x="349.557" y="407.059" transform="matrix(0.8968 0.4424 -0.4424 0.8968 218.1518 -114.0655)" width="8.146" height="7.241"/>
	<polygon points="329.401,388.599 328.236,393.11 322.392,390.229 323.786,386.784 	"/>
	<polygon points="327.385,396.063 320.537,393.065 318.763,396.051 326.591,400.592 	"/>
	<polygon points="326.145,403.182 317.988,399.158 316.169,402.23 324.891,408.18 	"/>
	<path d="M323.541,409.686l-3.289-2.229c0,0-3.583,5.271-8.429,7.727l1.812,3.393C313.635,418.574,319.294,415.387,323.541,409.686z
		"/>
	<path d="M326.2,409.654c-0.28,1.203,0.3,2.371,1.3,2.604l0,0c0.998,0.235,2.038-0.551,2.321-1.756l5.061-21.517
		c0.282-1.203-0.3-2.37-1.297-2.606l0,0c-1-0.233-2.041,0.554-2.322,1.756L326.2,409.654z"/>
	<path d="M331.254,411.994c-0.283,1.203,0.298,2.371,1.297,2.604l0,0c1,0.234,2.041-0.552,2.321-1.755l5.062-21.518
		c0.283-1.204-0.298-2.371-1.297-2.604l0,0c-1-0.236-2.04,0.551-2.323,1.756L331.254,411.994z"/>
	<path d="M336.428,414.395c-0.283,1.203,0.298,2.371,1.297,2.605l0,0c1,0.234,2.04-0.55,2.323-1.755l5.06-21.518
		c0.283-1.203-0.298-2.371-1.298-2.605l0,0c-1-0.234-2.039,0.551-2.322,1.755L336.428,414.395z"/>
	<circle cx="323.104" cy="388.68" r="1.878"/>
	<circle cx="319.618" cy="394.541" r="1.733"/>
	<circle cx="317.166" cy="401.104" r="1.708"/>
	<path d="M346.22,396.699l-4.073,18.264c0,0,3.8,0.043,7.224-2.809l2.743-5.563C352.114,406.594,351.189,400.284,346.22,396.699z"/>
	<circle cx="312.821" cy="416.85" r="1.935"/>
</g>
<g>
	<g>
		<path d="M82.093,232.991c0.016-0.006,0.029-0.012,0.042-0.018c0.581,0.674,2.438,2.847,3.19,3.936
			c0.475,0.685,0.729,1.074,0.729,1.433c0,0.117-0.027,0.232-0.083,0.352c-0.155,0.33-0.465,0.503-1.47,0.271
			c-0.964-0.222-1.681-0.929-2.131-2.103c-0.471-1.224-0.81-2.191-1.028-2.846C81.78,233.753,81.978,233.366,82.093,232.991z"/>
		<path d="M80.625,234.277c0.227,0.65,0.566,1.672,0.967,3.016c0.132,0.437,0.195,0.847,0.195,1.229c0,0.67-0.2,1.25-0.602,1.737
			c-0.636,0.772-0.998,0.827-1.351,0.672c-0.43-0.189-0.501-0.722-0.558-1.807c-0.013-0.239-0.018-0.529-0.018-0.849
			c0-1.4,0.1-3.37,0.142-4.144C79.712,234.26,80.088,234.378,80.625,234.277z"/>
		<path d="M69.828,202.95c0.723-0.06,1.301,0.068,1.626,0.36c0.201,0.183,0.311,0.431,0.315,0.74
			c0.028,1.201,0.055,2.237,1.941,2.534c1.063,0.167,1.651,0.782,1.958,1.268c0.47,0.744,0.619,1.729,0.386,2.511
			c-0.372,1.242-0.725,2.414,0.715,3.277l0.167,0.1c1.066,0.632,2.396,1.42,2.354,4.003c-0.031,2.089,0.368,2.65,0.831,3.298
			c0.218,0.306,0.44,0.621,0.65,1.173c0.504,1.334,0.403,2.093,0.204,3.606l-0.028,0.221c-0.229,1.729,0.021,2.646,0.917,3.383
			c0.289,0.24,0.456,0.547,0.468,0.866c0.012,0.298-0.119,0.583-0.374,0.825c-0.374,0.354-0.477,0.824-0.564,1.237
			c-0.129,0.595-0.222,0.912-0.75,1.066c-0.482,0.141-0.735,0.028-1.056-0.115c-0.306-0.138-0.687-0.309-1.223-0.202
			c-0.396,0.08-0.727-0.018-0.975-0.291c-0.354-0.394-0.468-1.075-0.276-1.696c0.29-0.955-0.367-2.219-0.785-2.887
			c-0.603-0.96-1.38-1.789-1.938-2.06c-0.768-0.373-0.886-0.876-0.954-1.859c-0.08-1.118-0.818-1.649-1.473-2.118
			c-0.773-0.556-1.444-1.039-1.367-2.452c0.166-3.083-1.803-3.774-2.448-4.001l-0.107-0.04c-0.777-0.292-1.12-0.458-1.087-1.338
			c0.027-0.75-0.229-1.366-0.704-1.689c-0.442-0.301-1.025-0.317-1.64-0.045c-0.313,0.139-0.8,0.249-1.146,0.101
			c-0.381-0.163-0.652-0.577-0.646-0.984c0.026-1.549-1.068-1.581-1.949-1.607c-0.364-0.011-0.627-0.11-0.78-0.294
			c-0.182-0.22-0.239-0.6-0.167-1.07c0.145-0.903-0.392-1.249-0.817-1.527c-0.487-0.317-0.993-0.645-1.054-1.927
			c-0.021-0.392,0.402-3.177,2.62-3.289c0.884-0.045,1.487-0.499,2.072-0.938c0.72-0.54,1.398-1.049,2.679-0.978
			c1.146,0.063,1.674,0.755,2.229,1.486C68.163,202.274,68.744,203.041,69.828,202.95z"/>
	</g>
	<g>
		<path d="M94.921,225.886c0.016-0.006,0.029-0.012,0.042-0.018c0.581,0.674,2.438,2.847,3.189,3.936
			c0.476,0.685,0.729,1.074,0.729,1.433c0,0.117-0.025,0.232-0.083,0.352c-0.153,0.33-0.464,0.503-1.469,0.271
			c-0.964-0.222-1.681-0.929-2.131-2.103c-0.471-1.224-0.81-2.191-1.028-2.846C94.609,226.648,94.806,226.261,94.921,225.886z"/>
		<path d="M93.454,227.172c0.227,0.65,0.566,1.672,0.967,3.016c0.132,0.437,0.195,0.847,0.195,1.229c0,0.67-0.2,1.25-0.602,1.737
			c-0.636,0.772-0.998,0.827-1.351,0.672c-0.43-0.189-0.501-0.722-0.558-1.807c-0.013-0.239-0.019-0.529-0.019-0.849
			c0-1.4,0.101-3.37,0.143-4.144C92.541,227.155,92.917,227.273,93.454,227.172z"/>
		<path d="M82.657,195.845c0.722-0.06,1.3,0.068,1.625,0.36c0.201,0.183,0.31,0.431,0.316,0.74c0.027,1.201,0.053,2.237,1.94,2.534
			c1.063,0.167,1.651,0.782,1.958,1.268c0.469,0.744,0.62,1.729,0.385,2.511c-0.371,1.242-0.724,2.414,0.716,3.277l0.167,0.1
			c1.066,0.632,2.396,1.42,2.354,4.003c-0.032,2.089,0.367,2.65,0.831,3.298c0.218,0.306,0.441,0.621,0.65,1.173
			c0.504,1.334,0.402,2.093,0.204,3.606l-0.029,0.221c-0.229,1.729,0.021,2.646,0.917,3.383c0.291,0.24,0.457,0.547,0.469,0.866
			c0.012,0.298-0.119,0.583-0.374,0.825c-0.374,0.354-0.477,0.824-0.564,1.237c-0.129,0.595-0.222,0.912-0.75,1.066
			c-0.482,0.141-0.736,0.028-1.056-0.115c-0.307-0.138-0.687-0.309-1.224-0.202c-0.396,0.08-0.726-0.018-0.973-0.291
			c-0.354-0.394-0.469-1.075-0.278-1.696c0.291-0.955-0.366-2.219-0.784-2.887c-0.602-0.96-1.381-1.789-1.938-2.06
			c-0.769-0.373-0.887-0.876-0.955-1.859c-0.08-1.118-0.819-1.649-1.473-2.118c-0.773-0.556-1.443-1.039-1.366-2.452
			c0.164-3.083-1.804-3.774-2.449-4.001l-0.107-0.04c-0.777-0.292-1.12-0.458-1.086-1.338c0.027-0.75-0.229-1.366-0.705-1.688
			c-0.442-0.302-1.024-0.318-1.639-0.045c-0.313,0.139-0.801,0.249-1.147,0.101c-0.381-0.163-0.652-0.577-0.646-0.984
			c0.025-1.549-1.068-1.581-1.95-1.607c-0.363-0.011-0.627-0.11-0.778-0.294c-0.184-0.22-0.241-0.6-0.168-1.07
			c0.145-0.903-0.391-1.249-0.817-1.527c-0.488-0.317-0.992-0.645-1.054-1.927c-0.021-0.392,0.402-3.177,2.62-3.289
			c0.883-0.045,1.486-0.499,2.071-0.938c0.721-0.54,1.399-1.049,2.681-0.978c1.146,0.064,1.673,0.755,2.229,1.486
			C80.991,195.169,81.572,195.936,82.657,195.845z"/>
	</g>
</g>
<g>
	<path d="M83,466.832c0,1.197-0.972,2.168-2.168,2.168h-3.664c-1.196,0-2.168-0.971-2.168-2.168v-2.664
		c0-1.197,0.972-2.168,2.168-2.168h3.664c1.196,0,2.168,0.971,2.168,2.168V466.832z"/>
	<path d="M78.426,468.295c1.161-1.338,2.439-2.102,3.58-2.536l-0.188-2.019c0,0-0.2-1.74-1.605-1.74h-3.414
		c-1.404,0-1.605,1.74-1.605,1.74l-0.271,1.981C76.043,466.163,77.29,466.988,78.426,468.295z"/>
	<path d="M97.15,468.705c-2.992-0.961-5.642,0.945-6.496,1.662c0.526,1.824,1.195,5.121,1.102,9.938
		c-0.11,5.626-1.053,14.367-2.487,20.535c0.372,0.543,1.623,2.056,4.012,2.025c4.646-0.063,7.576-6.457,8.955-19.544
		C103.125,474.871,101.461,470.09,97.15,468.705z"/>
	<path d="M65.178,480.307c-0.096-4.796,0.566-8.088,1.093-9.916c-0.824-0.695-3.497-2.654-6.522-1.686
		c-2.692,0.865-6.148,3.322-5.084,14.623c1.167,12.354,4.433,19.479,8.955,19.539c2.445,0.031,3.7-1.559,4.039-2.063
		C66.227,494.639,65.289,485.921,65.178,480.307z"/>
	<path fill="#FFFFFF" d="M83.294,505c-2.442,0-4.566-1.102-5.917-3.102L77,501.391v-31.428l0.461-0.545
		c2.489-3.165,5.677-3.516,6.923-3.52c4.122,0,6.758,3.438,6.782,3.475l0.226,0.292l0.134,0.386
		c0.582,2.006,1.257,5.416,1.161,10.273c-0.105,5.426-1.008,14.305-2.522,20.775l-0.087,0.381l-0.226,0.315
		c-0.358,0.509-2.353,3.063-6.279,3.196L83.294,505z"/>
	<path d="M88.171,500.645c1.427-6.089,2.362-14.772,2.473-20.357c0.093-4.729-0.584-7.96-1.083-9.678l-0.027-0.034
		c-0.021-0.027-2.139-2.683-5.182-2.675c-0.97,0.003-3.352,0.283-5.352,2.756v30.125c1,1.492,2.587,2.278,4.444,2.217
		C86.479,502.891,87.98,500.917,88.171,500.645z"/>
	<path fill="#FFFFFF" d="M73.418,504.994c-3.688-0.127-5.673-2.386-6.19-3.074l-0.256-0.338l-0.098-0.41
		c-1.523-6.479-2.433-15.391-2.54-20.847c-0.096-4.909,0.592-8.339,1.187-10.353l0.114-0.393l0.262-0.316
		c0.465-0.563,2.97-3.367,6.675-3.367c1.274,0.006,4.492,0.359,6.986,3.572L80,470.012v31.314l-0.354,0.501
		c-1.352,2.046-3.468,3.173-5.94,3.173C73.704,505,73.418,504.994,73.418,504.994z"/>
	<path d="M78,470.697c-2-2.512-4.444-2.796-5.42-2.799c-2.854-0.008-4.906,2.324-5.166,2.641c-0.501,1.699-1.208,4.955-1.115,9.746
		c0.111,5.604,1.049,14.336,2.48,20.43c0.331,0.438,1.86,2.182,4.707,2.281c1.881,0.063,3.513-0.742,4.513-2.271L78,470.697
		L78,470.697z"/>
</g>
<g>
	<path d="M264.441,201.114c-0.325,0.122-0.622,0.242-0.86,0.352c4.486,2.948,5.178,7.12,5.178,9.265
		c0,0.839-0.098,1.365-0.102,1.385l-0.292,1.472l-0.957-1.157c-2.534-3.066-5.31-4.375-6.854-4.913
		c0.47,1.585,0.666,3.018,0.666,4.28c0,4.438-2.277,6.845-2.409,6.979l-1.117,1.146l-0.104-1.597
		c-0.306-4.687-3.355-8.263-4.541-9.486c-1.193,1.22-4.275,4.798-4.582,9.486l-0.104,1.597l-1.116-1.146
		c-0.131-0.134-2.409-2.542-2.409-6.979c0-1.262,0.196-2.695,0.666-4.28c-1.544,0.538-4.318,1.847-6.854,4.913l-0.957,1.157
		l-0.292-1.472c-0.004-0.021-0.103-0.546-0.103-1.384c0-2.146,0.69-6.317,5.179-9.266c-0.239-0.11-0.536-0.23-0.86-0.352
		c-7.491,3.595-12.589,10.613-12.589,18.664c0,11.702,10.767,21.222,24,21.222c13.234,0,24-9.521,24-21.222
		C277.029,211.727,271.932,204.708,264.441,201.114z"/>
	<path d="M245.239,201.494l-1.016,0.544c-4.595,2.46-5.426,6.146-5.502,8.228c3.753-3.788,7.59-4.478,7.769-4.506l1.215-0.194
		l-0.436,1.15c-0.734,1.945-1.004,3.643-1.004,5.085c0,2.032,0.531,3.543,1.05,4.547c1.112-5.353,5.083-8.875,5.271-9.039
		l0.47-0.408l0.468,0.41c0.187,0.163,4.119,3.685,5.225,9.036c0.518-1.004,1.048-2.516,1.048-4.546c0-1.443-0.27-3.141-1.004-5.085
		l-0.436-1.15l1.214,0.194c0.179,0.028,4.017,0.718,7.769,4.506c-0.075-2.082-0.906-5.767-5.501-8.228l-1.017-0.544l0.94-0.666
		c0.111-0.08,2.49-1.718,7.08-2.111c-2.408-1.49-7.209-3.489-12.226,0.044l-0.688,0.483c0,0-2.082-4.321-2.899-6.017
		c-0.817,1.696-2.898,6.017-2.898,6.017l-0.688-0.483c-5.015-3.532-9.815-1.534-12.226-0.044c4.591,0.393,6.969,2.031,7.081,2.111
		L245.239,201.494z"/>
</g>
<g>
	<path d="M160.997,682.138c-11.863,0-21.568-9.138-22.076-21.138h-1.924c0.508,13,11.075,23.063,24,23.063S184.49,674,184.997,661
		h-1.925C182.566,673,172.86,682.138,160.997,682.138z"/>
	<path d="M160.997,637.862c11.862,0,21.568,9.138,22.075,21.138h1.925c-0.508-13-11.075-23.063-24-23.063S137.505,646,136.997,659
		h1.924C139.427,647,149.133,637.862,160.997,637.862z"/>
	<path d="M161.603,640.927c0,0-4.064,0-4.064,4.395c0,4.393,2.54,7.026,4.064,7.026c1.522,0,4.063-2.636,4.063-7.026
		C165.667,640.928,161.603,640.927,161.603,640.927z"/>
	<path d="M171.662,648.193c-3.571,2.558-4.234,6.156-3.349,7.396c0.887,1.239,4.511,1.771,8.081-0.788
		c3.57-2.558,1.205-5.861,1.205-5.861S175.233,645.636,171.662,648.193z"/>
	<path d="M147.375,646.266c0,0-2.3,2.301,0.574,5.175c2.873,2.875,6.035,3.16,6.897,2.3c0.861-0.862,0.574-4.023-2.301-6.898
		C149.674,643.966,147.375,646.266,147.375,646.266z"/>
	<path d="M145.629,664.286c3.313,0,5.549-1.881,6.268-3.502c0.165-0.371,0.25-0.729,0.25-1.048c0-0.271-0.066-0.566-0.188-0.876
		c-0.632-1.655-2.898-3.671-6.33-3.671c-2.934,0-3.751,2.351-3.979,3.671c-0.09,0.514-0.093,0.876-0.093,0.876s0,0.439,0.123,1.048
		C141.95,662.128,142.823,664.286,145.629,664.286z"/>
	<path d="M147.712,668.395c-3.104,3.106-0.621,5.594-0.621,5.594s2.485,2.481,5.592-0.622c3.105-3.105,3.417-6.521,2.483-7.454
		C154.235,664.979,150.819,665.29,147.712,668.395z"/>
	<path d="M161.603,667.049c-1.708,0-4.554,2.775-4.554,7.4c0.001,4.626,4.554,4.626,4.554,4.626s4.552,0,4.552-4.626
		C166.155,669.824,163.31,667.049,161.603,667.049z"/>
	<path d="M168.386,665.737c-0.796,0.796-0.53,3.711,2.12,6.36c2.648,2.649,4.771,0.529,4.771,0.529s2.118-2.12-0.53-4.771
		C172.097,665.209,169.181,664.943,168.386,665.737z"/>
	<path d="M174.776,658.86c-1.729,0.228-2.81,1.062-2.89,1.698c-0.01,0.069-0.004,0.146,0.01,0.226
		c0.143,0.889,1.638,2.298,4.249,2.631c2.844,0.363,3.134-1.912,3.134-1.912s0.038-0.31-0.055-0.719
		c-0.159-0.699-0.705-1.688-2.499-1.917c-0.022-0.004-0.045-0.004-0.067-0.007C175.969,658.778,175.337,658.786,174.776,658.86z"/>
	<path d="M159.284,660.185c0,0.212,0.044,0.413,0.113,0.602c0.243,0.647,0.864,1.113,1.601,1.113c0.733,0,1.354-0.466,1.6-1.113
		c0.069-0.188,0.112-0.389,0.112-0.602c0-0.535-0.252-1.011-0.641-1.322c-0.294-0.238-0.664-0.391-1.071-0.391
		c-0.409,0-0.778,0.15-1.074,0.391C159.537,659.174,159.284,659.646,159.284,660.185z"/>
</g>
<g>
	<path d="M346.156,214.124c0,0,1.172-3.942,1.542-5.186c-1.202,0.51-4.979,2.113-4.979,2.113s1.18-3.34,1.628-4.609
		c-0.779,0.38-2.715,1.323-4.323,2.105c-4.21,4.085-10.367,9.312-15.848,11.08c-4.811,1.551-8.907,4.208-11.063,6.961
		c-1.721,2.199-3.317,5.955-1.26,9.585c3.518,6.204,13.23,8.372,25.602-5.547c5.37-6.041,9.115-10.732,11.638-14.108
		c0.491-1.581,1.202-3.866,1.495-4.807C349.388,212.366,346.156,214.124,346.156,214.124z"/>
	<path d="M350.198,216.072c0.708-0.567,1.73-1.496,2.977-2.951c0.508-0.592,1.052-1.271,1.624-2.046
		c3.54-4.793,0.959-8.475,0.848-8.629l-0.214-0.295c0,0,2.952-3.448,3.454-4.035c-0.461-0.396-1.663-1.423-2.125-1.818
		c-0.502,0.586-3.445,4.026-3.445,4.026l-0.319-0.151c-3.455-1.634-6.574,0.385-8.128,1.734c-0.862,0.75-1.685,1.614-2.418,2.471
		c-0.98,1.147-1.811,2.281-2.393,3.127c1.761-0.857,5.91-2.878,5.91-2.878s-1.246,3.527-1.682,4.756
		c1.246-0.528,4.854-2.06,4.854-2.06s-1.068,3.593-1.463,4.922c1.188-0.648,4.466-2.431,4.466-2.431
		S350.714,214.416,350.198,216.072z"/>
</g>
<g>
	<path d="M410.991,472.159c0.358,0.484,0.473,1.075,0.473,1.622c0,0.385-0.061,0.734-0.124,1.031
		c0.732,0.063,1.477,0.271,2.037,0.871c0.605,0.653,0.898,1.664,0.898,3.143c0,0.313-0.014,0.646-0.04,1.006
		c-0.028,0.393-0.047,0.769-0.047,1.132c0,0.371,0.019,0.729,0.064,1.08c0.214-0.165,0.441-0.304,0.69-0.41
		c0.801-0.34,1.59-0.285,2.13-0.18c0.153-1.082,0.563-1.896,1.252-2.389c0.729-0.521,1.571-0.562,2.138-0.511
		c0.11-0.905,0.438-1.644,1.001-2.173c0.566-0.536,1.219-0.728,1.688-0.806c-0.001-0.045-0.004-0.086-0.004-0.135
		c0-0.689,0.136-1.747,0.848-2.543c0.485-0.542,1.155-0.859,1.984-0.971c-2.561-1.053-5.484-1.786-8.545-1.889
		c-3.142-0.104-5.943,0.449-8.217,1.183C410.007,471.327,410.606,471.633,410.991,472.159z"/>
	<path d="M432.956,473.317l-0.111-0.062c-2.188-1.572-4.332-3.396-5.324-4.27c-0.128,0.471-0.188,0.984-0.188,1.473
		c0,0.985,0.176,1.832,0.179,1.847l0.146,0.692c0,0-1.861-0.52-2.854,0.613c-0.77,0.875-0.545,2.338-0.543,2.353l0.104,0.649
		l-0.656-0.022c-0.009,0-0.882-0.021-1.514,0.581c-0.46,0.439-0.698,1.117-0.71,2.02l-0.011,0.704l-0.679-0.195
		c-0.013-0.004-1.083-0.309-1.85,0.244c-0.537,0.388-0.83,1.131-0.872,2.209l-0.029,0.765l-0.71-0.288
		c-0.012-0.004-1.031-0.409-1.977-0.004c-0.312,0.135-0.585,0.349-0.82,0.635c0.692,2.002,2.599,4.024,7.262,7.269
		c3.048,2.117,4.698,4.799,4.698,7.595c0,0.175-0.007,0.351-0.021,0.527c-0.066,0.897-0.239,1.729-0.513,2.488
		c1.835-1.175,3.548-2.646,4.827-4.479c0.069-0.103,0.138-0.203,0.203-0.306c-2.882-2.654-4.032-6.581-4.446-8.539
		c2.104,3.966,4.775,5.979,5.542,6.5c0.048-0.113,0.094-0.227,0.14-0.339c0.528-1.279,0.933-2.505,1.232-3.658
		c0.032-0.13,0.063-0.261,0.096-0.389c-2.869-2.365-4.303-5.923-4.884-7.749c1.933,2.903,4.088,4.6,5.338,5.419
		c0.019-0.133,0.035-0.263,0.052-0.393c0.641-5.026-0.601-8.152-0.601-8.152s3.769,6.649,1.064,14.501
		c-0.008,0.022-0.014,0.044-0.021,0.066c-0.056,0.153-0.112,0.307-0.171,0.459c0.855-0.473,3.071-1.896,4.23-4.527
		c-0.387,2.267-1.646,6.18-5.723,7.468c-0.103,0.157-0.205,0.314-0.313,0.473c-1.84,2.717-4.387,5.048-7.232,6.622
		c9.438-1.958,15.695-8.274,15.695-16.488c0-0.037,0-0.075,0-0.113C441.001,479.051,434.936,474.738,432.956,473.317z"/>
	<path d="M425.424,498.127c0-2.437-1.49-4.807-4.238-6.718c-6.503-4.521-8.065-6.918-8.065-10.511c0-0.368,0.019-0.749,0.046-1.146
		c0.024-0.336,0.037-0.646,0.037-0.937c0-1.168-0.203-1.889-0.611-2.328c-0.365-0.395-0.948-0.488-1.948-0.488h-0.783l0.282-0.803
		c0.163-0.422,0.407-1.653-0.016-2.368c-0.471-0.798-1.928-0.794-2.428-0.761c-0.105,0.007-0.173,0.005-0.173,0.005
		s0.24-2.313,0.276-3.501c-0.828,0.555-2.204,1.438-4.033,2.472c-1.545,0.873-3.082,1.935-4.006,2.637
		c-2.347,1.785-6.883,7.017-6.883,13.998c0,2.317,0.5,4.827,1.744,7.472c2.298,4.869,7.096,7.306,10.717,8.489
		c1.34,0.439,2.717,0.772,4.081,1.02c-3.251-1.556-6.279-4.115-8.345-7.162c-0.104-0.156-0.21-0.313-0.311-0.473
		c-4.075-1.288-5.336-5.201-5.723-7.468c1.157,2.632,3.375,4.057,4.23,4.527c-0.059-0.152-0.117-0.306-0.171-0.459
		c-0.008-0.022-0.014-0.044-0.021-0.066c-2.702-7.852,1.064-14.501,1.064-14.501s-1.605,4.05-0.219,10.344
		c0.027,0.121,0.054,0.242,0.083,0.366c1.176-0.729,3.54-2.458,5.642-5.612c-0.59,1.854-2.056,5.486-5.009,7.854
		c0.039,0.118,0.083,0.238,0.124,0.358c0.235,0.681,0.501,1.378,0.813,2.095c0.52,1.197,1.219,2.268,2.032,3.229
		c0.077,0.092,0.155,0.182,0.234,0.271c0.804-0.716,4.091-3.747,5.972-7.05c-0.475,1.961-1.666,5.793-4.214,8.742
		c0.092,0.073,0.184,0.152,0.274,0.229c1.187,0.949,2.479,1.747,3.773,2.415c0.11,0.059,0.223,0.111,0.331,0.166
		c0.718-0.821,2.737-3.273,3.904-6.1c-0.229,1.675-0.854,4.502-2.49,6.758c0.114,0.049,0.229,0.101,0.343,0.146
		c1.018,0.516,2.646,1.176,4.447,1.515c0.912,0.171,1.869,0.259,2.813,0.203c1.056-0.063,2.095-0.307,3.034-0.815
		c2.039-1.104,3.17-2.99,3.362-5.598C425.416,498.422,425.424,498.274,425.424,498.127z"/>
</g>
<g>
	<path d="M421.001,196c0,1.104-0.896,2-2,2h-4c-1.104,0-2-0.896-2-2v-4c0-1.104,0.896-2,2-2h4c1.104,0,2,0.896,2,2V196z"/>
	<path d="M435.157,230.312c-0.813,5.313-3.746,9.271-9.059,8.454l-0.129-0.02c-5.313-0.816-6.918-5.47-6.101-10.784l1.737-24.903
		c0.818-5.313,5.788-8.958,11.1-8.141l0.129,0.02c5.313,0.816,8.958,5.783,8.14,11.097L435.157,230.312z"/>
	<path d="M398.602,230.312c0.813,5.313,3.746,9.271,9.059,8.454l0.129-0.02c5.313-0.816,6.918-5.47,6.101-10.784l-1.737-24.903
		c-0.816-5.313-5.788-8.958-11.1-8.141l-0.127,0.02c-5.313,0.816-8.958,5.783-8.142,11.097L398.602,230.312z"/>
	<path fill="#FFFFFF" d="M417.239,241c-5.902,0-9.372-4.432-9.399-11.572l-1.838-24.688v-0.083c0-6.428,4.812-11.657,11.237-11.657
		h0.128c6.43,0,11.635,5.229,11.635,11.657v0.083l-2.035,24.688c-0.029,7.14-3.693,11.572-9.6,11.572H417.239z"/>
	<path d="M424.978,229.343c0,5.333-2.277,9.657-7.61,9.657h-0.128c-5.333,0-7.608-4.323-7.608-9.657l-2.046-24.686
		c0-5.334,4.321-9.657,9.654-9.657h0.128c5.333,0,9.657,4.323,9.657,9.657L424.978,229.343z"/>
</g>
<g>
	<path d="M56.702,313.833c0,0,11.21-14.634,23.22-11.122c0,0,8.188,2.255,13.462,9.165l0.221,3.513c0,0-5.503,5.61-11.563,8.61
		H69.974c0,0-2.75-1.409-4.995-2.542C64.979,321.458,59.985,317.727,56.702,313.833z"/>
	<path fill="#FFFFFF" d="M70.704,307.731c0,0,1.517-1.416,3.929-1.926l0.449,1.643C75.082,307.448,73.005,307.278,70.704,307.731z"
		/>
	<path fill="#FFFFFF" d="M77.158,305.635l1.516,0.113c0,0,0.449,1.246,0.562,2.096c0,0-0.617-0.227-1.57-0.453L77.158,305.635z"/>
	<path fill="#FFFFFF" d="M80.524,306.145c0,0,5.668,1.699,7.688,6.74c0,0-4.657-3.908-6.958-4.418L80.524,306.145z"/>
	<path fill="#FFFFFF" d="M67.897,313.848c0,0,1.627,4.758-3.423,7.702l-1.685-1.303C62.79,320.248,67.336,319.058,67.897,313.848z"
		/>
	<ellipse fill="#FFFFFF" cx="63.127" cy="312.149" rx="1.402" ry="1.416"/>
	<polygon points="103,321.313 89.198,313.272 103,305.23 	"/>
	<polygon points="58.61,332 95.817,332 100.026,326 54.401,326 	"/>
</g>
<g>
	<path d="M173.798,291.12l-0.757,6.819l6.421-4.738l3.816,2.56l-4.94,6.799l8.26-1.902c0,0,2.544,5.255,1.521,6.782l-7.627,2.212
		l6.167,4.632l-2.773,4.818l-5.462-2.213l2.14,5.518l-3.955,2.995l-4.866-4.18c0,0,4.843-9.612-7.178-14.621
		c0,0-22.604-2.031-24.2-15.81C140.361,290.791,158.048,287.235,173.798,291.12z"/>
	<path d="M149.965,301.392c0,0-6.205,6.181-6.198,13.512c0,0,1.396,0.821,2.874,0.439c0,0,0.159-7.296,6.724-12.702L149.965,301.392
		z"/>
	<path d="M155.225,303.736c0,0-6.206,6.18-6.199,13.512c0,0,1.396,0.82,2.873,0.438c0,0,0.16-7.296,6.725-12.702L155.225,303.736z"
		/>
	<path d="M160.793,305.448c0,0-6.206,6.18-6.198,13.511c0,0,1.396,0.822,2.872,0.438c0,0,0.161-7.295,6.726-12.701L160.793,305.448z
		"/>
	<path d="M171.952,320.831c0,0-12.104-0.314-16.336,8.469c0,0,12.867,8.811,21.623-4.417L171.952,320.831z"/>
	<circle fill="#FFFFFF" cx="154.284" cy="290.97" r="3.442"/>
	<circle cx="154.284" cy="290.97" r="2.066"/>
</g>
<g>
	<g>
		<path d="M242.193,467.014l-5.887,6.412c-1.146,1.246-1.569,2.207-1.504,3.122c0.087,1.2,0.914,2.447,2.459,3.708
			c3.97,3.238,33.335,23.146,33.663,23.371c0.033,0.027,3.448,2.684,5.423,0.533c1.977-2.15-0.963-5.328-1.021-5.389
			c-0.225-0.277-22.558-27.846-26.123-31.521c-1.354-1.394-2.663-2.093-3.896-2.075C244.05,465.193,243.134,465.988,242.193,467.014
			z"/>
		<polygon points="229.03,466.118 234.561,460.094 239.585,467.816 236.931,470.707 		"/>
	</g>
	<rect x="252" y="468" fill="#FFFFFF" width="2" height="14"/>
	<rect x="256" y="471" fill="#FFFFFF" width="2" height="14"/>
	<rect x="260" y="475" fill="#FFFFFF" width="2" height="14"/>
</g>
<g>
	<g>
		<g>
			<path d="M327.83,459.229l1.147-2.39l-3.093-1.316l-1.983,2.718l2.21,1.466l-1.312,1.795l2.21,1.468c0,0-0.131,1.808-0.148,2.409
				c0.596-0.01,1.851-0.026,1.851-0.026l1.232,4.868c0.313-0.166,0.675-0.337,1.082-0.489l0.572-3.373l-1.876-0.802l1.051-2.189
				l-2.044-0.871l1.146-2.392L327.83,459.229z"/>
			<path d="M323.214,469.844c0,0,0.267-1.225,0.394-1.806c-0.578-0.099-2.392-0.436-2.384-0.478l-0.933-2.324l-2.023,0.918
				l-0.988-2.461l-3.062,1.39l0.662,3.297l2.572-0.64l0.438,2.181l2.574-0.637l0.437,2.179l2.359-0.585l0.4,2.001l3.439,0.124
				c0.216-0.368,0.44-0.694,0.66-0.969L323.214,469.844z"/>
			<path d="M328.773,470.973c0.037-0.028,0.217-0.173,0.51-0.363l-1.146-4.512l-2.038,0.029l0.076-2.43l-2.227,0.028l0.083-2.648
				l-2.224,0.031l0.082-2.65l-3.362,0.047l-0.714,3.285l2.613,0.446l-0.475,2.173l2.615,0.446l-0.474,2.174l2.396,0.409l-0.433,1.99
				l4.205,2.023C328.533,471.172,328.732,471.005,328.773,470.973z"/>
		</g>
		<path d="M329.241,471.547c-0.205,0.167-4.947,4.153-0.352,9.776l10.284,12.581c0.044,0.054,4.39,5.305,10.05,7.039
			c3.342,1.022,5.271,1.953,6.329,2.575c-0.402-1.156-0.931-3.233-1.269-6.714c-0.574-5.893-4.856-11.193-4.9-11.249L339.1,472.975
			C334.504,467.353,329.452,471.373,329.241,471.547z"/>
	</g>
	
		<rect x="348.301" y="492.16" transform="matrix(0.9506 -0.3104 0.3104 0.9506 -137.5423 132.8811)" fill="#FFFFFF" width="1.001" height="13"/>
</g>
<g>
	<path d="M266.854,313.799c0,0,7.728,5.887,1.716,12.68c0,0-4.782,7.907-21.568,4.106c0,0-5.812-0.344-10.66,1.381
		c0,0-3.696,1.276-6.62-2.496l32.418-24.054C262.139,305.417,262.32,310.732,266.854,313.799z"/>
	<path d="M262.229,305.577c0,0-1.02-9.66-9.944-8.051c0,0-9.241-0.02-14.709,16.3c0,0-2.726,5.145-6.717,8.394
		c0,0-3.011,2.496-1.305,6.954l37.392-15.214C266.944,313.959,262.495,311.043,262.229,305.577z"/>
	<path d="M271.932,299.105c0,0-4.487,4.33-4.813,7.321l-1.522-2.354C265.597,304.073,266.897,301.034,271.932,299.105z"/>
	<path d="M277.029,308.167c0,0-6.029,1.586-8.755,0.31l1.221,2.524C269.494,311.001,272.767,311.468,277.029,308.167z"/>
	<path d="M260.819,298.433c0,0,2.764,2.058,3.021,7.33c0,0,0.739,4.702,4.402,6.755c0,0,2.538,1.481,3.715,5.535
		c0,0,1.645-2.43-2.263-7.055l-3.867-7.055C265.825,303.944,264.277,298.696,260.819,298.433z"/>
	<path d="M266.679,306.799c0,0,6.459-3.633,7.895-3.086c0,0-0.816,1.89-7.029,5.159L266.679,306.799z"/>
	<path d="M229.72,329.47c0,0-0.143-0.208-0.167-0.297c-0.025-0.09,0.278-0.462,0.278-0.462l0.868-0.576l0.5,0.711l-0.656,0.638
		l-0.589,0.024L229.72,329.47z"/>
	<circle fill="#FFFFFF" cx="252.615" cy="314.049" r="1.749"/>
	<circle fill="#FFFFFF" cx="258.828" cy="308.983" r="1.749"/>
	<circle fill="#FFFFFF" cx="250.872" cy="303.226" r="1.749"/>
	<circle fill="#FFFFFF" cx="242.87" cy="314.381" r="1.749"/>
	<circle fill="#FFFFFF" cx="244.079" cy="323.732" r="1.749"/>
	<circle fill="#FFFFFF" cx="235.425" cy="326.062" r="1.749"/>
	<circle fill="#FFFFFF" cx="252.907" cy="323.548" r="1.748"/>
	<circle fill="#FFFFFF" cx="263.253" cy="324.586" r="1.749"/>
	<circle fill="#FFFFFF" cx="262.843" cy="316.658" r="1.748"/>
</g>
<g>
	<circle cx="164.361" cy="481" r="24"/>
	<ellipse fill="#FFFFFF" cx="164.639" cy="480.723" rx="13.389" ry="12.389"/>
	<g>
		<circle fill="#FFFFFF" cx="156.027" cy="468.111" r="4.667"/>
		<circle fill="#FFFFFF" cx="160.917" cy="466.111" r="4.667"/>
		<circle fill="#FFFFFF" cx="166.472" cy="465.889" r="4.667"/>
		<circle fill="#FFFFFF" cx="171.583" cy="467.444" r="4.667"/>
		<circle fill="#FFFFFF" cx="175.805" cy="470.777" r="4.667"/>
		<circle fill="#FFFFFF" cx="178.694" cy="475.223" r="4.667"/>
		<circle fill="#FFFFFF" cx="180.027" cy="480.777" r="4.667"/>
		<circle fill="#FFFFFF" cx="178.917" cy="485.667" r="4.667"/>
		<circle fill="#FFFFFF" cx="176.472" cy="490.556" r="4.667"/>
		<circle fill="#FFFFFF" cx="172.694" cy="494.111" r="4.667"/>
		<circle fill="#FFFFFF" cx="167.583" cy="496.333" r="4.667"/>
		<circle fill="#FFFFFF" cx="162.027" cy="496.333" r="4.667"/>
		<circle fill="#FFFFFF" cx="157.139" cy="494.777" r="4.667"/>
		<circle fill="#FFFFFF" cx="152.917" cy="491.444" r="4.667"/>
		<circle fill="#FFFFFF" cx="149.805" cy="487" r="4.667"/>
		<circle fill="#FFFFFF" cx="148.694" cy="481.667" r="4.667"/>
		<circle fill="#FFFFFF" cx="149.805" cy="476.333" r="4.667"/>
		<circle fill="#FFFFFF" cx="152.25" cy="471.444" r="4.667"/>
	</g>
	<polygon points="167.138,485.444 164.861,483.519 163.888,486.338 163.177,483.441 160.733,485.149 161.861,482.389 
		158.879,482.334 161.415,480.764 159.034,478.967 162.008,479.188 161.138,476.333 163.416,478.259 164.389,475.44 
		165.099,478.337 167.544,476.628 166.417,479.389 169.398,479.443 166.863,481.014 169.244,482.811 166.269,482.592 	"/>
	<path d="M161.768,472.26c0,0,1.224-4.074-1.186-5.186c0,0-0.963,0.109-0.963,1.479C159.621,468.556,159.621,470.481,161.768,472.26
		z"/>
	<path d="M168.688,472.994c0,0,3.814-1.88,2.989-4.399c0,0-0.736-0.629-1.74,0.306C169.937,468.898,168.527,470.211,168.688,472.994
		z"/>
	<path d="M166.757,489.809c0,0-1.222,4.074,1.187,5.188c0,0,0.964-0.111,0.964-1.481
		C168.906,493.513,168.906,491.587,166.757,489.809z"/>
	<path d="M159.837,489.074c0,0-3.814,1.88-2.988,4.397c0,0,0.736,0.629,1.739-0.304C158.588,493.17,159.999,491.857,159.837,489.074
		z"/>
	<path d="M155.488,483.751c0,0-4.073-1.222-5.185,1.188c0,0,0.109,0.963,1.48,0.963C151.785,485.899,153.71,485.898,155.488,483.751
		z"/>
	<path d="M156.223,476.831c0,0-1.881-3.815-4.398-2.989c0,0-0.631,0.737,0.304,1.74
		C152.127,475.582,153.439,476.992,156.223,476.831z"/>
	<path d="M173.038,478.54c0,0,4.073,1.222,5.187-1.188c0,0-0.111-0.963-1.48-0.963C176.742,476.392,174.816,476.392,173.038,478.54z
		"/>
	<path d="M172.303,485.459c0,0,1.88,3.815,4.397,2.99c0,0,0.63-0.737-0.305-1.741C176.398,486.708,175.086,485.298,172.303,485.459z
		"/>
</g>
<g>
	<path d="M332.261,303.15l-2.414-18.976l-3.826,0.442l2.47,18.179C329.689,302.952,330.947,303.075,332.261,303.15z"/>
	<path d="M324.962,301.49c0.749,0.154,1.532,0.296,2.352,0.422l-1.024-7.245L324.962,301.49z"/>
	<polygon points="332.188,292.042 333.415,302.472 336.225,288.995 336.415,285.731 332.567,285.588 	"/>
	<path d="M339.047,285.159l-2.921,11.985l-1.194,5.726c0.173,0.001,0.346,0.006,0.521,0.006c1.158,0,2.277-0.042,3.361-0.114
		l3.979-16.711L339.047,285.159z"/>
	<path d="M339.846,302.647c1.348-0.126,2.629-0.302,3.833-0.507l-2.104-6.85L339.846,302.647z"/>
	<path d="M342.947,287.882l-1.188,5.288l2.57,8.764c1.365-0.249,2.133-0.42,3.275-0.721L342.947,287.882z"/>
	<path d="M349.385,296.823l-0.644,2.112l0.679,1.969l0.044-0.004c1.094-0.315,2.058-0.633,2.877-0.927l3.733-10.324l-3.621-1.31
		L349.385,296.823z"/>
	<path d="M323.844,301.25l1.917-9.858l-3.41-0.735l-2.08,9.645C321.327,300.625,322.523,300.951,323.844,301.25z"/>
	<path d="M318.601,300.617l1.127-5.077l-2.262-8.133l-3.711,1.033l3.217,11.562C317.298,300.128,318.601,300.617,318.601,300.617z"
		/>
	<polygon points="348.658,294.928 349.547,284.976 345.712,284.627 345.346,288.72 348.108,296.738 	"/>
	<path d="M313.694,299.18l5.364,32.82h31.086l5.364-32.536c-0.813,0.398-8.987,4.277-20.413,4.277S314.509,299.578,313.694,299.18z"
		/>
</g>
<g>
	<path d="M432.135,326.167c0,0,6.231-7.846,5.1-20.301c-0.978-10.748-10.277-11.467-12.826-11.326
		c-2.195,0.123-3.406,0.563-5.406,1.022v5.247c1-0.299,1.482-0.743,2.061-1.317c0.23-0.23,0.646-0.23,0.876,0
		s0.25,0.602,0.021,0.833c-0.858,0.857-1.884,1.333-3.014,1.67c-0.101,0.087-0.221,0.004-0.364,0.004H418.4
		c-0.493,0-1.003,0.164-1.521,0.164c-0.52,0-1.025-0.164-1.521-0.164h-0.181c-0.146,0-0.273,0.083-0.376-0.004
		c-1.13-0.337-2.164-0.882-3.021-1.739c-0.229-0.231-0.229-0.569,0-0.799c0.229-0.23,0.812-0.213,1.039,0.017
		c0.573,0.574,1.18,1.035,2.18,1.335v-4.916c-2-0.584-3.572-1.254-5.587-1.355c-2.831-0.141-12.107,0.558-12.842,11.326
		c-0.85,12.456,5.275,20.301,5.275,20.301s4.267,7.585,13.361,5.236c0.553-0.144,1.105-0.318,1.694-0.539
		c0.422,0.223,0.829,0.403,1.237,0.563C426.434,334.7,432.135,326.167,432.135,326.167z"/>
	<path d="M425.041,287.79c-3.531,1.414-5.585,5.046-6.365,6.706l15.602-6.24C432.567,287.593,428.573,286.377,425.041,287.79z"/>
	<path d="M415.964,284c-0.067,0,0.036,0.183,0.036,0.174c0,6.765,0,15.826,0,16.826c0,0,1,0,2,0c0-1,0-10.061,0-16.826
		c0,0.009-0.138-0.174-0.203-0.174H415.964z"/>
</g>
<g>
	<g>
		<g>
			<circle cx="240.509" cy="563.533" r="3.306"/>
			<circle cx="248.112" cy="563.533" r="3.306"/>
			<circle cx="255.716" cy="563.533" r="3.307"/>
			<circle cx="263.319" cy="563.533" r="3.306"/>
		</g>
		<g>
			<circle cx="240.51" cy="570.866" r="3.306"/>
			<circle cx="248.113" cy="570.866" r="3.307"/>
			<circle cx="255.717" cy="570.866" r="3.306"/>
			<circle cx="263.32" cy="570.866" r="3.306"/>
		</g>
		<g>
			<path d="M241.003,578.199c0-1.825,1.48-3.307,3.309-3.307c1.825,0,3.308,1.479,3.308,3.307c0,1.828-1.48,3.308-3.308,3.308
				S241.003,580.027,241.003,578.199z"/>
			<path d="M248.608,578.199c0-1.825,1.479-3.307,3.307-3.307s3.309,1.479,3.309,3.307c0,1.828-1.479,3.308-3.309,3.308
				C250.088,581.507,248.608,580.027,248.608,578.199z"/>
			<path d="M256.211,578.199c0-1.825,1.479-3.307,3.308-3.307c1.826,0,3.307,1.479,3.307,3.307c0,1.828-1.479,3.308-3.307,3.308
				S256.211,580.027,256.211,578.199z"/>
		</g>
		<g>
			<circle cx="248.112" cy="585.533" r="3.306"/>
			<circle cx="255.716" cy="585.533" r="3.307"/>
		</g>
		<circle cx="251.915" cy="592.867" r="3.307"/>
	</g>
	<polygon points="248,550 251,550 251,560 253,560 253,550 256,550 256,548 248,548 	"/>
	<path d="M259.668,551.861c-3.615,1.186-5.896,4.679-6.781,6.287l15.969-5.232C267.189,552.146,263.284,550.678,259.668,551.861z"/>
</g>
<g>
	<path d="M84.632,551.912c-2.968,1.188-4.692,4.238-5.35,5.633l13.106-5.242C90.952,551.746,87.598,550.725,84.632,551.912z"/>
	<path d="M77.844,548c-0.057,0,0.155,0.182,0.155,0.175C78,552.71,78,559,78,560c0,0,1,0,2,0c0-1,0-7.29,0-11.825
		C79,548.182,79.44,548,79.385,548H77.844z"/>
	<path d="M79.859,558.496c0,0,5.937-4.24,12.114-0.484c0,0,12.356,6.299,3.394,26.771c0,0-4.969,10.297-8.846,11.021
		c0,0-2.905,0.973-5.691-0.241c0,0-0.85-1.329-5.695,0.364c0,0-5.209,1.695-9.085-4.119c0,0-16.233-20.837-1.695-33.436
		c0,0,4.119-3.271,10.176-1.213C74.528,557.162,77.194,558.738,79.859,558.496z"/>
</g>
<g>
	<path d="M338.597,595.086c0,0,10.184-5.426,14.521-23.373c0,0,1.544-8.18-2.921-9.598l-8.599-2.588c0,0,4.008,6.76,2.255,7.595
		c0,0-0.975,0.53-2.923-1.669l-5.426-4.424c0,0-0.855-0.646-2.002,0.166l-6.931,5.511c0,0-1.777,1.278-1.752-1.085l2.922-6.011
		l-8.348,2.338c0,0-4.925,5.259-2.169,13.854c0,0,5.008,12.854,12.437,18.696C329.665,594.501,334.174,597.84,338.597,595.086z"/>
	<path d="M325.909,566.205c0,0,6.063-8.013,10.404-6.066c0,0,4.765,2.354,6.956,6.066c0,0-0.557-4.397-3.839-7.625
		c0,0,2.67-1.278,10.852,2.449c0,0-6.231-7.568-14.97-5.954c0,0-0.223-5.731-0.891-6.901c0,0-1.895,0-2.115,1.061
		c0,0,1.781,2.67,1.447,5.953c0,0-8.458-2.005-14.804,5.896c0,0,8.85-3.448,10.686-2.447
		C329.637,558.637,325.466,564.034,325.909,566.205z"/>
	
		<ellipse transform="matrix(-0.9963 -0.0856 0.0856 -0.9963 641.8192 1172.319)" fill="#FFFFFF" cx="346.042" cy="572.4" rx="1.774" ry="1.576"/>
	
		<ellipse transform="matrix(-0.9963 -0.0859 0.0859 -0.9963 638.1702 1184.2684)" fill="#FFFFFF" cx="344.562" cy="578.405" rx="1.774" ry="1.575"/>
	
		<ellipse transform="matrix(-0.9964 -0.0853 0.0853 -0.9964 629.6736 1197.5131)" fill="#FFFFFF" cx="340.434" cy="585.297" rx="1.774" ry="1.576"/>
	
		<ellipse transform="matrix(-0.9963 -0.0859 0.0859 -0.9963 622.7256 1208.5879)" fill="#FFFFFF" cx="337.37" cy="590.894" rx="1.773" ry="1.577"/>
	<path fill="#FFFFFF" d="M337.435,585.31c-0.076,0.87-0.929,1.503-1.904,1.423c-0.974-0.086-1.705-0.855-1.632-1.727
		c0.075-0.868,0.928-1.502,1.903-1.419C336.777,583.67,337.509,584.442,337.435,585.31z"/>
	
		<ellipse transform="matrix(-0.9963 -0.0856 0.0856 -0.9963 627.1971 1184.8381)" fill="#FFFFFF" cx="339.007" cy="578.969" rx="1.774" ry="1.578"/>
	
		<ellipse transform="matrix(-0.9963 -0.0859 0.0859 -0.9963 632.2618 1172.2112)" fill="#FFFFFF" cx="341.356" cy="572.5" rx="1.773" ry="1.576"/>
	
		<ellipse transform="matrix(-0.9964 -0.085 0.085 -0.9964 619.8208 1176.813)" fill="#FFFFFF" cx="334.978" cy="575.204" rx="1.774" ry="1.578"/>
	
		<ellipse transform="matrix(-0.9963 -0.0857 0.0857 -0.9963 614.1681 1187.2274)" fill="#FFFFFF" cx="332.557" cy="580.436" rx="1.773" ry="1.578"/>
</g>
<g>
	<path d="M421.573,548.178c0,0-4.991,1.023-0.769,5.375c0,0,5.566,3.775,4.928,6.207c0,0,0.129,3.137-9.662,1.604
		c0,0-7.616-1.279-7.425-5.505C408.646,555.857,409.029,547.986,421.573,548.178z"/>
	<path d="M407.752,558.736c0,0,5.116,7.424,17.726,3.969c0,0,5.951,2.496,3.2,5.695c0,0,1.728,0.512,2.11,1.6
		c0,0-13.822,2.24-27.711,0.129c0,0,0.192-1.92,2.752-3.393C405.829,566.736,402.887,562.193,407.752,558.736z"/>
	<path d="M403.228,567.482c0,0-1.28,1.623-1.109,2.475c0,0-3.327-0.426-2.219-1.705L403.228,567.482z"/>
	<path d="M430.02,567.398c0,0,5.376,0.512,3.756,1.877l-1.878,0.598C431.897,569.873,430.701,567.568,430.02,567.398z"/>
	<path d="M399.048,571.174c0,0,13.649,4.779,35.666,0.086c0,0-1.535,13.141-16.211,14.248c0,0-9.645,1.195-15.872-6.057
		C402.631,579.451,399.985,576.805,399.048,571.174z"/>
	<path d="M418.372,585.488c0,0-0.384,6.512,1.664,8.512h-6.145c0,0,1.793-0.673,1.537-8.354L418.372,585.488z"/>
	<ellipse cx="416.773" cy="594.447" rx="6.591" ry="1.727"/>
</g>
<g>
	<g>
		<path fill="#FFFFFF" d="M90.635,663.352c-3.304,0-5.991-2.688-5.991-5.99c0-3.306,2.688-5.992,5.991-5.992
			c3.306,0,5.993,2.688,5.993,5.992C96.628,660.664,93.94,663.352,90.635,663.352z"/>
		<circle cx="90.635" cy="657.359" r="4.778"/>
		<path fill="#FFFFFF" d="M78.245,659.951c-3.305,0-5.992-2.688-5.992-5.993c0-3.304,2.688-5.992,5.992-5.992
			s5.992,2.688,5.992,5.992C84.238,657.263,81.55,659.951,78.245,659.951z"/>
		<circle cx="78.246" cy="653.958" r="4.778"/>
		<path fill="#FFFFFF" d="M65.369,663.352c-3.305,0-5.992-2.688-5.992-5.99c0-3.306,2.688-5.992,5.992-5.992
			s5.992,2.688,5.992,5.992C71.362,660.664,68.674,663.352,65.369,663.352z"/>
		<circle cx="65.37" cy="657.359" r="4.778"/>
		<path fill="#FFFFFF" d="M67.07,670.883c-3.304,0-5.991-2.688-5.991-5.992c0-3.304,2.688-5.99,5.991-5.99
			c3.306,0,5.993,2.688,5.993,5.99C73.063,668.195,70.375,670.883,67.07,670.883z"/>
		<circle cx="67.07" cy="664.891" r="4.778"/>
		<path fill="#FFFFFF" d="M78.245,682.545c-3.305,0-5.992-2.688-5.992-5.993c0-3.304,2.688-5.992,5.992-5.992
			s5.992,2.688,5.992,5.992C84.238,679.856,81.55,682.545,78.245,682.545z"/>
		<circle cx="78.246" cy="676.552" r="4.778"/>
		<path fill="#FFFFFF" d="M89.664,671.126c-3.305,0-5.993-2.688-5.993-5.992c0-3.305,2.688-5.993,5.993-5.993
			s5.993,2.688,5.993,5.993C95.656,668.438,92.968,671.126,89.664,671.126z"/>
		<circle cx="89.664" cy="665.134" r="4.778"/>
		<path fill="#FFFFFF" d="M84.805,664.081c-3.305,0-5.992-2.688-5.992-5.993c0-3.304,2.688-5.992,5.992-5.992
			s5.992,2.688,5.992,5.992C90.797,661.393,88.109,664.081,84.805,664.081z"/>
		<circle cx="84.805" cy="658.088" r="4.778"/>
		<path fill="#FFFFFF" d="M71.443,664.081c-3.304,0-5.992-2.688-5.992-5.993c0-3.304,2.688-5.992,5.992-5.992
			c3.306,0,5.993,2.688,5.993,5.992C77.436,661.393,74.747,664.081,71.443,664.081z"/>
		<circle cx="71.443" cy="658.088" r="4.778"/>
		<path fill="#FFFFFF" d="M71.686,678.172c-3.305,0-5.993-2.688-5.993-5.993c0-3.304,2.688-5.991,5.993-5.991
			c3.306,0,5.993,2.688,5.993,5.991C77.679,675.483,74.99,678.172,71.686,678.172z"/>
		<circle cx="71.686" cy="672.179" r="4.778"/>
		<path fill="#FFFFFF" d="M84.562,678.414c-3.305,0-5.993-2.688-5.993-5.992s2.688-5.992,5.993-5.992
			c3.306,0,5.993,2.688,5.993,5.992S87.866,678.414,84.562,678.414z"/>
		<circle cx="84.562" cy="672.422" r="4.778"/>
		<path fill="#FFFFFF" d="M78.083,673.15c-4.332,0-7.854-3.523-7.854-7.854c0-4.332,3.522-7.854,7.854-7.854
			s7.854,3.521,7.854,7.854C85.938,669.627,82.415,673.15,78.083,673.15z"/>
		<circle cx="78.083" cy="665.296" r="6.64"/>
	</g>
	<g>
		<path d="M71.871,634.744c0,0,1.916,6.867,4.749,8.82l-3.196,0.252C73.423,643.816,71.073,640.856,71.871,634.744z"/>
		<path d="M83.756,634.545c0,0-1.685,6.926-4.447,8.973l3.2,0.146C82.509,643.664,84.759,640.626,83.756,634.545z"/>
		<path d="M76.754,644.21c0,0-0.144-8.471,1.188-9.616c0,0,1.457,1.85,1.369,9.874L76.754,644.21z"/>
		<path d="M61.543,649.863c0,0,3.781,0.176,8.152-4.861c0,0,2.305-3.203,8.305-2.45v4.222c0,0-5.438-1.104-8.756,2.563
			C69.244,649.336,66.92,652.503,61.543,649.863z"/>
		<path d="M93.957,649.863c0,0-3.531,0.176-7.902-4.861c0,0-3.055-3.203-8.055-2.45v4.222c0,0,5.188-1.104,8.506,2.563
			C86.506,649.336,88.58,652.503,93.957,649.863z"/>
	</g>
</g>
<g>
	<path d="M171.937,584.674c7.146,0.025,12.601-2.74,12.664-2.771c0,0,3.688-0.979,3.76-0.996c-0.012-0.074-0.355-2.007-0.368-2.08
		c-0.431,0.045-6.395,0.646-14.592-0.683c-8.022-1.3-18.168-4.446-27.306-11.773c-0.052,0.062-1.386,1.688-1.437,1.751
		c2.584,2.231,2.766,2.396,2.779,2.422c-0.001-0.006-0.003-0.01-0.003-0.01c6.627,9.371,14.157,12.803,20.303,13.797
		C169.232,584.571,170.64,584.67,171.937,584.674z"/>
	<path fill="#FFFFFF" d="M172.559,594.532c-2.846,0-5.608-0.354-8.219-1.052c-1.437-0.385-2.854-0.885-4.212-1.486
		c-7.685-3.416-13.374-9.896-16.915-19.264c-0.233-0.354-1.069-1.573-1.954-2.865l-0.898-1.313c0,0,3.038-2.195,3.117-2.254
		l1.31-0.955l0.966,1.302c5.646,7.626,13.301,13.624,22.753,17.827c7.271,3.234,12.903,4.162,13.521,4.259l1.508,0.23
		c0,0-0.301,3.591-0.306,3.641l-0.142,1.479l-5.215,0.005C177.258,594.201,175.275,594.532,172.559,594.532L172.559,594.532z"/>
	<path d="M164.762,591.904c6.904,1.848,12.882,0.563,12.951,0.549c0,0,3.814-0.005,3.891-0.005c0.008-0.075,0.168-2.03,0.174-2.104
		c-0.427-0.064-6.348-1.004-13.937-4.379c-7.427-3.303-16.433-8.933-23.401-18.348c-0.063,0.047-1.607,1.278-1.672,1.327
		c1.929,2.815,2.231,3.021,2.231,3.051c0-0.005,0-0.01,0-0.01c4,10.751,10.267,15.987,15.954,18.517
		C162.335,591.115,163.509,591.57,164.762,591.904z"/>
	<path d="M175.854,593.725c-2.225,0.248-6.479,0.438-11.312-0.848c-1.296-0.345-2.696-0.818-4.146-1.464
		c-5.291-2.353-11.271-7.007-15.434-16.147c0.688,4.746,2.993,13.059,10.729,17.582c0.944,0.556,1.868,1.025,2.768,1.427
		C166.525,597.86,172.665,595.611,175.854,593.725z"/>
</g>
<text transform="matrix(1 0 0 1 59.9998 173)" font-family="'SegoeUI'" font-size="12">Chees</text>
<text transform="matrix(1 0 0 1 149.9998 173.5)" font-family="'SegoeUI'" font-size="12">Beer</text>
<text transform="matrix(1 0 0 1 242.9998 173.5)" font-family="'SegoeUI'" font-size="12">Cake</text>
<text transform="matrix(1 0 0 1 322.0002 173.5)" font-family="'SegoeUI'" font-size="12">Cake</text>
<text transform="matrix(1 0 0 1 392.0002 173.5)" font-family="'SegoeUI'" font-size="12">Chocolate</text>
<text transform="matrix(1 0 0 1 63.9998 262.7002)" font-family="'SegoeUI'" font-size="12">Fish Fry</text>
<text transform="matrix(1 0 0 1 146.9998 262.7002)" font-family="'SegoeUI'" font-size="12">Chicken</text>
<text transform="matrix(1 0 0 1 231.9998 262.7002)" font-family="'SegoeUI'" font-size="12">Tomato</text>
<text transform="matrix(1 0 0 1 310.5002 262.7002)" font-family="'SegoeUI'" font-size="12">Brinjal</text>
<text transform="matrix(1 0 0 1 389.5002 262.7002)" font-family="'SegoeUI'" font-size="12">Capsicum</text>
<text transform="matrix(1 0 0 1 64.9998 352.7002)" font-family="'SegoeUI'" font-size="12">Fish</text>
<text transform="matrix(1 0 0 1 146.9998 352.7002)" font-family="'SegoeUI'" font-size="12">Prawn</text>
<text transform="matrix(1 0 0 1 219.9998 352.7002)" font-family="'SegoeUI'" font-size="12">Strawberry</text>
<text transform="matrix(1 0 0 1 303.5002 352.7002)" font-family="'SegoeUI'" font-size="12">French Fries</text>
<text transform="matrix(1 0 0 1 402.5002 352.7002)" font-family="'SegoeUI'" font-size="12">Apple</text>
<text transform="matrix(1 0 0 1 65.9998 440.7002)" font-family="'SegoeUI'" font-size="12">Juice</text>
<text transform="matrix(1 0 0 1 152.9998 440.7002)" font-family="'SegoeUI'" font-size="12">Milk</text>
<text transform="matrix(1 0 0 1 237.9998 440.7002)" font-family="'SegoeUI'" font-size="12">Juice</text>
<text transform="matrix(1 0 0 1 311.5002 440.7002)" font-family="'SegoeUI'" font-size="12">Noodles</text>
<text transform="matrix(1 0 0 1 402.5002 440.7002)" font-family="'SegoeUI'" font-size="12">Fish</text>
<text transform="matrix(1 0 0 1 55.9998 523.2002)" font-family="'SegoeUI'" font-size="12">Pumpkin</text>
<text transform="matrix(1 0 0 1 143.9998 523.2002)" font-family="'SegoeUI'" font-size="12">Orange</text>
<text transform="matrix(1 0 0 1 235.9998 523.2002)" font-family="'SegoeUI'" font-size="12">Carrot</text>
<text transform="matrix(1 0 0 1 321.0002 523.2002)" font-family="'SegoeUI'" font-size="12">Radish</text>
<text transform="matrix(1 0 0 1 393.5002 524.2002)" font-family="'SegoeUI'" font-size="12">Cabbage</text>
<text transform="matrix(1 0 0 1 62.4998 615.7002)" font-family="'SegoeUI'" font-size="12">Apple</text>
<text transform="matrix(1 0 0 1 145.4998 614.7002)" font-family="'SegoeUI'" font-size="12">Banana</text>
<text transform="matrix(1 0 0 1 232.4998 614.7002)" font-family="'SegoeUI'" font-size="12">Grapes</text>
<text transform="matrix(1 0 0 1 305.5002 614.7002)" font-family="'SegoeUI'" font-size="12">Strawberry</text>
<text transform="matrix(1 0 0 1 391.5002 614.7002)" font-family="'SegoeUI'" font-size="12">Ice Cream</text>
<text transform="matrix(1 0 0 1 51.4998 700.2002)" font-family="'SegoeUI'" font-size="12">Raspberry</text>
<text transform="matrix(1 0 0 1 143.4998 700.2002)" font-family="'SegoeUI'" font-size="12">Orange</text>
<g>
	<path d="M175.202,225.792c-2.006,1.662-3.19,3.523-3.88,4.765c-0.308,0.541-2.159,4.031-5.768,4.357
		c-0.258,0.023-0.447,0.251-0.424,0.508c0.021,0.258,0.25,0.448,0.509,0.424c2.561-0.231,4.301-1.881,5.279-3.149
		c0.437,0.983,1.34,3.452,0.624,5.718c-0.375,1.192-1.163,2.17-2.333,2.924c-0.055-0.016-0.086,0.014-0.124,0.057
		c-0.955,1.072-2.561,1.323-4.688,1.808c-3.396,0.702-6.646,0.082-9.695-1.873c-1.322-0.847-2.056-1.862-2.117-2.935
		c-0.072-1.247,0.732-2.6,2.331-3.909c0.199-0.165,0.229-0.459,0.064-0.66c-0.164-0.2-0.458-0.229-0.658-0.064
		c-1.388,1.137-2.254,2.339-2.557,3.529c-0.1,0.389-0.139,0.775-0.115,1.159c0.021,0.385,0.122,0.759,0.267,1.125
		c-0.571,0.141-3.401,0.72-5.897-0.917c-2.709-1.778-2.422-4.404-2.408-4.514c0.025-0.209-0.091-0.411-0.284-0.491
		c-0.042-0.018-3.99-1.316-3.898-4.678c0.094-3.519,3.383-5.053,6.333-5.025c0.163,0.001,0.315-0.082,0.402-0.222
		c0.026-0.045,2.809-4.489,5.915-5.368c3.282-0.929,6.439,0.078,8.979,0.888c1.031,0.328,6.708,2.004,10.571,1.01
		C171.626,220.257,172.647,223.964,175.202,225.792z"/>
	<path d="M179.546,215.349c-1.167,0.729-6.32,3.991-6.975,4.399c0.502,1.833,1.87,4.279,3.434,5.493
		c0.591-0.364,5.701-3.533,7.244-4.486c-0.474-0.508-0.813-0.935-0.973-1.144C182.277,219.611,180.606,217.837,179.546,215.349z"/>
	<path d="M192.384,217.055c-0.121-0.163-0.263-0.319-0.42-0.472c-0.67,0.32-1.564,0.688-2.702,1.04
		c0.56,0.191,0.984,0.485,1.255,0.841c0.407,0.541,0.438,1.234,0.01,1.806c-0.458,0.61-0.922,0.601-1.197,0.603
		c-1.347,0.006-3.246-1.764-4.253-3.01c6.02-1.132,7.924-2.85,7.924-2.85c0.608-0.542,1.053-1.24,1.271-2.03
		c0.331-1.189,0.109-2.433-0.604-3.414c-0.622-0.852-1.57-1.392-2.673-1.521c-1.101-0.128-2.225,0.181-3.143,0.848
		c0.235,0.639,0.449,1.734,0.087,3.255c0.426-0.529,0.825-0.98,1.139-1.249c0.471-0.403,1.069-0.597,1.646-0.529
		c0.447,0.052,0.821,0.256,1.055,0.574c0.283,0.39,0.374,0.887,0.25,1.372c-0.003,0.013-0.006,0.025-0.01,0.037
		c-0.158,0.57-0.606,1.014-1.196,1.298c-1.788,0.859-3.848,1.362-5.134,1.595c2.188-3.657,1.48-5.994,1.188-6.583
		c-0.771-1.547-2.339-2.318-4.093-2.01c-1.636,0.286-2.423,1.218-2.795,1.951c-1.306,2.571,0.479,6.602,0.87,7.42
		c0.702-0.695,1.275-1.364,1.723-1.937c-0.499-1.306-0.952-2.993-0.643-4.05c0.153-0.523,0.667-1.116,1.256-1.178
		c0.731-0.077,1.283,0.238,1.586,0.847c0.25,0.502,0.309,1.187,0.106,1.977c-0.09,0.354-0.519,2.223-3.472,5.118l1.624,2.261
		c0.337,0.441,3.265,4.161,6.299,4.148c0.826-0.003,2.101-0.218,3.101-1.551C193.498,220.246,193.429,218.438,192.384,217.055z"/>
</g>
<g>
	<path d="M401.349,401.22c0,0-7.657,0.807-8.671,9.44c0,0,2.48,0.07,1.748,0.594c0,0-0.21,0.455-0.979,0.63
		c0,0,3.427,3.184,10.142,0.28c0,0,1.854-1.016,0.21-2.238c0,0-1.119-0.522-0.7-1.816l-1.118-3.461c0,0-1.293-0.598-0.629-2.17
		C401.349,402.479,401.662,401.639,401.349,401.22z"/>
	<ellipse fill="#FFFFFF" cx="398.184" cy="406.517" rx="0.954" ry="0.997"/>
	<path d="M430.823,404.576c0,0,5.979,2.973,11.854-0.419c0,0-2.028,2.657-5.105,3.528c0,0,1.259,2.136,1.084,5.979
		c0,0-1.958-7.238-8.182-7.203L430.823,404.576z"/>
	<path d="M405.736,402.845c0,0,1.227,0.611,1.906-0.472l0.402,0.28l-1.646,1.014l-0.892-0.332L405.736,402.845z"/>
	<g>
		<path d="M405.423,398.23c0,0-3.56,1.814-3.444,6.416l-0.148,0.531l1.759-0.787l0.053-0.394
			C403.639,403.999,401.883,401.666,405.423,398.23z"/>
		<path d="M408.533,397.653c0,0-3.759,2.081-4.144,5.732c0,0-0.02,0.718-0.893,0.629l0.351,0.438l2.046-1.469
			C405.895,402.985,405.336,400.694,408.533,397.653z"/>
		<path d="M411.717,397.197c0,0-2.447,2.449-2.57,5.176l-1.626,0.298C407.52,402.671,408.395,399.227,411.717,397.197z"/>
		<path d="M408.952,402.216c0,0,1.084,0.807,2.274-0.034c0,0,1.223-3.558,5.34-5.21c0,0-3.095,1.993-3.566,5.191l-1.729,1.05
			l-2.202-0.053L408.952,402.216z"/>
		<path d="M412.686,402c0,0,2.229,0.541,3.199-0.457c0,0,2.02-3.545,6.528-5.092c0,0-5.009,3.185-4.642,5.677l-2.963,0.607
			l-2.754-0.146l0.104-0.591L412.686,402L412.686,402z"/>
		<path d="M417.536,402.006c0,0,1.183,0.709,2.36,0.42c0,0,2.964-3.435,7.788-4.354c0,0-4.379,1.86-5.48,4.563l-0.918,0.708
			l-4.379-0.394L417.536,402.006z"/>
		<path d="M422.021,402.531c0,0,0.551,0.786,2.387,0.653c0,0,2.858-2.987,5.743-3.514c0,0-3.672,2.098-4.144,3.881
			c0,0,1.547,1.022,3.461-0.184c0,0,2.148-1.339,3.564-1.26c0,0-2.351,0.682-2.211,2.466l-6.758-0.288l-2.621-0.655L422.021,402.531
			z"/>
	</g>
	<path d="M403.096,408.107c0,0,1.828,3.364,5.972,4.048c0,0-2.466-0.813-4.747-5.012c0,0,0.026-0.892,0.894-0.34
		c0,0,1.312,2.989,6.108,4.644c0,0-5.219-3.646-4.692-5.9l-1.022-0.498l-2.701,1.284l-0.708,1.442L403.096,408.107z"/>
	<path d="M406.419,405.703c0,0,0.918-1.153,1.601-0.262c0,0,1.416,3.305,5.795,5.271c0,0-4.273-3.462-4.248-6.031
		c0,0,0.604-0.84,1.862-0.184c0,0,0.419,0.235,0.576,0.76c0,0,1.469,3.646,5.507,5.009c0,0-3.487-2.518-4.169-5.769
		c0,0,0.472-0.734,1.888-0.341c0,0,0.604,0.288,0.761,0.681c0,0,1.652,3.541,4.825,5.114c0,0-2.911-2.809-3.252-5.744
		c0,0,1.469-0.418,2.675,1.941c0,0,1.73,3.016,4.644,3.75c0,0-3.12-2.729-3.409-4.772c0,0,1.836-0.577,2.646,0.63
		c0,0,1.471,2.884,3.908,4.064c0,0-2.309-2.334-2.358-4.197c0,0,1.311-0.682,2.518,0.421c0,0,2.045,3.619,3.277,3.881
		c0,0-1.546-2.309-0.84-3.593l-2.545-1.6l-8.129-1.284l-7.055-0.63l-5.952,0.787l-1.81,0.682L406.419,405.703z"/>
	<path d="M401.001,404.904l1.299-0.413l0.933-0.442l0.552,0.118l1.396-1.047l0.391,0.289l0.691,0.591h0.367l0.918-0.84l0.498-0.799
		l0.918-0.146l0.313,0.521l2.688-0.323l0.732,0.041l2.793-0.138l2.1-0.409l0.131,0.771l3.409,0.314l0.839-0.289l0.196,0.892
		l3.945,0.458l3.107,0.157l1.152,0.119l0.406,0.171l0.21,0.406l-0.157,1.112l-0.21,0.314l-0.629,0.184c0,0-1.456-0.785-1.532-0.84
		c-0.079-0.053-1.823-0.668-1.823-0.668l-2.648-0.511l-4.052-0.249l-3.842-0.564l-2.139-0.233l-2.738,0.117l-2.979,0.224
		l-1.167,0.786l-0.918,0.826l-0.981,0.551l-1.587,0.669l-1.635,0.655l-0.952-1.26v-1.114H401.001z"/>
</g>
<text transform="matrix(1 0 0 1 173.9998 73)" font-family="'MyriadPro-Regular'" font-size="72">Food</text>
<text transform="matrix(1 0 0 1 413.2463 706.2119)" font-family="'SegoeUI'" font-size="12">Wine</text>
<path d="M413.85,666.4c0.64-3.692,2.407-7.98,2.427-8.028c0.062-0.178,0.104-0.345,0.131-0.506c0.447-0.263,0.89-0.623,1.321-1.081
	c4.409-4.666,7.343-19.016,7.751-22.818l-13.704-2.371l-0.002,0.015c-1.714,10.212-2.834,22.293,0.583,25.784
	c-0.007,0.095-0.022,0.182-0.022,0.284c0.012,0.211,0.214,4.771-0.412,8.395c-0.07,0.397-0.149,0.784-0.238,1.149
	c-0.957,3.922-1.716,5.201-3.242,5.486c-1.533,0.284-4.634,0.113-5.396,0.063c-0.052,0.138-0.174,0.464-0.226,0.603
	c0.604,0.262,3.079,1.23,8.397,2.119c5.293,0.886,8.035,0.867,8.719,0.844c0.005-0.149,0.012-0.492,0.017-0.641
	c-0.747-0.215-3.725-1.1-5.056-1.872c-1.343-0.78-1.626-2.239-1.211-6.256C413.726,667.191,413.781,666.799,413.85,666.4z
	 M450.596,672.771c-0.762,0.051-3.862,0.222-5.396-0.063c-1.525-0.285-2.285-1.565-3.242-5.486
	c-0.089-0.365-0.168-0.752-0.237-1.149c-0.626-3.622-0.424-8.184-0.412-8.395c0-0.104-0.017-0.189-0.023-0.284
	c3.419-3.491,2.297-15.572,0.583-25.784l-0.003-0.015l-13.703,2.371c0.408,3.805,3.343,18.152,7.751,22.818
	c0.434,0.458,0.874,0.817,1.321,1.081c0.026,0.161,0.07,0.328,0.131,0.506c0.021,0.048,1.787,4.336,2.428,8.028
	c0.068,0.397,0.124,0.791,0.162,1.169c0.415,4.017,0.133,5.476-1.211,6.256c-1.331,0.772-4.309,1.657-5.056,1.872
	c0.005,0.147,0.012,0.489,0.017,0.641c0.685,0.023,3.427,0.042,8.72-0.844c5.317-0.889,7.795-1.857,8.396-2.119
	C450.769,673.236,450.647,672.91,450.596,672.771z"/>
<g>
	<path d="M239.547,644.257h-2.738l2.288,34.959h19.363l2.014-34.959h-19.181l-3.855-13.041l-1.746,0.358L239.547,644.257z
		 M239.994,645.737l3.405,11.293c-0.093,0.357-0.642,0.536-1.656,0.536c-0.213,0-0.6-0.09-1.166-0.27l1.256,19.542h13.846
		l1.12-19.362h-0.897c-0.566,0-1.964-0.329-2.684-1.021c-0.716,0.748-0.601,1.11-1.172,1.11c-0.565,0-2.052-0.362-2.591-1.11
		c-0.656,0.748-0.335,1.11-0.901,1.11c-0.688,0-1.242-0.375-1.657-1.122c-0.6,0.688-1.15,1.032-1.659,1.032l-3.494-11.739h17.073
		l-1.748,32.22h-16.491l-2.153-32.22H239.994L239.994,645.737z"/>
</g>
<g>
	<text transform="matrix(1 0 0 1 323.3499 702.9668)" font-family="'SegoeUI-SemiBold'" font-size="12">Burger</text>
</g>
<g>
	<text transform="matrix(1 0 0 1 223.425 702.9668)" font-family="'SegoeUI-SemiBold'" font-size="12">Soft Drink</text>
</g>
<g>
	<rect x="324.15" y="666.604" width="41.753" height="5.34"/>
	<path d="M327.22,656.563c0,0-1.929-2.907-4.5,0c-2.571,2.904-1.929,2.459,0,4.023c1.929,1.563-1.283,4.022,3,3.575
		c4.286-0.446,7.286-2.459,7.286-2.459s1.931,4.353,7.07,2.511c5.145-1.838,6.645-2.286,6.645-2.286s0.428,3.249,6.428,2.742
		c6.002-0.508,8.572-2.967,6.859-3.637c-1.715-0.669,3.856,5.144,6,3.689c2.145-1.455,4.07-3.516,2.356-4.606
		c-1.713-1.096-2.145-5.243-5.786-4.848c-3.643,0.398-6,2.188-8.142,2.188c-2.145,0-7.039-3.354-9.413-1.119
		c-2.376,2.235-5.804-1.97-9.23-1.096C332.364,656.115,327.22,656.563,327.22,656.563"/>
	<path d="M344.943,638.271c-9.298,0-17.021,3.492-20.793,8.625v6.315h41.753v-6.315C362.13,641.765,354.239,638.271,344.943,638.271
		"/>
</g>
<text transform="matrix(1 0 0 1 66.8088 808.4131)" font-family="'MyriadPro-Regular'" font-size="12">Kebab</text>
<g>
	<polygon points="99.292,776.002 104.883,783.65 97.076,778.323 	"/>
	<path d="M88.162,781.699c0,0,1.899-11.764,14.717-14.611c0,0,0.686-0.053,0.686,0.686l0.58,3.851c0,0-0.105,0.527-0.633,0.58
		c0,0-8.07,1.267-10.181,10.233c0,0-0.158,0.633-0.791,0.58l-3.851-0.527C88.69,782.49,88.11,782.49,88.162,781.699z"/>
	<path d="M74.448,767.932c0,0,1.898-11.763,14.716-14.611c0,0,0.686-0.053,0.686,0.686l0.581,3.852c0,0-0.105,0.527-0.634,0.58
		c0,0-8.07,1.266-10.18,10.232c0,0-0.158,0.633-0.791,0.58l-3.851-0.527C74.976,768.723,74.396,768.723,74.448,767.932z"/>
	<path d="M89.586,760.283c0,0-4.8,3.481-8.334,8.387c0,0-1.16,2.374,1.319,4.536c0,0,2.637,3.218,4.958,1.53
		c0,0,5.485-3.429,8.545-8.598c0,0,1.107-1.899-1.529-4.537C94.545,761.602,91.591,758.596,89.586,760.283z"/>
	<path d="M75.714,746.517c0,0-4.8,3.481-8.334,8.387c0,0-1.16,2.373,1.318,4.536c0,0,2.638,3.218,4.958,1.529
		c0,0,5.486-3.428,8.546-8.598c0,0,1.107-1.898-1.53-4.536C80.672,747.835,77.718,744.828,75.714,746.517z"/>
	<path d="M66.061,749.717c0,0,2.286-0.282,2.673,0.422l2.146-2.146c0,0-1.163-1.854-5.734-1.081L66.061,749.717z"/>
	<path d="M67.906,742.763c0,0,0.208,1.951,2.155,1.09c0,0,0.787,0.086,0.734-1.866L67.906,742.763z"/>
	<path d="M65.626,747.571l-0.479-0.661c-0.398,0.132-0.824,0.204-1.267,0.204c-2.233,0-4.044-1.811-4.044-4.044
		s1.811-4.044,4.044-4.044c2.173,0,3.932,1.582,4.026,3.731l1.345,0.014l1.543-0.782c-0.52-3.352-3.417-5.917-6.914-5.917
		c-3.864,0-6.998,3.133-6.998,6.998c0,3.864,3.134,6.998,6.998,6.998c2.036,0,3.868-0.871,5.147-2.259L65.626,747.571z"/>
</g>
</svg>
