<?xml version="1.0" encoding="utf-8"?>
<!-- Generator: Adobe Illustrator 15.1.0, SVG Export Plug-In . SVG Version: 6.00 Build 0)  -->
<!DOCTYPE svg PUBLIC "-//W3C//DTD SVG 1.1//EN" "http://www.w3.org/Graphics/SVG/1.1/DTD/svg11.dtd">
<svg version="1.1" id="Layer_1" xmlns="http://www.w3.org/2000/svg" xmlns:xlink="http://www.w3.org/1999/xlink" x="0px" y="0px"
	 width="512.82px" height="1505.526px" viewBox="0 0 512.82 1505.526" enable-background="new 0 0 512.82 1505.526"
	 xml:space="preserve">
<g>
	<rect x="45.307" y="139.972" width="48" height="35.009"/>
	<rect x="49.683" y="144.348" fill="#FFFFFF" width="39.108" height="22.291"/>
	<circle fill="#FFFFFF" cx="69.239" cy="171.152" r="2.188"/>
	<rect x="63.632" y="178.673" width="11.077" height="4.786"/>
	<rect x="60.35" y="182.229" width="17.504" height="3.692"/>
</g>
<g>
	<g>
		<rect x="149.243" y="149.977" width="25.736" height="25.94"/>
		<path d="M151.285,139.151c-1.128,0-2.042,0.915-2.042,2.043v5.515h4.085v-5.515C153.328,140.065,152.413,139.151,151.285,139.151z
			 M138.315,159.066c0,1.128,0.915,2.042,2.042,2.042h5.617v-4.085h-5.617C139.229,157.023,138.315,157.938,138.315,159.066z
			 M138.315,151.917c0,1.128,0.915,2.042,2.042,2.042h5.617v-4.085h-5.617C139.229,149.875,138.315,150.789,138.315,151.917z
			 M165.787,139.151c-1.128,0-2.042,0.915-2.042,2.043v5.515h4.085v-5.515C167.83,140.065,166.916,139.151,165.787,139.151z
			 M138.315,166.419c0,1.128,0.915,2.042,2.042,2.042h5.617v-4.085h-5.617C139.229,164.376,138.315,165.291,138.315,166.419z
			 M186.315,151.917c0-1.128-0.915-2.042-2.042-2.042h-5.617v4.085h5.617C185.4,153.959,186.315,153.045,186.315,151.917z
			 M172.936,139.151c-1.128,0-2.042,0.915-2.042,2.043v5.515h4.085v-5.515C174.979,140.065,174.064,139.151,172.936,139.151z
			 M158.434,139.151c-1.128,0-2.042,0.915-2.042,2.043v5.515h4.085v-5.515C160.477,140.065,159.562,139.151,158.434,139.151z
			 M184.272,171.525h-5.617v4.085h5.617c1.128,0,2.042-0.915,2.042-2.043C186.315,172.44,185.4,171.525,184.272,171.525z
			 M184.272,164.376h-5.617v4.085h5.617c1.128,0,2.042-0.914,2.042-2.042C186.315,165.291,185.4,164.376,184.272,164.376z
			 M184.272,157.023h-5.617v4.085h5.617c1.128,0,2.042-0.915,2.042-2.042S185.4,157.023,184.272,157.023z M170.894,184.7
			c0,1.128,0.915,2.042,2.042,2.042c1.128,0,2.043-0.915,2.043-2.042v-5.515h-4.085V184.7z M149.243,184.7
			c0,1.128,0.915,2.042,2.042,2.042s2.042-0.915,2.042-2.042v-5.515h-4.085L149.243,184.7L149.243,184.7z M138.315,173.568
			c0,1.128,0.915,2.043,2.042,2.043h5.617v-4.085h-5.617C139.229,171.525,138.315,172.44,138.315,173.568z M163.745,184.7
			c0,1.128,0.915,2.042,2.042,2.042c1.128,0,2.042-0.915,2.042-2.042v-5.515h-4.085L163.745,184.7L163.745,184.7z M156.392,184.7
			c0,1.128,0.915,2.042,2.042,2.042s2.042-0.915,2.042-2.042v-5.515h-4.085L156.392,184.7L156.392,184.7z"/>
	</g>
	<text transform="matrix(1 0 0 1 151.3162 166.4688)" fill="#FFFFFF" font-family="'MyriadPro-Regular'" font-size="12">CPU</text>
</g>
<g>
	<rect x="50.36" y="658.67" width="37.895" height="48"/>
	<circle fill="#FFFFFF" cx="69.458" cy="689" r="15.019"/>
	<polygon fill="#FFFFFF" points="73.388,676.229 77.879,661.631 85.599,666.402 75.774,677.351 	"/>
	<circle cx="69.599" cy="689" r="3.509"/>
</g>
<g>
	<path d="M161.657,696.695c0,1.553-1.259,2.813-2.812,2.813l0,0c-1.556,0-2.813-1.26-2.813-2.813v-24.902
		c0-1.553,1.259-2.813,2.813-2.813l0,0c1.553,0,2.812,1.26,2.812,2.813V696.695z"/>
	<path d="M167.146,703.979c0,1.375-1.259,2.49-2.813,2.49l0,0c-1.553,0-2.812-1.115-2.812-2.49v-22.063
		c0-1.377,1.259-2.492,2.812-2.492l0,0c1.556,0,2.813,1.115,2.813,2.492V703.979z"/>
	<path d="M172.636,703.787c0,1.26-1.262,2.281-2.813,2.281l0,0c-1.553,0-2.812-1.021-2.812-2.281V683.58
		c0-1.26,1.259-2.281,2.812-2.281l0,0c1.553,0,2.813,1.021,2.813,2.281V703.787z"/>
	<path d="M162.01,702.473c0.563,0.941,0.061,2.275-1.126,2.984l0,0c-1.184,0.707-2.6,0.52-3.157-0.422l-9.013-15.07
		c-0.563-0.938-0.059-2.272,1.126-2.979l0,0c1.188-0.707,2.602-0.521,3.161,0.42L162.01,702.473z"/>
	<path d="M176.509,701.248c0,2.994-2.428,5.422-5.423,5.422h-9.64c-2.994,0-5.422-2.428-5.422-5.422v-4.82
		c0-2.994,2.428-5.422,5.422-5.422h9.64c2.995,0,5.423,2.428,5.423,5.422V701.248z"/>
	<path d="M176.461,700.713c-0.128,1.324-1.306,2.295-2.631,2.166l0,0c-1.325-0.129-2.295-1.307-2.167-2.631l1.299-13.393
		c0.128-1.324,1.309-2.295,2.631-2.166l0,0c1.324,0.127,2.298,1.307,2.166,2.631L176.461,700.713z"/>
	<path d="M160.846,664.908c0,1.021-0.828,1.85-1.853,1.85l0,0c-1.021,0-1.85-0.826-1.85-1.85v-4.389c0-1.021,0.828-1.853,1.85-1.853
		l0,0c1.021,0,1.853,0.828,1.853,1.853V664.908z"/>
	<path d="M167.405,669.064c-0.723,0.723-1.894,0.723-2.616,0l0,0c-0.722-0.726-0.722-1.896,0-2.615l3.104-3.104
		c0.722-0.723,1.894-0.723,2.613,0l0,0c0.726,0.726,0.726,1.896,0,2.615L167.405,669.064z"/>
	<path d="M150.504,669.064c0.725,0.723,1.896,0.723,2.616,0l0,0c0.723-0.726,0.723-1.896,0-2.615l-3.104-3.104
		c-0.726-0.723-1.896-0.723-2.616,0l0,0c-0.722,0.726-0.722,1.896,0,2.615L150.504,669.064z"/>
</g>
<g>
	<rect x="435.313" y="143.168" width="28.084" height="7.067"/>
	<rect x="435.359" y="164.553" width="27.992" height="18.172"/>
	<polygon points="466.563,148.4 466.563,153.172 432.238,153.172 432.238,148.4 425.355,148.4 425.355,169.876 432.238,169.876 
		432.238,161.249 466.563,161.249 466.563,169.876 473.355,169.876 473.355,148.4 	"/>
</g>
<g>
	<path d="M348.705,152.78h-0.531c-4.884,0-8.837,4.098-8.837,9.152v0.46c1.391,0.365,4.845,1.159,9.368,1.398V152.78L348.705,152.78
		z M353.098,152.78h-0.536v11.063c2.917-0.074,6.104-0.424,9.372-1.24v-0.672C361.934,156.877,357.978,152.78,353.098,152.78z
		 M339.337,166.456v11.339c0,5.055,3.953,9.152,8.837,9.152h4.927c4.88,0,8.836-4.097,8.836-9.152v-11.318
		C358.825,167.036,348.318,168.625,339.337,166.456z"/>
	<path d="M350.005,150.41c0,0,0.021-0.209,0.05-0.586l0,0c0.022-0.376,0.051-0.912,0.051-1.541l0,0
		c0.002-1.172-0.09-2.668-0.426-4.05l0,0c-0.335-1.386-0.92-2.634-1.819-3.369l0,0c-0.602-0.492-1.34-0.789-2.353-0.792l0,0
		c-1.326-0.003-3.14,0.547-5.511,1.996l0,0l-0.586-0.96c2.479-1.509,4.459-2.158,6.097-2.161l0,0
		c1.24-0.003,2.276,0.396,3.064,1.049l0,0c0.791,0.652,1.339,1.533,1.729,2.489l0,0c0.771,1.914,0.928,4.159,0.93,5.798l0,0
		c0,1.319-0.106,2.242-0.108,2.257l0,0L350.005,150.41L350.005,150.41z"/>
</g>
<g>
	<g>
		<circle cx="256.016" cy="682.67" r="23.996"/>
		<circle fill="#FFFFFF" cx="256.015" cy="682.671" r="3.9"/>
		<path fill="#FFFFFF" d="M261.614,675.715c0,0,4.571,3.922,3.609,7.332l10.646,0.236c0,0,1.012-9.438-8.052-16.244L261.614,675.715
			z"/>
	</g>
	<path fill="#FFFFFF" d="M246.191,689.793c0,0-3.088-2.65-2.438-4.955l-7.192-0.16c0,0-0.685,6.377,5.438,10.979L246.191,689.793z"
		/>
</g>
<g>
	<rect x="331.905" y="669.354" width="42.729" height="26.638"/>
	<rect x="326.635" y="675.734" width="5.271" height="13.596"/>
	<polygon fill="#FFFFFF" points="362.757,678.185 354.738,681.637 354.492,674.115 343.393,686.939 351.162,683.363 
		351.162,690.887 	"/>
</g>
<g>
	<rect x="232.016" y="149.636" width="48" height="26.622"/>
	<rect x="245.354" y="168.163" fill="#FFFFFF" width="21.318" height="4.902"/>
	<rect x="236.804" y="155.052" fill="#FFFFFF" width="5.131" height="4.674"/>
	<rect x="243.645" y="155.052" fill="#FFFFFF" width="5.131" height="4.674"/>
	<rect x="250.314" y="155.052" fill="#FFFFFF" width="5.131" height="4.674"/>
	<rect x="256.813" y="155.052" fill="#FFFFFF" width="5.131" height="4.674"/>
	<rect x="263.483" y="155.052" fill="#FFFFFF" width="5.131" height="4.674"/>
	<rect x="269.981" y="155.052" fill="#FFFFFF" width="5.131" height="4.674"/>
	<rect x="240.054" y="161.721" fill="#FFFFFF" width="5.131" height="4.675"/>
	<rect x="246.894" y="161.721" fill="#FFFFFF" width="5.131" height="4.675"/>
	<rect x="253.563" y="161.721" fill="#FFFFFF" width="5.131" height="4.675"/>
	<rect x="260.063" y="161.721" fill="#FFFFFF" width="5.131" height="4.675"/>
	<rect x="266.732" y="161.721" fill="#FFFFFF" width="5.131" height="4.675"/>
	<rect x="270.153" y="168.22" fill="#FFFFFF" width="5.131" height="4.675"/>
	<rect x="236.975" y="168.22" fill="#FFFFFF" width="5.131" height="4.675"/>
</g>
<g>
	<polygon points="429.259,664.168 429.259,689.469 432.094,689.469 432.094,666.887 466.261,666.887 466.261,689.469 
		468.98,689.469 468.98,664.168 	"/>
	<polygon points="473.355,701.173 425.355,701.173 429.259,692.543 469.1,692.543 	"/>
	<polygon fill="#FFFFFF" points="443.681,696.961 455.03,696.961 453.493,699.518 444.98,699.518 	"/>
</g>
<g>
	<path d="M49.77,249.073c0-11.787,8.721-21.343,19.479-21.343s19.479,9.556,19.479,21.343c0,2.41-0.365,4.728-1.038,6.889
		c2.074-3.29,3.271-7.186,3.271-11.362c0-11.787-9.556-21.343-21.343-21.343s-21.342,9.556-21.342,21.343
		c0,3.136,0.676,6.113,1.891,8.795C49.908,251.999,49.77,250.553,49.77,249.073z"/>
	<path d="M57.765,254.395c0,2.054-1.665,3.718-3.721,3.718l0,0c-2.053,0-3.718-1.664-3.718-3.718v-11.06
		c0-2.053,1.665-3.717,3.718-3.717l0,0c2.057,0,3.721,1.664,3.721,3.717V254.395z"/>
	<path d="M88.667,253.982c0,2.053-1.665,3.717-3.718,3.717l0,0c-2.053,0-3.718-1.664-3.718-3.717v-11.06
		c0-2.054,1.665-3.718,3.718-3.718l0,0c2.054,0,3.718,1.664,3.718,3.718V253.982z"/>
	<ellipse cx="50.376" cy="248.68" rx="4.974" ry="5.758"/>
	<ellipse cx="88.238" cy="248.514" rx="4.971" ry="5.758"/>
	<path d="M90.558,253.112c0,0-2.568,12.096-17.067,14.25l-0.166-2.733c0,0,8.45-1.491,12.344-8.202L90.558,253.112z"/>
	<circle cx="69.183" cy="266.451" r="4.806"/>
</g>
<path d="M350.635,253.343c3.952,0,7.153-3.204,7.153-7.156v-15.774c0-3.952-3.201-7.156-7.153-7.156s-7.156,3.204-7.156,7.156
	v15.774C343.478,250.139,346.682,253.343,350.635,253.343z M366.112,247.747h-3.356c-0.447,6.305-5.699,11.28-12.119,11.28
	c-6.419,0-11.673-4.975-12.121-11.28h-3.357c0,7.882,5.896,14.374,13.517,15.34v4.304h-5.278v3.866h14.448v-3.866h-5.241v-4.304
	C360.219,262.12,366.112,255.629,366.112,247.747z"/>
<path d="M250.705,223.312h-5.992v12.222h5.992V223.312z M271.556,223.256v14.673h-31.368v-14.673h-7.914v48h47.481v-48H271.556z
	 M271.556,265.129h-31.157v-4.851h31.157V265.129z"/>
<g>
	<g>
		<path d="M447.789,258.36c0,3.498,2.839,6.333,6.333,6.333h4.84c3.494,0,6.333-2.835,6.333-6.333v-21.418
			c0-3.497-2.839-6.333-6.333-6.333h-4.84c-3.494,0-6.333,2.836-6.333,6.333V258.36z"/>
		<circle fill="#FFFFFF" cx="456.541" cy="241.664" r="3.915"/>
		<circle fill="#FFFFFF" cx="456.541" cy="254.791" r="3.915"/>
		<g>
			<path d="M458.977,263.063c-1.34-1.502-3.533-1.502-4.873,0c-1.341,1.502-3.534,3.96-4.875,5.462
				c-1.34,1.502-0.243,2.731,2.438,2.731c2.684,0,7.067,0,9.748,0c2.685,0,3.778-1.229,2.438-2.731S460.317,264.565,458.977,263.063
				z"/>
		</g>
	</g>
	<path d="M446.009,232.102l0.436-2.87c0,0-3.697-0.305-5.307,1.304c0,0-3.308,2.262-2.651,6.654l2.826-0.392
		C441.31,236.798,440.421,231.994,446.009,232.102z"/>
	<path d="M443.008,227.281l0.604-3.992c0,0-5.142-0.424-7.38,1.814c0,0-4.598,3.146-3.69,9.256l3.936-0.544
		C436.472,233.815,435.23,227.129,443.008,227.281z"/>
</g>
<g>
	<g>
		<path d="M58.512,759.465l0.317-2.104c0,0-2.711-0.226-3.891,0.956c0,0-2.424,1.655-1.945,4.878l2.072-0.287
			C55.068,762.908,54.414,759.387,58.512,759.465z"/>
		<path d="M56.313,755.931l0.44-2.927c0,0-3.771-0.311-5.409,1.33c0,0-3.371,2.307-2.705,6.787l2.883-0.4
			C51.521,760.721,50.611,755.82,56.313,755.931z"/>
	</g>
	<g>
		<path d="M69.076,759.787c0.676,0.375,1.285,0.891,1.781,1.547l18.053,23.891c1.896,2.514,1.4,6.084-1.111,7.981l-8.762,6.622
			c-2.512,1.896-6.084,1.396-7.979-1.111l-18.056-23.891c-0.43-0.567-0.731-1.191-0.924-1.836L69.076,759.787z"/>
		<circle fill="#FFFFFF" cx="68.561" cy="769.989" r="2.485"/>
		<circle cx="60.773" cy="765.736" r="2.485"/>
		<circle fill="#FFFFFF" cx="61.229" cy="775.474" r="2.485"/>
		<circle fill="#FFFFFF" cx="66.204" cy="781.682" r="2.486"/>
		<circle fill="#FFFFFF" cx="73.277" cy="776.163" r="2.485"/>
		<circle fill="#FFFFFF" cx="71.258" cy="788.296" r="2.485"/>
		<circle fill="#FFFFFF" cx="78.329" cy="782.776" r="2.486"/>
		
			<rect x="80.378" y="787.432" transform="matrix(0.7945 -0.6073 0.6073 0.7945 -461.615 212.2681)" fill="#FFFFFF" width="4.882" height="1.481"/>
		
			<rect x="72.908" y="792.886" transform="matrix(0.7945 -0.6072 0.6072 0.7945 -466.4137 208.8075)" fill="#FFFFFF" width="4.884" height="1.482"/>
	</g>
</g>
<text transform="matrix(1 0 0 1 37.2185 394.2363)" font-family="'SegoeUI-SemiBold'" font-size="12">Night Lamp</text>
<text transform="matrix(1 0 0 1 46.7136 204.2363)" font-family="'SegoeUI-SemiBold'" font-size="12">Desktop</text>
<text transform="matrix(1 0 0 1 150.863 204.2363)" font-family="'SegoeUI-SemiBold'" font-size="12">CPU</text>
<text transform="matrix(1 0 0 1 229.9475 204.2363)" font-family="'SegoeUI-SemiBold'" font-size="12">Keyboard</text>
<text transform="matrix(1 0 0 1 332.2283 204.2363)" font-family="'SegoeUI-SemiBold'" font-size="12">Mouse</text>
<text transform="matrix(1 0 0 1 430.9822 204.7363)" font-family="'SegoeUI-SemiBold'" font-size="12">Printer</text>
<text transform="matrix(1 0 0 1 37.5828 291.5693)" font-family="'SegoeUI-SemiBold'" font-size="12">Headphone</text>
<text transform="matrix(1 0 0 1 116.7209 296.2363)" font-family="'SegoeUI-SemiBold'" font-size="12">Wireless Modem</text>
<text transform="matrix(1 0 0 1 237.571 291.5693)" font-family="'SegoeUI-SemiBold'" font-size="12">Floppy</text>
<text transform="matrix(1 0 0 1 337.1833 291.5693)" font-family="'SegoeUI-SemiBold'" font-size="12">Mike</text>
<text transform="matrix(1 0 0 1 427.5955 291.5693)" font-family="'SegoeUI-SemiBold'" font-size="12">Speaker</text>
<text transform="matrix(1 0 0 1 313.0154 394.2363)" font-family="'SegoeUI-SemiBold'" font-size="12">Bread Toaster</text>
<text transform="matrix(1 0 0 1 416.449 825.96)" font-family="'SegoeUI-SemiBold'" font-size="12">Refrigerator</text>
<text transform="matrix(1 0 0 1 136.9763 394.2363)" font-family="'SegoeUI-SemiBold'" font-size="12">Washing </text>
<text transform="matrix(1 0 0 1 135.8801 408.6367)" font-family="'SegoeUI-SemiBold'" font-size="12">Meachine</text>
<text transform="matrix(1 0 0 1 230.8538 394.2363)" font-family="'SegoeUI-SemiBold'" font-size="12">Table fan</text>
<text transform="matrix(1 0 0 1 418.0662 394.2363)" font-family="'SegoeUI-SemiBold'" font-size="12">Microwave </text>
<text transform="matrix(1 0 0 1 436.0398 408.6367)" font-family="'SegoeUI-SemiBold'" font-size="12">oven</text>
<text transform="matrix(1 0 0 1 54.4333 933.96)" font-family="'SegoeUI-SemiBold'" font-size="12">Mixie</text>
<text transform="matrix(1 0 0 1 130.8591 933.96)" font-family="'SegoeUI-SemiBold'" font-size="12">Table Lamp</text>
<text transform="matrix(1 0 0 1 243.8254 933.96)" font-family="'SegoeUI-SemiBold'" font-size="12">Plug</text>
<text transform="matrix(1 0 0 1 325.7751 933.96)" font-family="'SegoeUI-SemiBold'" font-size="12">Projector</text>
<text transform="matrix(1 0 0 1 420.3767 933.96)" font-family="'SegoeUI-SemiBold'" font-size="12">Handycam</text>
<text transform="matrix(1 0 0 1 48.5955 515.126)" font-family="'SegoeUI-SemiBold'" font-size="12">Camera</text>
<text transform="matrix(1 0 0 1 150.366 515.126)" font-family="'SegoeUI-SemiBold'" font-size="12">Dish</text>
<text transform="matrix(1 0 0 1 234.2043 515.126)" font-family="'SegoeUI-SemiBold'" font-size="12">Satellite</text>
<text transform="matrix(1 0 0 1 311.1677 827.2178)" font-family="'SegoeUI-SemiBold'" font-size="12">Tape Recorder</text>
<g>
	<polygon points="84.283,318.247 54.494,318.247 46.829,339.448 91.785,339.448 	"/>
	<rect x="64.633" y="343.144" width="9.352" height="4.838"/>
	<path d="M64.542,347.765h9.404c0,0,8.862,2.663,4.784,11.741c0,0-1.576,4.293-4.567,6.741h-9.785c0,0-2.822-2.5-4.563-6.252
		C59.813,359.995,55.574,351.08,64.542,347.765z"/>
	<rect x="54.63" y="338.822" width="1.875" height="6.034"/>
	<circle cx="55.567" cy="346.406" r="1.794"/>
</g>
<g>
	<rect x="434.993" y="752.98" width="28.727" height="15.422"/>
	<rect x="434.993" y="770.428" width="28.727" height="27.17"/>
	<rect x="434.993" y="798.734" width="28.727" height="2.246"/>
	<path fill="#FFFFFF" d="M440.988,785.255c0,0.688-0.559,1.247-1.246,1.247l0,0c-0.688,0-1.248-0.559-1.248-1.247v-9.97
		c0-0.688,0.563-1.246,1.248-1.246l0,0c0.688,0,1.246,0.558,1.246,1.246V785.255z"/>
	<path fill="#FFFFFF" d="M440.988,765.137c0,0.656-0.532,1.188-1.188,1.188l0,0c-0.656,0-1.188-0.531-1.188-1.188v-6.467
		c0-0.655,0.53-1.188,1.188-1.188l0,0c0.652,0,1.188,0.53,1.188,1.188V765.137z"/>
</g>
<g>
	<rect x="141.423" y="318.247" width="41.784" height="10.381"/>
	<rect x="141.423" y="331.127" width="41.784" height="35.12"/>
	<circle fill="#FFFFFF" cx="162.251" cy="348.815" r="11.407"/>
	<path d="M171.124,346.406c-0.033,1.176-1.058,2.121-2.317,2.121c-1.016,0-1.872-0.608-2.19-1.456
		c-0.329,0.814-1.152,1.393-2.119,1.393c-0.97,0-1.794-0.582-2.122-1.399c-0.337,0.8-1.149,1.367-2.105,1.367
		c-1.021,0-1.879-0.64-2.169-1.522c-0.341,0.832-1.221,1.425-2.254,1.425c-1.278,0-2.321-0.907-2.396-2.051h-0.036
		c-0.229,0.804-0.354,1.654-0.354,2.531c0,5.079,4.114,9.196,9.193,9.196c5.078,0,9.196-4.118,9.196-9.196
		C171.447,347.982,171.332,347.173,171.124,346.406z"/>
	<circle fill="#FFFFFF" cx="147.799" cy="323.501" r="2.5"/>
	<circle fill="#FFFFFF" cx="155.682" cy="323.501" r="2.499"/>
	<rect x="177.503" y="322.157" fill="#FFFFFF" width="2.021" height="1.825"/>
</g>
<g>
	<path d="M263.775,362.05c0,0.191-0.155,0.346-0.346,0.346h-2.685c-0.189,0-0.348-0.154-0.348-0.346v-1.643
		c0-0.192,0.155-0.348,0.348-0.348h2.685c0.188,0,0.346,0.155,0.346,0.348V362.05z"/>
	<path d="M251.66,362.05c0,0.191-0.155,0.346-0.346,0.346h-2.687c-0.188,0-0.346-0.154-0.346-0.346v-1.643
		c0-0.192,0.155-0.348,0.346-0.348h2.687c0.188,0,0.346,0.155,0.346,0.348V362.05z"/>
	<circle cx="256.016" cy="337.399" r="19.153"/>
	<circle fill="#FFFFFF" cx="256.016" cy="337.399" r="16.847"/>
	<circle cx="256.219" cy="337.487" r="4.125"/>
	<path d="M251.978,334.343c0,0,2.771-3.807,7.212-1.211c0,0,2.596-3.23,4.615-4.037c0,0,4.44-2.25-1.731-5.021
		c0,0-7.096-3.288-12.519,1.153C249.555,325.228,245.458,328.112,251.978,334.343z"/>
	<path d="M261.354,335.406c0,0,1.893,4.312-2.587,6.839c0,0,1.479,3.871,1.161,6.022c0,0-0.297,4.97,5.208,1.034
		c0,0,6.416-4.473,5.312-11.395C270.448,337.907,270.021,332.915,261.354,335.406z"/>
	<path d="M256.094,343.017c0,0-4.708-0.035-5.187-5.158c0,0-4.137-0.23-5.97-1.402c0,0-4.416-2.301-3.074,4.33
		c0,0,1.459,7.684,8.227,9.508C250.093,350.294,254.822,351.944,256.094,343.017z"/>
	<rect x="252.728" y="355.804" width="6.521" height="8.25"/>
	<path d="M268.623,366.247v-3.289c0-0.669-0.544-1.211-1.213-1.211h-22.846c-0.67,0-1.212,0.542-1.212,1.211v3.289H268.623z"/>
</g>
<g>
	<g>
		<rect x="330.958" y="333.454" width="39.354" height="27.768"/>
		<rect x="334.195" y="362.415" width="9.113" height="3.832"/>
		<rect x="358.218" y="362.415" width="9.025" height="3.832"/>
		<rect x="358.218" y="337.032" fill="#FFFFFF" width="9.625" height="20.612"/>
		<rect x="362.219" y="338.481" width="1.445" height="17.205"/>
		<path d="M362.729,330.001v-7.797c0-2.186-1.297-3.957-2.896-3.957h-14.479c-1.6,0-2.896,1.771-2.896,3.957v7.797H362.729z"/>
		<ellipse fill="#FFFFFF" cx="356.469" cy="323.742" rx="1.661" ry="1.063"/>
		<path fill="#FFFFFF" d="M361.621,348.02c-1.596,0-2.896-1.299-2.896-2.897c0-1.597,1.3-2.895,2.896-2.895h2.813
			c1.597,0,2.896,1.298,2.896,2.895c0,1.598-1.299,2.897-2.896,2.897H361.621z"/>
		<path d="M366.477,345.123c0,1.129-0.916,2.045-2.044,2.045h-2.813c-1.129,0-2.044-0.916-2.044-2.045l0,0
			c0-1.128,0.915-2.043,2.044-2.043h2.813C365.561,343.079,366.477,343.995,366.477,345.123L366.477,345.123z"/>
	</g>
	<rect x="335.81" y="340.866" fill="#FFFFFF" width="17" height="2.125"/>
	<rect x="335.81" y="346.949" fill="#FFFFFF" width="17" height="2.125"/>
	<rect x="335.81" y="353.033" fill="#FFFFFF" width="17" height="2.124"/>
</g>
<g>
	<rect x="425.355" y="321.747" width="48" height="34.166"/>
	<path fill="#FFFFFF" d="M470.814,328.806c0,0.728-0.591,1.318-1.318,1.318h-4.895c-0.729,0-1.318-0.59-1.318-1.318l0,0
		c0-0.728,0.595-1.317,1.318-1.317h4.895C470.224,327.489,470.814,328.078,470.814,328.806L470.814,328.806z"/>
	<path fill="#FFFFFF" d="M470.814,333.323c0,0.728-0.591,1.318-1.318,1.318h-4.895c-0.729,0-1.318-0.59-1.318-1.318l0,0
		c0-0.728,0.595-1.317,1.318-1.317h4.895C470.224,332.006,470.814,332.595,470.814,333.323L470.814,333.323z"/>
	<path fill="#FFFFFF" d="M470.814,338.03c0,0.727-0.591,1.317-1.318,1.317h-4.895c-0.729,0-1.318-0.59-1.318-1.317l0,0
		c0-0.728,0.595-1.318,1.318-1.318h4.895C470.224,336.711,470.814,337.302,470.814,338.03L470.814,338.03z"/>
	<circle fill="#FFFFFF" cx="467.052" cy="345.089" r="1.756"/>
	<circle fill="#FFFFFF" cx="467.052" cy="350.17" r="1.756"/>
	<path d="M459.989,358.511v1.036c0,1.768,1.436,3.201,3.2,3.201h1.225c1.77,0,3.199-1.433,3.199-3.201v-1.036H459.989z"/>
	<path d="M431.382,358.511v1.036c0,1.768,1.432,3.201,3.195,3.201h1.228c1.767,0,3.199-1.433,3.199-3.201v-1.036H431.382z"/>
	<path fill="#FFFFFF" d="M460.367,346.688c0,0.936-0.759,1.695-1.692,1.695h-27.016c-0.935,0-1.689-0.759-1.689-1.695v-19.012
		c0-0.935,0.758-1.693,1.689-1.693h27.016c0.937,0,1.692,0.759,1.692,1.693V346.688z"/>
</g>
<g>
	<rect x="251.394" y="857.457" transform="matrix(0.7646 -0.6446 0.6446 0.7646 -498.1511 367.206)" width="4.345" height="16.06"/>
	
		<rect x="270.749" y="897.048" transform="matrix(0.7646 -0.6446 0.6446 0.7646 -516.6773 388.1126)" width="4.345" height="8.504"/>
	
		<rect x="239.26" y="867.733" transform="matrix(0.7644 -0.6448 0.6448 0.7644 -507.7655 361.9998)" width="4.342" height="16.056"/>
	<polygon points="264.06,900.746 273.915,892.436 270.716,881.607 253.929,895.762 	"/>
	<path d="M268.349,870.445c0.28,0.278,0.563,0.563,0.828,0.877c5.221,6.188,3.823,15.953-3.111,21.803
		c-6.938,5.852-16.795,5.576-22.019-0.615c-0.262-0.311-0.491-0.637-0.725-0.963L268.349,870.445z"/>
</g>
<g>
	<path d="M176.527,871.408l-0.799-0.477l-4.606-8.191c-0.939-1.678-3.063-2.271-4.743-1.33l-3.037,1.709
		c-1.677,0.938-2.271,3.063-1.325,4.74l4.604,8.192l-0.012,0.931l-0.131,11.377l9.919-5.572l9.92-5.578L176.527,871.408z"/>
	
		<rect x="146.231" y="869.814" transform="matrix(-0.9643 0.2648 -0.2648 -0.9643 533.2058 1672.6418)" width="15.217" height="4.907"/>
	
		<rect x="140.513" y="884.472" transform="matrix(-0.2647 -0.9643 0.9643 -0.2647 -667.4985 1264.9043)" width="15.925" height="4.906"/>
	<path fill="#FFFFFF" d="M144.492,881.324c-3.404,0-6.177-2.771-6.177-6.178c0-3.404,2.771-6.181,6.177-6.181
		s6.178,2.773,6.178,6.181C150.669,878.553,147.898,881.324,144.492,881.324L144.492,881.324z"/>
	<circle cx="144.494" cy="875.146" r="2.469"/>
	<rect x="141.8" y="898.064" width="24.685" height="4.914"/>
</g>
<path d="M79.006,865.373c-1.711-0.826-2.063-1.082-2.133-1.646c0.072-0.918,0.119-1.645,0.119-1.897
	c0-0.729-2.838-0.729-2.838-0.729v-0.189c0-0.996-2.963-1.207-2.963-1.207v-0.815c0-0.796-0.623-0.911-0.91-0.911
	c-0.258,0-1.619,0-1.904,0c-0.03,0-0.053,0-0.053,0c-0.283,0-1.646,0-1.902,0c-0.289,0-0.908,0.115-0.908,0.911v0.815
	c0,0-2.967,0.211-2.967,1.207v0.114c-0.514,0.029-2.231,0.152-3.069,0.423c-0.992,0.314-0.81,0.53-0.374,0.963
	c0.386,0.387,0.607,0.556,0.715,1.141c0.132,1.699,0.355,4.166,0.524,5.491c0.249,1.976,1.385,11.247,1.729,12.282
	s0.777,1.957,2.042,2.935h-1.007c0,0-0.349-0.229-0.691,1.151s-0.947,2.963-0.92,3.135c0.029,0.173-0.258,0.489-0.488,1.035
	c-0.229,0.547-2.614,6.156-2.989,9.925c-0.373,3.769-0.722,4.286-0.06,4.775c0.66,0.484,3.599,1.693,6.817,1.693
	c2.741,0,3.421,0,3.563,0c0,0,0.009,0,0.034,0c0.144,0,0.821,0,3.563,0c3.223,0,6.153-1.209,6.815-1.693
	c0.661-0.489,0.315-1.009-0.059-4.775c-0.375-3.769-2.761-9.378-2.99-9.925c-0.229-0.546-0.52-0.862-0.49-1.035
	c0.029-0.172-0.572-1.755-0.92-3.135c-0.346-1.381-0.688-1.151-0.688-1.151h-1.007c1.025-0.792,1.505-1.548,1.831-2.356
	l-0.001,0.011c0,0,0.005-0.013,0.009-0.025c0.02-0.047,0.039-0.094,0.057-0.141c0.117-0.263,0.429-0.734,1.146-0.755
	c0.625-0.021,2.841-0.538,3.722-1.729c0.883-1.188,1.266-5.715,1.534-8.285C81.154,868.403,81.308,866.486,79.006,865.373z
	 M78.854,877.225c-0.31,0.959-1.535,2.228-3.068,2.228c0,0-0.41,0.021-0.729-0.464c0.473-3.18,1.127-8.51,1.309-9.949
	c0.057-0.456,0.121-1.048,0.188-1.694c0.016-0.094,0.028-0.196,0.041-0.317c0,0,0.114-0.65,0.614-0.613
	c0.498,0.039,2.338,0.576,2.491,1.268C79.85,868.365,79.16,876.266,78.854,877.225z"/>
<g>
	<path d="M366.236,770.665h8.397v19.799h-48v-19.799h8.602l0.006-4.274c0-1.6,1.296-2.895,2.895-2.895h25.181
		c1.601,0,2.896,1.295,2.896,2.895L366.236,770.665z"/>
	<path fill="#FFFFFF" d="M365.197,788.172c4.023,0,7.281-3.266,7.281-7.282c0-4.022-3.258-7.286-7.281-7.286
		c-4.021,0-7.281,3.264-7.281,7.286C357.916,784.906,361.177,788.172,365.197,788.172z"/>
	<path fill="#FFFFFF" d="M336.154,788.172c4.019,0,7.283-3.266,7.283-7.282c0-4.022-3.268-7.286-7.283-7.286
		c-4.022,0-7.287,3.264-7.287,7.286C328.867,784.906,332.132,788.172,336.154,788.172z"/>
	<rect x="345.243" y="773.665" fill="#FFFFFF" width="10.891" height="7.263"/>
	<rect x="338.135" y="765.967" fill="#FFFFFF" width="25.201" height="4.698"/>
</g>
<g>
	<rect x="326.635" y="874.329" width="48" height="17.633"/>
	<path fill="#FFFFFF" d="M369.408,882.82c0,3.429-2.774,6.203-6.204,6.203c-3.427,0-6.205-2.774-6.205-6.203
		c0-3.432,2.778-6.203,6.205-6.203C366.634,876.617,369.408,879.392,369.408,882.82z"/>
	<circle cx="363.204" cy="882.82" r="4.491"/>
	<rect x="331.122" y="879.143" fill="#FFFFFF" width="13.717" height="2.449"/>
	<rect x="331.205" y="884.205" fill="#FFFFFF" width="13.717" height="2.449"/>
	<polygon points="330.132,868.122 370.264,868.122 374.062,871.796 326.878,871.796 	"/>
	<circle fill="#FFFFFF" cx="360.963" cy="880.899" r="2.491"/>
	<path d="M337.005,892.471c0,1.854-1.5,3.352-3.352,3.352c-1.849,0-3.349-1.496-3.349-3.352c0-1.852,1.5-3.349,3.349-3.349
		C335.505,889.122,337.005,890.619,337.005,892.471z"/>
	<path d="M371.287,892.471c0,1.854-1.5,3.352-3.348,3.352c-1.849,0-3.349-1.496-3.349-3.352c0-1.852,1.5-3.349,3.349-3.349
		C369.787,889.122,371.287,890.619,371.287,892.471z"/>
</g>
<g>
	<path d="M425.355,897.774v-18.958c0-1.611,1.306-2.917,2.916-2.917h19.566c1.608,0,2.916,1.306,2.916,2.917v18.958H425.355z"/>
	<circle cx="437.951" cy="876.92" r="10.753"/>
	<circle fill="#FFFFFF" cx="437.953" cy="876.92" r="7.742"/>
	<circle cx="437.952" cy="876.92" r="5.162"/>
	<rect x="449.565" y="883.802" width="3.655" height="7.527"/>
	<rect x="469.943" y="885.742" width="3.412" height="4.171"/>
	<rect x="452.791" y="879.931" width="19.145" height="15.058"/>
	<circle fill="#FFFFFF" cx="445.101" cy="893.126" r="1.935"/>
	<circle fill="#FFFFFF" cx="435.264" cy="873.908" r="1.935"/>
</g>
<g>
	<rect x="45.307" y="451.632" width="48" height="32.729"/>
	<path d="M80.622,451.486c0,1.463-1.654,2.646-3.117,2.646H61.532c-1.463,0-3.273-1.187-3.273-2.646l0.624-2.649
		c0-1.463,1.188-2.646,2.649-2.646h15.973c1.463,0,2.649,1.187,2.649,2.646L80.622,451.486z"/>
	<circle fill="#FFFFFF" cx="69.632" cy="467.77" r="13.09"/>
	<circle cx="69.632" cy="467.77" r="9.35"/>
	<circle fill="#FFFFFF" cx="65.308" cy="463.446" r="5.025"/>
	<circle fill="#FFFFFF" cx="50.058" cy="456.073" r="1.714"/>
</g>
<g>
	<g>
		<path d="M175.189,792.516c0,3.313-2.688,6-6,6h-13.75c-3.313,0-6-2.687-6-6v-5c0-3.313,2.688-6,6-6h13.75c3.313,0,6,2.688,6,6
			V792.516z"/>
		<path fill="#FFFFFF" d="M162.314,788.107c-10.603,0-19.226-8.625-19.226-19.228c0-10.6,8.623-19.225,19.226-19.225
			c10.601,0,19.225,8.625,19.225,19.225C181.539,779.482,172.915,788.107,162.314,788.107L162.314,788.107z"/>
		<circle cx="162.315" cy="768.883" r="16.267"/>
		<circle fill="#FFFFFF" cx="162.314" cy="771.594" r="8.01"/>
		<circle cx="162.314" cy="771.594" r="4.067"/>
		<circle cx="162.314" cy="752.494" r="4.066"/>
	</g>
	<circle fill="#FFFFFF" cx="162.315" cy="798.365" r="7.167"/>
</g>
<g>
	<rect x="154.863" y="479.641" width="4.631" height="8.068"/>
	<rect x="169.873" y="450.177" transform="matrix(0.7161 0.698 -0.698 0.7161 365.9168 8.7595)" width="4.635" height="8.065"/>
	<polygon points="146.546,487.261 138.38,487.261 150.531,475.309 154.863,479.641 	"/>
	<circle cx="175.132" cy="451.179" r="3.787"/>
	<path fill="#FFFFFF" d="M166.961,482.876c-12.75,0-23.354-9.977-24.134-22.718c-0.39-6.419,1.723-12.603,5.959-17.413l1.597-1.816
		l1.793,1.615l32.4,29.118l1.804,1.615l-1.646,1.771c-4.258,4.636-10.038,7.396-16.271,7.772
		C167.958,482.858,167.459,482.876,166.961,482.876L166.961,482.876z"/>
	<path d="M150.584,444.314c-3.653,4.169-5.732,9.72-5.372,15.688c0.735,12.026,11.076,21.177,23.104,20.443
		c5.848-0.359,10.988-3.019,14.669-7.009L150.584,444.314z"/>
	<rect x="138.25" y="485.868" width="29.75" height="3.75"/>
</g>
<g>
	<path d="M251.644,477.219c-1.87,1.767-4.672,1.832-6.258,0.15l-2.678-2.837c-1.585-1.685-1.354-4.477,0.519-6.237l6.158-5.809
		c1.868-1.767,4.673-1.831,6.258-0.149l2.675,2.836c1.586,1.681,1.354,4.478-0.52,6.239L251.644,477.219z"/>
	<circle cx="261.98" cy="458.521" r="2.363"/>
	<path d="M257.805,455.126c-1.022,0.957-1.673,2.305-1.695,3.81c-0.048,2.956,2.324,5.396,5.3,5.44
		c1.514,0.024,2.892-0.575,3.887-1.561L257.805,455.126z"/>
	<path d="M262.161,449.383l0.021,2.567c0,0,6.646,0.105,6.826,6.995l2.449,0.039C271.457,458.984,271.431,449.824,262.161,449.383z"
		/>
	<path d="M264.044,441.273l0.028,4.47c0,0,11.575,0.188,11.889,12.177l4.268,0.069C280.226,457.989,280.179,442.043,264.044,441.273
		z"/>
	
		<rect x="233.014" y="452.11" transform="matrix(-0.6859 -0.7277 0.7277 -0.6859 72.4854 945.0728)" width="14.352" height="9.569"/>
	
		<rect x="255.538" y="475.988" transform="matrix(-0.6859 -0.7277 0.7277 -0.6859 93.0611 1001.7117)" width="14.353" height="9.568"/>
</g>
<text transform="matrix(1 0 0 1 327.3474 1044.8496)" font-family="'SegoeUI-SemiBold'" font-size="12">Diagram</text>
<text transform="matrix(1 0 0 1 31.4587 1153.5156)" font-family="'SegoeUI-SemiBold'" font-size="12">Data Network</text>
<text transform="matrix(1 0 0 1 120.7205 1153.5156)" font-family="'SegoeUI-SemiBold'" font-size="12">Network Home</text>
<text transform="matrix(1 0 0 1 244.4534 1153.5156)" font-family="'SegoeUI-SemiBold'" font-size="12">LAN</text>
<text transform="matrix(1 0 0 1 319.5525 1153.5156)" font-family="'SegoeUI-SemiBold'" font-size="12">Data Shield</text>
<text transform="matrix(1 0 0 1 416.7849 1153.5156)" font-family="'SegoeUI-SemiBold'" font-size="12">Data Secure</text>
<text transform="matrix(1 0 0 1 45.6062 1232.8496)" font-family="'SegoeUI-SemiBold'" font-size="12">Fire Wall</text>
<text transform="matrix(1 0 0 1 147.6843 1232.8496)" font-family="'SegoeUI-SemiBold'" font-size="12">Tools</text>
<text transform="matrix(1 0 0 1 56.7097 630.46)" font-family="'SegoeUI-SemiBold'" font-size="12">Web</text>
<text transform="matrix(1 0 0 1 137.9207 630.46)" font-family="'SegoeUI-SemiBold'" font-size="12">Briefcase</text>
<text transform="matrix(1 0 0 1 247.9866 630.46)" font-family="'SegoeUI-SemiBold'" font-size="12">CD</text>
<text transform="matrix(1 0 0 1 311.0017 630.46)" font-family="'SegoeUI-SemiBold'" font-size="12">Folder Sharing</text>
<text transform="matrix(1 0 0 1 403.4607 630.46)" font-family="'SegoeUI-SemiBold'" font-size="12">Network Sharing</text>
<text transform="matrix(1 0 0 1 430.3083 720.46)" font-family="'SegoeUI-SemiBold'" font-size="12">Laptop</text>
<text transform="matrix(1 0 0 1 329.4333 720.46)" font-family="'SegoeUI-SemiBold'" font-size="12">Battery </text>
<text transform="matrix(1 0 0 1 325.7634 734.8594)" font-family="'SegoeUI-SemiBold'" font-size="12">Charging</text>
<text transform="matrix(1 0 0 1 243.5593 720.46)" font-family="'SegoeUI-SemiBold'" font-size="12">DVD</text>
<text transform="matrix(1 0 0 1 145.6082 720.46)" font-family="'SegoeUI-SemiBold'" font-size="12">Touch</text>
<text transform="matrix(1 0 0 1 56.2878 720.46)" font-family="'SegoeUI-SemiBold'" font-size="12">HDD</text>
<text transform="matrix(1 0 0 1 48.1326 820.46)" font-family="'SegoeUI-SemiBold'" font-size="12">Remote</text>
<text transform="matrix(1 0 0 1 135.8962 820.46)" font-family="'SegoeUI-SemiBold'" font-size="12">Web Cam</text>
<text transform="matrix(1 0 0 1 246.8635 820.46)" font-family="'SegoeUI-SemiBold'" font-size="12">Fax</text>
<text transform="matrix(1 0 0 1 325.9822 515.127)" font-family="'SegoeUI-SemiBold'" font-size="12">Pie Chart</text>
<text transform="matrix(1 0 0 1 423.99 515.127)" font-family="'SegoeUI-SemiBold'" font-size="12">Bar Chart</text>
<g>
	<circle cx="350.635" cy="465.273" r="24"/>
	<path fill="#FFFFFF" d="M350.635,444.112v21.161l-18.324,10.576c3.66,6.325,10.493,10.582,18.324,10.582s14.666-4.26,18.319-10.582
		c1.806-3.111,2.84-6.724,2.84-10.576C371.796,453.587,362.319,444.112,350.635,444.112z"/>
	<path d="M350.635,444.112c-11.688,0-21.16,9.475-21.16,21.161c0,3.854,1.036,7.465,2.836,10.576l18.324-10.576V444.112z"/>
	
		<rect x="346.851" y="468.336" transform="matrix(-0.8744 -0.4852 0.4852 -0.8744 446.1125 1056.6392)" width="25.909" height="4.496"/>
</g>
<g>
	<path d="M432.598,456.838c1.94,0.375,3.995,0.371,6.053-0.07c3.272-0.707,6.067-2.426,8.13-4.758l1.927,1.808
		c0.113,0.104,0.278,0.131,0.422,0.063c0.14-0.063,0.227-0.207,0.221-0.363l-0.228-5.149l-0.154-3.642
		c-0.005-0.114-0.063-0.223-0.158-0.291c-0.086-0.063-0.197-0.088-0.303-0.063c-0.012,0.004-0.018,0.006-0.021,0.006l-3.881,1.103
		l-4.367,1.233c-0.146,0.041-0.254,0.164-0.271,0.316c-0.021,0.149,0.053,0.299,0.183,0.375l2.216,1.307
		c-1.277,1.313-2.938,2.275-4.867,2.691c-1.352,0.293-2.692,0.285-3.968,0.021c-0.101-0.021-0.207,0-0.291,0.062
		c-0.084,0.059-0.143,0.147-0.16,0.25l-0.776,4.666C432.262,456.605,432.396,456.799,432.598,456.838z"/>
	<rect x="459.342" y="444.064" width="9.799" height="39.192"/>
	<rect x="444.087" y="456.84" width="9.922" height="26.793"/>
	<rect x="429.695" y="465.646" width="9.799" height="19.225"/>
	<rect x="425.355" y="482.141" width="48" height="4.345"/>
</g>
<g>
	<circle cx="351.361" cy="978.938" r="6.175"/>
	<circle cx="351.361" cy="1011.057" r="6.175"/>
	<circle cx="368.462" cy="1011.057" r="6.175"/>
	<circle cx="332.809" cy="1011.057" r="6.175"/>
	<rect x="333.593" y="991.517" width="35.938" height="3.64"/>
	<rect x="331.147" y="991.517" width="3.637" height="9.222"/>
	<rect x="366.802" y="991.517" width="3.637" height="9.222"/>
	<rect x="349.7" y="988.704" width="3.64" height="12.031"/>
</g>
<g>
	<path d="M467.727,1004.709l-11.994-4.692l2.632,5.283c0,0-15.587,14.02-31.284-6.271c6.584,21.637,27.095,19.891,34.871,13.523
		c0.708,1.436,2.513,4.92,2.513,4.92L467.727,1004.709z"/>
	<path d="M441.681,1007.426c-1.132-3.031-1.67-5.396-1.938-6.975c-0.415-0.065-0.812-0.205-1.185-0.429
		c-1.278,1.333-2.51,2.679-3.662,4.008c0.034,0.026,0.075,0.061,0.111,0.087C437.313,1005.841,439.563,1006.873,441.681,1007.426z"
		/>
	<path d="M440.838,993.953c0.486,0.087,0.97,0.271,1.396,0.592c0.05,0.038,0.09,0.087,0.143,0.133
		c3.973-2.711,8.298-4.804,12.857-6.232c0.003-0.321,0.059-0.645,0.159-0.954c-3.526-2.175-7.327-3.876-11.327-5.072
		c-0.077,0.144-0.153,0.286-0.253,0.422c-0.604,0.813-1.509,1.248-2.444,1.313C440.848,987.378,440.671,990.673,440.838,993.953z"/>
	<path d="M456.55,991.139c-0.358-0.268-0.647-0.599-0.865-0.964c-4.377,1.312-8.521,3.281-12.339,5.87
		c0.375,1.018,0.251,2.196-0.444,3.129c-0.364,0.486-0.842,0.834-1.364,1.055c0.464,2.519,1.137,5.045,2.022,7.513l0.02,0.056
		c5.604,0.761,10.104-1.668,12.185-3.092l-1.878-3.769l-2.395-4.799l4.996,1.954l11.998,4.696l1.605,0.626
		c0.146-0.369,0.293-0.74,0.427-1.113l-0.052-0.083c-2.695-4.176-6.054-7.896-9.962-11.087
		C459.355,991.982,457.754,992.037,456.55,991.139z"/>
	<path d="M433.568,1002.922c1.387-1.657,2.646-3.056,3.759-4.189c-0.568-1.096-0.518-2.459,0.271-3.517
		c0.408-0.547,0.955-0.929,1.552-1.143c-0.21-3.365-0.037-6.814,0.521-10.271c-0.174-0.086-0.341-0.178-0.492-0.294
		c-0.827-0.617-1.271-1.548-1.313-2.506c-1.875-0.299-3.565-0.48-5.147-0.557l-0.349-0.017l-0.097-0.004
		c-3.247,3.816-5.187,8.697-5.327,13.909C427.202,995.035,427.736,997.422,433.568,1002.922z"/>
	<path d="M438.508,978.878c0.626-0.839,1.572-1.282,2.547-1.313c0.429-1.374,0.875-2.685,1.354-3.904
		c-3.321,1.076-6.263,2.876-8.67,5.209c1.545,0.044,3.066,0.198,4.521,0.42C438.339,979.151,438.406,979.009,438.508,978.878z"/>
	<path d="M442.773,977.986c0.121,0.066,0.248,0.133,0.365,0.22c0.822,0.615,1.267,1.548,1.311,2.502
		c4.117,1.229,8.128,3.026,11.856,5.333c1.146-1.047,2.912-1.171,4.202-0.207c0.396,0.296,0.696,0.666,0.919,1.069
		c0.251-0.047,0.5-0.099,0.751-0.139c2.489-0.396,5.099-0.604,7.761-0.608c-3.945-9.253-13.774-15.014-24.147-13.353
		c-0.436,0.069-0.854,0.177-1.274,0.271l-0.046,0.11C443.863,974.608,443.307,976.196,442.773,977.986z"/>
	<path d="M461.842,988.59l-0.004,0.001c-0.016,0.399-0.104,0.8-0.268,1.179c3.687,3,6.904,6.492,9.577,10.397
		c0.669-2.789,0.816-5.753,0.335-8.762c-0.198-1.225-0.512-2.394-0.891-3.527l-0.041-0.001c-2.708-0.029-5.436,0.173-8.104,0.598
		C462.243,988.509,462.039,988.549,461.842,988.59z"/>
</g>
<path d="M83.078,589.237h-9.143l-0.063,8.023h8.071C82.576,594.821,82.973,592.107,83.078,589.237z M82.087,578.864h-8.063
	l-0.065,8.354h9.147C83.065,584.226,82.703,581.402,82.087,578.864z M85.126,587.22h8.184c-0.097-2.997-0.813-5.811-2.034-8.354
	H84.17C84.756,581.442,85.089,584.257,85.126,587.22z M65.324,602.983c1.782,3.459,4.087,5.5,6.431,5.854l0.079-9.557h-8.04
	C64.232,600.671,64.738,601.849,65.324,602.983z M80,573.095c-1.634-3.188-3.721-5.168-5.882-5.742l-0.073,9.487h7.479
	C81.085,575.464,80.577,574.22,80,573.095z M83.642,576.84h6.521c-2.552-4.088-6.463-7.12-11.102-8.646
	c1.028,1.095,1.947,2.442,2.73,3.975C82.52,573.582,83.135,575.126,83.642,576.84z M81.344,599.282h-7.487l-0.08,9.461
	c2.166-0.54,4.283-2.48,5.979-5.642C80.354,601.979,80.888,600.663,81.344,599.282z M81.532,604.057
	c-0.806,1.519-1.746,2.852-2.794,3.933c4.677-1.453,8.643-4.646,11.263-8.704h-6.527C82.933,601.001,82.287,602.646,81.532,604.057z
	 M84.026,597.264h7.113c1.21-2.437,1.96-5.153,2.14-8.023h-8.18C85.001,592.078,84.631,594.788,84.026,597.264z M62.237,587.22
	h9.701l0.065-8.354h-8.609C62.735,581.393,62.325,584.226,62.237,587.22z M68.447,590.46l-5.491,5.491
	c0.087,0.438,0.171,0.886,0.275,1.313h8.619l0.063-8.023h-2.251L68.447,590.46z M65.575,572.972
	c-0.601,1.117-1.124,2.501-1.583,3.868h8.03l0.08-9.617C69.749,567.542,67.411,569.544,65.575,572.972z M67.172,589.188
	L56.241,600.12l-10.934-10.937h6.729c-0.016-0.354-0.055-0.699-0.053-1.059c0.079-9.343,6.222-17.435,14.615-20.039
	c-1.054,1.08-1.994,2.413-2.805,3.93c-2.203,4.131-3.55,9.989-3.604,16.178l-0.004-0.001c-0.002,0.336,0.012,0.663,0.019,0.991
	h6.965L67.172,589.188L67.172,589.188z"/>
<path d="M153.462,572.449c2.838-1.539,5.813-2.312,8.86-2.312c3.033,0,6.018,0.771,8.854,2.312c0.827,0.461,1.832,0.06,2.23-0.891
	c0.399-0.944,0.042-2.069-0.784-2.521c-3.288-1.776-6.753-2.688-10.3-2.688c-3.55,0-7.017,0.897-10.314,2.688
	c-0.823,0.449-1.183,1.574-0.771,2.521C151.621,572.509,152.625,572.91,153.462,572.449z M181.405,574.908h-38.169
	c-2.712,0-4.921,2.219-4.921,4.921v24.959c0,2.708,2.208,4.919,4.921,4.919h38.169c2.701,0,4.91-2.211,4.91-4.919v-24.959
	C186.315,577.127,184.106,574.908,181.405,574.908z M177.531,601.417h-30.118c-0.773,0-1.414-0.637-1.414-1.414
	c0-0.782,0.641-1.424,1.414-1.424h30.118c0.785,0,1.424,0.642,1.424,1.424C178.956,600.78,178.316,601.417,177.531,601.417z
	 M145.999,592.17c0-0.771,0.628-1.41,1.414-1.41h30.118c0.785,0,1.424,0.642,1.424,1.41c0,0.786-0.64,1.423-1.424,1.423h-30.118
	C146.627,593.593,145.999,592.956,145.999,592.17z M177.542,585.396h-30.128c-0.786,0-1.414-0.632-1.414-1.414
	c0-0.785,0.628-1.427,1.414-1.427h30.128c0.785,0,1.414,0.642,1.414,1.427C178.956,584.767,178.326,585.396,177.542,585.396z"/>
<g>
	<path d="M254.008,569.542c-10.209,0-18.485,8.278-18.485,18.488c0,10.211,8.276,18.485,18.485,18.485
		c2.054,0,4.019-0.349,5.859-0.964c-2.406-2.047-3.938-5.091-3.938-8.497c0-1.051,0.151-2.063,0.428-3.023
		c-0.729,0.285-1.521,0.444-2.351,0.444c-3.561,0-6.446-2.887-6.446-6.445c0-3.563,2.889-6.446,6.446-6.446
		c3.563,0,6.447,2.886,6.447,6.446c0,0.022-0.004,0.05-0.004,0.071c1.854-1.375,4.146-2.195,6.629-2.195
		c1.951,0,3.783,0.503,5.377,1.383C272.066,577.426,263.969,569.542,254.008,569.542z"/>
	<path d="M250.254,588.03c0,2.073,1.687,3.75,3.754,3.75c2.072,0,3.75-1.677,3.75-3.75c0-2.071-1.678-3.75-3.75-3.75
		C251.938,584.28,250.254,585.959,250.254,588.03z M256.406,588.03c0,1.328-1.074,2.399-2.398,2.399
		c-1.323,0-2.397-1.071-2.397-2.399c0-1.326,1.074-2.399,2.397-2.399C255.332,585.631,256.406,586.704,256.406,588.03z"/>
	<path d="M267.08,587.624c-5.207,0-9.434,4.223-9.434,9.434c0,5.208,4.227,9.435,9.434,9.435c5.209,0,9.435-4.227,9.435-9.435
		C276.512,591.847,272.289,587.624,267.08,587.624z"/>
	<path fill="#FFFFFF" d="M271.199,604.189l-4.119-7.135l-4.117,7.135c-2.465-1.43-4.125-4.083-4.125-7.135h8.242l-4.117-7.135
		c1.211-0.702,2.615-1.105,4.117-1.105c1.504,0,2.906,0.403,4.119,1.105l-4.119,7.135h8.242
		C275.322,600.106,273.66,602.763,271.199,604.189z"/>
</g>
<g>
	<path d="M75.172,1186.284H64.125c-0.709,0-1.293-0.579-1.293-1.29v-6.734c0-0.71,0.584-1.291,1.293-1.291h13.668
		c0.076,0,0.146,0.031,0.217,0.044l0.029,0.523C78.043,1177.589,78.252,1182.448,75.172,1186.284z"/>
	<path d="M46.987,1186.284H59.42c0.709,0,1.293-0.579,1.293-1.29v-6.734c0-0.71-0.584-1.291-1.293-1.291H46.987
		c-0.709,0-1.293,0.581-1.293,1.291v6.734C45.694,1185.705,46.278,1186.284,46.987,1186.284z"/>
	<path d="M67.893,1197.59c0.518-3.576,3.063-6.743,5.356-9.222c-0.147-0.063-0.311-0.101-0.477-0.101H46.602
		c-0.711,0-1.295,0.581-1.295,1.291v6.737c0,0.711,0.584,1.291,1.295,1.291L67.893,1197.59L67.893,1197.59z"/>
	<path d="M59.42,1199.554H46.987c-0.709,0-1.293,0.582-1.293,1.291v6.739c0,0.708,0.584,1.291,1.293,1.291H59.42
		c0.709,0,1.293-0.583,1.293-1.291v-6.739C60.713,1200.136,60.129,1199.554,59.42,1199.554z"/>
	<path d="M68.141,1201.352c-0.183-0.607-0.273-1.207-0.318-1.798h-3.697c-0.709,0-1.293,0.582-1.293,1.291v6.739
		c0,0.708,0.584,1.291,1.293,1.291h9.813C71.159,1207.215,69.092,1204.6,68.141,1201.352z"/>
	<path d="M93.229,1195.117c-1.17-11.188-13.459-17.614-13.459-17.614s0.346,6.075-3.904,10.518c-3.6,3.762-7.471,8.146-6.051,12.979
		c1.154,3.947,4.184,6.85,8.135,7.896c-0.85-3.04-1.643-5.393,1.082-8.647c3.016-3.604,4.072-7.146,4.072-7.146
		c0.438,0.042,5.729,8.207,2.146,14.729C89.118,1206.051,93.983,1202.351,93.229,1195.117z"/>
</g>
<g>
	<path d="M450.548,1123.198v-7.934h-20.063c-2.836,0-5.128,2.062-5.128,4.604v1.754c0,2.536,2.292,4.598,5.128,4.598h21.176
		C450.975,1125.395,450.548,1124.351,450.548,1123.198z"/>
	<path d="M425.355,1106.879v1.753c0,2.539,2.292,4.602,5.128,4.602H450.6c0.259-1.721,1.431-3.142,3.006-3.742v-2.91
		c0-1.554,0.388-3.016,1.066-4.301h-24.188C427.647,1102.277,425.355,1104.336,425.355,1106.879z"/>
	<path d="M462.852,1097.33c1.338,0,2.604,0.289,3.756,0.801c0.516-0.719,0.824-1.571,0.824-2.491v-1.751
		c0-2.545-2.292-4.602-5.122-4.602h-31.826c-2.836,0-5.128,2.057-5.128,4.602v1.751c0,2.54,2.292,4.604,5.128,4.604h25.649
		C457.822,1098.451,460.205,1097.33,462.852,1097.33z M431.766,1096.55c-0.981,0-1.788-0.8-1.788-1.787
		c0-0.982,0.807-1.784,1.788-1.784c0.984,0,1.79,0.802,1.79,1.784C433.556,1095.75,432.754,1096.55,431.766,1096.55z"/>
	<path d="M470.396,1110.976H455.31c-1.64,0-2.963,1.324-2.963,2.96v9.266c0,1.633,1.323,2.955,2.963,2.955h15.087
		c1.635,0,2.959-1.322,2.959-2.955v-9.266C473.355,1112.3,472.031,1110.976,470.396,1110.976z"/>
	<path fill="#FFFFFF" d="M464.1,1118.627v2.541c0,0.688-0.563,1.245-1.248,1.245c-0.689,0-1.25-0.558-1.25-1.245v-2.541
		c-0.512-0.386-0.847-0.997-0.847-1.683c0-1.159,0.938-2.099,2.097-2.099c1.154,0,2.091,0.938,2.091,2.099
		C464.942,1117.63,464.611,1118.241,464.1,1118.627z"/>
	<path d="M458.747,1109.863h-3.342v-3.286c0-4.104,3.342-7.448,7.446-7.448c4.108,0,7.447,3.344,7.447,7.448v3.286h-3.339v-3.286
		c0-2.265-1.848-4.104-4.108-4.104s-4.104,1.84-4.104,4.104V1109.863z"/>
</g>
<g>
	<polygon points="165.911,1197.089 163.008,1200.007 169.006,1206.05 169.755,1209.605 179.453,1215.997 181.861,1213.583 
		175.475,1203.896 171.919,1203.145 	"/>
	<path d="M140.186,1174.867c2.495-2.496,6.535-2.496,9.025,0l17.977,17.906l-9.021,9.027l-17.979-17.915
		C137.691,1181.4,137.691,1177.355,140.186,1174.867z M159.295,1192.179c0.463,0.475,1.211,0.475,1.666-0.002
		c0.461-0.461,0.461-1.206,0-1.662l-13.994-13.998c-0.452-0.462-1.209-0.462-1.661,0c-0.47,0.47-0.47,1.205,0,1.678
		L159.295,1192.179z M141.889,1181.594l13.989,13.999c0.456,0.464,1.21,0.46,1.665,0c0.471-0.462,0.471-1.209-0.001-1.672
		l-13.988-13.99c-0.469-0.463-1.202-0.463-1.665,0C141.424,1180.392,141.424,1181.143,141.889,1181.594z"/>
	<path d="M141.229,1205.712v-0.002l9.164-8.624l8.295,8.294c-3.84,4.156-6.998,7.613-8.592,9.202l0.002,0.003
		c-2.47,2.476-6.468,2.492-8.916,0.046C138.733,1212.176,138.754,1208.188,141.229,1205.712z M143.803,1212.01
		c0.989,0.986,2.592,0.986,3.579,0c0.986-0.99,0.986-2.595,0-3.581c-0.987-0.987-2.59-0.987-3.579,0
		C142.813,1209.415,142.813,1211.02,143.803,1212.01z"/>
	<path d="M174.615,1169.413c1.588,0,3.102,0.319,4.48,0.892l-6.271,6.271c-1.132,1.132-1.132,2.981,0,4.115l2.384,2.388
		c1.131,1.131,2.985,1.131,4.116,0l6.188-6.192c0.508,1.313,0.8,2.734,0.8,4.225c0,6.459-5.239,11.693-11.699,11.693
		c-6.458,0-11.693-5.234-11.693-11.693C162.922,1174.654,168.157,1169.413,174.615,1169.413z"/>
</g>
<g>
	<path d="M431.225,599c0,0.553,0.447,1,1,1h33.585c0.552,0,1-0.447,1-1v-6.929c0-0.556-0.448-1-1-1h-33.585c-0.553,0-1,0.444-1,1
		V599z"/>
	<path d="M466.827,586.341v-19.604c0-1.493-1.177-2.705-2.632-2.705h-30.34c-1.455,0-2.631,1.212-2.631,2.705v19.604
		c0,1.492,1.176,2.7,2.631,2.7h30.34C465.65,589.041,466.827,587.833,466.827,586.341z M464.6,585.273
		c0,0.677-0.525,1.228-1.169,1.228h-28.703c-0.64,0-1.168-0.551-1.168-1.228v-17.752c0-0.681,0.528-1.229,1.168-1.229h28.703
		c0.644,0,1.169,0.548,1.169,1.229V585.273z"/>
	<path fill="#FFFFFF" d="M434.552,595.42c0-0.957,0.776-1.735,1.736-1.735c0.953,0,1.735,0.778,1.735,1.735
		c0,0.959-0.782,1.735-1.735,1.735C435.33,597.155,434.552,596.379,434.552,595.42z"/>
	<path d="M462.806,568.816c0-0.376-0.304-0.684-0.673-0.684h-26.003c-0.37,0-0.67,0.307-0.67,0.684v15.265
		c0,0.378,0.3,0.683,0.67,0.683h26.003c0.369,0,0.673-0.305,0.673-0.683V568.816z"/>
	<path d="M443.232,607.641v3.345c0.003,0.566,0.479,1.048,1.049,1.048h10.146c0.573,0,1.049-0.479,1.051-1.048v-3.345
		c-0.002-0.569-0.478-1.049-1.051-1.052h-3.84v-4.55h-2.476v4.55h-3.834C443.713,606.592,443.235,607.068,443.232,607.641z"/>
	<path d="M471.716,609.308c0,0.686-0.558,1.237-1.238,1.237h-13.137v-2.472h13.137C471.158,608.073,471.716,608.629,471.716,609.308
		z"/>
	<path d="M428.234,608.073h13.144v2.472h-13.144c-0.684,0-1.237-0.555-1.237-1.237C426.997,608.629,427.552,608.073,428.234,608.073
		z"/>
</g>
<g>
	<path d="M48.865,1088.116v1.663c0,2.404,2.174,4.357,4.859,4.357h30.174c2.688,0,4.859-1.953,4.859-4.357v-1.663
		c0-2.411-2.173-4.362-4.859-4.362H53.724C51.039,1083.754,48.865,1085.705,48.865,1088.116z M80.984,1088.945
		c0-0.936,0.762-1.691,1.697-1.691c0.934,0,1.69,0.759,1.69,1.691c0,0.938-0.76,1.694-1.69,1.694
		C81.746,1090.643,80.984,1089.883,80.984,1088.945z"/>
	<path d="M48.865,1100.704v1.662c0,2.409,2.174,4.357,4.859,4.357h30.174c2.688,0,4.859-1.948,4.859-4.357v-1.662
		c0-2.411-2.173-4.363-4.859-4.363H53.724C51.039,1096.341,48.865,1098.293,48.865,1100.704z"/>
	<path d="M48.865,1113.291v1.661c0,2.41,2.174,4.363,4.859,4.363h30.174c2.688,0,4.859-1.953,4.859-4.363v-1.661
		c0-2.41-2.173-4.364-4.859-4.364H53.724C51.039,1108.927,48.865,1110.881,48.865,1113.291z"/>
	<path d="M62.986,1127.222v3.451c0.004,0.589,0.494,1.081,1.084,1.081h10.477c0.593,0,1.084-0.492,1.086-1.081v-3.451
		c-0.002-0.592-0.493-1.083-1.086-1.085h-3.965v-4.688h-2.553v4.688H64.07C63.48,1126.139,62.99,1126.63,62.986,1127.222z"/>
	<path d="M92.39,1128.944c0,0.704-0.571,1.274-1.272,1.274H77.55v-2.555h13.567C91.819,1127.667,92.39,1128.241,92.39,1128.944z"/>
	<path d="M47.498,1127.667h13.57v2.555h-13.57c-0.701,0-1.271-0.569-1.271-1.274C46.224,1128.241,46.796,1127.667,47.498,1127.667z"
		/>
</g>
<g>
	<path d="M163.222,1093.371c-0.519-0.442-1.363-0.442-1.646,0l-12.801,10.975c-0.744,0.446-1.172,1.364-1.172,2.044v13.031
		c0,0.682,0.557,1.239,1.235,1.239h6.832c0.685,0,1.24-0.561,1.24-1.239v-11.31c0-0.686,0.56-1.239,1.242-1.239h8.469
		c0.683,0,1.242,0.557,1.242,1.239v11.31c0,0.682,0.555,1.239,1.236,1.239h6.619c0.684,0,1.233-0.561,1.233-1.239v-13.033
		c0-0.681-0.424-1.601-0.938-2.045L163.222,1093.371z"/>
	<path d="M163.964,1084.403c-0.955-0.866-2.405-0.866-3.362,0l-18.104,15.604c-1.018,0.933-1.096,2.513-0.168,3.536
		c0.492,0.548,2.375,1.339,3.539,0.176l16.412-14.076l16.414,14.071c1.02,0.933,2.604,0.857,3.539-0.171
		c0.934-1.021,0.854-2.604-0.174-3.536L163.964,1084.403z"/>
	<path d="M166.994,1126.732h-3.535v-4.205h-2.278v4.205h-3.546c-0.522,0.001-0.969,0.44-0.971,0.969v3.084
		c0.002,0.527,0.445,0.969,0.971,0.969h9.359c0.529,0,0.971-0.438,0.973-0.969v-3.084
		C167.964,1127.176,167.523,1126.733,166.994,1126.732z"/>
	<path d="M142.236,1128.104h12.713v2.28h-12.713c-0.629,0-1.141-0.512-1.141-1.141
		C141.095,1128.615,141.607,1128.104,142.236,1128.104z"/>
	<path d="M183.535,1129.243c0,0.629-0.512,1.141-1.137,1.141h-12.717v-2.28h12.717
		C183.023,1128.104,183.535,1128.615,183.535,1129.243z"/>
</g>
<g>
	<path d="M335.107,576.899c0.496-2.354,3.003-4.382,5.466-4.382h26.002l-0.189-1.029c-0.258-1.508-1.89-2.863-3.419-2.835h-21.438
		l-0.188-0.48c-0.498-1.271-1.933-2.288-3.263-2.271h-9.269c-1.345,0.022-2.154,0.873-2.176,2.082c0,0.153,0.012,0.31,0.042,0.477
		l0.98,5.336l0.031,0.119l3.611,19.343L335.107,576.899z"/>
	<path d="M327.053,607.343c0,0.706,0.575,1.282,1.277,1.282h14.256v-2.56h-14.256C327.631,606.065,327.053,606.642,327.053,607.343z
		"/>
	<path d="M356.094,604.529h-3.966v-4.669h-2.562v4.669h-3.973c-0.592,0.003-1.083,0.496-1.086,1.086v3.459
		c0.003,0.591,0.494,1.085,1.086,1.085h10.497c0.591,0,1.084-0.494,1.088-1.085v-3.459
		C357.177,605.025,356.684,604.532,356.094,604.529z"/>
	<path d="M373.358,606.065h-14.257v2.56h14.257c0.703,0,1.275-0.576,1.275-1.282C374.635,606.642,374.062,606.065,373.358,606.065z"
		/>
	<path d="M340.573,574.51c-1.521,0-3.212,1.354-3.523,2.84l-4.17,17.915c-0.049,0.193-0.064,0.387-0.064,0.572
		c0.023,1.119,0.74,1.879,2.047,1.912h31.979c1.54,0.029,3.249-1.336,3.566-2.84l4.093-17.896c0.044-0.208,0.069-0.399,0.069-0.58
		c-0.032-1.131-0.744-1.892-2.057-1.925L340.573,574.51L340.573,574.51z"/>
</g>
<g>
	<path d="M364.009,1097.821l0.243,0.091c0.099-0.332,0.162-0.677,0.162-1.033v-1.573c0-2.284-2.059-4.133-4.602-4.133h-28.574
		c-2.545,0-4.604,1.849-4.604,4.133v1.573c0,2.279,2.061,4.129,4.604,4.129h24.217L364.009,1097.821z M332.389,1097.695
		c-0.881,0-1.605-0.721-1.605-1.604s0.728-1.604,1.605-1.604c0.887,0,1.604,0.719,1.604,1.604
		C333.996,1096.979,333.275,1097.695,332.389,1097.695z"/>
	<path d="M374.632,1103.703h0.004l-10.627-4.059l-10.629,4.059c-0.017,2.64-0.113,8.31,1.571,11.957
		c1.574,3.414,4.488,6.965,9.058,8.612c4.559-1.647,7.475-5.198,9.049-8.612C374.744,1112.013,374.639,1106.343,374.632,1103.703z"
		/>
	<path fill="#FFFFFF" d="M372.404,1105.337c-0.104,2.97-0.203,6.872-1.358,9.376c-1.367,2.957-3.738,5.833-7.037,7.229
		c-3.308-1.396-5.685-4.271-7.045-7.229c-1.158-2.504-1.259-6.406-1.363-9.376l8.432-3.246l8.435,3.246H372.404z"/>
	<path d="M356.927,1107.457c0.098,2.166,0.272,4.912,1.133,6.774c1.146,2.479,3.143,4.962,5.895,6.193
		c1.955-0.873,3.521-2.386,4.683-4.066L356.927,1107.457z"/>
	<path d="M357.802,1105.938l11.729,8.918c0.111-0.207,0.222-0.416,0.314-0.623c1.018-2.201,1.082-5.65,1.186-7.909l-7.11-2.744
		L357.802,1105.938z"/>
	<path d="M351.514,1102.836h-20.275c-2.545,0-4.604,1.85-4.604,4.134v1.573c0,2.28,2.061,4.13,4.604,4.13h20.988
		C351.479,1109.127,351.503,1105.165,351.514,1102.836z"/>
	<path d="M353.363,1116.212c-0.254-0.535-0.471-1.11-0.658-1.711h-21.467c-2.545,0-4.604,1.849-4.604,4.129v1.575
		c0,2.277,2.061,4.131,4.604,4.131h28.574c0.172,0,0.336-0.027,0.5-0.044C357.016,1122.162,354.748,1119.146,353.363,1116.212z"/>
</g>
<g>
	<circle cx="254.973" cy="1124.978" r="1.63"/>
	<circle cx="249.01" cy="1124.978" r="1.628"/>
	<circle cx="243.047" cy="1124.978" r="1.63"/>
	<circle cx="243.046" cy="1113.252" r="1.629"/>
	<circle cx="243.046" cy="1119.216" r="1.629"/>
	<g>
		<path d="M252.865,1108.152c0,0.553-0.447,1-1,1H233.06c-0.556,0-1-0.447-1-1v-3.451c0-0.553,0.444-1,1-1h18.805
			c0.553,0,1,0.447,1,1V1108.152L252.865,1108.152z"/>
		<path d="M232.435,1100.446v-10.882c0-0.83,0.674-1.501,1.502-1.501h17.305c0.83,0,1.5,0.671,1.5,1.501v10.882
			c0,0.828-0.67,1.499-1.5,1.499h-17.305C233.109,1101.945,232.435,1101.274,232.435,1100.446z M234.173,1099.629
			c0,0.338,0.279,0.614,0.619,0.614h15.478c0.344,0,0.621-0.276,0.621-0.614v-9.164c0-0.341-0.277-0.615-0.621-0.615h-15.478
			c-0.34,0-0.619,0.274-0.619,0.615V1099.629z"/>
		<path fill="#FFFFFF" d="M250.88,1106.355c0-0.614-0.487-1.114-1.09-1.114c-0.604,0-1.092,0.5-1.092,1.114
			c0,0.613,0.488,1.112,1.092,1.112C250.39,1107.471,250.88,1106.972,250.88,1106.355z"/>
	</g>
	<g>
		<path d="M259.166,1126.445c0,0.553,0.447,1,1.001,1h18.808c0.552,0,1-0.447,1-1v-3.451c0-0.553-0.448-1-1-1h-18.808
			c-0.554,0-1.001,0.447-1.001,1V1126.445z"/>
		<path d="M278.094,1120.238h-17.308c-0.83,0-1.5-0.671-1.5-1.499v-10.882c0-0.83,0.67-1.501,1.5-1.501h17.308
			c0.826,0,1.503,0.671,1.503,1.501v10.882C279.597,1119.567,278.923,1120.238,278.094,1120.238z M277.858,1108.758
			c0-0.341-0.28-0.615-0.619-0.615h-15.475c-0.347,0-0.621,0.274-0.621,0.615v9.164c0,0.338,0.274,0.614,0.621,0.614h15.475
			c0.339,0,0.619-0.276,0.619-0.614V1108.758z"/>
		<path fill="#FFFFFF" d="M262.24,1125.764c0.604,0,1.092-0.499,1.092-1.111c0-0.615-0.485-1.115-1.092-1.115
			c-0.599,0-1.089,0.5-1.089,1.115C261.151,1125.265,261.642,1125.764,262.24,1125.764z"/>
	</g>
</g>
<g>
	<circle cx="169.367" cy="245.493" r="3.159"/>
	<rect x="167.788" y="246.875" width="2.961" height="7.897"/>
	<path d="M146.859,274.172v1.925c0,0.654,0.53,1.185,1.185,1.185h3.356c0.654,0,1.185-0.53,1.185-1.185v-1.925H146.859z"/>
	<path d="M171.144,274.172v1.925c0,0.654,0.528,1.185,1.185,1.185h3.357c0.651,0,1.185-0.53,1.185-1.185v-1.925H171.144z"/>
	<path d="M140.541,253.983v17.375h42.45v-17.375H140.541z M151.795,264.431c0,0.654-0.528,1.185-1.185,1.185h-2.765
		c-0.654,0-1.188-0.53-1.188-1.185v-3.159c0-0.654,0.531-1.185,1.188-1.185h2.765c0.654,0,1.185,0.531,1.185,1.185V264.431z
		 M175.981,263.938h-12.208c-0.603,0-1.086-0.486-1.086-1.086s0.483-1.086,1.086-1.086h12.208c0.6,0,1.086,0.486,1.086,1.086
		S176.581,263.938,175.981,263.938z"/>
	<path d="M153.174,232.741l-2.531-2.639c0,0,17.208-14.886,36,0.105l-2.431,2.428C184.212,232.635,169.538,220.178,153.174,232.741z
		"/>
	<path d="M161.137,238.97l-1.316-1.371c0,0,8.936-7.729,18.694,0.055l-1.264,1.261C177.255,238.915,169.634,232.445,161.137,238.97z
		"/>
</g>
<text transform="matrix(1 0 0 1 99.0002 86)" font-family="'MyriadPro-Regular'" font-size="72">Appliances</text>
<g>
	<polygon fill="#FFFFFF" points="258.015,756.229 243.412,756.229 243.412,792.266 268.361,792.266 268.361,766.46 	"/>
	<path d="M241.852,792.266v-36.038c0-0.859,0.696-1.561,1.561-1.561h14.604c0.412,0,0.807,0.162,1.098,0.451l10.346,10.231
		c0.297,0.292,0.463,0.692,0.463,1.108v25.806c0,0.861-0.697,1.562-1.561,1.562h-24.949
		C242.55,793.825,241.852,793.127,241.852,792.266z M266.801,767.111l-9.426-9.324h-12.401v32.918h21.827V767.111z"/>
	<polyline fill="#FFFFFF" points="258.015,756.229 258.015,766.521 268.361,766.521 	"/>
	<path d="M258.015,768.081h10.346v-3.12h-8.785v-8.732h-3.12v10.295C256.456,767.383,257.154,768.081,258.015,768.081z"/>
	<path d="M233.01,797.466c0,2.873,2.328,5.201,5.201,5.201h35.365c2.873,0,5.201-2.328,5.201-5.201v-9.359
		c0-2.872-2.328-5.2-5.201-5.2h-35.365c-2.873,0-5.201,2.328-5.201,5.2V797.466L233.01,797.466z"/>
	<g>
		<line fill="none" x1="270.457" y1="788.104" x2="265.256" y2="788.104"/>
		<path fill="#FFFFFF" d="M265.256,789.665h5.201c0.861,0,1.561-0.699,1.561-1.563c0-0.86-0.697-1.56-1.561-1.56h-5.201
			c-0.861,0-1.561,0.698-1.561,1.56C263.695,788.966,264.392,789.665,265.256,789.665z"/>
	</g>
</g>
<g>
	<g>
		<path d="M46.682,1281.946c-0.55,0-1,0.45-1,1v46c0,0.551,0.45,1,1,1h28c0.551,0,1-0.449,1-1v-46c0-0.55-0.449-1-1-1H46.682z
			 M60.682,1324.053c-1.068,0-1.941-0.866-1.941-1.939c0-1.066,0.873-1.936,1.941-1.936c1.071,0,1.938,0.868,1.938,1.936
			C62.622,1323.187,61.755,1324.053,60.682,1324.053z M70.618,1305.403c0,0.551-0.45,1-1,1H51.745c-0.549,0-1-0.449-1-1v-1.748
			c0-0.55,0.451-1,1-1h17.873c0.55,0,1,0.45,1,1V1305.403z M70.618,1297.992c0,0.551-0.45,1-1,1H51.745c-0.549,0-1-0.449-1-1v-1.748
			c0-0.55,0.451-1,1-1h17.873c0.55,0,1,0.45,1,1V1297.992z M70.618,1290.584c0,0.55-0.45,1-1,1H51.745c-0.549,0-1-0.45-1-1v-1.747
			c0-0.55,0.451-1,1-1h17.873c0.55,0,1,0.45,1,1V1290.584z"/>
	</g>
</g>
<g>
	<text transform="matrix(1 0 0 1 51.8743 1354.8154)" font-family="'MyriadPro-Regular'" font-size="12.6756">cpu</text>
</g>
<path d="M73.346,972.814H55.559c-2.561,0-4.637,2.193-4.637,4.899v38.195c0,2.706,2.076,4.904,4.637,4.904h17.787
	c2.563,0,4.636-2.198,4.636-4.904v-38.195C77.982,975.009,75.909,972.814,73.346,972.814z M57.793,1015.098
	c-1.479,0-2.679-1.271-2.679-2.836c0-1.564,1.199-2.836,2.679-2.836s2.682,1.271,2.682,2.836
	C60.474,1013.827,59.271,1015.098,57.793,1015.098z M57.793,1007.688c-1.479,0-2.679-1.271-2.679-2.837
	c0-1.565,1.199-2.833,2.679-2.833s2.682,1.269,2.682,2.833C60.474,1006.416,59.271,1007.688,57.793,1007.688z M57.793,1001.02
	c-1.479,0-2.679-1.271-2.679-2.834c0-1.565,1.199-2.838,2.679-2.838s2.682,1.271,2.682,2.838
	C60.473,999.748,59.271,1001.02,57.793,1001.02z M64.455,1015.098c-1.479,0-2.68-1.271-2.68-2.836c0-1.564,1.199-2.836,2.68-2.836
	c1.481,0,2.68,1.271,2.68,2.836C67.135,1013.827,65.935,1015.098,64.455,1015.098z M64.455,1007.688c-1.479,0-2.68-1.271-2.68-2.837
	c0-1.565,1.199-2.833,2.68-2.833c1.481,0,2.68,1.269,2.68,2.833C67.135,1006.416,65.935,1007.688,64.455,1007.688z M64.455,1001.02
	c-1.479,0-2.68-1.271-2.68-2.834c0-1.565,1.199-2.838,2.68-2.838c1.481,0,2.68,1.271,2.68,2.838
	C67.135,999.748,65.935,1001.02,64.455,1001.02z M71.118,1015.098c-1.479,0-2.683-1.271-2.683-2.836
	c0-1.564,1.202-2.836,2.683-2.836c1.479,0,2.677,1.271,2.677,2.836C73.795,1013.827,72.595,1015.098,71.118,1015.098z
	 M71.118,1007.688c-1.479,0-2.683-1.271-2.683-2.837c0-1.565,1.202-2.833,2.683-2.833c1.479,0,2.677,1.269,2.677,2.833
	C73.795,1006.416,72.595,1007.688,71.118,1007.688z M71.118,1001.02c-1.479,0-2.683-1.271-2.683-2.834
	c0-1.565,1.202-2.838,2.683-2.838c1.479,0,2.677,1.271,2.677,2.838C73.795,999.748,72.595,1001.02,71.118,1001.02z M75.708,982.575
	c0,1.92-1.473,3.476-3.288,3.476H56.49c-1.818,0-3.289-1.556-3.289-3.476v-2.813c0-1.916,1.471-3.475,3.289-3.475h15.93
	c1.815,0,3.288,1.559,3.288,3.475V982.575z"/>
<text transform="matrix(1 0 0 1 38.4656 1036.3398)" font-family="'MyriadPro-Regular'" font-size="12.6756">calculator</text>
<path d="M164.795,989.521c-3.958,0-7.162,3.207-7.162,7.161c0,3.961,3.204,7.167,7.162,7.167c3.957,0,7.163-3.206,7.163-7.167
	C171.958,992.729,168.752,989.521,164.795,989.521z M179.072,981.338h-31.117v-3.209h-8.928v3.209h-3.21
	c-1.313,0-2.372,1.063-2.372,2.373v25.95c0,1.312,1.061,2.374,2.372,2.374h43.255c1.311,0,2.373-1.063,2.373-2.374v-25.95
	C181.445,982.4,180.383,981.338,179.072,981.338z M145.59,999.195h-4.473c-1.387,0-2.51-1.123-2.51-2.508
	c0-1.388,1.123-2.511,2.51-2.511h4.473c1.386,0,2.508,1.123,2.508,2.511C148.096,998.072,146.974,999.195,145.59,999.195z
	 M164.795,1007.851c-6.166,0-11.166-4.997-11.166-11.167c0-6.164,5-11.159,11.166-11.159c6.165,0,11.162,4.995,11.162,11.159
	C175.957,1002.854,170.96,1007.851,164.795,1007.851z M145.59,995.013l-4.473,0.004c-0.922,0.003-1.668,0.745-1.672,1.672
	c0.004,0.923,0.75,1.667,1.672,1.668h4.473c0.923-0.001,1.668-0.745,1.668-1.668C147.258,995.762,146.511,995.019,145.59,995.013z"
	/>
<g>
	<text transform="matrix(1 0 0 1 136.6345 1036.8496)" font-family="'MyriadPro-Regular'" font-size="12.6756">camera</text>
</g>
<g>
	<g>
		<path d="M278.976,1286.635h-46.483c-0.418,0-0.758,0.339-0.758,0.759v32.337c0,0.42,0.34,0.758,0.758,0.758h17.053v-1.009
			c0-0.42,0.341-0.761,0.759-0.761h10.608c0.42,0,0.76,0.341,0.76,0.761v1.009h17.305c0.421,0,0.759-0.338,0.759-0.758v-32.337
			C279.735,1286.974,279.397,1286.635,278.976,1286.635z M266.401,1319.353c-0.563,0-1.02-0.47-1.02-1.043
			c0-0.575,0.456-1.041,1.02-1.041c0.561,0,1.018,0.466,1.018,1.041C267.419,1318.883,266.962,1319.353,266.401,1319.353z
			 M269.953,1319.398c-0.563,0-1.019-0.468-1.019-1.044c0-0.574,0.456-1.04,1.019-1.04c0.563,0,1.02,0.466,1.02,1.04
			C270.971,1318.932,270.516,1319.398,269.953,1319.398z M275.188,1315.646c0,0.312-0.277,0.564-0.619,0.564h-37.923
			c-0.34,0-0.616-0.254-0.616-0.564v-24.17c0-0.312,0.276-0.563,0.616-0.563h37.923c0.342,0,0.619,0.253,0.619,0.563V1315.646z"/>
		<path d="M266.249,1324.367c0,0.492-0.397,0.891-0.893,0.891h-20.729c-0.494,0-0.893-0.397-0.893-0.891v-1.339
			c0-0.491,0.397-0.891,0.893-0.891h20.729c0.494,0,0.893,0.398,0.893,0.891V1324.367z"/>
	</g>
</g>
<g>
	<text transform="matrix(1 0 0 1 234.3586 1354.8154)" font-family="'MyriadPro-Regular'" font-size="12.6756">monitor</text>
</g>
<g>
	<text transform="matrix(1 0 0 1 333.6912 1350.8154)" font-family="'MyriadPro-Regular'" font-size="12.6756">Server</text>
</g>
<g>
	<text transform="matrix(1 0 0 1 434.3591 1346.8154)" font-family="'MyriadPro-Regular'" font-size="12.6756">Tablet</text>
</g>
<g>
	<path d="M172.778,1292.715h-2.413l-11.229,11.658v17.006c0,0.763-0.62,1.381-1.384,1.381h-26.073c-0.764,0-1.381-0.618-1.381-1.381
		v-22.104c0-0.761,0.617-1.378,1.381-1.378h18.244l5.315-5.183h-27.704c-0.764,0-1.379,0.615-1.379,1.381v32.637
		c0,0.761,0.615,1.383,1.379,1.383h45.242c0.764,0,1.379-0.622,1.379-1.383v-32.637
		C174.157,1293.331,173.542,1292.715,172.778,1292.715z M168.287,1322.935c0,0.76-0.618,1.38-1.381,1.38h-2.589
		c-0.765,0-1.383-0.62-1.383-1.38v-2.593c0-0.763,0.618-1.383,1.383-1.383h2.589c0.763,0,1.381,0.62,1.381,1.383V1322.935z"/>
	<path d="M147.423,1308.995l6.262-1.77l18.09-18.779c0.173-6.043-4.665-4.49-4.665-4.49l-18.863,18.393L147.423,1308.995z"/>
</g>
<text transform="matrix(1 0 0 1 134.1296 1354.8154)" font-family="'MyriadPro-Regular'" font-size="12.6756">tablet</text>
<text transform="matrix(1 0 0 1 41.4626 1467.4824)" font-family="'MyriadPro-Regular'" font-size="12.6756">Laptop</text>
<text transform="matrix(1 0 0 1 128.1296 1467.4824)" font-family="'MyriadPro-Regular'" font-size="12.6756">Mobile</text>
<text transform="matrix(1 0 0 1 214.7957 1467.4824)" font-family="'MyriadPro-Regular'" font-size="12.6756">Windows mobile</text>
<text transform="matrix(1 0 0 1 340.7966 1467.4824)" font-family="'MyriadPro-Regular'" font-size="12.6756">Ipod</text>
<text transform="matrix(1 0 0 1 450.1296 1467.4824)" font-family="'MyriadPro-Regular'" font-size="12.6756">Ipad</text>
<g>
	<path d="M265.927,1181.811H244.98c-0.689,0-1.252,0.562-1.252,1.252v33.609c0,0.691,0.563,1.25,1.252,1.25h20.947
		c0.689,0,1.25-0.559,1.25-1.25v-33.609C267.177,1182.371,266.618,1181.811,265.927,1181.811z M261.533,1214.992h-11.88v-2.697
		h11.88V1214.992z"/>
	<path d="M262.749,1169.922h-14.59v8.963h14.59V1169.922z M253.403,1176.966h-2.344v-2.562h2.344V1176.966z M260.047,1176.966
		h-2.344v-2.562h2.344V1176.966z"/>
</g>
<g>
	<text transform="matrix(1 0 0 1 228.9802 1232.8945)" font-family="'MyriadPro-Regular'" font-size="12.6756">   memory</text>
	<text transform="matrix(1 0 0 1 228.9802 1248.1055)" font-family="'MyriadPro-Regular'" font-size="12.6756">       stick</text>
</g>
<path d="M472.337,1180.503h-44.131c-1.069,0-1.937,0.863-1.937,1.935v23.612c0,1.07,0.866,1.938,1.937,1.938h44.131
	c1.067,0,1.934-0.866,1.934-1.938v-23.612C474.269,1181.366,473.404,1180.503,472.337,1180.503z M457.969,1185.528
	c0-0.709,0.576-1.286,1.286-1.286h3.176c0.711,0,1.287,0.577,1.287,1.286v3.138c0,0.712-0.576,1.286-1.287,1.286h-3.176
	c-0.71,0-1.286-0.574-1.286-1.286V1185.528z M460.346,1192.191v3.135c0,0.712-0.574,1.288-1.286,1.288h-3.176
	c-0.713,0-1.287-0.576-1.287-1.288v-3.135c0-0.713,0.574-1.288,1.287-1.288h3.176
	C459.772,1190.903,460.346,1191.479,460.346,1192.191z M451.355,1185.224c0-0.711,0.576-1.286,1.285-1.286h3.177
	c0.712,0,1.288,0.575,1.288,1.286v3.138c0,0.71-0.576,1.282-1.288,1.282h-3.177c-0.709,0-1.285-0.572-1.285-1.282V1185.224z
	 M453.719,1192.191v3.135c0,0.712-0.577,1.288-1.289,1.288h-3.176c-0.71,0-1.284-0.576-1.284-1.288v-3.135
	c0-0.713,0.574-1.288,1.284-1.288h3.176C453.141,1190.903,453.719,1191.479,453.719,1192.191z M444.822,1185.368
	c0-0.71,0.577-1.287,1.287-1.287h3.176c0.713,0,1.289,0.577,1.289,1.287v3.137c0,0.71-0.576,1.286-1.289,1.286h-3.176
	c-0.71,0-1.287-0.576-1.287-1.286V1185.368z M446.8,1192.336v3.136c0,0.712-0.577,1.288-1.287,1.288h-3.176
	c-0.71,0-1.287-0.577-1.287-1.288v-3.136c0-0.71,0.577-1.286,1.287-1.286h3.176C446.221,1191.05,446.8,1191.626,446.8,1192.336z
	 M438.001,1185.464c0-0.709,0.575-1.286,1.286-1.286h3.179c0.709,0,1.285,0.577,1.285,1.286v3.138c0,0.71-0.576,1.286-1.285,1.286
	h-3.179c-0.711,0-1.286-0.576-1.286-1.286V1185.464z M430.841,1185.416c0-0.71,0.573-1.286,1.283-1.286h3.178
	c0.712,0,1.288,0.576,1.288,1.286v3.138c0,0.709-0.576,1.285-1.288,1.285h-3.178c-0.71,0-1.283-0.576-1.283-1.285V1185.416z
	 M436.492,1202.052c0,0.711-0.575,1.288-1.288,1.288h-3.177c-0.709,0-1.283-0.577-1.283-1.288v-3.136
	c0-0.71,0.574-1.286,1.283-1.286h3.177c0.713,0,1.288,0.576,1.288,1.286V1202.052z M438.496,1196.661h-3.178
	c-0.709,0-1.285-0.576-1.285-1.287v-3.135c0-0.709,0.576-1.288,1.285-1.288h3.178c0.711,0,1.287,0.579,1.287,1.288v3.135
	C439.783,1196.085,439.207,1196.661,438.496,1196.661z M461.945,1201.845c0,0.64-2.256,1.155-5.035,1.155h-12.428
	c-2.776,0-5.029-0.517-5.029-1.155v-2.815c0-0.64,2.253-1.157,5.029-1.157h12.428c2.779,0,5.035,0.519,5.035,1.157V1201.845z
	 M461.453,1195.538v-3.138c0-0.71,0.574-1.288,1.285-1.288h3.179c0.71,0,1.286,0.578,1.286,1.288v3.138
	c0,0.709-0.576,1.285-1.286,1.285h-3.179C462.027,1196.823,461.453,1196.247,461.453,1195.538z M470.896,1202.247
	c0,0.709-0.574,1.285-1.287,1.285h-3.179c-0.71,0-1.284-0.576-1.284-1.285v-3.138c0-0.71,0.574-1.286,1.284-1.286h3.179
	c0.713,0,1.287,0.576,1.287,1.286V1202.247z M470.976,1188.521c0,0.711-0.576,1.286-1.287,1.286h-3.176
	c-0.71,0-1.286-0.575-1.286-1.286v-3.138c0-0.71,0.576-1.286,1.286-1.286h3.176c0.711,0,1.287,0.576,1.287,1.286V1188.521z"/>
<g>
	<text transform="matrix(1 0 0 1 425.4138 1231.6475)" font-family="'MyriadPro-Regular'" font-size="12.6756">keyboard</text>
</g>
<g>
	<path d="M247.619,1009.822c0,0.566-0.459,1.026-1.024,1.026h-1.371c-0.566,0-1.025-0.46-1.025-1.026v-15.06
		c0-0.565,0.459-1.025,1.025-1.025h1.371c0.565,0,1.024,0.46,1.024,1.025V1009.822z"/>
	<path d="M276.709,1009.822c0,0.566-0.459,1.026-1.024,1.026h-1.37c-0.566,0-1.026-0.46-1.026-1.026v-15.06
		c0-0.565,0.46-1.025,1.026-1.025h1.37c0.565,0,1.024,0.46,1.024,1.025V1009.822z"/>
	<path d="M242.486,996.367c-3.423,0.413-6.033,3.301-6.033,6.811s2.61,6.398,6.033,6.813V996.367z"/>
	<path d="M278.421,996.367c3.424,0.413,6.032,3.301,6.032,6.811s-2.608,6.398-6.032,6.813V996.367z"/>
	<path d="M246.523,992.025c0.854-6.845,6.265-11.211,12.827-11.211s11.974,4.366,12.829,11.211h2.059
		c-0.867-8.556-7.197-13.25-14.888-13.25c-7.691,0-14.02,4.694-14.887,13.25H246.523z"/>
</g>
<g>
	<text transform="matrix(1 0 0 1 229.8357 1032.9277)" font-family="'MyriadPro-Regular'" font-size="12.6756">headphone</text>
</g>
<g>
	<text transform="matrix(1 0 0 1 326.9138 1229.377)" font-family="'MyriadPro-Regular'" font-size="12.6756">joystick</text>
</g>
<g>
	<g>
		<path d="M362.119,1189.021c-0.121-0.064-0.253-0.115-0.401-0.115h-10.495c-0.539-1.688-2.35-2.931-4.504-2.931
			c-2.155,0-3.965,1.242-4.505,2.931h-10.495c-0.073,0-0.14,0.022-0.206,0.043c-5.041,0.418-9.002,4.578-9.002,9.656
			c0,5.354,4.401,9.694,9.836,9.694c3.825,0,7.135-2.156,8.76-5.3h10.805c1.627,3.144,4.937,5.3,8.762,5.3
			c5.432,0,9.839-4.341,9.839-9.694C370.51,1193.733,366.862,1189.713,362.119,1189.021z M338.868,1198.761
			c0,0.375-0.306,0.681-0.68,0.681h-4.03v4.03c0,0.375-0.304,0.681-0.68,0.681h-1.568c-0.377,0-0.683-0.306-0.683-0.681v-4.03
			h-4.026c-0.378,0-0.682-0.306-0.682-0.681v-1.571c0-0.373,0.304-0.679,0.682-0.679h4.026v-4.027c0-0.378,0.306-0.68,0.683-0.68
			h1.568c0.376,0,0.68,0.302,0.68,0.68v4.027h4.03c0.374,0,0.68,0.306,0.68,0.679V1198.761z M357.392,1201.046
			c-1.002,0-1.815-0.812-1.815-1.815c0-1,0.813-1.813,1.815-1.813s1.812,0.813,1.812,1.813
			C359.204,1200.234,358.394,1201.046,357.392,1201.046z M361.228,1193.335c1.002,0.021,1.797,0.848,1.779,1.848
			c-0.021,1.003-0.847,1.802-1.85,1.781c-1.003-0.02-1.798-0.848-1.777-1.848C359.399,1194.112,360.226,1193.318,361.228,1193.335z
			 M361.299,1204.675c-1.001,0-1.813-0.813-1.813-1.815c0-1,0.813-1.813,1.813-1.813c1.003,0,1.814,0.813,1.814,1.813
			C363.113,1203.862,362.302,1204.675,361.299,1204.675z M365.066,1201.046c-1.004,0-1.813-0.812-1.813-1.812
			c0-1.004,0.811-1.817,1.813-1.817c1.001,0,1.813,0.813,1.813,1.817C366.881,1200.234,366.067,1201.046,365.066,1201.046z"/>
		<path d="M346.839,1184.075c-0.014-0.057-0.307-1.386,0.551-2.593c0.693-0.981,1.918-1.575,3.632-1.768
			c1.274-0.142,2.228-0.596,2.827-1.352c0.893-1.127,0.732-2.576,0.731-2.59l0.992-0.125c0.009,0.076,0.218,1.864-0.933,3.323
			c-0.772,0.979-1.954,1.564-3.509,1.736c-1.418,0.158-2.403,0.612-2.929,1.351c-0.59,0.833-0.393,1.78-0.391,1.79L346.839,1184.075
			z"/>
	</g>
</g>
<path d="M44.257,1405.281h32.112v22.378h3.991v-26.37H40.263v26.37h3.993V1405.281z M50.551,1411.016l-0.083,4.081l1.229-0.944
	l1.128,1.825l0.797-0.449l-1.011-1.858l1.393-0.547L50.551,1411.016z M36.311,1429.323v4.631h48v-4.631H36.311z M60.311,1433.15
	c-0.794,0-1.443-0.646-1.443-1.443c0-0.795,0.649-1.441,1.443-1.441c0.797,0,1.442,0.646,1.442,1.441
	C61.754,1432.504,61.108,1433.15,60.311,1433.15z"/>
<path d="M447.401,1393.622v48h31.65v-48H447.401z M463.01,1439.36c-1.657,0-3-1.345-3-3c0-1.659,1.343-3,3-3c1.654,0,3,1.341,3,3
	C466.01,1438.016,464.665,1439.36,463.01,1439.36z M475.662,1430.62h-24.785v-33.26h24.785V1430.62z"/>
<path d="M432.174,1281.946v48h37.982v-48H432.174z M444.475,1327.894c-0.742,0-1.34-0.596-1.34-1.337
	c0-0.738,0.598-1.338,1.34-1.338c0.739,0,1.337,0.6,1.337,1.338C445.812,1327.298,445.215,1327.894,444.475,1327.894z
	 M451.163,1328.856c-1.269,0-2.298-1.029-2.298-2.3s1.029-2.299,2.298-2.299c1.271,0,2.302,1.028,2.302,2.299
	S452.433,1328.856,451.163,1328.856z M457.854,1327.894c-0.739,0-1.337-0.599-1.337-1.337s0.598-1.338,1.337-1.338
	c0.738,0,1.338,0.6,1.338,1.338S458.593,1327.894,457.854,1327.894z M465.058,1323.14h-27.789v-36.185h27.789V1323.14z"/>
<path d="M338.441,1393.622v48h28.974v-48H338.441z M344.69,1430.098c-0.987,0-1.791-0.804-1.791-1.791
	c0-0.989,0.804-1.79,1.791-1.79V1430.098z M352.907,1438.334c-0.989,0-1.791-0.802-1.791-1.791h3.579
	C354.695,1437.532,353.894,1438.334,352.907,1438.334z M352.904,1434.6c-3.476,0-6.292-2.817-6.292-6.293s2.816-6.293,6.292-6.293
	c3.475,0,6.291,2.817,6.291,6.293S356.379,1434.6,352.904,1434.6z M351.116,1420.068c0-0.989,0.802-1.79,1.791-1.79
	c0.987,0,1.788,0.801,1.788,1.79H351.116z M361.164,1430.098v-3.581c0.989,0,1.791,0.801,1.791,1.79
	C362.955,1429.294,362.153,1430.098,361.164,1430.098z M364.343,1414.987h-22.829v-17.707h22.829V1414.987z"/>
<path d="M337.213,1288.389c0.4,0,0.725-0.325,0.725-0.724c0-0.401-0.324-0.725-0.725-0.725c-0.398,0-0.723,0.323-0.723,0.725
	C336.49,1288.063,336.814,1288.389,337.213,1288.389z M337.213,1297.231c0.4,0,0.725-0.323,0.725-0.724
	c0-0.398-0.324-0.725-0.725-0.725c-0.398,0-0.723,0.326-0.723,0.725C336.49,1296.908,336.814,1297.231,337.213,1297.231z
	 M337.213,1306.201c0.4,0,0.725-0.325,0.725-0.724c0-0.401-0.324-0.725-0.725-0.725c-0.398,0-0.723,0.323-0.723,0.725
	C336.49,1305.876,336.814,1306.201,337.213,1306.201z M337.213,1315.138c0.4,0,0.725-0.323,0.725-0.724
	c0-0.398-0.324-0.725-0.725-0.725c-0.398,0-0.723,0.326-0.723,0.725C336.49,1314.814,336.814,1315.138,337.213,1315.138z
	 M331.488,1281.946v45.501h1.304v2.499h3.331v-2.499h24.469v2.499h3.332v-2.499h1.447v-45.501H331.488z M335.56,1324.244h-0.867
	v-4.995h0.867V1324.244z M337.299,1324.244h-0.869v-4.995h0.869V1324.244z M339.036,1324.244h-0.87v-4.995h0.87V1324.244z
	 M340.773,1324.244h-0.869v-4.995h0.869V1324.244z M342.51,1324.244h-0.867v-4.995h0.867V1324.244z M344.248,1324.244h-0.867v-4.995
	h0.867V1324.244z M345.986,1324.244h-0.869v-4.995h0.869V1324.244z M347.724,1324.244h-0.869v-4.995h0.869V1324.244z
	 M349.461,1324.244h-0.869v-4.995h0.869V1324.244z M351.199,1324.244h-0.869v-4.995h0.869V1324.244z M352.936,1324.244h-0.869
	v-4.995h0.869V1324.244z M354.674,1324.244h-0.867v-4.995h0.867V1324.244z M356.412,1324.244h-0.869v-4.995h0.869V1324.244z
	 M358.149,1324.244h-0.87v-4.995h0.87V1324.244z M359.886,1324.244h-0.869v-4.995h0.869V1324.244z M361.623,1324.244h-0.867v-4.995
	h0.867V1324.244z M361.931,1316.842h-27.223v-4.922h27.223V1316.842z M361.931,1307.865h-27.223v-4.926h27.223V1307.865z
	 M361.931,1298.889h-27.223v-4.926h27.223V1298.889z M361.931,1290.053h-27.223v-4.922h27.223V1290.053z M360.72,1286.966h-11.813
	v1.25h11.813V1286.966z M360.72,1295.966h-11.813v1.25h11.813V1295.966z M360.72,1304.842h-11.813v1.249h11.813V1304.842z
	 M360.72,1313.842h-11.813v1.249h11.813V1313.842z"/>
<path d="M132.13,1393.622v48h27.445v-48H132.13z M134.875,1397.447h21.955v26.744h-21.955V1397.447z M140.761,1438.913
	c0,0.352-0.283,0.64-0.635,0.64h-4.771c-0.352,0-0.636-0.288-0.636-0.64v-1.376c0-0.352,0.284-0.636,0.636-0.636h4.771
	c0.352,0,0.635,0.284,0.635,0.636V1438.913z M140.761,1434.142c0,0.352-0.283,0.64-0.635,0.64h-4.771
	c-0.352,0-0.636-0.288-0.636-0.64v-1.379c0-0.349,0.284-0.633,0.636-0.633h4.771c0.352,0,0.635,0.284,0.635,0.633V1434.142z
	 M140.761,1429.372c0,0.354-0.283,0.639-0.635,0.639h-4.771c-0.352,0-0.636-0.285-0.636-0.639v-1.377
	c0-0.352,0.284-0.637,0.636-0.637h4.771c0.352,0,0.635,0.285,0.635,0.637V1429.372z M148.715,1438.913
	c0,0.352-0.287,0.64-0.639,0.64h-4.769c-0.353,0-0.636-0.288-0.636-0.64v-1.376c0-0.352,0.283-0.636,0.636-0.636h4.769
	c0.352,0,0.639,0.284,0.639,0.636V1438.913z M148.715,1434.142c0,0.352-0.287,0.64-0.639,0.64h-4.769
	c-0.353,0-0.636-0.288-0.636-0.64v-1.379c0-0.349,0.283-0.633,0.636-0.633h4.769c0.352,0,0.639,0.284,0.639,0.633V1434.142z
	 M148.715,1429.372c0,0.354-0.287,0.639-0.639,0.639h-4.769c-0.353,0-0.636-0.285-0.636-0.639v-1.377
	c0-0.352,0.283-0.637,0.636-0.637h4.769c0.352,0,0.639,0.285,0.639,0.637V1429.372z M156.983,1438.913
	c0,0.352-0.286,0.64-0.636,0.64h-4.77c-0.352,0-0.637-0.288-0.637-0.64v-1.376c0-0.352,0.285-0.636,0.637-0.636h4.77
	c0.35,0,0.636,0.284,0.636,0.636V1438.913z M156.983,1434.142c0,0.352-0.286,0.64-0.636,0.64h-4.77c-0.352,0-0.637-0.288-0.637-0.64
	v-1.379c0-0.349,0.285-0.633,0.637-0.633h4.77c0.35,0,0.636,0.284,0.636,0.633V1434.142z M156.983,1429.372
	c0,0.354-0.286,0.639-0.636,0.639h-4.77c-0.352,0-0.637-0.285-0.637-0.639v-1.377c0-0.352,0.285-0.637,0.637-0.637h4.77
	c0.35,0,0.636,0.285,0.636,0.637V1429.372z M156.809,1396.051c-0.293,0-0.532-0.239-0.532-0.534c0-0.294,0.239-0.532,0.532-0.532
	c0.296,0,0.534,0.238,0.534,0.532C157.344,1395.812,157.105,1396.051,156.809,1396.051z"/>
<path d="M244.744,1393.622v48h25.533v-48H244.744z M252.949,1395.664h9.226v1.055h-9.226V1395.664z M256.886,1438.528
	c-0.047-0.032-0.518-0.347-0.951-0.385c-0.677-0.063-1.152,0.197-1.264,0.264l0.556-1.916c0,0,0.509-0.352,1.272-0.281
	c0.39,0.035,0.674,0.204,0.947,0.392l-0.558,1.93C256.889,1438.531,256.889,1438.53,256.886,1438.528z M255.317,1436.164
	l0.556-1.918c0,0,0.506-0.352,1.271-0.281c0.39,0.035,0.674,0.204,0.949,0.392l-0.558,1.929c0,0-0.002,0-0.005-0.002
	c-0.047-0.032-0.518-0.347-0.951-0.387C255.905,1435.836,255.427,1436.096,255.317,1436.164z M259.345,1438.89
	c-0.146,0.074-0.642,0.286-1.221,0.22c-0.387-0.046-0.673-0.199-0.936-0.374l0.561-1.927c0.256,0.171,0.536,0.323,0.912,0.367
	c0.684,0.08,1.251-0.241,1.251-0.241L259.345,1438.89z M259.99,1436.645c-0.147,0.072-0.64,0.286-1.223,0.22
	c-0.385-0.044-0.668-0.201-0.932-0.373l0.557-1.928c0.258,0.171,0.536,0.323,0.913,0.365c0.687,0.082,1.252-0.239,1.252-0.239
	L259.99,1436.645z M268.233,1431.306h-21.445v-32.578h21.445V1431.306z"/>
</svg>
