<?xml version="1.0" encoding="utf-8"?>
<!-- Generator: Adobe Illustrator 15.1.0, SVG Export Plug-In . SVG Version: 6.00 Build 0)  -->
<!DOCTYPE svg PUBLIC "-//W3C//DTD SVG 1.1//EN" "http://www.w3.org/Graphics/SVG/1.1/DTD/svg11.dtd">
<svg version="1.1" id="Layer_1" xmlns="http://www.w3.org/2000/svg" xmlns:xlink="http://www.w3.org/1999/xlink" x="0px" y="0px"
	 width="471px" height="409.5px" viewBox="0 0 471 409.5" enable-background="new 0 0 471 409.5" xml:space="preserve">
<g>
	<g>
		<polygon points="74.608,106.09 75.475,109.123 76.341,112.155 74.608,112.155 72.875,112.155 73.742,109.123 		"/>
		<polygon points="77.769,108.017 78.635,111.005 79.501,113.993 77.769,113.993 76.036,113.993 76.902,111.005 		"/>
		<polygon points="71.382,108 72.249,110.988 73.115,113.977 71.382,113.977 69.649,113.977 70.516,110.988 		"/>
		<rect x="69.625" y="113.982" width="9.876" height="19.095"/>
		<rect x="72.292" y="112.073" width="4.642" height="2.634"/>
		<polygon points="60.884,134.92 84.341,134.92 84.341,137.34 81.279,137.34 81.279,142.476 67.946,142.476 67.946,139.315 
			60.884,137.39 		"/>
		<path d="M79.057,119.612c0,0,4.198,5.926,5.432,6.617v3.161c0,0-4.197-3.654-5.48-5.976L79.057,119.612z"/>
	</g>
	<g>
		<polygon points="46.37,106.09 45.504,109.123 44.637,112.155 46.37,112.155 48.103,112.155 47.237,109.123 		"/>
		<polygon points="43.21,108.017 42.343,111.005 41.477,113.993 43.21,113.993 44.943,113.993 44.076,111.005 		"/>
		<polygon points="49.597,108 48.73,110.988 47.864,113.977 49.597,113.977 51.33,113.977 50.463,110.988 		"/>
		<rect x="41.477" y="113.982" width="9.876" height="19.095"/>
		<rect x="44.045" y="112.073" width="4.642" height="2.634"/>
		<polygon points="61.094,134.92 36.637,134.92 36.637,137.34 39.699,137.34 39.699,142.476 53.032,142.476 53.032,139.315 
			61.094,137.39 		"/>
		<path d="M41.921,119.612c0,0-4.198,5.926-5.433,6.617v3.161c0,0,4.197-3.654,5.481-5.976L41.921,119.612z"/>
	</g>
	<rect x="53.23" y="116.056" width="14.568" height="4.197"/>
</g>
<g>
	<path d="M150.138,107.532l-0.442-4.879c0-1.129-0.915-2.044-2.044-2.044c-1.128,0-2.043,0.915-2.043,2.044l-0.663,4.879H150.138z"
		/>
	<path d="M140.361,108.01c0,0,2.763-0.681,4.584-0.479l6.188-0.129C151.132,107.403,145.222,111.49,140.361,108.01z"/>
	<path d="M139.809,108.342c0,0-2.541,0.829-3.922,0.773c0,0,4.309,4.364,12.428,2.651c0,0,3.369-0.663,7.07-3.922l-3.701-0.442
		C151.684,107.403,145.498,112.429,139.809,108.342z"/>
	<path d="M133.567,110.441c0,0,1.216,3.425,3.314,2.32c0,0,0.772-0.11,2.099,0.442l4.087,1.271l9.335-0.387
		c0,0,2.707-0.055,5.138-1.381l1.437,0.11c0,0,0.939,0.276,1.603-0.166c0,0,0.772-0.221,1.656-2.099h1.491c0,0,2.873,0.442,3.038,0
		c0,0,0.166-0.552-1.16-0.939c0,0-7.678-0.276-9.832-1.381c0,0-3.259,3.646-9.335,4.584c0,0-6.628,0.663-11.268-3.59l-5.579,0.276
		c0,0-0.884,0.718-0.387,0.939L133.567,110.441L133.567,110.441z"/>
	<path d="M143.233,114.142l-0.332,9.556c0,0,0.222,2.32,3.094,3.259c0,0,5.8,2.43,6.187,3.259c0,0,0.552,0.442,0.718-2.32
		l-0.387-14.361L143.233,114.142z"/>
	<path d="M144.228,126.735v13.257h7.291l0.497-9.225C152.016,130.768,148.205,128.116,144.228,126.735z"/>
	<rect x="143.04" y="139.937" width="9.224" height="2.43"/>
	<rect x="142.239" y="140.986" width="10.827" height="2.541"/>
	<rect x="141.438" y="141.705" width="12.429" height="6.904"/>
</g>
<path d="M346.099,724.595"/>
<g>
	<path d="M211.919,101.023c0,0,0.357-0.511,0.92-0.409c0,0,6.135,3.783,1.84,7.464h-3.425c0,0-3.272-2.147,0.051-5.01
		C211.306,103.068,211.817,102.812,211.919,101.023z"/>
	<rect x="211.255" y="107.566" width="3.425" height="1.84"/>
	<path d="M217.338,111.861c0,0.339-0.274,0.613-0.613,0.613h-7.515c-0.339,0-0.613-0.274-0.613-0.613v-2.505
		c0-0.339,0.274-0.614,0.613-0.614h7.515c0.339,0,0.613,0.275,0.613,0.614V111.861z"/>
	<path d="M210.692,112.167c0,0-3.066,3.476,0.818,6.083c0,0,0.767,8.435,2.096,11.196l4.09-2.965c0,0-2.146-7.873-1.789-14.723
		L210.692,112.167z"/>
	<ellipse cx="226.54" cy="125.689" rx="5.47" ry="6.416"/>
	<g>
		<polygon points="230.988,122.443 236.714,123.21 236.765,124.744 231.653,125.408 		"/>
		<circle cx="236.739" cy="123.968" r="0.775"/>
	</g>
	<g>
		<polygon points="228.237,120.379 232.828,116.873 233.949,117.921 230.804,122.006 		"/>
		<circle cx="233.382" cy="117.391" r="0.775"/>
	</g>
	<g>
		<polygon points="225.049,120.134 225.816,114.408 227.35,114.357 228.015,119.469 		"/>
		<circle cx="226.574" cy="114.383" r="0.775"/>
	</g>
	<g>
		<polygon points="222.832,122.629 219.326,118.038 220.374,116.918 224.459,120.063 		"/>
		<circle cx="219.844" cy="117.484" r="0.775"/>
	</g>
	<g>
		<polygon points="222.382,125.562 216.657,124.794 216.606,123.261 221.718,122.596 		"/>
		<circle cx="216.631" cy="124.036" r="0.775"/>
	</g>
	<path d="M217.304,126.379c0,0,1.636,0.205,2.999,2.658c0,0,1.772,4.499,6.339,4.703c0,0,0.886,0.273,3.749,0.205
		c0,0,4.908,0.273,7.361,6.544l1.5,8.111H217.1l0.409-4.158c0,0-8.281-2.386-3.902-14.996L217.304,126.379z"/>
	<polygon points="237.344,141.034 240.479,136.944 247.568,142.193 243.085,148.601 238.775,148.601 	"/>
</g>
<g>
	<path d="M317.518,119.243c0.163-0.212,0.163-0.56,0-0.771l-3.044-3.972c-0.163-0.212-0.429-0.212-0.592,0l-15.087,19.681
		c-0.162,0.212-0.076,0.385,0.189,0.385h6.301c0.268,0,0.618-0.173,0.78-0.385L317.518,119.243z"/>
	<path d="M323.156,115.854c-0.163-0.212-0.429-0.212-0.592,0l-19.368,25.266c-0.161,0.212-0.076,0.386,0.19,0.386h38.946
		c0.268,0,0.354-0.174,0.19-0.386L323.156,115.854c-0.163-0.212-0.429-0.212-0.592,0l-19.368,25.266
		c-0.161,0.212-0.076,0.386,0.19,0.386h38.946c0.268,0,0.354-0.174,0.19-0.386L323.156,115.854z"/>
	<path d="M337.968,119.54c0,0-3.11,8.683-4.795,9.979l2.979,3.823c0,0,3.24-6.479,3.888-13.413L337.968,119.54z"/>
	<path d="M337.32,116.834c0,0-5.733-2.187-6.755,4.909c0,0-0.098,0.729,0.048,1.458c0,0,0.486,0.583,0.924,0.049
		c0,0,2.818-3.159,6.609-3.354L337.32,116.834z"/>
	<path d="M339.7,115.814c0,0-0.875-5.443-6.123-2.43c0,0-1.166,0.656-1.556,1.75c0,0,0,0.826,0.778,0.632
		c0,0,2.284-1.069,4.52,1.069L339.7,115.814z"/>
	<path d="M339.799,116.154c0,0,2.234-4.18,6.024-0.486c0,0,1.167,1.239,0.826,3.693c0,0-0.34,0.583-0.874,0.146
		c0,0-1.361-2.333-4.617-1.361l-1.021-0.389L339.799,116.154z"/>
	<path d="M341.063,117.807l0.097,0.34c0,0,5.783,0.778,4.033,6.415c0,0-0.753,2.284-2.041,2.916c0,0-0.729,0.34-0.729-0.875
		c0,0,0.146-4.374-2.674-5.929l-0.098-1.652l0.681-0.68L341.063,117.807z"/>
	<path d="M338.534,115.279c0,0,1.117,0.194,1.313,0.826c0,0,1.021,1.75,1.069,2.381c0.048,0.631-1.265,1.896-1.265,1.896
		l-1.021,0.34l-1.166-1.555l-0.34-1.701l0.389-1.215L338.534,115.279z"/>
</g>
<path d="M405.211,105.974c0,0,1.427,1.141,2.909,3.822c0,0,0.343,2.225,1.939,3.48c0,0,1.769,1.655,2.054,2.054
	c0,0,0.57,1.141,0.799,2.567c0,0,0,1.027,0.628,1.141c0,0,16.09-0.057,20.806,6.941l0.076,17.04h-48v-27.993
	C386.422,115.026,388.096,107.419,405.211,105.974z"/>
<g>
	<g>
		<circle fill="#FFFFFF" cx="392.677" cy="138.769" r="1.716"/>
		<rect x="390.973" y="138.808" fill="#FFFFFF" width="3.416" height="4.222"/>
	</g>
</g>
<g>
	<g>
		<circle fill="#FFFFFF" cx="400.984" cy="138.375" r="1.921"/>
		<rect x="399.074" y="138.418" fill="#FFFFFF" width="3.824" height="4.725"/>
	</g>
</g>
<g>
	<g>
		<ellipse fill="#FFFFFF" cx="410.483" cy="138.346" rx="2.349" ry="1.921"/>
		<rect x="408.15" y="138.389" fill="#FFFFFF" width="4.675" height="4.726"/>
	</g>
</g>
<g>
	<g>
		<ellipse fill="#FFFFFF" cx="410.521" cy="127.088" rx="2.349" ry="1.921"/>
		<rect x="408.188" y="127.131" fill="#FFFFFF" width="4.676" height="4.726"/>
	</g>
</g>
<g>
	<g>
		<ellipse fill="#FFFFFF" cx="420.076" cy="138.404" rx="1.988" ry="1.875"/>
		<rect x="418.104" y="138.446" fill="#FFFFFF" width="3.955" height="4.611"/>
	</g>
</g>
<g>
	<g>
		<ellipse fill="#FFFFFF" cx="428.392" cy="138.824" rx="1.771" ry="1.729"/>
		<rect x="426.631" y="138.863" fill="#FFFFFF" width="3.527" height="4.252"/>
	</g>
</g>
<path fill="#FFFFFF" d="M426.635,132.959v-4.593c0,0,0.256-1.883,1.996-1.483c0,0,1.455,0.313,1.54,2.054v4.649L426.635,132.959z"/>
<path fill="#FFFFFF" d="M418.075,132.132v-4.85c0,0,0.457-2.025,2.254-1.683c0,0,1.54,0.229,1.77,2.025v4.764L418.075,132.132z"/>
<path fill="#FFFFFF" d="M398.897,132.446l4.146-0.38v-4.564c0,0-0.229-2.425-2.587-1.902c0,0-1.142,0.343-1.521,1.978
	L398.897,132.446z"/>
<path fill="#FFFFFF" d="M394.408,133.017l-3.537,0.533v-4.603c0,0,0.381-2.396,2.624-2.092c0,0,1.181,0.418,0.951,1.75
	L394.408,133.017z"/>
<path fill="#FFFFFF" d="M398.936,121.074v-4.716c0,0,0.57-2.548,2.814-2.168c0,0,0.988,0.152,1.179,2.168v4.07L398.936,121.074z"/>
<path fill="#FFFFFF" d="M394.485,121.948l-3.65,1.142v-4.26c0,0,0.343-2.929,2.623-2.51c0,0,0.989,0.19,0.989,1.407L394.485,121.948
	z"/>
<text transform="matrix(1 0 0 1 27.6663 164)" font-family="'MyriadPro-Regular'" font-size="10">London Bridge</text>
<text transform="matrix(1 0 0 1 116.3333 164)" font-family="'MyriadPro-Regular'" font-size="10">London Bridge</text>
<text transform="matrix(1 0 0 1 198.9998 165.334)" font-family="'MyriadPro-Regular'" font-size="10">Statue of liberty</text>
<text transform="matrix(1 0 0 1 302.3323 163.334)" font-family="'MyriadPro-Regular'" font-size="10">Pyramid</text>
<text transform="matrix(1 0 0 1 372.9993 164.667)" font-family="'MyriadPro-Regular'" font-size="10">Colosseum of Rome</text>
<text transform="matrix(1 0 0 1 121.1667 269.334)" font-family="'MyriadPro-Regular'" font-size="10">Great wall </text>
<text transform="matrix(1 0 0 1 121.1667 281.334)" font-family="'MyriadPro-Regular'" font-size="10">of China</text>
<text transform="matrix(1 0 0 1 44.1667 370.667)" font-family="'MyriadPro-Regular'" font-size="10">Big Ben</text>
<text transform="matrix(1 0 0 1 113.1667 370)" font-family="'MyriadPro-Regular'" font-size="10">Kremlin Palace</text>
<text transform="matrix(1 0 0 1 210.5002 270)" font-family="'MyriadPro-Regular'" font-size="10">Parthenon</text>
<text transform="matrix(1 0 0 1 34.8333 268.666)" font-family="'MyriadPro-Regular'" font-size="10">Eiffel tower</text>
<text transform="matrix(1 0 0 1 380.2073 266)" font-family="'MyriadPro-Regular'" font-size="10">Leaning Tower </text>
<text transform="matrix(1 0 0 1 398.6819 278)" font-family="'MyriadPro-Regular'" font-size="10">of Pisa</text>
<text transform="matrix(1 0 0 1 301.5002 267.667)" font-family="'MyriadPro-Regular'" font-size="10">Taj Mahal</text>
<g>
	<path d="M164.096,213.326c0,0.24-0.195,0.438-0.437,0.438h-14.855c-0.241,0-0.438-0.197-0.438-0.438v-3.86
		c0-0.241,0.195-0.437,0.438-0.437h14.855c0.24,0,0.437,0.195,0.437,0.437V213.326z"/>
	<path d="M156.668,203.566c0,0,3.059,4.006,7.173,5.39l0.073,0.583l-15.365-0.4c0,0,4.733-2.113,7.245-5.572H156.668z"/>
	<ellipse cx="156.235" cy="203.622" rx="0.434" ry="0.382"/>
	<path d="M166.59,211.905h-2.485v-2.567c0,0-0.025-0.3-0.654-0.49c0,0-3.486-1.438-6.781-5.226c0,0-0.183-0.474-0.865,0
		c0,0-3.14,3.858-6.799,5.226c0,0-0.655,0.235-0.638,0.618v2.421h-2.35c0,0-0.546,0.073-0.637,0.602v10.959l7.555,0.746v-3.731
		h0.001c0.013-1.56,1.485-2.821,3.305-2.821c1.824,0,3.305,1.271,3.305,2.84c0,0.024-0.002,0.051-0.003,0.076v3.637
		c0,0-19.653,5.526-23.585,23.386h14.254c0,0,6.712-5.963,14.74-8.64c0,0,2.075-0.545,2.131-1.801v-24.797
		C167.082,212.342,166.973,212.042,166.59,211.905z"/>
	<path d="M145.781,223.338c0,0-20.31,6.71-26.698,24.241h8.075c0,0,3.878-16.449,25.777-23.386L145.781,223.338z"/>
	<path d="M143.378,216.002v6.117c0,0-5.518,2.13-7.7,3.822c0,0-12.289-5.133-8.739-13.707c0,0,0.983-2.295,7.756-3.987
		c0,0,4.807-1.312,5.953-5.188c0,0,0.327-0.328,0.602-0.437l1.966,0.055c0,0,0.602,0.164,0.492,0.765c0,0,0.491,4.151-6.445,7.701
		c0,0-3.058,1.584-0.163,2.896C137.098,214.036,140.374,215.564,143.378,216.002z"/>
</g>
<g>
	<rect x="213.541" y="217.908" width="6.221" height="15.34"/>
	<rect x="223.402" y="217.979" width="6.222" height="15.34"/>
	<rect x="233.405" y="217.837" width="6.222" height="15.34"/>
	<rect x="243.266" y="217.908" width="6.222" height="15.34"/>
	<path d="M252.775,215.646c0,0.233-0.189,0.424-0.425,0.424h-41.638c-0.234,0-0.424-0.19-0.424-0.424v-4.879
		c0-0.233,0.188-0.424,0.424-0.424h41.638c0.234,0,0.425,0.19,0.425,0.424V215.646z"/>
	<polygon points="210.607,210.484 231.355,204.123 234.218,204.973 234.996,207.021 237.292,208.542 240.439,208.011 
		243.691,209.92 248.002,209.001 252.492,210.484 222.518,213.49 212.55,213.596 	"/>
	<path d="M255.532,239.964c0-0.233-0.19-0.424-0.425-0.424h-47.151c-0.234,0-0.424,0.19-0.424,0.424v0.495
		c0,0.234,0.188,0.424,0.424,0.424h47.151c0.233,0,0.425-0.189,0.425-0.424V239.964z"/>
	<polygon points="207.726,239.628 210.589,235.229 252.5,235.229 255.497,239.84 253.932,240.159 207.885,240.266 	"/>
</g>
<g>
	<polygon points="402.63,244.484 403.103,242.83 400.267,209.941 414.349,208.807 416.9,241.318 418.034,243.492 418.034,244.389 	
		"/>
	<path d="M421.614,245.57c0,0.705-0.57,1.277-1.274,1.277h-24.207c-0.704,0-1.275-0.572-1.275-1.277l0,0
		c0-0.704,0.571-1.275,1.275-1.275h24.207C421.043,244.295,421.614,244.866,421.614,245.57L421.614,245.57z"/>
	<g>
		<g>
			<circle fill="#FFFFFF" cx="404.585" cy="229.381" r="1.323"/>
			
				<rect x="403.387" y="229.397" transform="matrix(-0.997 0.0772 -0.0772 -0.997 826.0297 430.1213)" fill="#FFFFFF" width="2.632" height="3.252"/>
		</g>
	</g>
	<g>
		<g>
			<circle fill="#FFFFFF" cx="409.009" cy="228.973" r="1.322"/>
			
				<rect x="407.809" y="228.975" transform="matrix(-0.9978 0.0664 -0.0664 -0.9978 832.6587 433.531)" fill="#FFFFFF" width="2.633" height="3.253"/>
		</g>
	</g>
	<g>
		<g>
			<circle fill="#FFFFFF" cx="413.386" cy="228.494" r="1.323"/>
			
				<rect x="412.169" y="228.503" transform="matrix(-0.9978 0.0661 -0.0661 -0.9978 841.2666 432.4462)" fill="#FFFFFF" width="2.632" height="3.253"/>
		</g>
	</g>
	<g>
		<g>
			<circle fill="#FFFFFF" cx="405.294" cy="238.525" r="1.323"/>
			
				<rect x="404.096" y="238.54" transform="matrix(-0.997 0.0772 -0.0772 -0.997 828.1512 448.3284)" fill="#FFFFFF" width="2.632" height="3.254"/>
		</g>
	</g>
	<g>
		<g>
			<circle fill="#FFFFFF" cx="409.718" cy="238.117" r="1.322"/>
			
				<rect x="408.499" y="238.149" transform="matrix(-0.9978 0.066 -0.066 -0.9978 834.5686 451.9678)" fill="#FFFFFF" width="2.633" height="3.252"/>
		</g>
	</g>
	<g>
		<g>
			<circle fill="#FFFFFF" cx="414.095" cy="237.638" r="1.323"/>
			
				<rect x="412.886" y="237.643" transform="matrix(-0.9978 0.0657 -0.0657 -0.9978 843.2198 450.8274)" fill="#FFFFFF" width="2.633" height="3.252"/>
		</g>
	</g>
	<g>
		<g>
			<circle fill="#FFFFFF" cx="403.806" cy="220.804" r="1.323"/>
			
				<rect x="402.613" y="220.808" transform="matrix(-0.997 0.0772 -0.0772 -0.997 823.8168 413.0409)" fill="#FFFFFF" width="2.633" height="3.252"/>
		</g>
	</g>
	<g>
		<g>
			<circle fill="#FFFFFF" cx="408.229" cy="220.396" r="1.323"/>
			
				<rect x="407.011" y="220.429" transform="matrix(-0.9978 0.066 -0.066 -0.9978 830.4254 416.6663)" fill="#FFFFFF" width="2.633" height="3.253"/>
		</g>
	</g>
	<g>
		<g>
			<circle fill="#FFFFFF" cx="412.606" cy="219.918" r="1.323"/>
			
				<rect x="411.389" y="219.928" transform="matrix(-0.9978 0.0657 -0.0657 -0.9978 839.0695 415.522)" fill="#FFFFFF" width="2.632" height="3.252"/>
		</g>
	</g>
	<g>
		<g>
			<circle fill="#FFFFFF" cx="403.026" cy="212.157" r="1.322"/>
			
				<rect x="401.82" y="212.176" transform="matrix(-0.997 0.0768 -0.0768 -0.997 821.5022 396.009)" fill="#FFFFFF" width="2.632" height="3.253"/>
		</g>
	</g>
	<polygon points="401.52,201.766 401.98,208.182 412.293,207.33 411.69,200.419 	"/>
	<g>
		<g>
			
				<ellipse transform="matrix(-0.0772 -0.997 0.997 -0.0772 232.3786 622.9988)" fill="#FFFFFF" cx="404.51" cy="203.956" rx="1.424" ry="1.322"/>
			
				<rect x="403.334" y="203.983" transform="matrix(-0.997 0.0772 -0.0772 -0.997 823.9717 379.6247)" fill="#FFFFFF" width="2.632" height="3.503"/>
		</g>
	</g>
	<g>
		<g>
			
				<ellipse transform="matrix(-0.0772 -0.997 0.997 -0.0772 237.7216 626.952)" fill="#FFFFFF" cx="409.011" cy="203.459" rx="1.424" ry="1.322"/>
			
				<rect x="407.84" y="203.475" transform="matrix(-0.997 0.0772 -0.0772 -0.997 832.9268 378.2749)" fill="#FFFFFF" width="2.633" height="3.503"/>
		</g>
	</g>
	<g>
		<g>
			<circle fill="#FFFFFF" cx="407.449" cy="211.749" r="1.323"/>
			
				<rect x="406.249" y="211.751" transform="matrix(-0.9978 0.0661 -0.0661 -0.9978 828.3332 399.3699)" fill="#FFFFFF" width="2.632" height="3.253"/>
		</g>
	</g>
	<g>
		<g>
			<circle fill="#FFFFFF" cx="411.826" cy="211.27" r="1.323"/>
			
				<rect x="410.613" y="211.269" transform="matrix(-0.9978 0.0656 -0.0656 -0.9978 836.9447 398.2968)" fill="#FFFFFF" width="2.634" height="3.253"/>
		</g>
	</g>
	<path d="M416.079,207.537c0.07,0.701-0.489,1.331-1.252,1.406l-15.094,1.509c-0.762,0.075-1.436-0.431-1.506-1.132l0,0
		c-0.07-0.701,0.491-1.331,1.253-1.407l15.093-1.507C415.336,206.33,416.01,206.836,416.079,207.537L416.079,207.537z"/>
	<path d="M413.781,199.895c0.06,0.633-0.396,1.192-1.014,1.25l-12.252,1.129c-0.618,0.058-1.167-0.409-1.226-1.043l0,0
		c-0.059-0.633,0.396-1.192,1.015-1.25l12.252-1.129C413.175,198.794,413.723,199.261,413.781,199.895L413.781,199.895z"/>
</g>
<circle cx="60.432" cy="305.652" r="0.445"/>
<path d="M60.433,305.652c0,0-0.462,7.158-3.229,9.531v0.576h6.516v-0.568C63.719,315.191,61.915,314.425,60.433,305.652z"/>
<rect x="57.788" y="315.611" width="5.338" height="4.398"/>
<polygon points="57.937,318.973 54.822,324.087 54.822,324.656 66.042,324.656 66.042,324.111 63.002,318.898 "/>
<rect x="55.028" y="324.508" width="10.842" height="3.542"/>
<rect x="54.436" y="326.88" width="12.026" height="12.455"/>
<rect x="54.238" y="339.104" width="12.438" height="0.578"/>
<rect x="54.007" y="339.516" width="12.9" height="0.166"/>
<rect x="54.831" y="339.236" width="11.269" height="13.971"/>
<rect x="59.644" y="339.634" fill="#FFFFFF" width="1.497" height="10.28"/>
<rect x="63.103" y="339.634" fill="#FFFFFF" width="1.497" height="10.28"/>
<rect x="56.436" y="339.634" fill="#FFFFFF" width="1.497" height="10.28"/>
<circle fill="#FFFFFF" cx="60.433" cy="333.107" r="3.657"/>
<path d="M124.059,347.689c0-1.317,0.367-2.271,1.105-2.846c0.739-0.584,1.108-1.057,1.108-1.48v-3.162
	c-1.583-0.424-2.109-1.846-1.527-4.225c0.262-0.892,0.894-2.002,2.003-3.317c1.054-1.271,1.687-2.429,1.948-3.484
	c-0.524-0.263-0.843-0.582-1.001-1.112c-0.104-0.42-0.156-0.787-0.156-1.104c-0.052-2.056,0.738-3.798,2.372-5.382
	c1.637-1.529,2.533-3.477,2.69-5.904c0.158,2.371,1.107,4.375,2.9,6.012c1.742,1.578,2.587,3.318,2.587,5.274
	c0,0.944-0.423,1.687-1.268,2.216v11.555l1.056,1.102l0.581-1.418v-18.887l-0.951-1.534h1.161c0-2.105,0.634-3.9,2.005-5.533
	c1.372-1.642,2.004-3.112,2.004-4.327h-1.213c-0.315,0-0.473-0.158-0.526-0.426c0-0.262,0.158-0.365,0.526-0.365h1.531
	c-0.579-0.525-0.847-1.211-0.792-2.007c0-0.788,0.264-1.37,0.792-1.789c0.524-0.428,0.843-1.003,1.106-1.798
	c0.263,0.741,0.632,1.318,1.214,1.798c0.527,0.419,0.844,1.056,0.844,1.896c0,0.735-0.266,1.375-0.687,1.9h1.371
	c0.371,0,0.58,0.104,0.633,0.365c0,0.268-0.21,0.426-0.633,0.426h-1.371c0.051,1.213,0.739,2.641,2.11,4.327
	c1.371,1.583,2.058,3.429,2.004,5.533h1.266l-1.266,1.534v5.332c0.104,1.787,1.055,3.16,2.955,4.213
	c1.845,1.003,2.795,2.847,2.795,5.59c0,0.953-0.423,1.742-1.319,2.326v1.897l1.054,2.319h1.428v-14.03
	c-0.318,0-0.581-0.263-0.794-0.741c-0.157-0.529-0.208-1-0.264-1.476c0-1.583,0.791-3.325,2.321-5.168
	c1.532-1.849,2.426-3.8,2.746-5.748c0.42,1.949,1.317,3.847,2.743,5.59c1.371,1.74,2.162,3.528,2.372,5.326
	c0.052,0.476,0,0.944-0.21,1.476c-0.267,0.479-0.582,0.741-0.952,0.741v10.388c0,0.526,0.371,0.953,1.163,1.168
	c0.735,0.205,1.107,0.526,1.107,1.055v9.963h-42.674V347.689L124.059,347.689z M134.712,350.958v-3.269
	c0-1.373-0.367-2.375-1.105-3.002c-0.738-0.584-1.057-1.113-1.057-1.584v-2.373c0.792-0.269,1.267-0.846,1.583-1.799
	c0.265-0.896,0.213-1.898-0.105-3.002c-0.21-0.953-0.844-2.059-1.898-3.324c-1.105-1.271-1.688-2.373-1.896-3.429h-0.794
	c0.212,1.001,0.846,2.159,1.953,3.484c1.055,1.315,1.741,2.426,2.004,3.317c0.633,2.323,0.108,3.752-1.634,4.225v3.162
	c0,0.424,0.368,0.896,1.108,1.527c0.792,0.584,1.158,1.537,1.158,2.799v3.269h-0.052h0.735V350.958z M143.364,343.364l1.16-2.478
	v-1.846c-0.949-0.581-1.423-1.37-1.475-2.27c0-2.797,0.947-4.643,2.846-5.699c1.953-1,2.955-2.322,3.062-4.113h-0.792
	c-0.21,1.686-1.214,3.004-3.111,4.061c-1.794,1.056-2.69,2.955-2.744,5.752c0,1.16,0.475,2.059,1.529,2.689v1.27l-1.266,2.633v7.595
	h0.791V343.364L143.364,343.364z"/>
<g>
	<g>
		<path d="M325.569,216.866c-0.278,0-13.145,0-13.423,0c0-0.222,0-1.319,0-1.543h13.423
			C325.569,215.547,325.569,216.645,325.569,216.866z"/>
		<path d="M312.146,213.287c0.166,0,0.46,0,0.624,0c0,0.189,0,0.686,0,0.876c-0.164,0-0.458,0-0.624,0
			C312.146,213.973,312.146,213.479,312.146,213.287z"/>
		<path d="M313.061,213.287c0.166,0,0.46,0,0.626,0c0,0.189,0,0.686,0,0.876c-0.166,0-0.46,0-0.626,0V213.287z"/>
		<path d="M313.973,213.287c0.168,0,0.462,0,0.627,0c0,0.189,0,0.686,0,0.876c-0.165,0-0.459,0-0.627,0V213.287z"/>
		<path d="M314.889,213.287c0.166,0,0.459,0,0.626,0c0,0.189,0,0.686,0,0.876c-0.167,0-0.46,0-0.626,0V213.287z"/>
		<path d="M315.802,213.287c0.166,0,0.462,0,0.626,0c0,0.189,0,0.686,0,0.876c-0.164,0-0.46,0-0.626,0V213.287z"/>
		<path d="M316.717,213.287c0.164,0,0.46,0,0.626,0c0,0.189,0,0.686,0,0.876c-0.166,0-0.462,0-0.626,0V213.287z"/>
		<path d="M317.63,213.287c0.167,0,0.462,0,0.627,0c0,0.189,0,0.686,0,0.876c-0.165,0-0.46,0-0.627,0V213.287z"/>
		<path d="M318.544,213.287c0.166,0,0.46,0,0.627,0c0,0.189,0,0.686,0,0.876c-0.167,0-0.461,0-0.627,0V213.287z"/>
		<path d="M319.457,213.287c0.168,0,0.46,0,0.628,0c0,0.189,0,0.686,0,0.876c-0.168,0-0.46,0-0.628,0V213.287z"/>
		<path d="M320.371,213.287c0.166,0,0.46,0,0.629,0c0,0.189,0,0.686,0,0.876c-0.169,0-0.463,0-0.629,0V213.287z"/>
		<path d="M321.287,213.287c0.164,0,0.459,0,0.624,0c0,0.189,0,0.686,0,0.876c-0.165,0-0.46,0-0.624,0V213.287z"/>
		<path d="M322.2,213.287c0.166,0,0.46,0,0.627,0c0,0.189,0,0.686,0,0.876c-0.167,0-0.461,0-0.627,0V213.287z"/>
		<path d="M323.115,213.287c0.166,0,0.46,0,0.625,0c0,0.189,0,0.686,0,0.876c-0.165,0-0.459,0-0.625,0V213.287z"/>
		<path d="M324.027,213.287c0.168,0,0.462,0,0.628,0c0,0.189,0,0.686,0,0.876c-0.166,0-0.46,0-0.628,0V213.287z"/>
		<path d="M324.943,213.287c0.164,0,0.46,0,0.626,0c0,0.189,0,0.686,0,0.876c-0.166,0-0.462,0-0.626,0V213.287z"/>
		<path d="M325.569,215.035c-0.278,0-13.145,0-13.423,0c0-0.161,0-0.424,0-0.584h0.624h0.29h0.626h0.286h0.627h0.289h0.626h0.287
			h0.626h0.289h0.626h0.287h0.627h0.287h0.627h0.287h0.627h0.286H321h0.287h0.624h0.289h0.627h0.288h0.625h0.286h0.628h0.288h0.626
			C325.569,214.611,325.569,214.874,325.569,215.035z"/>
		<path d="M313.979,233.116c0-3.63,0-13.931,0-14.163c0.274,0,9.478,0,9.753,0c0,0.232,0,10.533,0,14.163h-1.175v-7.083
			c0-2.126-1.575-2.785-1.575-2.785l-2.127-1.148l-2.126,1.148c0,0-1.575,0.659-1.575,2.785v7.083H313.979z"/>
		<path d="M312.149,233.116v-13.177h-0.004c0-1.608,0-2.715,0-2.785h13.421c0,0.07,0,1.177,0,2.785c0,3.899,0,10.775,0,13.177
			h-1.546v-14.451h-10.329v14.451H312.149z"/>
		<path d="M324.943,213h-0.288h-0.628h-0.286h-0.625h-0.288H322.2h-0.289h-0.624H321h-0.629h-0.286h-0.628h-0.286h-0.627h-0.287
			h-0.627h-0.287h-0.626h-0.289h-0.626h-0.287h-0.626H314.6h-0.627h-0.286h-0.626h-0.29h-0.668c-0.14-0.205-0.635-1.048-0.635-2.631
			c0-0.206,0.009-0.426,0.027-0.657c0.179-2.19,1.928-4.285,4.688-5.644h5.301c2.762,1.359,4.51,3.453,4.688,5.644
			c0.019,0.231,0.025,0.451,0.025,0.657c0,1.583-0.494,2.426-0.635,2.631H324.943z"/>
		<path d="M319.104,202.764h0.098c0.593,0,1.039,0.393,1.513,0.808l0.064,0.06c0.214,0.186,0.424,0.338,0.603,0.455
			c-0.795,0-4.335,0-5.132,0c0.18-0.117,0.39-0.27,0.602-0.455l0.068-0.06c0.474-0.415,0.919-0.808,1.511-0.808h0.099"/>
		<path d="M311.856,217.355c-0.266,0-4.768,0-5.03,0c0-0.22,0-0.991,0-0.991c-0.002-0.009-0.005-0.035-0.005-0.078
			c0-0.22,0.075-0.862,0.886-1.481c0.847-0.642,1.438-1.031,1.635-1.158c0.194,0.127,0.786,0.518,1.631,1.158
			c0.76,0.576,0.874,1.176,0.886,1.424C311.857,216.229,311.856,217.135,311.856,217.355z"/>
		<path d="M301.889,214.465c0-0.105,0.087-0.191,0.191-0.191s0.19,0.086,0.19,0.191v3.387h1.2v-1.272
			c0-0.106,0.086-0.193,0.193-0.193c0.104,0,0.188,0.087,0.188,0.193l0.011,3.167h-1.977v-5.281H301.889z"/>
		<path d="M307.227,219.729h-0.399c0-0.554,0-1.881,0-2.084h5.025c0,0.203,0,1.53,0,2.084h-0.399h-0.19v-1.104
			c0-0.236-0.192-0.432-0.433-0.432c-0.237,0-0.432,0.193-0.432,0.432v1.104h-0.189h-0.244h-0.193v-1.104
			c0-0.236-0.193-0.432-0.43-0.432c-0.238,0-0.433,0.193-0.433,0.432v1.104h-0.192h-0.242h-0.192v-1.104
			c0-0.236-0.192-0.432-0.432-0.432c-0.237,0-0.43,0.193-0.43,0.432v1.104H307.227z"/>
		<path d="M301.874,220.018c0.273,0,9.712,0,9.986,0c0,0.063,0,0.59,0,1.424h-4.849h-0.289h-4.85
			C301.874,220.605,301.874,220.079,301.874,220.018z"/>
		<path d="M301.875,221.411c0.265,0,4.584,0,4.849,0v5.704h-0.965c0-0.348,0-1.907,0-2.258c0-0.396-0.179-1.559-1.46-1.813
			c-1.28,0.255-1.458,1.418-1.458,1.813c0,0.351,0,1.91,0,2.258h-0.966C301.875,224.273,301.875,221.543,301.875,221.411z"/>
		<path d="M307.012,221.411c0.265,0,4.584,0,4.849,0v5.704h-0.965c0-0.348,0-1.907,0-2.258c0-0.396-0.179-1.559-1.46-1.813
			c-1.28,0.255-1.458,1.418-1.458,1.813c0,0.351,0,1.91,0,2.258h-0.966C307.012,224.273,307.012,221.543,307.012,221.411z"/>
		<path d="M301.875,227.1c0.265,0,4.584,0,4.849,0v6.018h-0.965c0-0.365,0-2.012,0-2.381c0-0.418-0.179-1.646-1.46-1.913
			c-1.28,0.269-1.458,1.495-1.458,1.913c0,0.369,0,2.016,0,2.381h-0.966C301.875,230.118,301.875,227.236,301.875,227.1z"/>
		<path d="M307.012,227.1c0.265,0,4.584,0,4.849,0v6.018h-0.965c0-0.365,0-2.012,0-2.381c0-0.418-0.179-1.646-1.46-1.913
			c-1.28,0.269-1.458,1.495-1.458,1.913c0,0.369,0,2.016,0,2.381h-0.966C307.012,230.118,307.012,227.236,307.012,227.1z"/>
		<g>
			<path d="M298.922,233.116h-3.827c0.043-1.187,0.121-3.353,0.212-5.875h3.401C298.801,229.766,298.879,231.932,298.922,233.116z"
				/>
			<path d="M294.948,226.775c0.262,0,3.843,0,4.103,0c0,0.148,0,0.345,0,0.492c-0.26,0-3.841,0-4.103,0
				C294.948,227.12,294.948,226.925,294.948,226.775z"/>
			<path d="M298.138,212.876c0.027,0.801,0.127,3.536,0.246,6.841h-2.771c0.12-3.305,0.22-6.04,0.248-6.841H298.138z"/>
			<path d="M298.662,226.785h-3.325c0.076-2.135,0.161-4.444,0.239-6.592h2.847C298.5,222.341,298.583,224.65,298.662,226.785z"/>
			<path d="M295.139,219.695c0.26,0,3.462,0,3.721,0c0,0.147,0,0.346,0,0.492c-0.259,0-3.461,0-3.721,0
				C295.139,220.041,295.139,219.844,295.139,219.695z"/>
			<path d="M294.948,210.338c0.262,0,3.843,0,4.103,0c0,0.153,0,0.38,0,0.535c-0.26,0-3.841,0-4.103,0
				C294.948,210.718,294.948,210.491,294.948,210.338z"/>
			<path d="M298.185,210.338h-2.396v-0.395c0-0.004-0.001-0.018-0.001-0.035c0-0.109,0.028-0.42,0.348-0.738
				c0.21-0.21,0.438-0.409,0.617-0.559v-0.373v-0.615c0-0.105,0.085-0.193,0.19-0.193c0.106,0,0.192,0.088,0.192,0.193v0.549v0.369
				c0.186,0.154,0.455,0.384,0.697,0.629c0.323,0.321,0.351,0.635,0.351,0.73c0,0.017,0,0.028,0,0.028L298.185,210.338
				L298.185,210.338z"/>
			<rect x="295.732" y="210.729" width="0.388" height="1.81"/>
			<rect x="296.453" y="210.729" width="0.387" height="1.81"/>
			<rect x="297.16" y="210.729" width="0.387" height="1.81"/>
			<rect x="297.881" y="210.729" width="0.387" height="1.81"/>
			<rect x="294.939" y="212.512" width="4.108" height="0.491"/>
		</g>
		<g>
			<path d="M342.811,233.116h-3.826c0.042-1.187,0.121-3.353,0.212-5.875h3.4C342.69,229.766,342.768,231.932,342.811,233.116z"/>
			<path d="M338.838,226.775c0.261,0,3.842,0,4.102,0c0,0.148,0,0.345,0,0.492c-0.26,0-3.841,0-4.102,0
				C338.838,227.12,338.838,226.925,338.838,226.775z"/>
			<path d="M342.027,212.876c0.026,0.801,0.127,3.536,0.246,6.841h-2.771c0.119-3.305,0.219-6.04,0.248-6.841H342.027z"/>
			<path d="M342.552,226.785h-3.325c0.076-2.135,0.16-4.444,0.239-6.592h2.847C342.39,222.341,342.473,224.65,342.552,226.785z"/>
			<path d="M339.028,219.695c0.259,0,3.462,0,3.721,0c0,0.147,0,0.346,0,0.492c-0.259,0-3.462,0-3.721,0
				C339.028,220.041,339.028,219.844,339.028,219.695z"/>
			<path d="M338.838,210.338c0.261,0,3.842,0,4.102,0c0,0.153,0,0.38,0,0.535c-0.26,0-3.841,0-4.102,0
				C338.838,210.718,338.838,210.491,338.838,210.338z"/>
			<path d="M342.073,210.338h-2.396v-0.395c0-0.004-0.001-0.018-0.001-0.035c0-0.109,0.028-0.42,0.348-0.738
				c0.21-0.21,0.438-0.409,0.617-0.559v-0.373v-0.615c0-0.105,0.085-0.193,0.19-0.193c0.106,0,0.191,0.088,0.191,0.193v0.549v0.369
				c0.188,0.154,0.456,0.384,0.698,0.629c0.324,0.321,0.351,0.635,0.351,0.73c0,0.017,0,0.028,0,0.028L342.073,210.338
				L342.073,210.338z"/>
			<rect x="339.621" y="210.729" width="0.387" height="1.81"/>
			<rect x="340.343" y="210.729" width="0.386" height="1.81"/>
			<rect x="341.05" y="210.729" width="0.387" height="1.81"/>
			<rect x="341.771" y="210.729" width="0.387" height="1.81"/>
			<rect x="338.828" y="212.512" width="4.107" height="0.491"/>
		</g>
		<path d="M325.824,216.241c0.014-0.248,0.127-0.847,0.888-1.425c0.844-0.642,1.435-1.03,1.631-1.157
			c0.194,0.126,0.787,0.517,1.633,1.157c0.812,0.621,0.887,1.263,0.887,1.482c0,0.042-0.003,0.07-0.005,0.077c0,0,0,0.772,0,0.992
			c-0.263,0-4.766,0-5.03,0C325.826,217.146,325.824,216.241,325.824,216.241z"/>
		<path d="M335.795,219.759h-1.979l0.011-3.168c0-0.104,0.086-0.192,0.19-0.192c0.105,0,0.193,0.088,0.193,0.192v1.273h1.198v-3.386
			c0-0.106,0.086-0.192,0.192-0.192c0.104,0,0.191,0.086,0.191,0.192v5.28H335.795z"/>
		<path d="M330.264,219.743v-1.104c0-0.238-0.193-0.433-0.432-0.433c-0.237,0-0.432,0.194-0.432,0.433v1.104h-0.191h-0.242h-0.193
			v-1.104c0-0.238-0.193-0.433-0.431-0.433c-0.238,0-0.432,0.194-0.432,0.433v1.104h-0.192h-0.243h-0.191v-1.104
			c0-0.238-0.192-0.433-0.432-0.433s-0.432,0.194-0.432,0.433v1.104h-0.191h-0.399c0-0.554,0-1.884,0-2.086h5.025
			c0,0.202,0,1.532,0,2.086h-0.398H330.264z"/>
		<path d="M335.81,221.45h-4.85h-0.29h-4.85c0-0.833,0-1.358,0-1.42c0.276,0,9.713,0,9.988,0
			C335.81,220.092,335.81,220.617,335.81,221.45z"/>
		<path d="M335.808,227.128h-0.965c0-0.346,0-1.907,0-2.257c0-0.396-0.179-1.559-1.459-1.813c-1.281,0.254-1.46,1.418-1.46,1.813
			c0,0.35,0,1.911,0,2.257h-0.964v-5.703c0.265,0,4.584,0,4.848,0C335.808,221.557,335.808,224.287,335.808,227.128z"/>
		<path d="M330.671,227.128h-0.966c0-0.346,0-1.907,0-2.257c0-0.396-0.178-1.559-1.459-1.813c-1.28,0.254-1.46,1.418-1.46,1.813
			c0,0.35,0,1.911,0,2.257h-0.964v-5.703c0.266,0,4.583,0,4.849,0C330.671,221.557,330.671,224.287,330.671,227.128z"/>
		<path d="M335.808,233.13h-0.965c0-0.368,0-2.024,0-2.396c0-0.42-0.179-1.654-1.459-1.924c-1.281,0.27-1.46,1.504-1.46,1.924
			c0,0.371,0,2.026,0,2.396h-0.964v-6.053c0.265,0,4.584,0,4.848,0C335.808,227.217,335.808,230.114,335.808,233.13z"/>
		<path d="M330.671,233.13h-0.966c0-0.368,0-2.024,0-2.396c0-0.42-0.178-1.654-1.459-1.924c-1.28,0.27-1.46,1.504-1.46,1.924
			c0,0.371,0,2.026,0,2.396h-0.964v-6.053c0.266,0,4.583,0,4.849,0C330.671,227.217,330.671,230.114,330.671,233.13z"/>
		<path d="M309.519,213.895c0,0.105-0.086,0.191-0.191,0.191l0,0c-0.105,0-0.191-0.086-0.191-0.191v-0.987
			c0-0.105,0.086-0.191,0.191-0.191l0,0c0.105,0,0.191,0.086,0.191,0.191V213.895z"/>
		<path d="M328.538,213.939c0,0.105-0.086,0.191-0.19,0.191l0,0c-0.106,0-0.192-0.086-0.192-0.191v-0.987
			c0-0.104,0.086-0.191,0.192-0.191l0,0c0.104,0,0.19,0.087,0.19,0.191V213.939z"/>
		<path d="M319.119,202.781c0,0.169-0.138,0.306-0.307,0.306l0,0c-0.168,0-0.306-0.137-0.306-0.306v-2.113
			c0-0.17,0.138-0.307,0.306-0.307l0,0c0.169,0,0.307,0.137,0.307,0.307V202.781z"/>
	</g>
	<rect x="292.875" y="234.375" width="51.75" height="3.25"/>
</g>
<g>
	<path d="M73.201,248.1l-4.179-6.281v-3.379H48.932v3.379l-4.178,6.281h8.541c-0.004-0.088-0.006-0.177-0.006-0.267
		c0-3.159,2.56-5.719,5.719-5.719s5.719,2.56,5.719,5.719c0,0.089-0.002,0.178-0.006,0.267H73.201z"/>
	<path d="M56.77,210.662h4.416c0.688,0,1.245-0.559,1.245-1.245v-2.341c0-0.688-0.558-1.245-1.245-1.245H56.77
		c-0.688,0-1.244,0.558-1.244,1.245v2.341C55.525,210.104,56.082,210.662,56.77,210.662z"/>
	<path d="M60.003,200.984c0-0.453-0.458-0.821-1.025-0.821c-0.564,0-1.024,0.368-1.024,0.821v3.942h2.051L60.003,200.984
		L60.003,200.984z"/>
	<path d="M58,231.209h1.956l1.245,5.571h5.215c0,0-4.789-7.195-4.779-25.226h-5.383c0.134,2.791,0.439,15.707-4.713,25.226h5.274
		L58,231.209z"/>
</g>
<text transform="matrix(1 0 0 1 97.9998 68)" font-family="'MyriadPro-Regular'" font-size="72">Landmark</text>
<g>
	<rect x="214.463" y="318.942" width="46.417" height="24.686"/>
	<rect x="218.999" y="322.951" fill="#FFFFFF" width="3.798" height="6.013"/>
	<rect x="227.333" y="322.951" fill="#FFFFFF" width="3.798" height="6.013"/>
	<rect x="235.666" y="322.951" fill="#FFFFFF" width="3.798" height="6.013"/>
	<rect x="244" y="322.951" fill="#FFFFFF" width="3.798" height="6.013"/>
	<rect x="252.334" y="322.951" fill="#FFFFFF" width="3.798" height="6.013"/>
	<rect x="218.999" y="333.5" fill="#FFFFFF" width="3.798" height="10.971"/>
	<rect x="227.333" y="333.5" fill="#FFFFFF" width="3.798" height="6.014"/>
	<rect x="235.666" y="333.5" fill="#FFFFFF" width="3.798" height="6.014"/>
	<rect x="244" y="333.5" fill="#FFFFFF" width="3.798" height="6.014"/>
	<rect x="252.334" y="333.5" fill="#FFFFFF" width="3.798" height="6.014"/>
	<rect x="213.302" y="315.145" width="48" height="2.215"/>
	<rect x="250.648" y="303.117" width="6.224" height="12.977"/>
	<polygon points="216.678,315.672 227.755,310.608 227.755,315.988 	"/>
	<polygon points="226.278,315.672 237.355,310.608 237.355,315.988 	"/>
	<polygon points="235.773,315.672 246.849,310.608 246.849,315.988 	"/>
</g>
<g>
	<rect x="316.503" y="323.715" width="15.062" height="20.023"/>
	<rect x="316.325" y="320.814" width="15.283" height="1.594"/>
	<rect x="318.984" y="309.65" width="10.1" height="10.033"/>
	<rect x="318.452" y="307.06" width="11.207" height="1.063"/>
	<rect x="320.578" y="305.465" width="6.954" height="2.082"/>
	<rect x="323.724" y="296.738" width="0.619" height="9.17"/>
	<rect x="320.612" y="310.863" fill="#FFFFFF" width="2.658" height="3.123"/>
	<rect x="324.83" y="310.863" fill="#FFFFFF" width="2.658" height="3.123"/>
	<rect x="320.578" y="315.581" fill="#FFFFFF" width="2.658" height="3.123"/>
	<rect x="324.797" y="315.581" fill="#FFFFFF" width="2.658" height="3.123"/>
	<g>
		<rect x="318.452" y="325.643" fill="#FFFFFF" width="2.724" height="7.508"/>
		<rect x="322.638" y="325.643" fill="#FFFFFF" width="2.725" height="7.508"/>
		<rect x="326.891" y="325.643" fill="#FFFFFF" width="2.725" height="7.508"/>
	</g>
	<g>
		<rect x="318.452" y="334.746" fill="#FFFFFF" width="2.724" height="7.508"/>
		<rect x="322.638" y="334.746" fill="#FFFFFF" width="2.725" height="7.508"/>
		<rect x="326.891" y="334.746" fill="#FFFFFF" width="2.725" height="7.508"/>
	</g>
</g>
<text transform="matrix(1 0 0 1 305.3733 367.6504)"><tspan x="0" y="0" fill="#231F20" font-family="'MyriadPro-Regular'" font-size="12">Office </tspan><tspan x="-6.402" y="14.4" fill="#231F20" font-family="'MyriadPro-Regular'" font-size="12">Complex</tspan></text>
<text transform="matrix(1 0 0 1 221.9099 367.5059)" fill="#231F20" font-family="'MyriadPro-Regular'" font-size="12">Office </text>
</svg>
