<?xml version="1.0" encoding="utf-8"?>
<!-- Generator: Adobe Illustrator 15.1.0, SVG Export Plug-In . SVG Version: 6.00 Build 0)  -->
<!DOCTYPE svg PUBLIC "-//W3C//DTD SVG 1.1//EN" "http://www.w3.org/Graphics/SVG/1.1/DTD/svg11.dtd">
<svg version="1.1" id="Layer_1" xmlns="http://www.w3.org/2000/svg" xmlns:xlink="http://www.w3.org/1999/xlink" x="0px" y="0px"
	 width="731.884px" height="807.78px" viewBox="0 0 731.884 807.78" enable-background="new 0 0 731.884 807.78"
	 xml:space="preserve">
<g>
	<text transform="matrix(1 0 0 1 487.5898 367.1245)" fill="#231F20" font-family="'Verdana'" font-size="14">Pillar</text>
</g>
<g>
	<g>
		<path d="M507.678,322.957c-0.269-0.331-1.033-0.16-1.715,0.382l-1.55,1.23c-0.035-0.143-0.099-0.271-0.183-0.387l-6.364-7.999
			c-0.67-0.846-2.621-0.413-4.351,0.966c-1.74,1.381-2.598,3.18-1.926,4.023l6.369,7.998c0.086,0.115,0.195,0.207,0.331,0.268
			l-1.553,1.238c-0.688,0.542-1.024,1.248-0.759,1.584c0.263,0.33,1.03,0.162,1.711-0.381l9.227-7.34
			C507.6,323.997,507.938,323.29,507.678,322.957z"/>
		<path d="M517.017,342.598l-11.426-14.796l-4.818,3.926l11.365,13.982c0.624,0.762,5.098,3.426,5.843,2.822
			C518.719,347.922,517.64,343.357,517.017,342.598z"/>
	</g>
</g>
<g>
	<text transform="matrix(1 0 0 1 642.7891 372.0034)" fill="#231F20" font-family="'Verdana'" font-size="14">Pills</text>
</g>
<g>
	<path d="M661.885,330.891l2.965,10.414c0.811,2.846-0.842,5.807-3.684,6.618c-2.848,0.811-5.809-0.838-6.619-3.685l-2.965-10.412
		L661.885,330.891z"/>
	<path d="M661.258,328.695l-2.965-10.413c-0.811-2.846-3.773-4.494-6.617-3.684c-2.846,0.811-4.496,3.774-3.686,6.618l2.964,10.414
		L661.258,328.695z"/>
</g>
<g>
	<text transform="matrix(1 0 0 1 43.6157 372.8315)" fill="#231F20" font-family="'Verdana'" font-size="14">Medical Bag</text>
</g>
<g>
	<g>
		<path d="M78.85,322.83c0.574-2.286,2.004-3.948,3.785-3.968h5.859c1.781,0.02,3.207,1.682,3.785,3.968
			c0.121,0.487,0.207,1,0.248,1.536h1.789c-0.031-0.531-0.098-1.043-0.193-1.536c-0.618-3.22-2.531-5.517-4.676-5.497H81.68
			c-2.146-0.02-4.059,2.277-4.678,5.497c-0.096,0.493-0.158,1.005-0.189,1.536h1.789C78.639,323.83,78.729,323.317,78.85,322.83z"/>
		<path d="M95.604,322.83h-1.051c0.105,0.559,0.174,1.14,0.197,1.741l0.008,0.219h-2.633l-0.01-0.202
			c-0.033-0.62-0.131-1.21-0.278-1.758H79.289c-0.148,0.548-0.246,1.138-0.277,1.758L79,324.79h-2.633l0.01-0.219
			c0.021-0.603,0.092-1.182,0.197-1.741h-1.049c-3.988,0-7.217,3.229-7.217,7.214v8.511c0,3.987,3.229,7.215,7.217,7.215h20.078
			c3.984,0,7.217-3.229,7.217-7.215v-8.511C102.82,326.059,99.588,322.83,95.604,322.83z M100.387,334.93h-3.988v3.99h-3.557v-3.99
			h-3.99v-3.558h3.99v-3.989h3.557v3.989h3.988V334.93z"/>
	</g>
</g>
<g>
	<text transform="matrix(1 0 0 1 643.957 273.5259)" fill="#231F20" font-family="'Verdana'" font-size="14">Lab</text>
</g>
<path d="M671.729,247.208l-11.265-20.618v-8.761v-0.838c0.162-1.084,1.629-0.619,2.279-1.238c0.321-0.771,0.321-2.322,0.321-2.322
	h-13.307c0,0,0,1.551,0.327,2.322c0.65,0.619,2.115,0.154,2.272,1.238v9.599l-5.296,9.717h4.646v1.105h-5.252l-1.693,3.106h4.711
	v1.106h-5.314l-1.547,2.83h4.734v1.107h-5.335l-0.901,1.646c0,0-2.967,4.892,4.895,4.892h20.824
	C674.694,252.1,671.729,247.208,671.729,247.208z M653.917,233.579h-5.355l0.59-1.105h4.766V233.579z"/>
<g>
	<text transform="matrix(1 0 0 1 178.73 172.4849)" fill="#231F20" font-family="'Verdana'" font-size="14">Appointment</text>
</g>
<g>
	<rect x="215.908" y="144.201" fill="#010101" width="13.796" height="1.997"/>
	<rect x="215.908" y="139.217" fill="#010101" width="9.143" height="1.993"/>
	<path fill="#010101" d="M231.972,130.682v18c0,0.368-0.297,0.665-0.664,0.665h-18.613c-0.366,0-0.664-0.297-0.664-0.665v-17.566
		l4.727-0.02c4.277,0.334,4.391-3.506,4.391-3.506v-4.453h5.588l2.486-2.66h-9.107l-2.521,2.66h0.017l-5.58,5.891v0.01v-0.031
		l-2.658,2.805v16.871c0,1.836,1.486,3.323,3.322,3.323h18.613c1.84,0,3.326-1.487,3.326-3.323v-20.683L231.972,130.682z"/>
	<g>
		<polygon fill="#010101" points="231.202,120.583 225.74,126.502 226.944,126.657 227.121,127.777 228.572,128.161 
			228.615,129.154 230.074,129.651 230.166,130.586 235.627,124.667 		"/>
		<polygon fill="#010101" points="224.701,128.141 228.852,132.075 222.998,134.096 		"/>
		<path fill="#010101" d="M237.183,123.158l0.601-0.653c0.441-0.478,0.493-1.152,0.109-1.502l-3.132-2.893
			c-0.381-0.35-1.051-0.247-1.49,0.23l-0.603,0.652L237.183,123.158z"/>
	</g>
</g>
<g>
	<text transform="matrix(1 0 0 1 336.5493 373.2788)" fill="#231F20" font-family="'Verdana'" font-size="14">Nurse</text>
</g>
<g>
	<path d="M349.655,330.45v2.823c0,3.798,3.297,6.876,7.363,6.876c4.068,0,7.367-3.078,7.367-6.876v-2.823H349.655z"/>
	<path d="M357.019,320.189c-5.574,0.299-8.723,4.646-8.723,4.646l3.256,4.613c0.889-2.945,3.953-4.454,5.467-4.287
		c1.654-0.11,4.383,1.342,5.471,4.287l3.25-4.613C365.739,324.834,362.577,320.305,357.019,320.189z"/>
	<path d="M362.423,341.352h-1.982c0.301,0.476,0.313,1.086-0.26,1.561c-0.785,0.65-1.652,1.068-2.531,1.238v4.281
		c0,0.416-0.309,0.627-0.631,0.644c-0.32-0.017-0.629-0.228-0.629-0.644v-4.281c-0.881-0.17-1.746-0.588-2.527-1.238
		c-0.576-0.475-0.564-1.085-0.264-1.561h-1.982c-3.688,0-6.678,2.986-6.678,6.676c0,3.686,2.99,6.673,6.678,6.673h5.402h5.404
		c3.688,0,6.678-2.987,6.678-6.673C369.101,344.338,366.11,341.352,362.423,341.352z M364.095,348.712v2.14h-1.871v-2.14h-2.18
		v-1.83h2.18v-2.143h1.871v2.143h2.176v1.83H364.095z"/>
</g>
<g>
	<text transform="matrix(1 0 0 1 328.6982 272.8608)" fill="#231F20" font-family="'Verdana'" font-size="14">Hospital</text>
</g>
<g>
	<g>
		<g>
			<g>
				<path d="M357.019,220.698l-6.55,4.998l-4.488,3.428l-6.285,4.797l2.723,3.57l1.864-1.426v16.389h25.472v-16.389l1.865,1.426
					l2.725-3.57L357.019,220.698z M367.258,249.959h-3.092h-2.658h-8.978h-2.246h-3.508v-15.48l10.242-7.822l10.239,7.822V249.959z"
					/>
			</g>
		</g>
		<g>
			<polygon points="354.455,233.76 351.589,233.76 351.589,237.104 348.243,237.104 348.243,239.969 351.589,239.969 
				351.589,243.315 354.455,243.315 354.455,239.969 357.795,239.969 357.795,237.104 354.455,237.104 			"/>
		</g>
	</g>
</g>
<g>
	<text transform="matrix(1 0 0 1 616.3203 470.6255)" fill="#231F20" font-family="'Verdana'" font-size="14">wheel chair</text>
</g>
<g>
	<path d="M657.021,440.87c0.285,4.561-3.001,8.623-7.599,9.221c-4.79,0.621-9.177-2.765-9.796-7.554
		c-0.619-4.79,2.76-9.176,7.553-9.798l-0.309-2.367c-6.1,0.791-10.398,6.373-9.613,12.471c0.791,6.1,6.378,10.401,12.475,9.61
		c5.905-0.76,10.109-6.022,9.654-11.892L657.021,440.87z"/>
	<path d="M675.22,445.262c-0.428-0.633-0.959-1.02-1.195-0.863l-1.818,1.226l-6.358-10.352c-0.132-0.179-0.228-0.335-0.396-0.495
		c-0.322-0.408-0.762-0.646-1.225-0.593l-10.871,1.287l-3.617-18.123c-0.25-1.25-1.22-2.106-2.166-1.919
		c-0.953,0.191-1.521,1.354-1.27,2.604l3.787,18.195c0.084,0.352,0.447,1.762,0.52,2.034c0.285,1.062,0.559,1.499,1.342,1.466
		c0.439-0.023,1.214-0.113,1.457-0.16c0.158-0.032,0.686-0.107,0.914-0.129l9.293-1.211l6.258,10.304
		c0.349,0.583,1.046,0.788,1.771,0.681c0.096-0.035,0.087-0.035,0.229-0.098l3.691-2.426
		C675.8,446.534,675.642,445.894,675.22,445.262z"/>
	<path d="M637.959,421.801l2.979-0.38l1.357,7.015c0.076,0.396,0.787,0.594,1.592,0.436c0.799-0.155,1.387-0.598,1.313-0.998
		l-1.508-7.799c-0.012-0.044-0.053-0.076-0.08-0.115c-0.092-0.477-0.336-0.824-0.584-0.795l-5.322,0.68
		c-0.268,0.037-0.432,0.502-0.361,1.043C637.415,421.43,637.688,421.836,637.959,421.801z"/>
</g>
<g>
	<text transform="matrix(1 0 0 1 46.8081 173.2319)" fill="#231F20" font-family="'Verdana'" font-size="14">Ambulance</text>
</g>
<g>
	<path fill="#010101" d="M88.018,124.612v-1.902c0-1.754-1.421-3.173-3.174-3.173c-1.748,0-3.169,1.419-3.169,3.173v1.902H88.018z"
		/>
	<path fill="#010101" d="M102.81,135.973c-2.849-5.049-7.235-10.251-12.897-10.251h-18.33c-5.662,0-5.427,4.592-5.427,10.251
		c0,5.503-0.204,9.975,4.974,10.225c0.193-2.381,2.27-4.262,4.832-4.262c2.572,0,4.66,1.895,4.84,4.287h8.432
		c0.184-2.392,2.264-4.287,4.837-4.287c2.575,0,4.656,1.895,4.84,4.287h3.419C107.989,146.223,102.81,135.973,102.81,135.973z
		 M83.253,135.366h-2.441v2.447h-2.101v-2.447h-2.444v-2.092h2.444v-2.45h2.101v2.45h2.441V135.366z M89.565,136.079l-0.157-8.038
		c6.896-1.101,10.759,7.826,10.759,7.826L89.565,136.079z"/>
	<circle fill="#010101" cx="76.063" cy="146.982" r="3.91"/>
	<circle fill="#010101" cx="94.26" cy="147.386" r="3.91"/>
</g>
<g>
	<text transform="matrix(1 0 0 1 330.3252 467.9116)" fill="#231F20" font-family="'Verdana'" font-size="14">Syringe</text>
</g>
<g>
	<path d="M355.723,415.025l-8.986,4.312l11.152,23.234c0.555,1.148,1.488,1.983,2.581,2.438l0.005,0.006l0.008-0.002
		c1.26,0.521,2.727,0.529,4.055-0.108c1.33-0.635,2.242-1.785,2.621-3.094l0.009-0.007l-0.006-0.007
		c0.331-1.136,0.263-2.391-0.286-3.539L355.723,415.025z M354.898,417.373l0.809,1.679l-4.23,2.028l0.325,0.675l4.225-2.03
		l0.787,1.637l-4.229,2.032l0.325,0.67l4.226-2.028l0.787,1.64l-4.227,2.029l0.322,0.672l4.229-2.029l0.784,1.64l-4.226,2.031
		l0.32,0.67l4.23-2.03l1.834,3.826l-5.812,2.79l-6.293-13.112L354.898,417.373z"/>
	<polygon points="352.882,412.67 346.677,415.651 347.442,417.247 348.996,416.502 349.491,417.532 352.596,416.041 
		352.101,415.012 353.649,414.267 	"/>
	
		<rect x="365.608" y="445.474" transform="matrix(-0.9013 0.4333 -0.4333 -0.9013 889.8663 693.0068)" width="0.73" height="4.837"/>
</g>
<g>
	<text transform="matrix(1 0 0 1 45.417 273.7183)" fill="#231F20" font-family="'Verdana'" font-size="14">First Aid kit</text>
</g>
<g>
	<path d="M77.635,221.469h15.856c0.85,0,1.535-0.684,1.535-1.531s-0.686-1.53-1.535-1.53H77.635c-0.843,0-1.531,0.683-1.531,1.53
		S76.792,221.469,77.635,221.469z"/>
	<path d="M103.267,224.38H67.863c-1.055,0-1.904,0.852-1.904,1.901v21.115c0,1.053,0.85,1.904,1.904,1.904h35.403
		c1.049,0,1.903-0.852,1.903-1.904v-21.115C105.17,225.232,104.315,224.38,103.267,224.38z M103.652,239.502h-5.924v5.929h-5.083
		v-5.929h-5.93v-5.08h5.93v-5.934h5.083v5.934h5.924V239.502z"/>
</g>
<g>
	<text transform="matrix(1 0 0 1 633.1064 172.394)" fill="#231F20" font-family="'Verdana'" font-size="14">Doctor</text>
</g>
<g>
	<g>
		<path fill="#010101" d="M656.473,141.944c2.691-0.371,4.75-2.423,4.82-4.93l-11.131,0.065c-0.072,0.001-0.143,0.01-0.215,0.013
			c0.105,2.631,2.41,4.734,5.307,4.9"/>
		<path fill="#010101" d="M662.592,137.007l-0.381,0.003c0.002,0.043,0.016,0.084,0.016,0.127c0.018,3.078-2.494,5.604-5.75,5.994
			l0.014,2.3c0.014,1.827,0.639,2.307,1.719,2.297c0.386-0.002,2.961,0.01,3.496-0.068c0.166-1.022,1.045-1.807,2.121-1.812
			c1.199-0.007,2.174,0.96,2.18,2.158c0.01,1.201-0.955,2.177-2.156,2.182c-0.977,0.009-1.797-0.637-2.072-1.521
			c-0.4,0.118-3.219,0.084-3.662,0.087c-1.604,0.009-2.822-0.742-2.838-3.219l-0.016-2.356c-3.465-0.168-6.23-2.753-6.25-5.965
			c0-0.012,0.006-0.021,0.006-0.033c-3.678,0.563-6.484,3.684-6.464,7.441c0.024,4.14,3.468,7.477,7.694,7.453l12.428-0.072
			c4.225-0.023,7.63-3.403,7.609-7.541C670.26,140.323,666.816,136.983,662.592,137.007z"/>
	</g>
	<path fill="#010101" d="M662.527,128.137c0.021,4.144-3.25,7.521-7.307,7.544c-4.057,0.022-7.365-3.318-7.389-7.462
		c-0.023-4.141,3.246-7.519,7.303-7.545C659.191,120.654,662.504,123.994,662.527,128.137z"/>
</g>
<g>
	<text transform="matrix(1 0 0 1 194.3501 473.1577)" fill="#231F20" font-family="'Verdana'" font-size="14">Surgeon</text>
</g>
<g>
	<g>
		<path d="M229.735,434.327H217.79c-4.061,0-7.35,3.226-7.35,7.203c0,3.98,3.289,7.209,7.35,7.209h11.945
			c4.061,0,7.348-3.229,7.348-7.209C237.083,437.552,233.796,434.327,229.735,434.327z M233.782,440.181h-2.326v2.286h-1.996v-2.286
			h-2.324v-1.955h2.324v-2.284h1.996v2.284h2.326V440.181z"/>
	</g>
	<g>
		<path d="M221.731,420.411c0.383-0.214,0.83-0.345,1.313-0.345c0.48,0,0.924,0.131,1.311,0.345h3.662
			c-1.297-1.187-3.023-1.917-4.92-1.917c-1.9,0-3.627,0.73-4.924,1.917H221.731z"/>
		<path d="M224.47,424.615c-0.411,0.252-0.9,0.4-1.426,0.4c-0.529,0-1.018-0.148-1.428-0.4h-5.625c-0.035,0-0.068-0.009-0.104-0.011
			c-0.068,0.395-0.109,0.795-0.109,1.207c0,4.038,3.273,7.316,7.318,7.316c4.035,0,7.314-3.278,7.314-7.316
			c0-0.408-0.043-0.807-0.107-1.196H224.47z"/>
	</g>
	<g>
		<g>
			<path d="M229.393,421.111h-4.041c0.228,0.384,0.366,0.826,0.366,1.304c0,0.678-0.268,1.289-0.695,1.75h4.37
				c0.841,0,1.526-0.684,1.526-1.527C230.919,421.795,230.233,421.111,229.393,421.111z"/>
			<path d="M220.942,421.111h-4.039c-0.845,0-1.527,0.685-1.527,1.526c0,0.844,0.683,1.527,1.527,1.527h4.367
				c-0.428-0.461-0.697-1.072-0.697-1.75C220.573,421.937,220.714,421.495,220.942,421.111z"/>
		</g>
		<circle cx="223.116" cy="422.436" r="1.957"/>
	</g>
</g>
<g>
	<text transform="matrix(1 0 0 1 326.2783 173.3608)" fill="#231F20" font-family="'Verdana'" font-size="14">Band aid</text>
</g>
<g>
	<path fill="#010101" d="M356.368,140.519c-0.402,0.235-0.555,0.722-0.34,1.084c0.21,0.363,0.709,0.466,1.113,0.231
		c0.4-0.238,0.556-0.723,0.343-1.086C357.269,140.384,356.771,140.282,356.368,140.519z"/>
	
		<ellipse transform="matrix(0.8619 -0.507 0.507 0.8619 -19.6687 199.9441)" fill="#010101" cx="357.283" cy="136.086" rx="0.844" ry="0.764"/>
	
		<ellipse transform="matrix(0.8617 -0.5074 0.5074 0.8617 -20.779 199.001)" fill="#010101" cx="354.669" cy="137.619" rx="0.845" ry="0.764"/>
	<path fill="#010101" d="M358.985,138.987c-0.406,0.234-0.559,0.721-0.344,1.084c0.211,0.363,0.709,0.465,1.113,0.23
		c0.402-0.238,0.557-0.721,0.343-1.088C359.883,138.852,359.384,138.749,358.985,138.987z"/>
	<path fill="#010101" d="M367.839,147.838l-13.512-23.155c-0.796-1.363-3.26-1.403-5.502-0.095
		c-2.244,1.309-3.416,3.474-2.624,4.838l13.511,23.154c0.797,1.361,3.26,1.404,5.504,0.094
		C367.456,151.366,368.63,149.199,367.839,147.838z M359.981,143.704c-1.563,0.912-3.275,0.881-3.832-0.07l-3.914-6.709
		c-0.555-0.951,0.263-2.455,1.822-3.367c1.561-0.909,3.275-0.879,3.832,0.069l3.911,6.711
		C362.358,141.284,361.538,142.792,359.981,143.704z"/>
</g>
<g>
	<text transform="matrix(1 0 0 1 184.9849 372.2266)" fill="#231F20" font-family="'Verdana'" font-size="14">Microscope</text>
</g>
<g>
	<path d="M231.205,344.523c-2.086,3.28-5.824,5.373-9.973,5.145c-6.105-0.334-10.803-5.577-10.464-11.687
		c0.239-4.329,2.952-7.945,6.694-9.561l3.85,6.097c0.832,1.319,2.568,1.713,3.885,0.884c1.32-0.834,1.711-2.572,0.881-3.887
		l-7.879-12.483c-0.498-0.789-1.324-1.239-2.195-1.299c0.006-0.25-0.059-0.506-0.203-0.735c-0.393-0.626-1.219-0.809-1.842-0.415
		l-0.91,0.571c-0.625,0.396-0.809,1.225-0.412,1.845c0.141,0.229,0.338,0.398,0.568,0.503c-0.322,0.808-0.268,1.749,0.231,2.538
		l2.292,3.632c-4.59,2.173-7.877,6.712-8.174,12.137c-0.367,6.624,3.839,12.429,9.867,14.382c-0.963,1.132-1.549,2.598-1.537,4.203
		l12.83-0.087c-0.012-1.695-0.684-3.227-1.762-4.366c3.498-1.345,6.367-4.017,7.92-7.445c-0.039,0-0.078,0.004-0.121,0.005
		L231.205,344.523z"/>
	<path d="M238.631,339.87l-10.9,0.159c-0.742,0.011-1.334,0.621-1.322,1.363c0.012,0.741,0.619,1.333,1.359,1.32l1.885-0.028
		c0,0.027-0.006,0.048-0.006,0.067c0.016,0.782,0.654,1.401,1.432,1.389l4.158-0.057c0.771-0.012,1.402-0.652,1.393-1.43
		c-0.006-0.024-0.012-0.047-0.012-0.066l2.051-0.032c0.746-0.009,1.334-0.619,1.322-1.359S239.371,339.859,238.631,339.87z"/>
</g>
<g>
	<text transform="matrix(1 0 0 1 481.918 171.6636)" fill="#231F20" font-family="'Verdana'" font-size="14">Dental</text>
</g>
<path fill="#010101" d="M514.844,116.156c0,0-4.805,3.933-8.52,2.185l-1.527-0.656l-1.531,0.656c-3.716,1.748-8.52-2.185-8.52-2.185
	c-10.924-0.656-6.773,19.224-6.773,19.224c1.311,11.143,8.74,19.225,8.74,19.225c1.582,0.056,1.311-1.311,1.311-1.311
	c-2.84-16.385,6.773-14.99,6.773-14.99s9.609-1.395,6.77,14.99c0,0-0.275,1.366,1.307,1.311c0,0,7.432-8.082,8.744-19.225
	C521.617,135.379,525.768,115.5,514.844,116.156z"/>
<g>
	<text transform="matrix(1 0 0 1 37.4189 472.9653)" fill="#231F20" font-family="'Verdana'" font-size="14">Stethoscope  </text>
</g>
<g>
	<text transform="matrix(1 0 0 1 64.6567 581.9653)" fill="#231F20" font-family="'Verdana'" font-size="14">Tablet</text>
</g>
<g>
	<text transform="matrix(1 0 0 1 204.1836 581.9653)" fill="#231F20" font-family="'Verdana'" font-size="14">Blood</text>
</g>
<g>
	<text transform="matrix(1 0 0 1 337.6396 579.9653)" fill="#231F20" font-family="'Verdana'" font-size="14">Heart</text>
</g>
<g>
	<text transform="matrix(1 0 0 1 470.9297 576.9653)" fill="#231F20" font-family="'Verdana'" font-size="14">Eye Clinic</text>
</g>
<g>
	<text transform="matrix(1 0 0 1 632.832 576.4653)" fill="#231F20" font-family="'Verdana'" font-size="14">Yoga 1</text>
</g>
<g>
	<text transform="matrix(1 0 0 1 61.9771 673.4653)" fill="#231F20" font-family="'Verdana'" font-size="14">Yoga 2</text>
</g>
<g>
	<text transform="matrix(1 0 0 1 200.1743 675.4653)" fill="#231F20" font-family="'Verdana'" font-size="14">Yoga 3</text>
</g>
<g>
	<text transform="matrix(1 0 0 1 333.4321 677.4653)" fill="#231F20" font-family="'Verdana'" font-size="14">Yoga 4</text>
</g>
<g>
	<text transform="matrix(1 0 0 1 61.9771 777.4653)" fill="#231F20" font-family="'Verdana'" font-size="14">Yoga 7</text>
</g>
<g>
	<text transform="matrix(1 0 0 1 200.1743 779.4653)" fill="#231F20" font-family="'Verdana'" font-size="14">Yoga 8</text>
</g>
<g>
	<text transform="matrix(1 0 0 1 333.4321 781.4653)" fill="#231F20" font-family="'Verdana'" font-size="14">Yoga 9</text>
</g>
<g>
	<text transform="matrix(1 0 0 1 481.207 678.4653)" fill="#231F20" font-family="'Verdana'" font-size="14">Yoga 5</text>
</g>
<g>
	<text transform="matrix(1 0 0 1 632.832 678.4653)" fill="#231F20" font-family="'Verdana'" font-size="14">Yoga 6</text>
</g>
<path d="M96.562,426.61c0-1.197-0.223-4.554-0.653-5.929c0.168-0.264,0.262-0.573,0.262-0.888c0-0.871-0.667-1.577-1.49-1.577
	c-0.822,0-1.492,0.706-1.492,1.577c0,0.64,0.361,1.202,0.916,1.449c0.39,1.43,0.626,4.246,0.626,5.367
	c0,4.357-4.454,7.612-8.436,7.612s-8.438-3.251-8.438-7.603c0-1.146,0.241-4.006,0.642-5.42c0.503-0.265,0.822-0.801,0.822-1.406
	c0-0.871-0.67-1.577-1.49-1.577c-0.822,0-1.492,0.706-1.492,1.577c0,0.356,0.112,0.697,0.316,0.969
	c-0.418,1.431-0.63,4.699-0.63,5.857c0,4.786,4.355,9.002,9.491,9.394c0.091,0.976,0.216,2.649,0.031,2.95
	c-0.179,0.291-0.939,0.944-4.041,0.72c-0.457-0.056-4.52-0.489-6.001,1.536c-0.644,0.878-0.678,2.029-0.125,3.416
	c-0.493,0.38-0.812,0.958-0.812,1.609c0,1.156,0.98,2.091,2.19,2.091c1.212,0,2.19-0.935,2.19-2.091c0-1.154-0.979-2.088-2.19-2.088
	c-0.055,0-0.102,0.01-0.156,0.014c-0.379-0.946-0.41-1.688-0.049-2.182c0.88-1.199,3.759-1.137,4.825-1.01
	c2.876,0.207,4.612-0.23,5.287-1.35c0.404-0.674,0.519-2.535,0.423-3.616C92.22,435.612,96.562,431.399,96.562,426.61z
	 M77.516,446.245c0,0.42-0.34,0.76-0.758,0.76c-0.415,0-0.756-0.34-0.756-0.76c0-0.417,0.341-0.756,0.756-0.756
	C77.176,445.489,77.516,445.828,77.516,446.245z"/>
<g>
	<text transform="matrix(1 0 0 1 456.9141 473.2388)" fill="#231F20" font-family="'Verdana'" font-size="14">Thermometer</text>
</g>
<path d="M501.913,444.252l13.68-18.348c0.902-1.209,0.352-2.059-0.248-2.955l1.2-1.609c0.514-0.685,0.37-1.654-0.313-2.166
	c-0.684-0.51-1.656-0.371-2.166,0.314l-1.199,1.607c-1.03-0.318-2.006-0.602-2.907,0.607l-13.681,18.35
	c-1.086,0.214-2.032,0.803-2.68,1.671c-1.48,1.985-1.01,4.854,1.051,6.392c2.063,1.537,4.945,1.168,6.426-0.816
	C501.722,446.43,502.018,445.356,501.913,444.252z M502.665,435.541l-1.185-0.883l1.665-2.229l1.182,0.882L502.665,435.541z
	 M506.333,430.622l-1.578,2.119l-1.186-0.882l1.662-2.229l1.206,0.9C506.404,430.562,506.362,430.583,506.333,430.622z
	 M495.216,447.358c-1.641-1.226-2.029-3.499-0.859-5.068c0.537-0.721,1.34-1.193,2.262-1.339l0.191-0.026l4.247-5.697l1.185,0.885
	l-4.465,5.987c-0.814-0.112-1.67,0.209-2.201,0.925c-0.78,1.042-0.58,2.501,0.441,3.264c1.02,0.762,2.477,0.534,3.252-0.509
	c0.508-0.683,0.592-1.54,0.308-2.267l8.592-11.521c0.28-0.377,0.194-0.914-0.193-1.202l-0.433-0.322l-0.004-0.003l-1.883-1.405
	l1.662-2.228l1.887,1.408l0.427-0.57l-1.89-1.407l1.665-2.23l1.887,1.407l0.423-0.568l-1.889-1.406l0.893-1.193
	c0.49-0.658,0.848-0.582,1.9-0.258l0.701,0.216l0.18-0.354l1.322-1.82c0.197-0.265,0.576-0.32,0.842-0.122
	c0.266,0.199,0.322,0.578,0.122,0.844l-1.28,1.71l-0.369,0.346l0.402,0.615c0.613,0.916,0.785,1.237,0.295,1.893l-13.907,18.654
	l0.024,0.19c0.129,0.926-0.099,1.83-0.636,2.551C499.147,448.301,496.86,448.583,495.216,447.358z"/>
<g>
	<text transform="matrix(1 0 0 1 204.3818 274.0112)" fill="#231F20" font-family="'Verdana'" font-size="14">Heart</text>
</g>
<g>
	<g>
		<path d="M223.732,243.698c7.676-5.414,11.824-10.377,12.34-14.77l0.037-1.467c-0.244-3.513-2.363-5.042-3.744-5.211
			c-0.379-0.045-0.737-0.072-1.061-0.081c-1.992-0.048-2.841,0.538-4.533,2.462l-2.642,2.994l-2.491-3.123
			c-1.596-2-2.414-2.631-4.404-2.68c-0.328-0.008-0.684,0.002-1.065,0.027c-1.388,0.103-3.579,1.526-3.995,5.022l-0.035,1.466
			c0.002,0.028,0.008,0.054,0.01,0.083l-0.268,3.414l-2.434-0.061c-0.395-1.185-0.605-2.309-0.662-3.377l0.045-1.753
			c0.549-5.253,4.089-7.917,7.096-8.136c0.495-0.037,0.957-0.047,1.391-0.037c3.469,0.083,5.094,1.626,6.941,3.941
			c1.961-2.221,3.661-3.68,7.129-3.593c0.432,0.011,0.893,0.044,1.387,0.104c2.992,0.367,6.395,3.199,6.688,8.477l-0.044,1.753
			c-0.516,5.029-4.475,11.151-15.787,18.675c-1.248-0.922-2.395-1.817-3.46-2.695l0.058-2.264l2.547,0.061
			C223.091,243.187,223.404,243.44,223.732,243.698z"/>
	</g>
	<g>
		<polygon points="213.494,235.932 213.625,230.616 218.185,230.727 218.054,236.045 223.373,236.178 223.259,240.737 
			217.941,240.606 217.81,245.924 213.25,245.811 213.38,240.491 208.062,240.362 208.173,235.802 		"/>
	</g>
</g>
<g>
	<text transform="matrix(1 0 0 1 457.0049 274.1362)" fill="#231F20" font-family="'Verdana'" font-size="14">Insurance Bill</text>
</g>
<g>
	<path d="M521.802,232.491c0-5.271-4.274-9.542-9.543-9.542c-5.266,0-9.541,4.271-9.541,9.542h9.103v15.802h-22.283v-20.424
		c1.499-0.181,3.738-0.452,5.145-0.626c1.489-0.182,2.52-1.542,2.292-3.023c-0.208-1.355-0.534-3.492-0.765-4.984h15.611v2.613
		c0.632-0.16,1.224-0.154,1.749-0.044v-2.568c0-0.964-0.782-1.746-1.749-1.746h-14.671h-1.197h-1.025l-1.166,1.252l-0.314,0.414
		c0,0.002-0.003,0.002-0.003,0.005c-1.262,1.663-3.325,4.385-4.587,6.048v0.002l-1.068,1.404v0.044v1.152v20.483
		c0,0.966,0.785,1.749,1.749,1.749h22.283c0.967,0,1.749-0.783,1.749-1.749v-15.802H521.802z"/>
	<rect x="491.503" y="237.848" width="9.829" height="0.844"/>
	<rect x="491.503" y="241.106" width="9.829" height="0.842"/>
	<rect x="491.503" y="245.147" width="9.829" height="0.845"/>
</g>
<text transform="matrix(1 0 0 1 247.5703 65.7671)" fill="#010101" font-family="'SegoeUI-Light'" font-size="60">Medicine</text>
<g>
	<g>
		<path fill="#010101" d="M61.094,545.757c0,1.682,1.363,3.045,3.045,3.045h15.492c1.682,0,3.045-1.363,3.045-3.045v-30.342
			c0-1.682-1.363-3.045-3.045-3.045H64.139c-1.682,0-3.045,1.363-3.045,3.045V545.757z"/>
		<circle fill="#FFFFFF" cx="77.066" cy="521.185" r="3.633"/>
		<circle fill="#FFFFFF" cx="66.97" cy="521.185" r="3.632"/>
		<circle fill="#FFFFFF" cx="77.066" cy="530.8" r="3.633"/>
		<circle fill="#FFFFFF" cx="66.97" cy="530.8" r="3.632"/>
		<circle fill="#FFFFFF" cx="77.066" cy="540.416" r="3.633"/>
		<circle fill="#FFFFFF" cx="66.97" cy="540.416" r="3.632"/>
	</g>
	<path fill="#FFFFFF" d="M100.74,552.687c5.125,0,9.295-4.17,9.295-9.295v-6.09c0-0.181-0.006-0.369-0.02-0.57v-12.14
		c0-7.396-6.016-13.412-13.412-13.412h-5.67c-7.395,0-13.412,6.017-13.412,13.412v12.143c-0.012,0.201-0.018,0.388-0.018,0.567v6.09
		c0,5.125,4.168,9.295,9.295,9.295H100.74z"/>
	<path fill="#010101" d="M80.727,536.844v-12.252c0-5.637,4.57-10.207,10.207-10.207h5.67c5.637,0,10.207,4.57,10.207,10.207v12.25
		c0.012,0.152,0.02,0.305,0.02,0.46v6.09c0,3.363-2.727,6.09-6.09,6.09H86.799c-3.363,0-6.09-2.727-6.09-6.09v-6.09
		C80.709,537.148,80.715,536.996,80.727,536.844z"/>
	<path fill="#010101" d="M85.986,516.95c0,2.213,1.795,4.007,4.008,4.007h7.691c2.213,0,4.006-1.794,4.006-4.007v-10.256
		c0-2.213-1.793-4.007-4.006-4.007h-7.691c-2.213,0-4.008,1.794-4.008,4.007V516.95z"/>
	<path fill="#FFFFFF" d="M100.74,546.277c1.59,0,2.885-1.294,2.885-2.885v-6.09c0-0.058-0.004-0.13-0.01-0.22l-0.01-0.12v-12.37
		c0-3.86-3.141-7.001-7.002-7.001h-5.67c-3.861,0-7.002,3.141-7.002,7.001v12.371l-0.008,0.118c-0.008,0.092-0.01,0.164-0.01,0.221
		v6.09c0,1.591,1.293,2.885,2.885,2.885H100.74z"/>
	<rect x="83.529" y="526.512" fill="#010101" width="20.619" height="14.103"/>
</g>
<path fill="#010101" d="M237.499,515.325h-5.221v-4.259c0-4.627-3.751-8.379-8.379-8.379c-4.627,0-8.379,3.752-8.379,8.379v4.259
	h-5.494c-3.187,0-5.77,2.583-5.77,5.769v25.824c0,3.187,2.583,5.77,5.77,5.77h27.473c3.186,0,5.769-2.583,5.769-5.77v-25.824
	C243.267,517.908,240.684,515.325,237.499,515.325z M223.762,505.976c2.022,0,3.662,1.641,3.662,3.662
	c0,2.024-1.64,3.664-3.662,3.664c-2.023,0-3.664-1.64-3.664-3.664C220.098,507.617,221.739,505.976,223.762,505.976z
	 M232.095,543.804c0,0-2.381,4.762-7.876,4.67c0,0-4.762,0.55-7.875-3.571c0,0-4.945-4.853,2.289-16.117
	c0,0,3.801-7.005,5.221-10.714c0,0,4.27,9.135,5.586,11.172C229.44,529.244,235.163,538.676,232.095,543.804z"/>
<g>
	<path fill="#010101" d="M377.082,511.365c-4.666-4.283-12.228-4.283-16.894,0l-3.168,2.906l-3.168-2.906
		c-4.666-4.283-12.229-4.283-16.896,0c-5.248,4.816-5.248,12.627,0,17.443l20.064,18.412l20.062-18.412
		C382.332,523.992,382.332,516.181,377.082,511.365"/>
	<path fill="#FFFFFF" d="M370.34,527.88c-0.902,0-1.689,0.496-2.128,1.24h-7.402c-1.057,0-1.164-1.48-1.164-1.48l-1.701-11.301
		c-0.004-0.086-0.018-0.172-0.039-0.254l-0.006-0.033h-0.002c-0.146-0.494-0.604-0.854-1.145-0.854c-0.596,0-1.09,0.438-1.176,1.012
		h-0.006l-1.746,14.127c-0.264,1.217-0.793,0.371-0.793,0.371l-1.43-5.504l-0.006,0.002c-0.076-0.586-0.574-1.037-1.18-1.037
		c-0.625,0-1.135,0.479-1.188,1.088l-0.008,0.002l-0.811,3.791c0,1.27-1.553,1.482-1.553,1.482l-5.715,0.352v0.002
		c-0.016,0-0.029-0.004-0.045-0.004c-0.379,0-0.684,0.305-0.684,0.684c0,0.377,0.305,0.684,0.684,0.684
		c0.027,0,0.055-0.006,0.08-0.008v0.002l7.621,0.422c1.057,0.053,1.375-0.529,1.375-0.529c0.371-0.688,0.74,0.055,0.74,0.055
		l1.697,6.385c0.016,0.135,0.049,0.264,0.102,0.385v0.002h0.002c0.199,0.461,0.646,0.783,1.166,0.783
		c0.707,0,1.279-0.594,1.279-1.326c0-0.033-0.002-0.064-0.004-0.098l1.42-10.895c0.266-0.846,0.74,0.053,0.74,0.053l1.164,7.461
		h0.004c0.107,0.588,0.605,1.031,1.203,1.031c0.543,0,1.002-0.365,1.164-0.873l0.01,0.002c0-0.012,0.002-0.029,0.004-0.043
		c0.031-0.113,0.049-0.232,0.049-0.357c0-0.021-0.002-0.043-0.002-0.064c0.1-0.717,0.32-1.918,0.32-1.918
		c0.266-0.898,1.059-1.057,1.059-1.057l5.855,0.041c0.421,0.805,1.246,1.352,2.193,1.352c1.381,0,2.498-1.156,2.498-2.586
		S371.721,527.88,370.34,527.88z"/>
</g>
<g>
	<polygon fill="#010101" points="514.391,515.364 514.391,545.423 484.424,545.423 484.424,515.364 480.99,515.364 480.99,545.423 
		480.99,548.856 484.424,548.856 514.391,548.856 517.822,548.856 517.822,545.423 517.822,515.364 	"/>
	<rect x="479.924" y="506.921" fill="#010101" width="38.967" height="6.494"/>
	<g>
		<circle fill="#010101" cx="495.822" cy="532.621" r="1.67"/>
		<circle fill="#010101" cx="502.99" cy="532.551" r="1.67"/>
	</g>
	<g>
		<circle fill="#010101" cx="507.005" cy="539.231" r="1.321"/>
		<circle fill="#010101" cx="499.072" cy="539.231" r="1.281"/>
		<circle fill="#010101" cx="491.767" cy="539.231" r="1.28"/>
	</g>
	<path fill="#010101" d="M501.967,548.625c0.002,0.047,0.014,0.091,0.014,0.138c0,1.42-1.154,2.575-2.574,2.575
		s-2.574-1.155-2.574-2.575c0-0.047,0.01-0.091,0.014-0.138h-1.67c-0.002,0.047-0.014,0.091-0.014,0.138
		c0,2.345,1.9,4.245,4.244,4.245s4.244-1.9,4.244-4.245c0-0.047-0.012-0.091-0.014-0.138H501.967z"/>
	
		<rect x="513.995" y="520.283" transform="matrix(-0.7418 0.6706 -0.6706 -0.7418 1259.8589 585.4188)" fill="#FFFFFF" width="6.495" height="29.873"/>
	
		<rect x="516.221" y="522.51" transform="matrix(0.7421 -0.6703 0.6703 0.7421 -225.3582 484.783)" fill="#010101" width="2.042" height="25.419"/>
	<g>
		<path fill="#010101" d="M504.531,526.22h-2.551l-0.738-2.311h-3.693l-0.73,2.311h-2.537l3.781-10.386h2.775L504.531,526.22z
			 M500.707,522.114l-1.117-3.49c-0.08-0.261-0.139-0.572-0.172-0.936h-0.059c-0.025,0.305-0.084,0.607-0.182,0.906l-1.129,3.52
			H500.707z"/>
	</g>
</g>
<g>
	<circle cx="656.61" cy="509.79" r="6.176"/>
	<path d="M667.938,553.613c-0.396,0-0.791-0.055-1.176-0.161l-21.703-6.03c-2.327-0.647-3.696-3.067-3.048-5.395
		c0.524-1.891,2.259-3.211,4.218-3.211c0.396,0,0.79,0.055,1.175,0.162l21.704,6.03c2.327,0.646,3.696,3.066,3.05,5.396
		C671.631,552.293,669.896,553.613,667.938,553.613z"/>
	<path d="M646.229,553.613c-1.959,0-3.693-1.319-4.219-3.209c-0.646-2.329,0.722-4.749,3.049-5.396l21.704-6.03
		c0.385-0.107,0.78-0.162,1.175-0.162c1.959,0,3.693,1.32,4.219,3.211c0.646,2.327-0.721,4.747-3.049,5.395l-21.703,6.03
		C647.021,553.558,646.624,553.613,646.229,553.613L646.229,553.613z"/>
	<path d="M641.244,541.709c-1.281,0.849-3.01,0.497-3.857-0.785l0,0c-0.849-1.284-0.497-3.011,0.785-3.858l6.27-4.147
		c1.282-0.849,3.01-0.497,3.858,0.785l0,0c0.848,1.282,0.496,3.01-0.787,3.858L641.244,541.709z"/>
	<path d="M671.594,541.709c1.282,0.849,3.01,0.497,3.857-0.785l0,0c0.85-1.284,0.497-3.011-0.785-3.858l-6.269-4.147
		c-1.283-0.849-3.01-0.497-3.859,0.785l0,0c-0.848,1.282-0.496,3.01,0.787,3.858L671.594,541.709z"/>
	<path d="M668.319,525.746v-1.287c0-3.979-3.226-7.206-7.205-7.206h-9.395c-3.979,0-7.205,3.227-7.205,7.206v1.287H668.319z"/>
	<rect x="644.515" y="525.584" width="4.246" height="9.812"/>
	<rect x="664.073" y="525.488" width="4.246" height="9.908"/>
	<rect x="650.434" y="524.587" width="12.224" height="18.015"/>
</g>
<g>
	<circle cx="87.234" cy="609.041" r="2.592"/>
	<path d="M91.302,648.219c0,1.186-0.936,2.147-2.088,2.147l0,0c-1.154,0-2.089-0.962-2.089-2.147V628.53
		c0-1.187,0.935-2.147,2.089-2.147l0,0c1.152,0,2.088,0.961,2.088,2.147V648.219z"/>
	<path d="M90.221,631.755c0,1.113-0.901,2.016-2.016,2.016H76.253c-1.113,0-2.016-0.902-2.016-2.016l0,0
		c0-1.113,0.902-2.016,2.016-2.016h11.952C89.32,629.74,90.221,630.642,90.221,631.755L90.221,631.755z"/>
	<rect x="83.057" y="614.081" width="8.208" height="14.399"/>
	<polygon points="83.453,624.627 75.083,630.189 84.641,630.189 86.855,627.652 	"/>
	<path d="M86.404,616.192c0.498,0.719,0.321,1.705-0.396,2.205l0,0c-0.719,0.5-1.707,0.322-2.206-0.396l-6.247-8.986
		c-0.499-0.718-0.322-1.705,0.396-2.205l0,0c0.718-0.498,1.706-0.321,2.205,0.396L86.404,616.192z"/>
	<path d="M77.904,606.643c-0.689,0.504-0.838,1.471-0.336,2.158l0,0c0.504,0.688,1.471,0.837,2.159,0.335l5.34-3.908
		c0.688-0.504,0.839-1.469,0.335-2.157l0,0c-0.503-0.688-1.47-0.838-2.158-0.334L77.904,606.643z"/>
	<path d="M87.758,616.12c-0.497,0.719-0.321,1.706,0.396,2.205l0,0c0.719,0.5,1.707,0.322,2.206-0.396l6.247-8.986
		c0.499-0.719,0.322-1.705-0.396-2.205l0,0c-0.718-0.498-1.706-0.321-2.205,0.397L87.758,616.12z"/>
	<path d="M96.259,606.572c0.688,0.504,0.837,1.47,0.334,2.157l0,0c-0.503,0.689-1.469,0.839-2.158,0.335l-5.34-3.907
		c-0.688-0.504-0.839-1.47-0.335-2.158l0,0c0.503-0.688,1.47-0.838,2.158-0.334L96.259,606.572z"/>
</g>
<g>
	<circle cx="230.478" cy="615.952" r="3.472"/>
	<path d="M231.987,634.757c0,1.918-1.555,3.472-3.473,3.472l0,0c-1.918,0-3.471-1.554-3.471-3.472v-10.416
		c0-1.917,1.553-3.472,3.471-3.472l0,0c1.918,0,3.473,1.555,3.473,3.472V634.757z"/>
	<rect x="227.853" y="634.593" width="11.407" height="4.504"/>
	<path d="M241.411,648.396c0,1.416-1.147,2.563-2.563,2.563l0,0c-1.415,0-2.563-1.147-2.563-2.563v-11.241
		c0-1.415,1.147-2.563,2.563-2.563l0,0c1.416,0,2.563,1.147,2.563,2.563V648.396z"/>
	<path d="M227.444,632.937c1.212-0.817,2.857-0.496,3.676,0.717l0,0c0.816,1.213,0.495,2.857-0.717,3.675l-20.162,13.587
		c-1.213,0.816-2.858,0.495-3.677-0.717l0,0c-0.816-1.213-0.496-2.859,0.717-3.676L227.444,632.937z"/>
	<path d="M229.31,627.572c0.13,1.088-0.646,2.076-1.734,2.206l0,0c-1.087,0.131-2.075-0.646-2.205-1.732l-2.94-24.457
		c-0.131-1.088,0.646-2.076,1.733-2.207l0,0c1.088-0.131,2.075,0.646,2.206,1.733L229.31,627.572z"/>
</g>
<g>
	<circle cx="359.442" cy="605.822" r="4.456"/>
	<path d="M383.911,613.814c0,1.406-1.14,2.546-2.546,2.546h-45.403c-1.406,0-2.546-1.14-2.546-2.546v-0.142
		c0-1.407,1.14-2.546,2.546-2.546h45.403c1.406,0,2.546,1.139,2.546,2.546V613.814z"/>
	<path d="M376.839,633.05c0,1.406-1.14,2.546-2.545,2.546h-15.418c-1.406,0-2.546-1.14-2.546-2.546v-0.707
		c0-1.406,1.14-2.547,2.546-2.547h15.418c1.405,0,2.545,1.141,2.545,2.547V633.05z"/>
	<path d="M377.122,648.326c0,1.406-1.14,2.546-2.546,2.546h-1.132c-1.406,0-2.546-1.14-2.546-2.546v-15.417
		c0-1.406,1.14-2.546,2.546-2.546h1.132c1.406,0,2.546,1.14,2.546,2.546V648.326z"/>
	<path d="M354.208,616.36c0,0,2.688,10.608-1.131,14.286l10.042,1.414c0,0,2.829-4.244,0.566-16.69L354.208,616.36z"/>
	<path d="M353.072,630.655c0,0-2.966,5.648-21.354,14.842l2.971,5.517c0,0,19.66-10.325,25.46-16.125l-0.425-6.223L353.072,630.655z
		"/>
	<circle cx="333.275" cy="648.22" r="3.147"/>
</g>
<g>
	<path d="M520.681,648.173c0,1.471-1.193,2.664-2.665,2.664l0,0c-1.471,0-2.664-1.193-2.664-2.664v-43.612
		c0-1.472,1.193-2.665,2.664-2.665l0,0c1.472,0,2.665,1.193,2.665,2.665V648.173z"/>
	<circle cx="525.869" cy="625.175" r="3.926"/>
	<path d="M485.031,648.886c-1.023,1.264-2.877,1.461-4.144,0.438l0,0c-1.265-1.021-1.459-2.877-0.437-4.141l17.543-21.701
		c1.023-1.266,2.878-1.461,4.142-0.439l0,0c1.266,1.021,1.461,2.877,0.439,4.141L485.031,648.886z"/>
	<path d="M501.678,630.603c-1.197-1.1-1.278-2.963-0.178-4.162l0,0c1.1-1.199,2.962-1.277,4.16-0.178l20.561,18.867
		c1.197,1.102,1.278,2.963,0.18,4.16l0,0c-1.099,1.199-2.964,1.279-4.162,0.18L501.678,630.603z"/>
	<polygon points="499.506,622.37 516.613,619.986 516.474,628.96 504.273,629.101 	"/>
</g>
<g>
	<path d="M677.008,621.852c0,1.706-1.384,3.089-3.089,3.089h-36.766c-1.705,0-3.089-1.383-3.089-3.089l0,0
		c0-1.706,1.384-3.089,3.089-3.089h36.766C675.624,618.763,677.008,620.146,677.008,621.852L677.008,621.852z"/>
	<path d="M663.66,641.3c1.149,1.525,0.845,3.691-0.679,4.84l0,0c-1.525,1.15-3.69,0.846-4.842-0.68l-26.023-34.527
		c-1.148-1.525-0.846-3.691,0.68-4.841l0,0c1.526-1.148,3.69-0.845,4.842,0.68L663.66,641.3z"/>
	<path d="M650.389,624.058l10.883,10.441l6.177,10.001c0,0-4.853,5-8.088,1.323L650.389,624.058z"/>
	<path d="M668.639,643.799c-2.308,3.408-6.567,4.552-9.518,2.556l0,0c-2.95-1.996-3.472-6.376-1.167-9.785l9.531-14.082
		c2.305-3.408,6.566-4.552,9.516-2.557l0,0c2.95,1.996,3.473,6.377,1.167,9.785L668.639,643.799z"/>
	<circle cx="676.419" cy="612.881" r="5"/>
</g>
<g>
	<circle cx="78.977" cy="706.067" r="4.106"/>
	<path d="M81.099,714.417c0,1.361-1.104,2.464-2.464,2.464H63.029c-1.361,0-2.465-1.103-2.465-2.464l0,0
		c0-1.361,1.104-2.464,2.465-2.464h15.605C79.994,711.954,81.099,713.056,81.099,714.417L81.099,714.417z"/>
	<path d="M98.963,746.039c0,1.436-1.165,2.602-2.602,2.602l0,0c-1.436,0-2.601-1.166-2.601-2.602v-25.188
		c0-1.436,1.165-2.601,2.601-2.601l0,0c1.437,0,2.602,1.165,2.602,2.601V746.039z"/>
	<path d="M88.21,713.188c-0.985,0.861-2.489,0.752-3.361-0.243l0,0c-0.87-0.996-0.777-2.502,0.207-3.363l14.98-13.103
		c0.986-0.861,2.491-0.752,3.361,0.243l0,0c0.87,0.996,0.778,2.502-0.208,3.363L88.21,713.188z"/>
	<path d="M110.359,711.13c0.551,1.285-0.045,2.773-1.33,3.324l0,0c-1.287,0.551-2.775-0.045-3.325-1.33l-4.313-10.066
		c-0.551-1.286,0.045-2.774,1.331-3.325l0,0c1.285-0.552,2.774,0.044,3.325,1.33L110.359,711.13z"/>
	<path d="M77.334,712.364c0,0,4.654,0,12.32-6.845l-1.232,6.845c0,0,0.821,3.696,5.339,3.833c0,0,7.118,0.685,11.088-6.16
		l4.757,4.09c0,0-8.863,8.23-12.285,8.915c0,0-12.595,3.012-20.534-8.214L77.334,712.364z"/>
</g>
<g>
	<path d="M226.119,744.231c0,1.608-1.303,2.911-2.911,2.911l0,0c-1.608,0-2.911-1.303-2.911-2.911V700.18
		c0-1.607,1.303-2.911,2.911-2.911l0,0c1.608,0,2.911,1.304,2.911,2.911V744.231z"/>
	<circle cx="214.157" cy="743.345" r="3.924"/>
	<path d="M220.486,724.674c0,0-2.658,18.481-0.569,21.266c0,0,0.506,1.519,3.291,1.202L220.486,724.674z"/>
	<path d="M236.013,742.774c0.874,0.913,0.843,2.361-0.071,3.235l0,0c-0.914,0.873-2.362,0.84-3.234-0.072l-6.326-6.615
		c-0.875-0.913-0.842-2.362,0.07-3.234l0,0c0.914-0.874,2.364-0.842,3.236,0.071L236.013,742.774z"/>
	<path d="M237.29,744.792c0,1.123-0.909,2.033-2.034,2.033h-11.153c-1.124,0-2.034-0.91-2.034-2.033l0,0
		c0-1.123,0.91-2.034,2.034-2.034h11.153C236.381,742.758,237.29,743.669,237.29,744.792L237.29,744.792z"/>
</g>
<g>
	<circle cx="353.877" cy="730.66" r="4.402"/>
	<path d="M368.441,713.386c0-2.617-2.123-4.74-4.742-4.74l0,0c-2.617,0-4.741,2.123-4.741,4.74v17.781
		c0,2.618,2.124,4.741,4.741,4.741l0,0c2.619,0,4.742-2.123,4.742-4.741V713.386z"/>
	<path d="M382.02,732.607c0,1.355-1.19,2.455-2.659,2.455h-15.035c-1.469,0-2.659-1.1-2.659-2.455l0,0
		c0-1.357,1.19-2.456,2.659-2.456h15.035C380.829,730.151,382.02,731.25,382.02,732.607L382.02,732.607z"/>
	<path d="M381.38,733.243c-0.732,1.015-2.084,1.29-3.021,0.616l-10.289-7.414c-0.938-0.676-1.104-2.045-0.373-3.061l0,0
		c0.73-1.015,2.084-1.291,3.021-0.613l10.289,7.412C381.943,730.857,382.111,732.228,381.38,733.243L381.38,733.243z"/>
	<path d="M353.209,724.179c-1.381,1.125-3.405,0.924-4.52-0.445l0,0c-1.115-1.37-0.896-3.393,0.483-4.516l12.121-9.86
		c1.382-1.124,3.404-0.925,4.521,0.444l0,0c1.112,1.371,0.897,3.393-0.485,4.518L353.209,724.179z"/>
	<path d="M337.063,732.878c-1.764,0.945-3.868,0.448-4.703-1.107l0,0c-0.835-1.557-0.079-3.586,1.686-4.529l15.474-8.288
		c1.765-0.944,3.869-0.448,4.704,1.108l0,0c0.833,1.557,0.079,3.586-1.686,4.53L337.063,732.878z"/>
</g>
</svg>
