<?xml version="1.0" encoding="utf-8"?>
<!-- Generator: Adobe Illustrator 15.1.0, SVG Export Plug-In . SVG Version: 6.00 Build 0)  -->
<!DOCTYPE svg PUBLIC "-//W3C//DTD SVG 1.1//EN" "http://www.w3.org/Graphics/SVG/1.1/DTD/svg11.dtd">
<svg version="1.1" id="Layer_1" xmlns="http://www.w3.org/2000/svg" xmlns:xlink="http://www.w3.org/1999/xlink" x="0px" y="0px"
	 width="800px" height="3616.695px" viewBox="0 0 800 3616.695" enable-background="new 0 0 800 3616.695" xml:space="preserve">
<g>
	<text transform="matrix(1 0 0 1 131.8083 119.0073)" font-family="'SegoeUI-Light'" font-size="60">Wp7 App Bar Icons</text>
</g>
<text transform="matrix(1 0 0 1 87.6609 572.9858)" font-family="'Calibri'" font-size="12">Cloud Swril</text>
<text transform="matrix(1 0 0 1 217.906 569.9858)" font-family="'Calibri'" font-size="12">Cloud Cyclone</text>
<text transform="matrix(1 0 0 1 663.5608 563.3423)" font-family="'MyriadPro-Regular'" font-size="12">Contact</text>
<text transform="matrix(1 0 0 1 234.9055 424.6909)" font-family="'Calibri'" font-size="12">Camera</text>
<g>
	<path d="M270.74,372.407h-2.561c0.002-0.04,0.006-0.08,0.006-0.12v-1.985c0-0.914-0.738-1.654-1.654-1.654
		c-0.643,0-1.196,0.367-1.473,0.901h-0.031v0.067c-0.094,0.209-0.149,0.441-0.149,0.686v1.985c0,0.041,0.002,0.08,0.006,0.12
		h-12.346c0.004-0.05,0.01-0.1,0.01-0.151v-0.902c0-1.329-1.078-2.406-2.406-2.406h-9.926c-1.328,0-2.404,1.077-2.404,2.406v0.902
		c0,0.051,0.004,0.101,0.008,0.151h-1.362c-1.57,0-2.855,1.287-2.855,2.857v22.857c0,1.571,1.285,2.856,2.855,2.856h34.285
		c1.573,0,2.858-1.286,2.858-2.856v-22.857C273.6,373.693,272.314,372.407,270.74,372.407z M257.17,397.835
		c-6.012,0-10.902-4.891-10.902-10.903c0-6.012,4.892-10.905,10.902-10.905s10.904,4.893,10.904,10.905
		C268.074,392.944,263.182,397.835,257.17,397.835z"/>
	<circle cx="257.209" cy="387.144" r="7.068"/>
</g>
<text transform="matrix(0.9998 0.0183 -0.0183 0.9998 662.4758 1813.4556)" font-family="'Calibri'" font-size="11.9996">Zoom</text>
<text transform="matrix(1 0 0 1 516.9338 1673.2612)" font-family="'Calibri'" font-size="12">Settings</text>
<path d="M550.125,1633.03c0.008-0.759-0.066-1.502-0.179-2.228l3.035-2.42c-0.781-2.91-2.285-5.518-4.323-7.619l-3.626,1.371
	c-1.146-0.949-2.448-1.709-3.862-2.255l-0.577-3.829c-1.396-0.371-2.86-0.596-4.376-0.607c-1.517-0.008-2.98,0.195-4.39,0.55
	l-0.62,3.821c-1.42,0.533-2.736,1.271-3.894,2.209l-3.61-1.416c-2.061,2.072-3.598,4.658-4.419,7.562l3.006,2.457
	c-0.122,0.725-0.199,1.469-0.208,2.227c-0.007,0.767,0.066,1.507,0.182,2.236l-3.04,2.416c0.786,2.908,2.29,5.521,4.325,7.619
	l3.625-1.369c1.146,0.945,2.454,1.705,3.868,2.254l0.567,3.828c1.403,0.373,2.868,0.596,4.381,0.607
	c1.516,0.004,2.98-0.195,4.387-0.548l0.628-3.827c1.415-0.531,2.731-1.271,3.893-2.199l3.604,1.414
	c2.063-2.076,3.598-4.664,4.421-7.563l-3.005-2.455C550.041,1634.536,550.117,1633.796,550.125,1633.03 M536.056,1640.189
	c-3.997-0.022-7.222-3.291-7.196-7.293c0.027-4.002,3.289-7.227,7.293-7.2c4.002,0.024,7.228,3.293,7.2,7.295
	C543.324,1636.997,540.063,1640.218,536.056,1640.189"/>
<text transform="matrix(1 0 0 1 241.3074 694.8735)" font-family="'Calibri'" font-size="12">Folder</text>
<text transform="matrix(1 0 0 1 673.1506 1127.3472)" font-family="'Calibri'" font-size="12">Plus</text>
<text transform="matrix(1 0 0 1 235.7458 1127.3481)" font-family="'Calibri'" font-size="12">Minus</text>
<text transform="matrix(1 0 0 1 368.2947 1377.0308)" font-family="'Calibri'" font-size="12">Right Arrow</text>
<text transform="matrix(1 0 0 1 661.0081 844.8638)" font-family="'Calibri'" font-size="12">Left arrow</text>
<text transform="matrix(1 0 0 1 667.6897 1675.0581)" font-family="'Calibri'" font-size="12">Tick</text>
<text transform="matrix(1 0 0 1 515.1584 1377.0288)" font-family="'Calibri'" font-size="12">Recycle Bin</text>
<g>
	<path d="M553.431,1319.932h-1.83c-0.256-1.672-1.654-2.953-3.355-2.953h-11.448c-1.699,0-3.099,1.281-3.354,2.953h-1.828
		c-2.401,0-4.348,2.086-4.348,4.66v1.904c0,0.293,0.025,0.578,0.072,0.857h30.362c0.047-0.279,0.074-0.564,0.074-0.857v-1.904
		C557.776,1322.018,555.83,1319.932,553.431,1319.932z M548.031,1321.014h-11.022c-0.582,0-1.056-0.483-1.056-1.082
		s0.474-1.082,1.056-1.082h11.022c0.584,0,1.056,0.483,1.056,1.082C549.087,1320.529,548.615,1321.014,548.031,1321.014z"/>
	<path d="M528.119,1329.627l2.224,24.055c0,1.82,1.42,3.297,3.174,3.297h18.168c1.754,0,3.174-1.477,3.174-3.297l2.063-24.055
		H528.119z M544.406,1335.6c0.763,0.015,1.824-0.043,2.148,0.365c0.436,0.543,0.631,1.403,1.094,1.985
		c0.492-0.17,0.814-0.509,1.299-0.688c-0.688,1.148-1.356,2.319-2.026,3.485c-1.154,0-2.416-0.061-3.853-0.04
		c0.273-0.281,0.728-0.383,1.017-0.648c-0.587-1.069-1.25-2.515-1.906-3.567c-0.238-0.382-0.521-0.673-0.974-0.852
		C541.914,1335.637,543.231,1335.577,544.406,1335.6z M534.681,1346.219c-0.24-0.444-0.605-0.898-0.65-1.418
		c-0.08-0.938,0.894-1.686,1.217-2.514c-0.315-0.346-0.858-0.464-1.174-0.812c1.312,0,2.619,0,3.931,0
		c0.602,1.176,1.235,2.324,1.784,3.445c-0.34-0.176-0.637-0.39-0.975-0.568c-0.813,1.176-1.441,2.531-2.229,3.73
		c-0.077,0.394-0.264,0.807-0.161,1.256C535.882,1348.488,535.228,1347.241,534.681,1346.219z M541.976,1351.043
		c-1.891-0.003-4.385,0.524-5.229-0.974c-0.561-0.993,0.015-2.202,0.609-3c1.361-0.034,2.771-0.044,4.66-0.04
		C542.005,1348.746,541.979,1349.263,541.976,1351.043z M540.233,1341.842c-1.152-0.672-2.318-1.332-3.486-1.985
		c0.236-0.502,0.609-1.089,0.974-1.704c0.6-1.01,1.121-2.482,2.596-2.553c1.361-0.064,1.885,1.025,2.35,2.066
		C541.837,1339.041,541.015,1340.421,540.233,1341.842z M544.896,1351.043c-0.086,0.498-0.031,1.105-0.041,1.58
		c-0.711-1.103-1.32-2.301-1.945-3.485c0.609-1.201,1.345-2.276,1.945-3.485c0.094,0.339,0.012,0.853,0.041,1.257
		c0.863,0.094,1.904,0.014,2.836,0.04c0.285,0.624,0.713,1.126,0.689,1.945C548.371,1350.588,546.955,1351.311,544.896,1351.043z
		 M549.839,1346.948c-0.455,0.787-0.873,1.443-1.257,2.188c-0.118-1.456-0.94-2.591-1.541-3.688
		c-0.545-0.996-1.108-1.906-1.579-2.877c1.178-0.66,2.334-1.342,3.485-2.027c0.479,0.731,1.109,2.059,1.58,2.917
		c0.224,0.41,0.517,0.689,0.486,1.217C550.978,1345.34,550.146,1346.418,549.839,1346.948z"/>
</g>
<text transform="matrix(1 0 0 1 89.2498 694.8726)" font-family="'Calibri'" font-size="12">Download</text>
<text transform="matrix(1 0 0 1 225.6355 1813.7134)" font-family="'Calibri'" font-size="12">Upload</text>
<text transform="matrix(1 0 0 1 356.8293 1813.7144)" font-family="'Calibri'" font-size="12">Video Camera</text>
<text transform="matrix(1 0 0 1 383.9509 1673.2612)" font-family="'Calibri'" font-size="12">Star</text>
<text transform="matrix(1 0 0 1 528.5627 1127.3491)" font-family="'Calibri'" font-size="12">Node</text>
<path d="M553.814,1080.193c-1.551,0-2.979-0.504-4.152-1.342l-13.61,7.087l13.459,7.004c1.202-0.908,2.683-1.468,4.305-1.468
	c3.968,0,7.183,3.216,7.183,7.18c0,3.965-3.215,7.181-7.183,7.181c-3.965,0-7.176-3.216-7.176-7.181
	c0-0.087,0.021-0.167,0.022-0.254l-13.493-7.025c-1.202,0.909-2.684,1.468-4.308,1.468c-3.968,0-7.181-3.215-7.181-7.178
	c0-3.967,3.213-7.181,7.181-7.181c1.813,0,3.451,0.695,4.714,1.804l13.107-6.823c-0.009-0.152-0.044-0.296-0.044-0.451
	c0-3.965,3.211-7.18,7.176-7.18c3.968,0,7.183,3.214,7.183,7.18C560.996,1076.979,557.781,1080.193,553.814,1080.193z"/>
<text transform="matrix(1 0 0 1 364.991 269.5444)" font-family="'Calibri'" font-size="12">Board Pin</text>
<polygon points="383.317,249.667 385.787,242.256 385.787,242.256 393.194,234.845 395.666,237.315 403.074,234.845 
	395.666,227.435 398.138,224.965 408.386,209.667 393.194,220.025 390.728,222.493 394.608,226.378 383.317,215.084 
	380.847,222.493 383.317,224.965 375.906,232.373 368.492,234.845 "/>
<text transform="matrix(1 0 0 1 671.0393 694.8726)" font-family="'Calibri'" font-size="12">Heart</text>
<path d="M692.775,637.866c0.496,0,1.021,0.025,1.586,0.082c3.428,0.333,7.396,3.474,7.877,9.491v2.001
	c-0.446,5.758-4.797,12.859-17.5,21.771c-12.705-8.911-17.051-16.013-17.5-21.771v-2.001c0.482-6.019,4.447-9.158,7.877-9.491
	c0.563-0.057,1.091-0.082,1.584-0.082c3.961,0,5.863,1.712,8.039,4.305C686.913,639.578,688.813,637.866,692.775,637.866"/>
<text transform="matrix(1 0 0 1 663.7659 1377.0308)" font-family="'Calibri'" font-size="12">Refresh</text>
<g>
	<path d="M696.377,1340.17l-0.217,0.484c-1.381,6.354-7.217,10.706-13.886,10.706c-3.473,0-6.756-1.396-9.336-3.629l3.241-2.269
		l-11.943-5.553l1.129,12.816l2.718-1.836c3.702,3.719,8.744,5.877,14.191,5.877c9.717,0,17.975-6.268,19.638-15.623l0.268-0.977
		h-5.803V1340.17z"/>
	<path d="M668.198,1333.984c1.379-6.355,7.216-11.004,13.884-11.004c3.476,0,6.761,1.242,9.337,3.479l-3.24,2.195l11.942,4.811
		l-1.13-12.491l-2.717,2.003c-3.701-3.719-8.741-5.788-14.192-5.788c-9.714,0-17.969,6.903-19.636,16.261l-0.267,1.613h5.803
		L668.198,1333.984z"/>
</g>
<text transform="matrix(1 0 0 1 512.4163 694.8726)" font-family="'Calibri'" font-size="12">Head Phone</text>
<text transform="matrix(1 0 0 1 80.6345 982.3901)" font-family="'Calibri'" font-size="12">Loud Speaker</text>
<text transform="matrix(1 0 0 1 84.0398 269.5454)" font-family="'Calibri'" font-size="12">Alarm Clock</text>
<g>
	<g>
		<path d="M113.038,213.551c-9.044,0-16.377,7.333-16.377,16.377c0,9.044,7.333,16.378,16.377,16.378
			c9.047,0,16.379-7.334,16.379-16.378C129.417,220.884,122.085,213.551,113.038,213.551z M113.038,242.893
			c-7.147,0-12.964-5.815-12.964-12.965c0-7.147,5.815-12.964,12.964-12.964s12.966,5.816,12.966,12.964
			C126.004,237.078,120.188,242.893,113.038,242.893z"/>
		<path d="M130.774,220.011c0.264-0.196,0.514-0.417,0.747-0.666c2.085-2.239,1.964-5.745-0.271-7.835
			c-2.237-2.088-5.745-1.968-7.833,0.272c-0.233,0.247-0.438,0.514-0.614,0.789L130.774,220.011z"/>
		<path d="M95.246,220.011c-0.264-0.196-0.514-0.417-0.747-0.666c-2.088-2.239-1.967-5.745,0.271-7.835
			c2.238-2.088,5.746-1.968,7.834,0.272c0.233,0.247,0.436,0.514,0.613,0.789L95.246,220.011z"/>
		<path d="M103.626,248.346c-0.45,0.877-1.527,1.221-2.4,0.771c-0.877-0.45-1.224-1.526-0.772-2.402l2.357-4.584
			c0.451-0.878,1.525-1.225,2.402-0.773c0.874,0.45,1.222,1.526,0.771,2.402L103.626,248.346z"/>
		<path d="M121.93,248.346c0.452,0.877,1.526,1.221,2.403,0.771c0.875-0.45,1.223-1.526,0.771-2.402l-2.358-4.584
			c-0.448-0.878-1.523-1.225-2.4-0.773c-0.876,0.45-1.222,1.526-0.771,2.402L121.93,248.346z"/>
		<path d="M114.606,230.317c0,0.696-0.563,1.261-1.26,1.261c-0.692,0-1.258-0.564-1.258-1.261v-9.046c0-0.696,0.564-1.26,1.258-1.26
			c0.695,0,1.26,0.563,1.26,1.26V230.317z"/>
		<path d="M112.457,229.54c0.492-0.492,1.29-0.492,1.78,0c0.491,0.492,0.491,1.29,0,1.782l-6.396,6.396
			c-0.492,0.492-1.29,0.492-1.78,0c-0.494-0.492-0.494-1.29,0-1.78L112.457,229.54z"/>
		<path d="M124.378,230.374c0,0.423-0.344,0.768-0.768,0.768h-1.709c-0.426,0-0.768-0.344-0.768-0.768
			c0-0.422,0.342-0.767,0.768-0.767h1.709C124.034,229.607,124.378,229.952,124.378,230.374"/>
		<path d="M113.347,240.913c-0.422,0-0.764-0.345-0.764-0.769v-1.709c0-0.423,0.342-0.767,0.764-0.767
			c0.425,0,0.769,0.344,0.769,0.767v1.709C114.114,240.568,113.771,240.913,113.347,240.913"/>
		<path d="M104.839,230.374c0,0.423-0.344,0.768-0.767,0.768h-1.711c-0.423,0-0.765-0.344-0.765-0.768
			c0-0.422,0.342-0.767,0.765-0.767h1.711C104.495,229.607,104.839,229.952,104.839,230.374"/>
	</g>
</g>
<text transform="matrix(1 0 0 1 666.9709 1541.021)" font-family="'Calibri'" font-size="12">Save</text>
<text transform="matrix(1 0 0 1 501.969 269.5444)" font-family="'Calibri'" font-size="12">Bluetooth</text>
<path d="M536.777,237.668l-8.14-8.141l8.093-8.09l-11.955-11.771v16l-6.76-6.76l-2.437,2.438l8.274,8.277l-8.32,8.32l2.438,2.439
	l6.805-6.806v16.092L536.777,237.668z M527.902,217.299l4.136,4.231l-4.136,4.137V217.299z M527.902,233.297l4.136,4.229
	l-4.136,4.141V233.297z"/>
<text transform="matrix(1 0 0 1 502.2971 1813.7134)" font-family="'Calibri'" font-size="12">Voice Search</text>
<text transform="matrix(1 0 0 1 92.6306 1127.3491)" font-family="'Calibri'" font-size="12">Message</text>
<path d="M100.667,1070.105h26.998c1.828,0,3.272,1.446,3.272,3.269v18.55c0,1.736-1.444,3.241-3.272,3.241h-7.636l-14.817,9.94
	l3.408-9.94h-7.953c-1.826,0-3.273-1.505-3.273-3.241v-18.55C97.394,1071.552,98.841,1070.105,100.667,1070.105z"/>
<text transform="matrix(1 0 0 1 95.78 844.2319)" font-family="'Calibri'" font-size="12">History</text>
<g>
	<polygon points="113.288,791.581 111.06,805.217 103.663,812.414 116.163,807.654 	"/>
	<path d="M113.134,788.773c-0.053,0-0.107,0.001-0.164,0.001c-4.068,0.041-7.885,1.665-10.736,4.573s-4.399,6.756-4.36,10.83
		c0.084,8.328,6.926,15.105,15.252,15.105c0.053,0,0.104,0,0.155-0.002c4.074-0.041,7.89-1.665,10.742-4.575
		c2.854-2.91,4.402-6.758,4.361-10.833c-0.004-0.312-0.021-0.629-0.047-0.962l4.6-1.738c0.117,0.844,0.181,1.688,0.188,2.524
		c0.055,5.343-1.976,10.386-5.715,14.199c-3.74,3.815-8.74,5.946-14.082,5.998c-0.068,0-0.14,0-0.205,0l0,0
		c-5.302,0-10.295-2.053-14.064-5.782c-3.771-3.732-5.877-8.709-5.932-14.018c-0.078-7.979,4.588-15.231,11.889-18.478l0.142-0.063
		l0.061-0.045c2.4-1.034,4.957-1.576,7.596-1.611c0.029,0.001,0.06,0.001,0.088,0.001c0.035,0,0.068-0.001,0.104-0.003h0.01
		c0.375,0,0.771,0.014,1.207,0.041l0.012,0.001c0.271,0.016,0.554,0.043,0.824,0.07l0.219,0.024
		c3.421,0.373,6.689,1.623,9.451,3.612l1.234,0.89l1.662-2.449l0.893,4.93l0.707,3.906l-4.518-0.239l-4.232-0.227l2.422-2.286
		l-1.576-1.022c-1.86-1.209-4.012-2.004-6.217-2.298"/>
</g>
<text transform="matrix(1 0 0 1 104.4895 1377.1733)" font-family="'MyriadPro-Regular'" font-size="12">Play</text>
<text transform="matrix(1 0 0 1 241.6394 844.8638)" font-family="'Calibri'" font-size="12">Home</text>
<text transform="matrix(1 0 0 1 365.3855 424.9858)" font-family="'Calibri'" font-size="12">Cloud Snow</text>
<g>
	<path d="M412.24,379.423c0-4.149-3.361-7.511-7.511-7.511c-0.699,0-1.371,0.103-2.011,0.281c-1.151-4.275-4.614-7.381-8.709-7.381
		c-4.247,0-7.806,3.343-8.818,7.863c-0.536-0.117-1.094-0.186-1.669-0.186c-4.146,0-7.51,3.233-7.51,7.223
		c0,3.987,3.363,7.221,7.51,7.221c0.321,0,0.634-0.025,0.943-0.063h19.339c0.304,0.037,0.61,0.063,0.925,0.063
		c0.318,0,0.629-0.027,0.938-0.065c1.166-0.009,2.237-0.422,3.079-1.106C410.844,384.43,412.24,382.091,412.24,379.423"/>
	<path d="M387.712,393.871h-3.015l2.131-2.131c0.245-0.245,0.245-0.643,0-0.888c-0.244-0.245-0.644-0.245-0.888,0l-2.131,2.132
		v-3.015c0-0.347-0.282-0.627-0.628-0.627c-0.348,0-0.628,0.281-0.628,0.627v3.015l-2.131-2.133
		c-0.245-0.244-0.644-0.244-0.89,0.001c-0.244,0.245-0.244,0.643,0,0.888l2.132,2.131h-3.014c-0.347,0-0.629,0.281-0.629,0.628
		s0.282,0.628,0.629,0.628h3.014l-2.132,2.13c-0.244,0.246-0.244,0.645,0,0.888c0.246,0.245,0.645,0.245,0.89,0l2.131-2.13v3.014
		c0,0.348,0.28,0.628,0.628,0.628c0.346,0,0.628-0.28,0.628-0.628v-3.014l2.131,2.13c0.244,0.245,0.644,0.245,0.888,0
		c0.245-0.243,0.245-0.644,0-0.888l-2.131-2.13h3.015c0.348,0,0.627-0.281,0.627-0.628S388.06,393.871,387.712,393.871"/>
	<path d="M398.656,399.028h-3.015l2.132-2.131c0.245-0.245,0.245-0.643,0-0.888c-0.245-0.245-0.644-0.245-0.888,0l-2.131,2.132
		v-3.015c0-0.346-0.282-0.628-0.629-0.628c-0.348,0-0.628,0.282-0.628,0.628v3.015l-2.131-2.132c-0.246-0.245-0.643-0.245-0.889,0
		c-0.244,0.246-0.244,0.643,0,0.888l2.132,2.131h-3.015c-0.347,0-0.628,0.28-0.628,0.628c0,0.347,0.281,0.628,0.628,0.628h3.015
		l-2.132,2.131c-0.244,0.245-0.244,0.643,0,0.888c0.246,0.245,0.643,0.245,0.889,0l2.131-2.131v3.014
		c0,0.348,0.28,0.629,0.628,0.629c0.347,0,0.629-0.281,0.629-0.629v-3.014l2.131,2.131c0.244,0.245,0.643,0.245,0.887,0
		c0.246-0.245,0.246-0.643,0.001-0.888l-2.132-2.131h3.015c0.348,0,0.627-0.281,0.627-0.628
		C399.282,399.309,399.003,399.028,398.656,399.028"/>
	<path d="M410.118,392.178h-3.015l2.131-2.131c0.246-0.244,0.246-0.642,0-0.886c-0.245-0.246-0.643-0.246-0.887,0l-2.132,2.13
		v-3.013c0-0.348-0.282-0.629-0.627-0.629c-0.35,0-0.628,0.281-0.628,0.629v3.013l-2.132-2.131
		c-0.245-0.245-0.643-0.245-0.889,0.001c-0.244,0.244-0.244,0.643,0,0.886l2.132,2.131h-3.015c-0.347,0-0.627,0.282-0.627,0.628
		c0,0.348,0.28,0.628,0.627,0.628h3.015l-2.132,2.131c-0.244,0.246-0.244,0.643,0,0.889c0.246,0.244,0.644,0.244,0.889,0
		l2.132-2.132v3.014c0,0.347,0.278,0.628,0.628,0.628c0.345,0,0.627-0.281,0.627-0.628v-3.014l2.132,2.132
		c0.244,0.244,0.642,0.244,0.887,0c0.246-0.246,0.246-0.644,0-0.889l-2.131-2.131h3.015c0.348,0,0.627-0.28,0.627-0.628
		C410.745,392.46,410.466,392.178,410.118,392.178"/>
</g>
<text transform="matrix(1 0 0 1 508.5901 424.9858)" font-family="'Calibri'" font-size="12">Cloud Rain</text>
<g>
	<path d="M554.652,381.705c0-4.58-3.715-8.292-8.295-8.292c-0.77,0-1.512,0.113-2.221,0.31c-1.271-4.72-5.095-8.147-9.615-8.147
		c-4.689,0-8.617,3.69-9.736,8.681c-0.592-0.129-1.207-0.205-1.84-0.205c-4.58,0-8.293,3.571-8.293,7.974
		c0,4.403,3.713,7.973,8.293,7.973c0.353,0,0.697-0.027,1.037-0.069h21.354c0.337,0.042,0.675,0.069,1.021,0.069
		c0.354,0,0.695-0.029,1.035-0.071c1.289-0.009,2.471-0.466,3.399-1.222C553.109,387.233,554.652,384.652,554.652,381.705"/>
	<path d="M532.418,395.335c0,1.208-0.979,2.188-2.188,2.188s-2.188-0.979-2.188-2.188s0.979-2.188,2.188-2.188
		S532.418,394.127,532.418,395.335"/>
	<path d="M540.807,395.335c0,1.208-0.979,2.188-2.188,2.188s-2.188-0.979-2.188-2.188s0.979-2.188,2.188-2.188
		S540.807,394.127,540.807,395.335"/>
	<path d="M548.723,395.335c0,1.208-0.979,2.188-2.188,2.188c-1.207,0-2.188-0.979-2.188-2.188s0.979-2.188,2.188-2.188
		C547.743,393.148,548.723,394.127,548.723,395.335"/>
	<path d="M545.182,401.863c0,1.208-0.979,2.187-2.188,2.187s-2.188-0.979-2.188-2.187s0.979-2.188,2.188-2.188
		S545.182,400.655,545.182,401.863"/>
	<path d="M536.84,401.863c0,1.208-0.98,2.187-2.188,2.187c-1.209,0-2.188-0.979-2.188-2.187s0.979-2.188,2.188-2.188
		C535.859,399.675,536.84,400.655,536.84,401.863"/>
</g>
<text transform="matrix(1 0 0 1 531.5393 1540.1001)" font-family="'Calibri'" font-size="12">Sun</text>
<g>
	<path d="M554.419,1494.675l2.831-1.588c0.998-0.561,1.355-1.822,0.796-2.819c-0.561-0.998-1.822-1.354-2.822-0.796l-2.869,1.609
		C553.199,1492.171,553.899,1493.378,554.419,1494.675"/>
	<path d="M540.601,1485.313c0.703,0,1.395,0.054,2.072,0.146v-3.338c0-1.146-0.927-2.073-2.072-2.073s-2.072,0.929-2.072,2.073
		v3.338C539.207,1485.366,539.897,1485.313,540.601,1485.313"/>
	<path d="M524.031,1492.896l2.814,1.621c0.535-1.291,1.248-2.489,2.104-3.567l-2.852-1.646c-0.992-0.569-2.26-0.229-2.83,0.762
		C522.698,1491.061,523.039,1492.327,524.031,1492.896"/>
	<path d="M531.601,1488.354c1.096-0.834,2.311-1.521,3.615-2.027l-1.642-2.898c-0.563-0.996-1.828-1.348-2.823-0.782
		c-0.996,0.564-1.349,1.827-0.783,2.823L531.601,1488.354z"/>
	<path d="M549.901,1488.587l1.705-2.842c0.59-0.98,0.271-2.254-0.711-2.842c-0.98-0.591-2.252-0.271-2.842,0.709l-1.713,2.853
		C547.63,1487.006,548.824,1487.724,549.901,1488.587"/>
	<path d="M525.718,1500.196c0-0.754,0.057-1.494,0.166-2.22h-3.209c-1.146,0-2.074,0.929-2.074,2.072
		c0,1.145,0.928,2.072,2.074,2.072h3.172C525.765,1501.491,525.718,1500.849,525.718,1500.196"/>
	<path d="M549.718,1511.948c-1.09,0.846-2.297,1.543-3.597,2.063l1.507,2.66c0.563,0.996,1.827,1.346,2.823,0.783
		c0.996-0.564,1.349-1.828,0.781-2.825L549.718,1511.948z"/>
	<path d="M526.69,1505.476l-2.738,1.535c-1,0.562-1.354,1.824-0.795,2.822c0.562,0.998,1.824,1.354,2.822,0.795l2.709-1.521
		C527.862,1508.005,527.188,1506.784,526.69,1505.476"/>
	<path d="M557.171,1507.2l-2.722-1.566c-0.512,1.303-1.203,2.515-2.043,3.607l2.695,1.553c0.992,0.57,2.258,0.229,2.83-0.762
		C558.503,1509.04,558.162,1507.771,557.171,1507.2"/>
	<path d="M558.528,1497.979h-3.211c0.109,0.725,0.168,1.465,0.168,2.219c0,0.651-0.047,1.295-0.131,1.926h3.174
		c1.146,0,2.072-0.928,2.072-2.072C560.6,1498.907,559.673,1497.979,558.528,1497.979"/>
	<path d="M540.601,1515.079c-0.703,0-1.394-0.053-2.072-0.148v3.048c0,1.145,0.928,2.071,2.072,2.071
		c1.146,0,2.072-0.928,2.072-2.071v-3.048C541.994,1515.026,541.304,1515.079,540.601,1515.079"/>
	<path d="M531.185,1511.71l-1.588,2.643c-0.59,0.982-0.271,2.255,0.709,2.845c0.981,0.59,2.256,0.271,2.844-0.709l1.574-2.621
		C533.44,1513.313,532.248,1512.585,531.185,1511.71"/>
	<path d="M553.224,1500.196c0,6.971-5.652,12.621-12.623,12.621s-12.621-5.65-12.621-12.621c0-6.972,5.65-12.623,12.621-12.623
		S553.224,1493.226,553.224,1500.196"/>
</g>
<g>
	<path d="M410.934,514.388c0.568-0.298,0.787-1.003,0.488-1.571c-0.3-0.569-1.002-0.787-1.572-0.488l-1.635,0.859
		c0.459,0.625,0.831,1.313,1.104,2.051L410.934,514.388z"/>
	<path d="M402.864,509.883l0.051-1.875c0.019-0.642-0.487-1.178-1.132-1.195c-0.643-0.019-1.178,0.489-1.194,1.134l-0.052,1.874
		c0.384-0.043,0.771-0.063,1.165-0.053C402.098,509.779,402.485,509.82,402.864,509.883"/>
	<path d="M396.603,511.339c0.629-0.452,1.32-0.817,2.061-1.083l-0.877-1.653c-0.301-0.567-1.006-0.783-1.573-0.481
		c-0.567,0.301-0.784,1.005-0.483,1.574L396.603,511.339z"/>
	<path d="M407.876,510.18c0.347-0.542,0.187-1.262-0.354-1.606c-0.544-0.347-1.262-0.188-1.608,0.354l-1.006,1.575
		c0.716,0.324,1.377,0.745,1.968,1.246L407.876,510.18z"/>
	<path d="M411.576,517.153l-1.804-0.05c0.051,0.409,0.072,0.825,0.062,1.25c-0.013,0.365-0.048,0.726-0.104,1.078l1.782,0.05
		c0.643,0.018,1.178-0.489,1.194-1.133C412.727,517.706,412.22,517.171,411.576,517.153"/>
	<path d="M392.026,513.537c0.202-0.014,0.404-0.026,0.609-0.026c0.6,0,1.186,0.067,1.758,0.185c0.207-0.329,0.435-0.643,0.684-0.938
		l-1.576-0.966c-0.548-0.336-1.266-0.164-1.601,0.384C391.627,512.619,391.7,513.164,392.026,513.537z"/>
	<path d="M410.674,522.313l-1.506-0.922c-0.188,0.442-0.424,0.856-0.682,1.256c0.492,0.527,0.92,1.115,1.264,1.758
		c0.488,0.141,1.028-0.035,1.308-0.491C411.393,523.365,411.221,522.646,410.674,522.313z"/>
	<path d="M401.546,520.065c0.303-0.034,0.606-0.053,0.907-0.053c1.922,0,3.688,0.665,5.094,1.769c0.61-1.015,0.98-2.193,1.016-3.462
		c0.105-3.915-2.979-7.175-6.895-7.28c-2.469-0.067-4.675,1.137-5.995,3.017C398.277,515.01,400.423,517.166,401.546,520.065z"/>
	<path d="M409.336,528.276c0-3.801-3.081-6.882-6.883-6.882c-0.638,0-1.255,0.096-1.841,0.259c-1.055-3.915-4.227-6.761-7.979-6.761
		c-3.892,0-7.146,3.063-8.076,7.202c-0.492-0.106-1.003-0.169-1.528-0.169c-3.799,0-6.878,2.961-6.878,6.614
		s3.079,6.615,6.878,6.615c0.294,0,0.579-0.025,0.862-0.06h17.715c0.279,0.034,0.562,0.06,0.847,0.06
		c0.293,0,0.578-0.025,0.858-0.061c1.07-0.009,2.051-0.387,2.822-1.015C408.057,532.862,409.336,530.721,409.336,528.276"/>
	<path d="M390.892,539.583c0,1.002-0.813,1.814-1.815,1.814s-1.813-0.813-1.813-1.814s0.813-1.815,1.813-1.815
		S390.892,538.582,390.892,539.583"/>
	<path d="M397.85,539.583c0,1.002-0.813,1.814-1.816,1.814c-1.001,0-1.813-0.813-1.813-1.814s0.813-1.815,1.813-1.815
		C397.035,537.768,397.85,538.582,397.85,539.583"/>
	<path d="M404.416,539.583c0,1.002-0.813,1.814-1.815,1.814c-1.001,0-1.813-0.813-1.813-1.814s0.813-1.815,1.813-1.815
		C403.604,537.768,404.416,538.582,404.416,539.583"/>
	<path d="M401.479,544.999c0,1.002-0.813,1.814-1.816,1.814c-1.001,0-1.813-0.813-1.813-1.814s0.813-1.814,1.813-1.814
		C400.665,543.184,401.479,543.997,401.479,544.999"/>
	<path d="M394.559,544.999c0,1.002-0.813,1.814-1.814,1.814c-1.003,0-1.814-0.813-1.814-1.814s0.813-1.814,1.814-1.814
		C393.744,543.184,394.559,543.997,394.559,544.999"/>
</g>
<g>
	<path d="M551.761,516.067c0.682-0.357,0.942-1.203,0.586-1.888c-0.359-0.683-1.203-0.943-1.888-0.586l-1.963,1.033
		c0.552,0.748,0.998,1.574,1.324,2.459L551.761,516.067z"/>
	<path d="M542.076,510.662l0.062-2.249c0.021-0.771-0.586-1.414-1.357-1.436c-0.771-0.021-1.414,0.589-1.436,1.359l-0.062,2.249
		c0.459-0.052,0.927-0.074,1.398-0.062C541.156,510.537,541.621,510.585,542.076,510.662"/>
	<path d="M534.563,512.409c0.754-0.542,1.584-0.982,2.473-1.3l-1.053-1.983c-0.361-0.683-1.207-0.941-1.889-0.579
		c-0.683,0.361-0.941,1.206-0.58,1.889L534.563,512.409z"/>
	<path d="M548.091,511.018c0.416-0.649,0.225-1.515-0.427-1.929c-0.651-0.415-1.514-0.224-1.93,0.426l-1.207,1.892
		c0.859,0.389,1.652,0.893,2.361,1.495L548.091,511.018z"/>
	<path d="M552.531,519.385l-2.164-0.059c0.062,0.49,0.086,0.99,0.072,1.498c-0.014,0.438-0.057,0.871-0.123,1.296l2.139,0.059
		c0.771,0.021,1.414-0.588,1.435-1.357C553.91,520.048,553.304,519.407,552.531,519.385"/>
	<path d="M529.802,515.014c0.72,0,1.423,0.081,2.108,0.221c0.248-0.396,0.522-0.771,0.82-1.125l-1.893-1.159
		c-0.656-0.404-1.519-0.197-1.92,0.461c-0.324,0.53-0.248,1.187,0.136,1.635C529.302,515.029,529.551,515.014,529.802,515.014z"/>
	<path d="M540.494,522.879c0.363-0.041,0.729-0.063,1.091-0.063c2.306,0,4.425,0.797,6.109,2.122
		c0.734-1.218,1.179-2.633,1.22-4.155c0.127-4.697-3.573-8.609-8.272-8.737c-2.962-0.08-5.608,1.366-7.194,3.621
		C536.573,516.813,539.148,519.4,540.494,522.879z"/>
	<path d="M551.448,525.576l-1.807-1.104c-0.225,0.53-0.508,1.027-0.817,1.506c0.598,0.64,1.113,1.353,1.525,2.132
		c0.584,0.159,1.228-0.068,1.56-0.612C552.312,526.839,552.104,525.979,551.448,525.576z"/>
	<path d="M549.843,532.732c0-4.561-3.697-8.257-8.258-8.257c-0.767,0-1.507,0.113-2.209,0.31c-1.267-4.698-5.072-8.111-9.574-8.111
		c-4.668,0-8.576,3.675-9.691,8.644c-0.59-0.13-1.203-0.203-1.834-0.203c-4.559,0-8.254,3.554-8.254,7.937
		c0,4.384,3.695,7.938,8.254,7.938c0.354,0,0.695-0.028,1.035-0.069h21.258c0.334,0.041,0.672,0.069,1.017,0.069
		c0.352,0,0.692-0.028,1.028-0.071c1.285-0.01,2.461-0.464,3.388-1.217C548.308,538.236,549.843,535.667,549.843,532.732"/>
</g>
<text transform="matrix(1 0 0 1 639.1682 424.9858)" font-family="'Calibri'" font-size="12">Cloud Thunder</text>
<g>
	<path d="M686.885,374.024c-0.771,0-1.515,0.114-2.222,0.311c-1.27-4.72-5.094-8.148-9.614-8.148c-4.689,0-8.617,3.691-9.736,8.682
		c-0.592-0.13-1.207-0.204-1.84-0.204c-4.58,0-8.293,3.569-8.293,7.974c0,4.403,3.713,7.973,8.293,7.973
		c0.352,0,0.697-0.027,1.037-0.069h3.151l-3.731-3.71h6.723l-3.715-6.223h11.32l5.84,9.933h1.768
		c0.334,0.042,0.674,0.069,1.021,0.069c0.352,0,0.694-0.029,1.035-0.072c1.288-0.01,2.471-0.465,3.399-1.221
		c2.316-1.472,3.859-4.053,3.859-7C695.18,377.737,691.465,374.024,686.885,374.024z"/>
	<polygon points="677.305,382.275 669.872,382.275 673.59,388.497 667.973,388.497 683.01,403.44 677.479,392.858 683.527,392.858 	
		"/>
</g>
<text transform="matrix(1 0 0 1 385.7517 1127.3491)" font-family="'Calibri'" font-size="12">Moon</text>
<g>
	<path d="M404.737,1080.768c0-5.961-2.621-11.299-6.76-14.963c0.254-0.01,0.504-0.037,0.76-0.037c11.047,0,20,8.955,20,20
		s-8.953,20-20,20c-5.086,0-9.711-1.914-13.24-5.039C396.188,1100.327,404.737,1091.557,404.737,1080.768z"/>
	<polygon points="381.989,1082.319 384.362,1082.01 385.964,1083.792 386.403,1081.438 388.591,1080.465 386.487,1079.319 
		386.239,1076.938 384.501,1078.584 382.158,1078.084 383.187,1080.247 	"/>
	<polygon points="390.321,1087.206 393.382,1086.807 395.444,1089.1 396.009,1086.067 398.83,1084.817 396.121,1083.34 
		395.802,1080.271 393.56,1082.391 390.541,1081.747 391.867,1084.536 	"/>
</g>
<g>
	<path d="M690.645,542.396c-1.877,0.541-9.639,0.253-16.178-15.055c-6.89-16.121-1.377-22.386,0.453-23.097l4.418,10.705
		c-1.494,0.616-1.123,2.365-0.08,5.86c0.688,2.313,1.76,5.089,3.178,7.701c0.996,1.833,2.125,3.557,3.689,2.91L690.645,542.396z"/>
	<path d="M678.762,502.635c0.692-0.284,1.422,0.076,1.682,0.705l0.008,0.003c0,0,3.438,8.345,3.439,8.351
		c0.273,0.662-0.047,1.404-0.699,1.675l-3.031,1.251l-4.43-10.731c0,0,3.023-1.253,3.025-1.251L678.762,502.635z"/>
	<path d="M689.986,529.829c0.691-0.286,1.42,0.073,1.681,0.704l0.008,0.003c0,0,3.539,8.586,3.539,8.591
		c0.272,0.662-0.047,1.405-0.699,1.673l-3.031,1.252l-4.527-10.973c0,0,3.021-1.253,3.023-1.25H689.986z"/>
</g>
<text transform="matrix(1 0 0 1 229.4573 1673.73)" font-family="'MyriadPro-Regular'" font-size="12">Sale Tag</text>
<g>
	<path d="M246.355,1614.189l-8.811-1.245l-7.176,6.582l0.48,8.885l-0.056,0.051l22.453,24.482l15.617-14.322l-22.453-24.482
		L246.355,1614.189z M239.136,1621.881c-1.224,1.122-3.127,1.04-4.249-0.185c-1.123-1.226-1.039-3.125,0.185-4.248
		c1.226-1.123,3.124-1.041,4.247,0.184C240.44,1618.855,240.361,1620.757,239.136,1621.881z"/>
	<path d="M238.369,1618.503c0.641,0.699,0.596,1.787-0.104,2.428c-0.699,0.644-1.786,0.595-2.428-0.104
		c-0.644-0.701-0.595-1.785,0.104-2.426C236.642,1617.757,237.727,1617.804,238.369,1618.503"/>
</g>
<text transform="matrix(1 0 0 1 383.1282 694.6753)" font-family="'MyriadPro-Regular'" font-size="12">Flight</text>
<path d="M378.332,638.47c-2.646-2.646,1.017-6.106,3.628-3.494l9.653,9.651l22.115-5.845l3.686,3.688l-18.225,9.599l7.371,7.372
	l5.729-0.703l2.916,2.914l-6.502,3.421l-3.418,6.501l-2.914-2.916l0.668-5.697l-7.368-7.372l-9.396,18.107l-3.686-3.688
	l5.596-21.665L378.332,638.47z"/>
<text transform="matrix(1 0 0 1 99.8533 1540.5698)" font-family="'MyriadPro-Regular'" font-size="12">Redo</text>
<path d="M125.961,1495.179c-0.854-1.926-2.047-3.701-3.584-5.233c-3.271-3.275-7.625-5.078-12.256-5.078
	c-4.633,0-8.982,1.803-12.254,5.078c-3.273,3.272-5.078,7.623-5.078,12.254s1.805,8.981,5.078,12.256
	c0.521,0.521,1.202,0.781,1.885,0.781c0.682,0,1.367-0.261,1.888-0.781c1.038-1.041,1.038-2.729-0.001-3.771
	c-2.27-2.266-3.518-5.276-3.518-8.483c0-3.205,1.248-6.22,3.519-8.484c2.265-2.27,5.276-3.516,8.481-3.516
	c3.207,0,6.219,1.246,8.483,3.516c1.681,1.681,2.795,3.775,3.265,6.051l-5.747,6.437h16.667l-1.332-17.178L125.961,1495.179z"/>
<text transform="matrix(1 0 0 1 98.8123 1813.8569)" font-family="'MyriadPro-Regular'" font-size="12">undo</text>
<path d="M98.956,1768.198c0.852-1.924,2.045-3.699,3.582-5.234c3.271-3.271,7.625-5.078,12.256-5.078
	c4.633,0,8.983,1.807,12.256,5.078c3.272,3.273,5.076,7.625,5.076,12.256s-1.804,8.982-5.076,12.256
	c-0.521,0.521-1.205,0.779-1.887,0.779c-0.683,0-1.367-0.26-1.89-0.779c-1.037-1.043-1.037-2.729,0.004-3.77
	c2.269-2.266,3.517-5.279,3.517-8.484s-1.248-6.219-3.521-8.484c-2.262-2.27-5.274-3.516-8.479-3.516
	c-3.207,0-6.219,1.246-8.484,3.516c-1.68,1.68-2.795,3.773-3.264,6.049l5.748,6.436H92.126l1.332-17.176L98.956,1768.198z"/>
<text transform="matrix(1 0 0 1 230.176 1540.5698)" font-family="'MyriadPro-Regular'" font-size="12">Refresh</text>
<path d="M251.832,1483.081c-8.044,0-14.783,5.634-16.521,13.156l-6.512-0.076l8.816,14.24l9.149-14.025l-6.046-0.072
	c1.575-4.655,5.933-8.032,11.111-8.032c6.493,0,11.778,5.282,11.778,11.776c0,6.498-5.285,11.781-11.778,11.781
	c-2.402,0-4.635-0.729-6.497-1.967l-2.834,4.344c2.679,1.772,5.884,2.811,9.331,2.811c9.354,0,16.968-7.608,16.968-16.969
	C268.8,1490.694,261.188,1483.081,251.832,1483.081z"/>
<text transform="matrix(1 0 0 1 102.7981 1673.147)" font-family="'MyriadPro-Regular'" font-size="12">Sync</text>
<g>
	<path d="M120.791,1613.688c-2.328-0.993-4.894-1.545-7.584-1.543c-4.283-0.002-8.242,1.396-11.447,3.752l-1.924-2.776
		c-0.113-0.163-0.312-0.24-0.504-0.197c-0.193,0.043-0.34,0.197-0.375,0.394l-1.111,6.506l-0.783,4.59
		c-0.024,0.146,0.017,0.296,0.117,0.406c0.092,0.104,0.225,0.161,0.361,0.161c0.01,0,0.021-0.001,0.03-0.001l5.146-0.326
		l5.795-0.364c0.193-0.013,0.361-0.14,0.426-0.323c0.066-0.184,0.017-0.388-0.129-0.52l-2.414-2.231
		c1.953-1.296,4.291-2.051,6.812-2.052c1.768,0,3.444,0.375,4.967,1.044c0.119,0.053,0.258,0.055,0.379,0.005
		c0.121-0.051,0.219-0.147,0.268-0.271l2.232-5.626C121.15,1614.067,121.035,1613.791,120.791,1613.688z"/>
	<path d="M93.479,1633.14c0.228,2.522,0.955,5.042,2.229,7.412c2.024,3.773,5.127,6.603,8.721,8.313l-1.535,3.008
		c-0.092,0.177-0.065,0.389,0.064,0.538c0.129,0.148,0.334,0.206,0.521,0.144l6.258-2.099l4.416-1.479
		c0.142-0.049,0.252-0.155,0.304-0.297c0.047-0.131,0.035-0.273-0.029-0.396c-0.006-0.009-0.01-0.019-0.016-0.026l-2.722-4.381
		l-3.063-4.932c-0.104-0.165-0.293-0.253-0.486-0.225c-0.19,0.029-0.348,0.17-0.396,0.359l-0.822,3.184
		c-2.066-1.106-3.838-2.812-5.031-5.03c-0.836-1.558-1.299-3.212-1.43-4.868c-0.01-0.131-0.074-0.254-0.176-0.338
		c-0.101-0.083-0.232-0.122-0.363-0.107l-6.014,0.694C93.645,1632.645,93.455,1632.877,93.479,1633.14z"/>
	<path d="M123.66,1647.36c2.069-1.459,3.889-3.351,5.303-5.639c2.254-3.642,3.149-7.743,2.834-11.708l3.371-0.177
		c0.199-0.01,0.369-0.138,0.434-0.325c0.066-0.187,0.012-0.393-0.137-0.523l-4.947-4.368l-3.49-3.082
		c-0.112-0.099-0.262-0.142-0.407-0.113c-0.138,0.023-0.257,0.105-0.328,0.224c-0.006,0.009-0.01,0.018-0.017,0.025l-2.432,4.547
		l-2.736,5.121c-0.092,0.173-0.071,0.381,0.052,0.533c0.12,0.15,0.319,0.217,0.508,0.164l3.17-0.88
		c0.074,2.342-0.514,4.729-1.84,6.872c-0.931,1.503-2.131,2.731-3.5,3.674c-0.107,0.073-0.183,0.189-0.205,0.319
		c-0.021,0.129,0.012,0.265,0.09,0.369l3.609,4.858C123.148,1647.465,123.445,1647.512,123.66,1647.36z"/>
</g>
<g>
	<path d="M105.301,541.94c-0.82-0.644-1.307-1.441-1.307-2.308c0-2.121,2.926-3.842,6.534-3.842c3.607,0,6.535,1.721,6.535,3.842
		c0,0.412-0.11,0.81-0.315,1.18c-0.439,2.394-3.705,4.845-3.705,4.845c-5.303,4.506-0.797,7.155-0.797,7.155
		c-9.808-2.387-6.263-7.504-6.892-10.604C105.336,542.118,105.318,542.03,105.301,541.94z"/>
	<path d="M132.357,526.889c0-3.996-3.239-7.235-7.237-7.235c-0.673,0-1.318,0.098-1.938,0.269c-1.109-4.119-4.445-7.109-8.391-7.109
		c-4.095,0-7.521,3.222-8.498,7.576c-0.519-0.112-1.056-0.18-1.607-0.18c-3.996,0-7.235,3.117-7.235,6.959
		c0,3.844,3.239,6.959,7.235,6.959c0.31,0,0.609-0.025,0.906-0.061h18.637c0.295,0.034,0.59,0.061,0.892,0.061
		c0.309,0,0.606-0.025,0.903-0.063c1.125-0.008,2.156-0.405,2.967-1.065C131.012,531.715,132.357,529.461,132.357,526.889"/>
</g>
<g>
	<path d="M269.093,523.306c0-3.832-3.107-6.938-6.938-6.938c-0.645,0-1.266,0.095-1.856,0.26c-1.064-3.948-4.262-6.814-8.043-6.814
		c-3.924,0-7.209,3.087-8.146,7.262c-0.496-0.109-1.012-0.171-1.541-0.171c-3.83,0-6.936,2.985-6.936,6.67
		c0,3.682,3.104,6.669,6.936,6.669c0.295,0,0.584-0.023,0.869-0.058h17.863c0.281,0.033,0.563,0.058,0.854,0.058
		c0.296,0,0.58-0.024,0.865-0.062c1.078-0.007,2.066-0.389,2.844-1.021C267.802,527.93,269.093,525.771,269.093,523.306"/>
	<path d="M265.108,530.725c0,0-4.459,2.486-24.596,1.071c0,0,0.469,6.87,10.742,17.223c0,0,1.738,1.909,2.145-0.193
		c0,0-3.532-5.538,1.871-8.424C255.271,540.401,264.183,535.183,265.108,530.725z"/>
</g>
<text transform="matrix(1 0 0 1 638.3362 270.0132)" font-family="'MyriadPro-Regular'" font-size="12">Bookmark</text>
<path d="M677.121,249.667v-34.575c0,0-0.883-5.299-6.561-5.425h-19.938c0,0,5.174,0.63,5.805,5.425v34.575l10.369-10.095
	L677.121,249.667z"/>
<text transform="matrix(1 0 0 1 365.3899 1540.5698)" font-family="'MyriadPro-Regular'" font-size="12">Right Arrow</text>
<path d="M415.21,1500.804l-12.67-12.733v5.985c-25.344,0-27.33,14.982-27.33,17.974c5.466-11.978,27.33-5.99,27.33-5.99v5.99
	L415.21,1500.804z"/>
<text transform="matrix(1 0 0 1 387.3684 982.3901)" font-family="'Calibri'" font-size="12">Mail</text>
<text transform="matrix(1 0 0 1 232.0334 982.8589)" font-family="'MyriadPro-Regular'" font-size="12">Left Arrow</text>
<path d="M238.073,942.179l12.669-12.733v5.985c25.344,0,27.331,14.982,27.331,17.974c-5.467-11.979-27.331-5.99-27.331-5.99v5.99
	L238.073,942.179z"/>
<text transform="matrix(1 0 0 1 220.929 270.0132)" font-family="'MyriadPro-Regular'" font-size="12">Attachment</text>
<path d="M247.304,241.706l1.805-0.617l-7.953-23.209c0,0-1.704-3.936,2.957-6.045c0,0,4.509-1.734,6.513,3.025l9.94,29.01
	c0,0,0.322,3.006-2.481,3.644c0,0-1.349,0.673-3.668-1.043l-4.578-13.356l-3.769-10.992c0,0-0.057-1.565,0.988-2.017
	c0.523-0.224,1.478-0.295,2.01,1.102l6.789,19.806l1.939-0.664l-6.926-20.209c0,0-1.119-2.814-4.298-1.769
	c-1.106,0.365-2.709,1.029-2.442,3.968l8.486,24.75c0,0,1.938,3.312,6.153,2.43c0,0,3.836-1.005,3.646-5.789l-10.265-29.953
	c0,0-1.942-5.663-8.475-3.691c0,0-5.527,1.434-4.533,7.817L247.304,241.706z"/>
<text transform="matrix(1 0 0 1 531.1057 845.3325)" font-family="'MyriadPro-Regular'" font-size="12">Lock</text>
<path d="M556.197,798.704h-1.268c0-6.799-5.511-12.308-12.306-12.308c-6.798,0-12.305,5.509-12.305,12.308h-1.1
	c-1.036,0-1.875,0.842-1.875,1.877v18.936c0,1.037,0.839,1.882,1.875,1.882h26.977c1.037,0,1.874-0.845,1.874-1.882v-18.936
	C558.071,799.545,557.234,798.704,556.197,798.704z M543.64,812.958v4.42c0,0.469-0.455,0.844-1.015,0.844
	c-0.563,0-1.02-0.375-1.02-0.844v-4.42c-0.604-0.352-1.016-1.008-1.016-1.762c0-1.121,0.912-2.029,2.033-2.029
	s2.03,0.908,2.03,2.029C544.655,811.95,544.246,812.606,543.64,812.958z M533.19,798.704c0-5.213,4.225-9.435,9.436-9.435
	c5.209,0,9.434,4.222,9.434,9.435H533.19z"/>
<text transform="matrix(1 0 0 1 243.1174 1247.8804)" font-family="'Calibri'" font-size="12">Place</text>
<path d="M255.991,1188.155c-5.5,0-13.75,2.5-13.75,12.5c0,5,11,22.5,13.75,27.5c2.75-5,13.75-22.5,13.75-27.5
	C269.741,1190.655,261.491,1188.155,255.991,1188.155z M255.991,1205.03c-2.416,0-4.375-1.959-4.375-4.375s1.959-4.375,4.375-4.375
	c2.413,0,4.375,1.959,4.375,4.375S258.405,1205.03,255.991,1205.03z"/>
<text transform="matrix(1 0 0 1 385.4031 1248.4575)" font-family="'MyriadPro-Regular'" font-size="12">Pause</text>
<text transform="matrix(1 0 0 1 81.8318 1248.9575)" font-family="'MyriadPro-Regular'" font-size="12">Phone Book</text>
<text transform="matrix(1 0 0 1 662.4827 1248.4575)" font-family="'MyriadPro-Regular'" font-size="12">Properties</text>
<text transform="matrix(1 0 0 1 528.428 1248.4575)" font-family="'MyriadPro-Regular'" font-size="12">Power</text>
<text transform="matrix(1 0 0 1 104.7815 425.1606)" font-family="'MyriadPro-Regular'" font-size="12">Car</text>
<text transform="matrix(1 0 0 1 104.7815 425.1606)" font-family="'MyriadPro-Regular'" font-size="12">Car</text>
<text transform="matrix(1 0 0 1 389.7903 844.8638)" font-family="'Calibri'" font-size="12">Into</text>
<text transform="matrix(1 0 0 1 516.9866 983.8022)" fill="#231F20" font-family="'Calibri'" font-size="12">Media Fast </text>
<text transform="matrix(1 0 0 1 524.7854 998.2026)" fill="#231F20" font-family="'Calibri'" font-size="12">Forward</text>
<text transform="matrix(1 0 0 1 658.3381 983.8022)" fill="#231F20" font-family="'Calibri'" font-size="12">Media Fast </text>
<text transform="matrix(1 0 0 1 662.7483 998.2026)" fill="#231F20" font-family="'Calibri'" font-size="12">Backward</text>
<text transform="matrix(1 0 0 1 214.8333 1376.7036)" font-family="'Calibri'" font-size="12">Question Mark</text>
<g>
	<path d="M255.396,1345.835h-6.889c-0.019-0.991-0.025-1.594-0.025-1.812c0-2.231,0.369-4.067,1.105-5.509
		c0.74-1.439,2.215-3.062,4.432-4.86c2.213-1.802,3.535-2.98,3.969-3.539c0.666-0.882,1-1.854,1-2.916
		c0-1.479-0.59-2.742-1.77-3.795c-1.18-1.054-2.77-1.58-4.768-1.58c-1.929,0-3.539,0.549-4.834,1.646
		c-1.298,1.099-2.188,2.772-2.675,5.023l-6.969-0.864c0.197-3.224,1.572-5.961,4.119-8.211c2.549-2.25,5.891-3.376,10.033-3.376
		c4.356,0,7.824,1.14,10.397,3.417c2.576,2.276,3.863,4.929,3.863,7.953c0,1.676-0.475,3.26-1.418,4.754
		c-0.945,1.494-2.967,3.529-6.064,6.104c-1.604,1.333-2.598,2.404-2.983,3.214C255.534,1342.296,255.358,1343.745,255.396,1345.835z
		 M248.507,1356.044v-7.59h7.59v7.59H248.507z"/>
</g>
<g>
	<text transform="matrix(1 0 0 1 504.6174 564.0396)" font-family="'MyriadPro-Regular'" font-size="12">cloud  sun</text>
</g>
<g>
	<text transform="matrix(1 0 0 1 360.1169 564.0396)" font-family="'MyriadPro-Regular'" font-size="12">cloud  overcast</text>
</g>
<g>
	<polygon points="259.688,1779.784 259.688,1787.872 226.365,1787.872 226.365,1779.784 223.007,1779.784 223.007,1791.192 
		263.007,1791.192 263.007,1779.784 	"/>
	<polygon points="253.256,1764.758 253.329,1764.684 244.954,1756.311 243.007,1754.362 232.685,1764.684 232.759,1764.758 
		236.506,1764.758 241.63,1759.633 241.63,1778.096 244.382,1778.096 244.382,1759.633 249.507,1764.758 	"/>
</g>
<path d="M410.977,1771.116l-9.326,5.385v-5.877h-7.989c3.217-0.42,5.701-3.164,5.701-6.494c0-3.619-2.935-6.555-6.555-6.555
	c-2.875,0-5.313,1.854-6.195,4.428c-0.901-2.543-3.321-4.367-6.173-4.367c-3.621,0-6.555,2.938-6.555,6.557
	c0,3.188,2.278,5.846,5.296,6.432h-8.203v15.707h30.673v-5.416l9.326,5.385V1771.116L410.977,1771.116z M386.635,1766.319
	c0.81,2.283,2.845,3.98,5.317,4.305h-10.254C384.01,1770.172,385.883,1768.506,386.635,1766.319z"/>
<path d="M692.274,1787.37l-9.64-12.252c3.137-4.369,3.166-10.445-0.326-14.885c-4.232-5.381-12.025-6.311-17.407-2.076
	c-5.382,4.232-6.311,12.025-2.078,17.408c3.542,4.498,9.567,5.873,14.596,3.729l9.604,12.207L692.274,1787.37z M666.806,1772.432
	c-2.503-3.182-1.952-7.791,1.229-10.295c3.183-2.502,7.789-1.951,10.291,1.23c2.505,3.182,1.954,7.789-1.228,10.293
	C673.916,1776.163,669.309,1775.614,666.806,1772.432z"/>
<path d="M532.885,1777.961c3.294,0,5.964-2.67,5.964-5.963v-13.145c0-3.295-2.67-5.965-5.964-5.965s-5.964,2.67-5.964,5.965v13.145
	C526.921,1775.292,529.591,1777.961,532.885,1777.961z M545.782,1773.297h-2.799c-0.373,5.256-4.75,9.4-10.1,9.4
	s-9.729-4.146-10.102-9.4h-2.798c0,6.57,4.914,11.979,11.262,12.785v3.586h-4.398v3.221h12.041v-3.221h-4.368v-3.586
	C540.868,1785.276,545.782,1779.868,545.782,1773.297z"/>
<polygon points="394.111,1611.538 399.158,1627.071 415.491,1627.071 402.278,1636.672 407.324,1652.206 394.111,1642.605 
	380.897,1652.206 385.944,1636.672 372.73,1627.071 389.063,1627.071 "/>
<path d="M236.977,649.904l3.427,19.438h33.333l3.24-19.438H236.977z M240.418,646.835h33.312v-4.904h-19.889v-4.071h-13.438v4.444
	h0.016V646.835z"/>
<g>
	<polygon points="398.111,944.822 389.303,935.98 380.488,927.143 398.111,927.143 415.732,927.143 406.92,935.98 	"/>
	<polygon points="408.592,939.449 398.079,949.758 387.57,939.449 378.137,930.205 378.111,930.205 378.111,956.455 
		418.111,956.455 418.111,930.205 418.025,930.205 	"/>
</g>
<g>
	<polygon points="130.188,660.949 130.188,669.038 96.865,669.038 96.865,660.949 93.507,660.949 93.507,672.357 133.507,672.357 
		133.507,660.949 	"/>
	<polygon points="103.259,648.866 103.185,648.941 111.56,657.315 113.508,659.262 123.829,648.941 123.756,648.866 
		120.009,648.866 114.884,653.99 114.884,635.529 112.131,635.529 112.131,653.99 107.006,648.866 	"/>
</g>
<g>
	<rect x="527.659" y="657.58" width="5.863" height="10.75"/>
	<rect x="550.659" y="657.58" width="5.863" height="10.75"/>
	<path d="M541.638,637.731c-10.937,0-19.5,8.783-19.5,20v5.255h2.666v-5.255c0-9.719,7.396-17.333,16.834-17.333
		c9.666,0,17.832,7.938,17.832,17.333v5.255h2.668v-5.255C562.138,646.893,552.748,637.731,541.638,637.731z"/>
</g>
<path d="M242.022,805.951v14.624h9.597v-12.344h9.027v12.391h9.186v-14.764l-13.7-12.203L242.022,805.951z M269.805,796.958v-8.197
	h-4.374v4.325l-9.354-8.283l-0.029-0.031l-19.995,17.7l2.708,3.059l17.283-15.3l17.3,15.314l2.708-3.057L269.805,796.958z"/>
<polygon points="556.913,925.21 556.913,939.117 550.787,935.58 539.684,929.169 539.684,937.456 536.435,935.58 525.329,929.169 
	525.329,954.813 536.435,948.402 539.684,946.526 539.684,954.813 550.787,948.402 556.913,944.865 556.913,958.771 
	565.352,958.771 565.352,925.21 "/>
<polygon points="556.913,925.21 556.913,939.117 550.787,935.58 539.684,929.169 539.684,937.456 536.435,935.58 525.329,929.169 
	525.329,954.813 536.435,948.402 539.684,946.526 539.684,954.813 550.787,948.402 556.913,944.865 556.913,958.771 
	565.352,958.771 565.352,925.21 "/>
<polygon points="675.102,924.877 675.102,938.784 681.228,935.247 692.331,928.836 692.331,937.123 695.58,935.247 706.686,928.836 
	706.686,954.48 695.58,948.069 692.331,946.193 692.331,954.48 681.228,948.069 675.102,944.532 675.102,958.439 666.663,958.439 
	666.663,924.877 "/>
<path d="M97,1190.403v6h6v6h-6v10h6v7h-6v6h34v-35H97z M130,1223.403h-25v-31h25V1223.403z"/>
<path d="M118.05,1202.534l0.508-4.578c0,0-1.522-2.037-4.07-0.637c0,0-4.198,3.436-1.907,11.83c0,0,1.844,6.998,8.459,9.159
	c0,0,0.848,0.146,1.676-0.413c0.514-0.351,1.021-0.97,1.313-2.066l-2.989-3.498c0,0-1.64,0.891-3.076,0.508
	c0,0-4.619-5.66-2.459-9.668C115.503,1203.171,117.413,1203.171,118.05,1202.534"/>
<rect x="91.358" y="1197.538" width="9.75" height="3.416"/>
<rect x="91.464" y="1214.392" width="9.75" height="3.416"/>
<rect x="230.885" y="1082.123" width="40" height="6.666"/>
<polygon points="702,1082.403 686,1082.403 686,1066.403 679,1066.403 679,1082.403 664,1082.403 664,1089.403 679,1089.403 
	679,1104.403 686,1104.403 686,1089.403 702,1089.403 "/>
<g>
	<rect x="382.893" y="1190.588" width="12.78" height="36.482"/>
	<rect x="403.342" y="1190.588" width="12.779" height="36.482"/>
</g>
<polygon points="130.098,1336.412 116.394,1346.412 102.689,1356.412 102.689,1336.412 102.689,1316.412 116.394,1326.412 "/>
<path d="M674.743,1482.84h-4.484v9.151h4.484V1482.84z M690.355,1482.799v10.986h-23.485v-10.986h-5.925v35.938h35.551v-35.938
	H690.355z M690.355,1514.149h-23.328v-3.634h23.328V1514.149z"/>
<g>
	
		<rect x="662.625" y="1631.403" transform="matrix(-0.7071 0.7071 -0.7071 -0.7071 2320.8657 2309.4736)" width="39" height="8.001"/>
	
		<rect x="661.265" y="1632.026" transform="matrix(-0.6532 0.7572 -0.7572 -0.6532 2343.6348 2211.9263)" width="8" height="21.305"/>
</g>
<polygon points="397.375,1350.705 403.938,1350.705 414.762,1339.88 418.045,1336.596 403.904,1322.455 397.392,1322.455 
	397.365,1322.482 409.158,1334.278 378.044,1334.278 378.044,1338.917 409.158,1338.917 "/>
<g>
	<path d="M562.759,1209.549c0-7.626-4.558-14.163-11.095-17.087v6.854c3.13,2.334,5.181,6.026,5.188,10.232
		c-0.021,7.069-5.734,12.798-12.807,12.809c-7.074-0.011-12.798-5.738-12.808-12.809c0-4.206,2.062-7.898,5.187-10.232v-6.859
		c-6.537,2.924-11.101,9.465-11.101,17.093c0,10.341,8.379,18.714,18.722,18.714c10.334,0,18.713-8.373,18.721-18.714
		L562.759,1209.549L562.759,1209.549z"/>
	<rect x="540" y="1188.216" width="8" height="25.438"/>
</g>
<g>
	<g>
		<rect x="670.623" y="1190.736" width="8.793" height="8.751"/>
		<rect x="683.623" y="1190.736" width="22" height="8.751"/>
	</g>
	<g>
		<rect x="670.623" y="1203.902" width="8.793" height="8.751"/>
		<rect x="683.623" y="1203.902" width="22" height="8.751"/>
	</g>
	<g>
		<rect x="670.623" y="1217.11" width="8.793" height="8.751"/>
		<rect x="683.623" y="1217.11" width="22" height="8.751"/>
	</g>
</g>
<g>
	<rect x="93" y="933.971" width="11" height="14.417"/>
	<polygon points="93.833,941.137 105.417,932.909 117,924.682 117,941.137 117,957.593 105.417,949.366 	"/>
	<rect x="122.667" y="936.82" width="1.958" height="9.167"/>
	<rect x="127.167" y="933.153" width="1.958" height="16.5"/>
	<rect x="131.417" y="930.445" width="1.958" height="21.875"/>
</g>
<polygon points="685.548,818.039 678.984,818.039 668.16,807.213 664.878,803.929 679.019,789.789 685.531,789.789 685.558,789.816 
	673.764,801.612 704.878,801.612 704.878,806.25 673.764,806.25 "/>
<g>
	<rect x="396.144" y="780.943" transform="matrix(-0.707 0.7072 -0.7072 -0.707 1251.0903 1090.5938)" width="7" height="46.999"/>
	<rect x="396.212" y="780.91" transform="matrix(-0.707 -0.7072 0.7072 -0.707 113.4633 1655.823)" width="7" height="46.999"/>
</g>
<g>
	<path d="M128.178,379.604l-2.957-7.556c-0.566-1.461-1.792-2.711-4.1-2.711h-4.245h-7.232h-4.291c-2.31,0-3.536,1.25-4.101,2.711
		l-2.957,7.556h-3.377v10.506h0.032v3.53h2.92v3.118c0,3.842,5.49,3.794,5.49,0v-3.118h9.874h0.007h9.877v3.118
		c0,3.794,5.486,3.842,5.486,0v-3.118h2.921v-3.53v-6.233v-4.273H128.178z M100.704,387.673c-1.4,0-2.535-1.159-2.535-2.587
		c0-1.428,1.134-2.588,2.535-2.588s2.537,1.16,2.537,2.588C103.241,386.514,102.106,387.673,100.704,387.673 M113.241,379.54h-0.006
		h-0.007H101.36l2.262-5.936c0.286-0.848,0.706-1.46,1.696-1.47h7.911h0.007h0.006h7.916c0.987,0.009,1.411,0.622,1.694,1.47
		l2.266,5.936H113.241z M125.769,387.673c-1.399,0-2.534-1.159-2.534-2.587c0-1.428,1.135-2.588,2.534-2.588
		c1.403,0,2.536,1.16,2.536,2.588C128.305,386.514,127.172,387.673,125.769,387.673"/>
</g>
<text transform="matrix(1 0 0 1 89.7468 1971.9272)" fill="#231F20" font-family="'SegoeUI-SemiBold'" font-size="18">Add</text>
<text transform="matrix(1 0 0 1 218.7693 1972.2007)" fill="#231F20" font-family="'Verdana'" font-size="14">Calendar</text>
<text transform="matrix(1 0 0 1 370.2551 1971.9272)" fill="#231F20" font-family="'SegoeUI-SemiBold'" font-size="18">Check</text>
<text transform="matrix(1 0 0 1 477.5354 1971.9272)" fill="#231F20" font-family="'SegoeUI-SemiBold'" font-size="18">Compact Disk</text>
<g>
	<path fill="#231F20" d="M538.355,1905.846c-1.313,0-2.368,1.061-2.368,2.371c0,1.313,1.057,2.371,2.368,2.371
		c1.311,0,2.372-1.059,2.372-2.371C540.727,1906.907,539.666,1905.846,538.355,1905.846z"/>
	<path fill="#231F20" d="M538.302,1890.264c-9.664,0-17.5,7.832-17.5,17.5c0,9.666,7.836,17.5,17.5,17.5
		c9.666,0,17.5-7.834,17.5-17.5C555.802,1898.096,547.968,1890.264,538.302,1890.264z M538.084,1893.454l0.837,8.049
		c0,0-1.515-0.037-2.472,0.24c-1.098,0.311-2.132,1.285-2.132,1.285l-4.325-7.01
		C534.066,1893.026,538.084,1893.454,538.084,1893.454z M538.319,1913.147c-2.736,0-4.949-2.217-4.949-4.949
		c0-2.734,2.213-4.951,4.949-4.951c2.734,0,4.948,2.217,4.948,4.951C543.268,1910.93,541.054,1913.147,538.319,1913.147z"/>
</g>
<text transform="matrix(1 0 0 1 666.2698 1971.9272)" fill="#231F20" font-family="'SegoeUI-SemiBold'" font-size="18">Cut</text>
<text transform="matrix(1 0 0 1 85.6731 2118.9976)" fill="#231F20" font-family="'SegoeUI-SemiBold'" font-size="18">Copy</text>
<path fill="#231F20" d="M672.286,1907.891l6.835-16.73l-4.688,2.787l-4.4,8.393l-0.133,4.018l-0.505,1.211l-0.502-0.059
	c0.286-1.152,0.396-2.715-0.473-4.174c-0.834-1.4-2.361-2.365-4.544-2.863c-3.81-0.869-6.567,0.756-7.772,2.41
	c-1.043,1.434-1.061,3.381-0.28,4.693c0.376,0.633,3.023,1.828,3.203,1.861l2.269,0.107l7.018,0.691l-2.818,6.715l-0.926,2.041
	c-0.038,0.115-0.258,2.846,0.126,3.492c0.78,1.311,2.41,2.072,4.167,1.84c2.029-0.271,4.826-1.83,5.879-5.594
	c0.604-2.154,0.487-3.957-0.347-5.359c-0.852-1.428-2.235-2.08-3.373-2.387l0.195-0.48l1.228,0.125l3.633,1.865l9.513,0.203
	l4.688-2.789L672.286,1907.891z M666.19,1907.114l-2.283-0.164l-0.834-0.094l-0.058,0.029l-3.707-0.271
	c-1.37-0.258-1.729-1.121-0.998-2.127c0.717-0.984,2.446-1.932,4.959-1.355c1.427,0.326,2.371,0.863,2.809,1.6
	C666.541,1905.508,666.393,1906.461,666.19,1907.114z M672.051,1914.768c0.437,0.732,0.459,1.822,0.063,3.23
	c-0.694,2.482-2.353,3.551-3.56,3.711c-0.656,0.086-1.197-0.082-1.411-0.441c-0.188-0.314-0.181-0.832-0.038-1.309l1.536-3.404
	l0.143-0.098l0.958-2.342l0.265-0.586C670.68,1913.667,671.587,1913.991,672.051,1914.768z"/>
<text transform="matrix(1 0 0 1 223.6145 2118.9976)" fill="#231F20" font-family="'SegoeUI-SemiBold'" font-size="18">Delete</text>
<text transform="matrix(1 0 0 1 353.2131 2118.9976)" fill="#231F20" font-family="'SegoeUI-SemiBold'" font-size="18">Download</text>
<text transform="matrix(1 0 0 1 518.1936 2118.9976)" fill="#231F20" font-family="'SegoeUI-SemiBold'" font-size="18">Edit</text>
<g>
	<polygon fill="#231F20" points="519.067,2062.7 522.531,2062.36 523.738,2065.381 528.052,2065.53 528.799,2068.286 
		533.197,2068.741 534.055,2071.303 545.564,2051.252 530.573,2042.649 	"/>
	<polygon fill="#231F20" points="517.867,2081.163 526.205,2077.315 516.986,2072.022 	"/>
	<path fill="#231F20" d="M549.574,2039.547l-10.614-6.092c-1.292-0.74-3.095-0.025-4.024,1.598l-1.266,2.207l15.287,8.775
		l1.266-2.207C551.153,2042.206,550.864,2040.288,549.574,2039.547z"/>
</g>
<text transform="matrix(1 0 0 1 644.0334 2118.9976)" fill="#231F20" font-family="'SegoeUI-SemiBold'" font-size="18">Favorites</text>
<text transform="matrix(1 0 0 1 62.0569 2255.355)" fill="#231F20" font-family="'SegoeUI-SemiBold'" font-size="18">Flash Drive</text>
<text transform="matrix(1 0 0 1 224.1814 2255.355)" fill="#231F20" font-family="'SegoeUI-SemiBold'" font-size="18">Folder</text>
<text transform="matrix(1 0 0 1 84.3767 2665.5913)" fill="#231F20" font-family="'SegoeUI-SemiBold'" font-size="18">Open</text>
<text transform="matrix(1 0 0 1 377.2952 2255.355)" fill="#231F20" font-family="'SegoeUI-SemiBold'" font-size="18">Find</text>
<text transform="matrix(1 0 0 1 500.1311 2255.355)" fill="#231F20" font-family="'SegoeUI-SemiBold'" font-size="18">Forward</text>
<path fill="#231F20" d="M554.08,2197.45l-12.799-12.865v6.049c-25.602,0-27.608,15.137-27.608,18.156
	c5.521-12.1,27.608-6.053,27.608-6.053v6.053L554.08,2197.45z"/>
<text transform="matrix(1 0 0 1 656.1565 2255.355)" fill="#231F20" font-family="'SegoeUI-SemiBold'" font-size="18">Globe</text>
<path fill="#231F20" d="M680.361,2172.688c-13.253,0-23.999,10.744-23.999,24c0,13.258,10.746,24.002,23.999,24.002
	c13.257,0,24.001-10.744,24.001-24.002C704.362,2183.432,693.617,2172.688,680.361,2172.688z M685,2204.506l-5.141,7.574
	c-2.135,4.572-0.813,5.355-0.813,5.355h-2.336c0.858-0.654-2.161-4.965-2.161-4.965c0.393-1.305-0.863-7.184-0.863-7.184
	c-4.259-2.873-2.24-6.008-2.24-6.008c1.47-1.307-3.559-4.049-3.559-4.049c-3.236,0.563-4.31-2.809-4.31-2.809
	c-1.436,0.195-1.567-0.98-1.567-0.98c-2.086-3.525,3.266-9.404,3.266-9.404c7.835-8.227,16.199-5.744,16.199-5.744
	c-0.526,0.393-0.539,1.043-0.539,1.043c2.992,2.352-1.076,3.006-1.076,3.006c0.346,1.043,2.007,2.48,2.007,2.48
	c0.389,4.57-2.007,1.697-2.007,1.697v1.307c-3.183,1.307-4.567,2.873-4.567,2.873c-4.222,5.354-3.847,1.961-3.847,1.961
	c-5.844,1.176-3.295,2.607-3.295,2.607c1.827-1.305,2.219,0.525,2.219,0.525l1.911,2.219l3.012-0.781
	c1.785,0.002,8.924,5.063,8.924,5.063C687.349,2201.436,685,2204.506,685,2204.506z M685.65,2179.426l-1.435-3.131l6.921,3.131
	C689.246,2179.297,685.65,2179.426,685.65,2179.426z M699.326,2199.67c-6.305,0.262-8.189-2.873-8.189-2.873
	c-3.133-4.178,3.175-8.229,3.175-8.229c-2.699-2.088,0.746-3.135,0.746-3.135v-1.307c-3.004-0.393-0.521-2.871-0.521-2.871
	c10.187,10.316,5.438,22.334,5.438,22.334C699.147,2202.676,699.326,2199.67,699.326,2199.67z"/>
<text transform="matrix(1 0 0 1 66.7371 2397.6187)" fill="#231F20" font-family="'SegoeUI-SemiBold'" font-size="18">Hard Disk</text>
<text transform="matrix(1 0 0 1 230.7908 2397.6187)" fill="#231F20" font-family="'SegoeUI-SemiBold'" font-size="18">Help</text>
<text transform="matrix(1 0 0 1 519.1292 2397.6187)" fill="#231F20" font-family="'SegoeUI-SemiBold'" font-size="18">Key</text>
<text transform="matrix(1 0 0 1 88.9163 2533.8003)" fill="#231F20" font-family="'SegoeUI-SemiBold'" font-size="18">Mail</text>
<text transform="matrix(1 0 0 1 369.4993 2397.6187)" fill="#231F20" font-family="'SegoeUI-SemiBold'" font-size="18">About</text>
<path fill="#231F20" d="M553.718,2326.592l2.225-2.109l-4.954-5.225l0.753-0.717l-4.256-4.469l-16.858,16.035
	c-4.689-2.701-10.771-2.143-14.898,1.77c-5.029,4.773-5.242,12.717-0.467,17.748c4.768,5.027,12.715,5.236,17.742,0.467
	c4.388-4.162,5.104-10.736,2.055-15.686l10.538-10.021l3.644,3.842l2.226-2.111l-3.646-3.842l0.947-0.9L553.718,2326.592z
	 M528.878,2345.737c-2.625,2.492-6.773,2.383-9.263-0.244c-2.49-2.623-2.385-6.77,0.244-9.262c2.617-2.49,6.771-2.379,9.262,0.246
	C531.614,2339.104,531.498,2343.247,528.878,2345.737z"/>
<text transform="matrix(1 0 0 1 651.2874 2397.6187)" fill="#231F20" font-family="'SegoeUI-SemiBold'" font-size="18">Logout</text>
<text transform="matrix(1 0 0 1 213.2786 2533.8003)" fill="#231F20" font-family="'SegoeUI-SemiBold'" font-size="18">Negative</text>
<text transform="matrix(1 0 0 1 363.3997 2533.8003)" fill="#231F20" font-family="'SegoeUI-SemiBold'" font-size="18">Positive</text>
<text transform="matrix(1 0 0 1 515.385 2533.8003)" fill="#231F20" font-family="'SegoeUI-SemiBold'" font-size="18">New</text>
<polygon fill="#060506" points="548.882,2490.377 538.116,2482.858 534.988,2495.612 530.698,2483.2 520.67,2491.68 
	524.495,2479.118 511.395,2480.088 521.879,2472.17 510.703,2465.256 523.845,2465.006 518.875,2452.852 529.641,2460.374 
	532.773,2447.612 537.059,2460.032 547.092,2451.543 543.258,2464.114 556.363,2463.145 545.875,2471.063 557.05,2477.977 
	543.916,2478.217 "/>
<text transform="matrix(1 0 0 1 516.9944 2665.5913)" fill="#231F20" font-family="'SegoeUI-SemiBold'" font-size="18">Play</text>
<text transform="matrix(1 0 0 1 628.9768 2665.5913)" fill="#231F20" font-family="'SegoeUI-SemiBold'" font-size="18">Presentation</text>
<text transform="matrix(1 0 0 1 660.9163 2533.8003)" fill="#231F20" font-family="'SegoeUI-SemiBold'" font-size="18">Next</text>
<text transform="matrix(1 0 0 1 360.1257 2784.2241)" fill="#231F20" font-family="'SegoeUI-SemiBold'" font-size="18">Previous</text>
<text transform="matrix(1 0 0 1 491.9319 2784.2241)" fill="#231F20" font-family="'SegoeUI-SemiBold'" font-size="18">Properties</text>
<text transform="matrix(1 0 0 1 228.4045 2665.5913)" fill="#231F20" font-family="'SegoeUI-SemiBold'" font-size="18">Paste</text>
<text transform="matrix(1 0 0 1 366.4626 2665.5913)" fill="#231F20" font-family="'SegoeUI-SemiBold'" font-size="18">Picture</text>
<g>
	<path fill="#231F20" d="M704.171,2604.944v-32.469c0-0.002,0-0.004,0-0.006c0.739-0.033,1.323-0.342,1.323-0.727
		c0-0.398-0.649-0.727-1.45-0.727h-0.988c-0.129-0.033-0.262-0.061-0.402-0.061h-44.582c-0.141,0-0.272,0.025-0.401,0.061h-0.988
		c-0.801,0-1.451,0.326-1.451,0.727c0,0.385,0.584,0.693,1.324,0.727c0,0.002,0,0.004,0,0.006v32.469
		c-0.74,0.064-1.324,0.68-1.324,1.441c0,0.797,0.65,1.449,1.451,1.449h47.363c0.801,0,1.45-0.652,1.45-1.449
		C705.494,2605.624,704.91,2605.008,704.171,2604.944z"/>
	<polygon fill="#231F20" points="681.228,2609.668 680.362,2609.668 680.362,2616.702 666.541,2626.78 666.673,2626.958 
		680.362,2616.989 680.362,2623.305 681.228,2623.305 681.228,2616.846 694.914,2626.825 695.048,2626.635 681.228,2616.569 	"/>
</g>
<text transform="matrix(1 0 0 1 78.3694 2782.5249)" fill="#231F20" font-family="'SegoeUI-SemiBold'" font-size="16">Preview</text>
<text transform="matrix(1 0 0 1 232.679 2782.5249)" fill="#231F20" font-family="'SegoeUI-SemiBold'" font-size="16">Print</text>
<path fill="#231F20" d="M267.458,2723.247h-3.794v-14.82h-27.399v14.82h-3.801c-3.588,0-6.5,2.91-6.5,6.504v16.574h10.301v5.121
	h27.399v-5.121h10.3v-16.574C273.964,2726.157,271.052,2723.247,267.458,2723.247z M260.146,2747.922h-20.369v-6.742h20.369
	V2747.922z M260.146,2728.206h-20.369v-16.256h20.369V2728.206z"/>
<text transform="matrix(1 0 0 1 219.5627 2903.7827)" fill="#231F20" font-family="'SegoeUI-SemiBold'" font-size="18">Refresh</text>
<path fill="#231F20" d="M253.603,2823.264c-9.651,0-17.74,6.762-19.824,15.787l-7.813-0.09l10.58,17.086l10.979-16.83l-7.256-0.086
	c1.892-5.588,7.119-9.641,13.334-9.641c7.793,0,14.135,6.34,14.135,14.135c0,7.797-6.342,14.137-14.135,14.137
	c-2.883,0-5.561-0.875-7.797-2.361l-3.399,5.213c3.215,2.127,7.061,3.373,11.196,3.373c11.228,0,20.361-9.133,20.361-20.361
	C273.964,2832.399,264.829,2823.264,253.603,2823.264z"/>
<text transform="matrix(1 0 0 1 361.9934 2901.146)" fill="#231F20" font-family="'SegoeUI-SemiBold'" font-size="18">Rename</text>
<g>
	<g>
		<path fill="#231F20" d="M405.126,2866.313v1.313H384.56v-1.313h1.699c1.981,0,3.422-0.576,4.317-1.732
			c0.566-0.756,0.851-2.572,0.851-5.451v-31.01c0-2.43-0.154-4.035-0.46-4.813c-0.236-0.592-0.721-1.1-1.452-1.523
			c-1.038-0.566-2.123-0.85-3.256-0.85h-1.699v-1.311h20.566v1.311h-1.734c-1.959,0-3.387,0.576-4.283,1.732
			c-0.59,0.756-0.885,2.572-0.885,5.451v31.01c0,2.43,0.152,4.035,0.46,4.814c0.235,0.59,0.73,1.096,1.486,1.521
			c1.015,0.566,2.089,0.85,3.222,0.85H405.126L405.126,2866.313z"/>
	</g>
	<line fill="none" x1="387.155" y1="2852.483" x2="402.53" y2="2852.483"/>
</g>
<text transform="matrix(1 0 0 1 515.0022 2905.3354)" fill="#231F20" font-family="'SegoeUI-SemiBold'" font-size="18">Save</text>
<text transform="matrix(1 0 0 1 653.262 2899.0718)" fill="#231F20" font-family="'SegoeUI-SemiBold'" font-size="18">Search</text>
<text transform="matrix(1 0 0 1 86.2795 3033.1792)" fill="#231F20" font-family="'SegoeUI-SemiBold'" font-size="18">Send</text>
<text transform="matrix(1 0 0 1 216.8733 3033.1812)" fill="#231F20" font-family="'SegoeUI-SemiBold'" font-size="18">Settings</text>
<path fill="#231F20" d="M269.196,2974.422c0.011-1.039-0.091-2.061-0.243-3.053l4.161-3.32c-1.071-3.988-3.134-7.564-5.928-10.447
	l-4.973,1.883c-1.572-1.303-3.361-2.346-5.301-3.094l-0.79-5.252c-1.917-0.512-3.924-0.816-6.003-0.832
	c-2.077-0.014-4.089,0.266-6.018,0.752l-0.853,5.24c-1.945,0.73-3.752,1.744-5.339,3.029l-4.952-1.943
	c-2.826,2.846-4.936,6.393-6.062,10.371l4.121,3.369c-0.166,0.994-0.274,2.014-0.285,3.055c-0.008,1.051,0.092,2.064,0.248,3.064
	l-4.169,3.316c1.079,3.986,3.141,7.568,5.936,10.445l4.972-1.877c1.571,1.297,3.364,2.34,5.304,3.094l0.781,5.25
	c1.923,0.512,3.93,0.816,6.006,0.832c2.08,0.008,4.088-0.268,6.015-0.75l0.86-5.248c1.943-0.73,3.748-1.744,5.34-3.02l4.943,1.939
	c2.829-2.85,4.934-6.396,6.063-10.373l-4.12-3.363C269.079,2976.489,269.187,2975.475,269.196,2974.422z M249.899,2984.243
	c-5.481-0.033-9.903-4.514-9.869-10.002c0.037-5.49,4.514-9.912,10.003-9.875c5.487,0.035,9.91,4.514,9.874,10.004
	C259.871,2979.862,255.394,2984.28,249.899,2984.243z"/>
<text transform="matrix(1 0 0 1 344.8459 3033.1802)" fill="#231F20" font-family="'SegoeUI-SemiBold'" font-size="18">Stock Index </text>
<text transform="matrix(1 0 0 1 370.9539 3054.7817)" fill="#231F20" font-family="'SegoeUI-SemiBold'" font-size="18">Down</text>
<text transform="matrix(1 0 0 1 472.4417 3033.1802)" fill="#231F20" font-family="'SegoeUI-SemiBold'" font-size="18">Stock Index Up</text>
<text transform="matrix(1 0 0 1 661.7249 3033.1802)" fill="#231F20" font-family="'SegoeUI-SemiBold'" font-size="18">Stop</text>
<text transform="matrix(1 0 0 1 57.4646 3166.7993)" fill="#231F20" font-family="'SegoeUI-SemiBold'" font-size="18">Synchronize</text>
<g>
	<path fill="#231F20" d="M113.738,3079.002c-2.649-1.131-5.57-1.758-8.636-1.756c-4.877-0.002-9.386,1.588-13.035,4.27l-2.189-3.158
		c-0.129-0.188-0.354-0.273-0.574-0.227c-0.22,0.049-0.387,0.227-0.427,0.447l-1.267,7.408l-0.892,5.227
		c-0.029,0.168,0.018,0.336,0.134,0.463c0.104,0.117,0.255,0.186,0.411,0.186c0.011,0,0.024-0.002,0.035-0.002l5.86-0.369
		l6.599-0.418c0.221-0.014,0.412-0.158,0.485-0.367c0.074-0.209,0.018-0.441-0.146-0.592l-2.749-2.541
		c2.224-1.479,4.886-2.336,7.755-2.336c2.014,0,3.923,0.426,5.656,1.188c0.135,0.061,0.293,0.063,0.431,0.006
		c0.14-0.057,0.249-0.168,0.306-0.307l2.542-6.406C114.147,3079.436,114.017,3079.122,113.738,3079.002z"/>
	<path fill="#231F20" d="M106.473,3118.37l-3.098-4.988l-3.49-5.617c-0.117-0.188-0.333-0.287-0.554-0.254
		c-0.219,0.033-0.396,0.193-0.451,0.408l-0.938,3.625c-2.353-1.26-4.369-3.201-5.729-5.729c-0.951-1.771-1.479-3.656-1.628-5.543
		c-0.011-0.148-0.084-0.289-0.2-0.387c-0.113-0.094-0.265-0.139-0.413-0.123l-6.848,0.791c-0.299,0.035-0.516,0.303-0.487,0.602
		c0.258,2.873,1.087,5.742,2.537,8.438c2.307,4.299,5.839,7.52,9.931,9.467l-1.748,3.426c-0.104,0.201-0.074,0.439,0.073,0.613
		c0.146,0.17,0.381,0.232,0.594,0.162l7.126-2.391l5.028-1.686c0.16-0.055,0.287-0.176,0.345-0.336
		c0.055-0.15,0.04-0.313-0.032-0.451C106.483,3118.389,106.479,3118.379,106.473,3118.37z"/>
	<path fill="#231F20" d="M130.448,3096.428l-5.634-4.975l-3.975-3.51c-0.129-0.111-0.298-0.16-0.465-0.129
		c-0.155,0.025-0.291,0.121-0.373,0.254c-0.007,0.01-0.013,0.02-0.02,0.027l-2.769,5.18l-3.116,5.832
		c-0.104,0.195-0.082,0.434,0.058,0.605c0.14,0.174,0.365,0.246,0.579,0.188l3.609-1.002c0.084,2.668-0.585,5.385-2.095,7.824
		c-1.061,1.711-2.428,3.111-3.986,4.186c-0.122,0.084-0.206,0.217-0.233,0.365c-0.021,0.145,0.015,0.299,0.104,0.42l4.11,5.529
		c0.18,0.242,0.518,0.295,0.763,0.123c2.356-1.658,4.428-3.813,6.038-6.42c2.565-4.145,3.588-8.814,3.228-13.332l3.838-0.199
		c0.229-0.014,0.421-0.156,0.494-0.371C130.679,3096.813,130.617,3096.579,130.448,3096.428z"/>
</g>
<text transform="matrix(1 0 0 1 195.1399 3166.2007)" fill="#231F20" font-family="'SegoeUI-SemiBold'" font-size="16">Text Document</text>
<g>
	<path fill="#231F20" d="M264.133,3076.268h-17.045l-3.689,3.893h-0.052l-8.931,9.463l-0.006,0.021l-3.677,3.879v25.686
		c0,2.795,2.267,5.061,5.062,5.061h28.338c2.795,0,5.062-2.266,5.062-5.061v-37.881
		C269.194,3078.534,266.928,3076.268,264.133,3076.268z M265.145,3119.208c0,0.559-0.455,1.012-1.012,1.012h-28.338
		c-0.56,0-1.015-0.453-1.015-1.012v-24.625l7.548-0.027c6.45,0.506,6.623-5.34,6.623-5.34v-8.9h15.182
		c0.557,0,1.012,0.455,1.012,1.012V3119.208z"/>
	<path fill="#231F20" d="M248.146,3100.268l-0.193,3.877h0.464c0.057-0.746,0.233-1.34,0.535-1.779s0.662-0.736,1.086-0.891
		c0.324-0.113,0.874-0.17,1.646-0.17h1.988v12.633c0,0.928-0.09,1.521-0.271,1.781c-0.292,0.422-0.788,0.633-1.486,0.633h-0.585
		v0.451h7.012v-0.451h-0.573c-0.642,0-1.118-0.17-1.427-0.512c-0.219-0.252-0.329-0.885-0.329-1.902v-12.633h2.329
		c0.684,0,1.234,0.111,1.652,0.334c0.419,0.225,0.754,0.572,1.006,1.043c0.153,0.293,0.276,0.781,0.366,1.463h0.464l-0.185-3.877
		H248.146L248.146,3100.268z"/>
</g>
<text transform="matrix(1 0 0 1 365.3508 3166.7993)" fill="#231F20" font-family="'SegoeUI-SemiBold'" font-size="18">Upload</text>
<text transform="matrix(1 0 0 1 517.9202 3165.3296)" fill="#231F20" font-family="'Verdana'" font-size="14">User</text>
<g>
	<circle fill="#231F20" cx="533.877" cy="3090.471" r="12.361"/>
	<path fill="#231F20" d="M540.329,3107.088h-12.905c-8.978,0-16.377,6.682-17.547,15.338h48
		C556.706,3113.77,549.308,3107.088,540.329,3107.088z"/>
</g>
<text transform="matrix(1 0 0 1 649.8459 3166.2007)" fill="#231F20" font-family="'SegoeUI-SemiBold'" font-size="16">Zoom In</text>
<text transform="matrix(1 0 0 1 70.7639 3305.938)" fill="#231F20" font-family="'SegoeUI-SemiBold'" font-size="16">Zoom out</text>
<text transform="matrix(1 0 0 1 219.7732 3305.0669)" fill="#231F20" font-family="'Verdana'" font-size="14">Archieve</text>
<text transform="matrix(1 0 0 1 355.4207 3305.938)" fill="#231F20" font-family="'SegoeUI-SemiBold'" font-size="16">Audio Disk</text>
<text transform="matrix(1 0 0 1 71.574 2911.4575)" fill="#231F20" font-family="'SegoeUI-SemiBold'" font-size="16">Burn Disk</text>
<g>
	<path fill="#231F20" d="M401.115,3233.643c-1.602,0-2.901,1.297-2.901,2.906c0,1.6,1.301,2.898,2.901,2.898
		c1.607,0,2.899-1.299,2.899-2.898C404.016,3234.94,402.724,3233.643,401.115,3233.643z"/>
	<path fill="#231F20" d="M401.186,3214.567c-8.127,0-15.194,4.523-18.825,11.189l0.104,0.869c0.131,1.105,0.419,2.424,0.62,2.904
		c0.36,0.377,0.754,0.762,0.927,0.916l0.06,0.037c0.477,0.34,4.67,3.451,5.551,7.844c0.052,0.23,1.14,5.887-3.131,10.92
		l-0.188,0.219l-0.229,0.176c-0.207,0.156-0.521,0.361-0.898,0.543c3.924,4.422,9.634,7.225,16.013,7.225
		c11.827,0,21.421-9.588,21.421-21.424C422.606,3224.157,413.013,3214.567,401.186,3214.567z M401.164,3242.577
		c-3.348,0-6.059-2.715-6.059-6.061s2.711-6.059,6.059-6.059c3.347,0,6.058,2.713,6.058,6.059S404.511,3242.577,401.164,3242.577z
		 M406.058,3230.194c0,0-1.262-1.195-2.607-1.574c-1.174-0.338-3.024-0.295-3.024-0.295l1.024-9.85c0,0,4.918-0.527,9.904,3.141
		L406.058,3230.194z"/>
	<path fill="#231F20" d="M386.995,3238.852c-0.697-3.48-4.484-6.188-4.484-6.188c-0.289-0.154-1.469-1.393-1.469-1.393
		c-0.818-0.777-1.24-4.328-1.24-4.328c-1.08-0.617-2.086,0-2.086,0l-0.398,20.105c-1.031-1.813-5.17-0.693-5.17-0.693
		c-6.381,2.146-4.924,6.266-4.924,6.266c1.104,4.563,8.482,3.018,8.482,3.018c5.335-1.395,4.868-5.26,4.868-5.26l-0.539-15.471
		c3.326,0.93,4.254,4.41,4.254,4.41c1.548,3.865-0.989,7.576-0.989,7.576c-0.371,1.781,1.147,0.617,1.147,0.617
		C387.924,3243.418,386.995,3238.852,386.995,3238.852z"/>
</g>
<g>
	<path fill="#231F20" d="M110.782,2839.163c-1.603,0-2.902,1.297-2.902,2.906c0,1.6,1.301,2.896,2.902,2.896
		c1.606,0,2.898-1.299,2.898-2.896C113.682,2840.459,112.39,2839.163,110.782,2839.163z"/>
	<path fill="#231F20" d="M110.852,2820.086c-7.9,0-14.792,4.283-18.505,10.646c1.363-0.332,2.854-0.59,4.492-0.754l3.772-0.379
		l-1.198,3.598c-0.925,2.789-1.425,6.359-1.019,8.148c0.148,0.293,0.289,0.594,0.413,0.902c0.004,0.006,0.007,0.012,0.011,0.016
		c1.185,1.109,3.312,3.258,3.957,4.832c0.377,0.814,2.287,5.342,0.229,9.467c-0.676,1.355-1.688,2.486-3.004,3.398
		c3.18,1.881,6.885,2.965,10.851,2.965c11.827,0,21.421-9.588,21.421-21.424C132.272,2829.676,122.679,2820.086,110.852,2820.086z
		 M110.831,2848.096c-3.349,0-6.06-2.715-6.06-6.059c0-3.346,2.711-6.061,6.06-6.061c3.346,0,6.057,2.713,6.057,6.061
		C116.888,2845.381,114.177,2848.096,110.831,2848.096z M115.724,2835.713c0,0-1.262-1.195-2.606-1.574
		c-1.175-0.338-3.025-0.295-3.025-0.295l1.025-9.85c0,0,4.918-0.527,9.903,3.141L115.724,2835.713z"/>
	<path fill="#231F20" d="M92.471,2859.831c0,0-12.212-2.623-11.94-13.389c0,0-0.543-12.303,16.555-14.021c0,0-2.896,8.686,0,11.578
		c0,0,2.984,2.805,3.438,4.072c0,0,4.793,9.604-6.876,11.76c0,0,4.977-3.076,0.452-6.695c0,0-2.714-1.959-1.809-3.949
		c0,0-5.006,1.207-3.68,5.91c0,0,0.881,1.508,2.399,2.654C91.011,2857.75,92.651,2859.077,92.471,2859.831z"/>
</g>
<text transform="matrix(1 0 0 1 650.6741 2789.647)" fill="#231F20" font-family="'SegoeUI-SemiBold'" font-size="18">Cancel</text>
<path fill="#231F20" d="M553.109,2730.053c0.01-1.039-0.091-2.061-0.244-3.053l4.162-3.32c-1.072-3.988-3.134-7.564-5.928-10.447
	l-4.974,1.883c-1.571-1.303-3.36-2.346-5.301-3.094l-0.79-5.252c-1.917-0.512-3.924-0.816-6.003-0.832
	c-2.077-0.012-4.088,0.266-6.017,0.752l-0.854,5.24c-1.944,0.73-3.752,1.744-5.339,3.029l-4.952-1.941
	c-2.825,2.844-4.935,6.391-6.061,10.371l4.121,3.367c-0.166,0.994-0.275,2.016-0.285,3.057c-0.008,1.049,0.091,2.063,0.248,3.063
	l-4.169,3.316c1.079,3.986,3.14,7.568,5.935,10.445l4.973-1.877c1.57,1.297,3.363,2.34,5.304,3.096l0.781,5.25
	c1.923,0.51,3.93,0.814,6.006,0.83c2.08,0.008,4.088-0.268,6.014-0.75l0.861-5.248c1.942-0.73,3.748-1.744,5.34-3.02l4.943,1.941
	c2.828-2.852,4.934-6.398,6.063-10.373l-4.121-3.365C552.991,2732.12,553.1,2731.106,553.109,2730.053z M533.813,2739.874
	c-5.482-0.033-9.904-4.514-9.869-10.002c0.037-5.49,4.513-9.912,10.002-9.875c5.488,0.035,9.911,4.514,9.875,10.004
	C543.783,2735.493,539.307,2739.911,533.813,2739.874z"/>
<g>
	<polygon fill="#231F20" points="371.489,2945.805 371.489,2981.612 400.563,2981.612 397.919,2976.612 376.489,2976.612 
		376.489,2950.805 413.196,2950.805 413.196,2976.612 409.328,2976.612 412.066,2981.612 418.196,2981.612 418.196,2945.805 	"/>
	<polygon fill="#231F20" points="389.701,2953.993 385.601,2961.102 382.759,2958.258 376.597,2968.211 382.521,2961.577 
		385.601,2965.19 389.701,2958.495 408.35,2987.879 402.662,2988.827 415.696,2998.305 415.696,2982.192 411.904,2985.983 	"/>
</g>
<g>
	<polygon fill="#231F20" points="510.523,2998.305 510.523,2962.5 539.597,2962.5 536.953,2967.5 515.523,2967.5 515.523,2993.305 
		552.231,2993.305 552.231,2967.5 548.362,2967.5 551.101,2962.5 557.231,2962.5 557.231,2998.305 	"/>
	<polygon fill="#231F20" points="528.736,2990.12 524.636,2983.01 521.791,2985.854 515.631,2975.899 521.554,2982.536 
		524.636,2978.92 528.736,2985.616 547.384,2956.233 541.698,2955.286 554.731,2945.805 554.731,2961.92 550.938,2958.129 	"/>
</g>
<path fill="#231F20" d="M122.048,2047.676h-1.813v-10.23c0-2.363-1.918-4.281-4.282-4.281h-14.424l-3.123,3.295h-0.042l-7.557,8.008
	l-0.005,0.016l-3.11,3.281v21.734c0,2.365,1.917,4.281,4.282,4.281h6.774v3.854c0,1.949,1.58,3.529,3.529,3.529h19.771
	c1.95,0,3.531-1.58,3.531-3.529v-26.428C125.579,2049.256,123.998,2047.676,122.048,2047.676z M91.974,2070.354
	c-0.473,0-0.857-0.385-0.857-0.857v-20.834l6.386-0.023c5.459,0.428,5.604-4.52,5.604-4.52v-7.531h12.847
	c0.472,0,0.855,0.387,0.855,0.855v10.232h-6.649l-2.575,2.715h-0.035l-6.23,6.604l-0.004,0.014l-2.563,2.707v10.641h-6.776V2070.354
	z M122.754,2077.633c0,0.391-0.317,0.705-0.706,0.705h-19.771c-0.39,0-0.707-0.314-0.707-0.705v-3.854v-3.424v-9.898l5.266-0.021
	c4.501,0.354,4.621-3.725,4.621-3.725v-6.209h5.351h3.427h1.813c0.389,0,0.706,0.316,0.706,0.705V2077.633z"/>
<g>
	<rect x="93.295" y="1904.299" fill="#231F20" width="28.621" height="6.928"/>
	<rect x="104.142" y="1893.454" fill="#231F20" width="6.928" height="28.619"/>
</g>
<polygon fill="#231F20" points="267.2,2046.647 260.483,2039.926 249.964,2050.446 239.446,2039.926 232.728,2046.647 
	243.247,2057.163 232.729,2067.68 239.446,2074.399 249.964,2063.881 260.482,2074.399 267.2,2067.68 256.683,2057.163 "/>
<g>
	<polygon fill="#231F20" points="399.698,1916.444 382.338,1916.444 382.338,1899.083 399.698,1899.083 399.698,1903.057 
		403.433,1900.635 403.433,1895.35 378.604,1895.35 378.604,1920.176 403.433,1920.176 403.433,1908.233 399.698,1910.655 	"/>
	<polygon fill="#231F20" points="389.288,1902.606 386.447,1904.448 390.548,1910.772 390.546,1910.772 392.391,1913.614 
		411.537,1901.198 409.694,1898.356 393.39,1908.928 	"/>
</g>
<g>
	<polygon fill="#231F20" points="394.887,2070.918 409,2056.805 409,2050.241 397.204,2062.034 397.204,2030.918 392.566,2030.918 
		392.566,2062.034 380.769,2050.241 380.685,2050.325 380.685,2056.717 391.604,2067.635 	"/>
	<polygon fill="#231F20" points="414.843,2069.579 414.843,2079.405 374.748,2079.405 374.748,2069.579 370.843,2069.579 
		370.843,2079.405 370.843,2083.409 374.748,2083.409 414.843,2083.409 416.843,2083.409 418.843,2083.409 418.843,2069.579 	"/>
</g>
<path fill="#231F20" d="M688.398,2040.491c0.496,0,1.022,0.027,1.587,0.084c3.428,0.332,7.396,3.473,7.877,9.488v2.002
	c-0.45,5.758-4.797,12.859-17.5,21.771c-12.704-8.91-17.05-16.014-17.5-21.771v-2.002c0.482-6.016,4.446-9.156,7.876-9.488
	c0.563-0.057,1.091-0.084,1.585-0.084c3.961,0,5.863,1.713,8.039,4.307C682.536,2042.204,684.437,2040.491,688.398,2040.491"/>
<g>
	<path fill="#231F20" d="M94.911,2184.579v36.109h23.447v-36.109H94.911z M112.715,2217.756h-11.881v-2.695h11.881V2217.756z"/>
	<path fill="#231F20" d="M113.93,2172.688H99.341v8.963h14.589V2172.688z M104.586,2179.731h-2.345v-2.561h2.345V2179.731z
		 M111.229,2179.731h-2.345v-2.561h2.345V2179.731z"/>
</g>
<g>
	<rect x="225.964" y="2193.893" fill="#231F20" width="48" height="21.947"/>
	<polygon fill="#231F20" points="245.3,2182.479 245.3,2177.536 225.964,2177.536 225.964,2182.479 225.964,2183.458 
		225.964,2188.463 273.964,2188.463 273.964,2182.479 	"/>
</g>
<path fill="#231F20" d="M403.394,2198.844c4.183-5.826,4.222-13.928-0.434-19.848c-5.646-7.174-16.034-8.414-23.212-2.77
	c-7.175,5.645-8.414,16.035-2.771,23.211c4.722,5.998,12.756,7.83,19.459,4.975l12.806,16.275l7.003-5.51L403.394,2198.844z
	 M396.014,2196.897c-4.243,3.338-10.388,2.605-13.726-1.637c-3.339-4.242-2.604-10.387,1.637-13.725
	c4.245-3.338,10.389-2.605,13.725,1.637C400.988,2187.417,400.256,2193.563,396.014,2196.897z"/>
<g>
	<path fill="#231F20" d="M106.635,2322.987c-2.855,0-5.173,2.313-5.173,5.174c0,2.859,2.316,5.174,5.173,5.174
		s5.173-2.313,5.173-5.174S109.49,2322.987,106.635,2322.987z"/>
	<path fill="#231F20" d="M88.738,2309.805v48h35.795v-48H88.738z M107.368,2350.67l-8.098,1.656
		c-0.277,0.076-0.568,0.137-0.868,0.174l-0.294,0.063v-0.035c-0.165,0.012-0.33,0.037-0.498,0.037c-2.697,0-4.886-1.695-4.886-3.787
		c0.001-2.092,2.187-3.787,4.884-3.789c0.171,0,0.334,0.023,0.5,0.041v-0.041l0.302,0.063c0.286,0.035,0.563,0.098,0.832,0.17
		l8.129,1.66l9.256,1.896L107.368,2350.67z M106.635,2341.096c-7.143,0-12.936-5.793-12.936-12.936s5.793-12.936,12.936-12.936
		s12.936,5.793,12.936,12.936S113.777,2341.096,106.635,2341.096z"/>
</g>
<g>
	<rect x="245.557" y="2348.698" fill="#231F20" width="9.107" height="9.107"/>
	<path fill="#231F20" d="M262.378,2313.905c-3.09-2.732-7.25-4.1-12.479-4.1c-4.97,0-8.981,1.352-12.041,4.051
		c-3.057,2.701-4.705,5.984-4.94,9.854l8.36,1.037c0.584-2.701,1.652-4.711,3.209-6.029c1.556-1.316,3.488-1.977,5.802-1.977
		c2.397,0,4.306,0.633,5.721,1.896s2.123,2.781,2.123,4.553c0,1.275-0.4,2.441-1.199,3.502c-0.519,0.67-2.105,2.084-4.764,4.244
		s-4.431,4.105-5.316,5.834s-1.328,3.934-1.328,6.611c0,0.26,0.011,0.984,0.032,2.172h8.265c-0.043-2.506,0.167-4.246,0.633-5.219
		c0.464-0.971,1.657-2.258,3.581-3.855c3.717-3.09,6.143-5.531,7.276-7.324c1.133-1.793,1.701-3.695,1.701-5.705
		C267.013,2319.821,265.468,2316.637,262.378,2313.905z"/>
</g>
<g>
	<rect x="391.343" y="2325.993" fill="#231F20" width="7" height="28"/>
	<circle fill="#231F20" cx="394.843" cy="2317.181" r="3.563"/>
</g>
<g>
	<polygon fill="#060506" points="106.636,2474.635 115.444,2465.795 124.257,2456.956 106.636,2456.956 89.013,2456.956 
		97.827,2465.795 	"/>
	<polygon fill="#060506" points="126.55,2460.02 117.116,2469.264 106.604,2479.573 96.095,2469.264 86.661,2460.02 86.636,2460.02 
		86.636,2486.27 126.636,2486.27 126.636,2460.02 	"/>
</g>
<polygon fill="#231F20" points="693.7,2474.344 679.549,2488.5 679.649,2488.602 687.323,2488.602 700.425,2475.5 704.362,2471.561 
	687.427,2454.624 679.549,2454.624 693.7,2468.778 656.362,2468.778 656.362,2474.344 "/>
<polygon fill="#231F20" points="381.505,2732.668 395.656,2746.823 395.556,2746.924 387.882,2746.924 374.78,2733.823 
	370.843,2729.885 387.778,2712.948 395.656,2712.948 381.505,2727.104 418.843,2727.104 418.843,2732.668 "/>
<polygon fill="#231F20" points="549.317,2598.959 533.877,2610.958 518.437,2622.958 518.437,2598.959 518.437,2574.958 
	533.877,2586.959 "/>
<g>
	<path fill="#231F20" d="M110.246,2585.114H95.463v-4.943H76.128v4.943v0.979v5.008h27.192
		C104.789,2588.961,106.979,2586.809,110.246,2585.114z"/>
	<path fill="#231F20" d="M137.143,2590.293l-10.796-10.854v5.105c-16.356,0-21.289,7.32-22.721,11.98H76.128v21.947h48v-21.947
		h-18.497c6.771-5.584,20.716-1.775,20.716-1.775v5.105L137.143,2590.293z"/>
</g>
<g>
	<path fill="#231F20" d="M95.46,2741.397h-3.122c-0.451,0-0.818-0.363-0.818-0.814v-20.236l4.448,0.121
		c5.19,0.568,5.475-4.141,5.475-4.141l0.221-7.123h13.539c0.448,0,0.815,0.367,0.815,0.814v11.916
		c1.225,0.74,2.323,1.641,3.268,2.674v-14.59c0-2.252-1.828-4.082-4.083-4.082h-13.753l-2.901,3.063H98.54l-0.074,0.08h-0.034
		l-2.373,2.514l2.266-2.389h0.022l-8.473,8.902l-0.001,0.045l-1.617,1.707v20.725c0,2.254,1.827,4.082,4.083,4.082h6.302
		C97.405,2743.741,96.33,2742.639,95.46,2741.397z"/>
	<path fill="#231F20" d="M116.516,2739.489c2.768-3.854,2.792-9.211-0.287-13.127c-3.732-4.744-10.604-5.564-15.353-1.832
		c-4.745,3.734-5.565,10.605-1.832,15.352c3.123,3.971,8.438,5.182,12.87,3.291l8.471,10.766l4.631-3.645L116.516,2739.489z
		 M111.634,2738.204c-2.807,2.207-6.87,1.723-9.077-1.084c-2.208-2.807-1.723-6.871,1.082-9.078
		c2.808-2.209,6.871-1.723,9.077,1.084C114.925,2731.934,114.439,2735.997,111.634,2738.204z"/>
</g>
<path fill="#231F20" d="M701.766,2862.116l-12.854-16.336c4.185-5.826,4.223-13.926-0.434-19.846
	c-5.646-7.176-16.034-8.416-23.211-2.771c-7.176,5.646-8.415,16.035-2.771,23.211c4.723,6,12.758,7.83,19.459,4.977l12.807,16.273
	L701.766,2862.116z M667.809,2842.198c-3.339-4.242-2.604-10.387,1.636-13.727c4.245-3.338,10.39-2.604,13.726,1.641
	c3.34,4.242,2.605,10.387-1.638,13.725S671.146,2846.44,667.809,2842.198z"/>
<g>
	<path fill="#231F20" d="M549.416,2819.625v14.672h-31.367v-14.672h-7.914v48h47.483v-48H549.416z M549.416,2861.497H518.26v-4.85
		h31.156V2861.497z"/>
	<rect x="522.573" y="2819.68" fill="#231F20" width="5.992" height="12.223"/>
</g>
<g>
	<polygon fill="#231F20" points="98.728,2979.94 107.536,2971.098 116.349,2962.26 98.728,2962.26 81.104,2962.26 89.919,2971.098 	
		"/>
	<polygon fill="#231F20" points="118.728,2965.323 118.642,2965.323 109.208,2974.567 98.696,2984.875 88.187,2974.567 
		78.753,2965.323 78.728,2965.323 78.728,2991.573 105.628,2991.573 105.628,2981.092 118.728,2981.092 	"/>
	<polygon fill="#231F20" points="128.158,2981.522 121.772,2975.926 121.772,2983.092 107.628,2983.092 107.628,2991.231 
		121.772,2991.231 121.772,2998.305 128.158,2992.711 134.544,2987.116 	"/>
</g>
<rect x="656.362" y="2950.305" fill="#231F20" width="48" height="48"/>
<g>
	<polygon fill="#231F20" points="414.86,3108.676 414.86,3118.381 374.871,3118.381 374.871,3108.676 370.843,3108.676 
		370.843,3122.366 418.843,3122.366 418.843,3108.676 	"/>
	<polygon fill="#231F20" points="387.041,3090.645 393.19,3084.497 393.19,3106.649 396.492,3106.649 396.492,3084.497 
		402.644,3090.645 407.142,3090.645 407.229,3090.555 397.179,3080.506 394.843,3078.17 382.455,3090.555 382.546,3090.645 	"/>
</g>
<g>
	<polygon fill="#231F20" points="270.837,3221.178 270.864,3219.522 262.284,3211.987 236.751,3211.987 228.937,3219.491 
		229.093,3221.178 	"/>
	<path fill="#231F20" d="M227.178,3224.243v16.598h11.388l28.824-8.391l1.337,8.391h4.024v-16.598H227.178z M255.772,3229.35
		h-12.127v-3.064h12.127V3229.35z"/>
	<path fill="#231F20" d="M227.178,3259.987h45.573v-15.957h-45.573V3259.987L227.178,3259.987z M243.899,3246.235h12.129v3.063
		h-12.129V3246.235L243.899,3246.235z"/>
</g>
<path fill="#231F20" d="M688.912,3102.422c4.185-5.824,4.223-13.926-0.434-19.846c-5.645-7.174-16.034-8.414-23.211-2.77
	c-7.176,5.645-8.415,16.035-2.771,23.211c4.723,5.998,12.758,7.83,19.459,4.975l12.807,16.275l7.003-5.51L688.912,3102.422z
	 M685.305,3095.375h-7.708v7.707h-4.922v-7.707h-7.708v-4.924h7.708v-7.707h4.922v7.707h7.708V3095.375z"/>
<path fill="#231F20" d="M677.576,2695.098c-13.254,0-24,10.744-24,23.998c0,13.256,10.746,24,24,24s24-10.744,24-24
	C701.576,2705.842,690.83,2695.098,677.576,2695.098z M692.509,2728.208l-5.819,5.82l-9.112-9.111l-9.11,9.111l-5.818-5.82
	l9.111-9.111l-9.112-9.109l5.819-5.82l9.11,9.111l9.112-9.111l5.819,5.82l-9.111,9.109L692.509,2728.208z"/>
<path fill="#231F20" d="M115.187,3238.143c4.184-5.826,4.223-13.926-0.434-19.846c-5.646-7.174-16.034-8.416-23.212-2.771
	c-7.175,5.646-8.414,16.037-2.771,23.213c4.723,5.998,12.756,7.83,19.459,4.975l12.807,16.273l7.003-5.508L115.187,3238.143z
	 M111.578,3231.096H91.24v-4.924h20.338V3231.096z"/>
<g>
	<path fill="#231F20" d="M362.547,2574.454v49.01h64.592v-49.01H362.547z M421.733,2608.229c-1.022,0.193-2.603,0.43-3.674,0.275
		c-1.699-0.242-6.262-0.971-9.182,0c-2.916,0.973-5.154,2.906-5.154,2.906s0,0-2.984,0.121c-2.988,0.123-4.535,1.457-9.183,1.943
		c-1,0.104-2.031,0.156-3.063,0.186c-0.804-0.586-2.604-2.406-2.157-6.773c0.777-0.035,1.496-0.277,2.096-0.682
		c0.641,0.439,1.414,0.699,2.252,0.699c1.599,0,2.969-0.951,3.6-2.314c2.117-0.098,3.805-1.83,3.805-3.969
		c0-2.197-1.781-3.979-3.983-3.979c-0.451,0-0.877,0.092-1.281,0.229c0.081-0.316,0.14-0.645,0.14-0.984
		c0-2.199-1.789-3.982-3.984-3.982c-0.289,0-0.57,0.035-0.842,0.094c-0.318-1.881-1.945-3.318-3.914-3.318
		c-2.195,0-3.983,1.783-3.983,3.982c-2.195,0-3.979,1.781-3.979,3.98c0,0.383,0.07,0.744,0.172,1.096
		c-0.059-0.004-0.112-0.02-0.172-0.02c-2.199,0-3.984,1.783-3.984,3.982c0,2.197,1.785,3.982,3.984,3.982
		c0.347,0,0.678-0.059,0.998-0.143c0.72,1.035,1.915,1.717,3.271,1.717c0.787,0,1.518-0.236,2.134-0.629
		c0.199,1.803,0.328,5.676-1.92,6.896c-0.817-0.029-1.582-0.053-2.229-0.053c-2.284,0-7.862,0.395-10.644,0.604v-34.813h53.867
		v28.965H421.733z"/>
	<path fill="#231F20" d="M408.873,2591.663c0.011,0,0.019-0.004,0.027-0.004c0.08,1.227,1.086,2.195,2.33,2.195
		c0.871,0,1.622-0.479,2.027-1.182c0.362,0.172,0.793,0.199,1.191,0.039c0.526-0.219,0.856-0.705,0.909-1.236
		c0.683-0.135,1.197-0.734,1.197-1.459c0-0.08-0.012-0.158-0.024-0.236c0.109,0.033,0.218,0.068,0.339,0.068
		c0.652,0,1.188-0.535,1.188-1.193c0-0.656-0.535-1.189-1.188-1.189c-0.353,0-0.659,0.154-0.878,0.395
		c0.008-0.08,0.024-0.156,0.024-0.238c0-1.346-1.093-2.436-2.438-2.436c-1.076,0-1.979,0.701-2.304,1.67
		c-0.549-0.729-1.414-1.205-2.402-1.205c-1.651,0-3.002,1.342-3.002,3.006C405.871,2590.313,407.222,2591.663,408.873,2591.663z
		 M413.007,2589.981c0.065,0.016,0.135,0.025,0.205,0.037c-0.041,0.021-0.084,0.041-0.121,0.063
		C413.063,2590.047,413.034,2590.014,413.007,2589.981z"/>
</g>
<g>
	<g>
		<polygon fill="#060506" points="681.207,2312.7 681.207,2314.7 686.621,2314.7 686.621,2331.397 688.621,2330.043 688.621,2312.7 
					"/>
		<polygon fill="#060506" points="686.621,2353.575 681.207,2353.575 681.207,2355.575 688.621,2355.575 688.621,2338.563 
			686.621,2337.211 		"/>
	</g>
	<path fill="#060506" d="M661.505,2312.805v42l18.202,3v-48L661.505,2312.805z M675.714,2335.137c-0.736,0-1.334-0.598-1.334-1.332
		s0.598-1.334,1.334-1.334c0.735,0,1.332,0.6,1.332,1.334S676.449,2335.137,675.714,2335.137z"/>
	<polyline fill="#060506" points="685.989,2334.303 693.53,2329.209 693.53,2331.856 699.22,2331.856 699.22,2336.749 
		693.53,2336.749 693.53,2339.397 685.989,2334.303 	"/>
</g>
<g>
	<g>
		<path fill="#231F20" d="M232.564,1915.04l1.461-0.193c0.168,0.826,0.453,1.424,0.856,1.789c0.403,0.367,0.894,0.549,1.473,0.549
			c0.688,0,1.268-0.238,1.741-0.715c0.473-0.477,0.709-1.064,0.709-1.77c0-0.67-0.218-1.225-0.656-1.658
			c-0.438-0.436-0.996-0.654-1.672-0.654c-0.275,0-0.619,0.055-1.031,0.162l0.162-1.281c0.099,0.012,0.177,0.016,0.236,0.016
			c0.622,0,1.182-0.162,1.68-0.486s0.746-0.824,0.746-1.502c0-0.535-0.181-0.979-0.543-1.33s-0.831-0.527-1.404-0.527
			c-0.566,0-1.042,0.18-1.42,0.537c-0.379,0.355-0.622,0.893-0.729,1.605l-1.46-0.26c0.178-0.98,0.584-1.738,1.217-2.275
			c0.633-0.539,1.42-0.809,2.362-0.809c0.648,0,1.246,0.139,1.793,0.418s0.964,0.66,1.254,1.141s0.434,0.992,0.434,1.533
			c0,0.514-0.138,0.982-0.413,1.404s-0.685,0.758-1.226,1.006c0.703,0.162,1.25,0.5,1.639,1.01c0.391,0.512,0.584,1.152,0.584,1.92
			c0,1.039-0.378,1.918-1.136,2.643c-0.758,0.723-1.715,1.082-2.873,1.082c-1.044,0-1.911-0.311-2.601-0.934
			C233.056,1916.838,232.663,1916.03,232.564,1915.04z"/>
		<path fill="#231F20" d="M247.301,1918.18h-1.46v-9.309c-0.353,0.338-0.813,0.674-1.384,1.008
			c-0.571,0.336-1.083,0.586-1.538,0.754v-1.41c0.817-0.387,1.531-0.85,2.143-1.396c0.611-0.545,1.044-1.074,1.298-1.59h0.941
			V1918.18z"/>
	</g>
	<rect x="246.641" y="1891.649" fill="#231F20" width="2.918" height="8.459"/>
	<path fill="#231F20" d="M251.017,1895.877v5.689h-5.835v-5.689h-9.915v5.689h-5.833v-5.689h-7.001v28.002h35v-28.002H251.017z
		 M254.381,1921.534h-29.41v-17.986h29.41V1921.534z"/>
	<rect x="230.892" y="1891.649" fill="#231F20" width="2.917" height="8.459"/>
</g>
<path d="M269.532,2451.04H250.97l-3.428,3.43h-7.862h-3.429h-10.287v27.43h13.716v-6.857h4.172l10.284,17.145h6.115v-13.715h13.713
	v-22.994L269.532,2451.04z M270.536,2475.04h-13.714v13.717h-0.743l-10.287-17.145h-6.112v-13.715h9.281l3.428-3.428h15.724
	l2.425,2.424L270.536,2475.04L270.536,2475.04z"/>
<path d="M418.843,2487.75v-22.994h-13.714v-13.715h-6.114l-10.286,17.145h-4.172v-6.855h-13.714v27.428h10.286h3.428h7.862
	l3.429,3.428h18.563L418.843,2487.75z M415.413,2486.331l-2.424,2.426h-15.724l-3.429-3.428h-9.281v-13.717h6.114l10.285-17.143
	h0.743v13.715h13.714L415.413,2486.331L415.413,2486.331z"/>
<g>
	<path fill="#231F20" d="M267.455,2605.594l-0.003-0.012l-4.69-4.971h-0.027l-1.938-2.045h-8.956c-1.468,0-2.657,1.189-2.657,2.658
		v19.896c0,1.469,1.189,2.658,2.657,2.658h14.889c1.468,0,2.657-1.189,2.657-2.658v-13.492L267.455,2605.594z M266.729,2621.655
		H251.84c-0.29,0-0.53-0.238-0.53-0.531v-19.898c0-0.293,0.24-0.531,0.53-0.531h7.978v4.676c0,0,0.092,3.07,3.479,2.805l3.965,0.018
		v12.934C267.261,2621.417,267.021,2621.655,266.729,2621.655z"/>
	<rect x="254.505" y="2613.1" fill="#231F20" width="9.93" height="1.381"/>
	<rect x="254.505" y="2617.532" fill="#231F20" width="9.93" height="1.379"/>
	<path fill="#231F20" d="M246.464,2618.608h-12.068v-33.68h4.852v4.855h17.72v-4.855h4.85v10.918h0.149l3.704,3.906v-19.625h-8.703
		v-1.453H252.9c-0.001-2.508-2.146-4.539-4.793-4.539c-2.646,0-4.792,2.031-4.793,4.539h-4.065v1.453h-8.703v42.264h16.088
		c-0.1-0.408-0.167-0.83-0.167-1.27v-2.514H246.464z M248.105,2576.176c1.458,0,2.642,1.119,2.642,2.5c0,1.379-1.184,2.5-2.642,2.5
		s-2.641-1.121-2.641-2.5C245.465,2577.295,246.647,2576.176,248.105,2576.176z"/>
</g>
<g>
	<path d="M553.281,3235.517c-0.945-8.68-7.514-15.679-16.112-17.165v-4.548c11.049,1.544,19.649,10.589,20.637,21.713H553.281z"/>
	<path d="M509.806,3235.517c0.978-10.949,9.419-19.969,20.263-21.663v4.574c-8.392,1.628-14.803,8.595-15.738,17.089H509.806z"/>
	<path d="M530.069,3261.478c-9.895-1.538-17.815-9.063-19.854-18.861h4.613c1.898,7.266,7.863,12.853,15.241,14.286V3261.478z"/>
	<path d="M537.169,3256.979c7.565-1.311,13.679-6.93,15.615-14.362h4.614c-2.069,9.959-10.143,17.511-20.229,18.911V3256.979z"/>
	<polygon points="520.02,3243.765 531.146,3240.816 531.447,3252.073 543.483,3224.972 	"/>
</g>
<path d="M697.056,3247.731c2.565-3.821,4.067-8.414,4.067-13.351c0-13.232-10.764-23.998-24.002-23.998
	c-13.229,0-23.995,10.766-23.995,23.998c0,4.939,1.502,9.531,4.069,13.352v0.257h0.184c4.333,6.271,11.563,10.394,19.742,10.394
	c8.184,0,15.415-4.123,19.749-10.394h0.186V3247.731z M699.339,3234.209h-4.677c-0.019-3.663-0.651-7.118-1.748-10.218h3.841
	C698.378,3227.045,699.31,3230.521,699.339,3234.209z M692.887,3234.209h-7.251c-0.008-3.463-0.282-6.98-0.809-10.218h6.224
	C692.207,3227.045,692.867,3230.521,692.887,3234.209z M670.395,3234.209c0.009-3.787,0.319-7.229,0.825-10.218h11.807
	c0.508,2.989,0.819,6.431,0.828,10.218H670.395z M683.829,3235.988c-0.087,3.837-0.479,7.285-1.071,10.226h-11.271
	c-0.591-2.94-0.981-6.389-1.067-10.226H683.829z M684.507,3222.215c-0.765-3.86-1.914-7.185-3.426-9.315
	c3.831,1.402,7.102,4.771,9.221,9.315H684.507z M682.69,3222.215h-11.133c1.305-6.229,3.508-10.054,5.564-10.054
	C679.181,3212.162,681.384,3215.986,682.69,3222.215z M673.165,3212.9c-1.51,2.131-2.659,5.455-3.424,9.315h-5.795
	C666.067,3217.671,669.334,3214.302,673.165,3212.9z M669.422,3223.992c-0.523,3.237-0.798,6.755-0.807,10.218h-7.251
	c0.018-3.688,0.681-7.164,1.833-10.218H669.422z M659.585,3234.209h-4.672c0.027-3.688,0.959-7.164,2.584-10.218h3.834
	C660.24,3227.091,659.606,3230.546,659.585,3234.209z M659.639,3235.988c0.18,3.699,0.967,7.167,2.237,10.226h-3.528
	c-1.898-3.003-3.094-6.484-3.363-10.226H659.639z M661.415,3235.988h7.22c0.081,3.516,0.431,7.042,1.039,10.226h-5.875
	C662.454,3243.21,661.606,3239.729,661.415,3235.988z M670.049,3247.989c0.754,3.244,1.796,6.013,3.116,7.876
	c-3.413-1.25-6.373-4.063-8.479-7.876H670.049z M671.887,3247.989h10.474c-1.327,5.37-3.343,8.612-5.239,8.612
	C675.23,3256.601,673.213,3253.359,671.887,3247.989z M681.081,3255.865c1.321-1.865,2.363-4.632,3.119-7.876h5.363
	C687.454,3251.802,684.492,3254.615,681.081,3255.865z M684.575,3246.213c0.608-3.184,0.957-6.71,1.041-10.226h7.221
	c-0.192,3.741-1.042,7.223-2.389,10.226H684.575z M694.61,3235.988h4.657c-0.269,3.741-1.466,7.223-3.363,10.226h-3.533
	C693.643,3243.155,694.427,3239.687,694.61,3235.988z M695.698,3222.215h-3.479c-1.338-3.099-3.158-5.764-5.339-7.767
	C690.468,3216.21,693.516,3218.897,695.698,3222.215z M667.365,3214.451c-2.177,2.003-3.997,4.666-5.337,7.765h-3.475
	C660.734,3218.897,663.781,3216.213,667.365,3214.451z M659.596,3247.989h3.092c1.259,2.487,2.84,4.638,4.676,6.324
	C664.317,3252.813,661.664,3250.645,659.596,3247.989z M686.882,3254.315c1.835-1.688,3.423-3.839,4.677-6.326h3.095
	C692.586,3250.648,689.932,3252.816,686.882,3254.315z"/>
<text transform="matrix(1 0 0 1 664.2317 3302.2944)" font-family="'MyriadPro-Regular'" font-size="12">Globe</text>
<text transform="matrix(1 0 0 1 501.3958 3302.5786)" font-family="'MyriadPro-Regular'" font-size="12">GPS Settings</text>
<text transform="matrix(1 0 0 1 369.0359 3447.5522)" font-family="'MyriadPro-Regular'" font-size="12">Signal bars</text>
<text transform="matrix(1 0 0 1 496.5295 3446.0522)" font-family="'MyriadPro-Regular'" font-size="12">Signal bars</text>
<text transform="matrix(1 0 0 1 88.2092 3445.5356)" font-family="'MyriadPro-Regular'" font-size="12">GPS On</text>
<text transform="matrix(1 0 0 1 236.5383 3447.0366)" font-family="'MyriadPro-Regular'" font-size="12">GPS Off</text>
<path d="M259.453,3371.021c-2.955-2.952-7.745-2.955-10.702,0l-15.909-15.909c-8.311,11.919-7.177,28.428,3.46,39.063
	c10.633,10.635,27.139,11.767,39.064,3.46l-15.913-15.911C262.412,3378.77,262.408,3373.976,259.453,3371.021z"/>
<g>
	<path d="M109.519,3380.908c-2.361-2.358-6.188-2.36-8.55,0l-12.71-12.71c-6.64,9.522-5.734,22.711,2.764,31.208
		c8.494,8.496,21.682,9.399,31.209,2.764l-12.713-12.712C111.882,3387.099,111.879,3383.268,109.519,3380.908z"/>
	<path d="M115.264,3383.667l5.104,0.315c0.129-2.562,0.062-4.985-0.698-7.005c-1.919-4.721-6.636-7.52-12.223-7.383l-0.27-0.008
		l-0.31,5.021l0.272,0.019C113.724,3374.926,115.329,3377.265,115.264,3383.667z"/>
	<path d="M129.488,3371.809c-2.699-8.486-13.671-13.765-20.493-13.227l-0.284-0.016l-0.32,5.205l0.281,0.014
		c6.204-0.311,13.574,3.563,15.848,9.915c1.02,3.129,1.14,6.004,1.006,8.777l5.357,0.321
		C131.032,3379.857,130.845,3376.445,129.488,3371.809z"/>
</g>
<g>
	<polygon points="367.608,3359.289 367.608,3362.797 370.428,3362.797 370.428,3365.696 373.174,3365.696 373.174,3368.289 
		376.403,3368.289 376.403,3396.357 379.453,3396.357 379.453,3368.289 382.633,3368.289 382.633,3365.696 385.377,3365.696 
		385.377,3362.797 388.199,3362.797 388.199,3359.289 	"/>
	<rect x="382.811" y="3389.797" width="5.338" height="6.56"/>
	<rect x="392.268" y="3384.306" width="5.338" height="12.051"/>
	<rect x="401.42" y="3378.051" width="5.34" height="18.306"/>
	<rect x="410.268" y="3371.339" width="5.34" height="25.018"/>
</g>
<g>
	<rect x="500.575" y="3388.053" width="7.619" height="9.362"/>
	<rect x="514.073" y="3380.215" width="7.62" height="17.2"/>
	<rect x="527.519" y="3371.288" width="7.62" height="26.128"/>
	<rect x="540.953" y="3361.708" width="7.622" height="35.708"/>
</g>
<g>
	<path d="M688.988,3393.205c-1.176,3.299-4.803,5.021-8.102,3.844l-13.938-4.964c-3.299-1.178-5.021-4.804-3.845-8.102l7.981-22.4
		c1.176-3.298,4.803-5.021,8.102-3.844l13.937,4.965c3.299,1.176,5.021,4.803,3.845,8.1L688.988,3393.205z"/>
	<path fill="#FFFFFF" d="M685.53,3390.711c-0.392,1.098-1.603,1.672-2.701,1.281l-14.187-5.057c-1.1-0.392-1.674-1.6-1.281-2.699
		l7.183-20.16c0.392-1.1,1.602-1.673,2.701-1.28l14.185,5.055c1.102,0.392,1.675,1.599,1.283,2.7L685.53,3390.711z"/>
	
		<rect x="661.411" y="3354.84" transform="matrix(0.9375 0.3479 -0.3479 0.9375 1210.5852 -20.5068)" width="1.979" height="12.308"/>
	
		<rect x="665.861" y="3353.613" transform="matrix(0.9312 0.3646 -0.3646 0.9312 1271.8027 -11.6851)" width="1.977" height="18.059"/>
	
		<rect x="696.417" y="3388.568" transform="matrix(0.9356 0.353 -0.353 0.9356 1243.2937 -27.6338)" width="1.978" height="12.308"/>
	
		<rect x="691.98" y="3384.011" transform="matrix(0.9419 0.3359 -0.3359 0.9419 1179.8654 -35.6416)" width="1.977" height="18.059"/>
</g>
<g>
	<rect x="92.363" y="3499.49" width="23.52" height="38.677"/>
	<rect x="95.963" y="3503.497" fill="#FFFFFF" width="16.667" height="16.727"/>
	<g>
		<rect x="96.167" y="3524.317" fill="#FFFFFF" width="2.787" height="2.787"/>
		<rect x="103.135" y="3524.317" fill="#FFFFFF" width="2.788" height="2.787"/>
		<rect x="110.017" y="3524.317" fill="#FFFFFF" width="2.787" height="2.787"/>
		<rect x="96.253" y="3531.199" fill="#FFFFFF" width="2.788" height="2.787"/>
		<rect x="103.222" y="3531.199" fill="#FFFFFF" width="2.788" height="2.787"/>
		<rect x="110.105" y="3531.199" fill="#FFFFFF" width="2.787" height="2.787"/>
	</g>
	<polygon points="82.823,3536.061 81.345,3534.583 86.149,3529.779 80.224,3524.329 86.073,3519.883 80.589,3514.4 86.136,3509.086 
		80.443,3503.799 81.865,3502.267 89.183,3509.062 83.578,3514.432 89.245,3520.098 83.478,3524.481 89.169,3529.715 	"/>
	<polygon points="125.624,3536.061 127.103,3534.583 122.299,3529.779 128.224,3524.329 122.374,3519.883 127.859,3514.4 
		122.312,3509.086 128.005,3503.799 126.582,3502.267 119.265,3509.062 124.869,3514.432 119.202,3520.098 124.97,3524.481 
		119.279,3529.715 	"/>
</g>
<g>
	<text transform="matrix(1 0 0 1 655.6155 3443.7095)" font-family="'SegoeUI'" font-size="12">Vibrate</text>
</g>
<g>
	<text transform="matrix(1 0 0 1 84.1438 3571.2026)" font-family="'SegoeUI'" font-size="12">Vibrate</text>
</g>
</svg>
