<?xml version="1.0" encoding="utf-8"?>
<!-- Generator: Adobe Illustrator 15.1.0, SVG Export Plug-In . SVG Version: 6.00 Build 0)  -->
<!DOCTYPE svg PUBLIC "-//W3C//DTD SVG 1.1//EN" "http://www.w3.org/Graphics/SVG/1.1/DTD/svg11.dtd">
<svg version="1.1" id="Layer_1" xmlns="http://www.w3.org/2000/svg" xmlns:xlink="http://www.w3.org/1999/xlink" x="0px" y="0px"
	 width="576px" height="1692px" viewBox="0 0 576 1692" enable-background="new 0 0 576 1692" xml:space="preserve">
<g>
	<ellipse cx="75.894" cy="152.503" rx="24" ry="13.66"/>
	<path d="M70.559,164.933c0,0-1.191,5.591-4.696,7.604c0,0,6.075,0.447,11.965-7.193L70.559,164.933z"/>
</g>
<g>
	<ellipse cx="394.649" cy="154.291" rx="24" ry="14.741"/>
	<path d="M409.634,164.708c0,0,1.341,3.045-0.73,7.127c0,0,7.856-4.938,9.686-16.479l-7.37,6.001L409.634,164.708z"/>
</g>
<g>
	<ellipse cx="76.041" cy="253.574" rx="24" ry="14.586"/>
	<ellipse cx="66.729" cy="273.719" rx="7.436" ry="4.631"/>
	<ellipse cx="59.586" cy="282.568" rx="3.566" ry="2.143"/>
</g>
<g>
	<ellipse cx="493.693" cy="142.569" rx="7.654" ry="4.276"/>
	<ellipse transform="matrix(0.1865 -0.9824 0.9824 0.1865 271.652 618.2448)" cx="509.167" cy="145.079" rx="5.887" ry="8.798"/>
	<ellipse cx="518.291" cy="154.561" rx="4.83" ry="6.59"/>
	<ellipse cx="482.688" cy="149.074" rx="7.047" ry="6.821"/>
	<ellipse cx="482.428" cy="156.23" rx="7.306" ry="7.688"/>
	<ellipse cx="495.178" cy="161.244" rx="11.081" ry="8.164"/>
	<ellipse cx="508.796" cy="160.594" rx="9.497" ry="7.123"/>
	<path d="M502.086,167.115c0,0,3.246,3.773-1.558,5.912c0,0,5.067,1.107,8.419-5.912l-3.643-2.93l-3.246,1.188L502.086,167.115z"/>
	<ellipse cx="500.183" cy="151.039" rx="15.729" ry="8.209"/>
</g>
<g>
	<path d="M201.392,248.385c-0.345-0.012-0.684,0.027-1.012,0.111c0.278-0.418,0.479-0.877,0.59-1.371
		c0.712-3.17-2.552-6.6-7.289-7.664c-3.869-0.869-7.525,0.113-9.122,2.229c-0.558-2.027-3.642-3.658-7.413-3.783
		c-4.222-0.139-7.707,1.658-7.785,4.018c-0.006,0.182,0.01,0.359,0.042,0.535c-0.991-0.574-2.143-0.922-3.379-0.963
		c-3.887-0.129-7.139,2.816-7.263,6.58c-0.035,1.049,0.177,2.049,0.585,2.951c-0.798,1.186-1.287,2.619-1.339,4.178
		c-0.141,4.24,3.012,7.787,7.041,7.92c0.741,0.025,1.459-0.068,2.14-0.262c1.253,3.408,5.402,6,10.411,6.166
		c3.364,0.111,6.413-0.896,8.501-2.572c1.468,0.783,3.237,1.27,5.155,1.332c4.988,0.166,9.173-2.588,9.673-6.244
		c0.009,0.002,0.019,0.002,0.028,0.002c2.664,0.088,4.921-2.787,5.041-6.422C206.117,251.491,204.056,248.473,201.392,248.385z"/>
	<path d="M179.626,273.533c-0.096,0.008-0.188,0.027-0.274,0.059c0.064-0.121,0.106-0.254,0.124-0.393
		c0.107-0.891-0.885-1.742-2.217-1.902c-1.087-0.131-2.064,0.24-2.444,0.865c-0.21-0.541-1.103-0.902-2.143-0.832
		c-1.164,0.078-2.071,0.67-2.027,1.32c0.004,0.049,0.014,0.098,0.026,0.146c-0.288-0.131-0.614-0.195-0.955-0.172
		c-1.071,0.072-1.883,0.973-1.813,2.01c0.021,0.289,0.105,0.559,0.242,0.795c-0.186,0.348-0.279,0.756-0.251,1.187
		c0.079,1.17,1.044,2.057,2.155,1.979c0.204-0.014,0.397-0.059,0.58-0.131c0.438,0.9,1.65,1.498,3.032,1.404
		c0.928-0.063,1.736-0.424,2.265-0.943c0.425,0.174,0.925,0.176,1.453,0.141c1.376-0.094,2.449-1.066,2.483-2.066
		c0.004,0,0.007,0,0.01,0c0.733,0,1.273-0.822,1.206-1.824C181.01,274.174,180.36,273.484,179.626,273.533z"/>
	<path d="M170.29,282.387c-0.045,0.004-0.088,0.014-0.129,0.031c0.029-0.066,0.049-0.139,0.057-0.213
		c0.045-0.484-0.423-0.951-1.046-1.045c-0.509-0.076-0.963,0.119-1.138,0.457c-0.102-0.295-0.521-0.496-1.006-0.463
		c-0.543,0.037-0.964,0.354-0.939,0.705c0.002,0.027,0.006,0.055,0.013,0.08c-0.135-0.072-0.288-0.107-0.446-0.098
		c-0.501,0.035-0.875,0.52-0.837,1.082c0.012,0.156,0.054,0.305,0.117,0.434c-0.085,0.188-0.127,0.408-0.11,0.641
		c0.044,0.637,0.499,1.123,1.018,1.088c0.095-0.008,0.186-0.031,0.271-0.07c0.211,0.492,0.779,0.822,1.425,0.779
		c0.433-0.029,0.81-0.221,1.053-0.5c0.199,0.096,0.434-0.034,0.681-0.052c0.643-0.043,1.14-0.243,1.15-1.243
		c0.001,0,0.002,0,0.004,0c0.343,0,0.591-0.305,0.554-0.849C170.94,282.606,170.633,282.363,170.29,282.387z"/>
</g>
<g>
	<path d="M206,158.33c0,4.236-3.435,7.67-7.67,7.67h-32.66c-4.236,0-7.67-3.434-7.67-7.67v-12.66c0-4.236,3.434-7.67,7.67-7.67
		h32.66c4.235,0,7.67,3.434,7.67,7.67V158.33z"/>
	<polygon points="192.417,165 190.539,173.07 196.852,165 	"/>
</g>
<g>
	<path d="M309,162.315c0,2.035-1.649,3.685-3.686,3.685h-40.631c-2.035,0-3.685-1.649-3.685-3.685v-23.631
		c0-2.035,1.648-3.685,3.685-3.685h40.631c2.035,0,3.686,1.649,3.686,3.685V162.315z"/>
	<polygon points="281.835,165 277.128,175.763 290.022,165 	"/>
</g>
<polygon points="197.478,847.264 186.515,839.992 183.692,852.842 179.099,840.516 169.263,849.252 172.79,836.578 159.698,837.865 
	170.003,829.688 158.653,823.033 171.796,822.473 166.526,810.418 177.489,817.689 180.312,804.842 184.905,817.168 
	194.741,808.432 191.214,821.104 204.306,819.816 194.003,827.996 205.351,834.65 192.208,835.211 "/>
<polygon points="487.121,283 475.121,262 487.121,241 511.121,241 523.121,262 511.121,283 "/>
<rect x="267.885" y="244.875" transform="matrix(-0.7071 -0.7071 0.7071 -0.7071 301.1212 648.4202)" width="33.94" height="33.94"/>
<g>
	<ellipse cx="285.321" cy="810.949" rx="6.896" ry="6.108"/>
	<ellipse transform="matrix(0.7071 -0.7071 0.7071 0.7071 -489.4233 448.2284)" cx="296.348" cy="814.9" rx="6.107" ry="6.896"/>
	<ellipse transform="matrix(0.9985 -0.0556 0.0556 0.9985 -45.3156 18.0719)" cx="302.366" cy="824.04" rx="6.099" ry="6.887"/>
	<ellipse transform="matrix(0.9977 0.0682 -0.0682 0.9977 57.6309 -18.6645)" cx="302.135" cy="834.604" rx="6.099" ry="7.021"/>
	<ellipse transform="matrix(0.6459 0.7634 -0.7634 0.6459 748.5264 73.053)" cx="295.51" cy="843.463" rx="6.098" ry="7.021"/>
	<ellipse transform="matrix(-0.0073 1 -1 -0.0073 1133.6787 567.994)" cx="284.904" cy="846.721" rx="6.098" ry="7.022"/>
	
		<ellipse transform="matrix(-0.5591 0.8291 -0.8291 -0.5591 1127.1838 1086.8109)" cx="274.63" cy="843.102" rx="6.099" ry="7.021"/>
	<ellipse transform="matrix(-0.8782 0.4783 -0.4783 -0.8782 903.0809 1438.696)" cx="268.341" cy="834.344" rx="6.098" ry="7.023"/>
	<ellipse transform="matrix(-0.9208 -0.3901 0.3901 -0.9208 194.3347 1685.531)" cx="268.338" cy="823.03" rx="6.098" ry="7.022"/>
	<ellipse transform="matrix(-0.7896 -0.6137 0.6137 -0.7896 -8.2025 1625.8503)" cx="274.663" cy="814.332" rx="6.099" ry="7.022"/>
	<circle cx="285.321" cy="828.387" r="15.959"/>
</g>
<circle cx="285" cy="484.049" r="24"/>
<rect x="371" y="460" width="48" height="48"/>
<path d="M100,619.616c0,2.974-2.41,5.384-5.384,5.384H57.384c-2.973,0-5.384-2.41-5.384-5.384v-37.232
	c0-2.974,2.411-5.384,5.384-5.384h37.232c2.974,0,5.384,2.41,5.384,5.384V619.616z"/>
<polygon points="499.121,462.933 511.121,483.967 523.121,505 499.121,505 475.121,505 487.121,483.967 "/>
<path d="M307.966,580c1.145,0,1.612,0.996,1.041,1.988l-22.715,39.434c-0.572,0.99-1.511,1.038-2.082,0.046l-22.715-39.505
	c-0.572-0.99-0.104-1.963,1.041-1.963H307.966z"/>
<g>
	<path d="M393.177,237.849c0,0,2.823,4.867,2.823,10.347v6.101l2.669,20.758c0,0,2.049,2.159-1.023,10.794
		c0,0-3.023-3.986-4.257-8.469l-3.417-30.141C389.972,247.238,391.505,240.333,393.177,237.849z"/>
	<path d="M404.689,239.921c0,0,0.349,5.669-2.035,10.606l-2.816,5.411l-7.462,19.518c0,0,0.7,2.799-6.013,9.04
		c0,0-0.9-4.963,0.074-9.51l10.982-28.264C397.42,246.722,402.06,241.353,404.689,239.921z"/>
	<path d="M413.281,246.434c0,0-2.164,5.251-6.466,8.65l-4.898,3.635l-15.242,14.295c0,0-0.593,2.824-9.358,5.502
		c0,0,1.358-4.858,4.225-8.521l22.23-20.622C403.771,249.374,410.29,246.571,413.281,246.434z"/>
	<path d="M418.092,255.766c0,0-4.195,3.828-9.535,5.069l-5.981,1.2l-19.881,6.436c0,0-1.739,2.302-10.811,0.989
		c0,0,3.299-3.815,7.452-5.908l28.898-9.181C408.235,254.372,415.327,254.615,418.092,255.766z"/>
	<path d="M418.478,266.201c0,0-5.423,1.688-10.786,0.548l-5.926-1.449l-20.733-2.601c0,0-2.552,1.347-10.211-3.688
		c0,0,4.606-2.057,9.255-2.191l30.065,3.939C410.142,260.759,416.461,263.987,418.478,266.201z"/>
	<path d="M414.461,275.731c0,0-5.631-0.747-10.019-4.034l-4.769-3.804l-17.724-11.071c0,0-2.882,0.15-7.717-7.636
		c0,0,5.044,0.068,9.318,1.9l25.629,16.205C409.183,267.291,413.562,272.875,414.461,275.731z"/>
	<path d="M406.857,282.667c0,0-4.803-3.033-7.413-7.854l-2.741-5.451l-11.469-17.467c0,0-2.681-1.068-3.814-10.164
		c0,0,4.553,2.171,7.67,5.623l16.503,25.438C405.592,272.792,407.234,279.696,406.857,282.667z"/>
</g>
<path d="M180.949,576.934c3.515,4.15,5.625,9.47,5.625,15.269c0,13.271-11.059,24.029-24.697,24.029
	c-0.592,0-1.178-0.021-1.76-0.062c4.529,5.353,11.392,8.764,19.072,8.764c13.641,0,24.697-10.76,24.697-24.03
	C203.888,588.205,193.768,577.811,180.949,576.934z"/>
<g>
	<path d="M519.416,601.203c0.054-8.271-7.199-10.668-11.883-14.178c-4.281-3.209-7.949-8.218-8.391-10.047
		c-0.518,1.868-3.812,6.75-8.438,9.956c-4.771,3.31-11.936,5.906-11.881,14.179c0.097,15.063,15.031,18.09,20.285,5.11
		C504.122,618.686,519.317,616.303,519.416,601.203z"/>
	<path d="M498.255,604.303c0,0,2.386,16.322-14.102,20.676h29.937c0,0-14.101-3.252-14.317-20.606L498.255,604.303z"/>
</g>
<g>
	<ellipse cx="181.378" cy="363.889" rx="12.156" ry="11.844"/>
	<ellipse cx="170.158" cy="378.85" rx="12.155" ry="11.844"/>
	<ellipse cx="193.847" cy="378.227" rx="12.155" ry="11.844"/>
	<path d="M181.276,380.237c0,0,2.286,15.637-13.505,19.809h28.674c0,0-13.507-3.117-13.715-19.741L181.276,380.237z"/>
</g>
<polygon points="75.229,352.045 95.019,376.266 76.41,400.046 57.063,378.04 "/>
<path d="M376.383,609.463c2.523,2.396,5.283,4.359,7.601,5.971c5.885,4.086,10.073,6.994,10.728,9.369
	c0.563-2.326,5.236-5.381,10.691-9.461c5.962-4.461,15.204-10.813,15.147-21.34c-0.104-19.219-19.439-22.275-25.837-6.424
	c-6.668-16.523-25.684-12.693-25.827,6.479C368.835,600.566,372.3,605.584,376.383,609.463"/>
<path d="M370.649,362.85c0,0,19.958,6.786,48,0c0,0-6.786,12.773,0,26.345c0,0-25.847-6.807-48,0
	C370.649,389.195,377.035,377.021,370.649,362.85z"/>
<polygon points="475.121,362.877 498.987,366.922 523.121,362.877 517.594,376.045 523.121,389.17 499.121,384.719 475.121,389.17 
	480.381,376.023 "/>
<polygon points="285.41,356.722 287.937,364.705 298.143,352.983 295.818,365.715 307.742,363.189 297.436,370.97 308.854,372.486 
	298.648,377.74 306.44,384.208 295.313,382.895 301.983,396.08 288.644,386.229 277.73,399.063 282.682,383.197 266.614,391.585 
	277.831,379.863 260.854,377.539 276.215,374.305 267.423,367.44 278.539,368.242 269.949,356.217 283.794,365.21 "/>
<path d="M51.894,718h6.701c0,0,2.529-0.235,2.188-3.38c0,0,0.204-2.683,3.966-3.092c0,0,25.847-2.745,26.188,2.384
	c0,0-0.479,4.088,2.051,3.088h6.906l-3.486,2.957c0,0,3.281,2.685,3.486,3.23c0,0-9.299,1.034-8.957-1.563
	c0,0,1.437-3.471-4.513-4.604c0,0-22.086-1.885-25.026,1.81c0,0-0.684,0.684-0.547,2.872c0,0,0.273,1.972-3.282,1.704L51.894,723
	c0,0,2.887-2.328,3.563-2.604L51.894,718z"/>
<polygon points="182.002,694.197 189.418,709.225 206.002,711.635 194.002,723.332 196.835,739.848 182.002,732.05 167.169,739.848 
	170.002,723.332 158.002,711.635 174.586,709.225 "/>
<rect x="268" y="699" width="35" height="36"/>
<ellipse cx="285.23" cy="734.332" rx="17.458" ry="6.691"/>
<ellipse cx="285.349" cy="698.117" rx="17.452" ry="5.094"/>
<path fill="#FFFFFF" d="M285.35,701.893c-10.645,0-16.134-2.646-16.134-3.774s5.489-3.775,16.134-3.775
	c10.646,0,16.134,2.646,16.134,3.775S295.994,701.893,285.35,701.893z"/>
<polygon points="370.649,702.055 389.281,693.021 399.319,706.531 394.649,708.229 407.343,719.801 403.535,721.602 
	418.649,741.023 392.94,725.973 397.701,723.967 382.14,714.555 387.437,711.674 "/>
<g>
	<circle cx="499.121" cy="717.378" r="24"/>
	<rect x="499" y="694" width="24" height="26"/>
</g>
<g>
	<circle cx="75.894" cy="828.842" r="24"/>
	<circle fill="#FFFFFF" cx="75.894" cy="828.842" r="19.637"/>
	<rect x="73" y="808" width="5" height="42"/>
	<rect x="67.396" y="826.7" transform="matrix(-0.7895 -0.6138 0.6138 -0.7895 -389.507 1541.25)" width="4.364" height="21.455"/>
	
		<rect x="80.675" y="826.635" transform="matrix(0.7895 -0.6138 0.6138 0.7895 -496.5291 227.1552)" width="4.364" height="21.454"/>
</g>
<path d="M76.041,496c13.255,0,24-11,24-24h-48C52.041,485,62.786,496,76.041,496z"/>
<ellipse cx="182.002" cy="484.049" rx="22.5" ry="13.5"/>
<path d="M100.531,951.116c-0.008-6.647-3-12.881-8.976-14.547C89.889,930.593,83.248,928,76.599,928h-0.055
	c-6.649,0-13.292,2.593-14.958,8.569c-5.977,1.666-8.967,8.104-8.976,14.752c-0.009,0.009-0.015-0.083-0.021-0.075
	c0.007,0.01,0.013-0.032,0.021-0.023c0.009,6.649,3,13.713,8.976,15.379c1.667,5.978,8.309,9.398,14.958,9.398H76.6
	c6.648,0,13.289-3.447,14.956-9.424c5.977-1.666,8.968-8.531,8.977-15.18c0.008-0.01,0.015-0.132,0.021-0.142
	C100.546,951.248,100.539,951.126,100.531,951.116z"/>
<path d="M207.441,951.777c0-3.33-1.442-6.326-3.73-8.396c0.156-3.084-0.94-6.22-3.299-8.576c-2.355-2.354-5.49-3.454-8.573-3.296
	c-2.069-2.293-5.067-3.734-8.396-3.734s-6.324,1.441-8.393,3.734c-3.084-0.158-6.221,0.941-8.578,3.296
	c-2.354,2.356-3.451,5.492-3.298,8.576c-2.291,2.068-3.728,5.064-3.728,8.396s1.437,6.325,3.728,8.395
	c-0.152,3.083,0.944,6.223,3.298,8.575c2.357,2.354,5.494,3.452,8.578,3.298c2.068,2.291,5.063,3.73,8.393,3.73
	s6.327-1.439,8.396-3.73c1.621,0.082,3.254-0.188,4.784-0.797c0,0,1.869-0.475,3.911-2.425c2.41-2.3,3.333-5.568,3.174-8.651
	C205.998,958.104,207.441,955.108,207.441,951.777z"/>
<path d="M308.55,951.683c0-2.395-1.564-4.422-3.728-5.12c0.78-1.753,0.596-3.868-0.663-5.488c-1.313-1.69-3.432-2.385-5.391-1.961
	c-0.032-2.172-1.385-4.199-3.549-4.982c-2.132-0.771-4.433-0.111-5.853,1.486c-0.882-1.77-2.706-2.984-4.817-2.984
	c-2.11,0-3.937,1.216-4.817,2.984c-1.42-1.599-3.72-2.258-5.853-1.486c-2.163,0.783-3.518,2.812-3.548,4.982
	c-1.96-0.424-4.078,0.271-5.391,1.961c-1.259,1.62-1.443,3.735-0.664,5.488c-2.163,0.698-3.728,2.727-3.728,5.12
	c0,2.395,1.563,4.423,3.728,5.12c-0.779,1.754-0.595,3.869,0.664,5.492c1.313,1.689,3.431,2.383,5.391,1.958
	c0.03,2.174,1.385,4.2,3.548,4.983c2.133,0.77,4.433,0.111,5.853-1.486c0.882,1.77,2.707,2.985,4.817,2.985
	c2.111,0,3.936-1.217,4.817-2.985c1.42,1.599,3.721,2.256,5.853,1.486c2.164-0.783,3.517-2.811,3.549-4.983
	c1.959,0.425,4.078-0.269,5.391-1.958c1.259-1.623,1.443-3.738,0.663-5.492C306.986,956.105,308.55,954.077,308.55,951.683z"/>
<path d="M207.443,1044.958c0-7.112-5.632-12.889-12.493-12.889h-22.981c-6.892,0-12.524,5.775-12.524,12.889
	c0,7.08,5.634,12.854,12.524,12.854h19.938l0.238,0.758c0.417,1.882,0.521,5.628-3.269,7.568c0.692,0,1.335-0.086,1.937-0.272
	c4.409-1.376,5.777-4.697,5.821-8.172C202.708,1056.841,207.443,1051.448,207.443,1044.958"/>
<path d="M307.131,1044.52c1.936-1.364,0.373-4.67-2.013-3.774c1.267-2.063-1.415-4.371-3.253-2.781
	c0.147-2.137-2.658-3.155-3.925-1.439c0.101-2.312-3.03-3.031-4.05-1.119c0.049-1.938-2.434-3.03-3.799-1.489l-0.148,0.174
	c-0.423-1.813-3.03-2.286-4-0.547c-0.721-1.788-3.526-1.788-4.072,0.248c-0.896-1.912-4.073-1.59-4.124,0.771
	c-0.944-1.938-4.1-1.416-4.124,0.895c-1.341-1.813-4.122-0.521-3.898,1.515c-1.688-1.737-4.397,0.298-3.576,2.335
	c-2.138-1.341-4.25,1.49-2.783,3.229c-2.409-0.646-3.7,2.707-1.663,3.949c-2.162,1.116-1.02,4.421,1.291,4.073
	c-2.285,1.838,0.671,5.041,2.73,3.354c-0.944,2.161,1.813,3.924,3.428,2.482c-0.148,2.062,2.458,3.057,3.776,1.564
	c0.074,2.211,3.03,2.857,4.049,0.995c0.272,2.21,3.378,2.558,4.172,0.521c0.397,2.312,3.775,2.36,4.247,0.075
	c0.174,2.632,4.149,2.632,4.323,0c0.865,2.073,4.059,1.568,4.168-0.708c0.154,1.411,0.314,5.38-2.479,7.141
	c0.571,0,1.093-0.073,1.591-0.224c3.643-1.017,5.097-5.055,4.669-8.483v-0.061c1.714,1.539,4.222-0.423,3.453-2.385
	c1.563,1.342,4.172-0.199,3.478-2.312c2.334,0.723,3.75-2.384,1.963-3.774C308.893,1048.594,309.291,1045.29,307.131,1044.52"/>
<path d="M407.826,1037.51c-1.277,0-2.492,0.25-3.613,0.687c-2.556-2.896-6.292-4.704-10.469-4.704
	c-4.173,0-7.879,1.808-10.434,4.704c-1.122-0.437-2.337-0.687-3.613-0.687c-5.483,0-9.936,4.454-9.936,9.938
	c0,5.448,4.452,9.902,9.936,9.902c1.276,0,2.491-0.245,3.613-0.685c2.554,2.896,6.261,4.705,10.434,4.705
	c3.103,0,5.959-0.999,8.272-2.699c0.309,1.599,0.268,4.509-2.736,6.046c0.575,0,1.103-0.071,1.6-0.227
	c3.906-1.222,4.919-4.291,4.793-7.38c0.69,0.152,1.409,0.238,2.152,0.238c5.481,0,9.938-4.454,9.938-9.902
	C417.764,1041.964,413.309,1037.51,407.826,1037.51"/>
<path d="M97.627,1046.174c0-11.638-9.435-21.068-21.068-21.068c-11.639,0-21.07,9.432-21.07,21.068
	c0,11.633,9.433,21.067,21.07,21.067c2.215,0,4.351-0.347,6.359-0.981c0.119,2.831-1.199,5.209-3.351,6.846
	c6.146-1.548,8.867-7.138,9.947-10.328C94.447,1058.922,97.627,1052.919,97.627,1046.174"/>
<path d="M300.746,1127.178c-0.958,0-1.854,0.117-2.684,0.326c0.064-0.326,0.126-0.623,0.126-0.979c0-2.938-3.52-5.341-7.868-5.341
	c-2.269,0-4.315,0.652-5.754,1.721c-1.439-1.067-3.485-1.721-5.756-1.721c-4.317,0-7.836,2.403-7.836,5.341
	c0,0.356,0.032,0.653,0.128,0.979c-0.863-0.209-1.76-0.326-2.718-0.326c-4.317,0-7.835,2.402-7.835,5.34
	c0,2.969,3.518,5.369,7.835,5.369c0.991,0,1.919-0.117,2.75-0.354c-0.096,0.386-0.161,0.771-0.161,1.156
	c0,2.967,3.519,5.37,7.836,5.37c1.542,0,2.973-0.318,4.188-0.847c0.218,1.672,1.2,5.343,5.598,6.454c0,0-3.552-2.742-2.409-6.433
	c1.203,0.514,2.618,0.824,4.134,0.824c4.35,0,7.868-2.404,7.868-5.37c0-0.387-0.063-0.771-0.191-1.156
	c0.863,0.236,1.791,0.354,2.749,0.354c4.288,0,7.805-2.401,7.805-5.369C308.55,1129.58,305.034,1127.178,300.746,1127.178"/>
<path d="M202.918,1276.968H163.98c-2.497,0-4.537,2.138-4.537,4.771c0,2.619,2.04,4.758,4.537,4.758h35.987l0.103,0.328
	c0.185,0.832,0.23,2.496-1.452,3.357c0.309,0,0.593-0.037,0.86-0.119c1.931-0.605,2.548-2.047,2.582-3.566h0.857
	c2.485,0,4.524-2.139,4.524-4.758C207.443,1279.104,205.404,1276.968,202.918,1276.968z"/>
<path d="M523.125,942.972c-0.771-6.96-4.949-8.597-10.064-8.754c-4.025-0.132-8.867-0.15-13.666-0.141
	c-4.799-0.011-9.643,0.009-13.668,0.141c-5.113,0.157-9.293,1.794-10.064,8.754c-0.375,3.466-0.375,6.994,0,10.46
	c0.771,6.959,4.951,8.598,10.064,8.754c0.369,0.014,0.752,0.022,1.133,0.032c0.26,3.016,1.859,5.97,4.971,6.839
	c0.523,0.156,1.076,0.236,1.681,0.236c-2.479-1.563-2.756-4.769-2.685-6.639l0.025-0.36c2.738,0.033,5.646,0.038,8.543,0.031
	c4.799,0.011,9.641-0.007,13.666-0.14c5.115-0.157,9.295-1.796,10.064-8.755C523.471,950.252,523.461,946.057,523.125,942.972z"/>
<path d="M417.762,951.685c0-3.331-1.442-6.325-3.73-8.396c0.154-3.084-0.94-6.219-3.299-8.576c-2.355-2.354-5.49-3.453-8.574-3.296
	c-2.069-2.292-5.066-3.733-8.396-3.733c-3.331,0-6.323,1.441-8.394,3.733c-3.084-0.157-6.221,0.941-8.578,3.296
	c-2.354,2.357-3.451,5.492-3.298,8.576c-2.291,2.069-3.729,5.064-3.729,8.396c0,3.332,1.438,6.324,3.729,8.395
	c-0.153,3.085,0.944,6.223,3.298,8.576c2.357,2.354,5.494,3.453,8.578,3.298c2.07,2.29,5.063,3.73,8.394,3.73
	c3.33,0,6.326-1.44,8.396-3.73c1.621,0.08,3.255-0.188,4.785-0.798l5.668,4.31l-2.176-6.528c0.1-0.092,0.201-0.184,0.297-0.28
	c2.357-2.354,3.453-5.491,3.295-8.576C416.319,958.009,417.762,955.016,417.762,951.685z"/>
<path d="M99.062,1136.501l-3.131-13.722c-0.408-1.772-2.077-3.869-3.716-4.656l-12.677-6.109c-1.642-0.785-4.32-0.785-5.96,0
	l-12.678,6.109c-1.638,0.787-3.311,2.884-3.715,4.656l-3.134,13.722c-0.402,1.771,0.194,4.389,1.326,5.806l8.775,11.004
	c1.135,1.421,3.551,2.589,5.367,2.589h14.075c1.154,0,2.545-0.474,3.7-1.181l6.189,4.706l-2.771-8.314l7.02-8.804
	C98.87,1140.89,99.465,1138.271,99.062,1136.501"/>
<path d="M203.582,1127.82c0.033-1.088-0.275-2.192-0.961-3.143c-1.44-1.995-4.063-2.635-6.227-1.67
	c0.071-1.936-0.977-3.831-2.814-4.741c-1.858-0.929-3.987-0.61-5.492,0.62c-0.834-1.842-2.728-3.103-4.881-3.029
	c-1.982,0.09-3.656,1.317-4.43,3.03c-1.498-1.231-3.61-1.55-5.472-0.621c-1.838,0.91-2.887,2.809-2.828,4.745
	c-2.143-0.97-4.771-0.332-6.211,1.666c-0.687,0.949-0.994,2.055-0.965,3.143c-2.217,0.557-3.858,2.555-3.858,4.945
	c0,2.395,1.642,4.393,3.859,4.949c-0.036,1.1,0.271,2.217,0.963,3.171c1.439,1.972,4.068,2.604,6.211,1.636
	c-0.063,1.946,0.985,3.841,2.828,4.776c1.006,0.488,2.085,0.616,3.103,0.44c0.317,3.1,1.903,6.032,5.392,6.996
	c0.576,0.16,1.172,0.26,1.828,0.26c-3.898-1.815-3.984-4.872-3.909-6.937c0.88,0.94,2.109,1.556,3.488,1.617
	c2.154,0.098,4.05-1.16,4.883-3.017c1.505,1.221,3.632,1.542,5.49,0.639c1.843-0.936,2.892-2.829,2.814-4.774
	c2.164,0.966,4.786,0.33,6.227-1.638c0.69-0.954,0.999-2.072,0.961-3.171c2.217-0.556,3.861-2.556,3.861-4.949
	C207.443,1130.374,205.799,1128.376,203.582,1127.82z"/>
<path d="M207.443,1212.864c-3.401-0.817-4.764-4.945-5.488-9.074c-0.59-3.267-3.722-6.171-8.122-6.488
	c-4.173-0.316-8.619-0.726-10.39-3.72c-1.769,2.994-6.215,3.402-10.39,3.72c-4.401,0.317-7.532,3.223-8.121,6.488
	c-0.726,4.129-2.086,8.257-5.49,9.074c3.403,0.814,4.765,4.943,5.49,9.073c0.589,3.266,3.72,6.168,8.121,6.487
	c4.174,0.271,8.621,0.728,10.39,3.722c1.771-2.994,6.216-3.449,10.39-3.722c4.4-0.318,7.533-3.223,8.122-6.487
	C202.68,1217.809,204.041,1213.68,207.443,1212.864z"/>
<path d="M85.336,1194.238c6.354,6.839,13.034,13.624,14.002,22.187c0.917,8.025-4.416,11.636-10.61,13.572
	c-4.361,1.347-10.231,1.022-11.901,6.625c-0.161,0.323-0.376,0.323-0.539,0c-1.669-5.603-7.539-5.278-11.849-6.625
	c-6.248-1.938-11.58-5.547-10.664-13.572c0.972-8.563,7.702-15.348,14.003-22.187C74.457,1187.073,78.657,1187.073,85.336,1194.238z
	"/>
<path d="M305.564,1215.761c8.112-11.877-1.689-21.342-12.843-18.782c-1.353-3.234-4.443-5.455-8.161-5.455
	c-3.67,0-6.808,2.221-8.16,5.455c-11.153-2.56-21.004,6.905-12.844,18.782c4.828,5.987,14.534,13.037,21.004,18.445
	C287.071,1232.129,301.17,1222.183,305.564,1215.761z"/>
<path d="M75.387,1272.602c4.643-0.522,8.92,1.896,10.979,5.771c0.604-0.281,1.25-0.443,1.978-0.525
	c3.915-0.401,7.466,2.424,7.911,6.379c0,0.041,0,0.119,0.041,0.16l0,0c2.098-0.241,3.995,1.291,4.237,3.433
	c0.242,2.1-1.291,3.996-3.391,4.237c-1.412,0.16-2.705-0.444-3.512-1.452c-1.009,0.807-2.3,1.37-3.712,1.532
	c-1.857,0.201-3.593-0.282-5.005-1.291c-1.735,2.019-4.238,3.392-7.104,3.713c-2.785,0.283-5.449-0.483-7.589-1.977
	c-1.049,0.766-2.34,1.289-3.753,1.451c-2.987,0.324-5.772-1.049-7.346-3.35c-0.564,0.442-1.291,0.768-2.099,0.848
	c-2.22,0.242-4.197-1.332-4.439-3.551c-0.243-2.222,1.333-4.199,3.552-4.441c0.688-0.08,1.372,0,1.938,0.242
	c0.929-2.865,3.471-5.086,6.659-5.449c0.727-0.08,1.454-0.041,2.1,0.041C68.485,1275.266,71.633,1273.006,75.387,1272.602z"/>
<path d="M519.28,1029.206c-5.479-5.408-14.347-5.479-19.898-0.146c-5.552-5.334-14.42-5.264-19.898,0.146
	c-5.408,5.479-5.479,14.348-0.145,19.9c-5.336,5.55-5.265,14.418,0.145,19.896c5.479,5.406,14.348,5.479,19.898,0.146
	c5.553,5.334,14.42,5.261,19.898-0.146c5.407-5.479,5.479-14.348,0.145-19.896C524.76,1043.554,524.688,1034.686,519.28,1029.206z"
	/>
<path d="M509.835,1114.895c4.269,1.205,5.196,5.709,2.784,9.329c4.454-1.114,9.932,0.046,10.676,5.104
	c0.789,5.152-3.993,8.402-8.17,10.49c3.248,2.923,3.854,7.426,0.649,10.442c-3.342,3.201-7.426,2.229-10.629-0.743
	c-1.623,4.179-5.012,7.705-9.7,7.103c-5.104-0.65-6.729-5.338-5.987-10.072l0.047-0.278c-4.549,1.209-12.624,1.765-13.971-3.99
	c-1.066-4.409,3.621-7.288,7.147-8.911l-0.232-0.188l-0.834-0.695c-6.73-6.22-1.765-14.619,7.056-10.767l0.974,0.508l0.046,0.048
	l-0.139-0.556c-0.834-7.846,7.658-10.352,11.649-3.808l0.371,0.79C503.614,1115.822,506.262,1113.919,509.835,1114.895z"/>
<path d="M417.764,1135.426c-2.518-1.161-4.568-3.021-5.963-5.884l-3.561-0.698l0.077-1.006c-2.284,0-4.723-0.193-6.813-1.857
	c-2.44-1.937-4.802-3.601-7.742-3.717c-2.981,0.116-5.342,1.78-7.742,3.717c-2.09,1.664-4.568,1.857-6.813,1.857l0.078,1.006
	l-3.562,0.698c-1.394,2.863-3.483,4.723-5.961,5.884c2.478,1.16,4.567,3.021,5.961,5.885l3.562,0.695l-0.078,1.007
	c2.246,0,4.724,0.192,6.813,1.857c2.4,1.937,4.761,3.6,7.742,3.717c2.94-0.116,5.302-1.78,7.742-3.717
	c2.091-1.665,4.528-1.857,6.813-1.857l-0.077-1.007l3.561-0.695C413.195,1138.445,415.246,1136.586,417.764,1135.426z"/>
<g>
	<path d="M499.396,1220.203c-6.428,0-12.856,1.347-19.284,3.349c-0.089-0.896-0.657-1.464-1.732-1.732
		c-2.661-0.27-3.978-2.661-2.152-5.83c0.389-0.658,1.076-0.927,0.657-2.271c2.721-1.077,6.249-2.243,9.357-2.931
		c1.315-0.271,2.003-0.747,1.675-2.541c1.194,0.27,2.898-1.106,3.407-2.093c1.556-2.931,4.365-4.813,8.072-4.813
		c3.677,0,6.518,1.884,8.042,4.813c0.538,0.985,2.242,2.361,3.408,2.093c-0.329,1.794,0.357,2.271,1.675,2.541
		c3.108,0.688,6.606,1.854,9.327,2.931c-0.389,1.345,0.299,1.613,0.688,2.271c1.824,3.169,0.509,5.562-2.151,5.83
		c-1.076,0.27-1.674,0.837-1.734,1.732C512.25,1221.55,505.823,1220.203,499.396,1220.203z"/>
	<g>
		<path d="M511.114,1208.813c0.359,0,0.628-0.299,0.628-0.629c0-0.328-0.269-0.627-0.628-0.627c-0.328,0-0.598,0.299-0.598,0.627
			C510.517,1208.515,510.785,1208.813,511.114,1208.813z"/>
		<path d="M487.676,1208.813c0.329,0,0.599-0.299,0.599-0.629c0-0.328-0.27-0.627-0.599-0.627c-0.359,0-0.628,0.299-0.628,0.627
			C487.048,1208.515,487.316,1208.813,487.676,1208.813z"/>
	</g>
	<g>
		<path d="M518.709,1224.39c0.358,0,0.627-0.27,0.627-0.599c0-0.358-0.269-0.628-0.627-0.628c-0.328,0-0.599,0.27-0.599,0.628
			C518.111,1224.12,518.381,1224.39,518.709,1224.39z"/>
		<path d="M480.053,1224.39c0.328,0,0.598-0.27,0.598-0.599c0-0.358-0.27-0.628-0.598-0.628c-0.359,0-0.629,0.27-0.629,0.628
			C479.424,1224.12,479.693,1224.39,480.053,1224.39z"/>
	</g>
</g>
<g>
	<path d="M393.765,1221.791c-7.063,0-10.393,2.531-18.718,2.431c1.397-2.063,0.799-3.829-0.7-5.429
		c-5.795-3.265-6.361-7.461-0.167-9.325c1.633-0.5,1.5-2.231,0.867-3.364c0.266-0.665,1.299-0.565,4.264,0.066
		c5.162,0.366,8.693-5.429,14.455-5.496c5.762,0.067,9.258,5.862,14.455,5.496c2.965-0.633,3.997-0.731,4.264-0.066
		c-0.633,1.133-0.799,2.864,0.866,3.364c6.195,1.864,5.629,6.062-0.2,9.325c-1.5,1.6-2.099,3.364-0.699,5.429
		C404.122,1224.322,400.826,1221.791,393.765,1221.791z"/>
	<g>
		<path d="M374.946,1225.055c0.467,0,0.866-0.398,0.866-0.865s-0.399-0.866-0.866-0.866c-0.466,0-0.866,0.399-0.866,0.866
			S374.48,1225.055,374.946,1225.055z"/>
		<path d="M412.55,1225.055c0.499,0,0.898-0.398,0.898-0.865s-0.399-0.866-0.898-0.866c-0.466,0-0.865,0.399-0.865,0.866
			S412.084,1225.055,412.55,1225.055z"/>
	</g>
	<g>
		<path d="M374.946,1206.336c0.467,0,0.866-0.398,0.866-0.865s-0.399-0.865-0.866-0.865c-0.466,0-0.866,0.398-0.866,0.865
			C374.08,1205.938,374.48,1206.336,374.946,1206.336z"/>
		<path d="M412.55,1206.336c0.499,0,0.898-0.398,0.898-0.865s-0.399-0.865-0.898-0.865c-0.466,0-0.865,0.398-0.865,0.865
			S412.084,1206.336,412.55,1206.336z"/>
	</g>
</g>
<g>
	<path d="M270.332,1297.258c-1.436,2.665-2.776,5.35-4.018,8.038c2.515,1.706,5.589,2.698,9.15,2.711
		c0.173-3.239,0.452-6.415,0.801-9.51C273.997,1298.587,272,1298.14,270.332,1297.258z"/>
	<path d="M264.754,1284.12c-1.952,0.479-3.839,0.953-5.665,1.414c-0.491,3.185-0.38,6.188,0.219,8.893
		c1.121-1.016,2.271-2.041,3.452-3.069c0.693-0.603,1.398-1.203,2.112-1.809C264.538,1287.893,264.48,1286.063,264.754,1284.12z"/>
	<path d="M265.562,1291.852c-1.3,1.103-2.561,2.201-3.787,3.293c-0.611,0.543-1.212,1.089-1.805,1.628
		c0.965,2.777,2.496,5.183,4.488,7.043c0.772-1.675,1.59-3.343,2.441-5.007c0.489-0.963,0.995-1.92,1.513-2.873
		C267.181,1294.852,266.221,1293.465,265.562,1291.852z"/>
	<path d="M279.216,1298.101c-0.359,3.149-0.646,6.391-0.82,9.705c3.721-0.516,7.511-1.993,11.26-4.187
		c-1.352-2.842-2.617-5.557-3.818-8.144C283.656,1296.7,281.425,1297.61,279.216,1298.101z"/>
	<path d="M289.055,1293.427c0.739,1.484,1.498,3.013,2.282,4.586c0.563,1.116,1.132,2.262,1.717,3.425
		c4.213-2.946,8.063-6.424,11.105-10.177c-2.959-1.364-5.809-2.622-8.537-3.801C293.738,1289.658,291.495,1291.686,289.055,1293.427
		z"/>
	<path d="M297.806,1284.587c2.741,1.137,5.59,2.361,8.535,3.693c2.28-3.493,3.673-7.091,3.964-10.661
		c-3.24,0.013-6.461,0.139-9.638,0.361C300.233,1280.197,299.237,1282.428,297.806,1284.587z"/>
	<path d="M293.365,1265.383c1.813,0.659,3.371,1.643,4.603,2.876c1.016-0.471,2.028-0.935,3.043-1.377
		c1.541-0.68,3.078-1.323,4.604-1.937c-2.021-1.984-4.61-3.536-7.583-4.535C296.504,1261.998,294.945,1263.651,293.365,1265.383z"/>
	<path d="M286.624,1259.348c-0.379,1.685-0.775,3.416-1.188,5.202c1.956-0.217,3.81-0.144,5.5,0.174
		c1.577-1.734,3.139-3.393,4.673-4.982C292.86,1259.134,289.828,1258.962,286.624,1259.348z"/>
	<path d="M259.613,1282.955c1.843-0.479,3.739-0.97,5.703-1.464c0.546-1.903,1.369-3.755,2.432-5.474
		c-1.495-0.604-2.946-1.203-4.362-1.793C261.683,1276.924,260.392,1279.881,259.613,1282.955z"/>
	<path d="M299.397,1270.063c0.94,1.512,1.482,3.285,1.518,5.271c3.104-0.217,6.245-0.333,9.405-0.347
		c-0.229-3.159-1.354-5.951-3.141-8.277C304.608,1267.737,302.007,1268.85,299.397,1270.063z"/>
	<path d="M275.276,1265.415c0.36,0.724,0.727,1.457,1.092,2.202c1.97-1.152,4.114-2.037,6.332-2.579
		c0.435-1.804,0.861-3.55,1.269-5.25c-3.402,0.72-6.662,2.024-9.613,3.777C274.661,1264.175,274.965,1264.793,275.276,1265.415z"/>
	<path d="M272.022,1265.089c-2.686,1.919-5.087,4.262-7.063,6.867c1.032,0.399,2.084,0.804,3.154,1.21
		c0.429,0.16,0.856,0.324,1.291,0.488c1.304-1.642,2.837-3.136,4.526-4.413c-0.426-0.937-0.846-1.855-1.265-2.761
		C272.451,1266.014,272.238,1265.549,272.022,1265.089z"/>
</g>
<g>
	<path d="M509.703,1309.619c-1.608,0.357-2.778,0.016-3.276-0.303c-1.189-0.759-1.98-2.09-1.98-3.604
		c0-0.238,0.021-0.473,0.06-0.699c0.241-1.479,1.243-2.7,2.592-3.254c0.188-0.078,0.381-0.143,0.58-0.19
		c1.961-0.72,3.629-2.041,4.789-3.736c1.09-1.596,1.729-3.525,1.729-5.605c0-1.965-0.572-3.795-1.557-5.336
		c1.971,1.447,3.517,3.437,4.43,5.744c0.588,1.488,0.915,3.109,0.915,4.81C517.984,1302.975,514.554,1307.701,509.703,1309.619z"/>
	<path d="M481.987,1305.535c-1.114-1.213-1.401-2.398-1.377-2.986c0.062-1.41,0.818-2.762,2.131-3.52
		c0.207-0.117,0.419-0.217,0.636-0.297c1.399-0.531,2.96-0.273,4.112,0.616c0.16,0.123,0.314,0.259,0.456,0.406
		c1.604,1.336,3.581,2.123,5.63,2.279c1.929,0.146,3.92-0.267,5.721-1.306c1.7-0.981,2.999-2.393,3.843-4.016
		c-0.271,2.43-1.216,4.764-2.759,6.707c-0.995,1.256-2.235,2.35-3.706,3.197C491.882,1309.387,486.072,1308.777,481.987,1305.535z"
		/>
	<path d="M471.664,1279.492c0.494-1.572,1.375-2.416,1.898-2.688c1.252-0.651,2.8-0.672,4.113,0.088
		c0.205,0.117,0.396,0.252,0.574,0.398c1.158,0.949,1.717,2.428,1.522,3.871c-0.027,0.203-0.068,0.399-0.125,0.598
		c-0.356,2.06-0.047,4.164,0.842,6.019c0.836,1.741,2.188,3.26,3.988,4.301c1.703,0.981,3.572,1.399,5.399,1.319
		c-2.239,0.98-4.732,1.328-7.188,0.964c-1.584-0.232-3.151-0.761-4.623-1.609C473.278,1289.986,470.9,1284.65,471.664,1279.492z"/>
	<path d="M489.06,1257.529c1.606-0.357,2.777-0.017,3.275,0.301c1.188,0.758,1.979,2.09,1.979,3.607
		c0,0.235-0.021,0.469-0.059,0.696c-0.243,1.478-1.244,2.701-2.593,3.255c-0.188,0.075-0.381,0.143-0.579,0.19
		c-1.961,0.719-3.63,2.039-4.787,3.736c-1.093,1.596-1.732,3.524-1.732,5.604c0,1.965,0.573,3.795,1.557,5.336
		c-1.97-1.446-3.518-3.434-4.43-5.741c-0.589-1.488-0.916-3.109-0.916-4.81C480.776,1264.174,484.209,1259.447,489.06,1257.529z"/>
	<path d="M516.775,1261.611c1.112,1.215,1.403,2.399,1.376,2.987c-0.061,1.41-0.818,2.761-2.132,3.519
		c-0.206,0.121-0.417,0.217-0.634,0.299c-1.401,0.529-2.961,0.272-4.113-0.617c-0.16-0.123-0.313-0.258-0.455-0.406
		c-1.604-1.336-3.582-2.123-5.631-2.278c-1.928-0.146-3.919,0.266-5.719,1.303c-1.701,0.981-2.999,2.395-3.845,4.018
		c0.271-2.432,1.218-4.764,2.761-6.707c0.994-1.256,2.234-2.35,3.705-3.198C506.879,1257.762,512.69,1258.371,516.775,1261.611z"/>
	<path d="M527.097,1287.656c-0.494,1.572-1.375,2.414-1.898,2.686c-1.251,0.652-2.799,0.672-4.112-0.086
		c-0.205-0.119-0.396-0.254-0.574-0.4c-1.158-0.948-1.717-2.428-1.522-3.87c0.026-0.201,0.068-0.4,0.124-0.599
		c0.356-2.057,0.048-4.164-0.842-6.016c-0.837-1.742-2.188-3.262-3.989-4.301c-1.699-0.982-3.57-1.4-5.396-1.32
		c2.238-0.982,4.732-1.328,7.188-0.965c1.584,0.234,3.152,0.762,4.623,1.611C525.483,1277.162,527.862,1282.498,527.097,1287.656z"
		/>
</g>
<g>
	<path d="M400.768,1282.386c-1.732-0.147-3.121,2.636-3.404,6.363c-0.481,6.479-1.635,12.5-2.758,17.803
		c-0.591,2.786,1.545,4.655,4.514,4.226c2.812-0.413,5.259-2.87,5.441-5.525c0.348-4.983,0.42-10.531-0.129-16.382
		C404.101,1285.396,402.421,1282.534,400.768,1282.386z"/>
	<path d="M409.856,1282.077c-2.134-1.957-4.604-2.62-5.386-1.394c-0.817,1.289,0.336,4.321,2.309,6.819
		c3.076,3.884,5.547,7.472,7.568,10.651c1.053,1.654,2.895,1.067,4.007-1.14c1.063-2.114,0.968-4.949-0.2-6.337
		C415.91,1288.036,413.183,1285.127,409.856,1282.077z"/>
	<path d="M416.072,1271.967c-2.308,0.207-5.035,0.539-8.237,1.034c-2.138,0.332-3.559,1.821-3.011,3.411
		c0.566,1.626,2.943,2.881,5.209,2.914c3.396,0.039,6.272,0.15,8.691,0.301c1.235,0.077,1.642-1.752,0.887-3.938
		C418.865,1273.538,417.252,1271.863,416.072,1271.967z"/>
	<path d="M406.223,1259.543c-1.997-1.139-3.924-1.156-4.179-0.041c-0.493,2.193-1.128,4.797-1.932,7.873
		c-0.535,2.059,0.158,4.486,1.672,5.361c1.494,0.855,3.345-0.105,4.193-1.984c1.265-2.809,2.283-5.199,3.088-7.225
		C409.476,1262.496,408.195,1260.674,406.223,1259.543z"/>
	<path d="M391.148,1257.855c-1.008-1.3-3.653-1.902-5.906-1.328c-2.34,0.6-3.354,2.149-2.09,3.391
		c2.439,2.387,5.171,5.271,8.115,8.758c1.918,2.267,4.631,3.896,6.117,3.426c1.418-0.457,1.35-2.834-0.054-5.159
		C395.165,1263.357,393.077,1260.354,391.148,1257.855z"/>
	<path d="M389.329,1270.521c-5.381-1.558-10.495-2.488-15.106-3.064c-2.451-0.305-5.253,1.465-6.286,3.938
		c-1.089,2.612,0.102,4.877,2.769,4.839c5.071-0.082,10.818-0.012,16.989,0.727c3.684,0.436,6.786-0.255,7.054-1.867
		C395.004,1273.558,392.594,1271.467,389.329,1270.521z"/>
	<path d="M388.547,1280.166c-5.697,3.249-11.137,7.057-15.901,10.657c-2.508,1.896-2.823,5.729-0.725,8.487
		c2.124,2.793,5.846,3.39,8.188,1.257c4.472-4.071,9.479-8.769,14.104-13.568c2.439-2.531,3.337-5.657,2.045-7.205
		C394.973,1278.265,391.622,1278.419,388.547,1280.166z"/>
</g>
<g>
	<polygon points="93.33,1357.178 77.369,1359.502 86.567,1346.252 102.528,1343.928 	"/>
	<polygon points="78.803,1346.198 72.834,1361.183 65.959,1346.592 71.928,1331.607 	"/>
	<polygon points="62.031,1353.288 72.024,1365.949 55.951,1364.609 45.958,1351.947 	"/>
	<polygon points="59.786,1371.359 75.747,1369.035 66.548,1382.285 50.587,1384.609 	"/>
	<polygon points="74.311,1382.34 80.28,1367.354 87.156,1381.945 81.188,1396.93 	"/>
	<polygon points="91.084,1375.249 81.09,1362.588 97.165,1363.929 107.158,1376.59 	"/>
</g>
<g>
	<polygon points="286.816,1371.345 296.49,1386.321 299.179,1377.341 288.572,1370.208 	"/>
	<polygon points="286.816,1371.345 296.49,1386.321 299.179,1377.341 288.572,1370.208 	"/>
	<polygon points="286.816,1371.345 296.49,1386.321 299.179,1377.341 288.572,1370.208 	"/>
	<path d="M290.015,1369.204l15.115,9.061l-1.549-9.245l-12.459-1.689C290.851,1368.015,290.466,1368.634,290.015,1369.204z"/>
	<path d="M288.835,1370.382c-0.58,0.461-1.217,0.846-1.918,1.121l9.571,14.818l2.689-8.98L288.835,1370.382z"/>
	<path d="M284.232,1372.021c-0.336,0-0.657-0.058-0.981-0.099v17.346l7.133-6.084l-4.842-11.295
		C285.115,1371.964,284.681,1372.021,284.232,1372.021z"/>
	<path d="M280.248,1370.841l-8.728,15.146l9.219-1.712l1.48-12.565C281.515,1371.509,280.849,1371.229,280.248,1370.841z"/>
	<path d="M277.396,1367.487l-14.092,9.459l9.027,2.535l6.42-9.921C278.195,1368.948,277.724,1368.261,277.396,1367.487z"/>
	<path d="M276.812,1364.597c0-0.387,0.058-0.762,0.115-1.131l-17.418,0.306l6.207,7.026l11.215-5.041
		C276.871,1365.376,276.812,1364.993,276.812,1364.597z"/>
	<path d="M278.296,1360.021l-15.234-9.134l1.547,9.248l12.644,1.713C277.509,1361.186,277.869,1360.577,278.296,1360.021z"/>
	<path d="M281.617,1357.671l-9.584-14.84l-2.691,8.982l10.346,6.954C280.271,1358.313,280.912,1357.938,281.617,1357.671z"/>
	<polygon points="285.271,1357.101 285.271,1339.27 278.14,1345.354 283.173,1357.101 	"/>
	<path d="M292.054,1364.52c0,0.241-0.049,0.469-0.072,0.702l17.609-0.309l-6.209-7.027l-11.479,5.164
		C292.001,1363.524,292.054,1364.013,292.054,1364.52z"/>
	<path d="M288.865,1358.833l0.378,0.217l8.896-15.444l-9.219,1.711l-1.488,12.606
		C287.951,1358.171,288.421,1358.479,288.865,1358.833z"/>
	<path d="M291.294,1362.417l14.52-9.746l-9.026-2.533l-6.55,10.123c0,0,0,0,0,0.002
		C290.707,1360.909,291.054,1361.636,291.294,1362.417z"/>
</g>
<g>
	<path d="M381.522,1371.3c0,0-13.527-12.962,0-23.952c0,0-7.188-0.844-9.865,5.638
		C371.656,1352.984,367.433,1363.407,381.522,1371.3z"/>
	<path d="M382.373,1358.031c0,0,2.957-18.498,19.694-13.637c0,0-3.402-6.388-10.251-4.902
		C391.817,1339.492,380.843,1341.953,382.373,1358.031z"/>
	<path d="M393.013,1353.926c0,0,16.428-8.992,22.842,7.212c0,0,2.963-6.604-2.404-11.105
		C413.449,1350.031,404.781,1342.865,393.013,1353.926z"/>
	<path d="M405.339,1357.447c0,0,14.014,12.423,0.924,23.937c0,0,7.219,0.558,9.647-6.018
		C415.91,1375.366,419.726,1364.788,405.339,1357.447z"/>
	<path d="M405.164,1370.396c0,0-2.775,18.521-19.563,13.821c0,0,3.469,6.354,10.305,4.81
		C395.905,1389.026,406.849,1386.46,405.164,1370.396z"/>
	<path d="M393.604,1378.47c0,0-17.918,5.443-20.881-11.735c0,0-4.254,5.86,0.076,11.373
		C372.8,1378.105,379.821,1386.892,393.604,1378.47z"/>
</g>
<g>
	<circle cx="76.265" cy="1436.535" r="6.568"/>
	<circle cx="63.45" cy="1441.832" r="6.568"/>
	<circle cx="63.45" cy="1468.11" r="6.568"/>
	<circle cx="58.365" cy="1454.968" r="6.568"/>
	<circle cx="76.265" cy="1473.4" r="6.568"/>
	<circle cx="89.4" cy="1468.11" r="6.568"/>
	<circle cx="94.75" cy="1454.968" r="6.568"/>
	<circle cx="89.4" cy="1441.832" r="6.568"/>
</g>
<g>
	<circle cx="499.789" cy="1343.616" r="4.349"/>
	<circle cx="488.971" cy="1346.3" r="3.998"/>
	<circle cx="481.198" cy="1354.234" r="3.512"/>
	<circle cx="478.482" cy="1364.996" r="3.512"/>
	<circle cx="481.198" cy="1375.757" r="3.512"/>
	<circle cx="488.972" cy="1383.474" r="3.513"/>
	<circle cx="510.442" cy="1383.854" r="3.132"/>
	<circle cx="499.789" cy="1386.137" r="3.132"/>
	<path d="M520.639,1375.757c0,1.431-1.162,2.588-2.588,2.588c-1.431,0-2.588-1.157-2.588-2.588s1.157-2.589,2.588-2.589
		C519.477,1373.168,520.639,1374.326,520.639,1375.757z"/>
	<path d="M523.791,1364.996c0,1.43-1.162,2.588-2.589,2.588c-1.43,0-2.588-1.158-2.588-2.588c0-1.432,1.158-2.589,2.588-2.589
		C522.629,1362.407,523.791,1363.564,523.791,1364.996z"/>
	<path d="M520.313,1354.234c0,1.25-1.016,2.263-2.262,2.263c-1.25,0-2.263-1.013-2.263-2.263s1.013-2.263,2.263-2.263
		C519.297,1351.973,520.313,1352.984,520.313,1354.234z"/>
	<path d="M512.596,1346.734c0,1.188-0.969,2.153-2.154,2.153c-1.188,0-2.152-0.965-2.152-2.153s0.966-2.153,2.152-2.153
		C511.627,1344.581,512.596,1345.546,512.596,1346.734z"/>
</g>
<g>
	<path d="M174.896,1356.79l-12.041-6.882l-2.233,3.916l12.043,6.882C173.149,1359.242,173.906,1357.923,174.896,1356.79z"/>
	<path d="M194.219,1367.83c-0.484,1.463-1.242,2.783-2.23,3.917l12.042,6.88l2.231-3.91L194.219,1367.83z"/>
	<path d="M179.906,1353.483l-6.848-12.063l-3.919,2.225l6.85,12.062C177.12,1354.715,178.444,1353.961,179.906,1353.483z"/>
	<path d="M190.895,1372.835c-1.136,0.987-2.455,1.739-3.922,2.222l6.854,12.063l3.914-2.224L190.895,1372.835z"/>
	<path d="M172.042,1364.268c0-0.767,0.082-1.518,0.224-2.238l-13.822,0.017l0.007,4.505l13.819-0.016
		C172.121,1365.802,172.042,1365.042,172.042,1364.268z"/>
	<path d="M194.842,1364.268c0,0.77-0.078,1.516-0.225,2.239l13.825-0.015l-0.006-4.506l-13.823,0.017
		C194.764,1362.735,194.842,1363.492,194.842,1364.268z"/>
	<path d="M194.251,1360.811l12.114-6.767l-2.199-3.934l-12.109,6.767C193.036,1358.02,193.783,1359.345,194.251,1360.811z"/>
	<path d="M172.636,1367.725l-12.114,6.769l2.199,3.934l12.105-6.763C173.85,1370.521,173.104,1369.191,172.636,1367.725z"/>
	<path d="M191.036,1355.82l7.036-11.945l-3.882-2.287l-7.04,11.949C188.604,1354.037,189.918,1354.814,191.036,1355.82z"/>
	<path d="M175.851,1372.721l-7.038,11.939l3.883,2.287l7.04-11.947C178.279,1374.5,176.969,1373.727,175.851,1372.721z"/>
	<path d="M183.441,1352.867c0.772,0,1.524,0.081,2.254,0.228v-13.823h-4.504v13.823
		C181.918,1352.948,182.668,1352.867,183.441,1352.867z"/>
	<path d="M183.441,1375.67c-0.772,0-1.522-0.082-2.25-0.228v13.822h4.504v-13.822C184.966,1375.588,184.214,1375.67,183.441,1375.67
		z"/>
</g>
<g>
	<polygon points="183.176,1470.643 183.199,1470.662 183.167,1470.707 179.078,1476.047 179.695,1480.686 184.334,1474.625 
		185.795,1472.717 185.829,1472.672 187.713,1474.113 193.773,1478.752 193.157,1474.113 187.816,1470.025 185.188,1468.016 	"/>
	<polygon points="183.709,1439.293 183.686,1439.273 183.718,1439.229 187.807,1433.889 187.189,1429.25 182.551,1435.311 
		181.091,1437.219 181.057,1437.264 179.173,1435.822 173.111,1431.184 173.728,1435.822 179.07,1439.91 181.696,1441.92 	"/>
	<polygon points="167.768,1454.701 167.749,1454.725 167.704,1454.693 162.363,1450.604 157.725,1451.221 163.786,1455.859 
		165.693,1457.32 165.738,1457.354 164.297,1459.238 159.658,1465.301 164.297,1464.684 168.385,1459.342 170.396,1456.715 	"/>
	<polygon points="199.118,1455.234 199.137,1455.211 199.182,1455.244 204.522,1459.332 209.162,1458.715 203.1,1454.076 
		201.192,1452.617 201.147,1452.582 202.589,1450.699 207.228,1444.637 202.588,1445.254 198.501,1450.596 196.49,1453.223 	"/>
	<polygon points="172.547,1443.695 172.517,1443.699 172.509,1443.645 171.623,1436.979 167.907,1434.133 168.913,1441.699 
		169.229,1444.08 169.237,1444.137 166.885,1444.449 159.32,1445.455 163.036,1448.301 169.703,1447.412 172.982,1446.979 	"/>
	<polygon points="194.339,1466.24 194.368,1466.238 194.377,1466.291 195.263,1472.959 198.979,1475.803 197.973,1468.238 
		197.656,1465.857 197.648,1465.801 200,1465.486 207.566,1464.48 203.85,1461.637 197.182,1462.523 193.903,1462.959 	"/>
	<polygon points="194.716,1444.072 194.713,1444.043 194.767,1444.033 201.436,1443.148 204.278,1439.432 196.713,1440.438 
		194.331,1440.756 194.275,1440.762 193.962,1438.41 192.956,1430.846 190.112,1434.561 190.999,1441.229 191.436,1444.508 	"/>
	<polygon points="172.172,1465.863 172.174,1465.895 172.12,1465.902 165.453,1466.787 162.608,1470.504 170.174,1469.498 
		172.554,1469.182 172.611,1469.174 172.925,1471.527 173.931,1479.09 176.775,1475.375 175.888,1468.709 175.453,1465.43 	"/>
</g>
<g>
	<path d="M485.012,1467.75c-2.634-2.959-4.385-6.717-4.795-10.875h-5.779c0.436,5.754,2.813,10.953,6.482,14.967L485.012,1467.75z"
		/>
	<path d="M500.486,1429.984v5.776c4.474,0.259,8.531,2.037,11.678,4.838l4.094-4.092
		C512.059,1432.668,506.56,1430.25,500.486,1429.984z"/>
	<path d="M480.158,1454.182c0.177-4.315,1.758-8.272,4.327-11.405l-4.098-4.099c-3.601,4.193-5.823,9.588-6.008,15.504H480.158z"/>
	<path d="M486.348,1440.828c3.067-2.83,7.045-4.68,11.446-5.041v-5.779c-6.003,0.377-11.421,2.857-15.538,6.729L486.348,1440.828z"
		/>
	<path d="M511.575,1469.863c-3.057,2.506-6.896,4.069-11.09,4.311v5.777c5.791-0.252,11.067-2.457,15.187-5.992L511.575,1469.863z"
		/>
	<path d="M497.794,1474.148c-4.124-0.339-7.883-1.978-10.862-4.511l-4.093,4.093c4.042,3.565,9.231,5.838,14.955,6.196V1474.148z"/>
	<path d="M514.054,1442.52c2.694,3.173,4.369,7.228,4.548,11.662h5.779c-0.188-6.037-2.506-11.524-6.236-15.754L514.054,1442.52z"/>
	<path d="M518.547,1456.875c-0.425,4.277-2.265,8.133-5.025,11.127l4.092,4.092c3.802-4.045,6.269-9.344,6.711-15.219H518.547z"/>
</g>
<g>
	<path d="M376.154,1447.414c0.688-1.595,1.589-3.075,2.662-4.413l-4.271-4.272c-1.62,1.916-2.964,4.074-3.957,6.418
		L376.154,1447.414z"/>
	<path d="M376.061,1462.298c-0.658-1.583-1.102-3.274-1.313-5.039h-6.042c0.237,2.63,0.875,5.146,1.858,7.479L376.061,1462.298z"/>
	<path d="M380.6,1441.073c1.131-1.071,2.387-2.009,3.75-2.782l-2.449-5.521c-2.037,1.093-3.904,2.457-5.558,4.046L380.6,1441.073z"
		/>
	<path d="M402.395,1437.879c1.604,0.813,3.072,1.845,4.378,3.057l4.262-4.263c-1.873-1.769-4.013-3.258-6.359-4.389
		L402.395,1437.879z"/>
	<path d="M386.72,1437.16c1.751-0.695,3.626-1.136,5.585-1.284v-6.029c-2.826,0.162-5.525,0.791-8.026,1.811L386.72,1437.16z"/>
	<path d="M412.848,1438.573l-4.262,4.262c0.98,1.197,1.805,2.524,2.477,3.938l5.508-2.443
		C415.592,1442.237,414.335,1440.304,412.848,1438.573z"/>
	<path d="M394.93,1435.86c1.757,0.106,3.449,0.444,5.048,0.995l2.274-5.582c-2.305-0.825-4.763-1.325-7.322-1.442V1435.86z"/>
	<path d="M374.614,1454.634c0.029-1.637,0.271-3.22,0.687-4.731l-5.608-2.285c-0.679,2.225-1.054,4.579-1.085,7.018
		L374.614,1454.634L374.614,1454.634z"/>
	<path d="M405.729,1469.915c-1.075,0.862-2.249,1.603-3.495,2.219l2.445,5.516c1.924-0.929,3.709-2.098,5.322-3.462
		L405.729,1469.915z"/>
	<path d="M410.52,1464.249c-0.788,1.416-1.756,2.714-2.861,3.881l4.257,4.258c1.665-1.733,3.083-3.704,4.199-5.858L410.52,1464.249z
		"/>
	<path d="M379.729,1467.979c-0.942-1.018-1.775-2.133-2.482-3.334l-5.533,2.454c1.031,1.873,2.299,3.599,3.756,5.142
		L379.729,1467.979z"/>
	<path d="M412.041,1449.209c0.543,1.717,0.838,3.539,0.87,5.425h6.009c-0.035-2.753-0.515-5.396-1.366-7.869L412.041,1449.209z"/>
	<path d="M412.778,1457.259c-0.191,1.605-0.589,3.146-1.154,4.605l5.575,2.271c0.848-2.163,1.403-4.471,1.621-6.877
		L412.778,1457.259L412.778,1457.259z"/>
	<path d="M385.554,1472.261c-1.408-0.671-2.73-1.491-3.925-2.471l-4.263,4.262c1.773,1.524,3.761,2.807,5.911,3.793
		L385.554,1472.261z"/>
	<path d="M399.809,1473.142c-1.549,0.518-3.184,0.83-4.879,0.935v6.029c2.562-0.117,5.021-0.617,7.327-1.444L399.809,1473.142z"/>
	<path d="M392.305,1474.061c-1.491-0.112-2.938-0.383-4.315-0.818l-2.271,5.572c2.088,0.703,4.295,1.145,6.586,1.274V1474.061z"/>
</g>
<g>
	<path d="M290.328,1437.384c-0.37,3.329-2.267,5.839-4.239,5.617c-1.974-0.222-3.278-3.09-2.901-6.416
		c0.362-3.318,2.264-5.832,4.239-5.603C289.396,1431.196,290.698,1434.068,290.328,1437.384z"/>
	<path d="M285.911,1473.336c-0.369,3.33-2.266,5.84-4.238,5.618s-3.278-3.09-2.901-6.416c0.362-3.319,2.263-5.832,4.239-5.604
		C284.98,1467.149,286.281,1470.021,285.911,1473.336z"/>
	<path d="M298.784,1443.138c-2.077,2.628-5.02,3.744-6.571,2.511c-1.557-1.238-1.138-4.361,0.946-6.979
		c2.072-2.62,5.016-3.74,6.566-2.498C301.282,1437.401,300.861,1440.528,298.784,1443.138z"/>
	<path d="M275.948,1471.256c-2.085,2.624-5.022,3.743-6.574,2.509c-1.557-1.237-1.14-4.359,0.949-6.98
		c2.069-2.62,5.012-3.736,6.563-2.494C278.442,1465.516,278.02,1468.639,275.948,1471.256z"/>
	<path d="M288.218,1473.108c-1.329-3.074-0.92-6.194,0.905-6.975c1.825-0.787,4.38,1.064,5.697,4.138
		c1.321,3.063,0.921,6.19-0.912,6.967C292.091,1478.029,289.537,1476.178,288.218,1473.108z"/>
	<path d="M274.277,1439.678c-1.32-3.085-0.913-6.201,0.913-6.979c1.822-0.787,4.375,1.061,5.693,4.142
		c1.329,3.063,0.913,6.184-0.908,6.962C278.153,1444.592,275.603,1442.737,274.277,1439.678z"/>
	<path d="M296.629,1468.99c-2.665-2.029-3.833-4.952-2.624-6.523c1.208-1.582,4.339-1.216,6.996,0.82
		c2.648,2.021,3.829,4.945,2.608,6.52C302.413,1471.385,299.283,1471.021,296.629,1468.99z"/>
	<path d="M268.108,1446.66c-2.66-2.044-3.828-4.96-2.62-6.534c1.205-1.578,4.335-1.217,6.993,0.827
		c2.657,2.019,3.824,4.945,2.616,6.517C273.896,1449.051,270.762,1448.682,268.108,1446.66z"/>
	<path d="M301.692,1461.942c-3.296-0.593-5.669-2.661-5.307-4.609c0.354-1.959,3.308-3.06,6.601-2.457
		c3.278,0.591,5.662,2.657,5.292,4.612C307.931,1461.439,304.982,1462.544,301.692,1461.942z"/>
	<path d="M266.127,1455.064c-3.297-0.606-5.666-2.67-5.308-4.62c0.352-1.955,3.305-3.062,6.601-2.45
		c3.282,0.584,5.659,2.657,5.301,4.604C272.37,1454.554,269.413,1455.655,266.127,1455.064z"/>
	<path d="M302.901,1452.564c-3.159,1.116-6.246,0.488-6.889-1.386c-0.662-1.877,1.363-4.294,4.523-5.396
		c3.142-1.105,6.237-0.484,6.881,1.396C308.078,1449.047,306.057,1451.464,302.901,1452.564z"/>
	<path d="M268.578,1464.148c-3.167,1.102-6.242,0.477-6.896-1.397c-0.661-1.873,1.364-4.29,4.531-5.388
		c3.142-1.116,6.23-0.484,6.882,1.386C273.755,1460.623,271.727,1463.04,268.578,1464.148z"/>
</g>
<path d="M416.595,1541.588c-0.594-1.57-1.986-2.947-3.894-3.959c0.143-0.396,0.236-0.793,0.275-1.188
	c-0.117-0.164-0.248-0.32-0.389-0.472c1.547-2.145,2.279-4.418,1.959-6.381c-1.366-1.118-3.357-1.642-5.626-1.559
	c-0.079-0.436-0.2-0.846-0.374-1.229c-0.569-0.258-1.205-0.406-1.886-0.457c-0.061-1.814-0.558-3.397-1.483-4.529
	c-1.656-0.271-3.545,0.246-5.375,1.392c-0.271-0.32-0.568-0.603-0.894-0.834c-0.2,0.021-0.4,0.055-0.602,0.103
	c-1.084-2.411-2.687-4.184-4.547-4.887c-1.651,0.624-3.101,2.087-4.162,4.094c-0.416-0.149-0.834-0.25-1.25-0.291
	c-0.508,0.364-0.955,0.84-1.338,1.403c-1.604-0.854-3.224-1.217-4.666-0.979c-1.064,1.299-1.562,3.192-1.482,5.351
	c-0.413,0.074-0.805,0.191-1.168,0.355c-0.084,0.185-0.153,0.375-0.214,0.571c-2.63-0.267-4.966,0.234-6.505,1.495
	c-0.285,1.741,0.258,3.729,1.463,5.651c-0.336,0.284-0.632,0.596-0.876,0.937c0.063,0.622,0.249,1.247,0.546,1.861
	c-1.541,0.961-2.664,2.183-3.18,3.551c0.592,1.57,1.983,2.947,3.893,3.959c-0.143,0.396-0.235,0.793-0.275,1.189
	c0.117,0.164,0.248,0.319,0.39,0.471c-1.547,2.145-2.28,4.418-1.959,6.381c1.365,1.118,3.357,1.643,5.625,1.559
	c0.079,0.435,0.201,0.847,0.373,1.229c0.57,0.258,1.206,0.407,1.886,0.457c0.063,1.814,0.56,3.398,1.485,4.53
	c1.656,0.271,3.545-0.246,5.375-1.393c0.271,0.32,0.567,0.602,0.893,0.833c0.199-0.02,0.4-0.055,0.603-0.101
	c1.084,2.411,2.686,4.183,4.547,4.886c1.649-0.624,3.1-2.087,4.162-4.092c0.415,0.148,0.833,0.249,1.25,0.29
	c0.508-0.365,0.955-0.84,1.338-1.404c1.603,0.854,3.222,1.216,4.666,0.979c1.063-1.299,1.561-3.193,1.481-5.352
	c0.412-0.074,0.806-0.191,1.168-0.355c0.083-0.184,0.153-0.375,0.213-0.571c2.632,0.267,4.967-0.235,6.506-1.495
	c0.285-1.742-0.258-3.728-1.464-5.65c0.338-0.285,0.633-0.598,0.876-0.938c-0.062-0.622-0.25-1.247-0.546-1.861
	C414.954,1544.178,416.077,1542.956,416.595,1541.588z"/>
<path d="M301.72,1532.559c-2.25-2.367-5.813-2.729-8.653-0.282c1.45-3.457,0.004-6.733-2.942-8.143
	c-3.558-1.698-5.573-5.371-5.573-5.371s-2.017,3.673-5.573,5.371c-2.946,1.408-4.394,4.686-2.942,8.143
	c-2.842-2.447-6.403-2.085-8.653,0.282c-2.715,2.857-6.83,3.642-6.83,3.642s2.869,3.053,3.386,6.961
	c0.43,3.238,3.1,5.625,6.834,5.314c-3.205,1.944-3.962,5.445-2.404,8.317c1.879,3.465,1.353,7.62,1.353,7.62s3.79-1.784,7.666-1.068
	c3.212,0.593,6.308-1.208,7.167-4.856c0.859,3.648,3.955,5.449,7.167,4.856c3.876-0.716,7.666,1.068,7.666,1.068
	s-0.526-4.155,1.353-7.62c1.558-2.872,0.8-6.373-2.404-8.317c3.735,0.311,6.404-2.077,6.835-5.314
	c0.516-3.908,3.385-6.961,3.385-6.961S304.435,1535.416,301.72,1532.559z"/>
<path d="M203.819,1541.588c1.618-1.213,3.872-3.57,3.602-7.195c-0.395-5.236-6.493-8.757-11.687-5.095
	c3.663-5.192,0.145-11.293-5.095-11.688c-3.624-0.271-5.983,1.981-7.196,3.602c-1.213-1.619-3.569-3.873-7.194-3.602
	c-5.238,0.395-8.759,6.494-5.097,11.688c-5.191-3.664-11.292-0.145-11.686,5.095c-0.271,3.623,1.981,5.982,3.602,7.195
	c-1.618,1.213-3.872,3.57-3.602,7.195c0.394,5.238,6.493,8.757,11.686,5.096c-3.662,5.192-0.143,11.292,5.097,11.688
	c3.623,0.271,5.981-1.982,7.194-3.603c1.213,1.619,3.572,3.873,7.196,3.603c5.237-0.396,8.757-6.494,5.095-11.688
	c5.193,3.661,11.292,0.143,11.687-5.096C207.691,1545.16,205.438,1542.801,203.819,1541.588z"/>
<path d="M95.056,1529.951l-6.656,1.57c-0.598,0.141-1.188,0.411-1.744,0.766l0.795-2.646c0.672-2.237-0.238-5.303-2.025-6.811
	l-5.228-4.412c-1.785-1.508-3.797-0.91-4.469,1.328l-1.968,6.551c-0.177,0.588-0.238,1.234-0.209,1.894l-1.893-2.011
	c-1.603-1.701-4.713-2.444-6.91-1.651l-6.437,2.319c-2.198,0.793-2.686,2.834-1.083,4.535l4.689,4.98
	c0.421,0.446,0.95,0.821,1.534,1.127l-2.688,0.635c-2.274,0.537-4.474,2.856-4.886,5.158l-1.208,6.731
	c-0.413,2.301,1.111,3.742,3.385,3.207l6.657-1.572c0.598-0.141,1.188-0.409,1.745-0.766l-0.795,2.646
	c-0.672,2.237,0.238,5.305,2.023,6.811l5.228,4.414c1.786,1.506,3.797,0.91,4.47-1.33l1.968-6.549
	c0.176-0.59,0.238-1.234,0.209-1.896l1.894,2.013c1.602,1.701,4.711,2.442,6.909,1.651l6.435-2.321
	c2.198-0.793,2.686-2.834,1.084-4.535l-4.689-4.979c-0.421-0.447-0.948-0.824-1.533-1.127l2.687-0.635
	c2.275-0.537,4.474-2.857,4.886-5.158l1.208-6.731C98.854,1530.857,97.331,1529.414,95.056,1529.951z M77.85,1547.479
	c-0.902,0.324-1.511,0.863-1.812,1.498l-3.938-3.323c-0.731-0.619-1.502-0.877-2.203-0.82l0.91-5.069
	c0.169-0.947-0.002-1.734-0.405-2.313l4.861-1.754c0.901-0.324,1.51-0.861,1.811-1.496l3.938,3.324
	c0.732,0.616,1.501,0.877,2.202,0.817l-0.91,5.072c-0.17,0.945,0.001,1.732,0.404,2.312L77.85,1547.479z"/>
<g>
	<path d="M501.454,1565.588c8.529-3.081,14.482-8.238,17.43-14.612c4.22-9.142,2.931-25.308,2.931-25.308
		c-12.654,0-19.84-8.08-19.84-8.08s-8.223,8.08-20.877,8.08c0,0-1.289,15.915,2.934,25.057
		C486.976,1557.1,492.928,1562.507,501.454,1565.588z"/>
</g>
<g>
	<g>
		<path d="M79.157,1605.812c-3.477,3.161-10.414,4.689-15.106,2.354c-0.996-0.487-4.494-1.905-5.813-3.002
			c7.819,15.769-0.17,18.198,1.07,27.693c1.092,8.356,6.106,13.374,12.798,15.579c2.585,0.865,5.128,2.559,7.052,4.728l0,0
			c0-0.003,0.001-0.003,0.003-0.004l0,0c1.925-2.168,4.466-3.857,7.053-4.722c6.688-2.191,11.298-7.976,12.479-14.316
			c1.785-9.598-5.006-12.559,0.04-28.579c-1.322,1.09-4.063,2.164-5.058,2.65c-4.692,2.313-11.039,0.767-14.515-2.388
			C79.159,1605.809,79.157,1605.81,79.157,1605.812z"/>
	</g>
</g>
<path d="M306.249,1610.394c-6.539-5.974-29.061-7.903-40.756,0c-0.134,0.09-3.247,24.966,20.219,42.65c0,0,0.065,0.053,0.161,0.12
	c0.096-0.075,0.157-0.12,0.157-0.12C309.492,1635.358,306.365,1610.496,306.249,1610.394z"/>
<path d="M522,812.372L517.379,807c0,0-3.869,4.299-7.31,4.406c-3.438,0.106-7.454-3.683-7.454-3.683s-4.07,3.789-7.51,3.683
	c-3.438-0.107-7.309-4.406-7.309-4.406l-4.62,5.372c0,0,0.539,25.646,19.37,42.554V855c0.014-0.012,0.024-0.023,0.041-0.036
	c0.014,0.013,0.026,0.024,0.041,0.036v-0.074C521.461,838.018,522,812.372,522,812.372z"/>
<path d="M198.144,1616.854c1.523-3.166,0.772-9.241,0.772-9.241l-2.001-2.448c0,0-2.003,3.541-7.394,3.851
	c-5.389,0.308-6.624-3.851-6.624-3.851l-2.345,0.021l-2.349-0.021c0,0-1.23,4.157-6.621,3.851c-5.395-0.31-7.397-3.851-7.397-3.851
	l-2.001,2.448c0,0-0.75,6.075,0.774,9.241c1.692,3.525,3.694,7.718,1.692,11.721c-2.001,4.004-6.873,13.799,15.885,24.572v0.018
	c0.002-0.003,0.011-0.006,0.018-0.008c0.006,0.002,0.008,0.005,0.014,0.008v-0.018c22.758-10.773,17.887-20.568,15.886-24.572
	C194.45,1624.57,196.448,1620.379,198.144,1616.854z"/>
<path d="M417.547,841.86c-0.433-4.005-4.71-7.344-4.85-13.989c-0.141-6.651,4.091-11.272,4.091-11.272s-1.815-2.777-4.366-3.551
	c-2.334-0.709-2.284-1.799-4.155-3.048c-1.283-0.854-3.324-1.104-6.235,0.14c-2.334,1-4.836-1.938-5.734-3.14h-0.221
	c-0.899,1.201-3.402,4.14-5.739,3.14c-2.906-1.243-4.952-0.993-6.233-0.14c-1.871,1.249-1.82,2.339-4.154,3.048
	c-2.552,0.772-4.369,3.551-4.369,3.551s4.229,4.621,4.092,11.272c-0.14,6.646-4.416,9.984-4.85,13.989
	c-0.556,5.124,4.169,11.633,9.145,10.388c3.876-0.97,7.892-1.8,9.277-0.97c1.018,0.609,2.254,2.557,2.849,3.559
	c0,0,0.063,0.208,0.093,0.154c0.026,0.054,0.091-0.154,0.091-0.154c0.591-1.002,1.833-2.948,2.847-3.559
	c1.385-0.83,5.398,0,9.281,0.97C413.38,853.493,418.102,846.984,417.547,841.86z"/>
<text transform="matrix(1 0 0 1 206.9998 72)" font-family="'MyriadPro-Regular'" font-size="72">Shapes</text>
<rect x="370.231" y="1613.414" width="48" height="31.5"/>
</svg>
