<?xml version="1.0" encoding="utf-8"?>
<!-- Generator: Adobe Illustrator 15.1.0, SVG Export Plug-In . SVG Version: 6.00 Build 0)  -->
<!DOCTYPE svg PUBLIC "-//W3C//DTD SVG 1.1//EN" "http://www.w3.org/Graphics/SVG/1.1/DTD/svg11.dtd">
<svg version="1.1" id="Layer_1" xmlns="http://www.w3.org/2000/svg" xmlns:xlink="http://www.w3.org/1999/xlink" x="0px" y="0px"
	 width="841.891px" height="641px" viewBox="0 0 841.891 641" enable-background="new 0 0 841.891 641" xml:space="preserve">
<g>
	<g>
		<path d="M308.734,143.484c0.661,0,1.208-0.539,1.208-1.204v-17.772c0-0.665-0.547-1.208-1.208-1.208
			c-0.67,0-1.208,0.543-1.208,1.208v17.772C307.526,142.945,308.064,143.484,308.734,143.484z"/>
	</g>
	<g>
		<path d="M316.163,143.484c0.669,0,1.208-0.539,1.208-1.204v-17.772c0-0.665-0.539-1.208-1.208-1.208s-1.208,0.543-1.208,1.208
			v17.772C314.955,142.945,315.494,143.484,316.163,143.484z"/>
	</g>
	<g>
		<path d="M299.844,131.288h25.201c0.67,0,1.208-0.539,1.208-1.208c0-0.665-0.538-1.208-1.208-1.208h-25.201
			c-0.67,0-1.207,0.543-1.207,1.208C298.637,130.749,299.175,131.288,299.844,131.288z"/>
	</g>
	<g>
		<path d="M301.705,136.86h23.341c0.67,0,1.208-0.539,1.208-1.204c0-0.669-0.538-1.208-1.208-1.208h-23.341
			c-0.669,0-1.207,0.539-1.207,1.208C300.498,136.321,301.036,136.86,301.705,136.86z"/>
	</g>
	<g>
		<g>
			<g>
				<path d="M298.938,125.537h26.253c-0.024,0.143-0.065,0.314-0.131,0.519l-4.416,14.077c-0.065,0.037-0.131,0.062-0.203,0.062
					h-14.76l-6.621-14.221C299.003,125.815,298.963,125.668,298.938,125.537 M298.841,121.721c-3.805,0-4.312,3.298-3.281,5.776
					l6.67,14.314c0.18,0.6,1.068,2.204,2.979,2.204h15.234c2.016,0,3.354-1.458,3.623-2.058l4.653-14.8
					c1.25-4.131-1.216-5.438-2.913-5.438C324.114,121.721,303.126,121.721,298.841,121.721L298.841,121.721z"/>
			</g>
		</g>
	</g>
	<path d="M313.723,155.158c0,1.861,1.51,3.367,3.371,3.367c1.853,0,3.362-1.505,3.362-3.367c0-1.857-1.511-3.368-3.362-3.368
		C315.232,151.791,313.723,153.301,313.723,155.158z"/>
	<path d="M302.579,155.158c0,1.861,1.511,3.367,3.363,3.367c1.861,0,3.372-1.505,3.372-3.367c0-1.857-1.511-3.368-3.372-3.368
		C304.09,151.791,302.579,153.301,302.579,155.158z"/>
	<path d="M301.592,151.443h14.556c5.15,0,7.208-4.881,7.29-5.089c0.024-0.057,0.049-0.119,0.065-0.18c0,0,8.072-27.482,8.692-29.601
		c0.589-2,1.086-2.282,2.604-2.282h6.44c1.028,0,1.854-0.833,1.854-1.857c0-1.028-0.824-1.857-1.854-1.857h-6.439
		c-4.146,0-5.444,2.498-6.163,4.947c-0.604,2.037-8.1,27.555-8.661,29.486c-0.204,0.424-1.388,2.718-3.829,2.718h-14.556
		c-1.027,0-1.86,0.833-1.86,1.857S300.563,151.443,301.592,151.443z"/>
</g>
<g>
	<g>
		<path d="M161.144,130.181c-0.471,0-0.94-0.179-1.298-0.536c-0.715-0.714-0.715-1.87,0-2.584l12.625-12.625
			c0.714-0.714,1.874-0.714,2.588,0s0.714,1.875,0,2.588l-12.624,12.621C162.077,130.002,161.606,130.181,161.144,130.181z"/>
	</g>
	<g>
		<path d="M146.061,130.181c0.463,0,0.934-0.179,1.29-0.536c0.715-0.714,0.715-1.87,0-2.584l-12.624-12.625
			c-0.714-0.714-1.866-0.714-2.58,0c-0.715,0.714-0.715,1.875,0,2.588l12.616,12.621
			C145.128,130.002,145.591,130.181,146.061,130.181z"/>
	</g>
	<path d="M175.757,126.664h-7.546l-4.755,4.75c-0.722,0.722-1.671,1.115-2.692,1.115c-1.015,0-1.965-0.394-2.687-1.115
		c-1.29-1.286-1.461-3.278-0.503-4.75h-7.951c0.957,1.472,0.795,3.464-0.503,4.75c-0.715,0.722-1.672,1.115-2.686,1.115
		c-1.016,0-1.973-0.394-2.687-1.115l-4.755-4.75h-7.546c-1.022,0-1.85,0.827-1.85,1.846v5.538c0,1.018,0.826,1.846,1.85,1.846h1.842
		v1.846c0,0.167,3.691,14.771,3.691,14.771c0.552,0.981,1.015,1.846,1.851,1.846h29.541c1.015,0,1.412-0.807,1.842-1.846
		c0,0,3.692-14.604,3.692-14.771v-1.846h1.85c1.015,0,1.843-0.828,1.843-1.846v-5.538
		C177.599,127.491,176.771,126.664,175.757,126.664z"/>
	<circle fill="#FFFFFF" cx="141.282" cy="136.813" r="2.207"/>
	<g>
		<circle fill="#FFFFFF" cx="157.509" cy="136.813" r="2.207"/>
	</g>
	<g>
		<circle fill="#FFFFFF" cx="149.331" cy="136.813" r="2.207"/>
	</g>
	<g>
		<circle fill="#FFFFFF" cx="154.134" cy="143" r="2.207"/>
	</g>
	<g>
		<circle fill="#FFFFFF" cx="161.793" cy="143" r="2.207"/>
	</g>
	<g>
		<circle fill="#FFFFFF" cx="145.956" cy="143" r="2.207"/>
	</g>
	<g>
		<circle fill="#FFFFFF" cx="165.688" cy="136.813" r="2.207"/>
	</g>
</g>
<g>
	<g>
		<path d="M84.144,130.681c-0.471,0-0.94-0.179-1.298-0.536c-0.715-0.714-0.715-1.87,0-2.584l12.625-12.625
			c0.714-0.714,1.874-0.714,2.588,0s0.714,1.875,0,2.588l-12.624,12.621C85.077,130.502,84.606,130.681,84.144,130.681z"/>
	</g>
	<g>
		<path d="M69.061,130.681c0.463,0,0.934-0.179,1.29-0.536c0.715-0.714,0.715-1.87,0-2.584l-12.624-12.625
			c-0.714-0.714-1.866-0.714-2.58,0c-0.715,0.714-0.715,1.875,0,2.588l12.616,12.621C68.128,130.502,68.591,130.681,69.061,130.681z
			"/>
	</g>
	<path d="M98.757,127.164h-7.546l-4.755,4.75c-0.722,0.722-1.671,1.115-2.692,1.115c-1.015,0-1.965-0.394-2.687-1.115
		c-1.29-1.286-1.461-3.278-0.503-4.75h-7.951c0.957,1.472,0.795,3.464-0.503,4.75c-0.715,0.722-1.672,1.115-2.686,1.115
		c-1.016,0-1.973-0.394-2.687-1.115l-4.755-4.75h-7.546c-1.022,0-1.85,0.827-1.85,1.846v5.538c0,1.018,0.826,1.846,1.85,1.846h1.842
		v1.846c0,0.167,3.691,14.771,3.691,14.771c0.552,0.981,1.015,1.846,1.851,1.846h29.541c1.016,0,1.412-0.807,1.842-1.846
		c0,0,3.692-14.604,3.692-14.771v-1.846h1.85c1.015,0,1.843-0.828,1.843-1.846v-5.538
		C100.599,127.991,99.771,127.164,98.757,127.164z"/>
	<circle fill="#FFFFFF" cx="64.282" cy="137.313" r="2.207"/>
	<g>
		<circle fill="#FFFFFF" cx="80.509" cy="137.313" r="2.207"/>
	</g>
	<g>
		<circle fill="#FFFFFF" cx="72.331" cy="137.313" r="2.207"/>
	</g>
	<g>
		<circle fill="#FFFFFF" cx="77.134" cy="143.5" r="2.207"/>
	</g>
	<g>
		<circle fill="#FFFFFF" cx="84.793" cy="143.5" r="2.207"/>
	</g>
	<g>
		<circle fill="#FFFFFF" cx="68.956" cy="143.5" r="2.207"/>
	</g>
	<g>
		<circle fill="#FFFFFF" cx="88.688" cy="137.313" r="2.207"/>
	</g>
</g>
<g>
	<g>
		<path d="M237.322,129.757c-0.47,0-0.94-0.179-1.298-0.536c-0.714-0.714-0.714-1.87,0-2.584l12.625-12.625
			c0.714-0.714,1.874-0.714,2.588,0c0.714,0.714,0.714,1.875,0,2.588l-12.624,12.621
			C238.256,129.579,237.785,129.757,237.322,129.757z"/>
	</g>
	<g>
		<path d="M222.239,129.757c0.463,0,0.934-0.179,1.29-0.536c0.715-0.714,0.715-1.87,0-2.584l-12.624-12.625
			c-0.714-0.714-1.866-0.714-2.58,0c-0.715,0.714-0.715,1.875,0,2.588l12.616,12.621
			C221.307,129.579,221.77,129.757,222.239,129.757z"/>
	</g>
	<path d="M251.936,126.24h-7.546l-4.756,4.75c-0.722,0.722-1.671,1.115-2.692,1.115c-1.014,0-1.964-0.394-2.687-1.115
		c-1.29-1.286-1.461-3.278-0.503-4.75h-7.951c0.957,1.472,0.796,3.464-0.503,4.75c-0.715,0.722-1.672,1.115-2.686,1.115
		c-1.015,0-1.972-0.394-2.687-1.115l-4.755-4.75h-7.546c-1.021,0-1.85,0.827-1.85,1.846v5.538c0,1.018,0.827,1.846,1.85,1.846h1.842
		v1.846c0,0.167,3.691,14.771,3.691,14.771c0.552,0.981,1.015,1.846,1.851,1.846h29.541c1.016,0,1.412-0.807,1.843-1.846
		c0,0,3.691-14.604,3.691-14.771v-1.846h1.851c1.014,0,1.842-0.828,1.842-1.846v-5.538
		C253.777,127.067,252.949,126.24,251.936,126.24z"/>
	<circle fill="#FFFFFF" cx="217.461" cy="136.39" r="2.207"/>
	<g>
		<circle fill="#FFFFFF" cx="233.688" cy="136.39" r="2.207"/>
	</g>
	<g>
		<circle fill="#FFFFFF" cx="225.509" cy="136.39" r="2.207"/>
	</g>
	<g>
		<circle fill="#FFFFFF" cx="230.313" cy="142.577" r="2.207"/>
	</g>
	<g>
		<circle fill="#FFFFFF" cx="237.972" cy="142.577" r="2.207"/>
	</g>
	<g>
		<circle fill="#FFFFFF" cx="222.134" cy="142.577" r="2.207"/>
	</g>
	<g>
		<circle fill="#FFFFFF" cx="241.866" cy="136.39" r="2.207"/>
	</g>
</g>
<g>
	<path d="M621.183,129.544c-0.26,0-0.521-0.085-0.738-0.262c-0.5-0.406-0.576-1.143-0.17-1.645c0.029-0.036,2.902-3.637,3.627-8.891
		c0.2-1.449-0.079-2.832-0.785-3.893c-0.714-1.071-1.799-1.734-3.137-1.918c-2.56-0.338-4.921,1.442-5.272,3.997
		c-0.15,1.088-0.005,3.928,0.063,4.931c0.045,0.645-0.442,1.203-1.086,1.247c-0.623,0.06-1.203-0.441-1.248-1.086
		c-0.027-0.394-0.258-3.888-0.048-5.411c0.528-3.834,4.082-6.525,7.909-5.995c1.993,0.274,3.686,1.318,4.765,2.938
		c1.023,1.537,1.436,3.494,1.156,5.51c-0.817,5.93-3.995,9.883-4.132,10.048C621.856,129.397,621.521,129.544,621.183,129.544z"/>
	<path d="M613.101,135.968l11.375,21.173c0.699,1.302,2.324,1.791,3.628,1.091l14.154-7.604c1.304-0.7,1.793-2.325,1.093-3.627
		l-11.375-21.173c-0.182-0.337-2.991-1.196-6.206-1.983c-0.046,0.213-0.06,0.425-0.124,0.637c-0.244,0.813-0.802,2.018-1.323,3.067
		c0.185,0.592,0.199,1.242,0.007,1.879c-0.512,1.699-2.305,2.664-4.004,2.151c-1.7-0.512-2.664-2.305-2.151-4.004
		c0.314-1.047,1.117-1.812,2.084-2.127c0.457-0.924,0.871-1.824,1.01-2.285c0.029-0.099,0.036-0.197,0.057-0.297
		c-0.401-0.076-0.797-0.149-1.176-0.213c-2.229-0.384-2.25-0.395-3.168,1.708C615.412,127.948,612.586,135.004,613.101,135.968z"/>
	<path fill="#FFFFFF" d="M630.417,138.038c-0.574,0.027-1.658,0.068-2.975,0.774c-1.187,0.638-1.286,1.373-1.011,1.885
		c0.313,0.583,1.169,0.643,3.024,0.375c2.604-0.411,4.002,0.133,4.896,1.795c0.872,1.625,0.474,3.604-1.447,5.106l1.012,1.881
		l-1.791,0.961l-0.94-1.752c-1.243,0.62-2.617,0.912-3.517,0.902l-0.603-2.433c0.993,0.008,2.277-0.188,3.464-0.825
		c1.041-0.559,1.546-1.373,1.165-2.084c-0.375-0.693-1.213-0.808-2.809-0.539c-2.31,0.392-4.134,0.196-5.084-1.576
		c-0.873-1.625-0.418-3.494,1.34-4.91l-0.933-1.734l1.789-0.963l0.863,1.608c1.244-0.621,2.213-0.788,2.991-0.829L630.417,138.038z"
		/>
</g>
<g>
	<path d="M529.216,129.544c-0.261,0-0.521-0.085-0.738-0.262c-0.5-0.406-0.576-1.143-0.17-1.645
		c0.029-0.036,2.902-3.637,3.627-8.891c0.2-1.449-0.079-2.832-0.785-3.893c-0.714-1.071-1.799-1.734-3.137-1.918
		c-2.564-0.338-4.92,1.442-5.273,3.997c-0.149,1.088-0.004,3.928,0.064,4.931c0.045,0.645-0.442,1.203-1.086,1.247
		c-0.631,0.06-1.203-0.441-1.248-1.086c-0.027-0.394-0.258-3.888-0.048-5.411c0.527-3.834,4.086-6.525,7.909-5.995
		c1.992,0.274,3.686,1.318,4.765,2.938c1.022,1.537,1.435,3.494,1.156,5.51c-0.817,5.93-3.995,9.883-4.132,10.048
		C529.889,129.397,529.553,129.544,529.216,129.544z"/>
	<path d="M521.134,135.968l11.375,21.173c0.698,1.302,2.323,1.791,3.628,1.091l14.153-7.604c1.305-0.7,1.793-2.325,1.094-3.627
		l-11.375-21.173c-0.183-0.337-2.991-1.196-6.206-1.983c-0.046,0.213-0.061,0.425-0.124,0.637c-0.244,0.813-0.803,2.018-1.323,3.067
		c0.184,0.592,0.199,1.242,0.007,1.879c-0.512,1.699-2.305,2.664-4.004,2.151c-1.701-0.512-2.664-2.305-2.152-4.004
		c0.315-1.047,1.117-1.812,2.084-2.127c0.457-0.924,0.871-1.824,1.011-2.285c0.028-0.099,0.036-0.197,0.057-0.297
		c-0.402-0.076-0.797-0.149-1.176-0.213c-2.229-0.384-2.25-0.395-3.168,1.708C523.444,127.948,520.617,135.004,521.134,135.968z"/>
	<path fill="#FFFFFF" d="M539.214,135.534c-0.747-0.096-1.729-0.046-2.785,0.379c-1.923,0.766-2.98,2.527-2.79,4.98l5.444-2.188
		l0.668,1.661l-5.761,2.314c0.121,0.46,0.179,0.693,0.378,1.189c0.166,0.416,0.26,0.566,0.452,0.928l5.777-2.321l0.661,1.645
		l-5.506,2.212c1.476,1.896,3.433,2.589,5.542,1.743c0.938-0.378,1.834-1.028,2.33-1.627l1.346,2.248
		c-0.417,0.573-1.484,1.461-3.058,2.09c-3.397,1.366-6.606,0-8.772-3.406l-1.442,0.58l-0.661-1.646l1.263-0.507
		c-0.158-0.328-0.221-0.435-0.363-0.79c-0.217-0.54-0.287-0.822-0.431-1.341l-1.315,0.528l-0.667-1.661l1.552-0.624
		c-0.611-4.053,1.063-7.224,4.242-8.501c1.551-0.625,2.814-0.639,3.425-0.508L539.214,135.534z"/>
</g>
<g>
	<path d="M727.61,138.046l-3.812,3.656l0.429,5.266c0.059,0.718-0.396,1.377-1.088,1.577l-5.074,1.464l-2.068,4.862
		c-0.278,0.664-0.991,1.042-1.693,0.891l-5.18-1.06l-4.087,3.345c-0.277,0.227-0.617,0.342-0.958,0.342
		c-0.34,0-0.681-0.115-0.959-0.342l-4.089-3.345l-5.177,1.06c-0.703,0.153-1.414-0.229-1.696-0.891l-2.065-4.862l-5.075-1.464
		c-0.692-0.2-1.146-0.858-1.089-1.577l0.429-5.266l-3.813-3.656c-0.521-0.499-0.615-1.295-0.23-1.903l2.828-4.462l-1.678-5.01
		c-0.229-0.683,0.056-1.433,0.68-1.792l4.578-2.638l0.842-5.215c0.115-0.71,0.715-1.242,1.437-1.271l5.276-0.208l3.171-4.226
		c0.434-0.576,1.212-0.769,1.86-0.458l4.771,2.269l4.771-2.269c0.646-0.312,1.426-0.119,1.858,0.458l3.171,4.226l5.279,0.208
		c0.72,0.028,1.318,0.56,1.435,1.271l0.844,5.215l4.578,2.638c0.623,0.359,0.907,1.109,0.678,1.792l-1.677,5.01l2.828,4.462
		C728.229,136.751,728.133,137.548,727.61,138.046z"/>
	<g>
		<path fill="#FFFFFF" d="M691.217,128.45c0-2.065,0.453-3.595,1.359-4.592c0.905-0.996,2.137-1.493,3.688-1.493
			c1.604,0,2.858,0.496,3.768,1.486c0.906,0.99,1.358,2.523,1.358,4.599c0,2.065-0.452,3.596-1.358,4.591
			c-0.908,0.996-2.137,1.494-3.688,1.494c-1.603,0-2.859-0.495-3.766-1.486C691.67,132.059,691.217,130.525,691.217,128.45z
			 M694.659,128.418c0,1.5,0.172,2.506,0.521,3.02c0.262,0.377,0.623,0.566,1.084,0.566c0.473,0,0.839-0.189,1.102-0.566
			c0.336-0.514,0.503-1.52,0.503-3.02c0-1.499-0.167-2.5-0.503-3.003c-0.263-0.387-0.629-0.582-1.102-0.582
			c-0.461,0-0.822,0.189-1.084,0.567C694.831,125.914,694.659,126.919,694.659,128.418z M699.629,146.689h-3.271l12.28-24.324h3.176
			L699.629,146.689z M706.767,140.636c0-2.065,0.453-3.596,1.361-4.592c0.904-0.996,2.146-1.494,3.717-1.494
			c1.583,0,2.828,0.499,3.733,1.494c0.908,0.996,1.361,2.526,1.361,4.592c0,2.075-0.453,3.611-1.361,4.607
			c-0.905,0.995-2.135,1.493-3.687,1.493c-1.604,0-2.859-0.499-3.765-1.493C707.22,144.248,706.767,142.711,706.767,140.636z
			 M710.211,140.62c0,1.5,0.173,2.5,0.519,3.003c0.262,0.388,0.624,0.582,1.086,0.582c0.472,0,0.833-0.188,1.084-0.566
			c0.347-0.514,0.521-1.52,0.521-3.019s-0.17-2.505-0.505-3.019c-0.262-0.377-0.629-0.566-1.101-0.566s-0.833,0.189-1.086,0.566
			C710.384,138.115,710.211,139.121,710.211,140.62z"/>
	</g>
</g>
<g>
	<path d="M767.691,126.567c0-6.013,4.918-10.887,10.983-10.887s10.983,4.875,10.983,10.887c0,0.226-0.01,0.449-0.022,0.671
		c0.696-1.327,1.088-2.798,1.088-4.348c0-5.853-5.524-10.597-12.339-10.597c-6.815,0-12.339,4.744-12.339,10.597
		c0,2.022,0.659,3.912,1.806,5.52C767.748,127.811,767.691,127.196,767.691,126.567z"/>
	<path d="M783.271,146.406c0-6.911,5.335-12.599,12.103-13.163l-0.827-10.111h-32.273l-3.484,33.677h29.563
		C785.261,154.389,783.271,150.625,783.271,146.406z"/>
	<circle cx="796.481" cy="146.406" r="10.307"/>
	<g>
		<path fill="#FFFFFF" d="M797.267,151.952v1.63h-1.097v-1.585c-1.018-0.005-1.963-0.235-2.84-0.691v-2.081
			c0.29,0.235,0.725,0.453,1.301,0.653c0.574,0.201,1.089,0.316,1.539,0.346v-2.734c-1.172-0.436-1.973-0.908-2.399-1.416
			c-0.427-0.508-0.643-1.128-0.643-1.859c0-0.786,0.277-1.456,0.834-2.009c0.556-0.553,1.292-0.875,2.208-0.965v-1.397h1.097v1.367
			c1.057,0.05,1.846,0.22,2.366,0.511v2.028c-0.701-0.426-1.489-0.686-2.366-0.781v2.847c1.097,0.396,1.883,0.848,2.359,1.356
			c0.476,0.508,0.713,1.123,0.713,1.844c0,0.832-0.267,1.501-0.796,2.009C799.012,151.533,798.254,151.842,797.267,151.952z
			 M796.171,145.38v-2.381c-0.695,0.125-1.045,0.488-1.045,1.089C795.126,144.604,795.475,145.034,796.171,145.38z M797.267,147.918
			v2.276c0.717-0.11,1.074-0.468,1.074-1.074C798.342,148.63,797.983,148.229,797.267,147.918z"/>
	</g>
</g>
<g>
	<g>
		<g>
			<path d="M462.251,142.146c0.52,0,0.949-0.424,0.949-0.948v-13.989c0-0.523-0.431-0.951-0.949-0.951
				c-0.527,0-0.951,0.428-0.951,0.951v13.989C461.3,141.721,461.723,142.146,462.251,142.146z"/>
		</g>
		<g>
			<path d="M468.097,142.146c0.525,0,0.95-0.424,0.95-0.948v-13.989c0-0.523-0.425-0.951-0.95-0.951c-0.526,0-0.95,0.428-0.95,0.951
				v13.989C467.146,141.721,467.57,142.146,468.097,142.146z"/>
		</g>
		<g>
			<path d="M455.253,132.545h19.836c0.526,0,0.95-0.424,0.95-0.951c0-0.523-0.424-0.951-0.95-0.951h-19.836
				c-0.527,0-0.951,0.428-0.951,0.951C454.302,132.121,454.725,132.545,455.253,132.545z"/>
		</g>
		<g>
			<path d="M456.718,136.931h18.371c0.526,0,0.95-0.424,0.95-0.948c0-0.527-0.424-0.951-0.95-0.951h-18.371
				c-0.527,0-0.951,0.424-0.951,0.951C455.766,136.507,456.189,136.931,456.718,136.931z"/>
		</g>
		<g>
			<g>
				<g>
					<path d="M454.539,128.019h20.664c-0.02,0.113-0.051,0.247-0.104,0.408l-3.477,11.081c-0.052,0.029-0.103,0.048-0.158,0.048
						h-11.618l-5.212-11.193C454.591,128.237,454.559,128.122,454.539,128.019 M454.463,125.015c-2.995,0-3.395,2.596-2.583,4.546
						l5.25,11.268c0.141,0.472,0.842,1.735,2.344,1.735h11.992c1.586,0,2.64-1.147,2.852-1.62l3.662-11.649
						c0.984-3.251-0.957-4.28-2.293-4.28C474.355,125.015,457.836,125.015,454.463,125.015L454.463,125.015z"/>
				</g>
			</g>
		</g>
		<path d="M466.177,151.334c0,1.465,1.188,2.65,2.652,2.65c1.458,0,2.647-1.185,2.647-2.65c0-1.462-1.189-2.651-2.647-2.651
			C467.364,148.684,466.177,149.873,466.177,151.334z"/>
		<path d="M457.404,151.334c0,1.465,1.189,2.65,2.647,2.65c1.465,0,2.653-1.185,2.653-2.65c0-1.462-1.188-2.651-2.653-2.651
			C458.594,148.684,457.404,149.873,457.404,151.334z"/>
		<path d="M456.628,148.41h11.457c4.054,0,5.674-3.842,5.737-4.006c0.021-0.045,0.038-0.093,0.051-0.142
			c0,0,6.355-21.632,6.845-23.299c0.463-1.574,0.854-1.796,2.049-1.796h5.07c0.811,0,1.459-0.655,1.459-1.462
			c0-0.809-0.648-1.461-1.459-1.461h-5.07c-3.264,0-4.285,1.966-4.852,3.894c-0.476,1.603-6.373,21.689-6.816,23.209
			c-0.16,0.334-1.092,2.14-3.014,2.14h-11.457c-0.81,0-1.466,0.655-1.466,1.462C455.162,147.755,455.818,148.41,456.628,148.41z"/>
	</g>
	<rect x="442.761" y="116.585" fill="none" width="14.956" height="14.956"/>
	<path fill="#FFFFFF" d="M450.238,133.007c-4.932,0-8.942-4.012-8.942-8.944s4.012-8.944,8.942-8.944
		c4.932,0,8.944,4.012,8.944,8.944C459.183,128.995,455.171,133.007,450.238,133.007z"/>
	<circle cx="450.238" cy="124.063" r="7.37"/>
	<g>
		
			<rect x="449.286" y="119.898" transform="matrix(-0.7072 -0.707 0.707 -0.7072 680.986 530.0663)" fill="#FFFFFF" width="1.918" height="8.268"/>
		
			<rect x="449.307" y="119.891" transform="matrix(0.7071 -0.7071 0.7071 0.7071 44.1812 354.712)" fill="#FFFFFF" width="1.917" height="8.268"/>
	</g>
</g>
<g>
	<rect x="237.731" y="145.146" fill="none" width="14.956" height="14.956"/>
	<path fill="#FFFFFF" d="M245.209,161.568c-4.932,0-8.943-4.012-8.943-8.944s4.012-8.944,8.943-8.944
		c4.933,0,8.944,4.012,8.944,8.944S250.141,161.568,245.209,161.568z"/>
	<circle cx="245.209" cy="152.624" r="7.37"/>
	<g>
		
			<rect x="244.273" y="148.451" transform="matrix(-0.7072 -0.707 0.707 -0.7072 310.7939 433.8732)" fill="#FFFFFF" width="1.918" height="8.268"/>
		
			<rect x="244.277" y="148.453" transform="matrix(0.7071 -0.7071 0.7071 0.7071 -36.0677 218.0992)" fill="#FFFFFF" width="1.917" height="8.267"/>
	</g>
</g>
<g>
	<g>
		<g>
			<path d="M394.583,142.146c0.521,0,0.951-0.424,0.951-0.948v-13.989c0-0.523-0.431-0.951-0.951-0.951
				c-0.526,0-0.95,0.428-0.95,0.951v13.989C393.632,141.721,394.055,142.146,394.583,142.146z"/>
		</g>
		<g>
			<path d="M400.43,142.146c0.525,0,0.951-0.424,0.951-0.948v-13.989c0-0.523-0.425-0.951-0.951-0.951
				c-0.527,0-0.951,0.428-0.951,0.951v13.989C399.479,141.721,399.903,142.146,400.43,142.146z"/>
		</g>
		<g>
			<path d="M387.585,132.545h19.836c0.526,0,0.95-0.424,0.95-0.951c0-0.523-0.423-0.951-0.95-0.951h-19.836
				c-0.527,0-0.95,0.428-0.95,0.951C386.635,132.121,387.058,132.545,387.585,132.545z"/>
		</g>
		<g>
			<path d="M389.05,136.931h18.372c0.526,0,0.95-0.424,0.95-0.948c0-0.527-0.423-0.951-0.95-0.951H389.05
				c-0.526,0-0.95,0.424-0.95,0.951C388.099,136.507,388.523,136.931,389.05,136.931z"/>
		</g>
		<g>
			<g>
				<g>
					<path d="M386.872,128.019h20.665c-0.019,0.113-0.051,0.247-0.103,0.408l-3.477,11.081c-0.051,0.029-0.103,0.048-0.159,0.048
						H392.18l-5.212-11.193C386.923,128.237,386.891,128.122,386.872,128.019 M386.796,125.015c-2.995,0-3.395,2.596-2.583,4.546
						l5.25,11.268c0.142,0.472,0.842,1.735,2.344,1.735h11.992c1.586,0,2.641-1.147,2.852-1.62l3.663-11.649
						c0.984-3.251-0.957-4.28-2.293-4.28C406.688,125.015,390.169,125.015,386.796,125.015L386.796,125.015z"/>
				</g>
			</g>
		</g>
		<path d="M398.51,151.334c0,1.465,1.188,2.65,2.652,2.65c1.458,0,2.647-1.185,2.647-2.65c0-1.462-1.189-2.651-2.647-2.651
			C399.697,148.684,398.51,149.873,398.51,151.334z"/>
		<path d="M389.737,151.334c0,1.465,1.189,2.65,2.647,2.65c1.465,0,2.653-1.185,2.653-2.65c0-1.462-1.188-2.651-2.653-2.651
			C390.927,148.684,389.737,149.873,389.737,151.334z"/>
		<path d="M388.961,148.41h11.455c4.055,0,5.675-3.842,5.738-4.006c0.021-0.045,0.039-0.093,0.052-0.142
			c0,0,6.354-21.632,6.844-23.299c0.463-1.574,0.854-1.796,2.05-1.796h5.07c0.81,0,1.458-0.655,1.458-1.462
			c0-0.809-0.649-1.461-1.458-1.461h-5.07c-3.265,0-4.285,1.966-4.852,3.894c-0.476,1.603-6.375,21.689-6.816,23.209
			c-0.161,0.334-1.092,2.14-3.015,2.14h-11.456c-0.811,0-1.466,0.655-1.466,1.462C387.495,147.755,388.151,148.41,388.961,148.41z"
			/>
	</g>
	<rect x="375.094" y="116.585" fill="none" width="14.956" height="14.956"/>
	<path fill="#FFFFFF" d="M382.572,133.007c-4.932,0-8.943-4.012-8.943-8.944s4.012-8.944,8.943-8.944
		c4.933,0,8.944,4.012,8.944,8.944S387.504,133.007,382.572,133.007z"/>
	<circle cx="382.572" cy="124.063" r="7.37"/>
	<polygon fill="#FFFFFF" points="385.795,121.556 381.011,125.097 379.639,123.243 378.4,124.159 380.69,127.252 386.712,122.794 	
		"/>
</g>
<g>
	<rect x="161.324" y="145.863" fill="none" width="14.399" height="14.399"/>
	<path fill="#FFFFFF" d="M168.523,161.673c-4.749,0-8.611-3.863-8.611-8.611s3.862-8.611,8.611-8.611c4.748,0,8.61,3.863,8.61,8.611
		C177.134,157.811,173.271,161.673,168.523,161.673z"/>
	<circle cx="168.523" cy="153.062" r="7.096"/>
	<polygon fill="#FFFFFF" points="171.625,150.649 167.021,154.058 165.7,152.272 164.507,153.155 166.711,156.132 172.509,151.841 	
		"/>
</g>
<g>
	<path d="M297.107,232.493c-1.041,0-1.89-0.849-1.89-1.889v-1.889c0-1.041,0.85-1.889,1.89-1.889h37.78
		c1.04,0,1.889,0.849,1.889,1.889v1.889c0,1.04-0.849,1.889-1.889,1.889H297.107z"/>
	<path d="M339.994,247.548l-3.218-9.219v-2.058c0-1.041-0.849-1.889-1.889-1.889h-37.78c-1.041,0-1.89,0.849-1.89,1.889v2.059
		l-3.215,9.218c0,0-0.03,1.934,1.917,1.934c0.679,0,1.066-0.335,1.3-0.725v23.405c0,1.041,0.849,1.889,1.889,1.889h24.557v-18.89
		h9.445v18.89h3.778c1.04,0,1.889-0.849,1.889-1.889V248.76c0.257,0.388,0.699,0.722,1.506,0.722
		C340.229,249.482,339.994,247.548,339.994,247.548z"/>
	<rect x="300.885" y="255.162" fill="#FFFFFF" width="15.111" height="13.223"/>
</g>
<g>
	<path d="M101.729,252.032l-2.83-4.462l1.678-5.01c0.229-0.683-0.055-1.433-0.677-1.792l-4.58-2.638l-0.844-5.216
		c-0.113-0.71-0.713-1.242-1.435-1.271l-5.277-0.208l-3.173-4.226c-0.433-0.578-1.211-0.771-1.857-0.458l-4.771,2.269l-4.771-2.269
		c-0.647-0.31-1.426-0.117-1.858,0.458l-3.172,4.226l-5.278,0.208c-0.721,0.028-1.32,0.561-1.434,1.271l-0.844,5.216l-4.576,2.638
		c-0.626,0.359-0.909,1.108-0.681,1.792l1.677,5.01l-2.826,4.462c-0.386,0.607-0.291,1.404,0.229,1.903l3.813,3.656l-0.43,5.265
		c-0.06,0.719,0.396,1.377,1.092,1.577l5.074,1.464l2.065,4.861c0.279,0.662,0.993,1.044,1.694,0.892l5.177-1.061l4.089,3.345
		c0.28,0.228,0.618,0.341,0.96,0.341c0.34,0,0.682-0.113,0.957-0.341l4.089-3.345l5.177,1.061c0.702,0.151,1.415-0.228,1.694-0.892
		l2.07-4.861l5.074-1.464c0.69-0.2,1.146-0.858,1.088-1.577l-0.43-5.265l3.813-3.656
		C102.017,253.436,102.115,252.639,101.729,252.032z"/>
	<g>
		<path fill="#FFFFFF" d="M61.802,255.012v-2.736c0.495,0.416,1.033,0.728,1.615,0.936s1.168,0.312,1.762,0.312
			c0.346,0,0.65-0.031,0.908-0.094c0.264-0.063,0.478-0.15,0.651-0.261c0.174-0.111,0.302-0.242,0.39-0.393
			c0.083-0.151,0.127-0.316,0.127-0.492c0-0.239-0.068-0.453-0.204-0.641c-0.138-0.188-0.322-0.362-0.56-0.522
			c-0.236-0.159-0.521-0.313-0.844-0.461c-0.324-0.148-0.674-0.299-1.052-0.453c-0.957-0.399-1.671-0.887-2.144-1.462
			c-0.469-0.576-0.706-1.271-0.706-2.086c0-0.639,0.132-1.187,0.386-1.646c0.26-0.458,0.607-0.836,1.049-1.132
			c0.443-0.296,0.952-0.515,1.534-0.654c0.582-0.14,1.197-0.21,1.849-0.21c0.637,0,1.204,0.039,1.694,0.115
			c0.495,0.077,0.949,0.196,1.364,0.354v2.557c-0.204-0.142-0.43-0.268-0.669-0.375c-0.244-0.108-0.495-0.198-0.75-0.27
			c-0.258-0.072-0.513-0.125-0.764-0.158c-0.255-0.034-0.495-0.052-0.725-0.052c-0.313,0-0.601,0.03-0.854,0.09
			c-0.258,0.06-0.473,0.144-0.65,0.252c-0.175,0.108-0.313,0.238-0.408,0.39c-0.098,0.151-0.146,0.321-0.146,0.508
			c0,0.206,0.052,0.389,0.16,0.552c0.108,0.162,0.263,0.316,0.462,0.461c0.2,0.146,0.444,0.289,0.728,0.428
			c0.284,0.14,0.607,0.284,0.966,0.432c0.489,0.205,0.931,0.423,1.322,0.654c0.391,0.231,0.726,0.492,1.004,0.783
			c0.277,0.29,0.491,0.622,0.642,0.996c0.148,0.373,0.222,0.808,0.222,1.303c0,0.684-0.131,1.258-0.389,1.723
			c-0.259,0.465-0.611,0.84-1.056,1.128c-0.443,0.288-0.961,0.494-1.554,0.62c-0.589,0.125-1.211,0.188-1.866,0.188
			c-0.673,0-1.313-0.057-1.921-0.171C62.768,255.411,62.247,255.24,61.802,255.012z"/>
		<path fill="#FFFFFF" d="M79.198,255.482h-2.554v-1.257h-0.036c-0.586,0.98-1.455,1.47-2.608,1.47
			c-0.848,0-1.517-0.241-2.004-0.722c-0.487-0.482-0.73-1.125-0.73-1.928c0-1.699,1.008-2.679,3.02-2.941l2.375-0.316
			c0-0.958-0.517-1.436-1.557-1.436c-1.041,0-2.033,0.31-2.973,0.931v-2.035c0.374-0.193,0.888-0.364,1.542-0.513
			c0.651-0.148,1.248-0.223,1.782-0.223c2.495,0,3.743,1.246,3.743,3.737V255.482L79.198,255.482z M76.659,251.925v-0.589
			l-1.59,0.205c-0.876,0.114-1.316,0.51-1.316,1.188c0,0.307,0.109,0.56,0.32,0.756c0.214,0.197,0.505,0.295,0.869,0.295
			c0.506,0,0.92-0.176,1.24-0.526C76.499,252.905,76.659,252.461,76.659,251.925z"/>
		<path fill="#FFFFFF" d="M84.04,255.482h-2.703v-12.961h2.703V255.482z"/>
		<path fill="#FFFFFF" d="M94.177,251.875h-5.712c0.092,1.271,0.893,1.906,2.404,1.906c0.961,0,1.81-0.229,2.539-0.684v1.95
			c-0.811,0.433-1.862,0.649-3.157,0.649c-1.411,0-2.51-0.392-3.292-1.176c-0.777-0.783-1.171-1.876-1.171-3.278
			c0-1.453,0.422-2.604,1.267-3.454c0.844-0.849,1.881-1.274,3.113-1.274c1.276,0,2.263,0.379,2.961,1.138
			c0.698,0.757,1.048,1.786,1.048,3.085V251.875z M91.671,250.216c0-1.254-0.506-1.881-1.521-1.881
			c-0.434,0-0.809,0.179-1.124,0.539c-0.316,0.36-0.51,0.807-0.578,1.342H91.671z"/>
	</g>
</g>
<g>
	<path d="M179.538,252.032l-2.83-4.462l1.679-5.01c0.229-0.683-0.056-1.433-0.678-1.792l-4.58-2.638l-0.844-5.216
		c-0.113-0.71-0.713-1.242-1.434-1.271l-5.278-0.208l-3.172-4.226c-0.434-0.578-1.211-0.771-1.858-0.458l-4.77,2.269L151,226.751
		c-0.646-0.31-1.426-0.117-1.857,0.458l-3.172,4.226l-5.278,0.208c-0.721,0.028-1.321,0.561-1.435,1.271l-0.844,5.216l-4.576,2.638
		c-0.626,0.359-0.908,1.108-0.681,1.792l1.677,5.01l-2.826,4.462c-0.386,0.607-0.291,1.404,0.229,1.903l3.813,3.656l-0.43,5.265
		c-0.059,0.719,0.396,1.377,1.092,1.577l5.074,1.464l2.066,4.861c0.278,0.662,0.993,1.044,1.693,0.892l5.178-1.061l4.089,3.345
		c0.279,0.228,0.618,0.341,0.96,0.341c0.339,0,0.681-0.113,0.957-0.341l4.089-3.345l5.176,1.061
		c0.702,0.151,1.415-0.228,1.695-0.892l2.07-4.861l5.073-1.464c0.691-0.2,1.146-0.858,1.088-1.577l-0.43-5.265l3.813-3.656
		C179.826,253.436,179.923,252.639,179.538,252.032z"/>
	<g>
		<path fill="#FFFFFF" d="M147.614,245.316h-4.327v3.01h3.978v2.24h-3.978v4.762h-2.761v-12.26h7.088V245.316z"/>
		<path fill="#FFFFFF" d="M155.077,249.01c-0.325-0.177-0.704-0.266-1.137-0.266c-0.588,0-1.046,0.216-1.377,0.646
			c-0.331,0.43-0.495,1.016-0.495,1.757v4.181h-2.702v-8.755h2.702v1.625h0.033c0.428-1.187,1.195-1.779,2.308-1.779
			c0.286,0,0.508,0.035,0.668,0.103V249.01L155.077,249.01z"/>
		<path fill="#FFFFFF" d="M164.13,251.72h-5.711c0.092,1.271,0.893,1.906,2.403,1.906c0.962,0,1.808-0.227,2.539-0.684v1.95
			c-0.811,0.433-1.863,0.649-3.156,0.649c-1.413,0-2.51-0.392-3.292-1.176c-0.78-0.783-1.171-1.876-1.171-3.278
			c0-1.453,0.422-2.604,1.266-3.454c0.845-0.849,1.882-1.274,3.112-1.274c1.276,0,2.264,0.379,2.963,1.138
			c0.698,0.758,1.047,1.786,1.047,3.085V251.72L164.13,251.72z M161.625,250.061c0-1.254-0.508-1.88-1.521-1.88
			c-0.434,0-0.811,0.179-1.124,0.538c-0.316,0.359-0.51,0.807-0.578,1.342H161.625L161.625,250.061z"/>
		<path fill="#FFFFFF" d="M173.603,251.72h-5.711c0.091,1.271,0.892,1.906,2.401,1.906c0.963,0,1.81-0.227,2.539-0.684v1.95
			c-0.809,0.433-1.861,0.649-3.154,0.649c-1.413,0-2.511-0.392-3.292-1.176c-0.78-0.783-1.173-1.876-1.173-3.278
			c0-1.453,0.423-2.604,1.268-3.454c0.844-0.849,1.88-1.274,3.11-1.274c1.277,0,2.266,0.379,2.964,1.138
			c0.698,0.758,1.048,1.786,1.048,3.085V251.72L173.603,251.72z M171.097,250.061c0-1.254-0.509-1.88-1.521-1.88
			c-0.434,0-0.81,0.179-1.124,0.538c-0.315,0.359-0.51,0.807-0.579,1.342H171.097L171.097,250.061z"/>
	</g>
</g>
<g>
	<path d="M255.847,252.042l-2.851-4.493l1.688-5.044c0.23-0.688-0.056-1.442-0.682-1.804l-4.61-2.656l-0.851-5.251
		c-0.112-0.715-0.718-1.25-1.442-1.279l-5.314-0.21l-3.192-4.255c-0.438-0.582-1.221-0.775-1.872-0.461l-4.803,2.285l-4.805-2.285
		c-0.652-0.313-1.436-0.118-1.872,0.461l-3.193,4.255l-5.313,0.21c-0.726,0.028-1.33,0.564-1.443,1.279l-0.85,5.251l-4.607,2.656
		c-0.63,0.362-0.916,1.116-0.685,1.804l1.688,5.044l-2.847,4.493c-0.388,0.611-0.293,1.414,0.231,1.916l3.838,3.681l-0.433,5.302
		c-0.059,0.723,0.399,1.386,1.1,1.587l5.108,1.474l2.08,4.896c0.282,0.667,1,1.051,1.707,0.897l5.212-1.067l4.116,3.368
		c0.282,0.229,0.623,0.344,0.967,0.344c0.342,0,0.687-0.114,0.964-0.344l4.116-3.368l5.212,1.067
		c0.707,0.152,1.426-0.229,1.707-0.897l2.084-4.896l5.109-1.474c0.695-0.201,1.153-0.864,1.095-1.587l-0.432-5.302l3.838-3.681
		C256.136,253.456,256.236,252.654,255.847,252.042z"/>
	<g>
		<path fill="#FFFFFF" d="M225.797,255.36h-2.807l-5.088-7.755c-0.298-0.453-0.505-0.794-0.619-1.024h-0.034
			c0.046,0.436,0.069,1.102,0.069,1.997v6.783h-2.626v-12.344h2.996l4.896,7.515c0.225,0.339,0.432,0.675,0.621,1.007h0.033
			c-0.046-0.287-0.068-0.853-0.068-1.696v-6.826h2.626L225.797,255.36L225.797,255.36z"/>
		<path fill="#FFFFFF" d="M236.273,251.728h-5.75c0.091,1.279,0.896,1.919,2.419,1.919c0.969,0,1.82-0.229,2.557-0.688v1.963
			c-0.814,0.436-1.876,0.654-3.178,0.654c-1.423,0-2.527-0.395-3.314-1.184c-0.785-0.788-1.18-1.889-1.18-3.301
			c0-1.463,0.425-2.622,1.274-3.478s1.894-1.283,3.134-1.283c1.285,0,2.28,0.382,2.983,1.146c0.702,0.763,1.055,1.798,1.055,3.107
			V251.728L236.273,251.728z M233.75,250.058c0-1.263-0.512-1.894-1.53-1.894c-0.437,0-0.814,0.18-1.133,0.542
			c-0.317,0.362-0.513,0.812-0.582,1.352H233.75z"/>
		<path fill="#FFFFFF" d="M250.658,246.546l-2.54,8.814h-2.855l-1.302-5.165c-0.086-0.344-0.136-0.72-0.146-1.127h-0.051
			c-0.041,0.448-0.099,0.812-0.174,1.093l-1.396,5.199h-2.821l-2.488-8.814h2.771l1.214,5.75c0.059,0.27,0.101,0.597,0.129,0.981
			h0.052c0.028-0.402,0.08-0.741,0.155-1.015l1.515-5.716h2.592l1.359,5.75c0.033,0.144,0.073,0.477,0.119,0.999h0.062
			c0.028-0.333,0.075-0.666,0.14-0.999l1.146-5.75H250.658z"/>
	</g>
</g>
<g>
	<path d="M409.001,237.626h-9c-1.103,0-2,0.898-2,2v20.001c0,1.098,0.893,1.99,1.988,1.998c0.492-3.445,3.435-6.112,7.013-6.112
		c3.579,0,6.521,2.668,7.012,6.114h1.987c1.102,0,2-0.898,2-2c0,0,0-8.106,0-10 M404.001,249.626v-8h4.893
		c0.322,0,0.77,0.473,0.77,0.473l4.211,5.829c0.373,0.549,0.777,1.199,0.777,1.699L404.001,249.626L404.001,249.626z"/>
	<path d="M370.001,233.626v28.001h6.309c0.486-3.273,3.279-5.792,6.688-5.792c3.41,0,6.206,2.519,6.692,5.792h6.311v-28.001H370.001
		z"/>
	<g>
		<circle cx="382.999" cy="262.627" r="4.625"/>
	</g>
	<g>
		<circle cx="407.001" cy="262.627" r="4.625"/>
	</g>
</g>
<text transform="matrix(1 0 0 1 50.1316 178.334)" font-family="'SegoeUI'" font-size="12">Shopping</text>
<text transform="matrix(1 0 0 1 58.4753 192.7334)" font-family="'SegoeUI'" font-size="12">Basket</text>
<text transform="matrix(1 0 0 1 125.4651 178.334)" font-family="'SegoeUI'" font-size="12">Shopping</text>
<text transform="matrix(1 0 0 1 122.0461 192.7334)" font-family="'SegoeUI'" font-size="12">Basket add</text>
<text transform="matrix(1 0 0 1 204.7981 178.334)" font-family="'SegoeUI'" font-size="12">Shopping</text>
<text transform="matrix(1 0 0 1 195.0662 192.7334)" font-family="'SegoeUI'" font-size="12">Basket delete</text>
<text transform="matrix(1 0 0 1 285.4651 178.334)" font-family="'SegoeUI'" font-size="12">Shopping</text>
<text transform="matrix(1 0 0 1 301.0569 192.7334)" font-family="'SegoeUI'" font-size="12">cart</text>
<text transform="matrix(1 0 0 1 373.8943 178.334)" font-family="'SegoeUI'" font-size="12">Add to </text>
<text transform="matrix(1 0 0 1 383.7234 192.7334)" font-family="'SegoeUI'" font-size="12">cart</text>
<text transform="matrix(1 0 0 1 433.7029 177.334)" font-family="'SegoeUI'" font-size="12">Cart delete</text>
<text transform="matrix(1 0 0 1 326.1858 59.8418)" font-family="'SegoeUI'" font-size="48">Shopping</text>
<text transform="matrix(1 0 0 1 514.9275 178.334)" font-family="'SegoeUI'" font-size="12">Euro Tag</text>
<text transform="matrix(1 0 0 1 68.1692 294.1572)" font-family="'SegoeUI'" font-size="12">Sale</text>
<text transform="matrix(1 0 0 1 143.7092 294.1572)" font-family="'SegoeUI'" font-size="12">Free</text>
<text transform="matrix(1 0 0 1 220.3713 294.1572)" font-family="'SegoeUI'" font-size="12">New</text>
<text transform="matrix(1 0 0 1 301.3738 294.1572)" font-family="'SegoeUI'" font-size="12">Shop</text>
<text transform="matrix(1 0 0 1 367.821 294.1572)" font-family="'SegoeUI'" font-size="12">Shopping </text>
<text transform="matrix(1 0 0 1 375.925 308.5576)" font-family="'SegoeUI'" font-size="12">Vehicle</text>
<text transform="matrix(1 0 0 1 58.8767 407.752)" font-family="'SegoeUI'" font-size="12">Bar Code</text>
<text transform="matrix(1 0 0 1 134.3425 407.752)" font-family="'SegoeUI'" font-size="12">QR Code</text>
<text transform="matrix(1 0 0 1 371.5793 407.752)" font-family="'SegoeUI'" font-size="12">Sute</text>
<text transform="matrix(1 0 0 1 440.6111 407.752)" font-family="'SegoeUI'" font-size="12">Mens wear</text>
<text transform="matrix(1 0 0 1 518.531 410.752)" font-family="'SegoeUI'" font-size="12">Ladies wear</text>
<text transform="matrix(1 0 0 1 612.3904 411.752)" font-family="'SegoeUI'" font-size="12">T Shirt</text>
<text transform="matrix(1 0 0 1 686.3904 410.752)" font-family="'SegoeUI'" font-size="12">T Shirt</text>
<text transform="matrix(1 0 0 1 73.1697 516.0898)" font-family="'SegoeUI'" font-size="12">Visa</text>
<text transform="matrix(1 0 0 1 142.8474 516.0898)" font-family="'SegoeUI'" font-size="12">Auction</text>
<text transform="matrix(1 0 0 1 226.3562 516.0898)" font-family="'SegoeUI'" font-size="12">Bid</text>
<text transform="matrix(1 0 0 1 298.1443 516.0898)" font-family="'SegoeUI'" font-size="12">Bid 1</text>
<text transform="matrix(1 0 0 1 442.2263 515.752)" font-family="'SegoeUI'" font-size="12">Synchronize</text>
<text transform="matrix(1 0 0 1 304.2654 407.752)" font-family="'SegoeUI'" font-size="12">Tie</text>
<text transform="matrix(1 0 0 1 230.988 407.752)" font-family="'SegoeUI'" font-size="12">Hat</text>
<text transform="matrix(1 0 0 1 602.8435 178.334)" font-family="'SegoeUI'" font-size="12">Dollar Tag</text>
<text transform="matrix(1 0 0 1 680.7615 178.334)" font-family="'SegoeUI'" font-size="12">Discount</text>
<text transform="matrix(1 0 0 1 745.5837 178.334)" font-family="'SegoeUI'" font-size="12">Shopping Bag</text>
<g>
	<rect x="449.001" y="241" fill="#010101" width="48" height="26"/>
	<g>
		<circle fill="#010101" cx="473.469" cy="228.289" r="4.53"/>
		<polygon fill="#010101" points="460.07,238 463.346,238 470.768,230.88 469.322,228.945 		"/>
		<polygon fill="#010101" points="486.576,238 483.3,238 475.878,230.88 477.322,228.945 		"/>
		<polyline fill="#010101" points="469.649,228.939 460.07,238 464.001,238 		"/>
	</g>
	<text transform="matrix(1 0 0 1 454.3435 259.334)" fill="#FFFFFF" font-family="'SegoeUI-Bold'" font-size="13.9454">OPEN</text>
</g>
<g>
	<rect x="527.001" y="241" fill="#010101" width="48" height="26"/>
	<g>
		<circle fill="#010101" cx="551.624" cy="228.289" r="4.53"/>
		<polygon fill="#010101" points="538.227,238 541.505,238 548.927,230.88 547.48,228.945 		"/>
		<polygon fill="#010101" points="564.732,238 561.457,238 554.035,230.88 555.48,228.945 		"/>
		<polyline fill="#010101" points="547.729,228.939 538.227,238 542.001,238 		"/>
	</g>
	<text transform="matrix(1 0 0 1 534.3923 259.334)" fill="#FFFFFF" font-family="'SegoeUI-Bold'" font-size="13.9454">Close</text>
</g>
<text transform="matrix(1 0 0 1 459.2712 294)" fill="#010101" font-family="'MyriadPro-Regular'" font-size="12">Open</text>
<text transform="matrix(1 0 0 1 537.7751 294)" fill="#010101" font-family="'MyriadPro-Regular'" font-size="12">Close</text>
<text transform="matrix(1 0 0 1 600.7029 294)" fill="#010101" font-family="'MyriadPro-Regular'" font-size="12">Credit card</text>
<text transform="matrix(1 0 0 1 684.9099 294)" fill="#010101" font-family="'MyriadPro-Regular'" font-size="12">Savings</text>
<text transform="matrix(1 0 0 1 763.6189 294)" fill="#010101" font-family="'MyriadPro-Regular'" font-size="12">Savings</text>
<g>
	<path fill="#010101" d="M682.799,250.894c0.098,0,0.188,0.021,0.286,0.033c1.869-7.61,9.86-13.332,19.44-13.332
		c4.004,0,7.724,1.007,10.843,2.726l4.349-4.067l0.341,7.669c1.607,1.706,2.828,3.679,3.552,5.83
		c0.008-0.004,0.013-0.008,0.02-0.012c0,0,1.862,3.888,6.451,4.508l-1.665,6.632c0,0-2.345-0.343-7.673,3.11v-0.008
		c-1.586,1.896-3.629,3.491-5.991,4.692l-1.556,4.961c0,0-2.445,0.985-4.749,0.282l-0.206-3.137
		c-1.206,0.193-2.441,0.304-3.714,0.304c-1.649,0-3.245-0.189-4.777-0.509l-0.223,3.342c-2.302,0.703-4.749-0.282-4.749-0.282
		l-1.781-5.681c-4.234-2.557-7.219-6.479-8.061-11.007c-0.047,0.001-0.09,0.015-0.137,0.015c-1.5,0-2.72-1.358-2.72-3.035
		C680.079,252.252,681.299,250.894,682.799,250.894z"/>
	<path fill="#FFFFFF" d="M703.556,257.413c-0.283,0.564-0.647,1.01-1.095,1.34c-0.444,0.331-1.086,0.58-1.925,0.75v2.357h-1.697
		v-2.305c-0.788-0.087-1.461-0.282-2.015-0.58c-0.76-0.414-1.466-0.96-2.114-1.644l1.717-1.721c1.102,1.146,2.168,1.721,3.197,1.721
		c0.525,0,0.975-0.177,1.352-0.534c0.376-0.357,0.565-0.775,0.565-1.258c0-0.406-0.121-0.762-0.361-1.068
		c-0.248-0.307-0.723-0.619-1.428-0.937c-1.436-0.647-2.404-1.161-2.91-1.542c-0.505-0.378-0.884-0.804-1.134-1.279
		c-0.25-0.473-0.376-0.978-0.376-1.514c0-0.888,0.333-1.65,0.994-2.282c0.662-0.633,1.5-0.973,2.513-1.019v-0.884h1.698v0.997
		c0.584,0.135,1.08,0.318,1.486,0.548c0.405,0.23,0.888,0.619,1.441,1.165l-1.745,1.66c-0.794-0.799-1.58-1.201-2.357-1.201
		c-0.457,0-0.83,0.12-1.114,0.359c-0.287,0.239-0.431,0.515-0.431,0.825c0,0.265,0.126,0.526,0.379,0.786
		c0.246,0.265,0.747,0.546,1.5,0.847c1.337,0.542,2.255,1.004,2.747,1.386c0.493,0.383,0.873,0.842,1.139,1.376
		c0.267,0.536,0.396,1.136,0.396,1.803C703.979,256.231,703.839,256.846,703.556,257.413z"/>
</g>
<g>
	<g>
		<path fill="#010101" d="M803.917,256.876c0.063-0.538,0.095-1.081,0.095-1.631c0-9.374-8.903-16.972-19.895-16.972
			c-6.049,0-12.104,2.363-16.325,6.052c-1.538-0.523-3.231,0.115-3.924,1.548c-0.465,0.956-0.372,2.044,0.146,2.924
			c-0.889,1.508-1.491,3.123-1.749,4.808h-0.003c0,0.012-0.002,0.025-0.003,0.039c-0.02,0.108-0.027,0.217-0.039,0.326
			c-0.188,1.237-0.633,1.699-0.879,1.861l-1.584,0.822h-0.003l-0.545,0.318c-0.322,0.28-0.61,0.765-0.267,1.526
			c0.108,0.242,0.218,0.483,0.322,0.715l0.938,2.469c0.064,0.139,0.501,0.968,1.605,0.87l2.417-0.214
			c1.719,2.713,4.377,5.031,7.538,6.738l-0.987,5.073c0,0.625,0.483,1.131,1.083,1.131h5.93c0.601,0,1.086-0.508,1.086-1.131
			l0.462-2.393c1.572,0.3,3.177,0.458,4.779,0.458c3.095,0,6.021-0.601,8.632-1.676l0.705,3.61c0,0.625,0.483,1.131,1.083,1.131
			h5.93c0.601,0,1.084-0.508,1.084-1.131l-1.667-8.561c1.818-2.013,3.122-4.383,3.732-6.968"/>
		<circle fill="#010101" cx="802.948" cy="253.663" r="3.84"/>
	</g>
	<path fill="#FFFFFF" d="M785.552,264.059v2.97h-2.396v-2.796c-1.815-0.058-3.637-0.578-4.675-1.242l0.78-2.739
		c1.152,0.692,2.741,1.269,4.499,1.269c1.847,0,3.086-0.893,3.086-2.25c0-1.326-1.01-2.134-3.171-2.913
		c-2.998-1.095-4.99-2.509-4.99-5.165c0-2.48,1.729-4.412,4.644-4.93v-2.799h2.364v2.654c1.819,0.057,3.06,0.52,3.982,0.98
		l-0.778,2.653c-0.696-0.345-1.964-1.009-3.923-1.009c-2.021,0-2.742,1.038-2.742,2.02c0,1.181,1.041,1.875,3.521,2.826
		c3.227,1.212,4.644,2.77,4.644,5.366C790.397,261.405,788.696,263.54,785.552,264.059z"/>
</g>
<g>
	<path fill="#010101" d="M603.974,245.831v13.05c-0.008,3.291,2.653,6.006,5.946,6.016h36.013c3.292,0.011,6.005-2.722,6.018-6.016
		v-13.05c-0.15,0.019,0.161,0,0,0H603.974z"/>
	<path fill="#010101" d="M646.028,232.394H610.02c-3.297-0.01-5.974,2.614-5.983,5.91v0.621h47.468c0.165,0.003,0.313-0.021,0.47,0
		v-0.621C651.982,235.007,649.32,232.4,646.028,232.394z"/>
</g>
<g>
	<polygon fill="#010101" points="172.914,356.342 171.074,356.342 171.074,358.188 171.074,360.034 172.914,360.034 
		172.914,358.188 	"/>
	<polygon fill="#010101" points="145.221,365.546 145.221,367.393 147.074,367.393 147.074,365.546 148.914,365.546 
		148.914,363.701 147.074,363.701 147.074,361.879 145.221,361.879 145.221,363.701 143.381,363.701 143.381,365.546 	"/>
	<rect x="150.765" y="343.471" fill="#010101" width="1.84" height="1.846"/>
	<rect x="165.531" y="345.316" fill="#010101" width="1.852" height="1.822"/>
	<polygon fill="#010101" points="160,347.139 160,345.316 160,343.471 160,341.625 158.148,341.625 156.296,341.625 
		156.296,343.471 158.148,343.471 158.148,345.316 156.296,345.316 156.296,347.139 158.148,347.139 	"/>
	<polygon fill="#010101" points="143.381,356.342 141.53,356.342 141.53,358.188 141.53,360.034 141.53,361.879 141.53,363.701 
		143.381,363.701 143.381,361.879 143.381,360.034 145.221,360.034 145.221,358.188 143.381,358.188 	"/>
	<rect x="141.53" y="352.674" fill="#010101" width="1.852" height="1.822"/>
	<polygon fill="#010101" points="154.457,341.625 154.457,339.779 154.457,337.958 154.457,336.113 154.457,334.268 
		152.605,334.268 150.765,334.268 150.765,336.113 150.765,337.958 152.605,337.958 152.605,339.779 150.765,339.779 
		150.765,337.958 148.914,337.958 148.914,339.779 148.914,341.625 150.765,341.625 152.605,341.625 152.605,343.471 
		154.457,343.471 	"/>
	<path fill="#010101" d="M143.381,369.236h-1.852h-1.84h-1.852h-1.841h-1.851v1.822v1.846v1.847v1.847v1.82v1.846v1.846h1.851h1.841
		h1.852h1.84h1.852h1.841h1.853v-1.846v-1.846v-1.82v-1.847v-1.847v-1.846v-1.822h-1.853H143.381z M145.221,372.904v1.847v1.847
		v1.82v1.846h-1.841h-1.852h-1.84h-1.852h-1.841v-1.846v-1.82v-1.847v-1.847v-1.846h1.841h1.852h1.84h1.852h1.841V372.904z"/>
	<polygon fill="#010101" points="163.69,372.904 163.69,371.059 161.839,371.059 161.839,372.904 161.839,374.75 161.839,376.596 
		163.69,376.596 163.69,374.75 	"/>
	<polygon fill="#010101" points="150.765,372.904 148.914,372.904 148.914,374.75 150.765,374.75 152.605,374.75 152.605,372.904 	
		"/>
	<polygon fill="#010101" points="174.765,350.83 174.765,348.982 172.914,348.982 171.074,348.982 171.074,350.83 169.222,350.83 
		169.222,352.674 171.074,352.674 172.914,352.674 172.914,350.83 	"/>
	<polygon fill="#010101" points="167.382,343.471 167.382,341.625 165.531,341.625 165.531,339.779 165.531,337.958 
		165.531,336.113 165.531,334.268 163.69,334.268 163.69,336.113 161.839,336.113 160,336.113 160,334.268 158.148,334.268 
		156.296,334.268 156.296,336.113 156.296,337.958 158.148,337.958 158.148,339.779 160,339.779 161.839,339.779 161.839,337.958 
		163.69,337.958 163.69,339.779 161.839,339.779 161.839,341.625 163.69,341.625 163.69,343.471 165.531,343.471 	"/>
	<polygon fill="#010101" points="165.531,360.034 167.382,360.034 167.382,358.188 167.382,356.342 167.382,354.497 
		167.382,352.674 165.531,352.674 163.69,352.674 163.69,354.497 165.531,354.497 165.531,356.342 163.69,356.342 163.69,358.188 
		165.531,358.188 	"/>
	<rect x="165.531" y="361.879" fill="#010101" width="1.852" height="1.821"/>
	<polygon fill="#010101" points="150.765,363.701 150.765,365.546 152.605,365.546 154.457,365.546 154.457,363.701 
		152.605,363.701 	"/>
	<rect x="154.457" y="365.546" fill="#010101" width="1.84" height="1.847"/>
	<polygon fill="#010101" points="156.296,361.879 156.296,360.034 158.148,360.034 158.148,361.879 160,361.879 160,360.034 
		161.839,360.034 161.839,361.879 161.839,363.701 163.69,363.701 163.69,361.879 163.69,360.034 163.69,358.188 161.839,358.188 
		160,358.188 158.148,358.188 156.296,358.188 156.296,356.342 158.148,356.342 160,356.342 161.839,356.342 161.839,354.497 
		161.839,352.674 161.839,350.83 160,350.83 160,352.674 160,354.497 158.148,354.497 156.296,354.497 156.296,352.674 
		156.296,350.83 154.457,350.83 154.457,352.674 154.457,354.497 152.605,354.497 150.765,354.497 148.914,354.497 147.074,354.497 
		147.074,352.674 148.914,352.674 148.914,350.83 147.074,350.83 147.074,348.982 145.221,348.982 145.221,350.83 143.381,350.83 
		143.381,352.674 145.221,352.674 145.221,354.497 145.221,356.342 145.221,358.188 147.074,358.188 147.074,356.342 
		148.914,356.342 150.765,356.342 152.605,356.342 154.457,356.342 154.457,358.188 152.605,358.188 152.605,360.034 
		152.605,361.879 154.457,361.879 154.457,363.701 156.296,363.701 158.148,363.701 158.148,361.879 	"/>
	<polygon fill="#010101" points="160,363.701 158.148,363.701 158.148,365.546 160,365.546 161.839,365.546 161.839,363.701 	"/>
	<rect x="169.222" y="354.497" fill="#010101" width="1.852" height="1.846"/>
	<rect x="169.222" y="369.236" fill="#010101" width="1.852" height="1.822"/>
	<polygon fill="#010101" points="150.765,360.034 150.765,358.188 148.914,358.188 148.914,360.034 148.914,361.879 
		150.765,361.879 	"/>
	<polygon fill="#010101" points="148.914,369.236 148.914,371.059 150.765,371.059 150.765,369.236 150.765,367.393 
		148.914,367.393 	"/>
	<rect x="158.148" y="348.982" fill="#010101" width="1.852" height="1.848"/>
	<polygon fill="#010101" points="150.765,348.982 152.605,348.982 152.605,350.83 154.457,350.83 154.457,348.982 154.457,347.139 
		154.457,345.316 152.605,345.316 152.605,347.139 150.765,347.139 148.914,347.139 148.914,348.982 148.914,350.83 150.765,350.83 
			"/>
	<polygon fill="#010101" points="167.382,348.982 165.531,348.982 165.531,347.139 163.69,347.139 163.69,345.316 163.69,343.471 
		161.839,343.471 161.839,345.316 161.839,347.139 161.839,348.982 163.69,348.982 163.69,350.83 165.531,350.83 167.382,350.83 
		169.222,350.83 169.222,348.982 	"/>
	<rect x="167.382" y="360.034" fill="#010101" width="1.841" height="1.846"/>
	<polygon fill="#010101" points="137.839,358.188 139.69,358.188 139.69,356.342 137.839,356.342 135.999,356.342 134.148,356.342 
		134.148,358.188 135.999,358.188 	"/>
	<polygon fill="#010101" points="137.839,365.546 137.839,367.393 139.69,367.393 141.53,367.393 141.53,365.546 139.69,365.546 
		139.69,363.701 137.839,363.701 135.999,363.701 134.148,363.701 134.148,365.546 135.999,365.546 	"/>
	<path fill="#010101" d="M137.839,347.139h1.852h1.84h1.852h1.841h1.853v-1.822v-1.846v-1.846v-1.846v-1.822v-1.846v-1.846h-1.853
		h-1.841h-1.852h-1.84h-1.852h-1.841h-1.851v1.846v1.846v1.822v1.846v1.846v1.846v1.822h1.851H137.839z M135.999,343.471v-1.846
		v-1.846v-1.822v-1.846h1.841h1.852h1.84h1.852h1.841v1.846v1.822v1.846v1.846v1.846h-1.841h-1.852h-1.84h-1.852h-1.841V343.471z"/>
	<polygon fill="#010101" points="180.296,367.393 182.148,367.393 182.148,365.546 180.296,365.546 178.457,365.546 
		178.457,367.393 	"/>
	<polygon fill="#010101" points="135.999,352.674 137.839,352.674 137.839,354.497 139.69,354.497 139.69,352.674 139.69,350.83 
		137.839,350.83 137.839,348.982 135.999,348.982 135.999,350.83 134.148,350.83 134.148,352.674 134.148,354.497 135.999,354.497 	
		"/>
	<rect x="134.148" y="360.034" fill="#010101" width="1.851" height="1.846"/>
	<polygon fill="#010101" points="180.296,371.059 178.457,371.059 178.457,372.904 176.606,372.904 176.606,374.75 178.457,374.75 
		180.296,374.75 180.296,376.596 182.148,376.596 182.148,374.75 182.148,372.904 182.148,371.059 182.148,369.236 180.296,369.236 
			"/>
	<rect x="172.914" y="380.264" fill="#010101" width="1.853" height="1.844"/>
	<rect x="169.222" y="380.264" fill="#010101" width="1.852" height="1.844"/>
	<rect x="180.296" y="380.264" fill="#010101" width="1.853" height="1.844"/>
	<path fill="#010101" d="M180.296,334.268h-1.84h-1.851h-1.841h-1.853h-1.84h-1.852v1.846v1.845v1.821v1.847v1.847v1.844v1.822
		h1.852h1.84h1.853h1.841h1.851h1.84h1.853v-1.822v-1.844v-1.847v-1.847v-1.821v-1.845v-1.846H180.296z M180.296,337.958v1.821
		v1.847v1.847v1.844h-1.84h-1.851h-1.841h-1.853h-1.84v-1.844v-1.847v-1.847v-1.821v-1.845h1.84h1.853h1.841h1.851h1.84V337.958z"/>
	<rect x="180.296" y="348.982" fill="#010101" width="1.853" height="1.848"/>
	<polygon fill="#010101" points="180.296,354.497 178.457,354.497 176.606,354.497 176.606,352.674 174.765,352.674 
		172.914,352.674 172.914,354.497 174.765,354.497 174.765,356.342 174.765,358.188 174.765,360.034 172.914,360.034 
		172.914,361.879 174.765,361.879 176.606,361.879 176.606,363.701 176.606,365.546 178.457,365.546 178.457,363.701 
		178.457,361.879 180.296,361.879 180.296,363.701 182.148,363.701 182.148,361.879 182.148,360.034 180.296,360.034 
		180.296,358.188 178.457,358.188 178.457,360.034 176.606,360.034 176.606,358.188 176.606,356.342 178.457,356.342 
		180.296,356.342 180.296,358.188 182.148,358.188 182.148,356.342 182.148,354.497 182.148,352.674 180.296,352.674 	"/>
	<polygon fill="#010101" points="139.69,372.904 137.839,372.904 137.839,374.75 137.839,376.596 137.839,378.417 139.69,378.417 
		141.53,378.417 143.381,378.417 143.381,376.596 143.381,374.75 143.381,372.904 141.53,372.904 	"/>
	<rect x="139.69" y="348.982" fill="#010101" width="1.84" height="1.848"/>
	<polygon fill="#010101" points="141.53,343.471 143.381,343.471 143.381,341.625 143.381,339.779 143.381,337.958 141.53,337.958 
		139.69,337.958 137.839,337.958 137.839,339.779 137.839,341.625 137.839,343.471 139.69,343.471 	"/>
	<path fill="#010101" d="M171.074,378.417h1.84v-1.821v-1.846h1.853v-1.846v-1.846v-1.822v-1.846v-1.846v-1.846h-1.853v1.846h-1.84
		v-1.846v-1.821h-1.852v1.821v1.846h-1.841h-1.852h-1.841h-1.852v1.846h1.852h1.841v1.846v1.822v1.846v1.846h1.852h1.841h1.852
		v1.846V378.417z M169.222,372.904h-1.841v-1.846v-1.822v-1.844h1.841h1.852h1.84v1.844v1.822v1.846h-1.84H169.222z"/>
	<rect x="163.69" y="376.596" fill="#010101" width="1.841" height="1.821"/>
	<polygon fill="#010101" points="176.606,376.596 174.765,376.596 174.765,378.417 174.765,380.264 176.606,380.264 
		176.606,382.107 178.457,382.107 178.457,380.264 180.296,380.264 180.296,378.417 180.296,376.596 178.457,376.596 	"/>
	<rect x="148.914" y="376.596" fill="#010101" width="1.853" height="1.821"/>
	<polygon fill="#010101" points="160,376.596 160,374.75 160,372.904 160,371.059 160,369.236 160,367.393 158.148,367.393 
		158.148,369.236 156.296,369.236 156.296,371.059 158.148,371.059 158.148,372.904 156.296,372.904 156.296,371.059 
		154.457,371.059 154.457,369.236 152.605,369.236 152.605,371.059 152.605,372.904 154.457,372.904 154.457,374.75 152.605,374.75 
		152.605,376.596 152.605,378.417 154.457,378.417 154.457,380.264 154.457,382.107 156.296,382.107 156.296,380.264 
		156.296,378.417 156.296,376.596 156.296,374.75 158.148,374.75 158.148,376.596 158.148,378.417 158.148,380.264 158.148,382.107 
		160,382.107 161.839,382.107 161.839,380.264 161.839,378.417 160,378.417 	"/>
	<polygon fill="#010101" points="167.382,378.417 165.531,378.417 165.531,380.264 163.69,380.264 163.69,382.107 165.531,382.107 
		167.382,382.107 167.382,380.264 169.222,380.264 169.222,378.417 	"/>
	<polygon fill="#010101" points="150.765,380.264 150.765,382.107 152.605,382.107 152.605,380.264 152.605,378.417 
		150.765,378.417 	"/>
	<polygon fill="#010101" points="174.765,337.958 172.914,337.958 172.914,339.779 172.914,341.625 172.914,343.471 
		174.765,343.471 176.606,343.471 178.457,343.471 178.457,341.625 178.457,339.779 178.457,337.958 176.606,337.958 	"/>
	<polygon fill="#010101" points="178.457,350.83 178.457,348.982 176.606,348.982 176.606,350.83 176.606,352.674 178.457,352.674 	
		"/>
</g>
<g>
	<rect x="56.684" y="344.637" width="0.665" height="26.987"/>
	<rect x="58.087" y="344.637" width="0.665" height="26.987"/>
	<rect x="62.518" y="344.637" width="0.665" height="26.987"/>
	<rect x="63.774" y="344.637" width="0.664" height="26.987"/>
	<rect x="73.079" y="344.637" width="0.664" height="26.987"/>
	<rect x="78.764" y="344.637" width="0.665" height="26.987"/>
	<rect x="80.093" y="344.637" width="0.665" height="26.987"/>
	<rect x="84.451" y="344.637" width="0.664" height="26.987"/>
	<rect x="85.632" y="344.637" width="0.664" height="26.987"/>
	<rect x="87.036" y="344.637" width="0.664" height="26.987"/>
	<rect x="91.392" y="344.637" width="0.665" height="26.987"/>
	<rect x="97.079" y="344.637" width="0.664" height="26.987"/>
	<rect x="98.333" y="344.637" width="0.665" height="26.987"/>
	<rect x="104.02" y="344.637" width="0.664" height="26.987"/>
	<rect x="60.598" y="344.637" width="1.106" height="27.102"/>
	<rect x="68.795" y="344.637" width="1.107" height="27.102"/>
	<rect x="70.715" y="344.637" width="1.107" height="27.102"/>
	<rect x="75.146" y="344.637" width="1.106" height="27.102"/>
	<rect x="82.604" y="344.637" width="1.106" height="27.102"/>
	<rect x="92.721" y="344.637" width="1.106" height="27.102"/>
	<rect x="94.641" y="344.637" width="1.106" height="27.102"/>
	<rect x="101.462" y="344.637" width="1.938" height="27.102"/>
	<rect x="88.243" y="344.637" width="1.868" height="27.102"/>
	<rect x="65.565" y="344.637" width="1.661" height="27.102"/>
</g>
<path d="M721.417,358.568c0.173,0.017,0.342-0.045,0.464-0.166l7.393-7.394c0.218-0.219,0.228-0.567,0.016-0.797l-10.751-11.711
	c-0.107-0.118-0.264-0.187-0.424-0.187h-6.197c-0.182,0-0.351,0.084-0.459,0.229c-0.109,0.145-0.146,0.33-0.097,0.504
	c0.144,0.507,0.225,1.03,0.226,1.571c-0.007,3.274-2.738,5.952-6.145,5.952s-6.139-2.678-6.145-5.952
	c0-0.541,0.081-1.063,0.224-1.571c0.049-0.174,0.015-0.359-0.095-0.504c-0.108-0.145-0.278-0.229-0.46-0.229h-6.197
	c-0.16,0-0.316,0.068-0.424,0.187l-10.752,11.711c-0.209,0.228-0.201,0.579,0.016,0.797l7.394,7.394
	c0.122,0.121,0.291,0.183,0.463,0.166c0.174-0.018,0.325-0.108,0.424-0.252l3.871-5.776l-4.82,24.446
	c-0.033,0.168,0.01,0.34,0.117,0.473c0.106,0.133,0.266,0.211,0.437,0.215l12.512,0.252c0.104,0.088,0.239,0.135,0.378,0.133
	l3.07-0.063l3.049,0.063c0.005,0,0.007,0,0.01,0c0.135,0,0.266-0.048,0.37-0.133l12.51-0.252c0.17-0.003,0.329-0.082,0.436-0.215
	c0.107-0.133,0.149-0.307,0.117-0.473l-4.822-24.447l3.875,5.777C721.092,358.46,721.245,358.552,721.417,358.568z"/>
<path d="M452.346,345.218h35.479c0.179,0,0.347-0.077,0.459-0.217c0.113-0.14,0.16-0.319,0.125-0.496l-0.598-2.981
	c-0.055-0.277-0.299-0.479-0.584-0.479h-34.285c-0.285,0-0.529,0.2-0.584,0.479l-0.598,2.981c-0.035,0.175,0.01,0.356,0.123,0.496
	C451.998,345.141,452.166,345.218,452.346,345.218z M489.303,348.979c-0.058-0.279-0.301-0.479-0.586-0.479h-37.269
	c-0.282,0-0.528,0.2-0.584,0.479l-4.77,23.851c-0.033,0.166,0.006,0.338,0.104,0.472c0.103,0.135,0.254,0.223,0.422,0.238
	l18.783,1.79c0.234,0.022,0.461-0.097,0.576-0.302l4.102-7.293l4.103,7.293c0.104,0.188,0.305,0.304,0.52,0.304
	c0.021,0,0.037-0.001,0.058-0.002l18.783-1.79c0.166-0.018,0.319-0.104,0.422-0.238c0.1-0.134,0.139-0.307,0.104-0.472
	L489.303,348.979z"/>
<g>
	<ellipse cx="240.12" cy="363.165" rx="24" ry="8.033"/>
	<path fill="#FFFFFF" d="M226.522,358.5c0,0-6.556,6.907,14.662,7.189c0,0,17.198-0.142,13.532-7.473l-2.185-0.775l-13.745,0.986
		l-11.138-0.141L226.522,358.5z"/>
	<path d="M226.522,358.5l3.031-10.785c0,0,0.635-1.902,3.523-2.538h15.931c0,0,2.68,0.847,3.242,2.962l2.467,10.079
		C254.717,358.218,242.242,366.605,226.522,358.5z"/>
</g>
<g>
	<polygon points="308.497,334.188 316.621,334.188 320.683,341.457 314.697,348.191 310.528,348.191 304.648,341.243 	"/>
	<polygon points="312.666,382.188 320.469,373.636 314.377,347.337 310.848,347.018 304.754,373.636 	"/>
</g>
<g>
	<g>
		<path d="M388.648,369.225c0-1.041,0.843-1.884,1.883-1.884h4.061c1.04,0,1.883,0.843,1.883,1.884v5.69
			c0,1.04-0.843,1.884-1.883,1.884h-4.061c-1.04,0-1.883-0.844-1.883-1.884V369.225z"/>
		<path d="M408.221,353.877l-11.67-13.643c-0.676-0.791-1.865-0.883-2.655-0.207l-0.122,0.104h1.703v10.048l7.211,8.43
			c0.676,0.791,1.865,0.884,2.655,0.207l2.671-2.284C408.804,355.855,408.897,354.667,408.221,353.877z"/>
		<polygon points="396.003,340.611 396.003,339.984 395.251,339.984 395.251,339.576 384.548,339.576 380.153,339.576 
			380.153,340.58 384.674,361.294 389.192,340.58 393.963,346.355 390.196,346.982 392.08,349.368 385.552,360.666 385.552,376.734 
			394.34,376.734 396.473,374.727 396.473,340.611 		"/>
	</g>
	<g>
		<path d="M380.699,369.225c0-1.041-0.843-1.884-1.883-1.884h-4.06c-1.04,0-1.884,0.843-1.884,1.884v5.69
			c0,1.04,0.844,1.884,1.884,1.884h4.06c1.04,0,1.883-0.844,1.883-1.884V369.225z"/>
		<path d="M361.126,353.877l11.67-13.643c0.676-0.791,1.864-0.883,2.654-0.207l0.122,0.104h-1.703v10.048l-7.211,8.43
			c-0.676,0.791-1.864,0.884-2.654,0.207l-2.671-2.284C360.542,355.855,360.45,354.667,361.126,353.877z"/>
		<polygon points="373.344,340.611 373.344,339.984 374.097,339.984 374.097,339.576 384.8,339.576 389.194,339.576 389.194,340.58 
			384.674,361.294 380.155,340.58 375.385,346.355 379.151,346.982 377.267,349.368 383.796,360.666 383.796,376.734 
			375.008,376.734 372.874,374.727 372.874,340.611 		"/>
	</g>
</g>
<g>
	<polygon points="108.938,482.192 108.938,452.158 60.938,452.158 60.938,482.192 	"/>
	<polygon fill="#FFFFFF" points="61.499,481.63 61.499,452.718 108.376,452.718 108.376,481.63 	"/>
	<polygon points="106.886,460.382 106.886,454.111 62.895,454.111 62.895,460.382 	"/>
	<polygon points="106.886,480.194 106.886,473.924 62.895,473.924 62.895,480.194 	"/>
	<polygon points="77.954,472.128 80.961,462.212 83.644,462.212 80.638,472.128 	"/>
	<path d="M76.753,462.215l-2.413,4.203c-0.611,1.102-0.973,1.657-1.146,2.354h-0.037c0.044-0.883-0.08-1.964-0.091-2.577
		l-0.269-3.979h-4.516l-0.046,0.268c1.16,0,1.848,0.584,2.038,1.775l0.879,7.871h2.78l5.621-9.914H76.753L76.753,462.215z"/>
	<path d="M97.618,472.128l-0.074-1.475l-3.35-0.002l-0.688,1.477h-2.91l5.28-9.896h3.574l0.896,9.896H97.618L97.618,472.128z
		 M97.31,466.279c-0.029-0.733-0.054-1.729-0.004-2.33h-0.041c-0.162,0.493-0.863,1.972-1.173,2.698l-0.997,2.174h2.354
		L97.31,466.279L97.31,466.279z"/>
	<path d="M86.462,472.409c-1.896,0-3.151-0.601-4.049-1.136l1.276-1.953c0.806,0.452,1.438,0.972,2.895,0.972
		c0.468,0,0.919-0.122,1.175-0.566c0.373-0.645-0.086-0.991-1.135-1.584l-0.517-0.337c-1.554-1.061-2.229-2.069-1.495-3.831
		c0.469-1.124,1.701-1.978,3.74-1.978c1.402,0,2.72,0.607,3.487,1.201l-1.471,1.723c-0.748-0.605-1.368-0.912-2.08-0.912
		c-0.564,0-0.996,0.219-1.145,0.513c-0.278,0.555,0.092,0.932,0.905,1.438l0.617,0.391c1.887,1.189,2.336,2.438,1.862,3.604
		C89.718,471.961,88.126,472.409,86.462,472.409L86.462,472.409z"/>
</g>
<g>
	<path d="M536.974,359.781c4.089,0.658,8.424,1.229,12.93,1.229c4.507,0,8.841-0.57,12.929-1.228
		c1.008-11.437,2.221-21.06,2.221-21.06h-0.233l0.233-0.017c0,0-2.65-3.413-3.786-6.521c-1.136-3.108-0.377-5.943-0.377-5.943h-3.03
		c0,0,0.633,4.619-0.882,6.346c-0.624,0.712-1.483,1.86-2.279,2.963c-1.543,0.352-3.146,0.547-4.794,0.547
		c-1.555,0-3.071-0.168-4.535-0.481c-0.809-1.123-1.688-2.302-2.323-3.028c-1.516-1.727-0.883-6.346-0.883-6.346h-3.028
		c0,0,0.757,2.835-0.379,5.943c-1.136,3.107-3.786,6.521-3.786,6.521l0.233,0.017h-0.448
		C534.754,338.723,535.968,348.344,536.974,359.781z"/>
	<path d="M562.525,363.393c0.022-0.273,0.045-0.545,0.067-0.817c-4.019,0.641-8.271,1.188-12.689,1.188
		c-4.419,0-8.672-0.549-12.691-1.189c0.022,0.273,0.047,0.544,0.068,0.818c1.048,12.95-6.348,26.741-6.348,26.741h17.416h0.38
		h20.145C568.873,390.134,561.477,376.343,562.525,363.393z"/>
</g>
<g>
	<path d="M184.477,480.901h-24.925c-0.768,0-1.394,0.515-1.394,1.148v2.597c0,0.635,0.626,1.149,1.394,1.149h24.925
		c0.77,0,1.393-0.515,1.393-1.149v-2.597C185.869,481.416,185.246,480.901,184.477,480.901z"/>
	<g>
		<path d="M165.511,475.162c0.932,0.933,2.442,0.933,3.376,0l6.771-6.769c0.93-0.935,0.93-2.444,0-3.377
			c-0.933-0.931-2.443-0.931-3.376,0l-6.771,6.771C164.578,472.719,164.578,474.229,165.511,475.162z"/>
		<path d="M152.572,458.847l6.768-6.77c0.934-0.933,0.934-2.445,0-3.376c-0.932-0.933-2.442-0.933-3.376,0l-6.768,6.771
			c-0.933,0.931-0.933,2.443,0,3.375C150.128,459.78,151.64,459.78,152.572,458.847z"/>
		<path d="M155.214,466.33l-16.233,14.547c-1.361,1.362-1.488,3.441-0.284,4.645c1.203,1.204,3.282,1.077,4.642-0.283l14.551-16.236
			L155.214,466.33z"/>
		<path d="M153.852,462.069l8.155,8.157c0.467,0.467,1.193,0.495,1.624,0.063l7.166-7.164c0.431-0.432,0.402-1.158-0.063-1.626
			l-8.158-8.157c-0.466-0.466-1.193-0.494-1.625-0.063l-7.165,7.164C153.354,460.876,153.383,461.602,153.852,462.069z"/>
	</g>
</g>
<path id="path4661" d="M243.45,491.175c0-2.281,0.129-5.454,1.097-6.413c1.248-1.236,3.048-3.771,3.271-5.984
	c0.313-3.106,4.19-7.396,5.372-8.696c1.18-1.3,1.86-2.279,1.906-3.409c0.065-1.678-2.809-3.226-4.539-1.325
	c-1.171,1.286-5.776,6.697-7.641,5.84c-1.501-0.69-3.756-0.459-5.249,1.5c-0.484,0.639-0.684,1.322-1.054,2.383
	c-0.174,0.5-0.73,0.407-0.554-0.179c0.234-0.782,0.605-1.929,1.302-2.862c1.175-1.577,4.004-2.333,5.774-1.583
	c0.813,0.344,1.492-0.844,1.492-2.603c0-8.472,0-14.184,0-17.617c0-3.433-3.923-3.433-3.923,0c0,3.434,0,13.242,0,14.102
	c0,0.858-0.98,1.594-0.98,0s0-14.836,0-18.393c0-3.556-4.292-3.801-4.292,0c0,3.802,0,16.309,0,17.901
	c0,1.594-1.121,2.318-1.121,0.301c0-2.017,0-12.807,0-14.892s-4.273-2.575-4.273,0s0,13.487,0,15.082s-1.205,2.117-1.205,0.323
	c0-1.795,0-8.906,0-11.85c0-2.942-4.216-3.626-4.216,1.13s0,20.94,0,24.742c0,3.801,1.785,5.788,3.6,7.603
	c1.65,1.65,1.354,3.613,1.354,4.899H243.45L243.45,491.175z"/>
<g>
	<circle fill="#FFFFFF" cx="234.563" cy="467.175" r="8.75"/>
	<path fill="#010101" d="M235.172,472.12v1.625h-1.311v-1.531c-0.994-0.031-1.991-0.315-2.561-0.68l0.429-1.5
		c0.631,0.379,1.5,0.694,2.462,0.694c1.011,0,1.688-0.488,1.688-1.23c0-0.726-0.553-1.168-1.734-1.594
		c-1.643-0.601-2.731-1.374-2.731-2.827c0-1.357,0.946-2.415,2.541-2.699v-1.532h1.295v1.453c0.995,0.031,1.674,0.285,2.181,0.537
		l-0.428,1.452c-0.381-0.189-1.073-0.552-2.146-0.552c-1.106,0-1.501,0.567-1.501,1.104c0,0.646,0.568,1.026,1.927,1.547
		c1.766,0.664,2.542,1.518,2.542,2.938C237.824,470.667,236.893,471.836,235.172,472.12z"/>
</g>
<g>
	<circle cx="472.576" cy="464.248" r="24"/>
	<g>
		<path fill="#FFFFFF" d="M458.578,468.335v10.053l3.339-3.337c2.612,2.592,6.219,4.196,10.188,4.196
			c7.994-0.001,14.469-6.48,14.471-14.474h-4.385c0,2.792-1.125,5.301-2.953,7.134c-1.834,1.828-4.342,2.951-7.133,2.953
			c-2.768,0-5.264-1.109-7.088-2.909l3.617-3.616H458.578L458.578,468.335z"/>
		<path fill="#FFFFFF" d="M476.762,460.089h9.811v-9.812l-3.248,3.247c-2.619-2.641-6.256-4.277-10.271-4.277
			c-7.992,0.001-14.472,6.478-14.472,14.471h4.386c0.002-2.792,1.127-5.301,2.955-7.133c1.83-1.828,4.34-2.952,7.131-2.954
			c2.809,0,5.342,1.146,7.172,2.995L476.762,460.089z"/>
	</g>
</g>
<g>
	<path d="M413.697,453.774c-0.335-0.53-1.201-0.81-1.787-0.81h-8.603c-0.584,0-1.061,0.476-1.061,1.063v16.421
		c0,0.586,0.477,1.062,1.061,1.062h3.4c0.326-2.229,2.229-3.947,4.552-3.947c2.317,0,4.221,1.718,4.548,3.947h3.251
		c0.586,0,1.063-0.476,1.063-1.062L413.697,453.774z M412.843,460.784h-6.295c-0.585,0-1.062-0.476-1.062-1.062v-4.097
		c0-0.586,0.477-1.062,1.062-1.062h3.612c0.586,0,1.658,0.43,1.954,1.062l1.788,4.097
		C413.902,460.31,413.428,460.784,412.843,460.784z"/>
	<path d="M398.095,452.854h-24.911c-0.586,0-1.063,0.445-1.063,0.995v16.775c0,0.549,0.478,0.997,1.063,0.997h0.775
		c0.061-2.497,2.094-4.505,4.604-4.505c2.51,0,4.545,2.009,4.605,4.505h3.856c0.247-2.32,2.185-4.134,4.57-4.134
		c2.384,0,4.321,1.813,4.567,4.134h1.93c0.585,0,1.062-0.447,1.062-0.997v-16.775C399.156,453.298,398.68,452.854,398.095,452.854z"
		/>
	<path d="M414.684,472.124c0,1.881-1.525,3.406-3.408,3.406c-1.879,0-3.406-1.525-3.406-3.406c0-1.883,1.527-3.409,3.406-3.409
		C413.158,468.715,414.684,470.241,414.684,472.124z"/>
	<circle cx="378.658" cy="471.899" r="3.408"/>
	<circle cx="391.728" cy="472.235" r="3.407"/>
</g>
<g>
	<text transform="matrix(1 0 0 1 379.5505 515.752)" font-family="'SegoeUI'" font-size="12">Truck</text>
</g>
<g>
	<path d="M306.342,466.809c0,1.219-0.985,2.206-2.205,2.206h-14.293c-1.219,0-2.205-0.987-2.205-2.206l0,0
		c0-1.218,0.986-2.206,2.205-2.206h14.293C305.355,464.604,306.342,465.591,306.342,466.809L306.342,466.809z"/>
	<path d="M306.342,472.809c0,1.219-0.985,2.206-2.205,2.206h-14.293c-1.219,0-2.205-0.986-2.205-2.206l0,0
		c0-1.218,0.986-2.206,2.205-2.206h14.293C305.355,470.604,306.342,471.591,306.342,472.809L306.342,472.809z"/>
	<path d="M306.342,478.809c0,1.219-0.985,2.206-2.205,2.206h-14.293c-1.219,0-2.205-0.986-2.205-2.206l0,0
		c0-1.218,0.986-2.206,2.205-2.206h14.293C305.355,476.603,306.342,477.59,306.342,478.809L306.342,478.809z"/>
	<path d="M327.073,460.457c0,1.218-0.986,2.206-2.205,2.206h-14.294c-1.218,0-2.206-0.987-2.206-2.206l0,0
		c0-1.218,0.988-2.206,2.206-2.206h14.294C326.087,458.251,327.073,459.239,327.073,460.457L327.073,460.457z"/>
	<path d="M327.073,454.281c0,1.218-0.986,2.206-2.205,2.206h-14.294c-1.218,0-2.206-0.987-2.206-2.206l0,0
		c0-1.218,0.988-2.206,2.206-2.206h14.294C326.087,452.075,327.073,453.063,327.073,454.281L327.073,454.281z"/>
	<path d="M318.583,476.603h-8.009c-1.218,0-2.206,0.987-2.206,2.206c0,1.22,0.988,2.206,2.206,2.206h10.402
		C319.816,479.805,318.976,478.291,318.583,476.603z"/>
	<path d="M318.329,474.455c0-1.372,0.3-2.673,0.824-3.852h-8.579c-1.218,0-2.206,0.988-2.206,2.206c0,1.219,0.988,2.206,2.206,2.206
		h7.783C318.347,474.828,318.329,474.644,318.329,474.455z"/>
	<path d="M326.254,465.105c-0.381-0.31-0.857-0.502-1.386-0.502h-14.294c-1.218,0-2.206,0.988-2.206,2.206
		c0,1.219,0.988,2.206,2.206,2.206h9.479C321.485,466.977,323.697,465.532,326.254,465.105z"/>
	<circle cx="327.817" cy="474.455" r="7.819"/>
	<path fill="#FFFFFF" d="M328.341,478.59v1.394h-1.123v-1.313c-0.854-0.027-1.706-0.271-2.193-0.583l0.366-1.286
		c0.541,0.326,1.286,0.597,2.108,0.597c0.868,0,1.449-0.42,1.449-1.057c0-0.622-0.475-1.001-1.486-1.367
		c-1.408-0.514-2.344-1.178-2.344-2.423c0-1.164,0.813-2.071,2.18-2.313v-1.313h1.109v1.245c0.854,0.026,1.436,0.244,1.868,0.46
		l-0.364,1.245c-0.326-0.162-0.922-0.474-1.841-0.474c-0.949,0-1.287,0.486-1.287,0.947c0,0.555,0.488,0.88,1.652,1.326
		c1.514,0.569,2.179,1.3,2.179,2.519C330.614,477.344,329.815,478.347,328.341,478.59z"/>
</g>
<text transform="matrix(1 0 0 1 771.6501 410.8701)" fill="#030303" font-family="'MyriadPro-Regular'" font-size="12">Shoe</text>
<g>
	<path fill="#010101" d="M809.677,368.521c0,0-1.281,0.664-2.883,0.664c0,0-33.95,1.554-43.133-2.438l-0.187,2.55
		c0,0,3.309,2.551,19.482,2.719h19.965c0,0,5.151,0.192,6.618-1.471L809.677,368.521z"/>
	<path fill="#010101" d="M805.904,349c0,0,3.604,4.88,2.771,15.693h-15.084l-14.476,1.443c0,0-11.092,0.223-15.252-1.275
		c0,0-0.332-4.16,4.492-5.436c0,0,2.719-0.941,2.773-1.22c0,0,13.422-4.991,17.082-8.763c0,0,1.164-0.111,2.328,0.943
		c0,0,4.715,5.879,6.711,5.157c0,0,6.321-0.722,6.877-4.937C804.13,350.607,804.738,348.777,805.904,349z"/>
	<path fill="#010101" d="M795.632,344.354l-4.729,3.535c0,0,5.148,4.094,5.674,4.744
		C796.576,352.633,801.936,347.796,795.632,344.354z"/>
	<ellipse fill="#010101" cx="786.493" cy="350.899" rx="1.055" ry="0.999"/>
	<ellipse fill="#010101" cx="783.068" cy="353.035" rx="1.262" ry="1.081"/>
	<ellipse fill="#010101" cx="779.602" cy="355.003" rx="1.262" ry="1.081"/>
	<ellipse fill="#010101" cx="775.914" cy="356.693" rx="1.263" ry="1.082"/>
	<ellipse fill="#010101" cx="772.364" cy="358.108" rx="1.263" ry="1.081"/>
	<polygon fill="#FFFFFF" points="791.908,366.9 794.095,365.473 787.021,354.639 784.705,355.855 	"/>
	<polygon fill="#FFFFFF" points="786.213,367.539 788.399,366.109 782.321,356.802 780.047,358.145 	"/>
	<polygon fill="#FFFFFF" points="780.489,368.26 782.677,366.833 777.621,359.09 775.263,360.37 	"/>
</g>
<g>
	<g>
		<path fill="#010101" d="M634.427,341.868l-0.242,0.007c0.07,0.296,0.111,0.602,0.111,0.917c0,2.367-2.127,4.286-4.75,4.286
			c-2.621,0-4.748-1.919-4.748-4.286c0-0.226,0.02-0.444,0.057-0.661l-0.057,0.002c0,0-6.947-4.396-14.644,5.275l6.729,6.99v20.84
			h25.063v-20.707l6.726-7.387C648.671,347.145,642.341,338.835,634.427,341.868z"/>
		<polygon fill="#010101" points="615.023,355.794 611.145,358.29 605.473,352.223 608.505,348.99 		"/>
		<polygon fill="#010101" points="643.925,355.662 647.803,358.158 653.473,352.091 650.441,348.857 		"/>
	</g>
	<polygon fill="#FFFFFF" points="633.155,365.346 629.491,362.709 625.852,365.378 627.228,361.079 623.563,358.441 
		628.077,358.421 629.454,354.122 630.868,358.41 635.383,358.389 631.741,361.059 	"/>
</g>
<text transform="matrix(1 0 0 1 518.8943 520.3652)" font-family="'SegoeUI'" font-size="12">Purchase Order</text>
<text transform="matrix(1 0 0 1 141.8909 615.5713)" font-family="'SegoeUI'" font-size="12">Receipt</text>
<text transform="matrix(1 0 0 1 610.0378 519.2412)" font-family="'SegoeUI'" font-size="12">Sales Order</text>
<text transform="matrix(1 0 0 1 689.0544 520.0742)" font-family="'SegoeUI'" font-size="12">Paid Invoice</text>
<text transform="matrix(1 0 0 1 773.3894 517.7412)"><tspan x="0" y="0" font-family="'SegoeUI'" font-size="12">Pending </tspan><tspan x="4.708" y="14.4" font-family="'SegoeUI'" font-size="12">Invoice</tspan></text>
<text transform="matrix(1 0 0 1 66.4792 614.7412)" font-family="'SegoeUI'" font-size="12">Product</text>
<g>
	<path fill="#231F20" d="M574.383,448.06h-17.045l-3.598,3.796h-0.008l-0.094,0.098h-0.041l-2.941,3.116l2.807-2.962h0.029
		l-10.502,11.034l-0.002,0.058l-2.004,2.114V491c0,2.795,2.266,5.06,5.061,5.06h28.338c2.795,0,5.063-2.265,5.063-5.06v-37.881
		C579.445,450.326,577.177,448.06,574.383,448.06z M575.394,491c0,0.559-0.455,1.012-1.012,1.012h-28.338
		c-0.559,0-1.014-0.453-1.014-1.012v-25.081l5.514,0.149c6.434,0.705,6.785-5.133,6.785-5.133l0.273-8.828h16.779
		c0.557,0,1.012,0.455,1.012,1.012V491z"/>
	<ellipse fill="#FFFFFF" cx="572.33" cy="489.948" rx="15.125" ry="14.938"/>
	<g>
		<path fill="#231F20" d="M573.496,497.596v-1.898c1.844-0.394,3.021-1.713,3.021-3.414c0-1.717-0.92-2.795-3.074-3.604
			c-1.507-0.577-2.017-0.957-2.017-1.503c0-0.611,0.538-0.979,1.431-0.979c1.123,0,1.852,0.365,2.321,0.6l0.298,0.15l0.646-2.197
			l-0.207-0.104c-0.477-0.238-1.226-0.554-2.33-0.627v-1.671h-2.028v1.796c-1.794,0.4-2.899,1.65-2.899,3.303
			c0,2.006,1.668,2.885,3.297,3.48c1.485,0.537,1.793,1.01,1.793,1.555c0,0.68-0.645,1.122-1.646,1.122
			c-1.225,0-2.19-0.471-2.658-0.751l-0.313-0.188l-0.643,2.256l0.173,0.113c0.667,0.425,1.735,0.73,2.786,0.805v1.756H573.496z"/>
		<path fill="#231F20" d="M562.221,487.275l4.296-1.922c0.444-0.271-0.203-0.357-0.203-0.357l-1.117-0.209
			c1.619-2.287,4.278-3.785,7.295-3.785c3.426,0,6.4,1.928,7.902,4.757c0.197,0.358,0.477,0.817,0.711,1.083
			c0.566,0.641,2.215,0.396,1.984-0.961c-0.066-0.404-0.311-0.761-0.497-1.119c-1.878-3.672-5.696-6.184-10.101-6.184
			c-3.842,0-7.232,1.916-9.283,4.837l-0.613-1.024c0,0-0.283-0.502-0.369-0.005l-0.287,4.694
			C561.962,487.21,562.091,487.299,562.221,487.275"/>
		<path fill="#231F20" d="M582.83,492.525l-4.295,1.922c-0.445,0.271,0.203,0.355,0.203,0.355l1.117,0.209
			c-1.619,2.287-4.279,3.785-7.295,3.785c-3.426,0-6.4-1.926-7.903-4.757c-0.198-0.359-0.478-0.817-0.712-1.082
			c-0.566-0.64-2.215-0.395-1.983,0.962c0.067,0.405,0.31,0.759,0.497,1.119c1.878,3.67,5.695,6.183,10.102,6.183
			c3.84,0,7.23-1.916,9.279-4.838l0.616,1.028c0,0,0.284,0.498,0.37,0.006l0.287-4.697
			C583.089,492.588,582.961,492.502,582.83,492.525"/>
	</g>
</g>
<g>
	<g>
		<g>
			<path d="M637.781,479.984c0.506,0,0.924-0.413,0.924-0.921v-13.593c0-0.509-0.418-0.924-0.924-0.924
				c-0.512,0-0.924,0.415-0.924,0.924v13.593C636.857,479.571,637.269,479.984,637.781,479.984z"/>
		</g>
		<g>
			<path d="M643.463,479.984c0.512,0,0.924-0.413,0.924-0.921v-13.593c0-0.509-0.412-0.924-0.924-0.924
				c-0.511,0-0.924,0.415-0.924,0.924v13.593C642.539,479.571,642.952,479.984,643.463,479.984z"/>
		</g>
		<g>
			<path d="M630.982,470.655h19.274c0.513,0,0.924-0.411,0.924-0.923c0-0.509-0.411-0.924-0.924-0.924h-19.274
				c-0.513,0-0.924,0.415-0.924,0.924C630.058,470.244,630.469,470.655,630.982,470.655z"/>
		</g>
		<g>
			<path d="M632.405,474.919h17.852c0.513,0,0.924-0.413,0.924-0.922c0-0.512-0.411-0.924-0.924-0.924h-17.852
				c-0.512,0-0.923,0.412-0.923,0.924C631.482,474.506,631.893,474.919,632.405,474.919z"/>
		</g>
		<g>
			<g>
				<g>
					<path d="M630.289,466.258h20.08c-0.02,0.108-0.051,0.24-0.101,0.396l-3.378,10.768c-0.05,0.028-0.1,0.046-0.154,0.046h-11.289
						l-5.064-10.876C630.338,466.47,630.308,466.357,630.289,466.258 M630.215,463.339c-2.91,0-3.299,2.522-2.511,4.417
						l5.102,10.948c0.138,0.46,0.817,1.687,2.278,1.687h11.652c1.541,0,2.565-1.114,2.77-1.574l3.561-11.318
						c0.955-3.16-0.93-4.159-2.229-4.159C649.545,463.339,633.492,463.339,630.215,463.339L630.215,463.339z"/>
				</g>
			</g>
		</g>
		<path d="M641.596,488.913c0,1.424,1.155,2.575,2.579,2.575c1.416,0,2.572-1.151,2.572-2.575c0-1.42-1.156-2.575-2.572-2.575
			C642.752,486.338,641.596,487.493,641.596,488.913z"/>
		<path d="M633.074,488.913c0,1.424,1.155,2.575,2.572,2.575c1.423,0,2.579-1.151,2.579-2.575c0-1.42-1.156-2.575-2.579-2.575
			C634.229,486.338,633.074,487.493,633.074,488.913z"/>
		<path d="M632.318,486.072h11.133c3.939,0,5.513-3.733,5.575-3.893c0.019-0.044,0.038-0.091,0.05-0.138
			c0,0,6.176-21.02,6.649-22.641c0.45-1.529,0.831-1.744,1.992-1.744h4.927c0.787,0,1.417-0.637,1.417-1.421
			c0-0.786-0.63-1.42-1.417-1.42h-4.927c-3.171,0-4.164,1.91-4.714,3.783c-0.463,1.558-6.194,21.075-6.625,22.554
			c-0.156,0.324-1.061,2.078-2.928,2.078h-11.133c-0.786,0-1.424,0.637-1.424,1.421
			C630.894,485.436,631.532,486.072,632.318,486.072z"/>
	</g>
	<rect x="618.844" y="455.147" fill="none" width="14.532" height="14.533"/>
	<path fill="#FFFFFF" d="M626.111,471.104c-4.793,0-8.691-3.898-8.691-8.691c0-4.791,3.898-8.689,8.691-8.689
		c4.791,0,8.69,3.898,8.69,8.689C634.802,467.206,630.902,471.104,626.111,471.104z"/>
	<circle cx="624.679" cy="461.037" r="8.619"/>
	<path fill="#FFFFFF" d="M625.412,466.663v-1.402c1.361-0.29,2.23-1.264,2.23-2.519c0-1.269-0.679-2.063-2.269-2.66
		c-1.111-0.426-1.488-0.706-1.488-1.109c0-0.45,0.396-0.722,1.056-0.722c0.829,0,1.367,0.27,1.714,0.441l0.22,0.112l0.477-1.622
		l-0.152-0.077c-0.352-0.175-0.904-0.408-1.721-0.462v-1.234h-1.496v1.326c-1.324,0.295-2.14,1.219-2.14,2.438
		c0,1.479,1.229,2.128,2.433,2.567c1.096,0.397,1.324,0.745,1.324,1.148c0,0.5-0.477,0.828-1.217,0.828
		c-0.902,0-1.615-0.348-1.961-0.556l-0.231-0.139l-0.474,1.665l0.128,0.084c0.493,0.313,1.28,0.539,2.056,0.594v1.297H625.412z"/>
</g>
<g>
	<path d="M774.381,455.535v28h44v-28H774.381z M816.213,481.451h-39.666v-23.833h39.666V481.451z"/>
	<g>
		<rect x="780.588" y="464.659" width="9.75" height="1.75"/>
		<rect x="780.588" y="468.659" width="9.75" height="1.75"/>
		<rect x="780.588" y="472.659" width="9.75" height="1.75"/>
	</g>
	<polygon points="809.725,474.728 807.298,474.743 806.341,476.976 804.229,475.774 802.284,477.229 801.056,475.134 
		798.645,475.421 798.628,472.993 796.397,472.034 797.597,469.925 796.143,467.979 798.238,466.751 797.952,464.341 
		800.38,464.323 801.337,462.093 803.448,463.292 805.394,461.839 806.621,463.935 809.032,463.647 809.05,466.075 811.28,467.032 
		810.08,469.144 811.534,471.087 809.439,472.317 	"/>
	<path fill="#FFFFFF" d="M803.707,474.107c-0.233,0-0.437-0.084-0.602-0.249s-0.249-0.368-0.249-0.602
		c0-0.229,0.084-0.431,0.249-0.596s0.368-0.249,0.602-0.249s0.437,0.084,0.602,0.249s0.249,0.366,0.249,0.596
		c0,0.233-0.084,0.437-0.249,0.602S803.94,474.107,803.707,474.107z M803.422,471.84l-0.535-4.925
		c-0.024-0.216-0.036-0.378-0.036-0.484c0-0.295,0.083-0.539,0.246-0.724c0.17-0.193,0.38-0.291,0.622-0.291
		c0.244,0,0.452,0.099,0.618,0.293c0.158,0.185,0.238,0.451,0.238,0.792c0,0.099-0.008,0.235-0.024,0.411l-0.548,4.928H803.422z"/>
</g>
<g>
	<path d="M693.94,459.304v30.545h48v-30.545H693.94z M739.576,487.576h-43.273v-26h43.273V487.576z"/>
	<g>
		<path d="M728.396,480.564v-1.476c1.434-0.308,2.352-1.334,2.352-2.656c0-1.338-0.716-2.176-2.393-2.806
			c-1.172-0.449-1.568-0.745-1.568-1.17c0-0.476,0.417-0.763,1.112-0.763c0.874,0,1.44,0.285,1.807,0.469l0.232,0.115l0.503-1.709
			l-0.161-0.08c-0.371-0.186-0.955-0.432-1.813-0.489v-1.299h-1.578v1.397c-1.396,0.312-2.257,1.285-2.257,2.568
			c0,1.563,1.299,2.246,2.566,2.711c1.155,0.417,1.394,0.784,1.394,1.208c0,0.53-0.5,0.875-1.28,0.875
			c-0.953,0-1.705-0.368-2.069-0.585l-0.243-0.147l-0.499,1.757l0.133,0.088c0.521,0.33,1.352,0.567,2.17,0.627v1.364H728.396z"/>
		<path d="M719.623,472.534l3.343-1.495c0.346-0.212-0.157-0.276-0.157-0.276l-0.87-0.165c1.26-1.779,3.33-2.944,5.677-2.944
			c2.666,0,4.98,1.5,6.148,3.699c0.154,0.281,0.372,0.638,0.554,0.844c0.44,0.498,1.724,0.311,1.544-0.747
			c-0.051-0.315-0.242-0.592-0.386-0.87c-1.462-2.857-4.434-4.813-7.86-4.813c-2.99,0-5.628,1.491-7.225,3.763l-0.478-0.796
			c0,0-0.219-0.391-0.286-0.004l-0.224,3.652C719.421,472.483,719.52,472.552,719.623,472.534"/>
		<path d="M735.659,476.62l-3.342,1.495c-0.345,0.211,0.158,0.277,0.158,0.277l0.87,0.162c-1.26,1.779-3.33,2.944-5.677,2.944
			c-2.666,0-4.98-1.498-6.151-3.7c-0.153-0.28-0.37-0.636-0.554-0.842c-0.441-0.499-1.723-0.308-1.543,0.747
			c0.053,0.316,0.24,0.591,0.387,0.871c1.461,2.857,4.432,4.812,7.861,4.812c2.987,0,5.627-1.491,7.22-3.765l0.48,0.8
			c0,0,0.221,0.388,0.287,0.006l0.224-3.656C735.861,476.669,735.76,476.602,735.659,476.62"/>
	</g>
	<g>
		<rect x="700" y="468.793" width="11.566" height="2.076"/>
		<rect x="700" y="473.538" width="11.566" height="2.076"/>
		<rect x="700" y="478.283" width="11.566" height="2.076"/>
	</g>
</g>
<g>
	<polygon fill-rule="evenodd" clip-rule="evenodd" points="145.746,587.583 148.791,583.008 151.935,587.514 155.076,591.819 
		155.353,591.819 158.4,587.575 161.445,583 164.59,587.506 167.736,591.819 168.002,591.819 171.054,587.567 174.099,582.992 
		177.244,587.498 180.285,591.667 180.285,543.819 142.877,543.819 142.877,591.577 	"/>
	<rect x="149.996" y="553.75" fill-rule="evenodd" clip-rule="evenodd" fill="#FFFFFF" width="23.172" height="1.821"/>
	<rect x="149.996" y="561.198" fill-rule="evenodd" clip-rule="evenodd" fill="#FFFFFF" width="23.172" height="1.82"/>
	<rect x="149.996" y="568.646" fill-rule="evenodd" clip-rule="evenodd" fill="#FFFFFF" width="23.172" height="1.821"/>
</g>
<g>
	<rect x="62.338" y="554.562" width="48" height="32.72"/>
	<polygon points="83.348,539.862 83.348,548.665 62.338,548.665 71.307,539.862 	"/>
	<polygon points="89.411,539.862 89.411,548.665 110.338,548.665 101.453,539.862 	"/>
</g>
</svg>
