<?xml version="1.0" encoding="utf-8"?>
<!-- Generator: Adobe Illustrator 15.1.0, SVG Export Plug-In . SVG Version: 6.00 Build 0)  -->
<!DOCTYPE svg PUBLIC "-//W3C//DTD SVG 1.1//EN" "http://www.w3.org/Graphics/SVG/1.1/DTD/svg11.dtd">
<svg version="1.1" id="Layer_1" xmlns="http://www.w3.org/2000/svg" xmlns:xlink="http://www.w3.org/1999/xlink" x="0px" y="0px"
	 width="775.362px" height="400px" viewBox="0 0 775.362 400" enable-background="new 0 0 775.362 400" xml:space="preserve">
<rect x="472.138" y="89.179" width="48" height="48"/>
<g>
	<polygon fill="#FFFFFF" points="493.571,105.031 496.888,99.285 500.205,93.542 503.521,99.285 506.839,105.031 502.776,105.031 
		502.776,132.815 497.635,132.815 497.635,105.031 	"/>
	<polyline fill="#FFFFFF" points="485.438,115.021 499.979,115.021 499.979,120.164 485.438,120.164 	"/>
</g>
<rect x="543.472" y="89.179" width="48" height="48"/>
<g>
	<polygon fill="#FFFFFF" points="570.038,105.031 566.722,99.285 563.403,93.542 560.087,99.285 556.771,105.031 560.833,105.031 
		560.833,132.815 565.974,132.815 565.974,105.031 	"/>
	<polyline fill="#FFFFFF" points="578.171,115.021 563.63,115.021 563.63,120.164 578.171,120.164 	"/>
</g>
<rect x="191.101" y="89.179" width="48" height="48"/>
<g>
	<path fill="#FFFFFF" d="M213.227,114.728c0-0.066-0.009-0.127-0.01-0.193v-0.039h-0.002c-0.124-5.086-4.258-9.176-9.364-9.219
		v4.255c2.834,0.042,5.102,2.351,5.102,5.196v0.393v7.519v1.471h4.264v-9.229C213.218,114.83,213.227,114.779,213.227,114.728"/>
	<polygon fill="#FFFFFF" points="195.465,107.178 199.734,104.714 204.003,102.248 204.003,107.178 204.003,112.108 
		199.734,109.644 	"/>
	<path fill="#FFFFFF" d="M216.975,114.728c0-0.066,0.009-0.127,0.009-0.193v-0.039h0.002c0.124-5.086,4.258-9.176,9.364-9.219v4.255
		c-2.833,0.042-5.101,2.351-5.101,5.196v0.393v7.519v1.471h-4.265v-9.229C216.984,114.83,216.975,114.779,216.975,114.728"/>
	<polygon fill="#FFFFFF" points="234.737,107.178 230.468,104.714 226.198,102.248 226.198,107.178 226.198,112.108 
		230.468,109.644 	"/>
</g>
<rect x="48.711" y="89.179" width="48" height="48"/>
<polygon fill="#FFFFFF" points="82.718,110.875 77.716,102.208 72.711,93.542 67.708,102.208 62.705,110.875 68.833,110.875 
	68.833,132.815 76.59,132.815 76.59,110.875 "/>
<rect x="121.546" y="89.179" width="48" height="48"/>
<polygon fill="#FFFFFF" points="155.631,115.759 150.628,124.425 145.623,133.093 140.619,124.425 135.616,115.759 141.744,115.759 
	141.744,93.819 149.502,93.819 149.502,115.759 "/>
<rect x="260.668" y="89.179" width="48" height="48"/>
<g>
	<polygon fill="#FFFFFF" points="301.154,110.7 302.73,116.578 304.304,122.455 298.427,120.881 292.55,119.305 295.185,116.669 
		285.753,107.238 289.088,103.904 298.52,113.335 	"/>
	<polygon fill="#FFFFFF" points="268.182,110.7 266.606,116.578 265.032,122.455 270.909,120.881 276.786,119.305 274.151,116.669 
		283.585,107.238 280.249,103.904 270.816,113.335 	"/>
</g>
<rect x="333.708" y="89.179" width="48" height="48"/>
<g>
	<path fill="#FFFFFF" d="M341.752,115.96c0-0.117,0.016-0.229,0.017-0.347v-0.069h0.003c0.223-9.138,7.65-16.486,16.823-16.563
		v7.644c-5.092,0.077-9.165,4.225-9.165,9.335v0.706v13.509v2.64h-7.662v-16.579C341.769,116.143,341.752,116.053,341.752,115.96"/>
	<polygon fill="#FFFFFF" points="373.664,102.398 365.993,97.972 358.322,93.542 358.322,102.398 358.322,111.255 365.993,106.827 	
		"/>
</g>
<rect x="403.708" y="89.179" width="48" height="48"/>
<g>
	<path fill="#FFFFFF" d="M443.663,115.96c0-0.117-0.015-0.229-0.017-0.347v-0.069h-0.004c-0.222-9.138-7.649-16.486-16.822-16.563
		v7.644c5.091,0.077,9.164,4.225,9.164,9.335v0.706v13.509v2.64h7.662v-16.579C443.647,116.143,443.663,116.053,443.663,115.96"/>
	<polygon fill="#FFFFFF" points="411.753,102.398 419.423,97.972 427.094,93.542 427.094,102.398 427.094,111.255 419.423,106.827 	
		"/>
</g>
<rect x="615.211" y="88.179" width="48" height="48"/>
<path fill="#FFFFFF" d="M634.789,113.756h6.078c0.645,0.006,1.372-0.327,2.017-1.05c0.635-0.71,1.035-1.744,1.024-2.596v-2.433
	h-5.598l8.637-14.957l8.635,14.957h-5.596v2.433c-0.012,2.504-0.973,4.814-2.535,6.608c-1.557,1.778-3.869,3.112-6.584,3.117h-6.078
	c-1.678,0.004-3.037,1.362-3.039,3.04v9.118h-6.08v-9.118C625.672,117.838,629.752,113.758,634.789,113.756z"/>
<rect x="687.737" y="88.179" width="48" height="48"/>
<path fill="#FFFFFF" d="M716.159,113.756h-6.078c-0.645,0.006-1.371-0.327-2.016-1.05c-0.635-0.71-1.035-1.744-1.025-2.596v-2.433
	h5.598l-8.637-14.957l-8.635,14.957h5.596v2.433c0.012,2.504,0.973,4.814,2.535,6.608c1.557,1.778,3.869,3.112,6.584,3.117h6.078
	c1.678,0.004,3.037,1.362,3.039,3.04v9.118h6.08v-9.118C725.276,117.838,721.196,113.758,716.159,113.756z"/>
<rect x="51.708" y="199.179" width="48" height="48"/>
<g>
	<path fill="#FFFFFF" d="M83.545,217.462c-0.089-0.597-0.244-1.34-0.522-2.142c-0.21-0.6-0.489-1.235-0.873-1.86
		c-0.574-0.934-1.393-1.855-2.524-2.529c-1.129-0.678-2.549-1.08-4.196-1.077c-0.977,0-1.871,0.137-2.676,0.394
		c-0.702,0.223-1.334,0.539-1.885,0.915c-0.967,0.66-1.678,1.5-2.19,2.349c-0.77,1.278-1.122,2.583-1.305,3.579
		c-0.179,0.996-0.181,1.692-0.182,1.763v5.611h-3.723l5.359,9.28l5.358-9.28h-3.723v-5.604c0,0,0-0.023,0.002-0.07
		c0.007-0.175,0.037-0.667,0.16-1.28c0.091-0.459,0.234-0.987,0.447-1.5c0.159-0.384,0.357-0.76,0.597-1.1
		c0.361-0.51,0.801-0.937,1.382-1.251c0.584-0.313,1.327-0.53,2.377-0.533c0.674,0.001,1.223,0.093,1.682,0.239
		c0.402,0.129,0.738,0.299,1.034,0.5c0.515,0.352,0.915,0.811,1.235,1.339c0.48,0.79,0.753,1.734,0.883,2.467
		c0.067,0.368,0.101,0.681,0.115,0.894c0.009,0.105,0.013,0.188,0.015,0.238l0.001,0.051l0,0v14.891h3.271v-14.891
		C83.665,218.794,83.664,218.258,83.545,217.462z"/>
	<path fill="#FFFFFF" d="M75.429,203.064c-10.845,0-19.636,8.792-19.636,19.636s8.791,19.636,19.636,19.636
		s19.637-8.792,19.637-19.636S86.273,203.064,75.429,203.064z M90.975,222.701c0,3.466-1.136,6.667-3.054,9.251l-21.744-21.743
		c2.586-1.918,5.785-3.054,9.252-3.054C84.014,207.155,90.975,214.116,90.975,222.701z M59.884,222.701
		c0-3.466,1.135-6.667,3.053-9.251l21.744,21.744c-2.585,1.917-5.785,3.053-9.252,3.053
		C66.844,238.246,59.884,231.286,59.884,222.701z"/>
</g>
<rect x="122.583" y="199.179" width="48" height="48"/>
<path fill="#FFFFFF" d="M162.113,215.663c-0.147-0.981-0.401-2.202-0.86-3.52c-0.345-0.988-0.805-2.031-1.436-3.059
	c-0.942-1.537-2.288-3.051-4.148-4.159c-1.855-1.113-4.19-1.773-6.898-1.768c-1.605,0-3.077,0.225-4.398,0.647
	c-1.155,0.367-2.193,0.885-3.099,1.505c-1.589,1.085-2.758,2.463-3.6,3.86c-1.265,2.103-1.843,4.247-2.144,5.884
	c-0.294,1.638-0.298,2.782-0.298,2.898v9.223h-6.12l8.809,15.254l8.809-15.254h-6.118v-9.213c0,0,0-0.038,0.003-0.115
	c0.011-0.288,0.059-1.097,0.262-2.104c0.15-0.756,0.386-1.624,0.735-2.466c0.263-0.632,0.588-1.249,0.981-1.809
	c0.593-0.837,1.317-1.539,2.272-2.056c0.96-0.513,2.182-0.872,3.907-0.876c1.107,0.001,2.009,0.154,2.766,0.395
	c0.66,0.21,1.213,0.49,1.698,0.82c0.847,0.58,1.504,1.333,2.031,2.203c0.789,1.296,1.237,2.847,1.452,4.055
	c0.109,0.603,0.163,1.119,0.19,1.468c0.013,0.173,0.019,0.307,0.022,0.39l0.002,0.084v0.001v24.477h5.38v-24.477
	C162.312,217.85,162.307,216.97,162.113,215.663z"/>
<rect x="333.326" y="199.179" width="48" height="48"/>
<path fill="#FFFFFF" d="M369.056,226.614c-4.342-0.596-5.139-5.455-11.637-5.455s-7.295,4.859-11.637,5.455h-8v6.545h39.273v-6.545
	H369.056z"/>
<rect x="619.423" y="197.846" width="48" height="48"/>
<g>
	<rect x="636.353" y="202.439" fill="#FFFFFF" width="14.141" height="39.272"/>
	<circle cx="643.422" cy="209.508" r="5.499"/>
	<circle cx="643.422" cy="222.076" r="5.499"/>
	<circle cx="643.422" cy="234.644" r="5.499"/>
</g>
<rect x="545.655" y="199.179" width="48" height="48"/>
<g>
	<g>
		<path fill="#FFFFFF" d="M567.716,234.569h-3.96v-21.967h8.996c2.564,0,4.467,0.646,5.706,1.939s1.858,2.819,1.858,4.578
			c0,2.006-0.672,3.633-2.013,4.877s-3.041,1.866-5.102,1.866h-5.486V234.569z M567.716,222.467h4.682
			c1.225,0,2.157-0.301,2.801-0.902c0.644-0.601,0.965-1.399,0.965-2.397c0-0.902-0.297-1.674-0.893-2.318
			c-0.596-0.644-1.671-0.965-3.228-0.965h-4.327V222.467z"/>
	</g>
	<path fill="#FFFFFF" d="M569.646,203.949c-10.844,0-19.636,8.792-19.636,19.637c0,10.844,8.792,19.636,19.636,19.636
		c10.845,0,19.637-8.792,19.637-19.636C589.283,212.741,580.491,203.949,569.646,203.949z M585.192,223.585
		c0,3.466-1.136,6.667-3.054,9.251l-21.744-21.744c2.585-1.917,5.785-3.053,9.252-3.053C578.232,208.04,585.192,215,585.192,223.585
		z M554.102,223.585c0-3.466,1.135-6.667,3.053-9.252l21.745,21.744c-2.585,1.918-5.786,3.054-9.253,3.054
		C561.062,239.131,554.102,232.171,554.102,223.585z"/>
</g>
<rect x="193.65" y="199.179" width="48" height="48"/>
<path fill="#FFFFFF" d="M231.254,221.677c-0.929-0.556-2.086-0.586-3.042-0.077l-12.131,6.467v-9.299h5.812l-8.771-15.192
	l-8.772,15.192h5.558v14.446c0,1.082,0.569,2.088,1.498,2.647c0.93,0.557,2.086,0.585,3.042,0.077l12.131-6.469v13.379h6.175
	v-18.523C232.753,223.243,232.183,222.234,231.254,221.677z"/>
<rect x="263.9" y="199.179" width="48" height="48"/>
<path fill="#FFFFFF" d="M276.098,221.677c0.929-0.556,2.086-0.586,3.042-0.077l12.132,6.467v-9.299h-5.812l8.771-15.192
	l8.771,15.192h-5.557v14.446c0,1.082-0.57,2.088-1.499,2.647c-0.93,0.557-2.086,0.585-3.041,0.077l-12.132-6.469v13.379H274.6
	v-18.523C274.6,223.243,275.169,222.234,276.098,221.677z"/>
<rect x="476.74" y="199.179" width="48" height="48"/>
<g>
	<path fill="#FFFFFF" d="M510.118,221.384c-0.967,0-1.781,0.621-2.088,1.483h-3.234c-0.102-2.238-2.833-2.719-2.833-2.719
		s-6.918,0-10.132,0c-3.212,0-3.212-3.707-3.212-3.707h-0.494v4.942v4.943h0.494c0,0,0-3.708,3.212-3.708c3.214,0,10.132,0,10.132,0
		v0.742h-7.166c-1.228,0-2.224,0.995-2.224,2.223c0,1.229,0.996,2.223,2.224,2.225h8.897c1.228-0.002,2.223-0.996,2.224-2.225
		c0-0.458-0.139-0.882-0.376-1.235h2.488c0.307,0.862,1.121,1.482,2.088,1.482c1.229,0,2.225-0.996,2.225-2.224
		C512.343,222.38,511.348,221.384,510.118,221.384z M504.929,225.584c0,0.683-0.553,1.235-1.234,1.236h-8.897
		c-0.682-0.001-1.234-0.553-1.235-1.236c0.001-0.682,0.554-1.234,1.235-1.235h7.166h1.731
		C504.376,224.351,504.929,224.903,504.929,225.584z"/>
	<path fill="#FFFFFF" d="M500.234,202.937c-10.845,0-19.637,8.792-19.637,19.636s8.792,19.636,19.637,19.636
		c10.844,0,19.636-8.792,19.636-19.636S511.078,202.937,500.234,202.937z M515.779,222.573c0,3.466-1.135,6.667-3.054,9.252
		l-21.744-21.744c2.585-1.918,5.785-3.054,9.253-3.054C508.819,207.027,515.779,213.988,515.779,222.573z M484.688,222.573
		c0-3.466,1.135-6.667,3.054-9.252l21.744,21.744c-2.585,1.919-5.786,3.054-9.252,3.054
		C491.649,238.118,484.688,231.159,484.688,222.573z"/>
</g>
<rect x="402.667" y="199.179" width="48" height="48"/>
<g>
	<polygon fill="#FFFFFF" points="414.321,240.316 408.28,240.316 408.28,207.689 414.321,207.689 414.321,220.981 424.595,220.981 
		424.595,227.023 414.321,227.023 	"/>
	<rect x="439.095" y="220.981" fill="#FFFFFF" width="5.984" height="6.042"/>
	<rect x="428.442" y="205.508" fill="#FFFFFF" width="0.971" height="37.862"/>
	<rect x="434.552" y="205.508" fill="#FFFFFF" width="0.971" height="37.862"/>
	<rect x="426.181" y="209.864" fill="#FFFFFF" width="11.311" height="2.175"/>
	<rect x="426.181" y="206.046" fill="#FFFFFF" width="11.311" height="2.175"/>
	<rect x="426.181" y="214.228" fill="#FFFFFF" width="11.311" height="2.175"/>
	<rect x="426.181" y="218.592" fill="#FFFFFF" width="11.311" height="2.175"/>
	<rect x="426.181" y="222.956" fill="#FFFFFF" width="11.311" height="2.175"/>
	<rect x="426.181" y="227.319" fill="#FFFFFF" width="11.311" height="2.175"/>
	<rect x="426.181" y="231.683" fill="#FFFFFF" width="11.311" height="2.176"/>
	<rect x="426.181" y="236.046" fill="#FFFFFF" width="11.311" height="2.176"/>
	<rect x="426.181" y="240.118" fill="#FFFFFF" width="11.311" height="2.176"/>
</g>
<text transform="matrix(1 0 0 1 617.0068 262.3643)" font-family="'MyriadPro-Regular'" font-size="10">Traffic Signal</text>
<g>
	<text transform="matrix(1 0 0 1 483.21 264.5313)" font-family="'MyriadPro-Regular'" font-size="10">No Horn</text>
</g>
<g>
	<text transform="matrix(1 0 0 1 395.2842 263.5313)" font-family="'MyriadPro-Regular'" font-size="9">Railway Crossing</text>
</g>
<g>
	<text transform="matrix(1 0 0 1 334.124 263.5313)" font-family="'MyriadPro-Regular'" font-size="9">Speed Brake</text>
</g>
<g>
	<text transform="matrix(1 0 0 1 134.7607 265.0313)" font-family="'MyriadPro-Regular'" font-size="9">U turn</text>
</g>
<g>
	<text transform="matrix(1 0 0 1 57.501 264.5313)" font-family="'MyriadPro-Regular'" font-size="9">No U turn</text>
</g>
<g>
	<text transform="matrix(1 0 0 1 546.7949 264.0313)" font-family="'MyriadPro-Regular'" font-size="10">No Parking</text>
</g>
<text transform="matrix(1 0 0 1 51.5518 152.1982)" font-family="'MyriadPro-Regular'" font-size="8">Traffic Sign 1</text>
<text transform="matrix(1 0 0 1 124.3857 153.8643)" font-family="'MyriadPro-Regular'" font-size="8">Traffic Sign 2</text>
<text transform="matrix(1 0 0 1 193.9414 154.1982)" font-family="'MyriadPro-Regular'" font-size="8">Traffic Sign 3</text>
<text transform="matrix(1 0 0 1 336.5483 156.1982)" font-family="'MyriadPro-Regular'" font-size="8">Traffic Sign 5</text>
<text transform="matrix(1 0 0 1 263.5088 156.5322)" font-family="'MyriadPro-Regular'" font-size="8">Traffic Sign 4</text>
<text transform="matrix(1 0 0 1 406.5479 156.8652)" font-family="'MyriadPro-Regular'" font-size="8">Traffic Sign 6</text>
<text transform="matrix(1 0 0 1 474.9775 156.8652)" font-family="'MyriadPro-Regular'" font-size="8">Traffic Sign 7</text>
<text transform="matrix(1 0 0 1 546.3115 157.1982)" font-family="'MyriadPro-Regular'" font-size="8">Traffic Sign 8</text>
<text transform="matrix(1 0 0 1 618.0518 152.1982)" font-family="'MyriadPro-Regular'" font-size="8">Traffic Sign 9</text>
<text transform="matrix(1 0 0 1 688.5264 153.5322)" font-family="'MyriadPro-Regular'" font-size="8">Traffic Sign 10</text>
<text transform="matrix(1 0 0 1 194.439 264.1982)" font-family="'MyriadPro-Regular'" font-size="8">Traffic Sign 12</text>
<text transform="matrix(1 0 0 1 264.689 264.1982)" font-family="'MyriadPro-Regular'" font-size="8">Traffic Sign 13</text>
<rect x="690.543" y="197.232" width="48" height="48"/>
<g>
	<text transform="matrix(1 0 0 1 697.8564 261.5498)" font-family="'MyriadPro-Regular'" font-size="9">Aquarius</text>
</g>
<path fill="#FFFFFF" d="M691.612,217.378l1.633,1.305c0.646,0.518,1.592,0.404,2.1-0.248l3.73-4.794
	c0.51-0.655,1.324-0.642,1.811,0.028l5.27,7.26c0.486,0.67,1.303,0.685,1.814,0.031l5.645-7.19c0.512-0.653,1.346-0.649,1.852,0.007
	l5.533,7.178c0.504,0.655,1.326,0.652,1.826-0.011l5.492-7.289c0.498-0.661,1.332-0.676,1.854-0.03l3.686,4.563
	c0.52,0.645,1.484,0.761,2.146,0.26l1.451-1.1c0.66-0.5,0.785-1.446,0.275-2.1l-7.447-9.578c-0.51-0.652-1.35-0.658-1.867-0.013
	l-5.557,6.946c-0.518,0.646-1.344,0.63-1.836-0.036l-5.082-6.875c-0.492-0.666-1.322-0.683-1.844-0.04l-5.844,7.223
	c-0.52,0.645-1.369,0.64-1.883-0.012l-5.701-7.199c-0.514-0.65-1.35-0.646-1.859,0.006l-7.447,9.578
	C690.853,215.9,690.966,216.859,691.612,217.378"/>
<path fill="#FFFFFF" d="M730.281,221.606c-0.509-0.654-1.349-0.66-1.866-0.015l-5.557,6.946c-0.518,0.646-1.344,0.631-1.837-0.036
	l-5.081-6.875c-0.492-0.667-1.322-0.683-1.844-0.04l-5.844,7.223c-0.521,0.645-1.367,0.64-1.883-0.011l-5.701-7.2
	c-0.514-0.65-1.351-0.646-1.859,0.008l-7.448,9.576c-0.509,0.652-0.396,1.611,0.251,2.131l1.632,1.305
	c0.647,0.517,1.593,0.406,2.101-0.248l3.73-4.794c0.51-0.655,1.323-0.642,1.811,0.03l5.269,7.256
	c0.487,0.672,1.304,0.687,1.815,0.035l5.645-7.192c0.512-0.654,1.346-0.649,1.852,0.007l5.532,7.178
	c0.505,0.654,1.327,0.652,1.826-0.012l5.492-7.288c0.499-0.662,1.333-0.675,1.854-0.03l3.685,4.563
	c0.521,0.645,1.487,0.761,2.147,0.261l1.45-1.101c0.661-0.502,0.785-1.447,0.276-2.1L730.281,221.606z"/>
<rect x="52.448" y="294.281" width="48" height="47.998"/>
<path fill="#FFFFFF" d="M90.295,296.45c-10.205,2.865-13.78,18.813-13.78,18.813c-0.427-2.932-2.938-9.119-2.938-9.119
	c-6.297-13.463-15.199-8.979-15.199-8.979c-9.879,6.764-3.256,18.967-3.256,18.967l5.211-3.04c-3.258-5.103-0.651-9.554-0.651-9.554
	c4.668-4.45,8.793,5.972,8.793,5.972c4.233,6.188,5.428,30.832,5.428,30.832c2.172,1.521,5.754,0,5.754,0
	c0.868-35.501,11.183-37.997,11.183-37.997c6.947-0.109,2.498,10.855,2.498,10.855l4.885,2.822
	C104.842,293.442,90.295,296.45,90.295,296.45"/>
<g>
	<text transform="matrix(1 0 0 1 67.1289 357.5898)" font-family="'MyriadPro-Regular'" font-size="9">Aries</text>
</g>
<rect x="123.557" y="293.693" width="48" height="48"/>
<path fill="#FFFFFF" d="M131.381,306.233c-3.576,1.405-6.112,4.877-6.112,8.95c0,5.313,4.308,9.621,9.622,9.621
	c5.313,0,9.619-4.308,9.619-9.621c0-3.044-1.42-5.755-3.627-7.517c2.547-0.869,12.394-3.338,26.608,4.123l2.353-4.705
	C169.844,307.085,149.678,294.272,131.381,306.233 M134.891,319.337c-2.291,0-4.154-1.862-4.154-4.153s1.863-4.152,4.154-4.152
	s4.152,1.861,4.152,4.152S137.182,319.337,134.891,319.337"/>
<path fill="#FFFFFF" d="M160.226,312.555c-5.313,0-9.621,4.308-9.621,9.62c0,3.045,1.42,5.755,3.629,7.518
	c-2.549,0.867-12.397,3.336-26.611-4.125l-2.354,4.705c0,0,20.168,12.814,38.463,0.852c3.575-1.402,6.112-4.877,6.112-8.949
	C169.844,316.862,165.539,312.555,160.226,312.555 M160.226,326.325c-2.291,0-4.154-1.859-4.154-4.15s1.863-4.154,4.154-4.154
	c2.29,0,4.151,1.863,4.151,4.154S162.516,326.325,160.226,326.325"/>
<g>
	<text transform="matrix(1 0 0 1 134.5972 358.71)" font-family="'MyriadPro-Regular'" font-size="9">Cancer</text>
</g>
<rect x="192.688" y="292.912" width="48" height="47.998"/>
<path fill="#FFFFFF" d="M236.68,309.805c7.896-7.752,0-14.211,0-14.211c-12.552-7.013-16.649,7.179-16.649,7.179l-6.029-2.873
	l-5.885,18.375l-5.869-17.513l-9.06,3.302l1.865,5.168l3.59-1.291l9.904,28.85l9.043-28.85l3.014,1.434
	c10.334,24.691-1.147,21.676-1.147,21.676v5.74c19.519-0.717,7.894-25.692,7.894-25.692
	C232.949,312.675,236.68,309.805,236.68,309.805 M225.486,304.782c0,0-0.523-7.506,6.745-5.168c1.365,0.438,4.449,2.584,0,5.742
	C232.231,305.356,229.647,306.218,225.486,304.782"/>
<rect x="263.331" y="291.771" width="48" height="48"/>
<path fill="#FFFFFF" d="M295.854,302.502c4.377-0.767,9.063-3.609,9.063-3.609l-3.072-5.377c-16.127,8.599-29.028,0-29.028,0
	l-3.071,5.531c0.538,1.151,8.983,3.455,8.983,3.455l-0.154,29.258c-2.84,0.461-8.829,3.455-8.829,3.455l3.071,5.301
	c15.282-8.446,29.104,0,29.104,0l2.996-5.377c-1.845-1.535-9.063-3.379-9.063-3.379V302.502z M289.865,330.686h-5.069v-27.338h5.069
	V330.686z"/>
<g>
	<text transform="matrix(1 0 0 1 273.79 357.543)" font-family="'MyriadPro-Regular'" font-size="9">Gemini</text>
</g>
<rect x="334.374" y="292.563" width="48" height="47.999"/>
<g>
	<text transform="matrix(1 0 0 1 351.5884 357.2461)" font-family="'MyriadPro-Regular'" font-size="9">Leo</text>
</g>
<path fill="#FFFFFF" d="M371.96,333.246c-1.75,2.315-3.446,1.646-3.446,1.646c-4.838-2.212,1.338-13.482,1.338-13.482
	c6.793-10.5,2.314-19.301,2.314-19.301c-5.865-12.436-17.771-6.707-17.771-6.707c-7.617,2.907-4.543,15.406-3.789,18.08
	c-0.28-0.025-0.565-0.044-0.855-0.044c-5.07,0-9.184,4.194-9.184,9.364c0,5.172,4.113,9.363,9.184,9.363
	c5.073,0,9.186-4.191,9.186-9.363c0-1.193-0.229-2.328-0.627-3.377c-0.317-2.768-1.272-5.987-1.272-5.987
	C351.788,299.5,359.713,300,359.713,300c10.84-0.741,6.072,15.955,6.072,15.955c-9.983,16.057-2.572,22.388-2.572,22.388
	c5.971,6.431,12.969-0.464,12.969-0.464L371.96,333.246z M349.75,325.787c-1.616,0-2.927-1.338-2.927-2.984
	c0-1.648,1.311-2.986,2.927-2.986c1.617,0,2.93,1.338,2.93,2.986C352.68,324.449,351.367,325.787,349.75,325.787"/>
<rect x="404.614" y="293.366" width="48" height="48"/>
<rect x="405.114" y="330.069" fill="#FFFFFF" width="47" height="5.967"/>
<path fill="#FFFFFF" d="M442.083,319.308c0.12-0.863,0.186-1.752,0.186-2.658c0-8.877-5.98-16.098-13.332-16.098
	c-7.35,0-13.33,7.221-13.33,16.098c0,0.906,0.064,1.795,0.186,2.658h-10.678v5.947h18.611c-1.41-1.488-2.451-3.561-2.914-5.947
	h-0.019c-0.171-0.85-0.263-1.74-0.263-2.658c0-5.912,3.765-10.707,8.406-10.707c4.644,0,8.407,4.795,8.407,10.707
	c0,0.918-0.092,1.809-0.262,2.658h-0.017c-0.463,2.387-1.504,4.459-2.912,5.947h17.961v-5.947H442.083z"/>
<g>
	<text transform="matrix(1 0 0 1 419.2588 357.6445)" font-family="'MyriadPro-Regular'" font-size="9">Libra</text>
</g>
<rect x="477.666" y="291.765" width="47.999" height="47.998"/>
<path fill="#FFFFFF" d="M515.628,296.415c0.307-0.766-0.048-1.691-0.787-2.061l-3.101-1.543c-0.737-0.369-1.651-0.07-2.028,0.666
	l-4.371,16.928c-0.222,0.795-1.076,1.447-1.901,1.447h-3.548c-0.825,0-1.68-0.652-1.901-1.447l-4.37-16.928
	c-0.377-0.736-1.291-1.035-2.029-0.666l-3.102,1.543c-0.738,0.369-1.092,1.295-0.785,2.061l4.318,13.961
	c0.146,0.813-0.41,1.477-1.234,1.477h-2.141c-0.825,0-1.5,0.674-1.5,1.5v2.912c0,0.824,0.675,1.5,1.5,1.5h2.268
	c0.824,0,1.313,0.648,1.086,1.441l-4.043,15.641c-0.446,0.693-0.213,1.574,0.518,1.959l3.13,1.641
	c0.731,0.383,1.573,0.068,1.871-0.703l5.021-18.488c0.091-0.818,0.836-1.49,1.662-1.49h3.011c0.823,0,1.571,0.672,1.659,1.49
	l5.026,18.488c0.296,0.771,1.138,1.086,1.871,0.703l3.129-1.641c0.73-0.385,0.962-1.266,0.517-1.959l-4.043-15.641
	c-0.228-0.793,0.263-1.441,1.086-1.441h2.269c0.824,0,1.5-0.676,1.5-1.5v-2.912c0-0.826-0.676-1.5-1.5-1.5h-2.142
	c-0.823,0-1.379-0.666-1.233-1.477L515.628,296.415z"/>
<g>
	<text transform="matrix(1 0 0 1 490.4834 353.1738)" font-family="'MyriadPro-Regular'" font-size="9">Pisces</text>
</g>
<rect x="546.608" y="289.61" width="48" height="48"/>
<path fill="#FFFFFF" d="M569.578,295.272c-0.823,0-1.5,0.676-1.5,1.5v2.463c0,0.826,0.677,1.525,1.5,1.557l9.259,0.338
	c0.826,0.031,1.022,0.533,0.438,1.117l-15.438,15.459c-0.584,0.584-1.537,0.586-2.121,0.002l-2.787-2.785
	c-0.584-0.584-1.53-0.572-2.101,0.023l-1.442,1.51c-0.573,0.594-0.56,1.557,0.029,2.135l2.728,2.693
	c0.588,0.58,0.592,1.531,0.008,2.115l-6.416,6.426c-0.584,0.584-0.606,1.561-0.052,2.172l1.656,1.828
	c0.554,0.609,1.483,0.631,2.063,0.045l6.608-6.664c0.58-0.586,1.535-0.59,2.123-0.012l2.674,2.639c0.587,0.58,1.566,0.6,2.177,0.043
	l1.459-1.33c0.61-0.555,0.631-1.486,0.047-2.068l-2.834-2.834c-0.584-0.582-0.586-1.539-0.006-2.125l15.715-15.85
	c0.58-0.586,1.056-0.391,1.056,0.436v9.934c0,0.826,0.676,1.5,1.5,1.5h2.515c0.825,0,1.5-0.674,1.5-1.5v-19.266
	c0-0.824-0.675-1.5-1.5-1.5H569.578z"/>
<g>
	<text transform="matrix(1 0 0 1 552.2041 356.0596)" font-family="'MyriadPro-Regular'" font-size="9">Sagitarius</text>
</g>
<rect x="620.032" y="289.903" width="48" height="47.998"/>
<path fill="#FFFFFF" d="M620.532,293.177v5.808c0,0,3.942-0.875,3.942,6.793v24.211h5.696v-26.403c0,0,0.552-5.476,3.728-4.273
	c0,0,1.529,0.703,1.313,4.384v26.293h5.742v-26.513c0,0,0.196-4.819,3.473-4.491c0,0,2.212,0.702,1.849,4.821
	c0,0-2.243,26.363,3.617,30.785c0,0,11.174,7.668,14.461-7.451h3.179l-5.916-10.518l-5.916,10.407l2.629,0.11
	c0,0-1.101,5.414-4.711,2.631c0,0-2.541-2-1.754-12.381v-14.241c0,0,0.219-9.313-7.832-9.972c0,0-3.232-0.438-5.753,2.191
	c0,0-4.383-5.148-10.956,0.109C627.323,295.478,623.052,292.411,620.532,293.177"/>
<g>
	<text transform="matrix(1 0 0 1 629.7549 354.4277)" font-family="'MyriadPro-Regular'" font-size="9">Scorpio</text>
</g>
<g>
	<text transform="matrix(1 0 0 1 198.3916 358.9443)" font-family="'MyriadPro-Regular'" font-size="9">Capricorn</text>
</g>
<text transform="matrix(1 0 0 1 236.2314 49.9014)" font-family="'MyriadPro-Regular'" font-size="28.9493">Signs (Traffice &amp; Astrology)</text>
</svg>
