<?xml version="1.0" encoding="utf-8"?>
<!-- Generator: Adobe Illustrator 15.1.0, SVG Export Plug-In . SVG Version: 6.00 Build 0)  -->
<!DOCTYPE svg PUBLIC "-//W3C//DTD SVG 1.1//EN" "http://www.w3.org/Graphics/SVG/1.1/DTD/svg11.dtd">
<svg version="1.1" id="Layer_1" xmlns="http://www.w3.org/2000/svg" xmlns:xlink="http://www.w3.org/1999/xlink" x="0px" y="0px"
	 width="510.092px" height="1072.616px" viewBox="0 0 510.092 1072.616" enable-background="new 0 0 510.092 1072.616"
	 xml:space="preserve">
<text transform="matrix(1 0 0 1 51.3835 210.8711)" fill="#010101" font-family="'SegoeUI-SemiBold'" font-size="12">Cat</text>
<text transform="matrix(1 0 0 1 431.9324 548.3711)" fill="#010101" font-family="'SegoeUI-SemiBold'" font-size="12">Dove</text>
<text transform="matrix(1 0 0 1 49.3826 316.2861)" fill="#010101" font-family="'SegoeUI-SemiBold'" font-size="12">Bird</text>
<text transform="matrix(1 0 0 1 36.6414 435.2861)" fill="#010101" font-family="'SegoeUI-SemiBold'" font-size="12">Elephant</text>
<text transform="matrix(1 0 0 1 149.4431 436.2861)" fill="#010101" font-family="'SegoeUI-SemiBold'" font-size="12">Rat</text>
<text transform="matrix(1 0 0 1 239.5188 438.2861)" fill="#010101" font-family="'SegoeUI-SemiBold'" font-size="12">Hen</text>
<text transform="matrix(1 0 0 1 335.5378 439.2861)" fill="#010101" font-family="'SegoeUI-SemiBold'" font-size="12">Bone</text>
<text transform="matrix(1 0 0 1 51.7205 772.2871)" fill="#010101" font-family="'SegoeUI-SemiBold'" font-size="12">Pig</text>
<text transform="matrix(1 0 0 1 146.8943 772.2871)" fill="#010101" font-family="'SegoeUI-SemiBold'" font-size="12">Lion</text>
<text transform="matrix(1 0 0 1 244.7029 770.9531)" fill="#010101" font-family="'SegoeUI-SemiBold'" font-size="12">Duck</text>
<text transform="matrix(1 0 0 1 335.1726 772.9531)" fill="#010101" font-family="'SegoeUI-SemiBold'" font-size="12">Owl</text>
<text transform="matrix(1 0 0 1 415.0984 771.6211)" fill="#010101" font-family="'SegoeUI-SemiBold'" font-size="12">Penguin</text>
<text transform="matrix(1 0 0 1 244.1287 896.9551)" fill="#010101" font-family="'SegoeUI-SemiBold'" font-size="12">Monkey</text>
<text transform="matrix(1 0 0 1 144.3323 899.6211)" fill="#010101" font-family="'SegoeUI-SemiBold'" font-size="12">Squirrel</text>
<text transform="matrix(1 0 0 1 47.9441 898.9551)" fill="#010101" font-family="'SegoeUI-SemiBold'" font-size="12">Peacock</text>
<text transform="matrix(1 0 0 1 420.8289 439.2861)" fill="#010101" font-family="'SegoeUI-SemiBold'" font-size="12">Bird Nest</text>
<text transform="matrix(1 0 0 1 145.4119 316.2861)" fill="#010101" font-family="'SegoeUI-SemiBold'" font-size="12">Goat</text>
<text transform="matrix(1 0 0 1 241.6956 316.2861)" fill="#010101" font-family="'SegoeUI-SemiBold'" font-size="12">Bat</text>
<text transform="matrix(1 0 0 1 333.4441 318.2861)" fill="#010101" font-family="'SegoeUI-SemiBold'" font-size="12">Horse</text>
<text transform="matrix(1 0 0 1 44.1736 655.6211)" fill="#010101" font-family="'SegoeUI-SemiBold'" font-size="12">Snake</text>
<text transform="matrix(1 0 0 1 140.0505 654.6211)" fill="#010101" font-family="'SegoeUI-SemiBold'" font-size="12">Giraffe</text>
<text transform="matrix(1 0 0 1 234.6643 654.6211)" fill="#010101" font-family="'SegoeUI-SemiBold'" font-size="12">Turtle</text>
<text transform="matrix(1 0 0 1 327.8035 653.2871)" fill="#010101" font-family="'SegoeUI-SemiBold'" font-size="12">Dolphin</text>
<text transform="matrix(1 0 0 1 420.1785 652.2871)" fill="#010101" font-family="'SegoeUI-SemiBold'" font-size="12">Crocodile</text>
<text transform="matrix(1 0 0 1 146.9763 210.8711)" fill="#010101" font-family="'SegoeUI-SemiBold'" font-size="12">Dog</text>
<text transform="matrix(1 0 0 1 232.7864 210.8711)" fill="#010101" font-family="'SegoeUI-SemiBold'" font-size="12">Rabbit</text>
<text transform="matrix(1 0 0 1 49.7488 546.8711)" fill="#010101" font-family="'SegoeUI-SemiBold'" font-size="12">Fish</text>
<text transform="matrix(1 0 0 1 134.2029 546.8711)" fill="#010101" font-family="'SegoeUI-SemiBold'" font-size="12">Fish tank</text>
<text transform="matrix(1 0 0 1 325.8796 546.8711)" fill="#010101" font-family="'SegoeUI-SemiBold'" font-size="12">Butterfly</text>
<text transform="matrix(1 0 0 1 223.5491 549.8711)" fill="#010101" font-family="'SegoeUI-SemiBold'" font-size="12">Foot print</text>
<text transform="matrix(1 0 0 1 423.239 210.8711)" fill="#010101" font-family="'SegoeUI-SemiBold'" font-size="12">Octopus</text>
<text transform="matrix(1 0 0 1 327.9675 210.8711)" fill="#010101" font-family="'SegoeUI-SemiBold'" font-size="12">Jellyfish</text>
<g>
	<g>
		<path fill="#010101" d="M36.571,499.659c0,0,2.999-6.163,15.661-8.995l4.164-4.832c0,0,4.165-1.831,4.498,1.834l0.167,3.831
			c0,0,8.995,1.833,11.328,4.165l8.661-4.832c0,0,4.666-1.666,2.999,3.5l-2.832,4.663c0,0,3.665,4.999,2.332,9.331
			c0,0-1.666,2.498-9.827-5.332l-1.333,0.833c0,0,0.5,5.831-2.5,5.831c0,0-2.831-1.332-3.996-3.166l-4.499,1.166
			c0,0,1.166,6.496-4.331,4.332c0,0-3.665-2.666-4.165-3.832c0,0-10.995-1.998-14.494-4.831
			C38.404,503.325,35.738,501.159,36.571,499.659z"/>
		<circle fill="#FFFFFF" cx="42.486" cy="499.243" r="1.972"/>
	</g>
	<path fill="#FFFFFF" d="M51.373,493.667c0,0,6.42-3.47,10.663,3.204c0,0-0.152,0.521-0.581,0.106c0,0-4.512-4.094-9.848-2.807
		C51.607,494.171,51.192,493.872,51.373,493.667z"/>
</g>
<g>
	<g>
		<g>
			<path fill="#010101" d="M145.869,508.503c0,0,1.713-3.521,8.945-5.139l2.379-2.761c0,0,2.378-1.046,2.569,1.05l0.096,2.188
				c0,0,5.138,1.047,6.47,2.379l4.948-2.761c0,0,2.665-0.95,1.713,2l-1.617,2.663c0,0,2.093,2.854,1.331,5.33
				c0,0-0.952,1.426-5.614-3.047l-0.761,0.477c0,0,0.286,3.33-1.428,3.33c0,0-1.617-0.76-2.282-1.807l-2.57,0.666
				c0,0,0.666,3.711-2.474,2.475c0,0-2.094-1.522-2.379-2.188c0,0-6.28-1.144-8.279-2.763
				C146.916,510.595,145.393,509.361,145.869,508.503z"/>
			<circle fill="#FFFFFF" cx="149.247" cy="508.265" r="1.126"/>
		</g>
		<path fill="#FFFFFF" d="M154.324,505.08c0,0,3.666-1.982,6.09,1.83c0,0-0.087,0.299-0.331,0.061c0,0-2.577-2.336-5.626-1.602
			C154.457,505.369,154.22,505.199,154.324,505.08z"/>
	</g>
	<path fill="#010101" d="M145.963,522.902l-0.483-0.324c-6.331-4.205-10.512-11.414-10.512-19.59l0,0
		c0-8.066,4.066-15.191,10.26-19.422l0,0l-5.003-8.665h37.301l-5.231,9.063c5.873,4.271,9.693,11.205,9.694,19.024l0,0
		c0,8.176-4.179,15.385-10.511,19.59l0,0l-0.484,0.324H145.963L145.963,522.902z M169.813,519.046
		c5.037-3.563,8.319-9.422,8.319-16.059l0,0c0.001-7.107-3.766-13.322-9.417-16.781l0,0l1.007-1.644l1.669,0.963l-1.669-0.963
		l-1.007,1.644l-1.603-0.98l3.736-6.472H146.9l3.563,6.176l-1.686,0.958c-5.948,3.386-9.958,9.771-9.957,17.101l0,0
		c0,6.637,3.284,12.494,8.32,16.059l0,0L169.813,519.046L169.813,519.046z"/>
	<circle fill="#010101" cx="145.069" cy="501.576" r="2.12"/>
	<circle fill="#010101" cx="149.373" cy="496.886" r="1.349"/>
	<circle fill="#010101" cx="152.905" cy="493.225" r="0.835"/>
	<path fill="#010101" d="M149.25,487.25c0,0,3.666,3.492,12.179,0.546c0,0,5.564-1.637,8.511,1.473c0,0,0,0.656-1.801,0.656
		c0,0-1.638-0.982-10.147,1.637c0,0-6.875,0.654-9.657-3.766C148.333,487.796,148.693,487.197,149.25,487.25z"/>
</g>
<g>
	
		<ellipse transform="matrix(0.1766 -0.9843 0.9843 0.1766 -264.9633 653.9299)" fill="#010101" cx="258.358" cy="485.328" rx="10.168" ry="6.547"/>
	
		<ellipse transform="matrix(-0.1182 -0.993 0.993 -0.1182 -209.6168 783.9139)" fill="#010101" cx="243.266" cy="485.031" rx="10.168" ry="6.547"/>
	
		<ellipse transform="matrix(0.4015 -0.9159 0.9159 0.4015 -295.9332 543.9158)" fill="#010101" cx="268.184" cy="498.377" rx="8.647" ry="5.635"/>
	
		<ellipse transform="matrix(0.4896 0.8719 -0.8719 0.4896 553.0782 50.5813)" fill="#010101" cx="233.332" cy="497.733" rx="8.645" ry="5.635"/>
	<path fill="#010101" d="M241.972,522.773c0,0-8.59,0.77-6.666-7.437c0,0,5.128-10.128,9.614-13.717c0,0,7.052-5.513,14.743,2.051
		c0,0,6.795,7.31,7.82,12.437c0,0,2.18,6.024-6.41,6.795c0,0-7.178-2.181-9.999-2.181
		C251.076,520.722,247.421,521.3,241.972,522.773z"/>
</g>
<g>
	<path d="M331.068,478.362c0,0,8.871,3.077,12.13,7.604c0,0,4.163,5.794,5.25,8.69c0,0-0.361,8.689-4.524,18.104
		c0,0-4.165,9.957-8.691,6.336c0,0-3.802-4.889-4.888-15.389c0,0,3.259-4.346,7.784-6.518c0,0-7.967,1.086-9.775-3.26
		c0,0-1.088-8.329-2.897-10.319c0,0-0.544-6.519,3.803-5.612L331.068,478.362z"/>
	<path d="M367.799,478.362c0,0-8.871,3.077-12.129,7.604c0,0-4.165,5.794-5.251,8.69c0,0,0.36,8.689,4.524,18.104
		c0,0,4.164,9.957,8.691,6.336c0,0,3.803-4.889,4.888-15.389c0,0-3.258-4.346-7.784-6.518c0,0,7.965,1.086,9.776-3.26
		c0,0,1.087-8.329,2.896-10.319c0,0,0.544-6.519-3.802-5.612L367.799,478.362z"/>
	<path d="M348.448,495.561c0-0.565,0.459-1.024,1.025-1.024l0,0c0.565,0,1.025,0.459,1.025,1.024v10.382
		c0,0.564-0.46,1.023-1.025,1.023l0,0c-0.566,0-1.025-0.459-1.025-1.023V495.561z"/>
	<rect x="348.811" y="493.864" width="1.245" height="1.29"/>
	<circle cx="349.377" cy="493.298" r="0.951"/>
	<path d="M348.509,501.294c0,0-0.845,0.423-2.595,5.312l1.75-11.949l3.803-0.062l2.716,10.441l-1.388,1.508
		c0,0-1.57-4.827-2.294-5.431L348.509,501.294z"/>
	<polygon points="345.607,485.115 345.856,485.005 349.115,492.489 348.867,492.597 	"/>
	<polygon points="353.341,485.174 353.092,485.066 349.832,492.549 350.081,492.658 	"/>
</g>
<g>
	<path fill="#010101" d="M36.41,257.831l3.743-0.355c0,0,2.981-7.392,10.876-4.811c0,0,2.709,0.306,8.233,9.707
		c0,0,4.705,6.932,14.131-1.242c0,0,6.872-4.987,8.936-9.099c0,0,1.011,1.989-0.126,3.553c0,0,2.087,0.144,2.207,0.706
		c0,0-8.098,6.129-9.862,11.646c0,0-3.216,9.056-11.621,13.047c0,0-9.509,3.638-15.648-3.135c0,0-5.28-5.487-6.161-13.086
		l-3.521,0.015l2.663-3.357L36.41,257.831z"/>
	<circle fill="#FFFFFF" cx="45.58" cy="258.818" r="1.437"/>
	<path fill="#FFFFFF" d="M69.751,267.486c0,0-6.728,10.343-15.492,5.204c0,0-5.603-5.35,0.175-8.851c0,0,1.617-1.373,7.271,2.419
		C61.705,266.258,65.394,268.412,69.751,267.486z"/>
	<polygon points="61.998,280.298 59.904,288.872 61.428,289.135 62.58,280.273 	"/>
	<polygon points="56.469,281.474 54.767,288.202 55.857,288.263 57.219,281.314 	"/>
</g>
<g>
	<path fill="#010101" d="M257.02,261.207c0,0,12.282,1.467,17.6,9.35c0,0-8.434-4.95-10.633,3.667c0,0-8.25-5.133-13.384,6.416
		v-17.6c0,0,1.375,0.458,1.742-1.65c0,0-0.367,5.225,3.849,5.042C256.193,266.432,262.061,265.057,257.02,261.207z"/>
	<path fill="#010101" d="M244.219,261.191c0,0-12.283,1.466-17.601,9.35c0,0,8.433-4.95,10.633,3.667c0,0,8.25-5.133,13.383,6.416
		v-17.599c0,0-1.375,0.458-1.741-1.65c0,0,0.366,5.225-3.851,5.041C245.044,266.416,239.177,265.041,244.219,261.191z"/>
	<circle fill="#FFFFFF" cx="250.629" cy="261.901" r="1.375"/>
</g>
<g>
	<path fill="#010101" d="M43.819,585.875c0.376,0.073,0.655-0.046,0.967,0.023c0.874,0.191,2.542,0.95,1.688,2.077
		c0.075,0.076,0.173,0.253,0.102,0.409c-0.16,0.437-1.454,0.372-2.1,0.372c-0.186,0-0.367,0-0.556,0
		c-0.334,0.145-0.729,0.28-1.005,0.494c-0.187,0.135-0.252,0.365-0.396,0.551c-0.613,0.824-1.136,1.563-1.233,2.74
		c-0.043,0.51,0.685,1.752,0.904,2.103c0.245,0.383,0.419,0.968,0.681,1.318c0.164,0.12,0.329,0.243,0.493,0.37
		c0.069,0.135,0.142,0.272,0.208,0.407c0.155,0.12,0.313,0.234,0.473,0.351c0.476,0.375,0.859,0.924,1.361,1.275
		c0.475,0.342,1.029,0.558,1.482,0.908c0.284,0.219,0.693,0.233,1.024,0.409c0.09,0.05,0.101,0.154,0.165,0.205
		c0.354,0.277,1.226,0.46,1.712,0.641c0.792,0.299,1.646,0.656,2.463,0.987c3.063,1.235,6.521,2.297,9.35,4.015
		c0.2,0.17,0.4,0.342,0.597,0.514c0.943,0.71,1.794,1.439,2.489,2.388c0.202,0.36,0.4,0.718,0.6,1.072
		c0.39,0.455,0.441,0.867,0.743,1.422c0.558,1.029,1.457,3.416,1.152,5.226c-0.024,0.276-0.045,0.548-0.063,0.825
		c0,0.101,0,0.208,0,0.306c1.213,0.057,2.426,0.112,3.642,0.169c1.059,0.082,2.11,0.162,3.169,0.243
		c0.462,0.053,0.922,0.101,1.382,0.146c1.364,0.296,2.796,0.478,4.076,0.802c0.888,0.228,1.765,0.388,2.509,0.738
		c0.697,0.333,2.022,1.605,2.268,2.288c0.064,0.185,0.354,0.802,0.201,1.069c-0.462,0.838-2.877,0.805-4.139,1.028
		c-0.896,0.159-2.086,0.017-2.943,0.148c-0.709,0.011-1.423,0.022-2.137,0.035c-0.517-0.004-1.031-0.013-1.546-0.019
		c-0.645-0.018-1.289-0.042-1.936-0.063c-0.69-0.032-1.387-0.058-2.078-0.082c-0.82-0.021-1.646-0.042-2.468-0.066
		c-1.021,0.72-1.947,1.416-3.273,1.858c-1.537,0.509-3.058,0.873-4.757,1.212c-1.371,0.16-2.744,0.313-4.114,0.475
		c-1.219,0.199-2.521-0.126-3.664-0.082c-1.008,0.037-2.074-0.075-2.964-0.246c-3.246-0.633-5.504-0.833-6.18-4.038
		c-0.461-2.216,1.037-3.357,2.14-4.259c0.748-0.604,1.621-0.965,2.82-1.172c0.4-0.031,0.8-0.055,1.195-0.088
		c0.119,0.019,0.234,0.033,0.352,0.045c1.052-0.176,2.257-0.03,3.437-0.243c0.153,0.016,0.305,0.038,0.456,0.061
		c0.396-0.061,0.907-0.053,1.254-0.125c0.367,0.013,0.728,0.023,1.094,0.041c1.123-0.031,2.249-0.069,3.374-0.102
		c1.133,0.014,2.267,0.024,3.396,0.037c0.485-1.434,0.567-3.505,0.063-4.963c-0.275-0.788-1.512-2.116-2.159-2.569
		c-2.336-1.64-5.404-2.477-8.442-3.438c-0.231-0.071-0.479-0.273-0.7-0.369c-0.118-0.011-0.232-0.025-0.35-0.039
		c-0.255-0.133-0.506-0.262-0.762-0.395c-0.092,0.039-0.233,0-0.327-0.039c-0.221-0.131-0.438-0.261-0.658-0.392
		c-1.294-0.581-2.442-1.127-3.58-1.854c-0.313-0.244-0.619-0.494-0.932-0.74c-0.767-0.438-1.554-0.727-2.238-1.234
		c-0.176-0.166-0.351-0.329-0.517-0.492c-0.188-0.11-0.371-0.22-0.556-0.331c-0.146-0.187-0.29-0.373-0.433-0.558
		c-0.246-0.146-0.491-0.198-0.661-0.41c-0.102-0.149-0.206-0.305-0.31-0.452c-0.229-0.187-0.516-0.369-0.678-0.619
		c-0.277-0.419-0.623-0.803-0.866-1.215c-0.163-0.283-0.179-0.589-0.353-0.843c-0.079-0.127-0.203-0.23-0.265-0.395
		c-0.104-0.26-0.038-0.788-0.165-1.023c-0.09-0.172-0.203-0.285-0.245-0.558c0.028-0.188,0.056-0.372,0.078-0.557
		c-0.034-0.134-0.167-0.23-0.202-0.391c-0.074-0.352,0.086-0.609,0.166-0.805c-0.223-0.374,0.154-1.617,0.307-1.873
		c0.123-0.163,0.247-0.328,0.372-0.496c0.241-0.489,0.503-0.93,0.822-1.354c0.072-0.056,0.146-0.111,0.229-0.169
		c0.161-0.275,0.183-0.633,0.37-0.905c0.334-0.499,0.908-0.636,1.438-0.945c0.632-0.367,1.162-0.771,2.122-0.846
		C42.666,585.999,43.279,585.771,43.819,585.875z"/>
	<ellipse fill="#FFFFFF" cx="53.399" cy="621.746" rx="6.483" ry="0.922"/>
</g>
<path fill="#010101" d="M152.726,618.077c-0.292,0.873-1.123,1.396-1.399,2.411c-0.202,0.736,0.083,1.629-0.041,2.438
	c-0.287,1.895-0.145,4.383,0.701,5.473c0.265,0.34,1.048,0.678,1.48,0.849c0.011,0.013,0.02,0.027,0.026,0.04
	c-0.063,0.536-1.125,0.736-1.724,0.552c-0.845-0.257-1.557-0.923-1.725-1.857c0.011-0.234,0.018-0.468,0.024-0.701
	c-0.003-0.409-0.008-0.815-0.011-1.226c-0.02-0.352-0.037-0.7-0.056-1.053c-0.099-0.965-0.198-1.93-0.298-2.896
	c-0.013-0.287-0.025-0.576-0.038-0.861c-0.09-0.552-0.058-1.769,0.066-2.252c0.131-0.518,0.503-0.708,0.781-1.064
	c0.177-0.229,0.289-0.527,0.403-0.821c0.452-1.17,0.266-2.957,0.039-4.23c-0.034-0.439-0.069-0.88-0.107-1.321
	c-0.062-0.262-0.19-0.457-0.282-0.674c-0.009-0.004-0.02-0.007-0.025-0.014c-0.172,1.33-0.342,2.661-0.512,3.989
	c-0.07,0.479-0.136,0.961-0.203,1.442c-0.206,1.017-0.349,1.999-0.524,3.072c-0.016,0.309-0.027,0.618-0.041,0.929
	c-0.088,0.521-0.137,1.038-0.241,1.523c-0.076,0.345-0.096,0.747-0.434,0.82c-0.534,0.118-0.603-0.604-0.522-1.064
	c0.199-1.196-0.382-3.612,0.781-3.826c0.018-0.179,0.032-0.359,0.053-0.54c0.094-0.434,0.188-0.871,0.282-1.308
	c0.014-0.272,0.026-0.547,0.042-0.819c0.133-0.851,0.064-1.737,0.216-2.547c0.264-1.439,0.583-2.629,1.304-3.584
	c0.755-0.993,1.947-1.63,3.048-2.278c0.378-0.205,0.755-0.412,1.13-0.619c0.396-0.16,0.791-0.324,1.188-0.485
	c0.128-0.068,0.269-0.234,0.39-0.282c0.147-0.058,0.319,0.037,0.446-0.053c0.075-0.058,0.022-0.124,0.08-0.202
	c0.084-0.037,0.17-0.071,0.255-0.108c0.161-0.145,0.324-0.286,0.487-0.432c0.26-0.272,0.52-0.547,0.778-0.823
	c0.322-0.402,0.597-0.845,0.863-1.305c0.454-0.993,0.908-1.985,1.36-2.979c0.273-0.462,0.931-0.563,1.145-1.077
	c0.202-0.487-0.005-1.258,0.108-1.834c0.115-0.574,0.086-1.234,0.188-1.859c0.11-0.655,0.167-1.165,0.271-1.817
	c0.044-0.275-0.002-0.615-0.042-0.851c-0.112-0.682-0.188-1.301-0.324-1.926c-0.152-0.717-0.034-1.851-0.416-2.357
	c-0.59-0.783-2.741,0.288-3.046-0.822c-0.102-0.369,0.233-0.508,0.459-0.606c0.452-0.197,1.306-0.371,1.428-0.889
	c-0.497-0.047-1.202-0.888-0.594-1.253c0.664-0.399,1.192,0.771,1.914,0.62c0.566-0.12,0.742-0.678,1.295-0.851
	c0.416-0.129,0.899-0.063,1.398-0.147c0.561-0.096,0.979-0.172,1.376-0.403c0.477-0.28,1.357-0.965,2.129-0.647
	c0.432,0.18,0.751,0.681,0.391,1.146c-0.327,0.423-0.912,0.683-1.455,0.889c-0.175,0.049-0.352,0.099-0.525,0.147
	c-0.061,0.065-0.038,0.242-0.066,0.338c-0.056,0.182-0.145,0.364-0.243,0.513c-0.529,0.793-1.017,1.255-1.294,2.357
	c-0.52,2.057,0.771,4.365,1.241,5.872c0.099,0.315-0.015,0.738,0.053,1.094c0.153,0.802,0.365,1.519,0.512,2.344
	c0.194,1.075-0.046,2.505-0.229,3.424c-0.076,0.547-0.151,1.096-0.229,1.644c-0.076,0.416-0.188,1.186-0.106,1.671
	c0.036,0.229,0.033,0.447,0.094,0.647c0.239,0.781,0.694,1.298,0.85,2.208c0.152,0.902-0.631,1.642-0.971,2.116
	c-0.166,0.232-0.341,0.496-0.43,0.793c-0.015,0.105-0.028,0.209-0.041,0.313c-0.086,0.202-0.313,0.432-0.419,0.697
	c-0.331,0.847-0.088,2.102,0.08,2.951c0.027,0.292,0.056,0.586,0.081,0.878c-0.009,0.27-0.018,0.537-0.025,0.807
	c-0.005,0.222-0.01,0.44-0.015,0.662c-0.1,0.596-0.077,1.51,0.053,2.033c0.132,0.521,0.3,1,0.418,1.548
	c0.108,0.852,0.217,1.698,0.325,2.55c0.082,0.488-0.146,0.895-0.056,1.374c0.145,0.761,0.493,1.299,0.7,1.995
	c0.108,0.607,0.218,1.221,0.324,1.831c0.179,0.573,0.664,1.055,1.133,1.347c0.277,0.175,0.825,0.421,0.686,0.944
	c-0.104,0.396-0.679,0.352-1.089,0.256c-0.898-0.212-1.252-0.703-1.66-1.39c-0.311-0.525-0.63-1.075-0.794-1.724
	c-0.067-0.647-0.135-1.293-0.203-1.941c-0.141-0.564-0.404-1.014-0.524-1.604c-0.101-0.492,0.081-1.138-0.054-1.615
	c-0.086-0.3-0.329-0.482-0.444-0.754c-0.262-0.625-0.556-1.598-0.54-2.441c-0.023,0-0.053,0-0.08,0
	c-0.162,1.254-0.262,2.356-0.522,3.479c-0.198,0.841-0.495,2.167-0.325,3.261c-0.004,0.377-0.009,0.754-0.014,1.133
	c-0.019,0.17-0.036,0.342-0.055,0.511c0.067,0.438,0.467,1.435,0.741,1.656c0.229,0.188,0.932,0.28,0.823,0.771
	c-0.117,0.518-1.252,0.533-1.807,0.363c-0.23-0.071-0.636-0.285-0.555-0.646c0.054-0.228,0.266-0.411,0.137-0.729
	c-0.164-0.402-0.496-0.679-0.606-1.132c-0.214-0.896,0.068-2.463,0.229-3.208c0.33-1.534,0.438-3.098,0.174-4.783
	c-0.058-0.37,0.003-0.818,0.056-1.132c0.067-0.602,0.133-1.203,0.202-1.806c0.049-0.301-0.133-0.951,0.161-1.024
	c-0.028-0.67-0.054-1.338-0.08-2.007c-0.283,0.048-0.566,0.1-0.852,0.147c-0.664,0.133-1.387,0.177-2.142,0.177
	c-0.416,0-1.379-0.197-1.618-0.056c-0.346,0.209-0.298,0.812-0.43,1.241c-0.097,0.316-0.309,0.556-0.471,0.819
	c-0.494,0.791-0.832,1.723-1.228,2.615c-0.24,0.54-0.637,0.973-0.796,1.59c-0.517,2.011,0.692,4.697,1.388,5.889
	c0.181,0.306,0.368,0.617,0.515,0.955c0.204,0.482,0.349,0.988,0.631,1.389c0.19,0.267,0.428,0.396,0.688,0.593
	c0.127,0.097,0.176,0.315,0.309,0.419c0.306,0.197,0.611,0.396,0.918,0.593c0.235,0.18,0.431,0.598,0.107,0.836
	c-0.217,0.156-0.657,0.059-0.89-0.014c-0.721-0.228-1.387-0.513-1.915-0.931c-0.753-0.599-0.761-1.666-1.158-2.603
	c-0.444-1.048-0.924-2.13-1.496-3.083c-0.5-0.837-1.089-1.586-1.347-2.669c-0.298-1.257,0.533-1.957,0.526-3.125
	C152.78,618.077,152.754,618.077,152.726,618.077z"/>
<g>
	<path fill="#010101" d="M240.832,596.501c0,0-1.714,0.974-3.381-0.37c0,0-6.068-3.382-9.08-1.668c0,0-3.613,1.992-0.463,4.633
		c0,0,4.03,3.104,6.624,3.428C234.532,602.524,238.655,597.475,240.832,596.501z"/>
	<path fill="#010101" d="M240.114,605.744l-3.961-2.225c0,0-4.933,3.404,1.182,10.146c0,0,7.645,7.644,10.354,4.586
		c0,0-7.922-10.423-8.339-11.951L240.114,605.744z"/>
	<path fill="#010101" d="M272.749,612.113l-6.81,0.139c0,0-0.141,1.297,0.88,2.27c0,0,0.973,2.733,0.973,2.872
		c0,0,2.826,4.217,6.439-0.276C274.231,617.116,275.76,615.031,272.749,612.113z"/>
	<path fill="#FFFFFF" d="M236.427,602.206c0,0,15.633,10.734,37.52,8.546c0,0-2.71-15.425-20.74-16.675
		C253.206,594.077,243.201,593.66,236.427,602.206z"/>
	<path d="M243.172,599.282l2.987,2.152l-1.459,5.003c0,0-5.768-2.361-6.184-3.058l0.833-2.918L243.172,599.282z"/>
	<path d="M252.065,600.462l-4.377,1.182l-1.529,5.28c0,0,6.045,2.293,7.505,2.293l1.599-5.42L252.065,600.462z"/>
	<path d="M261.099,602.894l-4.31,1.391l-1.527,5.281c0,0,6.114,1.319,7.781,1.11l1.112-3.891L261.099,602.894z"/>
	<path d="M269.298,606.438l-3.752,0.903l-1.043,3.544c0,0,5.906,0.349,7.088-0.068l0.486-1.32L269.298,606.438z"/>
	<path d="M272.771,606.994l-0.348,1.112l-2.224-2.571l0.625-2.016C270.826,603.52,272.563,606.369,272.771,606.994z"/>
	<path d="M269.854,602.269c0,0-3.335-4.1-6.254-5.42l-1.459,5.003l3.195,4.17l3.613-0.765L269.854,602.269z"/>
	<path d="M262.419,596.224l-1.528,5.211l-4.446,1.459l-3.196-3.474l1.391-5.281C254.637,594.139,259.431,594.904,262.419,596.224z"
		/>
	<path d="M247.271,600.324l-2.988-1.945l0.695-2.641c0,0,5.13-1.934,8.228-1.661l-1.141,4.788L247.271,600.324z"/>
	<polygon points="243.473,596.456 243.056,598.077 239.721,598.911 	"/>
	<circle fill="#FFFFFF" cx="230.595" cy="595.946" r="0.556"/>
	<polygon fill="#FFFFFF" points="226.981,598.216 230.703,598.78 227.975,599.231 	"/>
</g>
<g>
	<g>
		<path d="M466.216,599.281c-0.352-0.334-0.597-0.814-0.654-1.367c-0.121-1.133,0.587-2.139,1.58-2.246
			c0.995-0.107,1.899,0.727,2.021,1.859c0.021,0.188,0.019,0.371-0.005,0.547L466.216,599.281z"/>
		<polygon points="469.103,597.908 468.424,599.207 467.364,598.539 		"/>
		<polygon points="466.728,598.947 466.05,600.246 464.989,599.576 		"/>
		<polygon points="464.133,599.837 463.455,601.136 462.395,600.468 		"/>
		<polygon points="461.535,600.697 460.856,601.996 459.799,601.326 		"/>
		<polygon points="458.936,601.554 458.259,602.854 457.199,602.183 		"/>
		<polygon points="458.811,603.72 459.777,602.619 460.647,603.519 		"/>
		<polygon points="461.44,603.472 462.406,602.371 463.277,603.271 		"/>
		<polygon points="464.1,603.188 465.065,602.085 465.938,602.986 		"/>
		<polygon points="466.198,603.064 467.165,601.962 468.035,602.863 		"/>
		<path d="M453.594,601.583l0.188-2.371l0.014-0.053c-0.056-0.133-0.012-0.24-0.025-0.389c-0.104-0.947,0.651-1.808,1.684-1.919
			c1.032-0.108,1.95,0.568,2.055,1.519c0.005,0.047,0.006,0.094,0.008,0.141l0.072-0.014l8.357-1.441l0.271,2.226l-9.704,3.146
			c-1.528,1.629,5.402,0.851,5.402,0.851l6.517-0.529l0.496-0.768l0.719,0.672l0.404-0.043c-0.121,2.36-2.521,1.903-2.521,1.903
			l-7.349,0.688C450.783,608.082,453.594,601.583,453.594,601.583z"/>
		<circle fill="#FFFFFF" cx="455.906" cy="599.019" r="0.44"/>
	</g>
	<path d="M454.291,599.214c0,0-13.221-0.713-16.538-1.174c0,0-1.011-0.527-4.232,2.451c0,0-8.563,1.01-10.976,5.174
		c0,0-3.413,7.541,7.697,10.389c0,0,8.262,2.519,10.405,0.927c0,0-13.887-2.052-12.604-8.728c0,0,0.166-2.242,3.153-2.336
		l1.437,1.117c0,0,3.021-1.459,4.729-0.781c0,0-6.051,0.742-4.365,3.33c0,0,0.43,1.043,3.121,1.162l1.967-1.572
		c0,0,5.087-0.41,2.559-3.227c0,0-1.396-1.574-4.554-2.234c0,0,1.135-0.645,3.537,0.801c0,0,1.971,1.22,2.344,2.586l5.073-0.545
		c0,0,0.199-1.725,2.771-2.092c0,0-3.149,1.746-1.85,2.855c0,0,1.869,1.139,5.186,0.715l0.798-0.813c0,0-3.611-0.655-2.333-1.633
		l1.16-0.625c0,0-1.029-1.547,0.735-3.303l0.971-1.738L454.291,599.214z"/>
	<circle cx="451.1" cy="599.143" r="0.559"/>
	<circle cx="448.667" cy="598.997" r="0.559"/>
	<circle cx="445.965" cy="598.725" r="0.559"/>
	<circle cx="443.132" cy="598.5" r="0.558"/>
	<circle cx="440.447" cy="598.245" r="0.558"/>
	<circle cx="429.647" cy="601.264" r="0.558"/>
	<circle cx="431.646" cy="600.655" r="0.559"/>
	<circle cx="434.219" cy="599.776" r="0.559"/>
	<circle cx="438.62" cy="598.083" r="0.559"/>
	<circle cx="427.537" cy="601.901" r="0.558"/>
	<circle cx="425.414" cy="602.854" r="0.558"/>
	<circle cx="423.684" cy="604.084" r="0.558"/>
	<path d="M437.927,609.179c0,0,3.441,0.347,3.624,0.451c0,0,0.483,0.174-0.137,0.332l-2.216-0.125c0,0,0.822,0.457,1.355,0.56
		c0,0,0.438,0.293-0.146,0.331l-1.545-0.331c0,0-0.341-0.111-0.336,0.159l1.013,0.642c0,0,0.385,0.311-0.171,0.323l-1.403-0.508
		c0,0-0.492-0.139-0.442,0.105l0.813,0.707c0,0,0.453,0.313-0.207,0.295c0,0-2.022-1.293-2.338-1.588L437.927,609.179z"/>
	<path d="M453.857,607.23c0,0,4.822,0.021,5.296,0.157c0,0,0.632,0.019,0.151,0.308l-1.69,0.112c0,0-0.146,0.068-0.036,0.142
		l1.078,0.209c0,0,0.467,0.221-0.084,0.313l-1.437-0.051c0,0-0.344-0.031-0.087,0.146l1.062,0.362c0,0,0.18,0.082-0.064,0.193
		l-1.276,0.002c0,0-0.362-0.047-0.096,0.213c0,0,1.103,0.598,0.555,0.725c0,0-3.621-1.534-4.055-1.932l-0.313-0.512L453.857,607.23z
		"/>
</g>
<g>
	<path d="M56.747,379.648c0,0-4.674-8.056,1.193-9.945c0,0,4.574-0.198,7.855,1.89L56.747,379.648z"/>
	<path d="M65,371.692c0,0,5.172-3.58,9.847,1.591c0,0,4.076,4.078,4.375,14.42l0.1,19.492c0,0,1.156,2.263,0.485,2.561
		c0,0-2.313,1.23-3.843,0.561c0,0-1.49-0.299-1.268-1.939c0,0,0.249-11.424-0.05-14.705c0,0-0.101-3.68-1.293-6.315
		c0,0-0.696-0.497-1.938,0.497c0,0-3.282-1.441-4.178,21.979c0,0-7.309,0.845-7.309-0.249l0.049-10.441
		c0,0-6.612,2.287-11.485,0.695c0,0-2.188-0.447-3.68,2.188c0,0-1.491,2.536-1.542,7.606c0,0-6.763,0.398-6.861,0
		c0,0,0.05-9.199,3.281-13.027c0,0-0.646-1.915-0.571-2.512c0,0-1.269,3.132-2.61,0.746c0,0,2.015-8.428,9.695-12.68
		c0,0,6.614-2.71,10.542-2.511l4.823-6.29L65,371.692z"/>
	<path d="M71.191,387.418c0,0,2.499,4.773,10.555,3.207c0,0,2.908-1.044,2.647,0.037c0,0-2.909,3.021-5.817,3.021
		c0,0-6.303,0.896-9.995-3.095C68.581,390.588,70.632,387.455,71.191,387.418z"/>
	<path d="M47.623,401.626c0,0,2.274,0.448,2.871,0.41l1.082,5.558l-5.719,0.994C45.857,408.588,45.857,402.72,47.623,401.626z"/>
	<circle fill="#FFFFFF" cx="69.401" cy="376.491" r="1.268"/>
</g>
<g>
	<path fill="#010101" d="M173.273,383.479l0.875,0.433c0,0,1.088-4.782-2.739-4.833c0,0-1.166,0.491-1.205,1.247
		C170.205,380.327,172.916,380.181,173.273,383.479z"/>
	<path fill="#010101" d="M172.295,384.356c0,0-0.064-3.676-4.116-2.813c0,0-3.326,1.726,0.28,5.355L172.295,384.356z"/>
	<path fill="#010101" d="M171.697,383.956c0,0,7.568,3.117,9.015,7.98c0,0,0.199,1.544,1.024,2.121c0,0,1.403,2.412,0.775,2.834
		c0,0-3.271,1.105-6.347,0.001l-7.646,0.51l-2.351,0.303l-10.438,1.075l-5.259-0.549c0,0-2.611-0.142-4.375-2.711
		c0,0-1.791-6.457,2.985-10.691c0,0,6.916-8.809,16.502-2.744c0,0-1.948,3.936,2.874,4.815L171.697,383.956z"/>
	<path fill="#010101" d="M152.153,392.684c0,0-11.229-0.802-13.906,1.182c0,0-3.37,1.39-3.937,2.283c0,0-0.322,1.202,1.23,1.069
		c0,0,2.716-4.855,17.417-2.522L152.153,392.684z"/>
	<circle fill="#FFFFFF" cx="175.775" cy="391.755" r="1.422"/>
	<path d="M167.746,399.252c0.366,0.438,0.936,0.565,1.271,0.286l0,0c0.334-0.281,0.308-0.862-0.061-1.3l-1.252-1.495
		c-0.366-0.438-0.936-0.565-1.27-0.286l0,0c-0.334,0.28-0.309,0.863,0.059,1.3L167.746,399.252z"/>
	<path d="M155.296,401.004c0.489,0.274,1.107,0.1,1.382-0.389l0,0c0.274-0.49,0.1-1.108-0.39-1.383l-4.958-2.782
		c-0.488-0.274-1.106-0.1-1.383,0.39l0,0c-0.274,0.489-0.1,1.108,0.39,1.382L155.296,401.004z"/>
</g>
<g>
	<path fill="#010101" d="M235.922,377.109c0,0-0.188,9.612,11.496,7.916c0,0,9.046,0.754,12.063-9.801c0,0,1.979-4.899,7.633-2.167
		c0,0,2.073,2.167,1.602,3.958c0,0-0.471,14.7-3.581,18.658c0,0-4.239,7.443-12.531,6.69c0,0-15.737,1.884-21.862-9.989
		C230.738,392.375,226.781,381.632,235.922,377.109z"/>
	<path fill="#010101" d="M264.505,370.828c0,0,0.44-5.654-2.639-4.587c0,0-0.251,1.131-0.188,1.634c0,0-3.203-1.947-4.146-0.188
		c0,0-0.629,1.068,1.067,2.136c0,0-5.025-0.251-3.706,2.827c0,0,1.131,1.131,4.271,0.565
		C259.165,373.214,260.359,370.576,264.505,370.828z"/>
	<polygon fill="#010101" points="268.243,377.392 271.353,379.065 267.701,380.713 	"/>
	<ellipse fill="#010101" cx="245.651" cy="402.175" rx="2.803" ry="1.979"/>
	<ellipse fill="#010101" cx="249.938" cy="401.892" rx="2.804" ry="1.979"/>
	<polygon fill="#010101" points="245.062,403.447 244.072,406.886 245.58,413.106 247.983,411.88 245.722,406.839 246.569,403.447 	
		"/>
	<polygon fill="#010101" points="248.454,403.023 248.124,405.049 249.727,411.174 251.988,410.043 249.773,404.813 
		250.057,403.117 	"/>
	<ellipse fill="#010101" cx="246.923" cy="412.747" rx="1.378" ry="1.36"/>
	<circle fill="#010101" cx="250.904" cy="410.691" r="1.272"/>
	<circle fill="#FFFFFF" cx="264.898" cy="375.837" r="0.864"/>
</g>
<g>
	
		<rect x="342.243" y="381.315" transform="matrix(-0.51 0.8602 -0.8602 -0.51 863.6517 288.1959)" fill="#010101" width="14.99" height="17.558"/>
	<circle fill="#010101" cx="338.777" cy="377.567" r="7.423"/>
	<circle fill="#010101" cx="332.858" cy="387.833" r="7.423"/>
	<circle fill="#010101" cx="366.009" cy="392.381" r="7.423"/>
	<circle fill="#010101" cx="360.09" cy="402.646" r="7.423"/>
	
		<rect x="354.503" y="392.182" transform="matrix(-0.51 0.8602 -0.8602 -0.51 879.6907 288.1029)" fill="#010101" width="6.568" height="4.853"/>
	
		<rect x="336.684" y="383.051" transform="matrix(-0.51 0.8602 -0.8602 -0.51 846.5157 288.672)" fill="#010101" width="8.708" height="4.782"/>
</g>
<g>
	<circle cx="434.831" cy="376.602" r="5.073"/>
	<polygon points="431.617,367.029 432.688,372.602 437.189,372.959 437.977,366.815 434.831,370.387 	"/>
	<circle cx="448.551" cy="388.606" r="5.073"/>
	<polygon points="445.336,379.033 446.406,384.605 450.907,384.962 451.693,378.818 448.552,382.39 	"/>
	<circle cx="460.339" cy="388.606" r="5.073"/>
	<polygon points="457.123,379.033 458.195,384.605 462.697,384.962 463.482,378.818 460.341,382.39 	"/>
	<rect x="433.046" y="381.033" width="3.93" height="2.144"/>
	<ellipse cx="434.904" cy="387.892" rx="7.574" ry="5.931"/>
	<rect x="423.686" y="386.463" fill="#FFFFFF" width="42.869" height="4.572"/>
	<path d="M422.05,389.678c0.153,13.125,10.837,23.721,24,23.721c13.164,0,23.846-10.596,24-23.721H422.05z"/>
	<circle fill="#FFFFFF" cx="432.716" cy="375.065" r="1.125"/>
</g>
<g>
	<path d="M370.575,249.413c0,0-3.062,0.513-4.013,1.227c0,0-4.31-0.628-7.284,3.222c0,0-1.829,2.46-2.429,4
		c0,0-2.08,4.163-5.306,5.169c0,0-3.229,1.286-10.21,1.639c0,0-4.397,0.338-8.208,3.16c0,0-2.327,4.222-1.729,5.724
		c0.599,1.503,1.09,4.675,1.09,4.675s0.297,4.616-1.186,6.189c0,0-0.506,0.821-0.107,1.618c0,0,0.396,1.531,0.23,2.165l-0.162,5.39
		c0,0-0.631,1.478,0.483,2.054c0,0,0.338,0.096,0.497,0.478l0.306,1.292l3.015-0.711c0,0-1.348-1.711-1.87-2.147
		c0,0-0.464-0.484-0.42-1.334c0,0,0.138-4.754,0.655-5.821c0,0,0.625-1.65,1.792-3.08c0,0,2.69-3.118,3.143-4.764
		c0,0,2.788,0.847,2.616,4.419c0,0-0.188,1.864,0.783,1.984c0,0,3.922,1.803,5.977,4.431c0,0,0.577,1.263,1.567,1.309l0.533,1.519
		l3.246-0.767c0,0-7.486-6.978-7.593-7.127c-0.104-0.15-0.896-0.838-0.59-2.204c0,0,0.364-4.982,0.216-5.611
		c0,0,6.674-0.176,10.529-2.063l0.099,8.721c0,0-0.052,2.6-0.38,3.132c0,0-0.38,1.804,0.657,2.048c0,0,0.813,0.333,1.27,2.114
		l3.113-0.734c0,0-1.748-2.071-2.372-2.344c0,0-0.651-0.545-0.424-1.648c0,0,1.708-10.126,2.886-11.277c0,0,0.542-1.177,0.808-1.239
		c0,0,2.342,0.881,4.869,0.18c0,0,1.987,0.126,2.636-0.097c0,0,0.396,0.047,0.544,0.676l0.308,4.124c0,0-0.081,0.544-0.555,0.761
		c0,0-0.721,0.8-0.662,1.346l-1.191,0.281l0.641,2.716c0,0,2.821-1.085,3.493-3.727c0,0,0.793-4.349,0.66-7.43
		c0,0-0.021-1.569-1.79-1.956c0,0-2.657-0.887-6.506-0.743c0,0,0.909-1.329-0.525-6.377c0,0-0.865-3.224,0.073-5.473
		c0,0,1.186,0.28,1.357,0.273l1.55,2.713c0,0,0.365,2.292,1.123,1.798l1.013,0.286c0,0,2.19-0.202,2.007-1.872l-1.939-10
		L370.575,249.413z"/>
	<path d="M333.734,268.083c0,0-2.869-0.818-5.959,2.428c0,0-2.813,3.418-0.659,11.881l4.101-0.968c0,0-1.582-5.686-1.408-8.795
		C329.808,272.629,329.906,269.537,333.734,268.083z"/>
</g>
<g>
	<path d="M178.176,708.71l-3.015,0.299l-4.42-0.651l-4.629,3.509l-1.279,0.829l-1.291,4.646c0,0-1.017,2.582-1.955,2.387
		l4.831,12.598l2.758,1.089c0,0-2.815-3.866-2.737-10.282c0,0,2.386,8.803,3.052,9.352l0.625-1.335c0,0,0.471,2.391,1.174,1.961
		c0,0,0.432-3.053,0.666-3.365c0,0,0.43,2.19,0.313,2.543c0,0,4.615-7.938,4.969-9.446c0,0-4.539-1.781-4.461-3.62
		c0,0,3.834,4.266,6.926,3.053c0,0,1.408-0.393,2.777-3.169c0,0-2.699-0.782-2.31-2.915c0,0-0.704-1.857-1.682-2.366l1.486-1.369
		c0,0-2.074-0.118-2.738-0.587c0,0,2.504-0.393,2.815-0.235L178.176,708.71z"/>
	<path d="M169.412,734.673l-1.908,4.286l0.354,1.377c0,0,1.878,0.176,2.112,0.792l0.793,2.582h4.487l-0.762-2.611l-2.455-0.82
		l-1.771-4.787L169.412,734.673z"/>
	<path fill="#FFFFFF" d="M177.714,715.778c0,0,0.972,0.325,0.999,0.939c0,0-0.177,0.438-0.616,0.146
		C178.096,716.863,177.597,716.217,177.714,715.778z"/>
	<path fill="#FFFFFF" d="M174.722,712.931c0,0-1.614-1.231-2.084,0.323c0,0-0.177,0.938-0.146,1.174c0,0-0.88-0.779-0.293-1.96
		c0,0,0.704-1.149,1.848-0.3L174.722,712.931z"/>
	<path d="M144.569,720.199c0,0-6.445,0.548-8.333,5.79c0,0-1.057,3.012-1.057,4.303h0.392c0,0,0.821-5.359,3.56-7.003
		c0,0,2.817-1.486,4.423-1.525L144.569,720.199z"/>
	<path d="M135.335,730.116c0,0-1.506,1.231-0.526,4.166c0,0,0.724,1.479,1.096,1.663c0,0,0.946-1.291,0.894-3.325
		C136.797,732.62,136.587,730.585,135.335,730.116z"/>
	<path d="M168.643,733c0,0,0.622,0.146,0.328,0.822l-2.494,6.807c0,0,2.904,0.323,2.964,0.47l0.867,2.611h-6.438l-0.709-5.487
		l0.852-4.166c0,0-0.538-1.203-2.426-1.262c0,0-7.463-0.558-9.692-1.467c0,0,3.756-5.487,2.964-7.805c0,0-2.936,7.511-5.868,10.504
		l2.125,6.396l2.628,0.763l0.821,2.523h-6.396c0,0-3.873-12.577-4.106-13.595c0,0-1.438-8.177,1.145-10.056
		c0,0,4.986-1.637,16.383-0.331l1.361,0.47l5.094,11.658L168.643,733z"/>
	<path d="M143.662,731.148l-2.888,6.841c0,0,0.382,5.135,0.792,5.868h6.229l-0.777-2.729l-2.928-0.411l1.584-4.646
		C145.673,736.07,143.703,731.936,143.662,731.148z"/>
</g>
<g>
	<g>
		<path fill="#010101" d="M263.875,147.776c0,0-0.688-9.835-3.709-8.798c0,0-1.294,0.861-1.983,3.105c0,0,3.364,4.225,3.45,5.347
			L263.875,147.776z"/>
		<path fill="#010101" d="M260.711,185.168c0,0.929-0.903,1.682-2.021,1.682s-2.021-0.753-2.021-1.682
			c0-0.932,0.904-1.685,2.021-1.685S260.711,184.236,260.711,185.168z"/>
		<path fill="#010101" d="M270.689,158.988c-1.295-10.263-10.006-10.178-10.006-10.178c-5.521-9.662-8.217-8.452-8.217-8.452
			c-4.398,4.204,3.3,12.548,3.3,12.548c-1.165,2.848-0.453,6.018-0.453,6.018c-18.955,3.946-20.638,17.918-20.638,17.918
			c-2.846-1.485-3.558,1.359-3.558,1.359c-2.521,2.912,0.582,4.336,0.582,4.336c1.1,2.329,3.17,1.034,3.17,1.034
			c2.459,3.882,7.505,3.299,7.505,3.299h10.091l-0.063-3.882c-0.259-1.682-2.264-2.458-2.264-2.458l5.304-0.258
			c1.165,0.129,1.229,1.099,1.229,1.099v3.782l0.295-0.132l3.747,0.041l0.1-4.854c6.942-4.746,4.873-15.873,4.873-15.873
			C271.207,162.955,270.689,158.988,270.689,158.988z"/>
	</g>
	<circle fill="#FFFFFF" cx="262.607" cy="153.232" r="1.125"/>
	<polygon fill="#FFFFFF" points="271.107,160.732 267.732,159.607 270.732,162.107 	"/>
</g>
<g>
	<g>
		<path fill="#010101" d="M67.24,153.997c0,0,1.857-0.756,4.885,0.413c0,0,3.508-2.958,4.54-3.439c0,0,1.242-0.894,1.412,0.757
			c0,0,1.958,11.487-6.708,14.72c0,0-7.843,2.235-10.25-7.859c0,0-0.274-4.731,0.757-7.86c0,0,0.481-1.203,0.757-1.34
			C62.632,149.388,64.901,150.282,67.24,153.997z"/>
		<path fill="#010101" d="M58.856,152.139c0,0-2.27,7.154,2.064,11.764c0,0,3.287,4.54,8.008,2.133l1.761-0.207l-4.472,19.124
			l-4.472-1.1l1.523-7.912h-2.624l-1.79,9.012l-4.196-0.344v-12.382l-3.508-0.344v13.071l-4.61-0.344c0,0-4.126-19.948-3.92-20.294
			c0,0-0.619-4.54,1.857-8.323C44.479,155.992,50.327,148.495,58.856,152.139z"/>
		<path fill="#010101" d="M49.592,152.072c0,0-3.433-3.302,0.276-7.292c0,0,4.397-3.577,8.938,0c0,0,3.21,2.247,3.026-2.202
			c0,0-1.665-2.632-6.841-3.541c0,0-6-1.321-10.585,4.274c0,0-4.403,5.962,0.366,12.75
			C44.772,156.062,49.274,154.502,49.592,152.072z"/>
		<ellipse fill="#010101" cx="63.998" cy="184.3" rx="2.31" ry="2.292"/>
		<ellipse fill="#010101" cx="62.081" cy="174.255" rx="2.31" ry="2.294"/>
		<ellipse fill="#010101" cx="48.867" cy="184.591" rx="2.328" ry="2.31"/>
		<ellipse fill="#010101" cx="56.798" cy="184.369" rx="2.149" ry="2.133"/>
	</g>
	<circle fill="#FFFFFF" cx="65.582" cy="157.482" r="1.5"/>
	<circle fill="#FFFFFF" cx="72.998" cy="157.732" r="1.5"/>
</g>
<g>
	<g>
		<path fill="#010101" d="M142.659,157.346l18.666-0.214l10.097,6.873l-0.815,1.863v17.421h-5.175v-9.259
			c0,0-12.316-0.193-17.76-3.82l-6.539,4.251l-1.909,8.774h-4.727l1.862-12.356c0,0,4.104-3.007,3.771-7.446l-4.344-10.885
			l2.577-2.006L142.659,157.346z"/>
		<path fill="#010101" d="M172.686,161.285l-9.787-6.492l3.962-5.92l-0.668-4.679l3.055-1.192l1.528,4.01l9.786,5.298
			c0,0,2.435,0.812,1.813,3.437l-1.098,2.627c0,0-0.382,1.05-2.102,1.146l-5.729,0.095L172.686,161.285z"/>
		<ellipse fill="#010101" cx="167.793" cy="143.67" rx="1.647" ry="1.359"/>
		<ellipse fill="#010101" cx="137.199" cy="151.665" rx="1.665" ry="1.517"/>
		<path fill="#010101" d="M160.6,154.893c-0.15,0.278-0.497,0.382-0.776,0.232l-24.333-13.104c-0.279-0.15-0.383-0.498-0.233-0.776
			l0.374-0.692c0.149-0.28,0.498-0.382,0.776-0.233l24.333,13.104c0.278,0.149,0.382,0.498,0.233,0.776L160.6,154.893z"/>
		<ellipse fill="#010101" cx="136.859" cy="183.048" rx="2.381" ry="2.291"/>
		<ellipse fill="#010101" cx="168.024" cy="183.181" rx="2.578" ry="2.372"/>
	</g>
	<circle fill="#FFFFFF" cx="174.324" cy="148.982" r="0.875"/>
</g>
<g>
	<g>
		<path fill="#010101" d="M346.462,167.504c0,0,4.326,0.513,6.012,0.073l-2.054,18.848c0,0-0.952,1.247-1.979-0.293L346.462,167.504
			z"/>
		<path fill="#010101" d="M356.141,167.429c0,0,4.913-0.659,5.647-0.952c0,0,1.611,4.474-2.423,9.974c0,0-3.592,3.447-1.903,5.5
			c0,0,1.831,2.127-0.59,2.493c0,0-1.61-0.366-2.565-3.667c0,0-0.659-2.125,1.907-6.967
			C356.215,173.81,357.828,171.61,356.141,167.429z"/>
		<path fill="#010101" d="M342.816,167.283c0,0-4.916-0.659-5.647-0.952c0,0-1.614,4.474,2.42,9.974c0,0,3.595,3.447,1.906,5.5
			c0,0-1.834,2.126,0.586,2.493c0,0,1.614-0.366,2.566-3.667c0,0,0.662-2.127-1.904-6.967
			C342.743,173.664,341.13,171.463,342.816,167.283z"/>
		<path fill="#010101" d="M348.661,165.597c11.865,0.193,17.26-1.898,19.563-3.353c0.346-1.418,0.533-2.897,0.533-4.421
			c0-10.45-8.669-18.921-19.362-18.921s-19.362,8.471-19.362,18.921c0,1.359,0.149,2.687,0.429,3.964
			C335.839,165.871,348.661,165.597,348.661,165.597z"/>
		<path fill="#FFFFFF" d="M351.586,143.009c0,0-14.887-0.88-17.014,14.594c0,0,0.732,0.806,1.172-0.293
			c0,0,4.841-11.074,15.842-13.201C351.586,144.109,352.098,143.229,351.586,143.009z"/>
	</g>
	<path fill="#FFFFFF" d="M330.086,158.539c0,0,21.937,5.907,38.75-0.01l-0.188,1.583c0,0-14,6.917-38.5,0L330.086,158.539z"/>
</g>
<g>
	<g>
		<path fill="#010101" d="M436.467,163.236c0,0-7.359-9.783-0.952-17.056c0,0,11.169-10.564,22.686,1.384
			c0,0,4.589,6.062-1.473,14.634l-8.571,10.044L436.467,163.236z"/>
		<path fill="#010101" d="M457.679,159.773c0,0-5.366,8.138,2.165,10.563c0,0,3.896,0.779,5.716-3.031c0,0,1.644-3.029-1.387-5.627
			c0,0-2.338-2.424,1.126-2.944c0,0,3.724,1.299,4.676,5.888c0,0,1.125,6.841-5.368,10.043c0,0-3.463,1.733-7.88,0.779
			c0,0,3.983,5.975,8.398,4.937c0,0,2.25-0.606,2.424,1.472c0,0-0.347,3.463-6.665,2.424c0,0-6.667-1.731-11.604-8.313
			c0,0-2.164-2.597-4.849-1.559l-3.55-5.887l4.763-6.493l6.407-6.148L457.679,159.773z"/>
		<path fill="#010101" d="M434.42,159.643c0,0,5.368,8.14-2.163,10.563c0,0-3.897,0.779-5.717-3.029c0,0-1.645-3.03,1.386-5.627
			c0,0,2.338-2.426-1.125-2.944c0,0-3.725,1.298-4.677,5.887c0,0-1.125,6.84,5.368,10.044c0,0,3.466,1.731,7.882,0.779
			c0,0-3.984,5.974-8.4,4.935c0,0-2.25-0.606-2.425,1.472c0,0,0.348,3.463,6.668,2.424c0,0,6.668-1.731,11.602-8.313
			c0,0,2.165-2.597,4.851-1.559l3.55-5.887l-4.764-6.493l-6.404-6.148L434.42,159.643z"/>
		<ellipse fill="#010101" cx="446.338" cy="152.673" rx="13.334" ry="11.342"/>
		<circle fill="#FFFFFF" cx="441.575" cy="159.946" r="1.904"/>
		<circle fill="#FFFFFF" cx="450.754" cy="160.465" r="1.732"/>
		<path fill="#FFFFFF" d="M446.349,143.435c0,0-9.528-0.564-10.892,9.343c0,0,0.47,0.517,0.75-0.188c0,0,3.101-7.09,10.142-8.452
			C446.349,144.138,446.679,143.575,446.349,143.435z"/>
	</g>
	<path fill="#FFFFFF" d="M443.177,167.482c0,0,2.25,4.333,5.833,0.333L443.177,167.482z"/>
</g>
<g>
	<g>
		<path fill="#010101" d="M469.227,469.027c0,0-28.857,0.805-30.676,34.733c0,0-10.387-9.104-13.706-4.776l-2.796,4.255
			c0,0,2.76-1.833,6.129,3.461c0,0,5.902,22.709,22.315,12.345l1.105-6.08c0,0,14.268-11.08,7.636-14.623
			c0,0,6.899-3.269,1.456-5.908c0,0,4.315-3.979,1.11-5.644c0,0,6.105-3.869,1.938-5.783c0,0,5.194-3.553,0.279-5.938
			C464.019,475.068,469.313,472.648,469.227,469.027z"/>
		<path fill="#010101" d="M450.891,513.447c0,0,11.836-1.091,18.175,3.61c0,0,2.229,1.528-0.021,4.828c0,0-0.903,1.189-3.431,0.531
			c0,0,1.182,3.096-2.309,4.087c0,0-2.551,0.229-3.312-0.386c0,0-0.265,2.393-2.159,2.611c0,0-1.791,0.84-3.92-4.666
			c0,0-2.714-5.303-4.551-5.541L450.891,513.447z"/>
	</g>
	<circle fill="#FFFFFF" cx="427.235" cy="500.357" r="0.75"/>
</g>
<g>
	<g>
		<path d="M77.937,711.166c0,0,2.458,3.154,1.795,4.674c0,0,5.413-1.052,3.776-2.337C83.509,713.502,80.543,710.932,77.937,711.166z
			"/>
		<path d="M79.732,717.475c0,0,4.859,0.233,4.085,1.636l0.084,3.854c0,0,0.195,0.988-2.084,1.43H78.73c0,0-3.413,0.791-4.691,2.777
			c0,0-1.395,4.205-5.483,5.49c0,0-8.179,4.09-18.576,0l-3.622-1.168c0,0-5.142-1.986-6.192-4.673c0,0-3.038-6.311-1.052-10.282
			c0,0,2.857-8.294,14.021-6.075c0,0,10.516,3.855,11.917,1.869c0,0,6.864-3.388,11.145-0.467c0,0,1.614,1.052,2.537,3.973
			C78.73,715.839,79.102,717.427,79.732,717.475z"/>
		<path d="M64.465,740.257c0,1.032,0.837,1.869,1.869,1.869l0,0c1.032,0,1.869-0.837,1.869-1.869v-8.062
			c0-1.032-0.837-1.869-1.869-1.869l0,0c-1.031,0-1.869,0.837-1.869,1.869V740.257z"/>
		<path d="M42.383,740.257c0,1.032,0.838,1.869,1.869,1.869l0,0c1.033,0,1.87-0.837,1.87-1.869v-10.632
			c0-1.032-0.837-1.869-1.87-1.869l0,0c-1.031,0-1.869,0.837-1.869,1.869V740.257z"/>
		<path d="M40.281,725.537c0,0,1.986,10.748,2.921,11.565l1.752-11.565H40.281z"/>
		<path d="M72.77,732.313c0,0-2.696,2.115-3.632,2.168v6.011c0,0,1.169,1.285,3.271,0L72.77,732.313z"/>
		<path d="M50.445,734.48c0,0-2.688-1.116-3.505-1.232v6.309c0,0,1.985,2.57,3.505,0V734.48z"/>
		<path d="M40.865,715.839c0,0-2.337-0.936-3.739-3.506c0,0-1.519-0.132-1.168,1.161c0,0,1.869,3.279,4.323,3.63L40.865,715.839z"/>
	</g>
	<circle fill="#FFFFFF" cx="74.019" cy="715.794" r="1.125"/>
	<ellipse fill="#FFFFFF" cx="83.748" cy="720.483" rx="1.167" ry="1.333"/>
</g>
<g>
	<g>
		<ellipse cx="180.642" cy="263.271" rx="1.469" ry="1.703"/>
		<ellipse cx="178.838" cy="260.933" rx="1.47" ry="1.703"/>
		<circle cx="176.501" cy="259.029" r="1.736"/>
		<circle cx="173.295" cy="258.362" r="1.736"/>
		<circle cx="170.357" cy="258.161" r="1.736"/>
		<circle cx="167.218" cy="257.961" r="1.736"/>
		<circle cx="164.28" cy="257.694" r="1.736"/>
		<circle cx="161.208" cy="258.429" r="1.736"/>
		<circle cx="158.27" cy="258.963" r="1.736"/>
		<circle cx="155.198" cy="258.763" r="1.736"/>
		<circle cx="152.059" cy="258.161" r="1.736"/>
		<circle cx="148.987" cy="257.227" r="1.736"/>
		<circle cx="146.716" cy="255.758" r="1.736"/>
		<circle cx="144.713" cy="254.422" r="1.736"/>
		<ellipse cx="142.275" cy="253.57" rx="1.703" ry="1.72"/>
		<ellipse cx="139.771" cy="254.505" rx="1.703" ry="1.72"/>
		<ellipse cx="137.567" cy="256.375" rx="1.703" ry="1.854"/>
		<ellipse cx="140.138" cy="266.526" rx="1.702" ry="1.853"/>
		<ellipse cx="141.107" cy="269.097" rx="1.703" ry="1.854"/>
		<ellipse cx="143.01" cy="271.401" rx="1.703" ry="1.853"/>
		<ellipse cx="144.145" cy="274.039" rx="1.703" ry="1.854"/>
		<ellipse cx="145.882" cy="276.176" rx="1.703" ry="1.854"/>
		<ellipse cx="147.785" cy="278.279" rx="1.703" ry="1.854"/>
		<ellipse cx="155.865" cy="279.448" rx="1.703" ry="1.854"/>
		<ellipse cx="158.37" cy="280.05" rx="1.703" ry="1.853"/>
		<ellipse cx="161.008" cy="280.316" rx="1.703" ry="1.854"/>
		<ellipse cx="163.512" cy="280.483" rx="1.735" ry="1.854"/>
		<ellipse cx="166.317" cy="280.517" rx="1.736" ry="1.854"/>
		<ellipse cx="169.021" cy="280.216" rx="1.735" ry="1.854"/>
		<ellipse cx="178.137" cy="276.109" rx="1.735" ry="1.853"/>
		<ellipse cx="179.172" cy="273.004" rx="1.736" ry="1.854"/>
		<ellipse cx="180.141" cy="269.798" rx="1.735" ry="1.854"/>
		<ellipse cx="180.742" cy="266.626" rx="1.736" ry="1.854"/>
		<path d="M137.133,257.794l0.167,1.804c0,0-1.503,3.005-2.438,3.205c0,0-0.601,1.104-0.301,1.804l1.335,0.233
			c0,0-0.167,0.334-0.367,0.434c0,0,0.468,0.635,0.768,0.701l2.305-0.1l4.106-0.435l-0.301-6.945l-4.741-1.603L137.133,257.794z"/>
		<path d="M147.885,279.732c0,0,0.936,0.634,2.338,0.868c0,0,0.835,3.807,0.867,4.141c0,0,0.334,1.836-0.733,2.37
			c0,0-1.335,1.47-1.502,2.204h3.907c0,0,1.102-0.668,0.333-2.938c0,0,0.301-4.741,0.2-5.343c0,0,0.901-0.301,1.202-0.634
			l-0.167-1.604l-6.595-0.668L147.885,279.732z"/>
		<path d="M170.19,280.834c0,0,0.468,0.601,1.401,0.802c0,0,0.401,2.304,0.602,3.038c0,0,0.301,2.237-0.868,2.771l-0.935,1.803
			h3.906c0,0,0.901-1.135,0.367-2.57c0,0-0.066-4.141,0.268-5.51c0,0,0.467-0.802,0.768-0.835c0,0,2.872-0.1,1.87-2.537
			l-7.212,0.367L170.19,280.834z"/>
		<polygon points="169.289,279.999 174.564,278.73 177.169,278.129 180.141,269.798 180.642,263.271 176.501,259.029 
			167.218,257.961 157.936,259.029 151.658,257.828 146.716,255.758 142.275,253.57 137.1,256.092 139.504,261.567 141.374,269.515 
			144.312,274.456 147.718,277.929 153.261,279.465 161.008,280.316 166.417,280.267 		"/>
	</g>
	<circle fill="#FFFFFF" cx="138.928" cy="259.232" r="0.667"/>
</g>
<text transform="matrix(1 0 0 1 433.3562 317.6211)" fill="#010101" font-family="'SegoeUI-SemiBold'" font-size="12">Crab</text>
<g>
	<g>
		<path fill="#010101" d="M452.594,254.019c0,0,0.256-10.29-16.62-7.965c0,0-10.909,2.856-10.055,15.208c0,0,0.98,5.635,4.065,8.444
			l2.275-1.83c0,0-2.926-7.004,2.462-9.788c0,0,3.905-1.499,7.424-0.131c0,0,0.243-4.482,4.724-5.811
			C446.87,252.147,449.536,250.59,452.594,254.019z"/>
		<path fill="#010101" d="M451.802,256.138c0,0-4.166,0.794-5.682-2.016c0,0-2.305,0.879-2.447,3.979
			C443.674,258.101,447.768,259.642,451.802,256.138z"/>
		<path fill="#010101" d="M429.494,270.817c0,0-4.825-0.661-6.354-5.518c0,0-1.179,9.699,8.188,9.364L429.494,270.817z"/>
		<path fill="#010101" d="M431.744,275.889c0,0-6.211,0.809-9.311-2.477c0,0,0.766,6.355,9.989,5.979
			C432.424,279.391,432.624,276.624,431.744,275.889z"/>
		<path fill="#010101" d="M432.928,280.328c0,0-6.586,1.012-8.4,5.494c0,0,6.297-2.668,8.604-1.979L432.928,280.328z"/>
		<g>
			<path fill="#010101" d="M460.772,280.19c0,0,4.396,2.103,8.345-1.112c0,0-4.349,8.749-11.989,3.318L460.772,280.19z"/>
			<path fill="#010101" d="M456.104,283.189c0,0,4.743,4.092,9.138,3.053c0,0-4.135,4.887-11.631-0.501
				C453.611,285.741,454.966,283.319,456.104,283.189z"/>
			<path fill="#010101" d="M452.677,286.246c0,0,4.942,4.467,3.994,9.208c0,0-3.793-5.691-6.099-6.383L452.677,286.246z"/>
		</g>
		<path fill="#010101" d="M460.456,279.152c0,0-3.766-11.024-7.556-13.574c0,0-3.979-4.02-10.927-2.331c0,0-8.4,3.923-11.297,7.296
			c0,0,3.679,8.171,3.649,13.504c0,0,6.259,5.331,13.909,4.953c0,0,1.889-0.533,5.289-4.541
			C453.525,284.458,459.13,279.383,460.456,279.152z"/>
		<path fill="#010101" d="M460.705,276.4l0.529,2.776c0,0,11.01-3.193,7.864-14.713c0,0-5.816-11.691-13.606-4.915
			c0,0,7.503-1.626,4.172,5.648C459.664,265.197,467.707,270.853,460.705,276.4z"/>
		<path fill="#010101" d="M459.519,262.536c0,0-3.479-0.624-4.074-1.432c0,0,0.029,1.999,3.298,4.025L459.519,262.536z"/>
	</g>
	<circle fill="#FFFFFF" cx="444.135" cy="267.107" r="1.125"/>
	<circle fill="#FFFFFF" cx="450.51" cy="268.982" r="1.125"/>
</g>
<g>
	<g>
		<path fill="#010101" d="M329.104,606.541c0,0-2.357,3.445-2.927,3.835c0,0-1.302,0.967-0.462,1.354c0,0,2.555,1.146,6.633-2.83
			L329.104,606.541z"/>
		<path fill="#010101" d="M346.839,605.483c0,0-3.073-0.133-4.868,0.711c0,0,1.745,4.532,5.533,5.344c0,0,1.11,0.56,1.399-0.322
			c0,0-0.216-0.738-0.81-1.163C348.094,610.052,346.494,608.582,346.839,605.483z"/>
		<path fill="#010101" d="M365.716,615.041c0,0-2.709,1.452-3.099,3.935c0,0,1.147-0.823,2.35-0.916c0,0,1.307,0.169,2.522-0.562
			c0,0,0.521,1.45,2.768,2.601c0,0,2.517,1.373,3.138,2.543c0,0,0.843-4.909-5.269-8.288L365.716,615.041z"/>
		<path fill="#010101" d="M345.98,594.594c0,0,6.347-4.486,10.334-4.038c0,0,1.978,0.11,0.938,1.435c0,0-3.67,1.538-3.811,3.89
			L345.98,594.594z"/>
		<path fill="#010101" d="M368.258,614.782c0,0-3.528-15.371-14.813-18.902c0,0-15.037-5.244-23.16,4.79c0,0-1.97,2.706-1.18,5.871
			l2.453,2.495l0.791-0.138c0,0,6.372-1.074,9.622-2.704c0,0,12.919-4.071,23.745,8.847l1.74,0.95L368.258,614.782z"/>
	</g>
	<circle fill="#FFFFFF" cx="331.473" cy="604.107" r="1"/>
</g>
<g>
	<path d="M238.904,719.156c-0.464-0.888-0.642-1.867-0.642-2.768c0.001-0.382,0.032-0.749,0.089-1.092
		c-0.869,0.572-2.389,1.309-4.669,1.524c-1.515,0.144-2.46,0.184-3.005,0.188c0.154,0.231,0.387,0.521,0.715,0.812
		c0.749,0.659,1.987,1.336,4.04,1.338C236.606,719.16,237.813,719.158,238.904,719.156z"/>
	<path d="M260.053,723.029c-5.128-0.001-9.007,2.239-10.313,3.158c-1.308,0.918-1.827,1.438-1.827,1.438
		c0-0.001,1.226-2.712,1.47-3.318c0.781-1.934,1.198-3.434,1.536-5.397c0.111-0.646,0.165-1.26,0.165-1.84
		c-0.033-3.729-2.15-5.976-6.312-6.011c-0.065,0-0.133,0-0.201,0.002c-3.03,0.062-4.568,1.791-5.23,3.259
		c-0.22,0.487-0.387,1.25-0.386,2.07c-0.001,1.053,0.271,2.201,0.978,3.091c0.709,0.888,1.854,1.559,3.738,1.652l0.577,0.027
		l-0.296,0.496c-0.002,0.002-1.147,1.92-2.257,3.646c-2.702,4.218-2.988,6.274-3.251,8.255c-0.153,1.172-0.186,2.315-0.186,3.039
		c0,0.174,0.003,0.324,0.005,0.443h33.391l7.023-8.377C275.545,726.939,267.464,723.023,260.053,723.029z"/>
</g>
<path d="M65.904,878.355l2.602-0.021v-8.329c0.292,0.078,0.6,0.136,0.919,0.174v8.155l0.568,0.008v0.92h-0.405h-3.201"/>
<path d="M74.213,879.262h-3.607v-0.92l0.567-0.008v-8.156c0.32-0.037,0.627-0.095,0.919-0.174v8.33l2.603,0.021"/>
<path d="M71.566,853.758c0-2.475,0.153-4.422,3.522-4.58l-2.316-1.421c0,0,0.032-1.569-1.138-2.181l0.965-1.669
	c0.289,0.088,0.61-0.03,0.768-0.305c0.187-0.317,0.076-0.727-0.243-0.909c-0.318-0.186-0.727-0.075-0.91,0.243
	c-0.158,0.273-0.1,0.61,0.121,0.817l-0.981,1.702c-0.228-0.076-0.486-0.122-0.791-0.122c-0.016,0-0.027,0.001-0.041,0.002v-2.046
	c0.295-0.069,0.515-0.332,0.515-0.647c0-0.366-0.299-0.666-0.667-0.666s-0.667,0.3-0.667,0.666c0,0.316,0.22,0.579,0.515,0.647
	v2.061c-0.313,0.029-0.574,0.104-0.803,0.204l-1.039-1.801c0.221-0.207,0.278-0.545,0.12-0.817c-0.184-0.318-0.591-0.429-0.91-0.243
	c-0.318,0.184-0.428,0.592-0.244,0.909c0.158,0.273,0.479,0.393,0.77,0.305l1.036,1.792c-0.842,0.544-1.005,1.59-1.005,2.373
	c0,2.157,0.891,3.211,0.891,5.686c0,4.422-4.61,5-4.61,10.195c0,0.299,0.021,0.588,0.049,0.872l-9.595,4.495
	c-3.946-3.946-6.389-9.4-6.389-15.425c0-6.023,2.441-11.477,6.389-15.425c3.947-3.946,9.401-6.389,15.425-6.389
	c6.024,0,11.479,2.441,15.426,6.389c3.946,3.948,6.389,9.4,6.389,15.425c0,6.023-2.441,11.479-6.389,15.425l-9.562-5.009
	c0.005-0.12,0.015-0.236,0.015-0.358C76.177,858.758,71.566,858.18,71.566,853.758z"/>
<g>
	<path d="M346.153,708.099l7.312-4.094c-2.177-1.299-4.677-1.957-7.312-1.957c-2.636,0-5.136,0.658-7.311,1.957L346.153,708.099z"/>
	<path d="M358.111,708.582c0.241,0.719,0.374,1.486,0.374,2.287c0,3.976-3.224,7.199-7.199,7.199c-1.896,0-3.619-0.733-4.902-1.932
		l1.737-1.738l-1.968-1.969l-1.969,1.969l1.738,1.738c-1.285,1.197-3.01,1.932-4.903,1.932c-3.976,0-7.199-3.225-7.199-7.199
		c0-0.801,0.133-1.568,0.373-2.287c-0.292,0.4-4.315,6.107-4.097,15.216c0.203,8.386,3.84,13.476,3.84,13.476l0.531-2.925
		c2.594,5.646,6.642,10.644,11.686,14.203c5.043-3.561,9.091-8.559,11.686-14.203l0.53,2.925c0,0,3.638-5.09,3.841-13.476
		C362.429,714.69,358.403,708.982,358.111,708.582z"/>
	<circle cx="341.705" cy="710.374" r="1.729"/>
	<circle cx="350.602" cy="710.374" r="1.729"/>
</g>
<g>
	<path d="M443.127,708.804c-0.087-0.599-0.179-1.227-0.282-1.937c-0.04-0.281-0.097-0.551-0.157-0.815l4.045,1.345L443.127,708.804z
		"/>
	<path d="M442.279,747.766c1.618,0,3.415,0.102,3.969,1.762h-8.485v-2.646c0.874-0.051,1.715-0.181,2.509-0.406
		C440.486,746.921,441.057,747.766,442.279,747.766z"/>
	<path d="M435.731,749.527h-8.486c0.555-1.66,2.352-1.762,3.97-1.762c1.289,0,1.853-0.938,2.041-1.357
		c0.786,0.24,1.616,0.388,2.477,0.455L435.731,749.527L435.731,749.527z"/>
	<path d="M426.844,731.632c0.211-0.068,0.421-0.149,0.63-0.237c-0.132,1.238-0.195,2.385-0.195,3.44c0,4.403,1.094,7.255,2.813,9.01
		c1.719,1.755,4.104,2.455,6.798,2.457c2.676-0.002,4.985-0.69,6.639-2.414s2.688-4.528,2.688-8.856
		c0-1.112-0.069-2.324-0.213-3.643c0.21,0.088,0.422,0.169,0.635,0.239c2.851,0.941,5.782,0.33,5.782,0.33l-8.261-16.148
		l-0.889-1.734c-0.098-0.642-0.19-1.26-0.272-1.843c-0.261-1.84-0.452-3.229-0.756-5.275c-0.521-3.399-2.57-5.418-5.506-5.43
		c-1.432,0.004-2.517,0.409-3.374,1.267c-0.855,0.859-1.491,2.204-1.899,4.106c-0.359,1.666-0.661,3.315-0.987,5.338
		c-0.1,0.618-0.207,1.274-0.319,1.961l-0.907,1.772l-8.178,15.986C421.072,731.958,423.996,732.569,426.844,731.632z
		 M430.148,735.277c0.277-5.534,1.44-12.286,1.82-14.183c0.379-1.896,0.91-5.31,4.626-5.385c3.717,0.075,4.551,3.488,4.93,5.385
		c0.38,1.896,1.543,8.647,1.82,14.183c0.276,5.534-1.973,8.343-6.6,8.343C432.12,743.62,429.872,740.813,430.148,735.277z"/>
</g>
<circle fill="#FFFFFF" cx="805.878" cy="649.364" r="1.042"/>
<path d="M183.498,837.25c0,0-4.162-3.695-9.848-4.557c-3.322-0.502-7.605,0.037-10.472,3.123c-2.711,2.92-3.454,6.87-1.984,11.575
	c1.241,3.974,5.392,6.688,7.605,11.316c1.859,3.891,1.986,10.041-0.146,13.082c0,0-0.681,1.067-2.351,2.074
	c3.095-4.076,3.246-9.865,1.052-14.781c-1.253-2.808-5.217-6.414-8.328-7.945c-2.241-1.102-5.654-2.469-5.654-2.469
	c-1.205-2.781-2.978-4.275-4.833-4.971c0.616-3.22-0.964-5.312-0.964-5.312c-3.223,0.978-4.036,3.724-4.24,5.119
	c-0.849,0.225-1.585,0.547-2.128,0.891c-4.375,2.773-4.228,8.505-4.228,8.505c0.097,5.2,7.349,2.5,7.349,2.5
	c1.169,0.756,2.138,1.747,2.841,2.594c-1.461,0.764-3.156,2.348-3.958,5.231c-0.293,1.056,0.325,2.15,1.381,2.443
	c1.057,0.293,2.149-0.326,2.442-1.381c0.606-2.182,1.854-2.771,2.273-2.908c0.019,0,0.041,0,0.063,0
	c0.554,1.043,0.994,2.012,1.34,2.863c-4.758,3.108-2.456,9.192-0.827,12.305h-2.229c-0.854,0-1.544,0.691-1.544,1.543
	c0,0.854,0.69,1.545,1.544,1.545h6.959c5.973,0,8.508-0.004,8.508-0.004s16.063,0.143,20.438-12.291
	C189.568,850.263,173.944,844.892,183.498,837.25z"/>
<g>
	<path d="M258.68,839.645c0.789,1.884,2.254,3.895,4.954,4.575c-0.508-0.297-0.73-0.745-0.911-1.336
		c-0.331-1.087,0.322-2.007,0.056-3.26c-0.248-1.162-0.67-1.408-1.161-1.966c-0.438-0.499-0.965-1.289-0.938-2.535
		c0.071-3.452,3.877-3.508,4.973-3.452c1.095-0.056,4.898,0,4.972,3.452c0.026,1.246-0.5,2.036-0.938,2.535
		c-0.49,0.558-0.912,0.804-1.16,1.966c-0.269,1.253,0.387,2.173,0.055,3.26c-0.186,0.609-0.416,1.067-0.956,1.363
		c4.036-0.778,5.262-5.548,5.262-5.548c0.468-1.501,1.082-4.65-0.592-7.787c-1.915-3.592-5.488-3.61-6.645-3.61
		s-4.605,0.088-6.646,3.61C256.619,835.03,258.728,839.62,258.68,839.645z"/>
	<circle cx="267.865" cy="834.994" r="0.873"/>
	<circle cx="263.438" cy="834.994" r="0.873"/>
	<circle cx="266.326" cy="839.792" r="0.497"/>
	<circle cx="264.702" cy="839.792" r="0.497"/>
	<path d="M274.176,833.354l-0.417,5.933c1.348-0.046,2.43-1.364,2.43-2.991C276.188,834.838,275.322,833.626,274.176,833.354z"/>
	<path d="M257.082,833.354l0.417,5.933c-1.347-0.046-2.429-1.364-2.429-2.991C255.07,834.838,255.936,833.626,257.082,833.354z"/>
	<path d="M282.377,854.299c-2.593-1.24-4.654,0.312-4.654,0.312c0.974-9.494-2.762-13.323-4.418-14.533
		c-0.94,2.358-3.034,5.302-7.632,5.302c-4.454,0-6.671-2.696-7.77-5.229c-1.7,1.284-5.278,5.145-4.322,14.461
		c0,0-2.063-1.552-4.655-0.312c-2.381,1.138-2.967,5-1.034,8.588l3.896,9.346c0,0-0.723,0.214-1.449,0.481
		c-0.907,0.338-1.854,0.82-1.759,1.76c0,0,0,0.828,1.552,0.828c0.246,0,0.803,0,1.557,0v0.008H279v-0.008c1.064,0,1.861,0,2.17,0
		c1.553,0,1.553-0.828,1.553-0.828c0.096-0.938-0.851-1.422-1.759-1.76c-0.728-0.269-1.448-0.481-1.448-0.481l3.896-9.346
		C285.343,859.299,284.757,855.438,282.377,854.299z M275.224,854.509c0.018-0.049,0.029-0.084,0.037-0.104
		c0.086-0.236,0.347-0.359,0.584-0.274c0.235,0.086,0.357,0.347,0.272,0.584c-0.05,0.141-5.045,13.977-5.55,16.74
		c-0.242,1.321-0.514,2.363-0.949,3.104h-1.149c0.629-0.58,0.951-1.899,1.202-3.269
		C270.173,868.549,274.728,855.884,275.224,854.509z M261.292,853.357c0.247-0.052,0.488,0.106,0.54,0.353
		c0,0,2.63,12.615,3.517,16.864c0.896-4.05,3.718-16.791,3.718-16.791c0.055-0.245,0.298-0.4,0.543-0.348
		c0.229,0.052,0.378,0.268,0.353,0.494c-0.002,0.018-0.002,0.033-0.006,0.051l-3.991,18.025c-0.004,0.017-0.009,0.033-0.015,0.049
		c-0.001,0.006-0.109,0.331-0.158,0.756c0.013,0.134,0.021,0.275,0.021,0.428c0,0.119-0.006,0.242-0.019,0.365
		c0.026,0.173,0.074,0.342,0.151,0.495c0.099,0.199,0.256,0.344,0.441,0.461h-1.972c0.107-0.093,0.204-0.196,0.274-0.327
		c0.433-0.803,0.067-2.031,0.063-2.045c-0.003-0.013-0.007-0.024-0.01-0.038l-3.806-18.253c-0.003-0.017-0.004-0.032-0.005-0.049
		C260.911,853.62,261.063,853.406,261.292,853.357z M255.473,853.942c0.237-0.078,0.494,0.054,0.572,0.293
		c0.007,0.018,0.018,0.05,0.03,0.094c0.435,1.341,4.576,14.207,4.985,16.972c0.197,1.336,0.463,2.635,1.035,3.26h-1.095
		c-0.407-0.756-0.646-1.801-0.843-3.127c-0.412-2.779-4.936-16.776-4.98-16.918C255.102,854.276,255.232,854.019,255.473,853.942z"
		/>
</g>
<circle fill="#FFFFFF" cx="141.834" cy="848.232" r="1.334"/>
<rect x="64.875" y="878.107" width="10.906" height="1.155"/>
<text transform="matrix(1 0 0 1 137.8083 81.0078)" font-family="'MyriadPro-Regular'" font-size="72">Wild Life</text>
<text transform="matrix(1 0 0 1 428.3923 894.9092)" font-family="'MyriadPro-Regular'" font-size="12">Ant</text>
<text transform="matrix(1 0 0 1 60.3821 1021.6533)" font-family="'MyriadPro-Regular'" font-size="12">Bug</text>
<text transform="matrix(1 0 0 1 150.7825 1023.2266)" font-family="'MyriadPro-Regular'" font-size="12">Bee</text>
<text transform="matrix(1 0 0 1 342.6589 893.375)" font-family="'MyriadPro-Regular'" font-size="12">Fly</text>
<path d="M370.861,851.075c-0.922-0.875-2.074-1.458-3.078-1.912l-0.055-0.021c-1.527-0.455-2.688-1.505-3.914-2.615
	c-0.633-0.574-1.287-1.167-1.998-1.669c-1.82-1.55-4.09-2.149-6.285-2.729c-0.385-0.102-0.775-0.205-1.162-0.313
	c-0.262-0.324-0.508-0.57-0.738-0.714c-0.063-0.039-0.123-0.07-0.182-0.095c-0.018-0.125-0.043-0.261-0.074-0.402
	c2.061-1.927,2.342-4.655,2.613-7.303c0.096-0.924,0.186-1.797,0.348-2.631c1.068-2.807,2.504-5.84,5.029-7.12
	c0.213-0.107,0.297-0.366,0.189-0.578c-0.107-0.213-0.367-0.297-0.578-0.189c-2.799,1.418-4.33,4.646-5.459,7.615l-0.012,0.034
	l-0.008,0.035c-0.174,0.885-0.271,1.831-0.365,2.746c-0.24,2.329-0.488,4.726-2.031,6.438c-0.373-1.071-1.006-2.316-1.811-3.329
	c0.371-0.093,0.723-0.209,1.049-0.351c0.947-0.413,0.488-1.466-0.238-2.739c0.344-0.34,0.563-0.826,0.563-1.368
	c0-1.027-0.777-1.86-1.738-1.86c-0.182,0-0.357,0.03-0.523,0.086c-0.664-1.359-1.006-1.875-2.053-1.003
	c-0.934-1.099-1.406-0.403-2.021,0.848c-0.154-0.048-0.316-0.074-0.484-0.074c-0.959,0-1.736,0.833-1.736,1.86
	c0,0.484,0.174,0.924,0.455,1.255c-0.975,1.411-1.67,2.622,0.629,3.094c-0.658,0.771-1.213,1.712-1.621,2.616
	c-0.561-1.293-1.426-2.403-2.27-3.484c-0.988-1.267-1.922-2.463-2.402-3.922l-0.016-0.042c-0.168-0.372-0.215-0.791-0.268-1.234
	c-0.051-0.449-0.105-0.914-0.291-1.376c-0.539-1.267-1.342-2.37-2.186-3.482l-0.041-0.047c-0.225-0.222-0.471-0.413-0.707-0.599
	c-0.402-0.314-0.781-0.61-1.014-1.011c-0.119-0.206-0.383-0.276-0.588-0.156c-0.207,0.119-0.277,0.383-0.156,0.589
	c0.314,0.544,0.779,0.906,1.227,1.257c0.221,0.172,0.428,0.334,0.611,0.513c0.803,1.06,1.564,2.107,2.059,3.266
	c0.139,0.347,0.184,0.734,0.23,1.146c0.057,0.482,0.113,0.98,0.326,1.468c0.529,1.593,1.549,2.898,2.535,4.162
	c1.047,1.342,2.037,2.613,2.475,4.187c-0.152,0.483-0.248,0.922-0.277,1.272c-0.17-0.01-0.35,0.039-0.543,0.159
	c-0.139,0.086-0.281,0.209-0.432,0.362c-0.291,0.08-0.584,0.158-0.873,0.234c-2.195,0.58-4.465,1.18-6.287,2.729
	c-0.709,0.502-1.363,1.095-1.996,1.669c-1.229,1.11-2.387,2.16-3.914,2.615l-0.055,0.021c-1.004,0.454-2.156,1.037-3.08,1.913
	c-0.172,0.163-0.18,0.437-0.016,0.608c0.086,0.09,0.199,0.135,0.313,0.135c0.107,0,0.215-0.04,0.297-0.119
	c0.82-0.778,1.836-1.297,2.816-1.74c1.699-0.516,2.979-1.674,4.217-2.794c0.619-0.561,1.26-1.141,1.932-1.615l0.031-0.024
	c1.621-1.386,3.715-1.97,5.758-2.51c-0.496,0.762-1.021,1.733-1.547,2.792c-0.383,0.224-0.719,0.501-1.045,0.773
	c-0.275,0.229-0.533,0.445-0.814,0.624l-0.033,0.023c-2.172,1.688-3.498,3.539-3.943,5.504c-0.74,1.867-1.906,3.706-3.471,5.467
	c-0.123,0.108-0.252,0.212-0.391,0.322c-0.379,0.305-0.771,0.62-1.064,1.065c-0.131,0.199-0.074,0.467,0.123,0.597
	c0.074,0.048,0.156,0.071,0.236,0.071c0.141,0,0.277-0.069,0.361-0.195c0.217-0.332,0.541-0.592,0.883-0.866
	c0.146-0.117,0.297-0.237,0.443-0.367l0.035-0.035c1.648-1.853,2.879-3.795,3.658-5.773l0.02-0.065
	c0.391-1.771,1.609-3.464,3.623-5.031c0.201-0.129,0.387-0.271,0.568-0.417c-1.18,2.54-2.275,5.194-2.932,6.488
	c-2.73,5.373-3.064,15.037,0.172,16.682c2.699,1.371,7.033-3.269,9.98-7.963c0.641,0.755,1.367,1.207,2.17,1.207
	c0.795,0,1.541-0.437,2.219-1.168c2.941,4.595,7.154,9.019,9.799,7.676c3.234-1.645,2.902-11.309,0.172-16.683
	c-0.494-0.972-1.236-2.713-2.074-4.596c0.154,0.144,0.307,0.288,0.459,0.432c0.217,0.204,0.434,0.408,0.648,0.609
	c0.859,0.925,1.412,2.049,1.998,3.238c0.678,1.379,1.379,2.805,2.6,3.895c0.426,0.418,0.879,0.819,1.316,1.207
	c1.102,0.974,2.143,1.895,2.834,3.12c0.08,0.14,0.227,0.219,0.377,0.219c0.07,0,0.145-0.018,0.211-0.056
	c0.207-0.117,0.281-0.38,0.164-0.587c-0.764-1.352-1.908-2.364-3.016-3.343c-0.432-0.382-0.879-0.777-1.289-1.182l-0.016-0.016
	c-1.102-0.979-1.736-2.271-2.41-3.639c-0.588-1.197-1.197-2.436-2.148-3.456l-0.021-0.021c-0.219-0.204-0.438-0.409-0.656-0.616
	c-0.637-0.601-1.281-1.207-1.949-1.784c-0.701-1.507-1.43-2.968-2.111-4.074c0.063,0.017,0.125,0.033,0.186,0.049
	c2.107,0.557,4.289,1.132,5.963,2.564l0.031,0.024c0.672,0.475,1.313,1.055,1.932,1.615c1.238,1.12,2.518,2.278,4.217,2.794
	c0.979,0.443,1.996,0.962,2.816,1.74c0.082,0.079,0.189,0.118,0.297,0.118c0.113,0,0.227-0.045,0.313-0.134
	C371.041,851.512,371.035,851.239,370.861,851.075z M345.193,845.108c-0.033-0.079-0.066-0.158-0.1-0.239
	c0.086,0.062,0.174,0.12,0.262,0.177C345.302,845.066,345.248,845.087,345.193,845.108z"/>
<path id="ant-shape" d="M415.052,833.159c-0.436,0.357,3.069,4.793,3.286,5.051c2.994,3.583,5.957,3.706,6.324,4.24
	c0.369,0.532,2.135,2.31,5.275,2.832c0.012,0.817,0.059,1.589,0.143,2.321c-1.932-0.531-4.105-0.987-5.322-0.984
	c-1.283-0.003-5.625,1.21-6.402,1.573c-0.273,0.129-5.235,0.003-5.235,0.544c0,0.546,4.94,0.747,5.146,0.471
	c1.793,0.286,6.871-0.643,7.41-0.546c0.541,0.102,4.701,1.312,4.73,1.317c0.313,1.437,0.766,2.22,1.305,3.178
	c-2.066-0.061-5.775,1.985-7.846,4.055c-1.717,1.718-4.58,4.495-5.012,5.108c-1.615,2.282-0.893,9.421,0.004,9.421
	c0.703,0-0.98-6.391,0.637-8.674c0.465-0.657,5.668-4.21,6.275-4.907c0.607-0.696,3.832-1.693,5.184-2.702
	c-1.361,0.88-2.291,2.255-2.291,4.147c0,7.027,3.666,9.859,6.42,9.892c0,0,0.004,0.01,0.01,0.01s0.012,0,0.018,0s0.012,0,0.018,0
	s0.012,0,0.02,0c2.75-0.036,6.398-2.874,6.398-9.89c0.004-1.763-0.811-3.087-2.018-3.97c1.469,0.939,4.348,1.861,4.92,2.517
	c0.609,0.693,5.789,4.246,6.258,4.906c1.619,2.28-0.061,8.68,0.648,8.68c0.889,0,1.615-7.142,0-9.424
	c-0.436-0.609-3.295-3.385-5.012-5.103c-2.072-2.072-5.775-4.117-7.844-4.055c0.537-0.958,0.986-1.763,1.303-3.2
	c0.027-0.004,4.186-1.195,4.729-1.295c0.545-0.099,5.619,0.832,7.416,0.544c0.201,0.279,5.145,0.074,5.141-0.469
	c0.004-0.543-4.973-0.427-5.246-0.556c-0.775-0.366-5.096-1.576-6.381-1.576c-1.217,0.003-3.408,0.459-5.34,0.984
	c0.084-0.727,0.146-1.498,0.158-2.315c3.143-0.528,4.91-2.303,5.273-2.835c0.369-0.531,3.334-0.654,6.328-4.243
	c0.213-0.255,3.721-4.693,3.281-5.048c-0.512-0.418-3.727,3.721-3.855,4.084c-0.871,0.433-5.008,3.189-5.508,3.388
	c-0.502,0.195-3.023,1.096-5.705,2.702c-0.412-1.57-1.447-2.636-2.715-3.201c1.75-0.003,3.023-0.345,3.023-2.273
	c0-2.107-0.404-4.051-1.086-5.609c1.865-0.971,3.215-2.009,3.621-2.156c0.406-0.153,0.563-0.712-0.207-2.123
	c-1.268-2.318-2.641-4.328-2.938-4.217c-0.297,0.117,1.09,4.634,2.279,5.607c-1.408,0.249-2.334,0.705-3.508,1.52
	c-0.924-1.399-2.113-2.24-3.426-2.262c-0.004-0.003-0.006-0.012-0.01-0.009c-0.012,0-0.027-0.003-0.039-0.003
	c-1.314,0.018-2.527,0.87-3.449,2.273c-1.178-0.812-2.098-1.279-3.502-1.532c1.189-0.967,2.586-5.48,2.287-5.592
	c-0.297-0.111-1.678,1.883-2.945,4.201c-0.771,1.415-0.604,1.985-0.197,2.133c0.408,0.15,1.76,1.188,3.623,2.159
	c-0.684,1.556-1.09,3.505-1.09,5.612c0,1.922,1.273,2.271,3.021,2.271c-1.264,0.568-2.301,1.634-2.711,3.198
	c-2.682-1.606-5.217-2.495-5.715-2.693c-0.502-0.195-4.637-2.974-5.508-3.405C418.776,836.871,415.569,832.738,415.052,833.159z"/>
<path d="M81.537,974.63c-0.84,0-1.6-0.577-1.799-1.432c-0.227-0.986,0.383-1.973,1.367-2.209c0.279-0.073,5.971-1.669,5.971-11.129
	c0-1.021,0.826-1.846,1.848-1.846c1.02,0,1.846,0.825,1.846,1.846c0,12.541-8.455,14.64-8.816,14.723
	C81.814,974.615,81.674,974.63,81.537,974.63z"/>
<path d="M90.769,996.783c-1.021,0-1.846-0.825-1.846-1.846c0-8.712-8.934-9.217-9.314-9.232c-1.02-0.047-1.809-0.909-1.762-1.928
	c0.045-1.019,0.928-1.828,1.928-1.762c4.441,0.202,12.84,3.161,12.84,12.922C92.615,995.958,91.789,996.783,90.769,996.783z"/>
<path d="M92.615,980.168H81.539c-1.021,0-1.848-0.825-1.848-1.846s0.826-1.847,1.848-1.847h11.076c1.02,0,1.846,0.826,1.846,1.847
	S93.635,980.168,92.615,980.168z"/>
<path d="M59.385,974.63c-0.137,0-0.275-0.015-0.414-0.047c-0.361-0.083-8.816-2.182-8.816-14.723c0-1.021,0.824-1.846,1.846-1.846
	c1.02,0,1.846,0.825,1.846,1.846c0,9.492,5.73,11.066,5.975,11.129c0.979,0.251,1.588,1.246,1.348,2.229
	C60.963,974.062,60.215,974.63,59.385,974.63z"/>
<path d="M50.154,996.783c-1.021,0-1.848-0.825-1.848-1.846c0-9.761,8.398-12.72,12.842-12.922c0.938-0.066,1.879,0.743,1.926,1.762
	c0.045,1.017-0.74,1.879-1.758,1.928c-0.967,0.05-9.316,0.737-9.316,9.232C52,995.958,51.174,996.783,50.154,996.783z"/>
<path d="M59.385,980.168H48.306c-1.02,0-1.846-0.825-1.846-1.846s0.826-1.847,1.846-1.847h11.078c1.02,0,1.846,0.826,1.846,1.847
	S60.404,980.168,59.385,980.168z"/>
<path d="M72.306,994.299c7.092-2.01,12.578-9.544,12.578-17.823c0-11.479-1.469-3.322-14.424-3.322
	c-13.512,0-14.422-9.228-14.422,3.322c0,8.279,5.486,15.813,12.576,17.823"/>
<g>
	<ellipse cx="70.288" cy="958.015" rx="7.212" ry="5.192"/>
</g>
<path d="M81.191,963.553c0,4.907-2.436,7.038-10.73,7.038s-10.73-2.131-10.73-7.038s5.824-7.038,10.73-7.038
	C75.369,956.515,81.191,958.646,81.191,963.553z"/>
<circle fill="#FFFFFF" cx="64.546" cy="978.087" r="2.529"/>
<circle fill="#FFFFFF" cx="76.713" cy="978.919" r="2.529"/>
<circle fill="#FFFFFF" cx="70.88" cy="988.753" r="2.529"/>
<g>
	<g>
		<path d="M163.013,968.93c0,0,13.619-5.64,17.188-1.579c3.568,4.062,3.367,10.927-4.316,9.299
			c-7.682-1.628-13.979-5.896-15.004-7.033"/>
		<path d="M153.859,968.93c0,0-13.619-5.64-17.188-1.579c-3.568,4.062-3.367,10.927,4.316,9.299
			c7.682-1.628,13.979-5.896,15.004-7.033"/>
		<circle cx="158.546" cy="963.633" r="5.302"/>
		<path d="M157.627,991.105c0.148,0.687,1.113,5.268,1.113,5.268l0.723-5.268"/>
		<circle cx="158.546" cy="980.616" r="9.214"/>
		<path d="M155.187,958.032c-1.471,0.598-3.146-0.11-3.742-1.581c-0.479-1.177,0.088-2.518,1.264-2.995
			c0.941-0.382,2.014,0.071,2.396,1.012c0.307,0.753-0.057,1.611-0.809,1.917c-0.604,0.245-1.289-0.045-1.535-0.647
			c-0.195-0.482,0.037-1.031,0.52-1.227c0.385-0.157,0.824,0.028,0.98,0.414c0.125,0.309-0.023,0.66-0.332,0.785
			c-0.246,0.101-0.527-0.019-0.627-0.266c-0.08-0.197,0.014-0.422,0.211-0.502"/>
		<path d="M161.906,958.032c1.469,0.598,3.141-0.11,3.738-1.581c0.477-1.177-0.09-2.518-1.264-2.995
			c-0.939-0.382-2.01,0.071-2.393,1.012c-0.305,0.753,0.057,1.611,0.809,1.917c0.602,0.245,1.287-0.045,1.531-0.647
			c0.195-0.482-0.037-1.031-0.518-1.227c-0.385-0.157-0.824,0.028-0.98,0.414c-0.125,0.309,0.023,0.66,0.332,0.785
			c0.246,0.101,0.527-0.019,0.627-0.266c0.08-0.197-0.016-0.422-0.211-0.502"/>
	</g>
	<path fill="#FFFFFF" d="M150.158,974.018c0,0,9.316,3.415,15.635-0.35l1.092,1.895c0,0-7.344,5.246-17.633,0.314L150.158,974.018z"
		/>
	<path fill="#FFFFFF" d="M147.594,981.119c0,0,12.779,4.685,21.445-0.479l1.498,2.599c0,0-10.074,7.196-24.188,0.432
		L147.594,981.119z"/>
</g>
</svg>
