<svg width="178" height="11" xmlns="http://www.w3.org/2000/svg">
 <g>
  <title>Layer 1</title>
  <g id="svg_1">
   <rect id="svg_2" height="11" width="67" fill="#FF1D25" y="0" x="0"/>
   <rect id="svg_3" height="11" width="67" fill="#FF1E25" y="0" x="1"/>
   <rect id="svg_4" height="11" width="66" fill="#FF2025" y="0" x="2"/>
   <rect id="svg_5" height="11" width="66" fill="#FF2125" y="0" x="3"/>
   <rect id="svg_6" height="11" width="65" fill="#FF2325" y="0" x="4"/>
   <rect id="svg_7" height="11" width="65" fill="#FF2425" y="0" x="5"/>
   <rect id="svg_8" height="11" width="64" fill="#FF2624" y="0" x="6"/>
   <rect id="svg_9" height="11" width="64" fill="#FF2724" y="0" x="7"/>
   <rect id="svg_10" height="11" width="63" fill="#FF2924" y="0" x="8"/>
   <rect id="svg_11" height="11" width="63" fill="#FF2A24" y="0" x="9"/>
   <rect id="svg_12" height="11" width="62" fill="#FF2C24" y="0" x="10"/>
   <rect id="svg_13" height="11" width="62" fill="#FF2D24" y="0" x="11"/>
   <rect id="svg_14" height="11" width="61" fill="#FF2E24" y="0" x="12"/>
   <rect id="svg_15" height="11" width="61" fill="#FF3024" y="0" x="13"/>
   <rect id="svg_16" height="11" width="60" fill="#FF3124" y="0" x="14"/>
   <rect id="svg_17" height="11" width="60" fill="#FF3324" y="0" x="15"/>
   <rect id="svg_18" height="11" width="59" fill="#FF3424" y="0" x="16"/>
   <rect id="svg_19" height="11" width="59" fill="#FF3624" y="0" x="17"/>
   <rect id="svg_20" height="11" width="58" fill="#FF3723" y="0" x="18"/>
   <rect id="svg_21" height="11" width="58" fill="#FF3923" y="0" x="19"/>
   <rect id="svg_22" height="11" width="57" fill="#FF3A23" y="0" x="20"/>
   <rect id="svg_23" height="11" width="56" fill="#FF3C23" y="0" x="21"/>
   <rect id="svg_24" height="11" width="56" fill="#FF3D23" y="0" x="22"/>
   <rect id="svg_25" height="11" width="55" fill="#FF3F23" y="0" x="23"/>
   <rect id="svg_26" height="11" width="55" fill="#FF4023" y="0" x="24"/>
   <rect id="svg_27" height="11" width="54" fill="#FF4123" y="0" x="25"/>
   <rect id="svg_28" height="11" width="54" fill="#FF4323" y="0" x="26"/>
   <rect id="svg_29" height="11" width="53" fill="#FF4423" y="0" x="27"/>
   <rect id="svg_30" height="11" width="53" fill="#FF4623" y="0" x="28"/>
   <rect id="svg_31" height="11" width="52" fill="#FF4722" y="0" x="29"/>
   <rect id="svg_32" height="11" width="52" fill="#FF4922" y="0" x="30"/>
   <rect id="svg_33" height="11" width="51" fill="#FF4A22" y="0" x="31"/>
   <rect id="svg_34" height="11" width="51" fill="#FF4C22" y="0" x="32"/>
   <rect id="svg_35" height="11" width="51" fill="#FF4D22" y="0" x="32"/>
   <rect id="svg_36" height="11" width="51" fill="#FF4F22" y="0" x="33"/>
   <rect id="svg_37" height="11" width="50" fill="#FF5022" y="0" x="34"/>
   <rect id="svg_38" height="11" width="50" fill="#FF5122" y="0" x="35"/>
   <rect id="svg_39" height="11" width="49" fill="#FF5322" y="0" x="36"/>
   <rect id="svg_40" height="11" width="49" fill="#FF5422" y="0" x="37"/>
   <rect id="svg_41" height="11" width="48" fill="#FF5622" y="0" x="38"/>
   <rect id="svg_42" height="11" width="48" fill="#FF5722" y="0" x="39"/>
   <rect id="svg_43" height="11" width="47" fill="#FF5921" y="0" x="40"/>
   <rect id="svg_44" height="11" width="46" fill="#FF5A21" y="0" x="41"/>
   <rect id="svg_45" height="11" width="46" fill="#FF5C21" y="0" x="42"/>
   <rect id="svg_46" height="11" width="45" fill="#FF5D21" y="0" x="43"/>
   <rect id="svg_47" height="11" width="45" fill="#FF5F21" y="0" x="44"/>
   <rect id="svg_48" height="11" width="44" fill="#FF6021" y="0" x="45"/>
   <rect id="svg_49" height="11" width="44" fill="#FF6121" y="0" x="46"/>
   <rect id="svg_50" height="11" width="43" fill="#FF6321" y="0" x="47"/>
   <rect id="svg_51" height="11" width="43" fill="#FF6421" y="0" x="48"/>
   <rect id="svg_52" height="11" width="42" fill="#FF6621" y="0" x="49"/>
   <rect id="svg_53" height="11" width="42" fill="#FF6721" y="0" x="50"/>
   <rect id="svg_54" height="11" width="41" fill="#FF6921" y="0" x="51"/>
   <rect id="svg_55" height="11" width="41" fill="#FF6A20" y="0" x="52"/>
   <rect id="svg_56" height="11" width="40" fill="#FF6C20" y="0" x="53"/>
   <rect id="svg_57" height="11" width="40" fill="#FF6D20" y="0" x="54"/>
   <rect id="svg_58" height="11" width="39" fill="#FF6F20" y="0" x="55"/>
   <rect id="svg_59" height="11" width="39" fill="#FF7020" y="0" x="56"/>
   <rect id="svg_60" height="11" width="38" fill="#FF7120" y="0" x="57"/>
   <rect id="svg_61" height="11" width="38" fill="#FF7320" y="0" x="58"/>
   <rect id="svg_62" height="11" width="37" fill="#FF7420" y="0" x="59"/>
   <rect id="svg_63" height="11" width="36" fill="#FF7620" y="0" x="60"/>
   <rect id="svg_64" height="11" width="36" fill="#FF7720" y="0" x="61"/>
   <rect id="svg_65" height="11" width="35" fill="#FF7920" y="0" x="62"/>
   <rect id="svg_66" height="11" width="35" fill="#FF7A1F" y="0" x="63"/>
   <rect id="svg_67" height="11" width="35" fill="#FF7C1F" y="0" x="63"/>
   <rect id="svg_68" height="11" width="35" fill="#FF7D1F" y="0" x="64"/>
   <rect id="svg_69" height="11" width="34" fill="#FF7F1F" y="0" x="65"/>
   <rect id="svg_70" height="11" width="34" fill="#FF801F" y="0" x="66"/>
   <rect id="svg_71" height="11" width="33" fill="#FF821F" y="0" x="67"/>
   <rect id="svg_72" height="11" width="33" fill="#FF831F" y="0" x="68"/>
   <rect id="svg_73" height="11" width="32" fill="#FF841F" y="0" x="69"/>
   <rect id="svg_74" height="11" width="32" fill="#FF861F" y="0" x="70"/>
   <rect id="svg_75" height="11" width="31" fill="#FF871F" y="0" x="71"/>
   <rect id="svg_76" height="11" width="31" fill="#FF891F" y="0" x="72"/>
   <rect id="svg_77" height="11" width="30" fill="#FF8A1F" y="0" x="73"/>
   <rect id="svg_78" height="11" width="30" fill="#FF8C1E" y="0" x="74"/>
   <rect id="svg_79" height="11" width="29" fill="#FF8D1E" y="0" x="75"/>
   <rect id="svg_80" height="11" width="29" fill="#FF8F1E" y="0" x="76"/>
   <rect id="svg_81" height="11" width="28" fill="#FF901E" y="0" x="77"/>
   <rect id="svg_82" height="11" width="28" fill="#FF921E" y="0" x="78"/>
   <rect id="svg_83" height="11" width="27" fill="#FF931E" y="0" x="79"/>
   <rect id="svg_84" height="11" width="27" fill="#FF941E" y="0" x="80"/>
   <rect id="svg_85" height="11" width="27" fill="#FF951E" y="0" x="81"/>
   <rect id="svg_86" height="11" width="26" fill="#FF961E" y="0" x="82"/>
   <rect id="svg_87" height="11" width="26" fill="#FF971E" y="0" x="83"/>
   <rect id="svg_88" height="11" width="26" fill="#FF991E" y="0" x="84"/>
   <rect id="svg_89" height="11" width="26" fill="#FF9A1E" y="0" x="85"/>
   <rect id="svg_90" height="11" width="26" fill="#FF9B1E" y="0" x="86"/>
   <rect id="svg_91" height="11" width="25" fill="#FF9C1E" y="0" x="87"/>
   <rect id="svg_92" height="11" width="25" fill="#FF9D1E" y="0" x="88"/>
   <rect id="svg_93" height="11" width="25" fill="#FF9E1E" y="0" x="89"/>
   <rect id="svg_94" height="11" width="25" fill="#FF9F1E" y="0" x="90"/>
   <rect id="svg_95" height="11" width="25" fill="#FFA01E" y="0" x="91"/>
   <rect id="svg_96" height="11" width="24" fill="#FFA21E" y="0" x="92"/>
   <rect id="svg_97" height="11" width="24" fill="#FEA31F" y="0" x="93"/>
   <rect id="svg_98" height="11" width="24" fill="#FEA41F" y="0" x="94"/>
   <rect id="svg_99" height="11" width="24" fill="#FEA51F" y="0" x="95"/>
   <rect id="svg_100" height="11" width="24" fill="#FEA61F" y="0" x="96"/>
   <rect id="svg_101" height="11" width="23" fill="#FEA71F" y="0" x="97"/>
   <rect id="svg_102" height="11" width="23" fill="#FEA81F" y="0" x="98"/>
   <rect id="svg_103" height="11" width="23" fill="#FEA91F" y="0" x="99"/>
   <rect id="svg_104" height="11" width="24" fill="#FEAB1F" y="0" x="99"/>
   <rect id="svg_105" height="11" width="24" fill="#FEAC1F" y="0" x="100"/>
   <rect id="svg_106" height="11" width="23" fill="#FEAD1F" y="0" x="101"/>
   <rect id="svg_107" height="11" width="23" fill="#FEAE1F" y="0" x="102"/>
   <rect id="svg_108" height="11" width="23" fill="#FEAF1F" y="0" x="103"/>
   <rect id="svg_109" height="11" width="23" fill="#FEB01F" y="0" x="104"/>
   <rect id="svg_110" height="11" width="23" fill="#FEB11F" y="0" x="105"/>
   <rect id="svg_111" height="11" width="22" fill="#FEB21F" y="0" x="106"/>
   <rect id="svg_112" height="11" width="22" fill="#FEB41F" y="0" x="107"/>
   <rect id="svg_113" height="11" width="22" fill="#FEB51F" y="0" x="108"/>
   <rect id="svg_114" height="11" width="22" fill="#FEB61F" y="0" x="109"/>
   <rect id="svg_115" height="11" width="22" fill="#FEB71F" y="0" x="110"/>
   <rect id="svg_116" height="11" width="21" fill="#FEB81F" y="0" x="111"/>
   <rect id="svg_117" height="11" width="21" fill="#FEB91F" y="0" x="112"/>
   <rect id="svg_118" height="11" width="21" fill="#FEBA1F" y="0" x="113"/>
   <rect id="svg_119" height="11" width="21" fill="#FEBB1F" y="0" x="114"/>
   <rect id="svg_120" height="11" width="21" fill="#FEBD1F" y="0" x="115"/>
   <rect id="svg_121" height="11" width="20" fill="#FEBE1F" y="0" x="116"/>
   <rect id="svg_122" height="11" width="20" fill="#FEBF1F" y="0" x="117"/>
   <rect id="svg_123" height="11" width="20" fill="#FEC01F" y="0" x="118"/>
   <rect id="svg_124" height="11" width="20" fill="#FDC120" y="0" x="119"/>
   <rect id="svg_125" height="11" width="20" fill="#FDC220" y="0" x="120"/>
   <rect id="svg_126" height="11" width="20" fill="#FDC320" y="0" x="121"/>
   <rect id="svg_127" height="11" width="19" fill="#FDC420" y="0" x="122"/>
   <rect id="svg_128" height="11" width="19" fill="#FDC620" y="0" x="123"/>
   <rect id="svg_129" height="11" width="19" fill="#FDC720" y="0" x="124"/>
   <rect id="svg_130" height="11" width="19" fill="#FDC820" y="0" x="125"/>
   <rect id="svg_131" height="11" width="19" fill="#FDC920" y="0" x="126"/>
   <rect id="svg_132" height="11" width="18" fill="#FDCA20" y="0" x="127"/>
   <rect id="svg_133" height="11" width="18" fill="#FDCB20" y="0" x="128"/>
   <rect id="svg_134" height="11" width="18" fill="#FDCC20" y="0" x="129"/>
   <rect id="svg_135" height="11" width="18" fill="#FDCD20" y="0" x="130"/>
   <rect id="svg_136" height="11" width="18" fill="#FDCF20" y="0" x="131"/>
   <rect id="svg_137" height="11" width="17" fill="#FDD020" y="0" x="132"/>
   <rect id="svg_138" height="11" width="17" fill="#FDD120" y="0" x="133"/>
   <rect id="svg_139" height="11" width="17" fill="#FDD220" y="0" x="134"/>
   <rect id="svg_140" height="11" width="17" fill="#FDD320" y="0" x="135"/>
   <rect id="svg_141" height="11" width="17" fill="#FDD420" y="0" x="136"/>
   <rect id="svg_142" height="11" width="16" fill="#FDD520" y="0" x="137"/>
   <rect id="svg_143" height="11" width="16" fill="#FDD620" y="0" x="138"/>
   <rect id="svg_144" height="11" width="17" fill="#FDD820" y="0" x="138"/>
   <rect id="svg_145" height="11" width="17" fill="#FDD920" y="0" x="139"/>
   <rect id="svg_146" height="11" width="17" fill="#FDDA20" y="0" x="140"/>
   <rect id="svg_147" height="11" width="16" fill="#FDDB20" y="0" x="141"/>
   <rect id="svg_148" height="11" width="16" fill="#FDDC20" y="0" x="142"/>
   <rect id="svg_149" height="11" width="16" fill="#FDDD20" y="0" x="143"/>
   <rect id="svg_150" height="11" width="16" fill="#FDDE20" y="0" x="144"/>
   <rect id="svg_151" height="11" width="16" fill="#FCDF21" y="0" x="145"/>
   <rect id="svg_152" height="11" width="15" fill="#FCE121" y="0" x="146"/>
   <rect id="svg_153" height="11" width="15" fill="#FCE221" y="0" x="147"/>
   <rect id="svg_154" height="11" width="15" fill="#FCE321" y="0" x="148"/>
   <rect id="svg_155" height="11" width="15" fill="#FCE421" y="0" x="149"/>
   <rect id="svg_156" height="11" width="15" fill="#FCE521" y="0" x="150"/>
   <rect id="svg_157" height="11" width="14" fill="#FCE621" y="0" x="151"/>
   <rect id="svg_158" height="11" width="14" fill="#FCE721" y="0" x="152"/>
   <rect id="svg_159" height="11" width="14" fill="#FCE821" y="0" x="153"/>
   <rect id="svg_160" height="11" width="14" fill="#FCEA21" y="0" x="154"/>
   <rect id="svg_161" height="11" width="14" fill="#FCEB21" y="0" x="155"/>
   <rect id="svg_162" height="11" width="13" fill="#FCEC21" y="0" x="156"/>
   <rect id="svg_163" height="11" width="13" fill="#FCED21" y="0" x="157"/>
   <rect id="svg_164" height="11" width="13" fill="#FCEE21" y="0" x="158"/>
   <rect id="svg_165" height="11" width="13" fill="#F9EE21" y="0" x="158"/>
   <rect id="svg_166" height="11" width="13" fill="#F6EE20" y="0" x="159"/>
   <rect id="svg_167" height="11" width="13" fill="#F3EF20" y="0" x="159"/>
   <rect id="svg_168" height="11" width="12" fill="#F0EF1F" y="0" x="160"/>
   <rect id="svg_169" height="11" width="12" fill="#ECEF1F" y="0" x="160"/>
   <rect id="svg_170" height="11" width="13" fill="#E9EF1F" y="0" x="160"/>
   <rect id="svg_171" height="11" width="12" fill="#E6EF1E" y="0" x="161"/>
   <rect id="svg_172" height="11" width="12" fill="#E3F01E" y="0" x="161"/>
   <rect id="svg_173" height="11" width="11" fill="#E0F01D" y="0" x="162"/>
   <rect id="svg_174" height="11" width="12" fill="#DDF01D" y="0" x="162"/>
   <rect id="svg_175" height="11" width="12" fill="#DAF01D" y="0" x="162"/>
   <rect id="svg_176" height="11" width="11" fill="#D7F11C" y="0" x="163"/>
   <rect id="svg_177" height="11" width="11" fill="#D4F11C" y="0" x="163"/>
   <rect id="svg_178" height="11" width="11" fill="#D0F11B" y="0" x="164"/>
   <rect id="svg_179" height="11" width="11" fill="#CDF11B" y="0" x="164"/>
   <rect id="svg_180" height="11" width="11" fill="#CAF11A" y="0" x="164"/>
   <rect id="svg_181" height="11" width="11" fill="#C7F21A" y="0" x="165"/>
   <rect id="svg_182" height="11" width="11" fill="#C4F21A" y="0" x="165"/>
   <rect id="svg_183" height="11" width="10" fill="#C1F219" y="0" x="166"/>
   <rect id="svg_184" height="11" width="10" fill="#BEF219" y="0" x="166"/>
   <rect id="svg_185" height="11" width="11" fill="#BBF218" y="0" x="166"/>
   <rect id="svg_186" height="11" width="10" fill="#B8F318" y="0" x="167"/>
   <rect id="svg_187" height="11" width="10" fill="#B4F318" y="0" x="167"/>
   <rect id="svg_188" height="11" width="9" fill="#B1F317" y="0" x="168"/>
   <rect id="svg_189" height="11" width="10" fill="#AEF317" y="0" x="168"/>
   <rect id="svg_190" height="11" width="10" fill="#ABF316" y="0" x="168"/>
   <rect id="svg_191" height="11" width="9" fill="#A8F416" y="0" x="169"/>
   <rect id="svg_192" height="11" width="9" fill="#A5F416" y="0" x="169"/>
   <rect id="svg_193" height="11" width="9" fill="#A2F415" y="0" x="170"/>
   <rect id="svg_194" height="11" width="9" fill="#9FF415" y="0" x="170"/>
   <rect id="svg_195" height="11" width="9" fill="#9CF514" y="0" x="170"/>
   <rect id="svg_196" height="11" width="8" fill="#98F514" y="0" x="171"/>
   <rect id="svg_197" height="11" width="9" fill="#95F514" y="0" x="171"/>
   <rect id="svg_198" height="11" width="8" fill="#92F513" y="0" x="172"/>
   <rect id="svg_199" height="11" width="8" fill="#8FF513" y="0" x="172"/>
   <rect id="svg_200" height="11" width="9" fill="#8CF612" y="0" x="172"/>
   <rect id="svg_201" height="11" width="8" fill="#89F612" y="0" x="173"/>
   <rect id="svg_202" height="11" width="8" fill="#86F612" y="0" x="173"/>
   <rect id="svg_203" height="11" width="7" fill="#83F611" y="0" x="174"/>
   <rect id="svg_204" height="11" width="8" fill="#80F611" y="0" x="174"/>
   <rect id="svg_205" height="11" width="8" fill="#7CF710" y="0" x="174"/>
   <rect id="svg_206" height="11" width="7" fill="#79F710" y="0" x="175"/>
   <rect id="svg_207" height="11" width="7" fill="#76F70F" y="0" x="175"/>
   <rect id="svg_208" height="11" width="7" fill="#73F70F" y="0" x="176"/>
   <rect id="svg_209" height="11" width="7" fill="#70F70F" y="0" x="176"/>
   <rect id="svg_210" height="11" width="7" fill="#6DF80E" y="0" x="176"/>
   <rect id="svg_211" height="11" width="6" fill="#6AF80E" y="0" x="177"/>
   <rect id="svg_212" height="11" width="7" fill="#67F80D" y="0" x="177"/>
   <rect id="svg_213" height="11" width="6" fill="#64F80D" y="0" x="178"/>
   <rect id="svg_214" height="11" width="6" fill="#60F80D" y="0" x="178"/>
   <rect id="svg_215" height="11" width="7" fill="#5DF90C" y="0" x="178"/>
   <rect id="svg_216" height="11" width="6" fill="#5AF90C" y="0" x="179"/>
   <rect id="svg_217" height="11" width="6" fill="#57F90B" y="0" x="179"/>
   <rect id="svg_218" height="11" width="5" fill="#54F90B" y="0" x="180"/>
   <rect id="svg_219" height="11" width="6" fill="#51FA0B" y="0" x="180"/>
   <rect id="svg_220" height="11" width="6" fill="#4EFA0A" y="0" x="180"/>
   <rect id="svg_221" height="11" width="5" fill="#4BFA0A" y="0" x="181"/>
   <rect id="svg_222" height="11" width="5" fill="#48FA09" y="0" x="181"/>
   <rect id="svg_223" height="11" width="5" fill="#44FA09" y="0" x="182"/>
   <rect id="svg_224" height="11" width="5" fill="#41FB09" y="0" x="182"/>
   <rect id="svg_225" height="11" width="5" fill="#3EFB08" y="0" x="182"/>
   <rect id="svg_226" height="11" width="4" fill="#3BFB08" y="0" x="183"/>
   <rect id="svg_227" height="11" width="5" fill="#38FB07" y="0" x="183"/>
   <rect id="svg_228" height="11" width="4" fill="#35FB07" y="0" x="184"/>
   <rect id="svg_229" height="11" width="4" fill="#32FC07" y="0" x="184"/>
   <rect id="svg_230" height="11" width="5" fill="#2FFC06" y="0" x="184"/>
   <rect id="svg_231" height="11" width="4" fill="#2CFC06" y="0" x="185"/>
   <rect id="svg_232" height="11" width="4" fill="#28FC05" y="0" x="185"/>
   <rect id="svg_233" height="11" width="3" fill="#25FC05" y="0" x="186"/>
   <rect id="svg_234" height="11" width="4" fill="#22FD04" y="0" x="186"/>
   <rect id="svg_235" height="11" width="4" fill="#1FFD04" y="0" x="186"/>
   <rect id="svg_236" height="11" width="3" fill="#1CFD04" y="0" x="187"/>
   <rect id="svg_237" height="11" width="3" fill="#19FD03" y="0" x="187"/>
   <rect id="svg_238" height="11" width="3" fill="#16FE03" y="0" x="188"/>
   <rect id="svg_239" height="11" width="3" fill="#13FE02" y="0" x="188"/>
   <rect id="svg_240" height="11" width="3" fill="#10FE02" y="0" x="188"/>
   <rect id="svg_241" height="11" width="2" fill="#0CFE02" y="0" x="189"/>
   <rect id="svg_242" height="11" width="3" fill="#09FE01" y="0" x="189"/>
   <rect id="svg_243" height="11" width="2" fill="#06FF01" y="0" x="190"/>
   <rect id="svg_244" height="11" width="2" fill="#03FF00" y="0" x="190"/>
   <rect id="svg_245" height="11" width="2" fill="#00FF00" y="0" x="190"/>
  </g>
 </g>
</svg>