<?xml version="1.0" standalone="no"?>
<!DOCTYPE svg PUBLIC "-//W3C//DTD SVG 20010904//EN" "http://www.w3.org/TR/2001/REC-SVG-20010904/DTD/svg10.dtd">
<svg version="1.0" xmlns="http://www.w3.org/2000/svg" width="55.000000pt" height="100.000000pt" viewBox="0 0 55.000000 100.000000" preserveAspectRatio="xMidYMid meet">
<g transform="translate(0.000000,100.000000) scale(0.100000,-0.100000)" fill="#009" stroke="none">
<path d="M270 595 l0 -365 -26 10 c-64 25 -147 -2 -202 -64 -25 -29 -32 -45 -32 -79 0 -48 6 -59 37 -76 57 -29 155 0 211 63 l32 37 0 289 c0 159 3 291 8 293 15 10 86 -23 119 -55 88 -84 99 -200 34 -350 -30 -71 -5 -58 29 15 35 73 54 165 45 210 -9 44 -58 130 -115 202 -58 75 -95 137 -111 193 -7 23 -16 42 -21 42 -4 0 -8 -164 -8 -365z"/>
</g>
</svg>
