<?xml version="1.0" standalone="no"?>
<!DOCTYPE svg PUBLIC "-//W3C//DTD SVG 20010904//EN"
 "http://www.w3.org/TR/2001/REC-SVG-20010904/DTD/svg10.dtd">
<svg version="1.0" xmlns="http://www.w3.org/2000/svg"
 width="55.000000pt" height="100.000000pt" viewBox="0 0 55.000000 100.000000"
 preserveAspectRatio="xMidYMid meet">
<metadata>
Created by potrace 1.10, written by Peter Selinger 2001-2011
</metadata>
<g transform="translate(0.000000,100.000000) scale(0.100000,-0.100000)"
fill="#000000" stroke="none">
<path d="M146 698 c-24 -34 -19 -66 13 -99 33 -33 64 -36 118 -14 20 8 38 14
40 12 2 -2 -15 -71 -37 -153 -22 -81 -40 -152 -40 -156 0 -4 7 -8 15 -8 8 0
19 16 24 38 6 20 33 115 59 209 27 95 47 175 45 177 -3 2 -26 -18 -52 -45 -26
-27 -53 -49 -59 -49 -7 0 -12 16 -12 38 0 47 -24 72 -68 72 -21 0 -36 -7 -46
-22z"/>
</g>
</svg>
