<svg width="130" height="70" xmlns="http://www.w3.org/2000/svg">
 <g>
  <title>Layer 1</title>
  <path fill="black" d="m129.53114,69.90804l-8.62267,0q-0.97356,-20.305 -18.49704,-34.49079q-16.68909,-13.49032 -37.41145,-13.49032q-20.72227,0 -37.41136,13.49032q-17.5235,14.18579 -18.49705,34.49079l-8.62275,0q2.36426,-28.37146 18.9143,-48.12016q18.21895,-21.69592 45.61686,-21.69592q27.398,0 45.61685,21.69592q16.55004,19.7487 18.91431,48.12016l-0.00003,0l0.00002,0zm-52.84879,-10.29155q0,4.45042 -3.54639,7.371q-3.54651,2.92056 -8.13597,2.92056q-4.58949,0 -8.06635,-2.92056q-3.47687,-2.92056 -3.47687,-7.371q0,-4.45042 3.47687,-7.30157q3.47686,-2.85105 8.06635,-2.85105q4.58946,0 8.13597,2.85105q3.54639,2.85114 3.54639,7.30157z" id="svg_1"/>
 </g>
</svg>