<svg width="100" height="109" xmlns="http://www.w3.org/2000/svg">
<path d="m81.5625,9.84373q0,7.17187 -7.7344,7.17187q-4.92191,0 -6.6093,-5.7656q-1.125,-4.07806 -1.68761,-4.07806q-3.0937,0 -8.5781,23.20306l7.5938,0q2.9531,0 2.9531,3.0937q0,5.0626 -3.375,5.0626l-9.2812,0l-8.7188,28.125q-13.0781,42.0467 -32.625,42.0467q-13.5,0 -13.5,-9.5624q0,-7.875 7.4531,-7.875q5.3438,0 6.5391,5.1328q1.1953,5.1326 2.1797,5.1326q2.6719,0 7.5937,-17.8591l12.5156,-45.1406l-7.7343,0q-2.6719,0 -2.6719,-3.0938q0,-5.0625 3.9375,-5.0625l9,0q9.2813,-30.375 28.8281,-30.375q13.92191,0 13.92191,9.8437l0,0.00002l0,0.00001l0.00001,0l-0.00001,0z" id="svg_3" fill="black"/>
</svg>