<?xml version="1.0" standalone="no"?>
<!DOCTYPE svg PUBLIC "-//W3C//DTD SVG 20010904//EN" "http://www.w3.org/TR/2001/REC-SVG-20010904/DTD/svg10.dtd">
<svg version="1.0" xmlns="http://www.w3.org/2000/svg" width="55.000000pt" height="100.000000pt" viewBox="0 0 55.000000 100.000000" preserveAspectRatio="xMidYMid meet">
<g transform="translate(0.000000,100.000000) scale(0.100000,-0.100000)" fill="#000000" stroke="none">
<path d="M270 573 l0 -397 -44 -41 c-39 -36 -101 -71 -160 -90 -36 -11 1 -29 59 -29 44 0 62 5 97 30 79 55 78 45 78 512 0 360 -2 412 -15 412 -13 0 -15 -51 -15 -397z"/>
<path d="M136 255 c-89 -31 -153 -138 -117 -194 7 -12 14 -5 26 27 19 47 70 92 139 123 47 20 59 42 30 53 -22 8 -33 7 -78 -9z"/>
</g>
</svg>
