<svg width="82" height="109" xmlns="http://www.w3.org/2000/svg">
 <g>
  <title>Layer 1</title>
  <path fill="black" id="svg_1" d="m97.31239,51.39059q0,0.42191 -0.2812,0.98441q-8.5781,18.14059 -20.3906,18.14059q-4.9219,0 -8.4375,-2.67178q-4.07809,-3.09381 -4.07809,-7.73441q0,-3.65631 5.8359,-16.24222q5.8359,-12.586 5.8359,-19.05469q0,-2.95309 -1.8281,-2.95309q-4.3594,0 -9.2813,5.0625q-4.5,4.5 -6.0468,9.14059l-9.4219,27.70309q-2.25,6.75 -9.2813,6.75q-6.1874,0 -6.1874,-5.90619q0,-1.54691 0.2812,-2.39059l9.4219,-27.70322q1.8281,-5.34369 1.8281,-9.14059q0,-3.51559 -2.6719,-3.51559q-3.7969,0 -7.0312,2.8125q-4.5,3.79691 -7.5938,9.70309q-0.1406,0.28119 -2.3906,7.59381q-2.25,7.31238 -7.4531,21.93738q-2.8125,6.60941 -9.4219,6.60941q-6.1875,0 -6.1875,-6.04678q0,-0.98441 0.4219,-2.25l10.9687,-32.90631q1.2656,-3.79691 1.2656,-6.60941q0,-0.84369 -0.5624,-0.84369q-2.5313,0 -4.4297,7.59369q-1.8985,7.59381 -5.4141,7.59381q-4.7812,0 -4.7812,-2.95309q0,-5.06262 5.7656,-12.09381q5.7656,-7.0312 10.6875,-7.0312q10.4062,0 12.9375,7.31239q7.1718,-7.31239 14.2031,-7.31239q13.7813,0 16.1719,8.1562q7.875,-8.1562 16.0312,-8.1562q14.9063,0 14.9063,11.95311q0,6.89059 -6.1172,20.17969q-6.1172,13.289 -6.1172,16.52341q5.2031,0 9.7031,-11.53119q1.4063,-3.65631 5.4844,-3.65631q3.6562,0 3.6562,2.95309l-0.00002,-0.00001l0.00002,0z"/>
 </g>
</svg>