<svg width="82" height="109" xmlns="http://www.w3.org/2000/svg">
 <g>
  <title>Layer 1</title>
  <path fill="black" id="svg_1" d="m76.15625,32.77346q0,13.92178 -9.70309,26.01559q-10.26571,12.65619 -23.9063,12.65619q-5.0625,0 -8.4375,-2.8125l-5.4843,16.03131q6.0468,0 6.0468,3.65619q0,4.78131 -3.5156,4.78131l-23.0625,0q-2.25,0 -2.25,-2.67191q0,-5.625 7.0313,-5.76559l18.4218,-54.84381q0.9844,-2.95309 0.9844,-6.1875q0,-0.84369 -0.5625,-0.84369q-2.9531,0 -5.4141,7.52341q-2.4609,7.52338 -4.4296,7.52338l-2.5313,0q-2.1094,0 -2.1094,-2.81238q0,-5.20322 5.625,-12.16412q5.625,-6.96089 10.6875,-6.96089q9,0 12.2344,5.4843q6.75,-5.4843 13.9219,-5.4843q16.4531,0 16.4531,16.87502zm-14.9062,-5.625q0,-4.35941 -3.375,-4.35941q-5.625,0 -10.9688,6.46869q-0.2812,1.40631 -9.8438,30.79691q1.125,4.5 5.3438,4.5q6.75,0 13.2188,-15.46881q5.625,-13.5 5.625,-21.93738z"/>
 </g>
</svg>