<?xml version="1.0" standalone="no"?>
<!DOCTYPE svg PUBLIC "-//W3C//DTD SVG 20010904//EN"
 "http://www.w3.org/TR/2001/REC-SVG-20010904/DTD/svg10.dtd">
<svg version="1.0" xmlns="http://www.w3.org/2000/svg"
 width="55.000000pt" height="100.000000pt" viewBox="0 0 55.000000 100.000000"
 preserveAspectRatio="xMidYMid meet">
<metadata>
Created by potrace 1.10, written by Peter Selinger 2001-2011
</metadata>
<g transform="translate(0.000000,100.000000) scale(0.100000,-0.100000)"
fill="#090" stroke="none">
<path d="M220 833 c-44 -16 -54 -86 -17 -120 31 -29 65 -34 112 -17 22 7 43
14 46 14 3 0 -5 -39 -17 -87 -17 -64 -31 -94 -49 -110 -37 -33 -55 -30 -55 10
0 48 -24 77 -65 77 -67 0 -88 -79 -34 -124 35 -30 64 -32 116 -11 20 8 38 13
40 11 2 -2 -16 -73 -40 -157 -35 -123 -41 -155 -30 -157 8 -2 17 -2 19 1 8 8
183 652 178 657 -3 2 -23 -17 -45 -43 -48 -55 -82 -64 -73 -18 5 23 1 35 -19
55 -26 26 -38 29 -67 19z"/>
</g>
</svg>
