<?xml version="1.0" standalone="no"?>
<!DOCTYPE svg PUBLIC "-//W3C//DTD SVG 20010904//EN" "http://www.w3.org/TR/2001/REC-SVG-20010904/DTD/svg10.dtd">
<svg version="1.0" xmlns="http://www.w3.org/2000/svg" width="55.000000pt" height="100.000000pt" viewBox="0 0 55.000000 100.000000" preserveAspectRatio="xMidYMid meet">
<g transform="translate(0.000000,100.000000) scale(0.100000,-0.100000)" fill="#090" stroke="none">
<path d="M280 604 l0 -365 -22 7 c-105 33 -243 -51 -243 -148 0 -26 8 -45 23 -60 32 -33 115 -30 176 6 80 47 80 49 86 313 l5 233 75 -48 c88 -56 125 -97 141 -154 12 -47 5 -118 -18 -161 -8 -16 -12 -31 -9 -34 2 -3 15 15 27 39 18 33 23 60 23 118 1 68 -2 80 -31 125 -18 28 -62 79 -99 115 -63 62 -114 143 -114 183 0 15 3 16 23 6 81 -43 169 -138 184 -198 14 -56 31 -50 22 8 -11 70 -31 103 -126 211 -50 57 -88 110 -95 133 -6 20 -15 37 -20 37 -4 0 -8 -165 -8 -366z"/>
</g>
</svg>
