<?xml version="1.0" standalone="no"?>
<!DOCTYPE svg PUBLIC "-//W3C//DTD SVG 20010904//EN" "http://www.w3.org/TR/2001/REC-SVG-20010904/DTD/svg10.dtd">
<svg version="1.0" xmlns="http://www.w3.org/2000/svg" width="55.000000pt" height="100.000000pt" viewBox="0 0 55.000000 100.000000" preserveAspectRatio="xMidYMid meet">
<g transform="translate(0.000000,100.000000) scale(0.100000,-0.100000)" fill="#E2A30C" stroke="none">
<path d="M130 231 c0 -6 17 -11 39 -11 52 0 95 -36 109 -91 6 -23 8 -47 5 -54 -2 -8 8 -20 25 -29 26 -13 31 -13 51 1 59 41 46 117 -26 160 -36 21 -63 27 -124 31 -55 3 -79 1 -79 -7z"/>
<path d="M25 186 c-56 -56 -17 -143 78 -171 55 -16 144 -20 166 -6 18 12 4 18-43 19 -72 2 -117 51 -120 130 -2 43 -5 47 -29 50 -18 2 -35 -5 -52 -22z"/>
</g>
</svg>
